<?xml version="1.0" encoding="utf-8"?>
<!-- Generator: Adobe Illustrator 24.3.0, SVG Export Plug-In . SVG Version: 6.00 Build 0)  -->
<svg version="1.1" id="Layer_1" xmlns="http://www.w3.org/2000/svg" xmlns:xlink="http://www.w3.org/1999/xlink" x="0px" y="0px"
	 viewBox="0 0 708.66 708.66" style="enable-background:new 0 0 708.66 708.66;" xml:space="preserve">
<path d="M354.33,42.52c-172.21,0-311.81,139.6-311.81,311.81s139.6,311.81,311.81,311.81s311.81-139.6,311.81-311.81
	S526.54,42.52,354.33,42.52z M594.85,507.05c-0.54,0.13-1.1,0.21-1.69,0.21c-3.88,0-7.02-3.14-7.02-7.02V373.93
	c0-3.88,3.14-7.02,7.02-7.02c3.88,0,7.02,3.14,7.02,7.02v124.38C598.45,501.25,596.68,504.17,594.85,507.05z M375.4,70.23v124.93
	c0,3.88-3.14,7.02-7.02,7.02h0c-3.88,0-7.02-3.14-7.02-7.02V69.54C366.07,69.65,370.75,69.89,375.4,70.23z M621.26,272.35
	L621.26,272.35c-3.88,0-7.02-3.14-7.02-7.02v-27.78c4.72,10.49,8.82,21.31,12.27,32.43C625.23,271.43,623.36,272.35,621.26,272.35z
	 M628.28,289.72v126.31c0,3.88-3.14,7.02-7.02,7.02h0c-3.88,0-7.02-3.14-7.02-7.02V289.72c0-3.88,3.14-7.02,7.02-7.02h0
	C625.14,282.7,628.28,285.84,628.28,289.72z M600.18,223.23v126.31c0,3.88-3.14,7.02-7.02,7.02c-3.88,0-7.02-3.14-7.02-7.02V223.23
	c0-3.88,3.14-7.02,7.02-7.02C597.04,216.21,600.18,219.35,600.18,223.23z M565.07,272.35c-3.88,0-7.02-3.14-7.02-7.02V155.22
	c4.86,4.97,9.54,10.13,14.03,15.44v94.67C572.09,269.21,568.94,272.35,565.07,272.35z M572.09,289.72v126.31
	c0,3.88-3.14,7.02-7.02,7.02c-3.88,0-7.02-3.14-7.02-7.02V289.72c0-3.88,3.14-7.02,7.02-7.02
	C568.94,282.7,572.09,285.84,572.09,289.72z M536.97,356.56L536.97,356.56c-3.88,0-7.02-3.14-7.02-7.02V223.23
	c0-3.88,3.14-7.02,7.02-7.02h0c3.88,0,7.02,3.14,7.02,7.02v126.31C543.99,353.42,540.85,356.56,536.97,356.56z M543.99,373.93
	v126.31c0,3.88-3.14,7.02-7.02,7.02h0c-3.88,0-7.02-3.14-7.02-7.02V373.93c0-3.88,3.14-7.02,7.02-7.02h0
	C540.85,366.91,543.99,370.05,543.99,373.93z M536.97,202.17L536.97,202.17c-3.88,0-7.02-3.14-7.02-7.02v-65.15
	c4.81,3.77,9.48,7.7,14.04,11.77v53.38C543.99,199.03,540.85,202.17,536.97,202.17z M508.87,423.05c-3.88,0-7.02-3.14-7.02-7.02
	V289.72c0-3.88,3.14-7.02,7.02-7.02c3.88,0,7.02,3.14,7.02,7.02v126.31C515.89,419.91,512.75,423.05,508.87,423.05z M515.89,444.1
	v126.31c0,3.88-3.14,7.02-7.02,7.02c-3.88,0-7.02-3.14-7.02-7.02V444.1c0-3.88,3.14-7.02,7.02-7.02
	C512.75,437.08,515.89,440.23,515.89,444.1z M508.87,272.35c-3.88,0-7.02-3.14-7.02-7.02V139.02c0-3.88,3.14-7.02,7.02-7.02
	c3.88,0,7.02,3.14,7.02,7.02v126.31C515.89,269.21,512.75,272.35,508.87,272.35z M480.77,356.56c-3.88,0-7.02-3.14-7.02-7.02V223.23
	c0-3.88,3.14-7.02,7.02-7.02c3.88,0,7.02,3.14,7.02,7.02v126.31C487.79,353.42,484.65,356.56,480.77,356.56z M487.79,373.93v126.31
	c0,3.88-3.14,7.02-7.02,7.02c-3.88,0-7.02-3.14-7.02-7.02V373.93c0-3.88,3.14-7.02,7.02-7.02
	C484.65,366.91,487.79,370.05,487.79,373.93z M480.77,202.17c-3.88,0-7.02-3.14-7.02-7.02V95.63c4.75,2.2,9.43,4.52,14.03,6.97
	v92.56C487.79,199.03,484.65,202.17,480.77,202.17z M452.67,423.05L452.67,423.05c-3.88,0-7.02-3.14-7.02-7.02V289.72
	c0-3.88,3.14-7.02,7.02-7.02h0c3.88,0,7.02,3.14,7.02,7.02v126.31C459.69,419.91,456.55,423.05,452.67,423.05z M459.69,444.1v126.31
	c0,3.88-3.14,7.02-7.02,7.02h0c-3.88,0-7.02-3.14-7.02-7.02V444.1c0-3.88,3.14-7.02,7.02-7.02h0
	C456.55,437.08,459.69,440.23,459.69,444.1z M452.67,272.35L452.67,272.35c-3.88,0-7.02-3.14-7.02-7.02V139.02
	c0-3.88,3.14-7.02,7.02-7.02h0c3.88,0,7.02,3.14,7.02,7.02v126.31C459.69,269.21,456.55,272.35,452.67,272.35z M452.67,117.96
	L452.67,117.96c-3.88,0-7.02-3.14-7.02-7.02V84.4c4.74,1.6,9.41,3.33,14.03,5.17v21.37C459.69,114.82,456.55,117.96,452.67,117.96z
	 M424.58,356.56c-3.88,0-7.02-3.14-7.02-7.02V223.23c0-3.88,3.14-7.02,7.02-7.02c3.88,0,7.02,3.14,7.02,7.02v126.31
	C431.59,353.42,428.45,356.56,424.58,356.56z M431.59,373.93v126.31c0,3.88-3.14,7.02-7.02,7.02c-3.88,0-7.02-3.14-7.02-7.02V373.93
	c0-3.88,3.14-7.02,7.02-7.02C428.45,366.91,431.59,370.05,431.59,373.93z M424.58,202.17c-3.88,0-7.02-3.14-7.02-7.02V76.5
	c4.72,1.07,9.4,2.25,14.03,3.56v115.1C431.59,199.03,428.45,202.17,424.58,202.17z M396.48,423.05c-3.88,0-7.02-3.14-7.02-7.02
	V289.72c0-3.88,3.14-7.02,7.02-7.02c3.88,0,7.02,3.14,7.02,7.02v126.31C403.5,419.91,400.35,423.05,396.48,423.05z M403.5,444.1
	v126.31c0,3.88-3.14,7.02-7.02,7.02c-3.88,0-7.02-3.14-7.02-7.02V444.1c0-3.88,3.14-7.02,7.02-7.02
	C400.35,437.08,403.5,440.23,403.5,444.1z M396.48,272.35c-3.88,0-7.02-3.14-7.02-7.02V139.02c0-3.88,3.14-7.02,7.02-7.02
	c3.88,0,7.02,3.14,7.02,7.02v126.31C403.5,269.21,400.35,272.35,396.48,272.35z M396.48,117.96c-3.88,0-7.02-3.14-7.02-7.02V71.61
	c4.72,0.58,9.39,1.28,14.03,2.08v37.26C403.5,114.82,400.35,117.96,396.48,117.96z M368.38,356.56L368.38,356.56
	c-3.88,0-7.02-3.14-7.02-7.02V223.23c0-3.88,3.14-7.02,7.02-7.02h0c3.88,0,7.02,3.14,7.02,7.02v126.31
	C375.4,353.42,372.26,356.56,368.38,356.56z M375.4,373.93v126.31c0,3.88-3.14,7.02-7.02,7.02h0c-3.88,0-7.02-3.14-7.02-7.02V373.93
	c0-3.88,3.14-7.02,7.02-7.02h0C372.26,366.91,375.4,370.05,375.4,373.93z M340.28,423.05c-3.88,0-7.02-3.14-7.02-7.02V289.72
	c0-3.88,3.14-7.02,7.02-7.02c3.88,0,7.02,3.14,7.02,7.02v126.31C347.3,419.91,344.16,423.05,340.28,423.05z M347.3,444.1v126.31
	c0,3.88-3.14,7.02-7.02,7.02c-3.88,0-7.02-3.14-7.02-7.02V444.1c0-3.88,3.14-7.02,7.02-7.02C344.16,437.08,347.3,440.23,347.3,444.1
	z M340.28,272.35c-3.88,0-7.02-3.14-7.02-7.02V139.02c0-3.88,3.14-7.02,7.02-7.02c3.88,0,7.02,3.14,7.02,7.02v126.31
	C347.3,269.21,344.16,272.35,340.28,272.35z M340.28,117.96c-3.88,0-7.02-3.14-7.02-7.02V70.23c4.65-0.34,9.33-0.57,14.03-0.69
	v41.41C347.3,114.82,344.16,117.96,340.28,117.96z M312.18,356.56c-3.88,0-7.02-3.14-7.02-7.02V223.23c0-3.88,3.14-7.02,7.02-7.02
	c3.88,0,7.02,3.14,7.02,7.02v126.31C319.2,353.42,316.06,356.56,312.18,356.56z M319.2,373.93v126.31c0,3.88-3.14,7.02-7.02,7.02
	c-3.88,0-7.02-3.14-7.02-7.02V373.93c0-3.88,3.14-7.02,7.02-7.02C316.06,366.91,319.2,370.05,319.2,373.93z M312.18,202.17
	c-3.88,0-7.02-3.14-7.02-7.02V73.69c4.64-0.81,9.32-1.5,14.03-2.08v123.55C319.2,199.03,316.06,202.17,312.18,202.17z
	 M284.08,423.05L284.08,423.05c-3.88,0-7.02-3.14-7.02-7.02V289.72c0-3.88,3.14-7.02,7.02-7.02h0c3.88,0,7.02,3.14,7.02,7.02v126.31
	C291.1,419.91,287.96,423.05,284.08,423.05z M291.1,444.1v126.31c0,3.88-3.14,7.02-7.02,7.02h0c-3.88,0-7.02-3.14-7.02-7.02V444.1
	c0-3.88,3.14-7.02,7.02-7.02h0C287.96,437.08,291.1,440.23,291.1,444.1z M284.08,272.35L284.08,272.35c-3.88,0-7.02-3.14-7.02-7.02
	V139.02c0-3.88,3.14-7.02,7.02-7.02h0c3.88,0,7.02,3.14,7.02,7.02v126.31C291.1,269.21,287.96,272.35,284.08,272.35z M284.08,117.96
	L284.08,117.96c-3.88,0-7.02-3.14-7.02-7.02V80.06c4.63-1.3,9.31-2.49,14.04-3.56v34.45C291.1,114.82,287.96,117.96,284.08,117.96z
	 M255.99,356.56c-3.88,0-7.02-3.14-7.02-7.02V223.23c0-3.88,3.14-7.02,7.02-7.02c3.88,0,7.02,3.14,7.02,7.02v126.31
	C263,353.42,259.86,356.56,255.99,356.56z M263,373.93v126.31c0,3.88-3.14,7.02-7.02,7.02c-3.88,0-7.02-3.14-7.02-7.02V373.93
	c0-3.88,3.14-7.02,7.02-7.02C259.86,366.91,263,370.05,263,373.93z M255.99,202.17c-3.88,0-7.02-3.14-7.02-7.02V89.58
	c4.62-1.84,9.3-3.57,14.03-5.17v110.75C263,199.03,259.86,202.17,255.99,202.17z M227.89,423.05c-3.88,0-7.02-3.14-7.02-7.02V289.72
	c0-3.88,3.14-7.02,7.02-7.02c3.88,0,7.02,3.14,7.02,7.02v126.31C234.91,419.91,231.76,423.05,227.89,423.05z M234.91,444.1v126.31
	c0,3.88-3.14,7.02-7.02,7.02c-3.88,0-7.02-3.14-7.02-7.02V444.1c0-3.88,3.14-7.02,7.02-7.02
	C231.76,437.08,234.91,440.23,234.91,444.1z M227.89,272.35c-3.88,0-7.02-3.14-7.02-7.02V139.02c0-3.88,3.14-7.02,7.02-7.02
	c3.88,0,7.02,3.14,7.02,7.02v126.31C234.91,269.21,231.76,272.35,227.89,272.35z M227.89,117.96c-3.88,0-7.02-3.14-7.02-7.02v-8.35
	c4.6-2.45,9.28-4.77,14.03-6.97v15.31C234.91,114.82,231.76,117.96,227.89,117.96z M199.79,356.56L199.79,356.56
	c-3.88,0-7.02-3.14-7.02-7.02V223.23c0-3.88,3.14-7.02,7.02-7.02h0c3.88,0,7.02,3.14,7.02,7.02v126.31
	C206.81,353.42,203.67,356.56,199.79,356.56z M206.81,373.93v126.31c0,3.88-3.14,7.02-7.02,7.02h0c-3.88,0-7.02-3.14-7.02-7.02
	V373.93c0-3.88,3.14-7.02,7.02-7.02h0C203.67,366.91,206.81,370.05,206.81,373.93z M199.79,202.17L199.79,202.17
	c-3.88,0-7.02-3.14-7.02-7.02v-75.48c4.59-3.16,9.26-6.21,14.04-9.11v84.58C206.81,199.03,203.67,202.17,199.79,202.17z
	 M178.71,139.02v126.31c0,3.88-3.14,7.02-7.02,7.02s-7.02-3.14-7.02-7.02V141.78c3.41-3.04,6.89-6,10.44-8.88
	C177.26,134.1,178.71,136.39,178.71,139.02z M164.67,289.72c0-3.88,3.14-7.02,7.02-7.02s7.02,3.14,7.02,7.02v126.31
	c0,3.88-3.14,7.02-7.02,7.02s-7.02-3.14-7.02-7.02V289.72z M143.59,356.56c-3.88,0-7.02-3.14-7.02-7.02V223.23
	c0-3.88,3.14-7.02,7.02-7.02c3.88,0,7.02,3.14,7.02,7.02v126.31C150.61,353.42,147.47,356.56,143.59,356.56z M150.61,373.93v126.31
	c0,3.88-3.14,7.02-7.02,7.02c-3.88,0-7.02-3.14-7.02-7.02V373.93c0-3.88,3.14-7.02,7.02-7.02
	C147.47,366.91,150.61,370.05,150.61,373.93z M143.59,202.17c-3.88,0-7.02-3.14-7.02-7.02v-24.49c4.49-5.32,9.17-10.47,14.03-15.44
	v39.94C150.61,199.03,147.47,202.17,143.59,202.17z M115.5,272.35L115.5,272.35c-3.88,0-7.02-3.14-7.02-7.02v-54.98
	c4.36-7.43,9.04-14.65,14.03-21.63v76.61C122.51,269.21,119.37,272.35,115.5,272.35z M122.51,289.72v126.31
	c0,3.88-3.14,7.02-7.02,7.02h0c-3.88,0-7.02-3.14-7.02-7.02V289.72c0-3.88,3.14-7.02,7.02-7.02h0
	C119.37,282.7,122.51,285.84,122.51,289.72z M80.38,275.93c3.77-13.21,8.48-26.03,14.03-38.38v111.99c0,3.88-3.14,7.02-7.02,7.02
	c-3.88,0-7.02-3.14-7.02-7.02V275.93z M80.38,373.93c0-3.88,3.14-7.02,7.02-7.02c3.88,0,7.02,3.14,7.02,7.02v97.19
	c-5.56-12.35-10.26-25.17-14.03-38.38V373.93z M108.48,444.1c0-3.88,3.14-7.02,7.02-7.02h0c3.88,0,7.02,3.14,7.02,7.02v75.84
	c-5-6.98-9.67-14.2-14.03-21.63V444.1z M136.58,528.31c0-3.88,3.14-7.02,7.02-7.02c3.88,0,7.02,3.14,7.02,7.02v25.13
	c-4.86-4.97-9.54-10.13-14.03-15.44V528.31z M164.67,444.1c0-3.88,3.14-7.02,7.02-7.02s7.02,3.14,7.02,7.02v126.31
	c0,2.4-1.21,4.52-3.06,5.78c-3.74-3.01-7.4-6.12-10.98-9.31V444.1z M192.77,528.31c0-3.88,3.14-7.02,7.02-7.02h0
	c3.88,0,7.02,3.14,7.02,7.02v69.78c-4.78-2.9-9.45-5.94-14.04-9.11V528.31z M221.43,597.71c0-3.88,3.14-7.02,7.02-7.02h0
	c3.88,0,7.02,3.14,7.02,7.02v15.57c-4.75-2.18-9.43-4.5-14.03-6.93V597.71z M248.97,528.31c0-3.88,3.14-7.02,7.02-7.02
	c3.88,0,7.02,3.14,7.02,7.02v95.95c-4.74-1.6-9.41-3.33-14.03-5.17V528.31z M277.63,597.71c0-3.88,3.14-7.02,7.02-7.02
	c3.88,0,7.02,3.14,7.02,7.02v34.57c-4.72-1.06-9.4-2.24-14.03-3.53V597.71z M305.17,528.31c0-3.88,3.14-7.02,7.02-7.02
	c3.88,0,7.02,3.14,7.02,7.02v108.74c-4.72-0.58-9.39-1.28-14.03-2.08V528.31z M333.82,597.71c0-3.88,3.14-7.02,7.02-7.02
	c3.88,0,7.02,3.14,7.02,7.02v41.42c-4.71-0.1-9.39-0.33-14.03-0.66V597.71z M361.36,528.31c0-3.88,3.14-7.02,7.02-7.02h0
	c3.88,0,7.02,3.14,7.02,7.02v110.12c-4.65,0.34-9.33,0.57-14.03,0.69V528.31z M390.02,597.71c0-3.88,3.14-7.02,7.02-7.02h0
	c3.88,0,7.02,3.14,7.02,7.02v37.17c-4.64,0.82-9.32,1.52-14.03,2.11V597.71z M417.56,528.31c0-3.88,3.14-7.02,7.02-7.02
	c3.88,0,7.02,3.14,7.02,7.02V628.6c-4.63,1.3-9.31,2.49-14.03,3.56V528.31z M446.22,597.71c0-3.88,3.14-7.02,7.02-7.02
	c3.88,0,7.02,3.14,7.02,7.02v21.14c-4.62,1.85-9.3,3.59-14.03,5.21V597.71z M473.76,528.31c0-3.88,3.14-7.02,7.02-7.02
	c3.88,0,7.02,3.14,7.02,7.02v77.75c-4.6,2.45-9.28,4.77-14.03,6.97V528.31z M502.41,597.71c0-3.88,3.14-7.02,7.02-7.02
	c1.06,0,2.07,0.24,2.97,0.66c-3.28,2.19-6.61,4.33-9.99,6.39V597.71z M529.95,528.31c0-3.88,3.14-7.02,7.02-7.02h0
	c3.88,0,7.02,3.14,7.02,7.02v38.57c-4.55,4.07-9.23,8-14.04,11.77V528.31z M558.05,444.1c0-3.88,3.14-7.02,7.02-7.02
	c3.88,0,7.02,3.14,7.02,7.02v93.89c-4.49,5.32-9.17,10.47-14.03,15.44V444.1z M614.25,444.1c0-3.88,3.14-7.02,7.02-7.02h0
	c2,0,3.79,0.84,5.07,2.18c-3.4,10.91-7.45,21.54-12.09,31.85V444.1z"/>
</svg>
