<?xml version="1.0" encoding="utf-8"?>
<!-- Generator: Adobe Illustrator 24.3.0, SVG Export Plug-In . SVG Version: 6.00 Build 0)  -->
<svg version="1.1" id="Layer_1" xmlns="http://www.w3.org/2000/svg" xmlns:xlink="http://www.w3.org/1999/xlink" x="0px" y="0px"
	 viewBox="0 0 432 288" style="enable-background:new 0 0 432 288;" xml:space="preserve">
<style type="text/css">
	.st0{fill:none;stroke:#E52421;stroke-width:0.25;stroke-miterlimit:10;}
</style>
<g>
	<g>
		<g>
			<polygon class="st0" points="13.64,3.93 13.64,39.93 33.02,39.93 33.02,31.62 41.33,23.32 49.64,23.32 49.64,3.93 			"/>
			<polygon class="st0" points="52.76,3.93 52.76,39.93 72.15,39.93 72.15,31.62 80.46,23.32 88.76,23.32 88.76,3.93 			"/>
			<polygon class="st0" points="91.89,3.93 91.89,39.93 111.28,39.93 111.28,31.62 119.58,23.32 127.89,23.32 127.89,3.93 			"/>
			<polygon class="st0" points="131.02,3.93 131.02,39.93 150.4,39.93 150.4,31.62 158.71,23.32 167.02,23.32 167.02,3.93 			"/>
		</g>
		<g>
			<polygon class="st0" points="13.64,44.62 13.64,80.62 33.02,80.62 33.02,72.31 41.33,64.01 49.64,64.01 49.64,44.62 			"/>
			<polygon class="st0" points="52.76,44.62 52.76,80.62 72.15,80.62 72.15,72.31 80.46,64.01 88.76,64.01 88.76,44.62 			"/>
			<polygon class="st0" points="91.89,44.62 91.89,80.62 111.28,80.62 111.28,72.31 119.58,64.01 127.89,64.01 127.89,44.62 			"/>
			<polygon class="st0" points="131.02,44.62 131.02,80.62 150.4,80.62 150.4,72.31 158.71,64.01 167.02,64.01 167.02,44.62 			"/>
		</g>
		<g>
			<polygon class="st0" points="13.64,85.31 13.64,121.31 33.02,121.31 33.02,113 41.33,104.7 49.64,104.7 49.64,85.31 			"/>
			<polygon class="st0" points="52.76,85.31 52.76,121.31 72.15,121.31 72.15,113 80.46,104.7 88.76,104.7 88.76,85.31 			"/>
			<polygon class="st0" points="91.89,85.31 91.89,121.31 111.28,121.31 111.28,113 119.58,104.7 127.89,104.7 127.89,85.31 			"/>
			<polygon class="st0" points="131.02,85.31 131.02,121.31 150.4,121.31 150.4,113 158.71,104.7 167.02,104.7 167.02,85.31 			"/>
		</g>
		<g>
			<polygon class="st0" points="13.64,126 13.64,162 33.02,162 33.02,153.69 41.33,145.38 49.64,145.38 49.64,126 			"/>
			<polygon class="st0" points="52.76,126 52.76,162 72.15,162 72.15,153.69 80.46,145.38 88.76,145.38 88.76,126 			"/>
			<polygon class="st0" points="91.89,126 91.89,162 111.28,162 111.28,153.69 119.58,145.38 127.89,145.38 127.89,126 			"/>
			<polygon class="st0" points="131.02,126 131.02,162 150.4,162 150.4,153.69 158.71,145.38 167.02,145.38 167.02,126 			"/>
		</g>
		<g>
			<polygon class="st0" points="13.64,166.69 13.64,202.69 33.02,202.69 33.02,194.38 41.33,186.07 49.64,186.07 49.64,166.69 			
				"/>
			<polygon class="st0" points="52.76,166.69 52.76,202.69 72.15,202.69 72.15,194.38 80.46,186.07 88.76,186.07 88.76,166.69 			
				"/>
			<polygon class="st0" points="91.89,166.69 91.89,202.69 111.28,202.69 111.28,194.38 119.58,186.07 127.89,186.07 127.89,166.69 
							"/>
			<polygon class="st0" points="131.02,166.69 131.02,202.69 150.4,202.69 150.4,194.38 158.71,186.07 167.02,186.07 167.02,166.69 
							"/>
		</g>
		<g>
			<polygon class="st0" points="13.64,207.38 13.64,243.38 33.02,243.38 33.02,235.07 41.33,226.76 49.64,226.76 49.64,207.38 			
				"/>
			<polygon class="st0" points="52.76,207.38 52.76,243.38 72.15,243.38 72.15,235.07 80.46,226.76 88.76,226.76 88.76,207.38 			
				"/>
			<polygon class="st0" points="91.89,207.38 91.89,243.38 111.28,243.38 111.28,235.07 119.58,226.76 127.89,226.76 127.89,207.38 
							"/>
			<polygon class="st0" points="131.02,207.38 131.02,243.38 150.4,243.38 150.4,235.07 158.71,226.76 167.02,226.76 167.02,207.38 
							"/>
		</g>
		<g>
			<polygon class="st0" points="13.64,248.07 13.64,284.07 33.02,284.07 33.02,275.76 41.33,267.45 49.64,267.45 49.64,248.07 			
				"/>
			<polygon class="st0" points="52.76,248.07 52.76,284.07 72.15,284.07 72.15,275.76 80.46,267.45 88.76,267.45 88.76,248.07 			
				"/>
			<polygon class="st0" points="91.89,248.07 91.89,284.07 111.28,284.07 111.28,275.76 119.58,267.45 127.89,267.45 127.89,248.07 
							"/>
			<polygon class="st0" points="131.02,248.07 131.02,284.07 150.4,284.07 150.4,275.76 158.71,267.45 167.02,267.45 167.02,248.07 
							"/>
		</g>
	</g>
	<g>
		<polygon class="st0" points="176.56,3.93 176.56,39.93 195.95,39.93 195.95,31.62 204.26,23.32 212.56,23.32 212.56,3.93 		"/>
		<polygon class="st0" points="215.69,3.93 215.69,39.93 235.07,39.93 235.07,31.62 243.38,23.32 251.69,23.32 251.69,3.93 		"/>
		<polygon class="st0" points="254.82,3.93 254.82,39.93 274.2,39.93 274.2,31.62 282.51,23.32 290.82,23.32 290.82,3.93 		"/>
		<polygon class="st0" points="293.94,3.93 293.94,39.93 313.33,39.93 313.33,31.62 321.64,23.32 329.94,23.32 329.94,3.93 		"/>
	</g>
	<g>
		<polygon class="st0" points="418.36,3.93 382.36,3.93 382.36,23.32 390.67,23.32 398.98,31.62 398.98,39.93 418.36,39.93 		"/>
		<polygon class="st0" points="418.36,43.06 382.36,43.06 382.36,62.44 390.67,62.44 398.98,70.75 398.98,79.06 418.36,79.06 		"/>
		<polygon class="st0" points="418.36,82.19 382.36,82.19 382.36,101.57 390.67,101.57 398.98,109.88 398.98,118.19 418.36,118.19 
					"/>
		<polygon class="st0" points="418.36,121.31 382.36,121.31 382.36,140.7 390.67,140.7 398.98,149.01 398.98,157.31 418.36,157.31 
					"/>
	</g>
	<g>
		<polygon class="st0" points="375.34,3.93 339.34,3.93 339.34,23.32 347.64,23.32 355.95,31.62 355.95,39.93 375.34,39.93 		"/>
		<polygon class="st0" points="375.34,43.06 339.34,43.06 339.34,62.44 347.64,62.44 355.95,70.75 355.95,79.06 375.34,79.06 		"/>
		<polygon class="st0" points="375.34,82.19 339.34,82.19 339.34,101.57 347.64,101.57 355.95,109.88 355.95,118.19 375.34,118.19 
					"/>
		<polygon class="st0" points="375.34,121.31 339.34,121.31 339.34,140.7 347.64,140.7 355.95,149.01 355.95,157.31 375.34,157.31 
					"/>
	</g>
	<g>
		<g>
			<polygon class="st0" points="375.34,166.69 339.34,166.69 339.34,186.07 347.64,186.07 355.95,194.38 355.95,202.69 
				375.34,202.69 			"/>
			<polygon class="st0" points="375.34,205.82 339.34,205.82 339.34,225.2 347.64,225.2 355.95,233.51 355.95,241.82 375.34,241.82 
							"/>
		</g>
		<g>
			<polygon class="st0" points="415.47,166.69 379.47,166.69 379.47,186.07 387.78,186.07 396.09,194.38 396.09,202.69 
				415.47,202.69 			"/>
			<polygon class="st0" points="415.47,205.82 379.47,205.82 379.47,225.2 387.78,225.2 396.09,233.51 396.09,241.82 415.47,241.82 
							"/>
		</g>
	</g>
	<g>
		<polygon class="st0" points="176.56,44.62 176.56,80.62 195.95,80.62 195.95,72.31 204.26,64.01 212.56,64.01 212.56,44.62 		"/>
		<polygon class="st0" points="215.69,44.62 215.69,80.62 235.07,80.62 235.07,72.31 243.38,64.01 251.69,64.01 251.69,44.62 		"/>
		<polygon class="st0" points="254.82,44.62 254.82,80.62 274.2,80.62 274.2,72.31 282.51,64.01 290.82,64.01 290.82,44.62 		"/>
		<polygon class="st0" points="293.94,44.62 293.94,80.62 313.33,80.62 313.33,72.31 321.64,64.01 329.94,64.01 329.94,44.62 		"/>
	</g>
	<g>
		<polygon class="st0" points="176.56,85.31 176.56,121.31 195.95,121.31 195.95,113 204.26,104.7 212.56,104.7 212.56,85.31 		"/>
		<polygon class="st0" points="215.69,85.31 215.69,121.31 235.07,121.31 235.07,113 243.38,104.7 251.69,104.7 251.69,85.31 		"/>
		<polygon class="st0" points="254.82,85.31 254.82,121.31 274.2,121.31 274.2,113 282.51,104.7 290.82,104.7 290.82,85.31 		"/>
		<polygon class="st0" points="293.94,85.31 293.94,121.31 313.33,121.31 313.33,113 321.64,104.7 329.94,104.7 329.94,85.31 		"/>
	</g>
	<g>
		<polygon class="st0" points="176.56,126 176.56,162 195.95,162 195.95,153.69 204.26,145.38 212.56,145.38 212.56,126 		"/>
		<polygon class="st0" points="215.69,126 215.69,162 235.07,162 235.07,153.69 243.38,145.38 251.69,145.38 251.69,126 		"/>
		<polygon class="st0" points="254.82,126 254.82,162 274.2,162 274.2,153.69 282.51,145.38 290.82,145.38 290.82,126 		"/>
		<polygon class="st0" points="293.94,126 293.94,162 313.33,162 313.33,153.69 321.64,145.38 329.94,145.38 329.94,126 		"/>
	</g>
	<g>
		<polygon class="st0" points="176.56,166.69 176.56,202.69 195.95,202.69 195.95,194.38 204.26,186.07 212.56,186.07 
			212.56,166.69 		"/>
		<polygon class="st0" points="215.69,166.69 215.69,202.69 235.07,202.69 235.07,194.38 243.38,186.07 251.69,186.07 
			251.69,166.69 		"/>
		<polygon class="st0" points="254.82,166.69 254.82,202.69 274.2,202.69 274.2,194.38 282.51,186.07 290.82,186.07 290.82,166.69 
					"/>
		<polygon class="st0" points="293.94,166.69 293.94,202.69 313.33,202.69 313.33,194.38 321.64,186.07 329.94,186.07 
			329.94,166.69 		"/>
	</g>
	<g>
		<polygon class="st0" points="176.56,207.38 176.56,243.38 195.95,243.38 195.95,235.07 204.26,226.76 212.56,226.76 
			212.56,207.38 		"/>
		<polygon class="st0" points="215.69,207.38 215.69,243.38 235.07,243.38 235.07,235.07 243.38,226.76 251.69,226.76 
			251.69,207.38 		"/>
		<polygon class="st0" points="254.82,207.38 254.82,243.38 274.2,243.38 274.2,235.07 282.51,226.76 290.82,226.76 290.82,207.38 
					"/>
		<polygon class="st0" points="293.94,207.38 293.94,243.38 313.33,243.38 313.33,235.07 321.64,226.76 329.94,226.76 
			329.94,207.38 		"/>
	</g>
	<g>
		<polygon class="st0" points="176.56,248.07 176.56,284.07 195.95,284.07 195.95,275.76 204.26,267.45 212.56,267.45 
			212.56,248.07 		"/>
		<polygon class="st0" points="215.69,248.07 215.69,284.07 235.07,284.07 235.07,275.76 243.38,267.45 251.69,267.45 
			251.69,248.07 		"/>
		<polygon class="st0" points="254.82,248.07 254.82,284.07 274.2,284.07 274.2,275.76 282.51,267.45 290.82,267.45 290.82,248.07 
					"/>
		<polygon class="st0" points="293.94,248.07 293.94,284.07 313.33,284.07 313.33,275.76 321.64,267.45 329.94,267.45 
			329.94,248.07 		"/>
	</g>
</g>
</svg>
