<?xml version="1.0" encoding="utf-8"?>
<!-- Generator: Adobe Illustrator 24.3.0, SVG Export Plug-In . SVG Version: 6.00 Build 0)  -->
<svg version="1.1" id="Layer_1" xmlns="http://www.w3.org/2000/svg" xmlns:xlink="http://www.w3.org/1999/xlink" x="0px" y="0px"
	 viewBox="0 0 651.97 651.97" style="enable-background:new 0 0 651.97 651.97;" xml:space="preserve">
<style type="text/css">
	.st0{fill:none;stroke:#000000;stroke-miterlimit:10;}
</style>
<line class="st0" x1="6.71" y1="6.6" x2="6.71" y2="644.4"/>
<line class="st0" x1="49.23" y1="6.6" x2="49.23" y2="644.4"/>
<line class="st0" x1="91.74" y1="6.6" x2="91.74" y2="644.4"/>
<line class="st0" x1="134.26" y1="6.6" x2="134.26" y2="644.4"/>
<line class="st0" x1="176.78" y1="6.6" x2="176.78" y2="644.4"/>
<line class="st0" x1="219.3" y1="6.6" x2="219.3" y2="644.4"/>
<line class="st0" x1="261.82" y1="6.6" x2="261.82" y2="644.4"/>
<line class="st0" x1="304.34" y1="6.6" x2="304.34" y2="644.4"/>
<line class="st0" x1="346.86" y1="6.6" x2="346.86" y2="644.4"/>
<line class="st0" x1="389.38" y1="6.6" x2="389.38" y2="644.4"/>
<line class="st0" x1="431.9" y1="6.6" x2="431.9" y2="644.4"/>
<line class="st0" x1="474.42" y1="6.6" x2="474.42" y2="644.4"/>
<line class="st0" x1="516.94" y1="6.6" x2="516.94" y2="644.4"/>
<line class="st0" x1="559.46" y1="6.6" x2="559.46" y2="644.4"/>
<line class="st0" x1="601.98" y1="6.6" x2="601.98" y2="644.4"/>
<line class="st0" x1="644.5" y1="6.6" x2="644.5" y2="644.4"/>
<line class="st0" x1="644.5" y1="6.6" x2="6.71" y2="6.6"/>
<line class="st0" x1="644.5" y1="49.12" x2="6.71" y2="49.12"/>
<line class="st0" x1="644.5" y1="91.64" x2="6.71" y2="91.64"/>
<line class="st0" x1="644.5" y1="134.16" x2="6.71" y2="134.16"/>
<line class="st0" x1="644.5" y1="176.68" x2="6.71" y2="176.68"/>
<line class="st0" x1="644.5" y1="219.2" x2="6.71" y2="219.2"/>
<line class="st0" x1="644.5" y1="261.72" x2="6.71" y2="261.72"/>
<line class="st0" x1="644.5" y1="304.24" x2="6.71" y2="304.24"/>
<line class="st0" x1="644.5" y1="346.76" x2="6.71" y2="346.76"/>
<line class="st0" x1="644.5" y1="389.28" x2="6.71" y2="389.28"/>
<line class="st0" x1="644.5" y1="431.8" x2="6.71" y2="431.8"/>
<line class="st0" x1="644.5" y1="474.32" x2="6.71" y2="474.32"/>
<line class="st0" x1="644.5" y1="516.84" x2="6.71" y2="516.84"/>
<line class="st0" x1="644.5" y1="559.36" x2="6.71" y2="559.36"/>
<line class="st0" x1="644.5" y1="601.88" x2="6.71" y2="601.88"/>
<line class="st0" x1="644.5" y1="644.4" x2="6.71" y2="644.4"/>
</svg>
