<?xml version="1.0" encoding="utf-8"?>
<!-- Generator: Adobe Illustrator 24.3.0, SVG Export Plug-In . SVG Version: 6.00 Build 0)  -->
<svg version="1.1" id="Layer_1" xmlns="http://www.w3.org/2000/svg" xmlns:xlink="http://www.w3.org/1999/xlink" x="0px" y="0px"
	 viewBox="0 0 637.8 637.8" style="enable-background:new 0 0 637.8 637.8;" xml:space="preserve">
<style type="text/css">
	.st0{fill:#E30613;}
</style>
<rect x="0" y="0" class="st0" width="42.52" height="42.52"/>
<rect x="127.56" y="0" class="st0" width="42.52" height="42.52"/>
<rect x="297.64" y="0" class="st0" width="42.52" height="42.52"/>
<rect x="467.72" y="0" class="st0" width="42.52" height="42.52"/>
<rect x="595.28" y="0" class="st0" width="42.52" height="42.52"/>
<rect x="42.52" y="42.52" class="st0" width="42.52" height="42.52"/>
<rect x="212.6" y="42.52" class="st0" width="42.52" height="42.52"/>
<rect x="382.68" y="42.52" class="st0" width="42.52" height="42.52"/>
<rect x="552.76" y="42.52" class="st0" width="42.52" height="42.52"/>
<rect x="85.04" y="85.04" class="st0" width="42.52" height="42.52"/>
<rect x="255.12" y="85.04" class="st0" width="42.52" height="42.52"/>
<rect x="340.16" y="85.04" class="st0" width="42.52" height="42.52"/>
<rect x="510.24" y="85.04" class="st0" width="42.52" height="42.52"/>
<rect x="0" y="127.56" class="st0" width="42.52" height="42.52"/>
<rect x="127.56" y="127.56" class="st0" width="42.52" height="42.52"/>
<rect x="297.64" y="127.56" class="st0" width="42.52" height="42.52"/>
<rect x="467.72" y="127.56" class="st0" width="42.52" height="42.52"/>
<rect x="595.28" y="127.56" class="st0" width="42.52" height="42.52"/>
<rect x="170.08" y="170.08" class="st0" width="42.52" height="42.52"/>
<rect x="425.2" y="170.08" class="st0" width="42.52" height="42.52"/>
<rect x="42.52" y="212.6" class="st0" width="42.52" height="42.52"/>
<rect x="212.6" y="212.6" class="st0" width="42.52" height="42.52"/>
<rect x="382.68" y="212.6" class="st0" width="42.52" height="42.52"/>
<rect x="552.76" y="212.6" class="st0" width="42.52" height="42.52"/>
<rect x="85.04" y="255.12" class="st0" width="42.52" height="42.52"/>
<rect x="255.12" y="255.12" class="st0" width="42.52" height="42.52"/>
<rect x="340.16" y="255.12" class="st0" width="42.52" height="42.52"/>
<rect x="510.24" y="255.12" class="st0" width="42.52" height="42.52"/>
<rect x="0" y="297.64" class="st0" width="42.52" height="42.52"/>
<rect x="127.56" y="297.64" class="st0" width="42.52" height="42.52"/>
<rect x="297.64" y="297.51" class="st0" width="42.52" height="42.52"/>
<rect x="467.72" y="297.64" class="st0" width="42.52" height="42.52"/>
<rect x="595.28" y="297.64" class="st0" width="42.52" height="42.52"/>
<rect x="85.04" y="340.16" class="st0" width="42.52" height="42.52"/>
<rect x="255.12" y="340.16" class="st0" width="42.52" height="42.52"/>
<rect x="340.16" y="340.16" class="st0" width="42.52" height="42.52"/>
<rect x="510.24" y="340.16" class="st0" width="42.52" height="42.52"/>
<rect x="42.52" y="382.68" class="st0" width="42.52" height="42.52"/>
<rect x="212.6" y="382.68" class="st0" width="42.52" height="42.52"/>
<rect x="382.68" y="382.68" class="st0" width="42.52" height="42.52"/>
<rect x="552.76" y="382.68" class="st0" width="42.52" height="42.52"/>
<rect x="170.08" y="425.2" class="st0" width="42.52" height="42.52"/>
<rect x="425.2" y="425.2" class="st0" width="42.52" height="42.52"/>
<rect x="0" y="467.72" class="st0" width="42.52" height="42.52"/>
<rect x="127.56" y="467.72" class="st0" width="42.52" height="42.52"/>
<rect x="297.64" y="467.72" class="st0" width="42.52" height="42.52"/>
<rect x="467.72" y="467.72" class="st0" width="42.52" height="42.52"/>
<rect x="595.28" y="467.72" class="st0" width="42.52" height="42.52"/>
<rect x="85.04" y="510.24" class="st0" width="42.52" height="42.52"/>
<rect x="255.12" y="510.24" class="st0" width="42.52" height="42.52"/>
<rect x="340.16" y="510.24" class="st0" width="42.52" height="42.52"/>
<rect x="510.24" y="510.24" class="st0" width="42.52" height="42.52"/>
<rect x="42.52" y="552.76" class="st0" width="42.52" height="42.52"/>
<rect x="212.6" y="552.76" class="st0" width="42.52" height="42.52"/>
<rect x="382.68" y="552.76" class="st0" width="42.52" height="42.52"/>
<rect x="552.76" y="552.76" class="st0" width="42.52" height="42.52"/>
<rect x="0" y="595.28" class="st0" width="42.52" height="42.52"/>
<rect x="127.56" y="595.28" class="st0" width="42.52" height="42.52"/>
<rect x="297.64" y="595.28" class="st0" width="42.52" height="42.52"/>
<rect x="467.72" y="595.28" class="st0" width="42.52" height="42.52"/>
<rect x="595.28" y="595.28" class="st0" width="42.52" height="42.52"/>
</svg>
