<?xml version="1.0" encoding="utf-8"?>
<!-- Generator: Adobe Illustrator 24.3.0, SVG Export Plug-In . SVG Version: 6.00 Build 0)  -->
<svg version="1.1" id="Layer_1" xmlns="http://www.w3.org/2000/svg" xmlns:xlink="http://www.w3.org/1999/xlink" x="0px" y="0px"
	 viewBox="0 0 708.66 708.66" style="enable-background:new 0 0 708.66 708.66;" xml:space="preserve">
<style type="text/css">
	.st0{fill:none;stroke:#E30613;stroke-width:0.25;stroke-miterlimit:10;}
	.st1{fill:#FFFFFF;}
	.st2{fill:none;}
	.st3{font-family:'Helvetica-Bold';}
	.st4{font-size:8.2677px;}
</style>
<g>
	<g>
		<rect x="566.38" y="10" class="st0" width="42.52" height="42.52"/>
		<polygon class="st1" points="587.64,15.12 591.68,27.55 604.75,27.55 594.17,35.23 598.21,47.66 587.64,39.98 577.07,47.66 
			581.1,35.23 570.53,27.55 583.6,27.55 		"/>
		<rect x="566.38" y="10" class="st0" width="42.52" height="42.52"/>
		<polygon points="587.64,15.12 591.68,27.55 604.75,27.55 594.17,35.23 598.21,47.66 587.64,39.98 577.07,47.66 581.1,35.23 
			570.53,27.55 583.6,27.55 		"/>
	</g>
	<g>
		<g>
			<rect x="10.75" y="10" class="st2" width="42.52" height="42.52"/>
			<text transform="matrix(1 0 0 1 17.3066 24.3106)"><tspan x="0" y="0" class="st3 st4">TRIPLE</tspan><tspan x="1.61" y="9.92" class="st3 st4">WORD</tspan><tspan x="0" y="19.84" class="st3 st4">SCORE</tspan></text>
			<rect x="10.75" y="10" class="st0" width="42.52" height="42.52"/>
			<rect x="10.75" y="10" class="st2" width="42.52" height="42.52"/>
			<text transform="matrix(1 0 0 1 17.3066 24.3106)"><tspan x="0" y="0" class="st3 st4">TRIPLE</tspan><tspan x="1.61" y="9.92" class="st3 st4">WORD</tspan><tspan x="0" y="19.84" class="st3 st4">SCORE</tspan></text>
			<rect x="10.75" y="10" class="st0" width="42.52" height="42.52"/>
		</g>
		<g>
			<rect x="61.26" y="10" class="st0" width="42.52" height="42.52"/>
			<rect x="61.26" y="10" class="st2" width="42.52" height="42.52"/>
			<text transform="matrix(1 0 0 1 67.8189 24.3106)"><tspan x="0" y="0" class="st3 st4">TRIPLE</tspan><tspan x="1.61" y="9.92" class="st3 st4">WORD</tspan><tspan x="0" y="19.84" class="st3 st4">SCORE</tspan></text>
			<rect x="61.26" y="10" class="st0" width="42.52" height="42.52"/>
			<rect x="61.26" y="10" class="st2" width="42.52" height="42.52"/>
			<text transform="matrix(1 0 0 1 67.8189 24.3106)"><tspan x="0" y="0" class="st3 st4">TRIPLE</tspan><tspan x="1.61" y="9.92" class="st3 st4">WORD</tspan><tspan x="0" y="19.84" class="st3 st4">SCORE</tspan></text>
		</g>
		<g>
			<rect x="313.82" y="10" class="st0" width="42.52" height="42.52"/>
			<rect x="313.82" y="10" class="st2" width="42.52" height="42.52"/>
			<text transform="matrix(1 0 0 1 320.3804 24.3111)"><tspan x="0" y="0" class="st3 st4">TRIPLE</tspan><tspan x="1.61" y="9.92" class="st3 st4">WORD</tspan><tspan x="0" y="19.84" class="st3 st4">SCORE</tspan></text>
			<rect x="313.82" y="10" class="st0" width="42.52" height="42.52"/>
			<rect x="313.82" y="10" class="st2" width="42.52" height="42.52"/>
			<text transform="matrix(1 0 0 1 320.3804 24.3111)"><tspan x="0" y="0" class="st3 st4">TRIPLE</tspan><tspan x="1.61" y="9.92" class="st3 st4">WORD</tspan><tspan x="0" y="19.84" class="st3 st4">SCORE</tspan></text>
		</g>
		<g>
			<rect x="263.31" y="10" class="st0" width="42.52" height="42.52"/>
			<rect x="263.31" y="10" class="st2" width="42.52" height="42.52"/>
			<text transform="matrix(1 0 0 1 269.8677 24.3106)"><tspan x="0" y="0" class="st3 st4">TRIPLE</tspan><tspan x="1.61" y="9.92" class="st3 st4">WORD</tspan><tspan x="0" y="19.84" class="st3 st4">SCORE</tspan></text>
			<rect x="263.31" y="10" class="st0" width="42.52" height="42.52"/>
			<rect x="263.31" y="10" class="st2" width="42.52" height="42.52"/>
			<text transform="matrix(1 0 0 1 269.8677 24.3106)"><tspan x="0" y="0" class="st3 st4">TRIPLE</tspan><tspan x="1.61" y="9.92" class="st3 st4">WORD</tspan><tspan x="0" y="19.84" class="st3 st4">SCORE</tspan></text>
		</g>
		<g>
			<rect x="162.28" y="10" class="st0" width="42.52" height="42.52"/>
			<rect x="162.28" y="10" class="st2" width="42.52" height="42.52"/>
			<text transform="matrix(1 0 0 1 168.8433 24.3111)"><tspan x="0" y="0" class="st3 st4">TRIPLE</tspan><tspan x="1.61" y="9.92" class="st3 st4">WORD</tspan><tspan x="0" y="19.84" class="st3 st4">SCORE</tspan></text>
			<rect x="162.28" y="10" class="st0" width="42.52" height="42.52"/>
			<rect x="162.28" y="10" class="st2" width="42.52" height="42.52"/>
			<text transform="matrix(1 0 0 1 168.8433 24.3111)"><tspan x="0" y="0" class="st3 st4">TRIPLE</tspan><tspan x="1.61" y="9.92" class="st3 st4">WORD</tspan><tspan x="0" y="19.84" class="st3 st4">SCORE</tspan></text>
		</g>
		<g>
			<rect x="111.77" y="10" class="st0" width="42.52" height="42.52"/>
			<rect x="111.77" y="10" class="st2" width="42.52" height="42.52"/>
			<text transform="matrix(1 0 0 1 118.3311 24.3106)"><tspan x="0" y="0" class="st3 st4">TRIPLE</tspan><tspan x="1.61" y="9.92" class="st3 st4">WORD</tspan><tspan x="0" y="19.84" class="st3 st4">SCORE</tspan></text>
			<rect x="111.77" y="10" class="st0" width="42.52" height="42.52"/>
			<rect x="111.77" y="10" class="st2" width="42.52" height="42.52"/>
			<text transform="matrix(1 0 0 1 118.3311 24.3106)"><tspan x="0" y="0" class="st3 st4">TRIPLE</tspan><tspan x="1.61" y="9.92" class="st3 st4">WORD</tspan><tspan x="0" y="19.84" class="st3 st4">SCORE</tspan></text>
		</g>
		<g>
			<rect x="212.79" y="10" class="st0" width="42.52" height="42.52"/>
			<rect x="212.79" y="10" class="st2" width="42.52" height="42.52"/>
			<text transform="matrix(1 0 0 1 219.356 24.3111)"><tspan x="0" y="0" class="st3 st4">TRIPLE</tspan><tspan x="1.61" y="9.92" class="st3 st4">WORD</tspan><tspan x="0" y="19.84" class="st3 st4">SCORE</tspan></text>
			<rect x="212.79" y="10" class="st0" width="42.52" height="42.52"/>
			<rect x="212.79" y="10" class="st2" width="42.52" height="42.52"/>
			<text transform="matrix(1 0 0 1 219.356 24.3111)"><tspan x="0" y="0" class="st3 st4">TRIPLE</tspan><tspan x="1.61" y="9.92" class="st3 st4">WORD</tspan><tspan x="0" y="19.84" class="st3 st4">SCORE</tspan></text>
		</g>
		<g>
			<rect x="364.33" y="10" class="st0" width="42.52" height="42.52"/>
			<rect x="364.33" y="10" class="st2" width="42.52" height="42.52"/>
			<text transform="matrix(1 0 0 1 370.8931 24.3111)"><tspan x="0" y="0" class="st3 st4">TRIPLE</tspan><tspan x="1.61" y="9.92" class="st3 st4">WORD</tspan><tspan x="0" y="19.84" class="st3 st4">SCORE</tspan></text>
			<rect x="364.33" y="10" class="st0" width="42.52" height="42.52"/>
			<rect x="364.33" y="10" class="st2" width="42.52" height="42.52"/>
			<text transform="matrix(1 0 0 1 370.8931 24.3111)"><tspan x="0" y="0" class="st3 st4">TRIPLE</tspan><tspan x="1.61" y="9.92" class="st3 st4">WORD</tspan><tspan x="0" y="19.84" class="st3 st4">SCORE</tspan></text>
		</g>
	</g>
	<g>
		<g>
			<rect x="465.36" y="207.84" class="st0" width="42.52" height="42.52"/>
			<rect x="465.36" y="207.84" class="st2" width="42.52" height="42.52"/>
			<text transform="matrix(1 0 0 1 469.1622 222.1529)"><tspan x="0" y="0" class="st3 st4">DOUBLE</tspan><tspan x="1.38" y="9.92" class="st3 st4">LETTER</tspan><tspan x="2.75" y="19.84" class="st3 st4">SCORE</tspan></text>
			<rect x="465.36" y="207.84" class="st0" width="42.52" height="42.52"/>
		</g>
		<g>
			<rect x="61.26" y="207.84" class="st0" width="42.52" height="42.52"/>
			<rect x="61.26" y="207.84" class="st2" width="42.52" height="42.52"/>
			<text transform="matrix(1 0 0 1 65.064 222.1524)"><tspan x="0" y="0" class="st3 st4">DOUBLE</tspan><tspan x="1.38" y="9.92" class="st3 st4">LETTER</tspan><tspan x="2.75" y="19.84" class="st3 st4">SCORE</tspan></text>
			<rect x="61.26" y="207.84" class="st0" width="42.52" height="42.52"/>
			<rect x="61.26" y="207.84" class="st2" width="42.52" height="42.52"/>
			<text transform="matrix(1 0 0 1 65.064 222.1524)"><tspan x="0" y="0" class="st3 st4">DOUBLE</tspan><tspan x="1.38" y="9.92" class="st3 st4">LETTER</tspan><tspan x="2.75" y="19.84" class="st3 st4">SCORE</tspan></text>
		</g>
		<g>
			<rect x="313.82" y="207.84" class="st0" width="42.52" height="42.52"/>
			<rect x="313.82" y="207.84" class="st2" width="42.52" height="42.52"/>
			<text transform="matrix(1 0 0 1 317.6251 222.1524)"><tspan x="0" y="0" class="st3 st4">DOUBLE</tspan><tspan x="1.38" y="9.92" class="st3 st4">LETTER</tspan><tspan x="2.75" y="19.84" class="st3 st4">SCORE</tspan></text>
			<rect x="313.82" y="207.84" class="st0" width="42.52" height="42.52"/>
			<rect x="313.82" y="207.84" class="st2" width="42.52" height="42.52"/>
			<text transform="matrix(1 0 0 1 317.6251 222.1524)"><tspan x="0" y="0" class="st3 st4">DOUBLE</tspan><tspan x="1.38" y="9.92" class="st3 st4">LETTER</tspan><tspan x="2.75" y="19.84" class="st3 st4">SCORE</tspan></text>
		</g>
		<g>
			<rect x="10.75" y="207.84" class="st0" width="42.52" height="42.52"/>
			<rect x="10.75" y="207.84" class="st2" width="42.52" height="42.52"/>
			<text transform="matrix(1 0 0 1 14.5518 222.1524)"><tspan x="0" y="0" class="st3 st4">DOUBLE</tspan><tspan x="1.38" y="9.92" class="st3 st4">LETTER</tspan><tspan x="2.75" y="19.84" class="st3 st4">SCORE</tspan></text>
			<rect x="10.75" y="207.84" class="st0" width="42.52" height="42.52"/>
			<rect x="10.75" y="207.84" class="st2" width="42.52" height="42.52"/>
			<text transform="matrix(1 0 0 1 14.5518 222.1524)"><tspan x="0" y="0" class="st3 st4">DOUBLE</tspan><tspan x="1.38" y="9.92" class="st3 st4">LETTER</tspan><tspan x="2.75" y="19.84" class="st3 st4">SCORE</tspan></text>
		</g>
		<g>
			<rect x="515.87" y="207.84" class="st0" width="42.52" height="42.52"/>
			<rect x="515.87" y="207.84" class="st2" width="42.52" height="42.52"/>
			<text transform="matrix(1 0 0 1 519.6739 222.1524)"><tspan x="0" y="0" class="st3 st4">DOUBLE</tspan><tspan x="1.38" y="9.92" class="st3 st4">LETTER</tspan><tspan x="2.75" y="19.84" class="st3 st4">SCORE</tspan></text>
			<rect x="515.87" y="207.84" class="st0" width="42.52" height="42.52"/>
			<rect x="515.87" y="207.84" class="st2" width="42.52" height="42.52"/>
			<text transform="matrix(1 0 0 1 519.6739 222.1524)"><tspan x="0" y="0" class="st3 st4">DOUBLE</tspan><tspan x="1.38" y="9.92" class="st3 st4">LETTER</tspan><tspan x="2.75" y="19.84" class="st3 st4">SCORE</tspan></text>
		</g>
		<g>
			<rect x="162.28" y="207.84" class="st0" width="42.52" height="42.52"/>
			<rect x="162.28" y="207.84" class="st2" width="42.52" height="42.52"/>
			<text transform="matrix(1 0 0 1 166.0884 222.1529)"><tspan x="0" y="0" class="st3 st4">DOUBLE</tspan><tspan x="1.38" y="9.92" class="st3 st4">LETTER</tspan><tspan x="2.75" y="19.84" class="st3 st4">SCORE</tspan></text>
			<rect x="162.28" y="207.84" class="st0" width="42.52" height="42.52"/>
			<rect x="162.28" y="207.84" class="st2" width="42.52" height="42.52"/>
			<text transform="matrix(1 0 0 1 166.0884 222.1529)"><tspan x="0" y="0" class="st3 st4">DOUBLE</tspan><tspan x="1.38" y="9.92" class="st3 st4">LETTER</tspan><tspan x="2.75" y="19.84" class="st3 st4">SCORE</tspan></text>
		</g>
		<g>
			<rect x="263.31" y="207.84" class="st0" width="42.52" height="42.52"/>
			<rect x="263.31" y="207.84" class="st2" width="42.52" height="42.52"/>
			<text transform="matrix(1 0 0 1 267.1129 222.1529)"><tspan x="0" y="0" class="st3 st4">DOUBLE</tspan><tspan x="1.38" y="9.92" class="st3 st4">LETTER</tspan><tspan x="2.75" y="19.84" class="st3 st4">SCORE</tspan></text>
			<rect x="263.31" y="207.84" class="st0" width="42.52" height="42.52"/>
			<rect x="263.31" y="207.84" class="st2" width="42.52" height="42.52"/>
			<text transform="matrix(1 0 0 1 267.1129 222.1529)"><tspan x="0" y="0" class="st3 st4">DOUBLE</tspan><tspan x="1.38" y="9.92" class="st3 st4">LETTER</tspan><tspan x="2.75" y="19.84" class="st3 st4">SCORE</tspan></text>
		</g>
		<g>
			<rect x="364.33" y="207.84" class="st0" width="42.52" height="42.52"/>
			<rect x="364.33" y="207.84" class="st2" width="42.52" height="42.52"/>
			<text transform="matrix(1 0 0 1 368.1368 222.1529)"><tspan x="0" y="0" class="st3 st4">DOUBLE</tspan><tspan x="1.38" y="9.92" class="st3 st4">LETTER</tspan><tspan x="2.75" y="19.84" class="st3 st4">SCORE</tspan></text>
			<rect x="364.33" y="207.84" class="st0" width="42.52" height="42.52"/>
			<rect x="364.33" y="207.84" class="st2" width="42.52" height="42.52"/>
			<text transform="matrix(1 0 0 1 368.1368 222.1529)"><tspan x="0" y="0" class="st3 st4">DOUBLE</tspan><tspan x="1.38" y="9.92" class="st3 st4">LETTER</tspan><tspan x="2.75" y="19.84" class="st3 st4">SCORE</tspan></text>
		</g>
		<g>
			<rect x="111.77" y="207.84" class="st0" width="42.52" height="42.52"/>
			<rect x="111.77" y="207.84" class="st2" width="42.52" height="42.52"/>
			<text transform="matrix(1 0 0 1 115.5757 222.1529)"><tspan x="0" y="0" class="st3 st4">DOUBLE</tspan><tspan x="1.38" y="9.92" class="st3 st4">LETTER</tspan><tspan x="2.75" y="19.84" class="st3 st4">SCORE</tspan></text>
			<rect x="111.77" y="207.84" class="st0" width="42.52" height="42.52"/>
			<rect x="111.77" y="207.84" class="st2" width="42.52" height="42.52"/>
			<text transform="matrix(1 0 0 1 115.5757 222.1529)"><tspan x="0" y="0" class="st3 st4">DOUBLE</tspan><tspan x="1.38" y="9.92" class="st3 st4">LETTER</tspan><tspan x="2.75" y="19.84" class="st3 st4">SCORE</tspan></text>
		</g>
		<g>
			<rect x="414.84" y="207.84" class="st0" width="42.52" height="42.52"/>
			<rect x="414.84" y="207.84" class="st2" width="42.52" height="42.52"/>
			<text transform="matrix(1 0 0 1 418.6495 222.1529)"><tspan x="0" y="0" class="st3 st4">DOUBLE</tspan><tspan x="1.38" y="9.92" class="st3 st4">LETTER</tspan><tspan x="2.75" y="19.84" class="st3 st4">SCORE</tspan></text>
			<rect x="414.84" y="207.84" class="st0" width="42.52" height="42.52"/>
			<rect x="414.84" y="207.84" class="st2" width="42.52" height="42.52"/>
			<text transform="matrix(1 0 0 1 418.6495 222.1529)"><tspan x="0" y="0" class="st3 st4">DOUBLE</tspan><tspan x="1.38" y="9.92" class="st3 st4">LETTER</tspan><tspan x="2.75" y="19.84" class="st3 st4">SCORE</tspan></text>
		</g>
		<g>
			<rect x="212.79" y="207.84" class="st0" width="42.52" height="42.52"/>
			<rect x="212.79" y="207.84" class="st2" width="42.52" height="42.52"/>
			<text transform="matrix(1 0 0 1 216.6006 222.1519)"><tspan x="0" y="0" class="st3 st4">DOUBLE</tspan><tspan x="1.38" y="9.92" class="st3 st4">LETTER</tspan><tspan x="2.75" y="19.84" class="st3 st4">SCORE</tspan></text>
			<rect x="212.79" y="207.84" class="st0" width="42.52" height="42.52"/>
			<rect x="212.79" y="207.84" class="st2" width="42.52" height="42.52"/>
			<text transform="matrix(1 0 0 1 216.6006 222.1519)"><tspan x="0" y="0" class="st3 st4">DOUBLE</tspan><tspan x="1.38" y="9.92" class="st3 st4">LETTER</tspan><tspan x="2.75" y="19.84" class="st3 st4">SCORE</tspan></text>
		</g>
		<g>
			<rect x="566.38" y="207.84" class="st0" width="42.52" height="42.52"/>
			<rect x="566.38" y="207.84" class="st2" width="42.52" height="42.52"/>
			<text transform="matrix(1 0 0 1 570.1856 222.1519)"><tspan x="0" y="0" class="st3 st4">DOUBLE</tspan><tspan x="1.38" y="9.92" class="st3 st4">LETTER</tspan><tspan x="2.75" y="19.84" class="st3 st4">SCORE</tspan></text>
			<rect x="566.38" y="207.84" class="st0" width="42.52" height="42.52"/>
			<rect x="566.38" y="207.84" class="st2" width="42.52" height="42.52"/>
			<text transform="matrix(1 0 0 1 570.1856 222.1519)"><tspan x="0" y="0" class="st3 st4">DOUBLE</tspan><tspan x="1.38" y="9.92" class="st3 st4">LETTER</tspan><tspan x="2.75" y="19.84" class="st3 st4">SCORE</tspan></text>
		</g>
	</g>
	<g>
		<g>
			<rect x="515.87" y="253.05" class="st0" width="42.52" height="42.52"/>
			<rect x="515.87" y="253.05" class="st2" width="42.52" height="42.52"/>
			<text transform="matrix(1 0 0 1 519.6739 267.3628)"><tspan x="0" y="0" class="st3 st4">DOUBLE</tspan><tspan x="1.38" y="9.92" class="st3 st4">LETTER</tspan><tspan x="2.75" y="19.84" class="st3 st4">SCORE</tspan></text>
			<rect x="515.87" y="253.05" class="st0" width="42.52" height="42.52"/>
			<rect x="515.87" y="253.05" class="st2" width="42.52" height="42.52"/>
			<text transform="matrix(1 0 0 1 519.6739 267.3628)"><tspan x="0" y="0" class="st3 st4">DOUBLE</tspan><tspan x="1.38" y="9.92" class="st3 st4">LETTER</tspan><tspan x="2.75" y="19.84" class="st3 st4">SCORE</tspan></text>
		</g>
		<g>
			<rect x="364.33" y="253.05" class="st0" width="42.52" height="42.52"/>
			<rect x="364.33" y="253.05" class="st2" width="42.52" height="42.52"/>
			<text transform="matrix(1 0 0 1 368.1368 267.3628)"><tspan x="0" y="0" class="st3 st4">DOUBLE</tspan><tspan x="1.38" y="9.92" class="st3 st4">LETTER</tspan><tspan x="2.75" y="19.84" class="st3 st4">SCORE</tspan></text>
			<rect x="364.33" y="253.05" class="st0" width="42.52" height="42.52"/>
			<rect x="364.33" y="253.05" class="st2" width="42.52" height="42.52"/>
			<text transform="matrix(1 0 0 1 368.1368 267.3628)"><tspan x="0" y="0" class="st3 st4">DOUBLE</tspan><tspan x="1.38" y="9.92" class="st3 st4">LETTER</tspan><tspan x="2.75" y="19.84" class="st3 st4">SCORE</tspan></text>
		</g>
		<g>
			<rect x="162.28" y="253.05" class="st0" width="42.52" height="42.52"/>
			<rect x="162.28" y="253.05" class="st2" width="42.52" height="42.52"/>
			<text transform="matrix(1 0 0 1 166.0884 267.3618)"><tspan x="0" y="0" class="st3 st4">DOUBLE</tspan><tspan x="1.38" y="9.92" class="st3 st4">LETTER</tspan><tspan x="2.75" y="19.84" class="st3 st4">SCORE</tspan></text>
			<rect x="162.28" y="253.05" class="st0" width="42.52" height="42.52"/>
			<rect x="162.28" y="253.05" class="st2" width="42.52" height="42.52"/>
			<text transform="matrix(1 0 0 1 166.0884 267.3618)"><tspan x="0" y="0" class="st3 st4">DOUBLE</tspan><tspan x="1.38" y="9.92" class="st3 st4">LETTER</tspan><tspan x="2.75" y="19.84" class="st3 st4">SCORE</tspan></text>
		</g>
		<g>
			<rect x="465.36" y="253.05" class="st0" width="42.52" height="42.52"/>
			<rect x="465.36" y="253.05" class="st2" width="42.52" height="42.52"/>
			<text transform="matrix(1 0 0 1 469.1612 267.3618)"><tspan x="0" y="0" class="st3 st4">DOUBLE</tspan><tspan x="1.38" y="9.92" class="st3 st4">LETTER</tspan><tspan x="2.75" y="19.84" class="st3 st4">SCORE</tspan></text>
			<rect x="465.36" y="253.05" class="st0" width="42.52" height="42.52"/>
			<rect x="465.36" y="253.05" class="st2" width="42.52" height="42.52"/>
			<text transform="matrix(1 0 0 1 469.1612 267.3618)"><tspan x="0" y="0" class="st3 st4">DOUBLE</tspan><tspan x="1.38" y="9.92" class="st3 st4">LETTER</tspan><tspan x="2.75" y="19.84" class="st3 st4">SCORE</tspan></text>
		</g>
		<g>
			<rect x="263.31" y="253.05" class="st0" width="42.52" height="42.52"/>
			<rect x="263.31" y="253.05" class="st2" width="42.52" height="42.52"/>
			<text transform="matrix(1 0 0 1 267.1133 267.3618)"><tspan x="0" y="0" class="st3 st4">DOUBLE</tspan><tspan x="1.38" y="9.92" class="st3 st4">LETTER</tspan><tspan x="2.75" y="19.84" class="st3 st4">SCORE</tspan></text>
			<rect x="263.31" y="253.05" class="st0" width="42.52" height="42.52"/>
			<rect x="263.31" y="253.05" class="st2" width="42.52" height="42.52"/>
			<text transform="matrix(1 0 0 1 267.1133 267.3618)"><tspan x="0" y="0" class="st3 st4">DOUBLE</tspan><tspan x="1.38" y="9.92" class="st3 st4">LETTER</tspan><tspan x="2.75" y="19.84" class="st3 st4">SCORE</tspan></text>
		</g>
		<g>
			<rect x="61.26" y="253.05" class="st0" width="42.52" height="42.52"/>
			<rect x="61.26" y="253.05" class="st2" width="42.52" height="42.52"/>
			<text transform="matrix(1 0 0 1 65.064 267.3628)"><tspan x="0" y="0" class="st3 st4">DOUBLE</tspan><tspan x="1.38" y="9.92" class="st3 st4">LETTER</tspan><tspan x="2.75" y="19.84" class="st3 st4">SCORE</tspan></text>
			<rect x="61.26" y="253.05" class="st0" width="42.52" height="42.52"/>
			<rect x="61.26" y="253.05" class="st2" width="42.52" height="42.52"/>
			<text transform="matrix(1 0 0 1 65.064 267.3628)"><tspan x="0" y="0" class="st3 st4">DOUBLE</tspan><tspan x="1.38" y="9.92" class="st3 st4">LETTER</tspan><tspan x="2.75" y="19.84" class="st3 st4">SCORE</tspan></text>
		</g>
		<g>
			<rect x="111.77" y="253.05" class="st0" width="42.52" height="42.52"/>
			<rect x="111.77" y="253.05" class="st2" width="42.52" height="42.52"/>
			<text transform="matrix(1 0 0 1 115.5762 267.3628)"><tspan x="0" y="0" class="st3 st4">DOUBLE</tspan><tspan x="1.38" y="9.92" class="st3 st4">LETTER</tspan><tspan x="2.75" y="19.84" class="st3 st4">SCORE</tspan></text>
			<rect x="111.77" y="253.05" class="st0" width="42.52" height="42.52"/>
			<rect x="111.77" y="253.05" class="st2" width="42.52" height="42.52"/>
			<text transform="matrix(1 0 0 1 115.5762 267.3628)"><tspan x="0" y="0" class="st3 st4">DOUBLE</tspan><tspan x="1.38" y="9.92" class="st3 st4">LETTER</tspan><tspan x="2.75" y="19.84" class="st3 st4">SCORE</tspan></text>
		</g>
		<g>
			<rect x="212.79" y="253.05" class="st0" width="42.52" height="42.52"/>
			<rect x="212.79" y="253.05" class="st2" width="42.52" height="42.52"/>
			<text transform="matrix(1 0 0 1 216.6006 267.3628)"><tspan x="0" y="0" class="st3 st4">DOUBLE</tspan><tspan x="1.38" y="9.92" class="st3 st4">LETTER</tspan><tspan x="2.75" y="19.84" class="st3 st4">SCORE</tspan></text>
			<rect x="212.79" y="253.05" class="st0" width="42.52" height="42.52"/>
			<rect x="212.79" y="253.05" class="st2" width="42.52" height="42.52"/>
			<text transform="matrix(1 0 0 1 216.6006 267.3628)"><tspan x="0" y="0" class="st3 st4">DOUBLE</tspan><tspan x="1.38" y="9.92" class="st3 st4">LETTER</tspan><tspan x="2.75" y="19.84" class="st3 st4">SCORE</tspan></text>
		</g>
		<g>
			<rect x="10.75" y="253.05" class="st0" width="42.52" height="42.52"/>
			<rect x="10.75" y="253.05" class="st2" width="42.52" height="42.52"/>
			<text transform="matrix(1 0 0 1 14.5513 267.3628)"><tspan x="0" y="0" class="st3 st4">DOUBLE</tspan><tspan x="1.38" y="9.92" class="st3 st4">LETTER</tspan><tspan x="2.75" y="19.84" class="st3 st4">SCORE</tspan></text>
			<rect x="10.75" y="253.05" class="st0" width="42.52" height="42.52"/>
			<rect x="10.75" y="253.05" class="st2" width="42.52" height="42.52"/>
			<text transform="matrix(1 0 0 1 14.5513 267.3628)"><tspan x="0" y="0" class="st3 st4">DOUBLE</tspan><tspan x="1.38" y="9.92" class="st3 st4">LETTER</tspan><tspan x="2.75" y="19.84" class="st3 st4">SCORE</tspan></text>
		</g>
		<g>
			<rect x="414.84" y="253.05" class="st0" width="42.52" height="42.52"/>
			<rect x="414.84" y="253.05" class="st2" width="42.52" height="42.52"/>
			<text transform="matrix(1 0 0 1 418.6495 267.3628)"><tspan x="0" y="0" class="st3 st4">DOUBLE</tspan><tspan x="1.38" y="9.92" class="st3 st4">LETTER</tspan><tspan x="2.75" y="19.84" class="st3 st4">SCORE</tspan></text>
			<rect x="414.84" y="253.05" class="st0" width="42.52" height="42.52"/>
			<rect x="414.84" y="253.05" class="st2" width="42.52" height="42.52"/>
			<text transform="matrix(1 0 0 1 418.6495 267.3628)"><tspan x="0" y="0" class="st3 st4">DOUBLE</tspan><tspan x="1.38" y="9.92" class="st3 st4">LETTER</tspan><tspan x="2.75" y="19.84" class="st3 st4">SCORE</tspan></text>
		</g>
		<g>
			<rect x="566.38" y="253.05" class="st0" width="42.52" height="42.52"/>
			<rect x="566.38" y="253.05" class="st2" width="42.52" height="42.52"/>
			<text transform="matrix(1 0 0 1 570.1866 267.3618)"><tspan x="0" y="0" class="st3 st4">DOUBLE</tspan><tspan x="1.38" y="9.92" class="st3 st4">LETTER</tspan><tspan x="2.75" y="19.84" class="st3 st4">SCORE</tspan></text>
			<rect x="566.38" y="253.05" class="st0" width="42.52" height="42.52"/>
			<rect x="566.38" y="253.05" class="st2" width="42.52" height="42.52"/>
			<text transform="matrix(1 0 0 1 570.1866 267.3618)"><tspan x="0" y="0" class="st3 st4">DOUBLE</tspan><tspan x="1.38" y="9.92" class="st3 st4">LETTER</tspan><tspan x="2.75" y="19.84" class="st3 st4">SCORE</tspan></text>
		</g>
		<g>
			<rect x="313.82" y="253.05" class="st0" width="42.52" height="42.52"/>
			<rect x="313.82" y="253.05" class="st2" width="42.52" height="42.52"/>
			<text transform="matrix(1 0 0 1 317.6251 267.3628)"><tspan x="0" y="0" class="st3 st4">DOUBLE</tspan><tspan x="1.38" y="9.92" class="st3 st4">LETTER</tspan><tspan x="2.75" y="19.84" class="st3 st4">SCORE</tspan></text>
			<rect x="313.82" y="253.05" class="st0" width="42.52" height="42.52"/>
			<rect x="313.82" y="253.05" class="st2" width="42.52" height="42.52"/>
			<text transform="matrix(1 0 0 1 317.6251 267.3628)"><tspan x="0" y="0" class="st3 st4">DOUBLE</tspan><tspan x="1.38" y="9.92" class="st3 st4">LETTER</tspan><tspan x="2.75" y="19.84" class="st3 st4">SCORE</tspan></text>
		</g>
	</g>
	<g>
		<g>
			<rect x="212.79" y="157.37" class="st0" width="42.52" height="42.52"/>
			<rect x="212.79" y="157.37" class="st2" width="42.52" height="42.52"/>
			<text transform="matrix(1 0 0 1 219.3555 171.6851)"><tspan x="0" y="0" class="st3 st4">TRIPLE</tspan><tspan x="-1.38" y="9.92" class="st3 st4">LETTER</tspan><tspan x="0" y="19.84" class="st3 st4">SCORE</tspan></text>
			<rect x="212.79" y="157.37" class="st0" width="42.52" height="42.52"/>
		</g>
		<g>
			<rect x="566.38" y="157.37" class="st0" width="42.52" height="42.52"/>
			<rect x="566.38" y="157.37" class="st2" width="42.52" height="42.52"/>
			<text transform="matrix(1 0 0 1 572.9415 171.6851)"><tspan x="0" y="0" class="st3 st4">TRIPLE</tspan><tspan x="-1.38" y="9.92" class="st3 st4">LETTER</tspan><tspan x="0" y="19.84" class="st3 st4">SCORE</tspan></text>
			<rect x="566.38" y="157.37" class="st0" width="42.52" height="42.52"/>
		</g>
		<g>
			<rect x="10.75" y="157.37" class="st0" width="42.52" height="42.52"/>
			<rect x="10.75" y="157.37" class="st2" width="42.52" height="42.52"/>
			<text transform="matrix(1 0 0 1 17.3062 171.6851)"><tspan x="0" y="0" class="st3 st4">TRIPLE</tspan><tspan x="-1.38" y="9.92" class="st3 st4">LETTER</tspan><tspan x="0" y="19.84" class="st3 st4">SCORE</tspan></text>
			<rect x="10.75" y="157.37" class="st0" width="42.52" height="42.52"/>
			<rect x="10.75" y="157.37" class="st2" width="42.52" height="42.52"/>
			<text transform="matrix(1 0 0 1 17.3062 171.6851)"><tspan x="0" y="0" class="st3 st4">TRIPLE</tspan><tspan x="-1.38" y="9.92" class="st3 st4">LETTER</tspan><tspan x="0" y="19.84" class="st3 st4">SCORE</tspan></text>
		</g>
		<g>
			<rect x="162.28" y="157.37" class="st0" width="42.52" height="42.52"/>
			<rect x="162.28" y="157.37" class="st2" width="42.52" height="42.52"/>
			<text transform="matrix(1 0 0 1 168.8433 171.6851)"><tspan x="0" y="0" class="st3 st4">TRIPLE</tspan><tspan x="-1.38" y="9.92" class="st3 st4">LETTER</tspan><tspan x="0" y="19.84" class="st3 st4">SCORE</tspan></text>
			<rect x="162.28" y="157.37" class="st0" width="42.52" height="42.52"/>
			<rect x="162.28" y="157.37" class="st2" width="42.52" height="42.52"/>
			<text transform="matrix(1 0 0 1 168.8433 171.6851)"><tspan x="0" y="0" class="st3 st4">TRIPLE</tspan><tspan x="-1.38" y="9.92" class="st3 st4">LETTER</tspan><tspan x="0" y="19.84" class="st3 st4">SCORE</tspan></text>
		</g>
		<g>
			<rect x="414.84" y="157.37" class="st0" width="42.52" height="42.52"/>
			<rect x="414.84" y="157.37" class="st2" width="42.52" height="42.52"/>
			<text transform="matrix(1 0 0 1 421.4053 171.6851)"><tspan x="0" y="0" class="st3 st4">TRIPLE</tspan><tspan x="-1.38" y="9.92" class="st3 st4">LETTER</tspan><tspan x="0" y="19.84" class="st3 st4">SCORE</tspan></text>
			<rect x="414.84" y="157.37" class="st0" width="42.52" height="42.52"/>
			<rect x="414.84" y="157.37" class="st2" width="42.52" height="42.52"/>
			<text transform="matrix(1 0 0 1 421.4053 171.6851)"><tspan x="0" y="0" class="st3 st4">TRIPLE</tspan><tspan x="-1.38" y="9.92" class="st3 st4">LETTER</tspan><tspan x="0" y="19.84" class="st3 st4">SCORE</tspan></text>
		</g>
		<g>
			<rect x="364.33" y="157.37" class="st0" width="42.52" height="42.52"/>
			<rect x="364.33" y="157.37" class="st2" width="42.52" height="42.52"/>
			<text transform="matrix(1 0 0 1 370.8926 171.6851)"><tspan x="0" y="0" class="st3 st4">TRIPLE</tspan><tspan x="-1.38" y="9.92" class="st3 st4">LETTER</tspan><tspan x="0" y="19.84" class="st3 st4">SCORE</tspan></text>
			<rect x="364.33" y="157.37" class="st0" width="42.52" height="42.52"/>
			<rect x="364.33" y="157.37" class="st2" width="42.52" height="42.52"/>
			<text transform="matrix(1 0 0 1 370.8926 171.6851)"><tspan x="0" y="0" class="st3 st4">TRIPLE</tspan><tspan x="-1.38" y="9.92" class="st3 st4">LETTER</tspan><tspan x="0" y="19.84" class="st3 st4">SCORE</tspan></text>
		</g>
		<g>
			<rect x="515.87" y="157.37" class="st0" width="42.52" height="42.52"/>
			<rect x="515.87" y="157.37" class="st2" width="42.52" height="42.52"/>
			<text transform="matrix(1 0 0 1 522.4288 171.6856)"><tspan x="0" y="0" class="st3 st4">TRIPLE</tspan><tspan x="-1.38" y="9.92" class="st3 st4">LETTER</tspan><tspan x="0" y="19.84" class="st3 st4">SCORE</tspan></text>
			<rect x="515.87" y="157.37" class="st0" width="42.52" height="42.52"/>
			<rect x="515.87" y="157.37" class="st2" width="42.52" height="42.52"/>
			<text transform="matrix(1 0 0 1 522.4288 171.6856)"><tspan x="0" y="0" class="st3 st4">TRIPLE</tspan><tspan x="-1.38" y="9.92" class="st3 st4">LETTER</tspan><tspan x="0" y="19.84" class="st3 st4">SCORE</tspan></text>
		</g>
		<g>
			<rect x="465.36" y="157.37" class="st0" width="42.52" height="42.52"/>
			<rect x="465.36" y="157.37" class="st2" width="42.52" height="42.52"/>
			<text transform="matrix(1 0 0 1 471.9171 171.6856)"><tspan x="0" y="0" class="st3 st4">TRIPLE</tspan><tspan x="-1.38" y="9.92" class="st3 st4">LETTER</tspan><tspan x="0" y="19.84" class="st3 st4">SCORE</tspan></text>
			<rect x="465.36" y="157.37" class="st0" width="42.52" height="42.52"/>
			<rect x="465.36" y="157.37" class="st2" width="42.52" height="42.52"/>
			<text transform="matrix(1 0 0 1 471.9171 171.6856)"><tspan x="0" y="0" class="st3 st4">TRIPLE</tspan><tspan x="-1.38" y="9.92" class="st3 st4">LETTER</tspan><tspan x="0" y="19.84" class="st3 st4">SCORE</tspan></text>
		</g>
		<g>
			<rect x="61.26" y="157.37" class="st0" width="42.52" height="42.52"/>
			<rect x="61.26" y="157.37" class="st2" width="42.52" height="42.52"/>
			<text transform="matrix(1 0 0 1 67.8179 171.6851)"><tspan x="0" y="0" class="st3 st4">TRIPLE</tspan><tspan x="-1.38" y="9.92" class="st3 st4">LETTER</tspan><tspan x="0" y="19.84" class="st3 st4">SCORE</tspan></text>
			<rect x="61.26" y="157.37" class="st0" width="42.52" height="42.52"/>
			<rect x="61.26" y="157.37" class="st2" width="42.52" height="42.52"/>
			<text transform="matrix(1 0 0 1 67.8179 171.6851)"><tspan x="0" y="0" class="st3 st4">TRIPLE</tspan><tspan x="-1.38" y="9.92" class="st3 st4">LETTER</tspan><tspan x="0" y="19.84" class="st3 st4">SCORE</tspan></text>
		</g>
		<g>
			<rect x="313.82" y="157.37" class="st0" width="42.52" height="42.52"/>
			<rect x="313.82" y="157.37" class="st2" width="42.52" height="42.52"/>
			<text transform="matrix(1 0 0 1 320.3795 171.6851)"><tspan x="0" y="0" class="st3 st4">TRIPLE</tspan><tspan x="-1.38" y="9.92" class="st3 st4">LETTER</tspan><tspan x="0" y="19.84" class="st3 st4">SCORE</tspan></text>
			<rect x="313.82" y="157.37" class="st0" width="42.52" height="42.52"/>
			<rect x="313.82" y="157.37" class="st2" width="42.52" height="42.52"/>
			<text transform="matrix(1 0 0 1 320.3795 171.6851)"><tspan x="0" y="0" class="st3 st4">TRIPLE</tspan><tspan x="-1.38" y="9.92" class="st3 st4">LETTER</tspan><tspan x="0" y="19.84" class="st3 st4">SCORE</tspan></text>
		</g>
		<g>
			<rect x="263.31" y="157.37" class="st0" width="42.52" height="42.52"/>
			<rect x="263.31" y="157.37" class="st2" width="42.52" height="42.52"/>
			<text transform="matrix(1 0 0 1 269.8677 171.6846)"><tspan x="0" y="0" class="st3 st4">TRIPLE</tspan><tspan x="-1.38" y="9.92" class="st3 st4">LETTER</tspan><tspan x="0" y="19.84" class="st3 st4">SCORE</tspan></text>
			<rect x="263.31" y="157.37" class="st0" width="42.52" height="42.52"/>
			<rect x="263.31" y="157.37" class="st2" width="42.52" height="42.52"/>
			<text transform="matrix(1 0 0 1 269.8677 171.6846)"><tspan x="0" y="0" class="st3 st4">TRIPLE</tspan><tspan x="-1.38" y="9.92" class="st3 st4">LETTER</tspan><tspan x="0" y="19.84" class="st3 st4">SCORE</tspan></text>
		</g>
		<g>
			<rect x="111.77" y="157.37" class="st0" width="42.52" height="42.52"/>
			<rect x="111.77" y="157.37" class="st2" width="42.52" height="42.52"/>
			<text transform="matrix(1 0 0 1 118.3306 171.6846)"><tspan x="0" y="0" class="st3 st4">TRIPLE</tspan><tspan x="-1.38" y="9.92" class="st3 st4">LETTER</tspan><tspan x="0" y="19.84" class="st3 st4">SCORE</tspan></text>
			<rect x="111.77" y="157.37" class="st0" width="42.52" height="42.52"/>
			<rect x="111.77" y="157.37" class="st2" width="42.52" height="42.52"/>
			<text transform="matrix(1 0 0 1 118.3306 171.6846)"><tspan x="0" y="0" class="st3 st4">TRIPLE</tspan><tspan x="-1.38" y="9.92" class="st3 st4">LETTER</tspan><tspan x="0" y="19.84" class="st3 st4">SCORE</tspan></text>
		</g>
	</g>
	<g>
		<g>
			<rect x="414.84" y="60.59" class="st0" width="42.52" height="42.52"/>
			<rect x="414.84" y="60.59" class="st2" width="42.52" height="42.52"/>
			<text transform="matrix(1 0 0 1 418.6485 74.9029)"><tspan x="0" y="0" class="st3 st4">DOUBLE</tspan><tspan x="4.37" y="9.92" class="st3 st4">WORD</tspan><tspan x="2.75" y="19.84" class="st3 st4">SCORE</tspan></text>
			<rect x="414.84" y="60.59" class="st0" width="42.52" height="42.52"/>
			<rect x="414.84" y="60.59" class="st2" width="42.52" height="42.52"/>
			<text transform="matrix(1 0 0 1 418.6485 74.9029)"><tspan x="0" y="0" class="st3 st4">DOUBLE</tspan><tspan x="4.37" y="9.92" class="st3 st4">WORD</tspan><tspan x="2.75" y="19.84" class="st3 st4">SCORE</tspan></text>
		</g>
		<g>
			<rect x="465.36" y="60.59" class="st0" width="42.52" height="42.52"/>
			<rect x="465.36" y="60.59" class="st2" width="42.52" height="42.52"/>
			<text transform="matrix(1 0 0 1 469.1622 74.9033)"><tspan x="0" y="0" class="st3 st4">DOUBLE</tspan><tspan x="4.37" y="9.92" class="st3 st4">WORD</tspan><tspan x="2.75" y="19.84" class="st3 st4">SCORE</tspan></text>
			<rect x="465.36" y="60.59" class="st0" width="42.52" height="42.52"/>
			<rect x="465.36" y="60.59" class="st2" width="42.52" height="42.52"/>
			<text transform="matrix(1 0 0 1 469.1622 74.9033)"><tspan x="0" y="0" class="st3 st4">DOUBLE</tspan><tspan x="4.37" y="9.92" class="st3 st4">WORD</tspan><tspan x="2.75" y="19.84" class="st3 st4">SCORE</tspan></text>
		</g>
		<g>
			<rect x="515.87" y="60.59" class="st0" width="42.52" height="42.52"/>
			<rect x="515.87" y="60.59" class="st2" width="42.52" height="42.52"/>
			<text transform="matrix(1 0 0 1 519.6739 74.9033)"><tspan x="0" y="0" class="st3 st4">DOUBLE</tspan><tspan x="4.37" y="9.92" class="st3 st4">WORD</tspan><tspan x="2.75" y="19.84" class="st3 st4">SCORE</tspan></text>
			<rect x="515.87" y="60.59" class="st0" width="42.52" height="42.52"/>
			<rect x="515.87" y="60.59" class="st2" width="42.52" height="42.52"/>
			<text transform="matrix(1 0 0 1 519.6739 74.9033)"><tspan x="0" y="0" class="st3 st4">DOUBLE</tspan><tspan x="4.37" y="9.92" class="st3 st4">WORD</tspan><tspan x="2.75" y="19.84" class="st3 st4">SCORE</tspan></text>
		</g>
		<g>
			<rect x="566.38" y="60.59" class="st0" width="42.52" height="42.52"/>
			<rect x="566.38" y="60.59" class="st2" width="42.52" height="42.52"/>
			<text transform="matrix(1 0 0 1 570.1866 74.9033)"><tspan x="0" y="0" class="st3 st4">DOUBLE</tspan><tspan x="4.37" y="9.92" class="st3 st4">WORD</tspan><tspan x="2.75" y="19.84" class="st3 st4">SCORE</tspan></text>
			<rect x="566.38" y="60.59" class="st0" width="42.52" height="42.52"/>
			<rect x="566.38" y="60.59" class="st2" width="42.52" height="42.52"/>
			<text transform="matrix(1 0 0 1 570.1866 74.9033)"><tspan x="0" y="0" class="st3 st4">DOUBLE</tspan><tspan x="4.37" y="9.92" class="st3 st4">WORD</tspan><tspan x="2.75" y="19.84" class="st3 st4">SCORE</tspan></text>
		</g>
		<g>
			<rect x="212.79" y="60.59" class="st0" width="42.52" height="42.52"/>
			<rect x="212.79" y="60.59" class="st2" width="42.52" height="42.52"/>
			<text transform="matrix(1 0 0 1 216.6006 74.9033)"><tspan x="0" y="0" class="st3 st4">DOUBLE</tspan><tspan x="4.37" y="9.92" class="st3 st4">WORD</tspan><tspan x="2.75" y="19.84" class="st3 st4">SCORE</tspan></text>
			<rect x="212.79" y="60.59" class="st0" width="42.52" height="42.52"/>
			<rect x="212.79" y="60.59" class="st2" width="42.52" height="42.52"/>
			<text transform="matrix(1 0 0 1 216.6006 74.9033)"><tspan x="0" y="0" class="st3 st4">DOUBLE</tspan><tspan x="4.37" y="9.92" class="st3 st4">WORD</tspan><tspan x="2.75" y="19.84" class="st3 st4">SCORE</tspan></text>
		</g>
		<g>
			<rect x="263.31" y="60.59" class="st0" width="42.52" height="42.52"/>
			<rect x="263.31" y="60.59" class="st2" width="42.52" height="42.52"/>
			<text transform="matrix(1 0 0 1 267.1133 74.9029)"><tspan x="0" y="0" class="st3 st4">DOUBLE</tspan><tspan x="4.37" y="9.92" class="st3 st4">WORD</tspan><tspan x="2.75" y="19.84" class="st3 st4">SCORE</tspan></text>
			<rect x="263.31" y="60.59" class="st0" width="42.52" height="42.52"/>
			<rect x="263.31" y="60.59" class="st2" width="42.52" height="42.52"/>
			<text transform="matrix(1 0 0 1 267.1133 74.9029)"><tspan x="0" y="0" class="st3 st4">DOUBLE</tspan><tspan x="4.37" y="9.92" class="st3 st4">WORD</tspan><tspan x="2.75" y="19.84" class="st3 st4">SCORE</tspan></text>
		</g>
		<g>
			<rect x="313.82" y="60.59" class="st0" width="42.52" height="42.52"/>
			<rect x="313.82" y="60.59" class="st2" width="42.52" height="42.52"/>
			<text transform="matrix(1 0 0 1 317.6251 74.9029)"><tspan x="0" y="0" class="st3 st4">DOUBLE</tspan><tspan x="4.37" y="9.92" class="st3 st4">WORD</tspan><tspan x="2.75" y="19.84" class="st3 st4">SCORE</tspan></text>
			<rect x="313.82" y="60.59" class="st0" width="42.52" height="42.52"/>
			<rect x="313.82" y="60.59" class="st2" width="42.52" height="42.52"/>
			<text transform="matrix(1 0 0 1 317.6251 74.9029)"><tspan x="0" y="0" class="st3 st4">DOUBLE</tspan><tspan x="4.37" y="9.92" class="st3 st4">WORD</tspan><tspan x="2.75" y="19.84" class="st3 st4">SCORE</tspan></text>
		</g>
		<g>
			<rect x="364.33" y="60.59" class="st0" width="42.52" height="42.52"/>
			<rect x="364.33" y="60.59" class="st2" width="42.52" height="42.52"/>
			<text transform="matrix(1 0 0 1 368.1368 74.9029)"><tspan x="0" y="0" class="st3 st4">DOUBLE</tspan><tspan x="4.37" y="9.92" class="st3 st4">WORD</tspan><tspan x="2.75" y="19.84" class="st3 st4">SCORE</tspan></text>
			<rect x="364.33" y="60.59" class="st0" width="42.52" height="42.52"/>
			<rect x="364.33" y="60.59" class="st2" width="42.52" height="42.52"/>
			<text transform="matrix(1 0 0 1 368.1368 74.9029)"><tspan x="0" y="0" class="st3 st4">DOUBLE</tspan><tspan x="4.37" y="9.92" class="st3 st4">WORD</tspan><tspan x="2.75" y="19.84" class="st3 st4">SCORE</tspan></text>
		</g>
		<g>
			<rect x="10.75" y="60.59" class="st0" width="42.52" height="42.52"/>
			<rect x="10.75" y="60.59" class="st2" width="42.52" height="42.52"/>
			<text transform="matrix(1 0 0 1 14.5508 74.9029)"><tspan x="0" y="0" class="st3 st4">DOUBLE</tspan><tspan x="4.37" y="9.92" class="st3 st4">WORD</tspan><tspan x="2.75" y="19.84" class="st3 st4">SCORE</tspan></text>
			<rect x="10.75" y="60.59" class="st0" width="42.52" height="42.52"/>
			<rect x="10.75" y="60.59" class="st2" width="42.52" height="42.52"/>
			<text transform="matrix(1 0 0 1 14.5508 74.9029)"><tspan x="0" y="0" class="st3 st4">DOUBLE</tspan><tspan x="4.37" y="9.92" class="st3 st4">WORD</tspan><tspan x="2.75" y="19.84" class="st3 st4">SCORE</tspan></text>
		</g>
		<g>
			<rect x="61.26" y="60.59" class="st0" width="42.52" height="42.52"/>
			<rect x="61.26" y="60.59" class="st2" width="42.52" height="42.52"/>
			<text transform="matrix(1 0 0 1 65.0635 74.9029)"><tspan x="0" y="0" class="st3 st4">DOUBLE</tspan><tspan x="4.37" y="9.92" class="st3 st4">WORD</tspan><tspan x="2.75" y="19.84" class="st3 st4">SCORE</tspan></text>
			<rect x="61.26" y="60.59" class="st0" width="42.52" height="42.52"/>
			<rect x="61.26" y="60.59" class="st2" width="42.52" height="42.52"/>
			<text transform="matrix(1 0 0 1 65.0635 74.9029)"><tspan x="0" y="0" class="st3 st4">DOUBLE</tspan><tspan x="4.37" y="9.92" class="st3 st4">WORD</tspan><tspan x="2.75" y="19.84" class="st3 st4">SCORE</tspan></text>
		</g>
		<g>
			<rect x="111.77" y="60.59" class="st0" width="42.52" height="42.52"/>
			<rect x="111.77" y="60.59" class="st2" width="42.52" height="42.52"/>
			<text transform="matrix(1 0 0 1 115.5762 74.9029)"><tspan x="0" y="0" class="st3 st4">DOUBLE</tspan><tspan x="4.37" y="9.92" class="st3 st4">WORD</tspan><tspan x="2.75" y="19.84" class="st3 st4">SCORE</tspan></text>
			<rect x="111.77" y="60.59" class="st0" width="42.52" height="42.52"/>
			<rect x="111.77" y="60.59" class="st2" width="42.52" height="42.52"/>
			<text transform="matrix(1 0 0 1 115.5762 74.9029)"><tspan x="0" y="0" class="st3 st4">DOUBLE</tspan><tspan x="4.37" y="9.92" class="st3 st4">WORD</tspan><tspan x="2.75" y="19.84" class="st3 st4">SCORE</tspan></text>
		</g>
		<g>
			<rect x="162.28" y="60.59" class="st0" width="42.52" height="42.52"/>
			<rect x="162.28" y="60.59" class="st2" width="42.52" height="42.52"/>
			<text transform="matrix(1 0 0 1 166.0884 74.9033)"><tspan x="0" y="0" class="st3 st4">DOUBLE</tspan><tspan x="4.37" y="9.92" class="st3 st4">WORD</tspan><tspan x="2.75" y="19.84" class="st3 st4">SCORE</tspan></text>
			<rect x="162.28" y="60.59" class="st0" width="42.52" height="42.52"/>
			<rect x="162.28" y="60.59" class="st2" width="42.52" height="42.52"/>
			<text transform="matrix(1 0 0 1 166.0884 74.9033)"><tspan x="0" y="0" class="st3 st4">DOUBLE</tspan><tspan x="4.37" y="9.92" class="st3 st4">WORD</tspan><tspan x="2.75" y="19.84" class="st3 st4">SCORE</tspan></text>
		</g>
	</g>
	<g>
		<g>
			<rect x="515.87" y="106.97" class="st0" width="42.52" height="42.52"/>
			<rect x="515.87" y="106.97" class="st2" width="42.52" height="42.52"/>
			<text transform="matrix(1 0 0 1 519.673 121.2837)"><tspan x="0" y="0" class="st3 st4">DOUBLE</tspan><tspan x="4.37" y="9.92" class="st3 st4">WORD</tspan><tspan x="2.75" y="19.84" class="st3 st4">SCORE</tspan></text>
			<rect x="515.87" y="106.97" class="st0" width="42.52" height="42.52"/>
			<rect x="515.87" y="106.97" class="st2" width="42.52" height="42.52"/>
			<text transform="matrix(1 0 0 1 519.673 121.2837)"><tspan x="0" y="0" class="st3 st4">DOUBLE</tspan><tspan x="4.37" y="9.92" class="st3 st4">WORD</tspan><tspan x="2.75" y="19.84" class="st3 st4">SCORE</tspan></text>
		</g>
		<g>
			<rect x="465.36" y="106.97" class="st0" width="42.52" height="42.52"/>
			<rect x="465.36" y="106.97" class="st2" width="42.52" height="42.52"/>
			<text transform="matrix(1 0 0 1 469.1613 121.2837)"><tspan x="0" y="0" class="st3 st4">DOUBLE</tspan><tspan x="4.37" y="9.92" class="st3 st4">WORD</tspan><tspan x="2.75" y="19.84" class="st3 st4">SCORE</tspan></text>
			<rect x="465.36" y="106.97" class="st0" width="42.52" height="42.52"/>
			<rect x="465.36" y="106.97" class="st2" width="42.52" height="42.52"/>
			<text transform="matrix(1 0 0 1 469.1613 121.2837)"><tspan x="0" y="0" class="st3 st4">DOUBLE</tspan><tspan x="4.37" y="9.92" class="st3 st4">WORD</tspan><tspan x="2.75" y="19.84" class="st3 st4">SCORE</tspan></text>
		</g>
		<g>
			<rect x="414.84" y="106.97" class="st0" width="42.52" height="42.52"/>
			<rect x="414.84" y="106.97" class="st2" width="42.52" height="42.52"/>
			<text transform="matrix(1 0 0 1 418.6496 121.2842)"><tspan x="0" y="0" class="st3 st4">DOUBLE</tspan><tspan x="4.37" y="9.92" class="st3 st4">WORD</tspan><tspan x="2.75" y="19.84" class="st3 st4">SCORE</tspan></text>
			<rect x="414.84" y="106.97" class="st0" width="42.52" height="42.52"/>
			<rect x="414.84" y="106.97" class="st2" width="42.52" height="42.52"/>
			<text transform="matrix(1 0 0 1 418.6496 121.2842)"><tspan x="0" y="0" class="st3 st4">DOUBLE</tspan><tspan x="4.37" y="9.92" class="st3 st4">WORD</tspan><tspan x="2.75" y="19.84" class="st3 st4">SCORE</tspan></text>
		</g>
		<g>
			<rect x="566.38" y="106.97" class="st0" width="42.52" height="42.52"/>
			<rect x="566.38" y="106.97" class="st2" width="42.52" height="42.52"/>
			<text transform="matrix(1 0 0 1 570.1847 121.2842)"><tspan x="0" y="0" class="st3 st4">DOUBLE</tspan><tspan x="4.37" y="9.92" class="st3 st4">WORD</tspan><tspan x="2.75" y="19.84" class="st3 st4">SCORE</tspan></text>
			<rect x="566.38" y="106.97" class="st0" width="42.52" height="42.52"/>
			<rect x="566.38" y="106.97" class="st2" width="42.52" height="42.52"/>
			<text transform="matrix(1 0 0 1 570.1847 121.2842)"><tspan x="0" y="0" class="st3 st4">DOUBLE</tspan><tspan x="4.37" y="9.92" class="st3 st4">WORD</tspan><tspan x="2.75" y="19.84" class="st3 st4">SCORE</tspan></text>
		</g>
	</g>
</g>
</svg>
