solid EF96
facet normal 4.018985219083831e-18 -6.985445974420488e-18 -1
  outer loop
    vertex 7.353416442871094 13.5 0
    vertex 0 5 0
    vertex 0 13.5 -3.524958050245313e-16
  endloop
endfacet
facet normal 4.018985219083831e-18 -6.985445974420488e-18 -1
  outer loop
    vertex 0 5 0
    vertex 7.353416442871094 13.5 0
    vertex 5 0 0
  endloop
endfacet
facet normal 4.018985219083831e-18 -6.985445974420488e-18 -1
  outer loop
    vertex 5 0 0
    vertex 7.353416442871094 13.5 0
    vertex 55 0 0
  endloop
endfacet
facet normal 4.018985219083831e-18 -6.985445974420488e-18 -1
  outer loop
    vertex 55 0 0
    vertex 7.353416442871094 13.5 0
    vertex 22.10341644287109 30 -3.524958050245313e-16
  endloop
endfacet
facet normal 4.018985219083831e-18 -6.985445974420488e-18 -1
  outer loop
    vertex 55 0 0
    vertex 22.10341644287109 30 -3.524958050245313e-16
    vertex 55 30 0
  endloop
endfacet
facet normal 4.018985219083831e-18 -6.985445974420488e-18 -1
  outer loop
    vertex 55 0 0
    vertex 55 30 0
    vertex 60 25 0
  endloop
endfacet
facet normal 4.018985219083831e-18 -6.985445974420488e-18 -1
  outer loop
    vertex 55 0 0
    vertex 60 25 0
    vertex 60 5 0
  endloop
endfacet
facet normal 0 1 0
  outer loop
    vertex 0 13.5 2.049999952316284
    vertex 7.353416442871094 13.5 0
    vertex 0 13.5 -3.524958050245313e-16
  endloop
endfacet
facet normal 0 1 0
  outer loop
    vertex 7.353416442871094 13.5 0
    vertex 0 13.5 2.049999952316284
    vertex 7.353416442871094 13.5 2.049999952316284
  endloop
endfacet
facet normal -0.7455366849899292 0.666464626789093 -5.743347927016166e-17
  outer loop
    vertex 22.10341644287109 30 2.049999952316284
    vertex 7.353416442871094 13.5 0
    vertex 7.353416442871094 13.5 2.049999952316284
  endloop
endfacet
facet normal -0.7455366849899292 0.666464626789093 -5.743347927016166e-17
  outer loop
    vertex 7.353416442871094 13.5 0
    vertex 22.10341644287109 30 2.049999952316284
    vertex 22.10341644287109 30 -3.524958050245313e-16
  endloop
endfacet
facet normal 0 0 1
  outer loop
    vertex 5 0 2.049999952316284
    vertex 0 13.5 2.049999952316284
    vertex 0 5 2.049999952316284
  endloop
endfacet
facet normal 0 0 1
  outer loop
    vertex 0 13.5 2.049999952316284
    vertex 5 0 2.049999952316284
    vertex 7.353416442871094 13.5 2.049999952316284
  endloop
endfacet
facet normal 0 0 1
  outer loop
    vertex 7.353416442871094 13.5 2.049999952316284
    vertex 5 0 2.049999952316284
    vertex 55 0 2.049999952316284
  endloop
endfacet
facet normal 0 0 1
  outer loop
    vertex 7.353416442871094 13.5 2.049999952316284
    vertex 55 0 2.049999952316284
    vertex 22.10341644287109 30 2.049999952316284
  endloop
endfacet
facet normal 0 0 1
  outer loop
    vertex 22.10341644287109 30 2.049999952316284
    vertex 55 0 2.049999952316284
    vertex 55 30 2.049999952316284
  endloop
endfacet
facet normal 0 0 1
  outer loop
    vertex 55 30 2.049999952316284
    vertex 55 0 2.049999952316284
    vertex 60 5 2.049999952316284
  endloop
endfacet
facet normal 0 0 1
  outer loop
    vertex 55 30 2.049999952316284
    vertex 60 5 2.049999952316284
    vertex 60 25 2.049999952316284
  endloop
endfacet
facet normal 0.7071067690849304 -0.7071067690849304 0
  outer loop
    vertex 60 5 0
    vertex 55 0 2.049999952316284
    vertex 55 0 0
  endloop
endfacet
facet normal 0.7071067690849304 -0.7071067690849304 0
  outer loop
    vertex 55 0 2.049999952316284
    vertex 60 5 0
    vertex 60 5 2.049999952316284
  endloop
endfacet
facet normal 1 0 0
  outer loop
    vertex 60 25 0
    vertex 60 5 2.049999952316284
    vertex 60 5 0
  endloop
endfacet
facet normal 1 0 0
  outer loop
    vertex 60 5 2.049999952316284
    vertex 60 25 0
    vertex 60 25 2.049999952316284
  endloop
endfacet
facet normal -1 0 0
  outer loop
    vertex 0 13.5 2.049999952316284
    vertex 0 5 0
    vertex 0 5 2.049999952316284
  endloop
endfacet
facet normal -1 0 0
  outer loop
    vertex 0 5 0
    vertex 0 13.5 2.049999952316284
    vertex 0 13.5 -3.524958050245313e-16
  endloop
endfacet
facet normal 0.7071067690849304 0.7071067690849304 0
  outer loop
    vertex 55 30 0
    vertex 60 25 2.049999952316284
    vertex 60 25 0
  endloop
endfacet
facet normal 0.7071067690849304 0.7071067690849304 0
  outer loop
    vertex 60 25 2.049999952316284
    vertex 55 30 0
    vertex 55 30 2.049999952316284
  endloop
endfacet
facet normal -0.7071067690849304 -0.7071067690849304 -0
  outer loop
    vertex 0 5 2.049999952316284
    vertex 5 0 0
    vertex 5 0 2.049999952316284
  endloop
endfacet
facet normal -0.7071067690849304 -0.7071067690849304 -0
  outer loop
    vertex 5 0 0
    vertex 0 5 2.049999952316284
    vertex 0 5 0
  endloop
endfacet
facet normal 0 -1 0
  outer loop
    vertex 55 0 2.049999952316284
    vertex 5 0 0
    vertex 55 0 0
  endloop
endfacet
facet normal 0 -1 0
  outer loop
    vertex 5 0 0
    vertex 55 0 2.049999952316284
    vertex 5 0 2.049999952316284
  endloop
endfacet
facet normal 0 1 0
  outer loop
    vertex 22.10341644287109 30 2.049999952316284
    vertex 55 30 0
    vertex 22.10341644287109 30 -3.524958050245313e-16
  endloop
endfacet
facet normal 0 1 0
  outer loop
    vertex 55 30 0
    vertex 22.10341644287109 30 2.049999952316284
    vertex 55 30 2.049999952316284
  endloop
endfacet
endsolid EF96
