<?xml version="1.0" encoding="utf-8"?>
<!-- Generator: Adobe Illustrator 24.3.0, SVG Export Plug-In . SVG Version: 6.00 Build 0)  -->
<svg version="1.1" id="Layer_1" xmlns="http://www.w3.org/2000/svg" xmlns:xlink="http://www.w3.org/1999/xlink" x="0px" y="0px"
	 viewBox="0 0 2834.6 1700.8" style="enable-background:new 0 0 2834.6 1700.8;" xml:space="preserve">
<style type="text/css">
	.st0{fill:none;stroke:#000000;stroke-miterlimit:10;}
	.st1{fill:#FFFFFF;stroke:#000000;stroke-miterlimit:10;}
	.st2{fill:none;stroke:#D47D00;stroke-miterlimit:10;}
	.st3{fill:none;stroke:#003A94;stroke-miterlimit:10;}
	.st4{fill:none;stroke:#00D435;stroke-miterlimit:10;}
	.st5{fill:none;stroke:#5200FD;stroke-miterlimit:10;}
	.st6{fill:none;stroke:#E30613;stroke-miterlimit:10;}
</style>
<polygon class="st0" points="1173.6,18.9 1130.8,18.9 1130.8,33.1 1018.2,33.1 952.1,33.1 947.9,33.1 947.9,18.9 907.1,18.9 
	893,33.1 877.6,48.4 877.6,217.3 877.6,235.5 847.6,265.5 847.6,265.5 814.4,265.5 768.1,265.5 702.7,265.5 671.8,265.5 
	550.2,265.5 453.9,265.5 418.1,265.5 385.5,265.5 355.5,235.5 355.5,217.3 355.5,89.8 355.5,81.3 355.5,49 339.6,33.1 325.4,18.9 
	284.6,18.9 284.6,33.1 280.6,33.1 214.9,33.1 101.8,33.1 101.8,18.9 57.7,18.9 30.9,45.6 30.9,89.8 30.9,188.1 45.1,202.3 
	45.1,217.3 45.1,265.5 45.1,313.7 45.1,316.5 45.1,526.3 45.1,622.7 45.1,700.1 30.9,714.3 30.9,855.4 45.1,869.6 59,883.5 
	60.8,883.5 60.8,883.8 122.6,883.8 122.8,883.5 225.4,883.5 321.8,883.5 453.9,883.5 550.2,883.5 682.3,883.5 702.7,883.5 
	778.7,883.5 910.8,883.5 1007.2,883.5 1112.6,883.5 1112.9,883.8 1125.1,883.8 1159.5,883.8 1174.7,883.8 1174.7,882.3 
	1187.4,869.6 1201.6,855.4 1201.6,714.3 1187.4,700.1 1187.4,622.7 1187.4,526.3 1187.4,316.5 1187.4,313.7 1187.4,265.5 
	1187.4,217.3 1187.4,203.2 1188.3,203.2 1187.4,202.3 1201.6,188.1 1201.6,89.8 1201.6,47 "/>
<g>
	<path class="st1" d="M1145.1-728h28.2V-864h-28.2l-20-20v-28.2h-121h-66.2h-4.1h-22.8v28.2l-20,20H877v8.5V-728h12.8h26.8h8.1h48.2
		l20,20v56.3l-20,20h-48.2h-8.1h-40.1h-8.1h-48.2l-20-20v-28.2H754v28.2l-20,20h-56.3l-20-20v-28.2H536v28.2l-20,20h-56.3l-20-20
		v-28.2h-35.7v28.2l-20,20l0,0h-48.2l0,0h-8.1l0,0h-40.1l0,0h-8.1l0,0h-48.2l-20-20v-56.3l20-20h48.2l0,0h8.1l0,0h26.9h12.8v-127.6
		v-8.5h-13.9l-20-20v-28.2h-22.8h-4h-65.6H79.1v28.2l-20,20H30.9V-728H59l20,20v56.3l-20,20H30.9v2.8V-419H59l20,20v56.3l-20,20
		H30.9V-110H59l20,20v28.1h132.1V-90l20-20h56.3l20,20v28.1h132.1V-90l20-20H516l20,20v28.1h132.1V-90l20-20h56.3l20,20v28.1h132.1
		V-90l20-20h56.3l20,20v28.1H1125V-90l20-20h28.2v-212.6H1145l-20-20V-399l20-20h28.2v-209.8v-2.8H1145l-20-20v-56.3L1145.1-728z
		 M307.5-342.7l-20,20h-56.3l-20-20v-56.3l20-20h56.3l20,20L307.5-342.7L307.5-342.7z M536-342.7l-20,20h-56.3l-20-20v-56.3l20-20
		H516l20,20L536-342.7L536-342.7z M764.5-342.7l-20,20h-56.3l-20-20v-56.3l20-20h56.3l20,20L764.5-342.7L764.5-342.7z M993-342.7
		l-20,20h-56.3l-20-20v-56.3l20-20h56.3l20,20V-342.7z"/>
	<polygon class="st1" points="688.2,-419 668.1,-398.9 668.1,-342.7 688.2,-322.6 744.5,-322.6 764.5,-342.7 764.5,-398.9 
		744.5,-419 	"/>
	<polygon class="st1" points="459.7,-419 439.6,-398.9 439.6,-342.7 459.7,-322.6 516,-322.6 536,-342.7 536,-398.9 516,-419 	"/>
	<polygon class="st1" points="231.2,-419 211.2,-398.9 211.2,-342.7 231.2,-322.6 287.5,-322.6 307.5,-342.7 307.5,-398.9 
		287.5,-419 	"/>
	<polygon class="st1" points="916.6,-419 896.6,-398.9 896.6,-342.7 916.6,-322.6 972.9,-322.6 993,-342.7 993,-398.9 972.9,-419 	
		"/>
	<polygon class="st1" points="403.9,-651.6 383.9,-631.6 383.9,-631.6 403.9,-651.6 403.9,-679.8 403.9,-679.8 	"/>
	<polygon class="st1" points="459.7,-631.6 516,-631.6 536,-651.6 536,-679.8 439.6,-679.8 439.6,-651.6 	"/>
	<polygon class="st1" points="677.6,-631.6 733.9,-631.6 754,-651.6 754,-679.8 688.5,-679.8 657.6,-679.8 657.6,-651.6 	"/>
	<polygon class="st1" points="287.5,-110 231.2,-110 211.2,-90 211.2,-61.8 307.5,-61.8 307.5,-90 	"/>
	<polygon class="st1" points="516,-110 459.7,-110 439.6,-90 439.6,-61.8 536,-61.8 536,-90 	"/>
	<polygon class="st1" points="744.5,-110 688.2,-110 668.1,-90 668.1,-61.8 688.5,-61.8 764.5,-61.8 764.5,-90 	"/>
	<polygon class="st1" points="972.9,-110 916.6,-110 896.6,-90 896.6,-61.8 993,-61.8 993,-90 	"/>
	<polygon class="st1" points="79.1,-651.6 79.1,-707.9 59,-728 30.9,-728 30.9,-679.8 30.9,-631.6 59,-631.6 	"/>
	<polygon class="st1" points="231.2,-419 211.2,-398.9 211.2,-342.7 231.2,-322.6 287.5,-322.6 307.5,-342.7 307.5,-398.9 
		287.5,-419 	"/>
	<polygon class="st1" points="459.7,-419 439.6,-398.9 439.6,-342.7 459.7,-322.6 516,-322.6 536,-342.7 536,-398.9 516,-419 	"/>
	<polygon class="st1" points="688.2,-419 668.1,-398.9 668.1,-342.7 688.2,-322.6 744.5,-322.6 764.5,-342.7 764.5,-398.9 
		744.5,-419 	"/>
	<polygon class="st1" points="916.6,-419 896.6,-398.9 896.6,-342.7 916.6,-322.6 972.9,-322.6 993,-342.7 993,-398.9 972.9,-419 	
		"/>
	<polygon class="st1" points="79.1,-342.7 79.1,-398.9 59,-419 30.9,-419 30.9,-322.6 59,-322.6 	"/>
	<polygon class="st1" points="1125.1,-398.9 1125.1,-342.7 1145.1,-322.6 1173.2,-322.6 1173.2,-419 1145.1,-419 	"/>
	<polygon class="st1" points="1125.1,-707.9 1125.1,-651.6 1145.1,-631.6 1173.2,-631.6 1173.2,-679.8 1173.2,-728 1145.1,-728 	"/>
	<polygon class="st1" points="1173.2,-742.1 1174.1,-742.1 1173.2,-743 	"/>
	<polygon class="st1" points="43.5,-926.4 16.7,-899.7 16.7,-855.5 16.7,-757.2 30.9,-743 30.9,-855.5 30.9,-864 59,-864 
		79.1,-884.1 79.1,-912.2 87.6,-912.2 87.6,-926.4 	"/>
	<polygon class="st1" points="1159.4,-926.4 1116.6,-926.4 1116.6,-912.2 1125.1,-912.2 1125.1,-884.1 1145.1,-864 1173.2,-864 
		1173.2,-855.5 1173.2,-743 1187.4,-757.2 1187.4,-855.5 1187.4,-898.3 	"/>
	<polygon class="st1" points="459.7,-419 439.6,-398.9 439.6,-342.7 459.7,-322.6 516,-322.6 536,-342.7 536,-398.9 516,-419 	"/>
	<polygon class="st1" points="231.2,-419 211.2,-398.9 211.2,-342.7 231.2,-322.6 287.5,-322.6 307.5,-342.7 307.5,-398.9 
		287.5,-419 	"/>
	<polygon class="st1" points="688.2,-419 668.1,-398.9 668.1,-342.7 688.2,-322.6 744.5,-322.6 764.5,-342.7 764.5,-398.9 
		744.5,-419 	"/>
	<polygon class="st1" points="916.6,-419 896.6,-398.9 896.6,-342.7 916.6,-322.6 972.9,-322.6 993,-342.7 993,-398.9 972.9,-419 	
		"/>
	<path class="st1" d="M833.4-679.8L833.4-679.8L833.4-679.8z"/>
	<polygon class="st1" points="972.9,-728 924.7,-728 916.6,-728 889.8,-728 877,-728 877,-855.5 877,-864 890.9,-864 910.9,-884.1 
		910.9,-912.2 933.7,-912.2 933.7,-926.4 892.9,-926.4 878.8,-912.2 863.4,-896.9 863.4,-728 863.4,-709.8 833.4,-679.8 
		833.4,-679.8 800.2,-679.8 800.2,-651.6 820.3,-631.6 868.5,-631.6 876.5,-631.6 916.6,-631.6 924.7,-631.6 972.9,-631.6 
		993,-651.6 993,-707.9 	"/>
	<polygon class="st1" points="371.4,-679.8 341.3,-709.8 341.3,-728 341.3,-855.5 341.3,-864 341.3,-896.3 325.4,-912.2 
		311.2,-926.4 270.4,-926.4 270.4,-912.2 293.2,-912.2 293.2,-884.1 313.3,-864 327.1,-864 327.1,-855.5 327.1,-728 314.4,-728 
		287.5,-728 279.4,-728 231.2,-728 211.2,-707.9 211.2,-651.6 231.2,-631.6 279.4,-631.6 287.5,-631.6 327.6,-631.6 335.7,-631.6 
		383.9,-631.6 403.9,-651.6 403.9,-679.8 	"/>
	<polygon class="st1" points="97.1,-75.7 79.1,-75.7 79.1,-90 59,-110 30.9,-110 30.9,-245.2 16.7,-231 16.7,-89.9 30.9,-75.7 
		44.8,-61.8 46.6,-61.8 46.6,-61.5 108.4,-61.5 117.4,-70.6 117.4,-75.7 	"/>
	<polygon class="st1" points="1173.2,-245.2 1173.2,-110 1145.1,-110 1125.1,-90 1125.1,-75.7 1110.9,-75.7 1089.6,-75.7 
		1089.6,-70.6 1098.7,-61.5 1110.9,-61.5 1145.3,-61.5 1160.5,-61.5 1160.5,-63 1173.2,-75.7 1187.4,-89.9 1187.4,-231 	"/>
</g>
<path class="st2" d="M1140.8,48.6h-96.4l-0.9,0.1l-0.9,0.3l-0.8,0.4l-0.7,0.6l-0.6,0.7l-0.4,0.8l-0.3,0.9l-0.1,0.9v96.2l0.1,0.9
	l0.3,0.9l0.4,0.8l0.6,0.7l0.7,0.6l0.8,0.4l0.9,0.3l0.9,0.1h96.4l0.9-0.1l0.9-0.3l0.8-0.4l0.7-0.6l0.6-0.7l0.4-0.8l0.3-0.9l0.1-0.9
	V53.1l-0.1-0.9l-0.3-0.9l-0.4-0.8l-0.6-0.7l-0.7-0.6l-0.8-0.4l-0.9-0.3L1140.8,48.6z"/>
<path class="st2" d="M1145.3,172.1l-0.1-0.9l-0.3-0.9l-0.4-0.8l-0.6-0.7l-0.7-0.6l-0.8-0.4l-0.9-0.3l-0.9-0.1h-96.4l-0.9,0.1
	l-0.9,0.3l-0.8,0.4l-0.7,0.6l-0.6,0.7l-0.4,0.8l-0.3,0.9l-0.1,0.9v96.4l0.1,0.9l0.3,0.9l0.4,0.8l0.6,0.7l0.7,0.6l0.8,0.4l0.9,0.3
	l0.9,0.1h96.4l0.9-0.1l0.9-0.3l0.8-0.4l0.7-0.6l0.6-0.7l0.4-0.8l0.3-0.9l0.1-0.9V172.1z"/>
<path class="st2" d="M1021.7,154l0.9-0.1l0.9-0.3l0.8-0.4l0.7-0.6l0.6-0.7l0.4-0.8l0.3-0.9l0.1-0.9V52.9l-0.1-0.9l-0.3-0.9l-0.4-0.8
	l-0.6-0.7l-0.7-0.6l-0.8-0.4l-0.9-0.3l-0.9-0.1h-96.4l-0.9,0.1l-0.9,0.3l-0.8,0.4l-0.7,0.6l-0.6,0.7l-0.4,0.8l-0.3,0.9l-0.1,0.9
	v96.6l0.1,0.9l0.3,0.9l0.4,0.8l0.6,0.7l0.7,0.6l0.8,0.4l0.9,0.3l0.9,0.1h96.4L1021.7,154L1021.7,154z"/>
<path class="st2" d="M1026.2,172.1l-0.1-0.9l-0.3-0.9l-0.4-0.8l-0.6-0.7l-0.7-0.6l-0.8-0.4l-0.9-0.3l-0.9-0.1h-96.4l-0.9,0.1
	l-0.9,0.3l-0.8,0.4l-0.7,0.6l-0.6,0.7l-0.4,0.8l-0.3,0.9l-0.1,0.9v96.4l0.1,0.9l0.3,0.9l0.4,0.8l0.6,0.7l0.7,0.6l0.8,0.4l0.9,0.3
	l0.9,0.1h96.4l0.9-0.1l0.9-0.3l0.8-0.4l0.7-0.6l0.6-0.7l0.4-0.8l0.3-0.9l0.1-0.9V172.1z"/>
<path class="st3" d="M1140.8,405.7h-96.4l-0.9,0.1l-0.9,0.3l-0.8,0.4l-0.7,0.6l-0.6,0.7l-0.4,0.8l-0.3,0.9l-0.1,0.9v96.4l0.1,0.9
	l0.3,0.9l0.4,0.8l0.6,0.7l0.7,0.6l0.8,0.4l0.9,0.3l0.9,0.1h96.4l0.9-0.1l0.9-0.3l0.8-0.4l0.7-0.6l0.6-0.7l0.4-0.8l0.3-0.9l0.1-0.9
	v-96.4l-0.1-0.9l-0.3-0.9l-0.4-0.8l-0.6-0.7l-0.7-0.6l-0.8-0.4l-0.9-0.3L1140.8,405.7z"/>
<path class="st4" d="M1145.3,529.3l-0.1-0.9l-0.3-0.9l-0.4-0.8l-0.6-0.7l-0.7-0.6l-0.8-0.4l-0.9-0.3l-0.9-0.1h-96.4l-0.9,0.1
	l-0.9,0.3l-0.8,0.4l-0.7,0.6l-0.6,0.7l-0.4,0.8l-0.3,0.9l-0.1,0.9v96.4l0.1,0.9l0.3,0.9l0.4,0.8l0.6,0.7l0.7,0.6l0.8,0.4l0.9,0.3
	l0.9,0.1h96.4l0.9-0.1l0.9-0.3l0.8-0.4l0.7-0.6l0.6-0.7l0.4-0.8l0.3-0.9l0.1-0.9V529.3z"/>
<path class="st3" d="M1021.7,511.2l0.9-0.1l0.9-0.3l0.8-0.4l0.7-0.6l0.6-0.7l0.4-0.8l0.3-0.9l0.1-0.9v-96.4l-0.1-0.9l-0.3-0.9
	l-0.4-0.8l-0.6-0.7l-0.7-0.6l-0.8-0.4l-0.9-0.3l-0.9-0.1h-96.4l-0.9,0.1l-0.9,0.3l-0.8,0.4l-0.7,0.6l-0.6,0.7l-0.4,0.8l-0.3,0.9
	l-0.1,0.9v96.4l0.1,0.9l0.3,0.9l0.4,0.8l0.6,0.7l0.7,0.6l0.8,0.4l0.9,0.3l0.9,0.1H1021.7z"/>
<path class="st4" d="M1026.2,529.3l-0.1-0.9l-0.3-0.9l-0.4-0.8l-0.6-0.7l-0.7-0.6l-0.8-0.4l-0.9-0.3l-0.9-0.1h-96.4l-0.9,0.1
	l-0.9,0.3l-0.8,0.4l-0.7,0.6l-0.6,0.7l-0.4,0.8l-0.3,0.9l-0.1,0.9v96.4l0.1,0.9l0.3,0.9l0.4,0.8l0.6,0.7l0.7,0.6l0.8,0.4l0.9,0.3
	l0.9,0.1h96.4l0.9-0.1l0.9-0.3l0.8-0.4l0.7-0.6l0.6-0.7l0.4-0.8l0.3-0.9l0.1-0.9V529.3z"/>
<path class="st3" d="M1044.4,392.1h96.4l0.9-0.1l0.9-0.3l0.8-0.4l0.7-0.6l0.6-0.7l0.4-0.8l0.3-0.9l0.1-0.9V291l-0.1-0.9l-0.3-0.9
	l-0.4-0.8l-0.6-0.7l-0.7-0.6l-0.8-0.4l-0.9-0.3l-0.9-0.1h-96.4l-0.9,0.1l-0.9,0.3l-0.8,0.4l-0.7,0.6l-0.6,0.7l-0.4,0.8l-0.3,0.9
	l-0.1,0.9v96.4l0.1,0.9l0.3,0.9l0.4,0.8l0.6,0.7l0.7,0.6l0.8,0.4l0.9,0.3L1044.4,392.1z"/>
<path class="st3" d="M925.3,392.1h96.4l0.9-0.1l0.9-0.3l0.8-0.4l0.7-0.6l0.6-0.7l0.4-0.8l0.3-0.9l0.1-0.9V291l-0.1-0.9l-0.3-0.9
	l-0.4-0.8l-0.6-0.7l-0.7-0.6l-0.8-0.4l-0.9-0.3l-0.9-0.1h-96.4l-0.9,0.1l-0.9,0.3l-0.8,0.4l-0.7,0.6l-0.6,0.7l-0.4,0.8l-0.3,0.9
	l-0.1,0.9v96.4l0.1,0.9l0.3,0.9l0.4,0.8l0.6,0.7l0.7,0.6l0.8,0.4l0.9,0.3L925.3,392.1z"/>
<path class="st4" d="M1140.8,762.9h-96.4l-0.9,0.1l-0.9,0.3l-0.8,0.4l-0.7,0.6l-0.6,0.7l-0.4,0.8l-0.3,0.9l-0.1,0.9V864l0.1,0.9
	l0.3,0.9l0.4,0.8l0.6,0.7l0.7,0.6l0.8,0.4l0.9,0.3l0.9,0.1h96.4l0.9-0.1l0.9-0.3l0.8-0.4l0.7-0.6l0.6-0.7l0.4-0.8l0.3-0.9l0.1-0.9
	v-96.4l-0.1-0.9l-0.3-0.9l-0.4-0.8l-0.6-0.7l-0.7-0.6l-0.8-0.4l-0.9-0.3L1140.8,762.9z"/>
<path class="st4" d="M1021.7,868.3l0.9-0.1l0.9-0.3l0.8-0.4l0.7-0.6l0.6-0.7l0.4-0.8l0.3-0.9l0.1-0.9v-96.4l-0.1-0.9l-0.3-0.9
	l-0.4-0.8l-0.6-0.7l-0.7-0.6l-0.8-0.4l-0.9-0.3l-0.9-0.1h-96.4l-0.9,0.1l-0.9,0.3l-0.8,0.4l-0.7,0.6l-0.6,0.7l-0.4,0.8l-0.3,0.9
	l-0.1,0.9v96.4l0.1,0.9l0.3,0.9l0.4,0.8l0.6,0.7l0.7,0.6l0.8,0.4l0.9,0.3l0.9,0.1H1021.7z"/>
<path class="st4" d="M1044.4,749.3h96.4l0.9-0.1l0.9-0.3l0.8-0.4l0.7-0.6l0.6-0.7l0.4-0.8l0.3-0.9l0.1-0.9v-96.4l-0.1-0.9l-0.3-0.9
	l-0.4-0.8l-0.6-0.7l-0.7-0.6l-0.8-0.4l-0.9-0.3l-0.9-0.1h-96.4l-0.9,0.1l-0.9,0.3l-0.8,0.4l-0.7,0.6l-0.6,0.7l-0.4,0.8l-0.3,0.9
	l-0.1,0.9v96.4l0.1,0.9l0.3,0.9l0.4,0.8l0.6,0.7l0.7,0.6l0.8,0.4l0.9,0.3L1044.4,749.3z"/>
<path class="st4" d="M925.3,749.3h96.4l0.9-0.1l0.9-0.3l0.8-0.4l0.7-0.6l0.6-0.7l0.4-0.8l0.3-0.9l0.1-0.9v-96.4l-0.1-0.9l-0.3-0.9
	l-0.4-0.8l-0.6-0.7l-0.7-0.6l-0.8-0.4l-0.9-0.3l-0.9-0.1h-96.4l-0.9,0.1l-0.9,0.3l-0.8,0.4l-0.7,0.6l-0.6,0.7l-0.4,0.8l-0.3,0.9
	l-0.1,0.9v96.4l0.1,0.9l0.3,0.9l0.4,0.8l0.6,0.7l0.7,0.6l0.8,0.4l0.9,0.3L925.3,749.3z"/>
<path class="st3" d="M783.6,405.7h-96.4l-0.9,0.1l-0.9,0.3l-0.8,0.4l-0.7,0.6l-0.6,0.7l-0.4,0.8l-0.3,0.9l-0.1,0.9v96.4l0.1,0.9
	l0.3,0.9l0.4,0.8l0.6,0.7l0.7,0.6l0.8,0.4l0.9,0.3l0.9,0.1h96.4l0.9-0.1l0.9-0.3l0.8-0.4l0.7-0.6l0.6-0.7l0.4-0.8l0.3-0.9l0.1-0.9
	v-96.4l-0.1-0.9l-0.3-0.9l-0.4-0.8l-0.6-0.7l-0.7-0.6l-0.8-0.4l-0.9-0.3L783.6,405.7z"/>
<path class="st4" d="M788.2,529.3l-0.1-0.9l-0.3-0.9l-0.4-0.8l-0.6-0.7l-0.7-0.6l-0.8-0.4l-0.9-0.3l-0.9-0.1h-96.4l-0.9,0.1
	l-0.9,0.3l-0.8,0.4l-0.7,0.6l-0.6,0.7l-0.4,0.8l-0.3,0.9l-0.1,0.9v96.4l0.1,0.9l0.3,0.9l0.4,0.8l0.6,0.7l0.7,0.6l0.8,0.4l0.9,0.3
	l0.9,0.1h96.4l0.9-0.1l0.9-0.3l0.8-0.4l0.7-0.6l0.6-0.7l0.4-0.8l0.3-0.9l0.1-0.9V529.3z"/>
<path class="st5" d="M664.6,511.2l0.9-0.1l0.9-0.3l0.8-0.4l0.7-0.6l0.6-0.7l0.4-0.8l0.1-0.8l0.1-0.9v-96.4l-0.1-0.9l-0.3-0.9
	l-0.4-0.8l-0.6-0.7l-0.7-0.6l-0.8-0.4l-0.9-0.3l-0.9-0.1H568l-0.9,0.1l-0.9,0.3l-0.8,0.4l-0.7,0.6l-0.6,0.7l-0.4,0.8l-0.3,0.9
	l-0.1,0.9v96.4l0.1,0.9l0.3,0.9l0.4,0.8l0.6,0.7l0.7,0.6l0.8,0.4l0.9,0.3l0.9,0.1h96.6L664.6,511.2L664.6,511.2z"/>
<path class="st5" d="M669.1,529.3l-0.1-0.9l-0.3-0.9l-0.4-0.8l-0.6-0.7l-0.7-0.6l-0.8-0.4l-0.9-0.3l-0.9-0.1H568l-0.9,0.1l-0.9,0.3
	l-0.8,0.4l-0.7,0.6l-0.6,0.7l-0.4,0.8l-0.3,0.9l-0.1,0.9v96.4l0.1,0.9l0.3,0.9l0.4,0.8l0.6,0.7l0.7,0.6l0.8,0.4l0.9,0.3l0.9,0.1
	h96.4l0.9-0.1l0.9-0.3l0.8-0.4l0.7-0.6l0.6-0.7l0.4-0.8l0.3-0.9l0.1-0.9V529.3z"/>
<path class="st4" d="M806.3,524.8l-0.9,0.1l-0.9,0.3l-0.8,0.4l-0.7,0.6l-0.6,0.7l-0.4,0.8l-0.3,0.9l-0.1,0.9v96.4l0.1,0.9l0.3,0.9
	l0.4,0.8l0.6,0.7l0.7,0.6l0.8,0.4l0.9,0.3l0.9,0.1h96.4l0.9-0.1l0.9-0.3l0.8-0.4l0.7-0.6l0.6-0.7l0.4-0.8l0.3-0.9l0.1-0.9v-96.4
	l-0.1-0.9l-0.3-0.9l-0.4-0.8l-0.6-0.7l-0.7-0.6l-0.8-0.4l-0.9-0.3l-0.9-0.1H806.3z"/>
<path class="st3" d="M806.3,405.7l-0.9,0.1l-0.9,0.3l-0.8,0.4l-0.7,0.6l-0.6,0.7l-0.4,0.8l-0.3,0.9l-0.1,0.9v96.4l0.1,0.9l0.3,0.9
	l0.4,0.8l0.6,0.7l0.7,0.6l0.8,0.4l0.9,0.3l0.9,0.1h96.4l0.9-0.1l0.9-0.3l0.8-0.4l0.7-0.6l0.6-0.7l0.4-0.8l0.3-0.9l0.1-0.9v-96.4
	l-0.1-0.9l-0.3-0.9l-0.4-0.8l-0.6-0.7l-0.7-0.6l-0.8-0.4l-0.9-0.3l-0.9-0.1H806.3z"/>
<path class="st3" d="M806.3,392.1h96.4l0.9-0.1l0.9-0.3l0.8-0.4l0.7-0.6l0.6-0.7l0.4-0.8l0.3-0.9l0.1-0.9V291l-0.1-0.9l-0.3-0.9
	l-0.4-0.8l-0.6-0.7l-0.7-0.6l-0.8-0.4l-0.9-0.3l-0.9-0.1h-96.4l-0.9,0.1l-0.9,0.3l-0.8,0.4l-0.7,0.6l-0.6,0.7l-0.4,0.8l-0.3,0.9
	l-0.1,0.9v96.4l0.1,0.9l0.3,0.9l0.4,0.8l0.6,0.7l0.7,0.6l0.8,0.4l0.9,0.3L806.3,392.1z"/>
<path class="st3" d="M687.2,392.1h96.4l0.9-0.1l0.9-0.3l0.8-0.4l0.7-0.6l0.6-0.7l0.4-0.8l0.3-0.9l0.1-0.9V291l-0.1-0.9l-0.3-0.9
	l-0.4-0.8l-0.6-0.7l-0.7-0.6l-0.8-0.4l-0.9-0.3l-0.9-0.1h-96.4l-0.9,0.1l-0.9,0.3l-0.8,0.4l-0.7,0.6l-0.6,0.7l-0.4,0.8l-0.3,0.9
	l-0.1,0.9v96.4l0.1,0.9l0.3,0.9l0.4,0.8l0.6,0.7l0.7,0.6l0.8,0.4l0.9,0.3L687.2,392.1z"/>
<path class="st5" d="M568.2,392.1h96.4l0.9-0.1l0.9-0.3l0.8-0.4l0.7-0.6l0.6-0.7l0.4-0.8l0.1-0.7l0.1-0.9v-96.4l-0.1-0.9l-0.3-0.9
	l-0.4-0.8l-0.6-0.7l-0.7-0.6l-0.8-0.4l-0.9-0.3l-0.9-0.1H568l-0.9,0.1l-0.9,0.3l-0.8,0.4l-0.7,0.6l-0.6,0.7l-0.4,0.8l-0.3,0.9
	l-0.1,0.9v96.4l0.1,0.9l0.3,0.9l0.4,0.8l0.6,0.7l0.7,0.6l0.8,0.4l0.9,0.3L568.2,392.1z"/>
<path class="st4" d="M783.6,762.9h-96.4l-0.9,0.1l-0.9,0.3l-0.8,0.4l-0.7,0.6l-0.6,0.7l-0.4,0.8l-0.3,0.9l-0.1,0.9V864l0.1,0.9
	l0.3,0.9l0.4,0.8l0.6,0.7l0.7,0.6l0.8,0.4l0.9,0.3l0.9,0.1h96.4l0.9-0.1l0.9-0.3l0.8-0.4l0.7-0.6l0.6-0.7l0.4-0.8l0.3-0.9l0.1-0.9
	v-96.4l-0.1-0.9l-0.3-0.9l-0.4-0.8l-0.6-0.7l-0.7-0.6l-0.8-0.4l-0.9-0.3L783.6,762.9z"/>
<path class="st5" d="M664.6,868.3l0.9-0.1l0.9-0.3l0.8-0.4l0.7-0.6l0.6-0.7l0.4-0.8l0.3-0.9l0.1-0.9v-96.4l-0.3-0.7l-0.3-0.9
	l-0.4-0.8l-0.6-0.7l-0.7-0.6l-0.8-0.4l-0.9-0.3l-0.9-0.1H568l-0.9,0.1l-0.9,0.3l-0.8,0.4l-0.7,0.6l-0.6,0.7l-0.4,0.8l-0.3,0.9
	l-0.1,0.9v96.4l0.1,0.9l0.3,0.9l0.4,0.8l0.6,0.7l0.7,0.6l0.8,0.4l0.9,0.3l0.9,0.1h96.6L664.6,868.3L664.6,868.3z"/>
<path class="st4" d="M806.3,762.9l-0.9,0.1l-0.9,0.3l-0.8,0.4l-0.7,0.6l-0.6,0.7l-0.4,0.8l-0.3,0.9l-0.1,0.9V864l0.1,0.9l0.3,0.9
	l0.4,0.8l0.6,0.7l0.7,0.6l0.8,0.4l0.9,0.3l0.9,0.1h96.4l0.9-0.1l0.9-0.3l0.8-0.4l0.7-0.6l0.6-0.7l0.4-0.8l0.3-0.9l0.1-0.9v-96.4
	l-0.1-0.9l-0.3-0.9l-0.4-0.8l-0.6-0.7l-0.7-0.6l-0.8-0.4l-0.9-0.3l-0.9-0.1H806.3z"/>
<path class="st4" d="M806.3,749.3h96.4l0.9-0.1l0.9-0.3l0.8-0.4l0.7-0.6l0.6-0.7l0.4-0.8l0.3-0.9l0.1-0.9v-96.4l-0.1-0.9l-0.3-0.9
	l-0.4-0.8l-0.6-0.7l-0.7-0.6l-0.8-0.4l-0.9-0.3l-0.9-0.1h-96.4l-0.9,0.1l-0.9,0.3l-0.8,0.4l-0.7,0.6l-0.6,0.7l-0.4,0.8l-0.3,0.9
	l-0.1,0.9v96.4l0.1,0.9l0.3,0.9l0.4,0.8l0.6,0.7l0.7,0.6l0.8,0.4l0.9,0.3L806.3,749.3z"/>
<path class="st4" d="M687.2,749.3h96.4l0.9-0.1l0.9-0.3l0.8-0.4l0.7-0.6l0.6-0.7l0.4-0.8l0.3-0.9l0.1-0.9v-96.4l-0.1-0.9l-0.3-0.9
	l-0.4-0.8l-0.6-0.7l-0.7-0.6l-0.8-0.4l-0.9-0.3l-0.9-0.1h-96.4l-0.9,0.1l-0.9,0.3l-0.8,0.4l-0.7,0.6l-0.6,0.7l-0.4,0.8l-0.3,0.9
	l-0.1,0.9v96.4l0.1,0.9l0.3,0.9l0.4,0.8l0.6,0.7l0.7,0.6l0.8,0.4l0.9,0.3L687.2,749.3z"/>
<path class="st5" d="M568.2,749.3h96.4l0.9-0.1l0.9-0.3l0.8-0.4l0.7-0.6l0.6-0.7l0.4-0.8l0.3-0.9l0.1-0.9v-96.4l-0.3-0.7l-0.3-0.9
	l-0.4-0.8l-0.6-0.7l-0.7-0.6l-0.8-0.4l-0.9-0.3l-0.9-0.1H568l-0.9,0.1l-0.9,0.3l-0.8,0.4l-0.7,0.6l-0.6,0.7l-0.4,0.8l-0.3,0.9
	l-0.1,0.9v96.4l0.1,0.9l0.3,0.9l0.4,0.8l0.6,0.7l0.7,0.6l0.8,0.4l0.9,0.3L568.2,749.3z"/>
<path class="st6" d="M545.4,405.5H449l-0.9,0.1l-0.9,0.3l-0.8,0.4l-0.7,0.6l-0.6,0.7l-0.4,0.8l-0.3,0.9l-0.1,0.9v96.4l0.1,0.9
	l0.3,0.9l0.4,0.8l0.6,0.7l0.7,0.6l0.8,0.4l0.9,0.3l0.9,0.1h96.4l0.9-0.1l0.9-0.3l0.8-0.4l0.7-0.6l0.6-0.7l0.4-0.8l0.3-0.9l0.1-0.9
	v-96.4l-0.1-0.9l-0.3-0.9l-0.4-0.8l-0.6-0.7l-0.7-0.6l-0.8-0.4l-0.9-0.3L545.4,405.5z"/>
<path class="st6" d="M549.9,529.1l-0.1-0.9l-0.3-0.9l-0.4-0.8l-0.6-0.7l-0.7-0.6l-0.8-0.4l-0.9-0.3l-0.9-0.1h-96.4l-0.9,0.1
	l-0.9,0.3l-0.8,0.4l-0.7,0.6l-0.6,0.7l-0.4,0.8l-0.3,0.9l-0.1,0.9v96.4l0.1,0.9l0.3,0.9l0.4,0.8l0.6,0.7l0.7,0.6l0.8,0.4l0.9,0.3
	l0.9,0.1h96.4l0.9-0.1l0.9-0.3l0.8-0.4l0.7-0.6l0.6-0.7l0.4-0.8l0.3-0.9l0.1-0.9V529.1z"/>
<path class="st6" d="M426.3,511l0.9-0.1l0.9-0.3l0.8-0.4l0.7-0.6l0.6-0.7l0.4-0.8l0.3-0.9l0.1-0.9v-96.4l-0.1-0.9l-0.3-0.9l-0.4-0.8
	l-0.6-0.7l-0.7-0.6l-0.8-0.4l-0.9-0.3l-0.9-0.1h-96.4l-0.9,0.1l-0.9,0.3l-0.8,0.4l-0.7,0.6l-0.6,0.7l-0.4,0.8l-0.3,0.9l-0.1,0.9
	v96.4l0.1,0.9l0.3,0.9l0.4,0.8l0.6,0.7l0.7,0.6l0.8,0.4l0.9,0.3l0.9,0.1H426.3z"/>
<path class="st6" d="M430.8,529.1l-0.1-0.9l-0.3-0.9l-0.4-0.8l-0.6-0.7l-0.7-0.6l-0.8-0.4l-0.9-0.3l-0.9-0.1h-96.4l-0.9,0.1
	l-0.9,0.3l-0.8,0.4l-0.7,0.6l-0.6,0.7l-0.4,0.8l-0.3,0.9l-0.1,0.9v96.4l0.1,0.9l0.3,0.9l0.4,0.8l0.6,0.7l0.7,0.6l0.8,0.4l0.9,0.3
	l0.9,0.1h96.4l0.9-0.1l0.9-0.3l0.8-0.4l0.7-0.6l0.6-0.7l0.4-0.8l0.3-0.9l0.1-0.9V529.1z"/>
<path class="st5" d="M568,524.6l-0.9,0.1l-0.9,0.3l-0.8,0.4l-0.7,0.6l-0.6,0.7l-0.4,0.8l-0.3,0.9l-0.1,0.9v96.4l0.1,0.9l0.3,0.9
	l0.4,0.8l0.6,0.7l0.7,0.6l0.8,0.4l0.9,0.3l0.9,0.1h96.4l0.9-0.1l0.9-0.3l0.8-0.4l0.7-0.6l0.6-0.7l0.4-0.8l0.3-0.9l0.1-0.9v-96.4
	l-0.1-0.9l-0.3-0.9l-0.4-0.8l-0.6-0.7l-0.7-0.6l-0.8-0.4l-0.9-0.3l-0.9-0.1H568z"/>
<path class="st6" d="M449,391.9h96.4l0.9-0.1l0.9-0.3l0.8-0.4l0.7-0.6l0.6-0.7l0.4-0.8l0.3-0.9l0.1-0.9v-96.4l-0.1-0.9l-0.3-0.9
	l-0.4-0.8l-0.6-0.7l-0.7-0.6l-0.8-0.4l-0.9-0.3l-0.9-0.1H449l-0.9,0.1l-0.9,0.3l-0.8,0.4l-0.7,0.6l-0.6,0.7l-0.4,0.8l-0.3,0.9
	l-0.1,0.9v96.4l0.1,0.9l0.3,0.9l0.4,0.8l0.6,0.7l0.7,0.6l0.8,0.4l0.9,0.3L449,391.9z"/>
<path class="st6" d="M329.9,391.9h96.4l0.9-0.1l0.9-0.3l0.8-0.4l0.7-0.6l0.6-0.7l0.4-0.8l0.3-0.9l0.1-0.9v-96.4l-0.1-0.9l-0.3-0.9
	l-0.4-0.8l-0.6-0.7l-0.7-0.6l-0.8-0.4l-0.9-0.3l-0.9-0.1h-96.4l-0.9,0.1l-0.9,0.3l-0.8,0.4l-0.7,0.6l-0.6,0.7l-0.4,0.8l-0.3,0.9
	l-0.1,0.9v96.4l0.1,0.9l0.3,0.9l0.4,0.8l0.6,0.7l0.7,0.6l0.8,0.4l0.9,0.3L329.9,391.9z"/>
<path class="st6" d="M545.4,762.7H449l-0.9,0.1l-0.9,0.3l-0.8,0.4l-0.7,0.6l-0.6,0.7l-0.4,0.8l-0.3,0.9l-0.1,0.9v96.4l0.1,0.9
	l0.3,0.9l0.4,0.8l0.6,0.7l0.7,0.6l0.8,0.4l0.9,0.3l0.9,0.1h96.4l0.9-0.1l0.9-0.3l0.8-0.4l0.7-0.6l0.6-0.7l0.4-0.8l0.3-0.9l0.1-0.9
	v-96.4l-0.1-0.9l-0.3-0.9l-0.4-0.8l-0.6-0.7l-0.7-0.6l-0.8-0.4l-0.9-0.3L545.4,762.7z"/>
<path class="st6" d="M426.3,868.1l0.9-0.1l0.9-0.3l0.8-0.4l0.7-0.6l0.6-0.7l0.4-0.8l0.3-0.9l0.1-0.9V767l-0.1-0.9l-0.3-0.9l-0.4-0.8
	l-0.6-0.7l-0.7-0.6l-0.8-0.4l-0.9-0.3l-0.9-0.1h-96.4l-0.9,0.1l-0.9,0.3l-0.8,0.4l-0.7,0.6l-0.6,0.7l-0.4,0.8l-0.3,0.9l-0.1,0.9
	v96.4l0.1,0.9l0.3,0.9l0.4,0.8l0.6,0.7l0.7,0.6l0.8,0.4l0.9,0.3l0.9,0.1H426.3z"/>
<path class="st6" d="M449,749.1h96.4l0.9-0.1l0.9-0.3l0.8-0.4l0.7-0.6l0.6-0.7l0.4-0.8l0.3-0.9l0.1-0.9V648l-0.1-0.9l-0.3-0.9
	l-0.4-0.8l-0.6-0.7l-0.7-0.6l-0.8-0.4l-0.9-0.3l-0.9-0.1H449l-0.9,0.1l-0.9,0.3l-0.8,0.4l-0.7,0.6l-0.6,0.7l-0.4,0.8l-0.3,0.9
	l-0.1,0.9v96.4l0.1,0.9l0.3,0.9l0.4,0.8l0.6,0.7l0.7,0.6l0.8,0.4l0.9,0.3L449,749.1z"/>
<path class="st6" d="M329.9,749.1h96.4l0.9-0.1l0.9-0.3l0.8-0.4l0.7-0.6l0.6-0.7l0.4-0.8l0.3-0.9l0.1-0.9V648l-0.1-0.9l-0.3-0.9
	l-0.4-0.8l-0.6-0.7l-0.7-0.6l-0.8-0.4l-0.9-0.3l-0.9-0.1h-96.4l-0.9,0.1l-0.9,0.3l-0.8,0.4l-0.7,0.6l-0.6,0.7l-0.4,0.8l-0.3,0.9
	l-0.1,0.9v96.4l0.1,0.9l0.3,0.9l0.4,0.8l0.6,0.7l0.7,0.6l0.8,0.4l0.9,0.3L329.9,749.1z"/>
<path class="st6" d="M188.2,48.4H91.8l-0.9,0.1L90,48.8l-0.8,0.4l-0.7,0.6l-0.6,0.7l-0.4,0.8l-0.3,0.9l-0.1,0.9v96.2l0.1,0.9
	l0.3,0.9l0.4,0.8l0.6,0.7l0.7,0.6l0.8,0.4l0.9,0.3l0.9,0.1h96.4l0.9-0.1l0.9-0.3l0.8-0.4l0.7-0.6l0.6-0.7l0.4-0.8l0.3-0.9l0.1-0.9
	V52.9l-0.1-0.9l-0.3-0.9l-0.4-0.8l-0.6-0.7l-0.7-0.6l-0.8-0.4l-0.9-0.3L188.2,48.4z"/>
<path class="st6" d="M192.8,171.9l-0.1-0.9l-0.3-0.9l-0.4-0.8l-0.6-0.7l-0.7-0.6l-0.8-0.4l-0.9-0.3l-0.9-0.1H91.7l-0.9,0.1l-0.9,0.3
	l-0.8,0.4l-0.7,0.6l-0.6,0.7l-0.4,0.8l-0.3,0.9l-0.1,0.9v96.4l0.1,0.9l0.3,0.9l0.4,0.8l0.6,0.7l0.7,0.6l0.8,0.4l0.9,0.3l0.9,0.1
	h96.4l0.9-0.1l0.9-0.3l0.8-0.4l0.7-0.6l0.6-0.7l0.4-0.8l0.3-0.9l0.1-0.9V171.9z"/>
<path class="st6" d="M210.9,167.4l-0.9,0.1l-0.9,0.3l-0.8,0.4l-0.7,0.6l-0.6,0.7l-0.4,0.8l-0.3,0.9l-0.1,0.9v96.2l0.1,0.9l0.3,0.9
	l0.4,0.8l0.6,0.7l0.7,0.6l0.8,0.4l0.9,0.3l0.9,0.1h96.4l0.9-0.1l0.9-0.3l0.8-0.4l0.7-0.6l0.6-0.7l0.4-0.8l0.3-0.9l0.1-0.9v-96.4
	l-0.1-0.9l-0.3-0.9l-0.4-0.8l-0.6-0.7l-0.7-0.6l-0.8-0.4l-0.9-0.3l-0.9-0.1h-96.4L210.9,167.4L210.9,167.4z"/>
<path class="st6" d="M210.9,48.4l-0.9,0.1l-0.9,0.3l-0.8,0.4l-0.7,0.6l-0.6,0.7l-0.4,0.8l-0.3,0.9l-0.1,0.9v96.2l0.1,0.9l0.3,0.9
	l0.4,0.8l0.6,0.7l0.7,0.6l0.8,0.4l0.9,0.3l0.9,0.1h96.4l0.9-0.1l0.9-0.3l0.8-0.4l0.7-0.6l0.6-0.7l0.4-0.8l0.3-0.9l0.1-0.9V52.9
	l-0.1-0.9l-0.3-0.9l-0.4-0.8l-0.6-0.7l-0.7-0.6l-0.8-0.4l-0.9-0.3l-0.9-0.1h-96.4L210.9,48.4L210.9,48.4z"/>
<path class="st6" d="M188.2,405.5H91.8l-0.9,0.1l-0.9,0.3l-0.8,0.4l-0.7,0.6l-0.6,0.7l-0.4,0.8l-0.3,0.9l-0.1,0.9v96.4l0.1,0.9
	l0.3,0.9l0.4,0.8l0.6,0.7l0.7,0.6l0.8,0.4l0.9,0.3l0.9,0.1h96.4l0.9-0.1l0.9-0.3l0.8-0.4l0.7-0.6l0.6-0.7l0.4-0.8l0.3-0.9l0.1-0.9
	v-96.4l-0.1-0.9l-0.3-0.9l-0.4-0.8l-0.6-0.7l-0.7-0.6l-0.8-0.4l-0.9-0.3L188.2,405.5z"/>
<path class="st6" d="M192.8,529.1l-0.1-0.9l-0.3-0.9l-0.4-0.8l-0.6-0.7l-0.7-0.6l-0.8-0.4l-0.9-0.3l-0.9-0.1H91.7l-0.9,0.1l-0.9,0.3
	l-0.8,0.4l-0.7,0.6l-0.6,0.7l-0.4,0.8l-0.3,0.9l-0.1,0.9v96.4l0.1,0.9l0.3,0.9l0.4,0.8l0.6,0.7l0.7,0.6l0.8,0.4l0.9,0.3l0.9,0.1
	h96.4l0.9-0.1l0.9-0.3l0.8-0.4l0.7-0.6l0.6-0.7l0.4-0.8l0.3-0.9l0.1-0.9V529.1z"/>
<path class="st6" d="M210.9,524.6l-0.9,0.1l-0.9,0.3l-0.8,0.4l-0.7,0.6l-0.6,0.7l-0.4,0.8l-0.3,0.9l-0.1,0.9v96.4l0.1,0.9l0.3,0.9
	l0.4,0.8l0.6,0.7l0.7,0.6l0.8,0.4l0.9,0.3l0.9,0.1h96.4l0.9-0.1l0.9-0.3l0.8-0.4l0.7-0.6l0.6-0.7l0.4-0.8l0.3-0.9l0.1-0.9v-96.4
	l-0.1-0.9l-0.3-0.9l-0.4-0.8l-0.6-0.7l-0.7-0.6l-0.8-0.4l-0.9-0.3l-0.9-0.1H210.9z"/>
<path class="st6" d="M210.9,405.5l-0.9,0.1l-0.9,0.3l-0.8,0.4l-0.7,0.6l-0.6,0.7l-0.4,0.8l-0.3,0.9l-0.1,0.9v96.4l0.1,0.9l0.3,0.9
	l0.4,0.8l0.6,0.7l0.7,0.6l0.8,0.4l0.9,0.3l0.9,0.1h96.4l0.9-0.1l0.9-0.3l0.8-0.4l0.7-0.6l0.6-0.7l0.4-0.8l0.3-0.9l0.1-0.9v-96.4
	l-0.1-0.9l-0.3-0.9l-0.4-0.8l-0.6-0.7l-0.7-0.6l-0.8-0.4l-0.9-0.3l-0.9-0.1H210.9z"/>
<path class="st6" d="M210.9,391.9h96.4l0.9-0.1l0.9-0.3l0.8-0.4l0.7-0.6l0.6-0.7l0.4-0.8l0.3-0.9l0.1-0.9v-96.4l-0.1-0.9l-0.3-0.9
	l-0.4-0.8l-0.6-0.7l-0.7-0.6l-0.8-0.4l-0.9-0.3l-0.9-0.1h-96.4l-0.9,0.1l-0.9,0.3l-0.8,0.4l-0.7,0.6l-0.6,0.7l-0.4,0.8l-0.3,0.9
	l-0.1,0.9v96.4l0.1,0.9l0.3,0.9l0.4,0.8l0.6,0.7l0.7,0.6l0.8,0.4l0.9,0.3L210.9,391.9z"/>
<path class="st6" d="M91.8,391.9h96.4l0.9-0.1l0.9-0.3l0.8-0.4l0.7-0.6l0.6-0.7l0.4-0.8l0.3-0.9l0.1-0.9v-96.4l-0.1-0.9l-0.3-0.9
	l-0.4-0.8l-0.6-0.7l-0.7-0.6l-0.8-0.4l-0.9-0.3l-0.9-0.1H91.8l-0.9,0.1l-0.9,0.3l-0.8,0.4l-0.7,0.6l-0.6,0.7l-0.4,0.8l-0.3,0.9
	l-0.1,0.9v96.4l0.1,0.9l0.3,0.9l0.4,0.8l0.6,0.7l0.7,0.6l0.8,0.4l0.9,0.3L91.8,391.9z"/>
<path class="st6" d="M188.2,762.7H91.8l-0.9,0.1l-0.9,0.3l-0.8,0.4l-0.7,0.6l-0.6,0.7l-0.4,0.8l-0.3,0.9l-0.1,0.9v96.4l0.1,0.9
	l0.3,0.9l0.4,0.8l0.6,0.7l0.7,0.6l0.8,0.4l0.9,0.3l0.9,0.1h96.4l0.9-0.1l0.9-0.3l0.8-0.4l0.7-0.6l0.6-0.7l0.4-0.8l0.3-0.9l0.1-0.9
	v-96.4l-0.1-0.9l-0.3-0.9l-0.4-0.8l-0.6-0.7l-0.7-0.6l-0.8-0.4l-0.9-0.3L188.2,762.7z"/>
<path class="st6" d="M210.9,762.7l-0.9,0.1l-0.9,0.3l-0.8,0.4l-0.7,0.6l-0.6,0.7l-0.4,0.8l-0.3,0.9l-0.1,0.9v96.4l0.1,0.9l0.3,0.9
	l0.4,0.8l0.6,0.7l0.7,0.6l0.8,0.4l0.9,0.3l0.9,0.1h96.4l0.9-0.1l0.9-0.3l0.8-0.4l0.7-0.6l0.6-0.7l0.4-0.8l0.3-0.9l0.1-0.9v-96.4
	l-0.1-0.9l-0.3-0.9l-0.4-0.8l-0.6-0.7l-0.7-0.6l-0.8-0.4l-0.9-0.3l-0.9-0.1H210.9z"/>
<path class="st6" d="M210.9,749.1h96.4l0.9-0.1l0.9-0.3l0.8-0.4l0.7-0.6l0.6-0.7l0.4-0.8l0.3-0.9l0.1-0.9V648l-0.1-0.9l-0.3-0.9
	l-0.4-0.8l-0.6-0.7l-0.7-0.6l-0.8-0.4l-0.9-0.3l-0.9-0.1h-96.4l-0.9,0.1l-0.9,0.3l-0.8,0.4l-0.7,0.6l-0.6,0.7l-0.4,0.8l-0.3,0.9
	l-0.1,0.9v96.4l0.1,0.9l0.3,0.9l0.4,0.8l0.6,0.7l0.7,0.6l0.8,0.4l0.9,0.3L210.9,749.1z"/>
<path class="st6" d="M91.8,749.1h96.4l0.9-0.1l0.9-0.3l0.8-0.4l0.7-0.6l0.6-0.7l0.4-0.8l0.3-0.9l0.1-0.9V648l-0.1-0.9l-0.3-0.9
	l-0.4-0.8l-0.6-0.7l-0.7-0.6l-0.8-0.4l-0.9-0.3l-0.9-0.1H91.8l-0.9,0.1l-0.9,0.3l-0.8,0.4l-0.7,0.6l-0.6,0.7l-0.4,0.8l-0.3,0.9
	l-0.1,0.9v96.4l0.1,0.9l0.3,0.9l0.4,0.8l0.6,0.7l0.7,0.6l0.8,0.4l0.9,0.3L91.8,749.1z"/>
</svg>
