<?xml version="1.0" encoding="utf-8"?>
<!-- Generator: Adobe Illustrator 24.3.0, SVG Export Plug-In . SVG Version: 6.00 Build 0)  -->
<svg version="1.1" id="Layer_1" xmlns="http://www.w3.org/2000/svg" xmlns:xlink="http://www.w3.org/1999/xlink" x="0px" y="0px"
	 viewBox="0 0 2834.65 1700.79" style="enable-background:new 0 0 2834.65 1700.79;" xml:space="preserve">
<style type="text/css">
	.st0{fill:#FFFFFF;stroke:#000000;stroke-miterlimit:10;}
	.st1{fill:none;stroke:#E30613;stroke-miterlimit:10;}
</style>
<polygon class="st0" points="1173.56,18.9 1130.76,18.9 1130.76,33.08 1018.21,33.08 952.06,33.08 947.93,33.08 947.93,18.9 
	907.12,18.9 892.95,33.08 877.64,48.39 877.64,217.33 877.64,235.45 847.58,265.52 847.58,265.52 814.41,265.52 768.14,265.52 
	702.73,265.52 671.77,265.52 550.22,265.52 453.85,265.52 418.13,265.52 385.55,265.52 355.48,235.45 355.48,217.33 355.48,89.77 
	355.48,81.27 355.48,48.97 339.59,33.08 325.42,18.9 284.62,18.9 284.62,33.08 280.56,33.08 214.92,33.08 101.78,33.08 101.78,18.9 
	57.65,18.9 30.92,45.64 30.92,89.77 30.92,188.12 45.09,202.3 45.09,217.33 45.09,265.52 45.09,313.71 45.09,316.54 45.09,526.31 
	45.09,622.68 45.09,700.08 30.92,714.25 30.92,855.41 45.09,869.58 58.98,883.47 60.76,883.47 60.76,883.76 122.56,883.76 
	122.85,883.47 225.37,883.47 321.75,883.47 453.85,883.47 550.22,883.47 682.32,883.47 702.73,883.47 778.7,883.47 910.79,883.47 
	1007.17,883.47 1112.6,883.47 1112.89,883.76 1125.08,883.76 1159.54,883.76 1174.7,883.76 1174.7,882.34 1187.45,869.58 
	1201.63,855.41 1201.63,714.25 1187.45,700.08 1187.45,622.68 1187.45,526.31 1187.45,316.54 1187.45,313.71 1187.45,265.52 
	1187.45,217.33 1187.45,203.16 1188.31,203.16 1187.45,202.3 1201.63,188.12 1201.63,89.77 1201.63,46.97 "/>
<g>
	<path class="st0" d="M1145.11-727.97h28.15v-136.06h-28.15l-20.04-20.04v-28.15h-121.05h-66.15h-4.13h-22.8v28.15l-20.04,20.04
		h-13.85v8.5v127.56h12.76h26.85h8.1h48.19l20.04,20.04v56.29l-20.04,20.04h-48.19h-8.1h-40.09h-8.1h-48.19l-20.04-20.04v-28.15
		h-46.27v28.15l-20.04,20.04h-56.29l-20.04-20.04v-28.15H536.03v28.15l-20.04,20.04h-56.29l-20.04-20.04v-28.15h-35.72v28.15
		l-20.04,20.04l0,0H335.7l0,0h-8.1l0,0h-40.09l0,0h-8.1l0,0h-48.19l-20.04-20.04v-56.29l20.04-20.04h48.19l0,0h8.1l0,0h26.85h12.76
		v-127.56v-8.5h-13.85l-20.04-20.04v-28.15h-22.8h-4.05h-65.65H79.08v28.15l-20.04,20.04H30.89v136.06h28.15l20.04,20.04v56.29
		l-20.04,20.04H30.89v2.83V-419h28.15l20.04,20.04v56.29l-20.04,20.04H30.89v212.6h28.15l20.04,20.04v28.14h132.09v-28.14
		l20.04-20.04h56.29l20.04,20.04v28.14h132.09v-28.14l20.04-20.04h56.29l20.04,20.04v28.14h132.09v-28.14l20.04-20.04h56.29
		l20.04,20.04v28.14h132.09v-28.14l20.04-20.04h56.29l20.04,20.04v28.14h132.09v-28.14l20.04-20.04h28.15v-212.6h-28.15
		l-20.04-20.04v-56.29l20.04-20.04h28.15v-209.76v-2.83h-28.15l-20.04-20.04v-56.29L1145.11-727.97z M307.55-342.66l-20.04,20.04
		h-56.29l-20.04-20.04v-56.29L231.22-419h56.29l20.04,20.04V-342.66z M536.03-342.66l-20.04,20.04h-56.29l-20.04-20.04v-56.29
		L459.69-419h56.29l20.04,20.04V-342.66z M764.5-342.66l-20.04,20.04h-56.29l-20.04-20.04v-56.29L688.16-419h56.29l20.04,20.04
		V-342.66z M992.97-342.66l-20.04,20.04h-56.29l-20.04-20.04v-56.29L916.64-419h56.29l20.04,20.04V-342.66z"/>
	<polygon class="st0" points="688.16,-419 668.12,-398.95 668.12,-342.66 688.16,-322.62 744.45,-322.62 764.5,-342.66 
		764.5,-398.95 744.45,-419 	"/>
	<polygon class="st0" points="459.69,-419 439.65,-398.95 439.65,-342.66 459.69,-322.62 515.98,-322.62 536.03,-342.66 
		536.03,-398.95 515.98,-419 	"/>
	<polygon class="st0" points="231.22,-419 211.18,-398.95 211.18,-342.66 231.22,-322.62 287.51,-322.62 307.55,-342.66 
		307.55,-398.95 287.51,-419 	"/>
	<polygon class="st0" points="916.64,-419 896.59,-398.95 896.59,-342.66 916.64,-322.62 972.93,-322.62 992.97,-342.66 
		992.97,-398.95 972.93,-419 	"/>
	<polygon class="st0" points="403.93,-651.64 383.89,-631.59 383.89,-631.59 403.93,-651.64 403.93,-679.78 403.93,-679.78 	"/>
	<polygon class="st0" points="459.69,-631.59 515.98,-631.59 536.03,-651.64 536.03,-679.78 439.65,-679.78 439.65,-651.64 	"/>
	<polygon class="st0" points="677.61,-631.59 733.9,-631.59 753.95,-651.64 753.95,-679.78 688.53,-679.78 657.57,-679.78 
		657.57,-651.64 	"/>
	<polygon class="st0" points="287.51,-110.02 231.22,-110.02 211.18,-89.98 211.18,-61.83 307.55,-61.83 307.55,-89.98 	"/>
	<polygon class="st0" points="515.98,-110.02 459.69,-110.02 439.65,-89.98 439.65,-61.83 536.03,-61.83 536.03,-89.98 	"/>
	<polygon class="st0" points="744.45,-110.02 688.16,-110.02 668.12,-89.98 668.12,-61.83 688.53,-61.83 764.5,-61.83 764.5,-89.98 
			"/>
	<polygon class="st0" points="972.93,-110.02 916.64,-110.02 896.59,-89.98 896.59,-61.83 992.97,-61.83 992.97,-89.98 	"/>
	<polygon class="st0" points="79.08,-651.64 79.08,-707.93 59.04,-727.97 30.89,-727.97 30.89,-679.78 30.89,-631.59 59.04,-631.59 
			"/>
	<polygon class="st0" points="231.22,-419 211.18,-398.95 211.18,-342.66 231.22,-322.62 287.51,-322.62 307.55,-342.66 
		307.55,-398.95 287.51,-419 	"/>
	<polygon class="st0" points="459.69,-419 439.65,-398.95 439.65,-342.66 459.69,-322.62 515.98,-322.62 536.03,-342.66 
		536.03,-398.95 515.98,-419 	"/>
	<polygon class="st0" points="688.16,-419 668.12,-398.95 668.12,-342.66 688.16,-322.62 744.45,-322.62 764.5,-342.66 
		764.5,-398.95 744.45,-419 	"/>
	<polygon class="st0" points="916.64,-419 896.59,-398.95 896.59,-342.66 916.64,-322.62 972.93,-322.62 992.97,-342.66 
		992.97,-398.95 972.93,-419 	"/>
	<polygon class="st0" points="79.08,-342.66 79.08,-398.95 59.04,-419 30.89,-419 30.89,-322.62 59.04,-322.62 	"/>
	<polygon class="st0" points="1125.07,-398.95 1125.07,-342.66 1145.11,-322.62 1173.25,-322.62 1173.25,-419 1145.11,-419 	"/>
	<polygon class="st0" points="1125.07,-707.93 1125.07,-651.64 1145.11,-631.59 1173.25,-631.59 1173.25,-679.78 1173.25,-727.97 
		1145.11,-727.97 	"/>
	<polygon class="st0" points="1173.25,-742.15 1174.11,-742.15 1173.25,-743.01 	"/>
	<polygon class="st0" points="43.45,-926.4 16.72,-899.66 16.72,-855.53 16.72,-757.18 30.89,-743.01 30.89,-855.53 30.89,-864.04 
		59.04,-864.04 79.08,-884.08 79.08,-912.22 87.59,-912.22 87.59,-926.4 	"/>
	<polygon class="st0" points="1159.37,-926.4 1116.56,-926.4 1116.56,-912.22 1125.07,-912.22 1125.07,-884.08 1145.11,-864.04 
		1173.25,-864.04 1173.25,-855.53 1173.25,-743.01 1187.43,-757.18 1187.43,-855.53 1187.43,-898.34 	"/>
	<polygon class="st0" points="459.69,-419 439.65,-398.95 439.65,-342.66 459.69,-322.62 515.98,-322.62 536.03,-342.66 
		536.03,-398.95 515.98,-419 	"/>
	<polygon class="st0" points="231.22,-419 211.18,-398.95 211.18,-342.66 231.22,-322.62 287.51,-322.62 307.55,-342.66 
		307.55,-398.95 287.51,-419 	"/>
	<polygon class="st0" points="688.16,-419 668.12,-398.95 668.12,-342.66 688.16,-322.62 744.45,-322.62 764.5,-342.66 
		764.5,-398.95 744.45,-419 	"/>
	<polygon class="st0" points="916.64,-419 896.59,-398.95 896.59,-342.66 916.64,-322.62 972.93,-322.62 992.97,-342.66 
		992.97,-398.95 972.93,-419 	"/>
	<polygon class="st0" points="833.38,-679.78 833.38,-679.78 833.38,-679.78 	"/>
	<polygon class="st0" points="972.93,-727.97 924.74,-727.97 916.64,-727.97 889.79,-727.97 877.03,-727.97 877.03,-855.53 
		877.03,-864.04 890.89,-864.04 910.93,-884.08 910.93,-912.22 933.73,-912.22 933.73,-926.4 892.93,-926.4 878.75,-912.22 
		863.44,-896.91 863.44,-727.97 863.44,-709.85 833.38,-679.78 833.38,-679.78 800.22,-679.78 800.22,-651.64 820.26,-631.59 
		868.45,-631.59 876.55,-631.59 916.64,-631.59 924.74,-631.59 972.93,-631.59 992.97,-651.64 992.97,-707.93 	"/>
	<polygon class="st0" points="371.35,-679.78 341.29,-709.85 341.29,-727.97 341.29,-855.53 341.29,-864.04 341.29,-896.33 
		325.39,-912.22 311.22,-926.4 270.42,-926.4 270.42,-912.22 293.22,-912.22 293.22,-884.08 313.26,-864.04 327.11,-864.04 
		327.11,-855.53 327.11,-727.97 314.36,-727.97 287.51,-727.97 279.41,-727.97 231.22,-727.97 211.18,-707.93 211.18,-651.64 
		231.22,-631.59 279.41,-631.59 287.51,-631.59 327.6,-631.59 335.7,-631.59 383.89,-631.59 403.93,-651.64 403.93,-679.78 	"/>
	<polygon class="st0" points="97.14,-75.72 79.08,-75.72 79.08,-89.98 59.04,-110.02 30.89,-110.02 30.89,-245.22 16.72,-231.05 
		16.72,-89.89 30.89,-75.72 44.78,-61.83 46.56,-61.83 46.56,-61.55 108.37,-61.55 117.42,-70.6 117.42,-75.72 	"/>
	<polygon class="st0" points="1173.25,-245.22 1173.25,-110.02 1145.11,-110.02 1125.07,-89.98 1125.07,-75.72 1110.88,-75.72 
		1089.63,-75.72 1089.63,-70.6 1098.69,-61.55 1110.88,-61.55 1145.34,-61.55 1160.5,-61.55 1160.5,-62.96 1173.25,-75.72 
		1187.43,-89.89 1187.43,-231.05 	"/>
</g>
<g>
	<path class="st1" d="M1140.82,48.57h-96.4l-0.9,0.1l-0.9,0.3l-0.8,0.4l-0.7,0.6l-0.6,0.7l-0.4,0.8l-0.3,0.9l-0.1,0.9v96.2l0.1,0.9
		l0.3,0.9l0.4,0.8l0.6,0.7l0.7,0.6l0.8,0.4l0.9,0.3l0.9,0.1h96.4l0.9-0.1l0.9-0.3l0.8-0.4l0.7-0.6l0.6-0.7l0.4-0.8l0.3-0.9l0.1-0.9
		v-96.4l-0.1-0.9l-0.3-0.9l-0.4-0.8l-0.6-0.7l-0.7-0.6l-0.8-0.4l-0.9-0.3L1140.82,48.57z"/>
	<path class="st1" d="M1145.32,172.07l-0.1-0.9l-0.3-0.9l-0.4-0.8l-0.6-0.7l-0.7-0.6l-0.8-0.4l-0.9-0.3l-0.9-0.1h-96.4l-0.9,0.1
		l-0.9,0.3l-0.8,0.4l-0.7,0.6l-0.6,0.7l-0.4,0.8l-0.3,0.9l-0.1,0.9v96.4l0.1,0.9l0.3,0.9l0.4,0.8l0.6,0.7l0.7,0.6l0.8,0.4l0.9,0.3
		l0.9,0.1h96.4l0.9-0.1l0.9-0.3l0.8-0.4l0.7-0.6l0.6-0.7l0.4-0.8l0.3-0.9l0.1-0.9V172.07z"/>
	<path class="st1" d="M1021.72,153.97l0.9-0.1l0.9-0.3l0.8-0.4l0.7-0.6l0.6-0.7l0.4-0.8l0.3-0.9l0.1-0.9v-96.4l-0.1-0.9l-0.3-0.9
		l-0.4-0.8l-0.6-0.7l-0.7-0.6l-0.8-0.4l-0.9-0.3l-0.9-0.1h-96.4l-0.9,0.1l-0.9,0.3l-0.8,0.4l-0.7,0.6l-0.6,0.7l-0.4,0.8l-0.3,0.9
		l-0.1,0.9v96.6l0.1,0.9l0.3,0.9l0.4,0.8l0.6,0.7l0.7,0.6l0.8,0.4l0.9,0.3l0.9,0.1h96.4V153.97z"/>
	<path class="st1" d="M1026.22,172.07l-0.1-0.9l-0.3-0.9l-0.4-0.8l-0.6-0.7l-0.7-0.6l-0.8-0.4l-0.9-0.3l-0.9-0.1h-96.4l-0.9,0.1
		l-0.9,0.3l-0.8,0.4l-0.7,0.6l-0.6,0.7l-0.4,0.8l-0.3,0.9l-0.1,0.9v96.4l0.1,0.9l0.3,0.9l0.4,0.8l0.6,0.7l0.7,0.6l0.8,0.4l0.9,0.3
		l0.9,0.1h96.4l0.9-0.1l0.9-0.3l0.8-0.4l0.7-0.6l0.6-0.7l0.4-0.8l0.3-0.9l0.1-0.9V172.07z"/>
	<path class="st1" d="M1140.82,405.67h-96.4l-0.9,0.1l-0.9,0.3l-0.8,0.4l-0.7,0.6l-0.6,0.7l-0.4,0.8l-0.3,0.9l-0.1,0.9v96.4l0.1,0.9
		l0.3,0.9l0.4,0.8l0.6,0.7l0.7,0.6l0.8,0.4l0.9,0.3l0.9,0.1h96.4l0.9-0.1l0.9-0.3l0.8-0.4l0.7-0.6l0.6-0.7l0.4-0.8l0.3-0.9l0.1-0.9
		v-96.4l-0.1-0.9l-0.3-0.9l-0.4-0.8l-0.6-0.7l-0.7-0.6l-0.8-0.4l-0.9-0.3L1140.82,405.67z"/>
	<path class="st1" d="M1145.32,529.27l-0.1-0.9l-0.3-0.9l-0.4-0.8l-0.6-0.7l-0.7-0.6l-0.8-0.4l-0.9-0.3l-0.9-0.1h-96.4l-0.9,0.1
		l-0.9,0.3l-0.8,0.4l-0.7,0.6l-0.6,0.7l-0.4,0.8l-0.3,0.9l-0.1,0.9v96.4l0.1,0.9l0.3,0.9l0.4,0.8l0.6,0.7l0.7,0.6l0.8,0.4l0.9,0.3
		l0.9,0.1h96.4l0.9-0.1l0.9-0.3l0.8-0.4l0.7-0.6l0.6-0.7l0.4-0.8l0.3-0.9l0.1-0.9V529.27z"/>
	<path class="st1" d="M1021.72,511.17l0.9-0.1l0.9-0.3l0.8-0.4l0.7-0.6l0.6-0.7l0.4-0.8l0.3-0.9l0.1-0.9v-96.4l-0.1-0.9l-0.3-0.9
		l-0.4-0.8l-0.6-0.7l-0.7-0.6l-0.8-0.4l-0.9-0.3l-0.9-0.1h-96.4l-0.9,0.1l-0.9,0.3l-0.8,0.4l-0.7,0.6l-0.6,0.7l-0.4,0.8l-0.3,0.9
		l-0.1,0.9v96.4l0.1,0.9l0.3,0.9l0.4,0.8l0.6,0.7l0.7,0.6l0.8,0.4l0.9,0.3l0.9,0.1H1021.72z"/>
	<path class="st1" d="M1026.22,529.27l-0.1-0.9l-0.3-0.9l-0.4-0.8l-0.6-0.7l-0.7-0.6l-0.8-0.4l-0.9-0.3l-0.9-0.1h-96.4l-0.9,0.1
		l-0.9,0.3l-0.8,0.4l-0.7,0.6l-0.6,0.7l-0.4,0.8l-0.3,0.9l-0.1,0.9v96.4l0.1,0.9l0.3,0.9l0.4,0.8l0.6,0.7l0.7,0.6l0.8,0.4l0.9,0.3
		l0.9,0.1h96.4l0.9-0.1l0.9-0.3l0.8-0.4l0.7-0.6l0.6-0.7l0.4-0.8l0.3-0.9l0.1-0.9V529.27z"/>
	<path class="st1" d="M1044.42,392.07h96.4l0.9-0.1l0.9-0.3l0.8-0.4l0.7-0.6l0.6-0.7l0.4-0.8l0.3-0.9l0.1-0.9v-96.4l-0.1-0.9
		l-0.3-0.9l-0.4-0.8l-0.6-0.7l-0.7-0.6l-0.8-0.4l-0.9-0.3l-0.9-0.1h-96.4l-0.9,0.1l-0.9,0.3l-0.8,0.4l-0.7,0.6l-0.6,0.7l-0.4,0.8
		l-0.3,0.9l-0.1,0.9v96.4l0.1,0.9l0.3,0.9l0.4,0.8l0.6,0.7l0.7,0.6l0.8,0.4l0.9,0.3L1044.42,392.07z"/>
	<path class="st1" d="M925.32,392.07h96.4l0.9-0.1l0.9-0.3l0.8-0.4l0.7-0.6l0.6-0.7l0.4-0.8l0.3-0.9l0.1-0.9v-96.4l-0.1-0.9
		l-0.3-0.9l-0.4-0.8l-0.6-0.7l-0.7-0.6l-0.8-0.4l-0.9-0.3l-0.9-0.1h-96.4l-0.9,0.1l-0.9,0.3l-0.8,0.4l-0.7,0.6l-0.6,0.7l-0.4,0.8
		l-0.3,0.9l-0.1,0.9v96.4l0.1,0.9l0.3,0.9l0.4,0.8l0.6,0.7l0.7,0.6l0.8,0.4l0.9,0.3L925.32,392.07z"/>
	<path class="st1" d="M1140.82,762.87h-96.4l-0.9,0.1l-0.9,0.3l-0.8,0.4l-0.7,0.6l-0.6,0.7l-0.4,0.8l-0.3,0.9l-0.1,0.9v96.4l0.1,0.9
		l0.3,0.9l0.4,0.8l0.6,0.7l0.7,0.6l0.8,0.4l0.9,0.3l0.9,0.1h96.4l0.9-0.1l0.9-0.3l0.8-0.4l0.7-0.6l0.6-0.7l0.4-0.8l0.3-0.9l0.1-0.9
		v-96.4l-0.1-0.9l-0.3-0.9l-0.4-0.8l-0.6-0.7l-0.7-0.6l-0.8-0.4l-0.9-0.3L1140.82,762.87z"/>
	<path class="st1" d="M1021.72,868.27l0.9-0.1l0.9-0.3l0.8-0.4l0.7-0.6l0.6-0.7l0.4-0.8l0.3-0.9l0.1-0.9v-96.4l-0.1-0.9l-0.3-0.9
		l-0.4-0.8l-0.6-0.7l-0.7-0.6l-0.8-0.4l-0.9-0.3l-0.9-0.1h-96.4l-0.9,0.1l-0.9,0.3l-0.8,0.4l-0.7,0.6l-0.6,0.7l-0.4,0.8l-0.3,0.9
		l-0.1,0.9v96.4l0.1,0.9l0.3,0.9l0.4,0.8l0.6,0.7l0.7,0.6l0.8,0.4l0.9,0.3l0.9,0.1H1021.72z"/>
	<path class="st1" d="M1044.42,749.27h96.4l0.9-0.1l0.9-0.3l0.8-0.4l0.7-0.6l0.6-0.7l0.4-0.8l0.3-0.9l0.1-0.9v-96.4l-0.1-0.9
		l-0.3-0.9l-0.4-0.8l-0.6-0.7l-0.7-0.6l-0.8-0.4l-0.9-0.3l-0.9-0.1h-96.4l-0.9,0.1l-0.9,0.3l-0.8,0.4l-0.7,0.6l-0.6,0.7l-0.4,0.8
		l-0.3,0.9l-0.1,0.9v96.4l0.1,0.9l0.3,0.9l0.4,0.8l0.6,0.7l0.7,0.6l0.8,0.4l0.9,0.3L1044.42,749.27z"/>
	<path class="st1" d="M925.32,749.27h96.4l0.9-0.1l0.9-0.3l0.8-0.4l0.7-0.6l0.6-0.7l0.4-0.8l0.3-0.9l0.1-0.9v-96.4l-0.1-0.9
		l-0.3-0.9l-0.4-0.8l-0.6-0.7l-0.7-0.6l-0.8-0.4l-0.9-0.3l-0.9-0.1h-96.4l-0.9,0.1l-0.9,0.3l-0.8,0.4l-0.7,0.6l-0.6,0.7l-0.4,0.8
		l-0.3,0.9l-0.1,0.9v96.4l0.1,0.9l0.3,0.9l0.4,0.8l0.6,0.7l0.7,0.6l0.8,0.4l0.9,0.3L925.32,749.27z"/>
	<path class="st1" d="M783.62,405.67h-96.4l-0.9,0.1l-0.9,0.3l-0.8,0.4l-0.7,0.6l-0.6,0.7l-0.4,0.8l-0.3,0.9l-0.1,0.9v96.4l0.1,0.9
		l0.3,0.9l0.4,0.8l0.6,0.7l0.7,0.6l0.8,0.4l0.9,0.3l0.9,0.1h96.4l0.9-0.1l0.9-0.3l0.8-0.4l0.7-0.6l0.6-0.7l0.4-0.8l0.3-0.9l0.1-0.9
		v-96.4l-0.1-0.9l-0.3-0.9l-0.4-0.8l-0.6-0.7l-0.7-0.6l-0.8-0.4l-0.9-0.3L783.62,405.67z"/>
	<path class="st1" d="M788.22,529.27l-0.1-0.9l-0.3-0.9l-0.4-0.8l-0.6-0.7l-0.7-0.6l-0.8-0.4l-0.9-0.3l-0.9-0.1h-96.4l-0.9,0.1
		l-0.9,0.3l-0.8,0.4l-0.7,0.6l-0.6,0.7l-0.4,0.8l-0.3,0.9l-0.1,0.9v96.4l0.1,0.9l0.3,0.9l0.4,0.8l0.6,0.7l0.7,0.6l0.8,0.4l0.9,0.3
		l0.9,0.1h96.4l0.9-0.1l0.9-0.3l0.8-0.4l0.7-0.6l0.6-0.7l0.4-0.8l0.3-0.9l0.1-0.9V529.27z"/>
	<path class="st1" d="M664.62,511.17l0.9-0.1l0.9-0.3l0.8-0.4l0.7-0.6l0.6-0.7l0.4-0.8l0.1-0.8l0.1-0.9v-96.4l-0.1-0.9l-0.3-0.9
		l-0.4-0.8l-0.6-0.7l-0.7-0.6l-0.8-0.4l-0.9-0.3l-0.9-0.1h-96.4l-0.9,0.1l-0.9,0.3l-0.8,0.4l-0.7,0.6l-0.6,0.7l-0.4,0.8l-0.3,0.9
		l-0.1,0.9v96.4l0.1,0.9l0.3,0.9l0.4,0.8l0.6,0.7l0.7,0.6l0.8,0.4l0.9,0.3l0.9,0.1h96.6V511.17z"/>
	<path class="st1" d="M669.12,529.27l-0.1-0.9l-0.3-0.9l-0.4-0.8l-0.6-0.7l-0.7-0.6l-0.8-0.4l-0.9-0.3l-0.9-0.1h-96.4l-0.9,0.1
		l-0.9,0.3l-0.8,0.4l-0.7,0.6l-0.6,0.7l-0.4,0.8l-0.3,0.9l-0.1,0.9v96.4l0.1,0.9l0.3,0.9l0.4,0.8l0.6,0.7l0.7,0.6l0.8,0.4l0.9,0.3
		l0.9,0.1h96.4l0.9-0.1l0.9-0.3l0.8-0.4l0.7-0.6l0.6-0.7l0.4-0.8l0.3-0.9l0.1-0.9V529.27z"/>
	<path class="st1" d="M806.32,524.77l-0.9,0.1l-0.9,0.3l-0.8,0.4l-0.7,0.6l-0.6,0.7l-0.4,0.8l-0.3,0.9l-0.1,0.9v96.4l0.1,0.9
		l0.3,0.9l0.4,0.8l0.6,0.7l0.7,0.6l0.8,0.4l0.9,0.3l0.9,0.1h96.4l0.9-0.1l0.9-0.3l0.8-0.4l0.7-0.6l0.6-0.7l0.4-0.8l0.3-0.9l0.1-0.9
		v-96.4l-0.1-0.9l-0.3-0.9l-0.4-0.8l-0.6-0.7l-0.7-0.6l-0.8-0.4l-0.9-0.3l-0.9-0.1H806.32z"/>
	<path class="st1" d="M806.32,405.67l-0.9,0.1l-0.9,0.3l-0.8,0.4l-0.7,0.6l-0.6,0.7l-0.4,0.8l-0.3,0.9l-0.1,0.9v96.4l0.1,0.9
		l0.3,0.9l0.4,0.8l0.6,0.7l0.7,0.6l0.8,0.4l0.9,0.3l0.9,0.1h96.4l0.9-0.1l0.9-0.3l0.8-0.4l0.7-0.6l0.6-0.7l0.4-0.8l0.3-0.9l0.1-0.9
		v-96.4l-0.1-0.9l-0.3-0.9l-0.4-0.8l-0.6-0.7l-0.7-0.6l-0.8-0.4l-0.9-0.3l-0.9-0.1H806.32z"/>
	<path class="st1" d="M806.32,392.07h96.4l0.9-0.1l0.9-0.3l0.8-0.4l0.7-0.6l0.6-0.7l0.4-0.8l0.3-0.9l0.1-0.9v-96.4l-0.1-0.9
		l-0.3-0.9l-0.4-0.8l-0.6-0.7l-0.7-0.6l-0.8-0.4l-0.9-0.3l-0.9-0.1h-96.4l-0.9,0.1l-0.9,0.3l-0.8,0.4l-0.7,0.6l-0.6,0.7l-0.4,0.8
		l-0.3,0.9l-0.1,0.9v96.4l0.1,0.9l0.3,0.9l0.4,0.8l0.6,0.7l0.7,0.6l0.8,0.4l0.9,0.3L806.32,392.07z"/>
	<path class="st1" d="M687.22,392.07h96.4l0.9-0.1l0.9-0.3l0.8-0.4l0.7-0.6l0.6-0.7l0.4-0.8l0.3-0.9l0.1-0.9v-96.4l-0.1-0.9
		l-0.3-0.9l-0.4-0.8l-0.6-0.7l-0.7-0.6l-0.8-0.4l-0.9-0.3l-0.9-0.1h-96.4l-0.9,0.1l-0.9,0.3l-0.8,0.4l-0.7,0.6l-0.6,0.7l-0.4,0.8
		l-0.3,0.9l-0.1,0.9v96.4l0.1,0.9l0.3,0.9l0.4,0.8l0.6,0.7l0.7,0.6l0.8,0.4l0.9,0.3L687.22,392.07z"/>
	<path class="st1" d="M568.22,392.07h96.4l0.9-0.1l0.9-0.3l0.8-0.4l0.7-0.6l0.6-0.7l0.4-0.8l0.1-0.7l0.1-0.9v-96.4l-0.1-0.9
		l-0.3-0.9l-0.4-0.8l-0.6-0.7l-0.7-0.6l-0.8-0.4l-0.9-0.3l-0.9-0.1h-96.4l-0.9,0.1l-0.9,0.3l-0.8,0.4l-0.7,0.6l-0.6,0.7l-0.4,0.8
		l-0.3,0.9l-0.1,0.9v96.4l0.1,0.9l0.3,0.9l0.4,0.8l0.6,0.7l0.7,0.6l0.8,0.4l0.9,0.3L568.22,392.07z"/>
	<path class="st1" d="M783.62,762.87h-96.4l-0.9,0.1l-0.9,0.3l-0.8,0.4l-0.7,0.6l-0.6,0.7l-0.4,0.8l-0.3,0.9l-0.1,0.9v96.4l0.1,0.9
		l0.3,0.9l0.4,0.8l0.6,0.7l0.7,0.6l0.8,0.4l0.9,0.3l0.9,0.1h96.4l0.9-0.1l0.9-0.3l0.8-0.4l0.7-0.6l0.6-0.7l0.4-0.8l0.3-0.9l0.1-0.9
		v-96.4l-0.1-0.9l-0.3-0.9l-0.4-0.8l-0.6-0.7l-0.7-0.6l-0.8-0.4l-0.9-0.3L783.62,762.87z"/>
	<path class="st1" d="M664.62,868.27l0.9-0.1l0.9-0.3l0.8-0.4l0.7-0.6l0.6-0.7l0.4-0.8l0.3-0.9l0.1-0.9v-96.4l-0.3-0.7l-0.3-0.9
		l-0.4-0.8l-0.6-0.7l-0.7-0.6l-0.8-0.4l-0.9-0.3l-0.9-0.1h-96.4l-0.9,0.1l-0.9,0.3l-0.8,0.4l-0.7,0.6l-0.6,0.7l-0.4,0.8l-0.3,0.9
		l-0.1,0.9v96.4l0.1,0.9l0.3,0.9l0.4,0.8l0.6,0.7l0.7,0.6l0.8,0.4l0.9,0.3l0.9,0.1h96.6V868.27z"/>
	<path class="st1" d="M806.32,762.87l-0.9,0.1l-0.9,0.3l-0.8,0.4l-0.7,0.6l-0.6,0.7l-0.4,0.8l-0.3,0.9l-0.1,0.9v96.4l0.1,0.9
		l0.3,0.9l0.4,0.8l0.6,0.7l0.7,0.6l0.8,0.4l0.9,0.3l0.9,0.1h96.4l0.9-0.1l0.9-0.3l0.8-0.4l0.7-0.6l0.6-0.7l0.4-0.8l0.3-0.9l0.1-0.9
		v-96.4l-0.1-0.9l-0.3-0.9l-0.4-0.8l-0.6-0.7l-0.7-0.6l-0.8-0.4l-0.9-0.3l-0.9-0.1H806.32z"/>
	<path class="st1" d="M806.32,749.27h96.4l0.9-0.1l0.9-0.3l0.8-0.4l0.7-0.6l0.6-0.7l0.4-0.8l0.3-0.9l0.1-0.9v-96.4l-0.1-0.9
		l-0.3-0.9l-0.4-0.8l-0.6-0.7l-0.7-0.6l-0.8-0.4l-0.9-0.3l-0.9-0.1h-96.4l-0.9,0.1l-0.9,0.3l-0.8,0.4l-0.7,0.6l-0.6,0.7l-0.4,0.8
		l-0.3,0.9l-0.1,0.9v96.4l0.1,0.9l0.3,0.9l0.4,0.8l0.6,0.7l0.7,0.6l0.8,0.4l0.9,0.3L806.32,749.27z"/>
	<path class="st1" d="M687.22,749.27h96.4l0.9-0.1l0.9-0.3l0.8-0.4l0.7-0.6l0.6-0.7l0.4-0.8l0.3-0.9l0.1-0.9v-96.4l-0.1-0.9
		l-0.3-0.9l-0.4-0.8l-0.6-0.7l-0.7-0.6l-0.8-0.4l-0.9-0.3l-0.9-0.1h-96.4l-0.9,0.1l-0.9,0.3l-0.8,0.4l-0.7,0.6l-0.6,0.7l-0.4,0.8
		l-0.3,0.9l-0.1,0.9v96.4l0.1,0.9l0.3,0.9l0.4,0.8l0.6,0.7l0.7,0.6l0.8,0.4l0.9,0.3L687.22,749.27z"/>
	<path class="st1" d="M568.22,749.27h96.4l0.9-0.1l0.9-0.3l0.8-0.4l0.7-0.6l0.6-0.7l0.4-0.8l0.3-0.9l0.1-0.9v-96.4l-0.3-0.7
		l-0.3-0.9l-0.4-0.8l-0.6-0.7l-0.7-0.6l-0.8-0.4l-0.9-0.3l-0.9-0.1h-96.4l-0.9,0.1l-0.9,0.3l-0.8,0.4l-0.7,0.6l-0.6,0.7l-0.4,0.8
		l-0.3,0.9l-0.1,0.9v96.4l0.1,0.9l0.3,0.9l0.4,0.8l0.6,0.7l0.7,0.6l0.8,0.4l0.9,0.3L568.22,749.27z"/>
	<path class="st1" d="M545.42,405.47h-96.4l-0.9,0.1l-0.9,0.3l-0.8,0.4l-0.7,0.6l-0.6,0.7l-0.4,0.8l-0.3,0.9l-0.1,0.9v96.4l0.1,0.9
		l0.3,0.9l0.4,0.8l0.6,0.7l0.7,0.6l0.8,0.4l0.9,0.3l0.9,0.1h96.4l0.9-0.1l0.9-0.3l0.8-0.4l0.7-0.6l0.6-0.7l0.4-0.8l0.3-0.9l0.1-0.9
		v-96.4l-0.1-0.9l-0.3-0.9l-0.4-0.8l-0.6-0.7l-0.7-0.6l-0.8-0.4l-0.9-0.3L545.42,405.47z"/>
	<path class="st1" d="M549.92,529.07l-0.1-0.9l-0.3-0.9l-0.4-0.8l-0.6-0.7l-0.7-0.6l-0.8-0.4l-0.9-0.3l-0.9-0.1h-96.4l-0.9,0.1
		l-0.9,0.3l-0.8,0.4l-0.7,0.6l-0.6,0.7l-0.4,0.8l-0.3,0.9l-0.1,0.9v96.4l0.1,0.9l0.3,0.9l0.4,0.8l0.6,0.7l0.7,0.6l0.8,0.4l0.9,0.3
		l0.9,0.1h96.4l0.9-0.1l0.9-0.3l0.8-0.4l0.7-0.6l0.6-0.7l0.4-0.8l0.3-0.9l0.1-0.9V529.07z"/>
	<path class="st1" d="M426.32,510.97l0.9-0.1l0.9-0.3l0.8-0.4l0.7-0.6l0.6-0.7l0.4-0.8l0.3-0.9l0.1-0.9v-96.4l-0.1-0.9l-0.3-0.9
		l-0.4-0.8l-0.6-0.7l-0.7-0.6l-0.8-0.4l-0.9-0.3l-0.9-0.1h-96.4l-0.9,0.1l-0.9,0.3l-0.8,0.4l-0.7,0.6l-0.6,0.7l-0.4,0.8l-0.3,0.9
		l-0.1,0.9v96.4l0.1,0.9l0.3,0.9l0.4,0.8l0.6,0.7l0.7,0.6l0.8,0.4l0.9,0.3l0.9,0.1H426.32z"/>
	<path class="st1" d="M430.82,529.07l-0.1-0.9l-0.3-0.9l-0.4-0.8l-0.6-0.7l-0.7-0.6l-0.8-0.4l-0.9-0.3l-0.9-0.1h-96.4l-0.9,0.1
		l-0.9,0.3l-0.8,0.4l-0.7,0.6l-0.6,0.7l-0.4,0.8l-0.3,0.9l-0.1,0.9v96.4l0.1,0.9l0.3,0.9l0.4,0.8l0.6,0.7l0.7,0.6l0.8,0.4l0.9,0.3
		l0.9,0.1h96.4l0.9-0.1l0.9-0.3l0.8-0.4l0.7-0.6l0.6-0.7l0.4-0.8l0.3-0.9l0.1-0.9V529.07z"/>
	<path class="st1" d="M568.02,524.57l-0.9,0.1l-0.9,0.3l-0.8,0.4l-0.7,0.6l-0.6,0.7l-0.4,0.8l-0.3,0.9l-0.1,0.9v96.4l0.1,0.9
		l0.3,0.9l0.4,0.8l0.6,0.7l0.7,0.6l0.8,0.4l0.9,0.3l0.9,0.1h96.4l0.9-0.1l0.9-0.3l0.8-0.4l0.7-0.6l0.6-0.7l0.4-0.8l0.3-0.9l0.1-0.9
		v-96.4l-0.1-0.9l-0.3-0.9l-0.4-0.8l-0.6-0.7l-0.7-0.6l-0.8-0.4l-0.9-0.3l-0.9-0.1H568.02z"/>
	<path class="st1" d="M449.02,391.87h96.4l0.9-0.1l0.9-0.3l0.8-0.4l0.7-0.6l0.6-0.7l0.4-0.8l0.3-0.9l0.1-0.9v-96.4l-0.1-0.9
		l-0.3-0.9l-0.4-0.8l-0.6-0.7l-0.7-0.6l-0.8-0.4l-0.9-0.3l-0.9-0.1h-96.4l-0.9,0.1l-0.9,0.3l-0.8,0.4l-0.7,0.6l-0.6,0.7l-0.4,0.8
		l-0.3,0.9l-0.1,0.9v96.4l0.1,0.9l0.3,0.9l0.4,0.8l0.6,0.7l0.7,0.6l0.8,0.4l0.9,0.3L449.02,391.87z"/>
	<path class="st1" d="M329.92,391.87h96.4l0.9-0.1l0.9-0.3l0.8-0.4l0.7-0.6l0.6-0.7l0.4-0.8l0.3-0.9l0.1-0.9v-96.4l-0.1-0.9
		l-0.3-0.9l-0.4-0.8l-0.6-0.7l-0.7-0.6l-0.8-0.4l-0.9-0.3l-0.9-0.1h-96.4l-0.9,0.1l-0.9,0.3l-0.8,0.4l-0.7,0.6l-0.6,0.7l-0.4,0.8
		l-0.3,0.9l-0.1,0.9v96.4l0.1,0.9l0.3,0.9l0.4,0.8l0.6,0.7l0.7,0.6l0.8,0.4l0.9,0.3L329.92,391.87z"/>
	<path class="st1" d="M545.42,762.67h-96.4l-0.9,0.1l-0.9,0.3l-0.8,0.4l-0.7,0.6l-0.6,0.7l-0.4,0.8l-0.3,0.9l-0.1,0.9v96.4l0.1,0.9
		l0.3,0.9l0.4,0.8l0.6,0.7l0.7,0.6l0.8,0.4l0.9,0.3l0.9,0.1h96.4l0.9-0.1l0.9-0.3l0.8-0.4l0.7-0.6l0.6-0.7l0.4-0.8l0.3-0.9l0.1-0.9
		v-96.4l-0.1-0.9l-0.3-0.9l-0.4-0.8l-0.6-0.7l-0.7-0.6l-0.8-0.4l-0.9-0.3L545.42,762.67z"/>
	<path class="st1" d="M426.32,868.07l0.9-0.1l0.9-0.3l0.8-0.4l0.7-0.6l0.6-0.7l0.4-0.8l0.3-0.9l0.1-0.9v-96.4l-0.1-0.9l-0.3-0.9
		l-0.4-0.8l-0.6-0.7l-0.7-0.6l-0.8-0.4l-0.9-0.3l-0.9-0.1h-96.4l-0.9,0.1l-0.9,0.3l-0.8,0.4l-0.7,0.6l-0.6,0.7l-0.4,0.8l-0.3,0.9
		l-0.1,0.9v96.4l0.1,0.9l0.3,0.9l0.4,0.8l0.6,0.7l0.7,0.6l0.8,0.4l0.9,0.3l0.9,0.1H426.32z"/>
	<path class="st1" d="M449.02,749.07h96.4l0.9-0.1l0.9-0.3l0.8-0.4l0.7-0.6l0.6-0.7l0.4-0.8l0.3-0.9l0.1-0.9v-96.4l-0.1-0.9
		l-0.3-0.9l-0.4-0.8l-0.6-0.7l-0.7-0.6l-0.8-0.4l-0.9-0.3l-0.9-0.1h-96.4l-0.9,0.1l-0.9,0.3l-0.8,0.4l-0.7,0.6l-0.6,0.7l-0.4,0.8
		l-0.3,0.9l-0.1,0.9v96.4l0.1,0.9l0.3,0.9l0.4,0.8l0.6,0.7l0.7,0.6l0.8,0.4l0.9,0.3L449.02,749.07z"/>
	<path class="st1" d="M329.92,749.07h96.4l0.9-0.1l0.9-0.3l0.8-0.4l0.7-0.6l0.6-0.7l0.4-0.8l0.3-0.9l0.1-0.9v-96.4l-0.1-0.9
		l-0.3-0.9l-0.4-0.8l-0.6-0.7l-0.7-0.6l-0.8-0.4l-0.9-0.3l-0.9-0.1h-96.4l-0.9,0.1l-0.9,0.3l-0.8,0.4l-0.7,0.6l-0.6,0.7l-0.4,0.8
		l-0.3,0.9l-0.1,0.9v96.4l0.1,0.9l0.3,0.9l0.4,0.8l0.6,0.7l0.7,0.6l0.8,0.4l0.9,0.3L329.92,749.07z"/>
	<path class="st1" d="M188.22,48.37h-96.4l-0.9,0.1l-0.9,0.3l-0.8,0.4l-0.7,0.6l-0.6,0.7l-0.4,0.8l-0.3,0.9l-0.1,0.9v96.2l0.1,0.9
		l0.3,0.9l0.4,0.8l0.6,0.7l0.7,0.6l0.8,0.4l0.9,0.3l0.9,0.1h96.4l0.9-0.1l0.9-0.3l0.8-0.4l0.7-0.6l0.6-0.7l0.4-0.8l0.3-0.9l0.1-0.9
		v-96.4l-0.1-0.9l-0.3-0.9l-0.4-0.8l-0.6-0.7l-0.7-0.6l-0.8-0.4l-0.9-0.3L188.22,48.37z"/>
	<path class="st1" d="M192.82,171.87l-0.1-0.9l-0.3-0.9l-0.4-0.8l-0.6-0.7l-0.7-0.6l-0.8-0.4l-0.9-0.3l-0.9-0.1h-96.4l-0.9,0.1
		l-0.9,0.3l-0.8,0.4l-0.7,0.6l-0.6,0.7l-0.4,0.8l-0.3,0.9l-0.1,0.9v96.4l0.1,0.9l0.3,0.9l0.4,0.8l0.6,0.7l0.7,0.6l0.8,0.4l0.9,0.3
		l0.9,0.1h96.4l0.9-0.1l0.9-0.3l0.8-0.4l0.7-0.6l0.6-0.7l0.4-0.8l0.3-0.9l0.1-0.9V171.87z"/>
	<path class="st1" d="M210.92,167.37l-0.9,0.1l-0.9,0.3l-0.8,0.4l-0.7,0.6l-0.6,0.7l-0.4,0.8l-0.3,0.9l-0.1,0.9v96.2l0.1,0.9
		l0.3,0.9l0.4,0.8l0.6,0.7l0.7,0.6l0.8,0.4l0.9,0.3l0.9,0.1h96.4l0.9-0.1l0.9-0.3l0.8-0.4l0.7-0.6l0.6-0.7l0.4-0.8l0.3-0.9l0.1-0.9
		v-96.4l-0.1-0.9l-0.3-0.9l-0.4-0.8l-0.6-0.7l-0.7-0.6l-0.8-0.4l-0.9-0.3l-0.9-0.1h-96.4V167.37z"/>
	<path class="st1" d="M210.92,48.37l-0.9,0.1l-0.9,0.3l-0.8,0.4l-0.7,0.6l-0.6,0.7l-0.4,0.8l-0.3,0.9l-0.1,0.9v96.2l0.1,0.9l0.3,0.9
		l0.4,0.8l0.6,0.7l0.7,0.6l0.8,0.4l0.9,0.3l0.9,0.1h96.4l0.9-0.1l0.9-0.3l0.8-0.4l0.7-0.6l0.6-0.7l0.4-0.8l0.3-0.9l0.1-0.9v-96.4
		l-0.1-0.9l-0.3-0.9l-0.4-0.8l-0.6-0.7l-0.7-0.6l-0.8-0.4l-0.9-0.3l-0.9-0.1h-96.4V48.37z"/>
	<path class="st1" d="M188.22,405.47h-96.4l-0.9,0.1l-0.9,0.3l-0.8,0.4l-0.7,0.6l-0.6,0.7l-0.4,0.8l-0.3,0.9l-0.1,0.9v96.4l0.1,0.9
		l0.3,0.9l0.4,0.8l0.6,0.7l0.7,0.6l0.8,0.4l0.9,0.3l0.9,0.1h96.4l0.9-0.1l0.9-0.3l0.8-0.4l0.7-0.6l0.6-0.7l0.4-0.8l0.3-0.9l0.1-0.9
		v-96.4l-0.1-0.9l-0.3-0.9l-0.4-0.8l-0.6-0.7l-0.7-0.6l-0.8-0.4l-0.9-0.3L188.22,405.47z"/>
	<path class="st1" d="M192.82,529.07l-0.1-0.9l-0.3-0.9l-0.4-0.8l-0.6-0.7l-0.7-0.6l-0.8-0.4l-0.9-0.3l-0.9-0.1h-96.4l-0.9,0.1
		l-0.9,0.3l-0.8,0.4l-0.7,0.6l-0.6,0.7l-0.4,0.8l-0.3,0.9l-0.1,0.9v96.4l0.1,0.9l0.3,0.9l0.4,0.8l0.6,0.7l0.7,0.6l0.8,0.4l0.9,0.3
		l0.9,0.1h96.4l0.9-0.1l0.9-0.3l0.8-0.4l0.7-0.6l0.6-0.7l0.4-0.8l0.3-0.9l0.1-0.9V529.07z"/>
	<path class="st1" d="M210.92,524.57l-0.9,0.1l-0.9,0.3l-0.8,0.4l-0.7,0.6l-0.6,0.7l-0.4,0.8l-0.3,0.9l-0.1,0.9v96.4l0.1,0.9
		l0.3,0.9l0.4,0.8l0.6,0.7l0.7,0.6l0.8,0.4l0.9,0.3l0.9,0.1h96.4l0.9-0.1l0.9-0.3l0.8-0.4l0.7-0.6l0.6-0.7l0.4-0.8l0.3-0.9l0.1-0.9
		v-96.4l-0.1-0.9l-0.3-0.9l-0.4-0.8l-0.6-0.7l-0.7-0.6l-0.8-0.4l-0.9-0.3l-0.9-0.1H210.92z"/>
	<path class="st1" d="M210.92,405.47l-0.9,0.1l-0.9,0.3l-0.8,0.4l-0.7,0.6l-0.6,0.7l-0.4,0.8l-0.3,0.9l-0.1,0.9v96.4l0.1,0.9
		l0.3,0.9l0.4,0.8l0.6,0.7l0.7,0.6l0.8,0.4l0.9,0.3l0.9,0.1h96.4l0.9-0.1l0.9-0.3l0.8-0.4l0.7-0.6l0.6-0.7l0.4-0.8l0.3-0.9l0.1-0.9
		v-96.4l-0.1-0.9l-0.3-0.9l-0.4-0.8l-0.6-0.7l-0.7-0.6l-0.8-0.4l-0.9-0.3l-0.9-0.1H210.92z"/>
	<path class="st1" d="M210.92,391.87h96.4l0.9-0.1l0.9-0.3l0.8-0.4l0.7-0.6l0.6-0.7l0.4-0.8l0.3-0.9l0.1-0.9v-96.4l-0.1-0.9
		l-0.3-0.9l-0.4-0.8l-0.6-0.7l-0.7-0.6l-0.8-0.4l-0.9-0.3l-0.9-0.1h-96.4l-0.9,0.1l-0.9,0.3l-0.8,0.4l-0.7,0.6l-0.6,0.7l-0.4,0.8
		l-0.3,0.9l-0.1,0.9v96.4l0.1,0.9l0.3,0.9l0.4,0.8l0.6,0.7l0.7,0.6l0.8,0.4l0.9,0.3L210.92,391.87z"/>
	<path class="st1" d="M91.82,391.87h96.4l0.9-0.1l0.9-0.3l0.8-0.4l0.7-0.6l0.6-0.7l0.4-0.8l0.3-0.9l0.1-0.9v-96.4l-0.1-0.9l-0.3-0.9
		l-0.4-0.8l-0.6-0.7l-0.7-0.6l-0.8-0.4l-0.9-0.3l-0.9-0.1h-96.4l-0.9,0.1l-0.9,0.3l-0.8,0.4l-0.7,0.6l-0.6,0.7l-0.4,0.8l-0.3,0.9
		l-0.1,0.9v96.4l0.1,0.9l0.3,0.9l0.4,0.8l0.6,0.7l0.7,0.6l0.8,0.4l0.9,0.3L91.82,391.87z"/>
	<path class="st1" d="M188.22,762.67h-96.4l-0.9,0.1l-0.9,0.3l-0.8,0.4l-0.7,0.6l-0.6,0.7l-0.4,0.8l-0.3,0.9l-0.1,0.9v96.4l0.1,0.9
		l0.3,0.9l0.4,0.8l0.6,0.7l0.7,0.6l0.8,0.4l0.9,0.3l0.9,0.1h96.4l0.9-0.1l0.9-0.3l0.8-0.4l0.7-0.6l0.6-0.7l0.4-0.8l0.3-0.9l0.1-0.9
		v-96.4l-0.1-0.9l-0.3-0.9l-0.4-0.8l-0.6-0.7l-0.7-0.6l-0.8-0.4l-0.9-0.3L188.22,762.67z"/>
	<path class="st1" d="M210.92,762.67l-0.9,0.1l-0.9,0.3l-0.8,0.4l-0.7,0.6l-0.6,0.7l-0.4,0.8l-0.3,0.9l-0.1,0.9v96.4l0.1,0.9
		l0.3,0.9l0.4,0.8l0.6,0.7l0.7,0.6l0.8,0.4l0.9,0.3l0.9,0.1h96.4l0.9-0.1l0.9-0.3l0.8-0.4l0.7-0.6l0.6-0.7l0.4-0.8l0.3-0.9l0.1-0.9
		v-96.4l-0.1-0.9l-0.3-0.9l-0.4-0.8l-0.6-0.7l-0.7-0.6l-0.8-0.4l-0.9-0.3l-0.9-0.1H210.92z"/>
	<path class="st1" d="M210.92,749.07h96.4l0.9-0.1l0.9-0.3l0.8-0.4l0.7-0.6l0.6-0.7l0.4-0.8l0.3-0.9l0.1-0.9v-96.4l-0.1-0.9
		l-0.3-0.9l-0.4-0.8l-0.6-0.7l-0.7-0.6l-0.8-0.4l-0.9-0.3l-0.9-0.1h-96.4l-0.9,0.1l-0.9,0.3l-0.8,0.4l-0.7,0.6l-0.6,0.7l-0.4,0.8
		l-0.3,0.9l-0.1,0.9v96.4l0.1,0.9l0.3,0.9l0.4,0.8l0.6,0.7l0.7,0.6l0.8,0.4l0.9,0.3L210.92,749.07z"/>
	<path class="st1" d="M91.82,749.07h96.4l0.9-0.1l0.9-0.3l0.8-0.4l0.7-0.6l0.6-0.7l0.4-0.8l0.3-0.9l0.1-0.9v-96.4l-0.1-0.9l-0.3-0.9
		l-0.4-0.8l-0.6-0.7l-0.7-0.6l-0.8-0.4l-0.9-0.3l-0.9-0.1h-96.4l-0.9,0.1l-0.9,0.3l-0.8,0.4l-0.7,0.6l-0.6,0.7l-0.4,0.8l-0.3,0.9
		l-0.1,0.9v96.4l0.1,0.9l0.3,0.9l0.4,0.8l0.6,0.7l0.7,0.6l0.8,0.4l0.9,0.3L91.82,749.07z"/>
</g>
</svg>
