<?xml version="1.0" encoding="utf-8"?>
<!-- Generator: Adobe Illustrator 24.3.0, SVG Export Plug-In . SVG Version: 6.00 Build 0)  -->
<svg version="1.1" id="Layer_1" xmlns="http://www.w3.org/2000/svg" xmlns:xlink="http://www.w3.org/1999/xlink" x="0px" y="0px"
	 viewBox="0 0 2267.72 566.93" style="enable-background:new 0 0 2267.72 566.93;" xml:space="preserve">
<g>
	<g>
		<path d="M772.95,335.1h18.25l27.03,75.79l26.83-75.79h18.06v89.64h-12.11v-52.9c0-1.83,0.04-4.86,0.13-9.09
			c0.08-4.23,0.13-8.77,0.13-13.61l-26.84,75.6h-12.62l-27.03-75.6v2.75c0,2.2,0.05,5.54,0.16,10.04c0.11,4.5,0.16,7.8,0.16,9.92
			v52.9h-12.17V335.1z"/>
		<path d="M910.33,335.1h12.87v89.64h-12.87V335.1z"/>
		<path d="M968.81,335.1h12.75v78.96h47.65v10.68h-60.39V335.1z"/>
		<path d="M1125.47,335.1v10.68h-31.7v78.96h-12.94v-78.96h-31.7V335.1H1125.47z"/>
		<path d="M1237.24,347.91c6.23,7.93,9.35,18.08,9.35,30.45c0,13.38-3.57,24.51-10.7,33.38c-8.37,10.41-20.3,15.62-35.8,15.62
			c-14.47,0-25.85-4.56-34.14-13.67c-7.39-8.79-11.08-19.89-11.08-33.32c0-12.12,3.16-22.49,9.48-31.12
			c8.11-11.06,20.11-16.6,35.99-16.6C1216.96,332.66,1229.25,337.74,1237.24,347.91z M1226,405c5.02-7.67,7.53-16.48,7.53-26.45
			c0-10.54-2.89-19.02-8.68-25.45c-5.79-6.43-13.7-9.64-23.73-9.64c-9.73,0-17.68,3.18-23.82,9.55c-6.15,6.37-9.22,15.75-9.22,28.16
			c0,9.93,2.64,18.3,7.91,25.11c5.27,6.81,13.82,10.22,25.65,10.22C1212.86,416.5,1220.98,412.67,1226,405z"/>
		<path d="M1286.69,335.1h15.05l47.52,72.61V335.1h12.11v89.64h-14.28l-48.22-72.55v72.55h-12.17V335.1z"/>
		<path d="M1467.69,335.1h12.42v43.69l45.86-43.69h17.61l-39.13,36.12l40.22,53.51h-16.59l-32.92-44.97l-15.05,13.73v31.24h-12.42
			V335.1z"/>
		<path d="M1581.31,335.1h68.59v10.98h-56.17v27.22h51.94v10.37h-51.94v30.39h57.13v10.68h-69.55V335.1z"/>
		<path d="M1685.2,335.1h14.86l27.03,43.08l27.03-43.08h14.92l-35.54,53.51v36.12h-12.75v-36.12L1685.2,335.1z"/>
		<path d="M1804.91,335.1h15.05l47.52,72.61V335.1h12.11v89.64h-14.28l-48.22-72.55v72.55h-12.17V335.1z"/>
		<path d="M1925.77,335.1h68.59v10.98h-56.17v27.22h51.94v10.37h-51.94v30.39h57.13v10.68h-69.55V335.1z"/>
		<path d="M2045.28,395.81c0.3,5.09,1.56,9.21,3.78,12.39c4.23,5.94,11.68,8.91,22.35,8.91c4.78,0,9.14-0.65,13.06-1.95
			c7.6-2.52,11.4-7.04,11.4-13.55c0-4.88-1.6-8.36-4.8-10.43c-3.24-2.03-8.33-3.8-15.24-5.31l-12.75-2.75
			c-8.33-1.79-14.22-3.76-17.68-5.92c-5.98-3.74-8.97-9.34-8.97-16.78c0-8.05,2.92-14.66,8.77-19.83
			c5.85-5.17,14.13-7.75,24.85-7.75c9.86,0,18.24,2.27,25.14,6.8c6.89,4.54,10.34,11.79,10.34,21.75h-11.98
			c-0.64-4.8-2.01-8.48-4.1-11.05c-3.89-4.68-10.48-7.02-19.79-7.02c-7.52,0-12.92,1.51-16.2,4.52c-3.29,3.01-4.93,6.51-4.93,10.5
			c0,4.39,1.92,7.61,5.76,9.64c2.52,1.3,8.22,2.93,17.1,4.88l13.19,2.87c6.36,1.38,11.27,3.28,14.73,5.67
			c5.98,4.19,8.97,10.27,8.97,18.25c0,9.93-3.79,17.02-11.37,21.3c-7.58,4.27-16.39,6.41-26.42,6.41c-11.7,0-20.86-2.85-27.47-8.54
			c-6.62-5.65-9.86-13.32-9.73-23H2045.28z"/>
	</g>
	<g>
		<path d="M834.77,143.89h42.79v137.56h-27.71v-93.04c0-2.67,0.03-6.42,0.1-11.25c0.06-4.82,0.1-8.54,0.1-11.15l-26.97,115.44h-28.9
			l-26.78-115.44c0,2.61,0.03,6.33,0.1,11.15c0.06,4.82,0.1,8.57,0.1,11.25v93.04h-27.71V143.89h43.28l25.91,108.16L834.77,143.89z"
			/>
		<path d="M1009.74,168.25h-75.32v29.21h69.14v23.89h-69.14v35.37h78.79v24.73H905.36V143.89h104.38V168.25z"/>
		<path d="M1035.32,143.89h31.18l56.5,95.91v-95.91h27.71v137.56h-29.73l-57.94-97.6v97.6h-27.71V143.89z"/>
		<path d="M1259.5,281.45h-29.55V143.89h29.55V281.45z"/>
		<path d="M1286.23,143.89h31.18l56.5,95.91v-95.91h27.71v137.56h-29.74l-57.94-97.6v97.6h-27.71V143.89z"/>
		<path d="M1504.72,238.99c0.92,6.28,2.73,10.98,5.42,14.09c4.93,5.66,13.38,8.49,25.34,8.49c7.16,0,12.98-0.75,17.45-2.24
			c8.48-2.86,12.72-8.18,12.72-15.96c0-4.54-2.08-8.06-6.23-10.55c-4.16-2.43-10.74-4.57-19.76-6.44l-15.41-3.27
			c-15.15-3.23-25.55-6.75-31.21-10.55c-9.59-6.35-14.39-16.27-14.39-29.77c0-12.32,4.69-22.55,14.08-30.7
			c9.38-8.15,23.17-12.23,41.35-12.23c15.18,0,28.13,3.84,38.86,11.53c10.72,7.68,16.34,18.84,16.86,33.46h-28.58
			c-0.53-8.27-4.36-14.15-11.48-17.64c-4.75-2.3-10.66-3.45-17.72-3.45c-7.85,0-14.12,1.49-18.81,4.48
			c-4.69,2.99-7.03,7.16-7.03,12.51c0,4.92,2.31,8.59,6.93,11.01c2.97,1.62,9.27,3.52,18.91,5.69l24.98,5.69
			c10.95,2.49,19.15,5.82,24.62,9.99c8.48,6.47,12.73,15.83,12.73,28.09c0,12.57-5.03,23-15.08,31.31s-24.25,12.46-42.6,12.46
			c-18.74,0-33.48-4.09-44.21-12.27c-10.74-8.18-16.1-19.43-16.1-33.74H1504.72z"/>
		<path d="M1614.4,281.45V143.89h29.55v52.45h55.33v-52.45h29.55v137.56h-29.55v-61.41h-55.33v61.41H1614.4z"/>
		<path d="M1862.06,168.25h-75.32v29.21h69.14v23.89h-69.14v35.37h78.79v24.73h-107.86V143.89h104.38V168.25z"/>
		<path d="M1971.52,146.88c9.98,3.17,18.07,8.99,24.26,17.45c4.96,6.84,8.34,14.25,10.15,22.21c1.8,7.96,2.71,15.55,2.71,22.77
			c0,18.29-3.8,33.78-11.4,46.47c-10.31,17.11-26.22,25.66-47.74,25.66h-61.37V143.89h61.37
			C1958.31,144.02,1965.65,145.01,1971.52,146.88z M1916.99,167.78v89.77h27.47c14.06,0,23.86-6.69,29.4-20.06
			c3.03-7.34,4.55-16.08,4.55-26.22c0-14-2.27-24.74-6.82-32.24c-4.55-7.5-13.59-11.25-27.13-11.25H1916.99z"/>
		<path d="M2051.77,238.99c0.92,6.28,2.73,10.98,5.42,14.09c4.93,5.66,13.38,8.49,25.34,8.49c7.16,0,12.98-0.75,17.45-2.24
			c8.48-2.86,12.72-8.18,12.72-15.96c0-4.54-2.08-8.06-6.23-10.55c-4.16-2.43-10.74-4.57-19.76-6.44l-15.41-3.27
			c-15.15-3.23-25.55-6.75-31.21-10.55c-9.59-6.35-14.39-16.27-14.39-29.77c0-12.32,4.69-22.55,14.08-30.7
			c9.38-8.15,23.17-12.23,41.35-12.23c15.18,0,28.13,3.84,38.86,11.53c10.72,7.68,16.34,18.84,16.86,33.46h-28.58
			c-0.53-8.27-4.36-14.15-11.48-17.64c-4.75-2.3-10.66-3.45-17.72-3.45c-7.85,0-14.12,1.49-18.81,4.48
			c-4.69,2.99-7.03,7.16-7.03,12.51c0,4.92,2.31,8.59,6.93,11.01c2.97,1.62,9.27,3.52,18.91,5.69l24.98,5.69
			c10.95,2.49,19.15,5.82,24.62,9.99c8.48,6.47,12.73,15.83,12.73,28.09c0,12.57-5.03,23-15.08,31.31s-24.25,12.46-42.6,12.46
			c-18.74,0-33.48-4.09-44.21-12.27c-10.74-8.18-16.1-19.43-16.1-33.74H2051.77z"/>
	</g>
</g>
<path d="M584.12,70.69c-1.21,0.24-14.53,3.39-29.78,7.26c-15.25,3.87-60.04,14.53-99.26,23.97c-39.22,9.2-103.62,24.45-142.84,33.9
	c-39.22,9.44-97.09,23-128.32,30.51c-31.23,7.51-57.62,14.04-58.59,14.53c-1.21,0.73-1.94,71.91-1.94,158.58v157.13h37.59h54.41h92
	h2.63v-97.27l-100.55-74.27l18.55-25.12l98.77,72.95h55.62l98.77-72.95l18.55,25.12l-100.55,74.27v97.27h92.21h56.83h37.59V283.5
	C585.81,166.32,585.09,70.44,584.12,70.69z M354.6,358.45c-23.31,0-42.2-18.89-42.2-42.2c0-23.31,18.89-42.2,42.2-42.2
	s42.2,18.89,42.2,42.2C396.8,339.55,377.91,358.45,354.6,358.45z"/>
</svg>
