<?xml version="1.0" encoding="utf-8"?>
<!-- Generator: Adobe Illustrator 24.3.0, SVG Export Plug-In . SVG Version: 6.00 Build 0)  -->
<svg version="1.1" id="Layer_1" xmlns="http://www.w3.org/2000/svg" xmlns:xlink="http://www.w3.org/1999/xlink" x="0px" y="0px"
	 viewBox="0 0 841.89 595.28" style="enable-background:new 0 0 841.89 595.28;" xml:space="preserve">
<style type="text/css">
	.st0{fill-rule:evenodd;clip-rule:evenodd;fill:none;stroke:#E30613;stroke-width:0.25;stroke-miterlimit:10;}
	.st1{fill:none;stroke:#E30613;stroke-width:0.25;stroke-miterlimit:10;}
</style>
<path class="st0" d="M193.1,66.41h348.66v-18.9h8.5v-18.9h-8.5V9.71H193.1v18.9h-8.5v18.9h8.5V66.41L193.1,66.41z M103.28,507.94
	c2.26-12.81,4.52-25.62,6.77-38.43l-6.84-1.2c-4.61-0.81-9.04,2.29-9.85,6.9l-3.82,21.68c-0.81,4.61,2.29,9.04,6.9,9.85
	L103.28,507.94L103.28,507.94z M115.56,438.29c2.26-12.81,4.52-25.62,6.77-38.43l-6.84-1.21c-4.61-0.81-9.04,2.29-9.85,6.9
	l-3.82,21.68c-0.81,4.61,2.29,9.04,6.9,9.85L115.56,438.29L115.56,438.29z M106.88,516.83l-0.94,5.34c-0.81,4.61-5.24,7.71-9.85,6.9
	l-11.84-2.09l0.94-5.34c0.81-4.61,5.24-7.71,9.85-6.9L106.88,516.83L106.88,516.83z M119.16,447.18l-1.21,6.84
	c-0.81,4.61-5.24,7.71-9.85,6.9l-11.85-2.09l1.21-6.84c0.81-4.61,5.24-7.71,9.85-6.9L119.16,447.18L119.16,447.18z M131.44,377.53
	l-1.21,6.84c-0.81,4.61-5.24,7.71-9.85,6.9l-11.85-2.09l1.21-6.84c0.81-4.61,5.24-7.71,9.85-6.9L131.44,377.53L131.44,377.53z
	 M118.83,330.77l6.84,1.21c4.61,0.81,7.71,5.24,6.9,9.85l-4.73,26.81l-6.84-1.21c-4.61-0.81-7.71-5.24-6.9-9.85L118.83,330.77
	L118.83,330.77z M97.86,339.42l0.63-3.6c0.81-4.61,5.24-7.71,9.85-6.9l2.48,0.44l-0.63,3.6c-0.81,4.61-5.24,7.71-9.85,6.9
	L97.86,339.42L97.86,339.42z M93.77,362.64l1.21-6.84c0.81-4.61,5.24-7.71,9.85-6.9l2.48,0.44l-1.21,6.84
	c-0.81,4.61-5.24,7.71-9.85,6.9L93.77,362.64L93.77,362.64z M85.58,409.07l6.78-38.43l2.48,0.44c4.61,0.81,7.71,5.24,6.9,9.85
	l-3.82,21.68c-0.81,4.61-5.24,7.71-9.85,6.9L85.58,409.07L85.58,409.07z M81.49,432.29l1.21-6.84c0.81-4.61,5.24-7.71,9.85-6.9
	l2.48,0.44l-1.21,6.84c-0.81,4.61-5.24,7.71-9.85,6.9L81.49,432.29L81.49,432.29z M73.3,478.72l6.78-38.43l2.48,0.44
	c4.61,0.81,7.71,5.24,6.9,9.85l-3.82,21.68c-0.81,4.61-5.24,7.71-9.85,6.9L73.3,478.72L73.3,478.72z M69.21,501.94l1.21-6.84
	c0.81-4.61,5.24-7.71,9.85-6.9l2.48,0.44l-1.21,6.84c-0.81,4.61-5.24,7.71-9.85,6.9L69.21,501.94L69.21,501.94z M65.38,523.65
	l0.94-5.34c0.81-4.61,5.24-7.71,9.85-6.9l2.48,0.44l-0.94,5.34c-0.81,4.61-5.24,7.71-9.85,6.9L65.38,523.65L65.38,523.65z
	 M66.92,465.95l-7.38,41.87l-8.37-1.48l7.38-41.87L66.92,465.95L66.92,465.95z M74.3,424.07l-8.37-1.48l7.38-41.87l8.37,1.48
	L74.3,424.07L74.3,424.07z M154.33,345.67L148,381.56l-8.37-1.48l6.33-35.89L154.33,345.67L154.33,345.67z M10.13,569.52v-6.19
	c0-10.92,5.73-20.28,15.46-25.25c7.68-3.92,13.33-11.26,14.93-20.33l32.8-186.03c2.41-13.67,14.04-23.42,27.92-23.42h59.16
	c2.6,0,4.84,1.04,6.51,3.04c1.67,1.99,2.31,4.38,1.86,6.94L137.99,492.8c-2.61,14.8,6.74,29.02,21.36,32.5
	c12.48,2.97,21.8,14.22,21.8,27.58v16.64C124.15,569.52,67.14,569.52,10.13,569.52L10.13,569.52z M126.97,451.86l6.33-35.89
	l8.38,1.48l-6.33,35.89L126.97,451.86L126.97,451.86z M129.01,489.23l-6.33,35.89l-8.37-1.48l6.33-35.89L129.01,489.23
	L129.01,489.23z M89.37,556.26l-18.61-3.28l1.48-8.37l18.61,3.28L89.37,556.26L89.37,556.26z M363.18,497.79V370.23h8.5v127.56
	H363.18L363.18,497.79z M193.1,306.45v36.45h-8.5v36.45h8.5v36.45h-8.5v36.45h8.5v36.45h-8.5v36.45h8.5v36.45h348.66v-36.45h8.5
	v-36.45h-8.5v-36.45h8.5v-36.45h-8.5v-36.45h8.5V342.9h-8.5v-36.45C453.78,306.45,281.08,306.45,193.1,306.45L193.1,306.45z
	 M363.18,159.15v-42.52h8.5v42.52H363.18L363.18,159.15z M363.18,201.67h8.5v42.52h-8.5V201.67L363.18,201.67z M363.18,286.71
	h178.58v-42.52h8.5v-42.52h-8.5v-42.52h8.5v-42.52h-8.5V74.11h-24.41c-15.61,0-28.35,12.73-28.35,28.35v49.61
	c0,15.61-12.73,28.35-28.35,28.35h-7.88c-15.61,0-28.35-12.73-28.35-28.35v-49.61c0-15.61-12.73-28.35-28.35-28.35
	c-19.11,0-38.21,0-57.32,0c-15.61,0-28.35,12.73-28.35,28.35v49.61c0,15.61-12.73,28.35-28.35,28.35h-7.88
	c-15.61,0-28.35-12.73-28.35-28.35v-49.61c0-15.61-12.73-28.35-28.35-28.35H193.1v42.52h-8.5v42.52h8.5v42.52h-8.5v42.52h8.5v42.52
	h145.73H363.18L363.18,286.71z M235.05,121.31h2.3v15.45h-2.3V121.31L235.05,121.31z M344.8,82.61h-6.03
	c-6.03,0-11.45,2.72-15.09,6.99h21.12V82.61L344.8,82.61z M319.5,97.73c-0.37,1.51-0.57,3.09-0.57,4.72v10.73h2.3V97.73H319.5
	L319.5,97.73z M318.93,121.31v15.45h2.3v-15.45H318.93L318.93,121.31z M318.93,144.88v6.94c0,4.68,3.82,8.5,8.5,8.5h17.37v-6.94
	c0-4.68-3.82-8.5-8.5-8.5H318.93L318.93,144.88z M312.86,172.28c-3.13,4.75-7.34,8.74-12.27,11.62h12.13c4.68,0,8.5-3.82,8.5-8.5
	v-6.94h-1.26C317.01,168.46,314.48,169.82,312.86,172.28L312.86,172.28z M274.07,188.91c-1.91-0.01-3.79-0.16-5.62-0.45
	c-2.54-0.4-4.89,0.26-6.85,1.94c-1.96,1.67-2.98,3.89-2.98,6.46v10.62h6.94c4.68,0,8.5-3.82,8.5-8.5V188.91L274.07,188.91z
	 M250.5,180.24c-2.73-2.3-5.12-4.98-7.08-7.96c-1.62-2.46-4.15-3.82-7.1-3.82h-24.84v6.94c0,4.68,3.82,8.5,8.5,8.5
	c10.17,0,20.34,0,30.52,0V180.24L250.5,180.24z M238.29,160.33c-0.61-2.66-0.94-5.43-0.94-8.27v-7.18h-2.3v15.45H238.29
	L238.29,160.33z M237.35,113.18v-6.94c0-4.68-3.82-8.5-8.5-8.5h-17.37v6.94c0,4.68,3.82,8.5,8.5,8.5H237.35L237.35,113.18z
	 M226.92,85c-2.81-1.52-6.01-2.39-9.42-2.39h-6.03v6.99h15.45V85L226.92,85z M523.38,82.61h-6.03c-6.03,0-11.45,2.72-15.09,6.99
	h21.12V82.61L523.38,82.61z M498.08,97.73c-0.37,1.51-0.57,3.09-0.57,4.72v10.73h2.3V97.73H498.08L498.08,97.73z M497.51,121.31
	v15.45h2.3v-15.45H497.51L497.51,121.31z M497.51,144.88v6.94c0,4.68,3.82,8.5,8.5,8.5h17.37v-6.94c0-4.68-3.82-8.5-8.5-8.5H497.51
	L497.51,144.88z M491.44,172.28c-3.13,4.75-7.34,8.74-12.27,11.62h12.13c4.68,0,8.5-3.82,8.5-8.5v-6.94h-1.26
	C495.6,168.46,493.06,169.82,491.44,172.28L491.44,172.28z M452.66,188.91c-1.91-0.01-3.79-0.16-5.62-0.45
	c-2.54-0.4-4.89,0.26-6.85,1.94c-1.96,1.67-2.98,3.89-2.98,6.46v10.62h6.94c4.68,0,8.5-3.82,8.5-8.5V188.91L452.66,188.91z
	 M429.08,180.24c-2.73-2.3-5.12-4.98-7.08-7.96c-1.62-2.46-4.15-3.82-7.1-3.82h-24.84v6.94c0,4.68,3.82,8.5,8.5,8.5
	c10.17,0,20.34,0,30.52,0V180.24L429.08,180.24z M416.87,160.33c-0.61-2.66-0.94-5.43-0.94-8.27v-7.18h-2.3v15.45H416.87
	L416.87,160.33z M415.93,136.75v-15.45h-2.3v15.45H415.93L415.93,136.75z M415.93,113.18v-6.94c0-4.68-3.82-8.5-8.5-8.5h-17.37v6.94
	c0,4.68,3.82,8.5,8.5,8.5H415.93L415.93,113.18z M405.51,85c-2.81-1.52-6.01-2.39-9.42-2.39h-6.03v6.99h15.45V85L405.51,85z
	 M226.92,278.2v-6.94c0-4.68-3.82-8.5-8.5-8.5h-6.94v6.94c0,4.68,3.82,8.5,8.5,8.5H226.92L226.92,278.2z M297.65,278.2v-6.94
	c0-4.68-3.82-8.5-8.5-8.5h-6.94v6.94c0,4.68,3.82,8.5,8.5,8.5H297.65L297.65,278.2z M226.92,160.33c0-13.01,0-26.01,0-39.02h-6.94
	c-4.68,0-8.5,3.82-8.5,8.5v22.01c0,4.68,3.82,8.5,8.5,8.5H226.92L226.92,160.33z M235.05,192.03h6.94c4.68,0,8.5,3.82,8.5,8.5v6.94
	h-6.94c-4.68,0-8.5-3.82-8.5-8.5V192.03L235.05,192.03z M226.92,231.05c0-13.01,0-26.01,0-39.02h-6.94c-4.68,0-8.5,3.82-8.5,8.5
	v22.01c0,4.68,3.82,8.5,8.5,8.5H226.92L226.92,231.05z M274.07,215.61h-39.02v6.94c0,4.68,3.82,8.5,8.5,8.5h22.01
	c4.68,0,8.5-3.82,8.5-8.5V215.61L274.07,215.61z M235.05,262.76h6.94c4.68,0,8.5,3.82,8.5,8.5v6.94h-6.94c-4.68,0-8.5-3.82-8.5-8.5
	V262.76L235.05,262.76z M258.63,239.18c0,13.01,0,26.01,0,39.02h6.94c4.68,0,8.5-3.82,8.5-8.5v-22.01c0-4.68-3.82-8.5-8.5-8.5
	H258.63L258.63,239.18z M250.5,254.63v-6.94c0-4.68-3.82-8.5-8.5-8.5h-30.52v6.94c0,4.68,3.82,8.5,8.5,8.5
	C230.15,254.63,240.33,254.63,250.5,254.63L250.5,254.63z M329.35,97.73c0,13.01,0,26.01,0,39.02h6.94c4.68,0,8.5-3.82,8.5-8.5
	v-22.01c0-4.68-3.82-8.5-8.5-8.5H329.35L329.35,97.73z M305.78,192.03h6.94c4.68,0,8.5,3.82,8.5,8.5v6.94h-6.94
	c-4.68,0-8.5-3.82-8.5-8.5V192.03L305.78,192.03z M297.65,231.05c0-13.01,0-26.01,0-39.02h-6.94c-4.68,0-8.5,3.82-8.5,8.5v22.01
	c0,4.68,3.82,8.5,8.5,8.5H297.65L297.65,231.05z M344.8,215.61h-39.02v6.94c0,4.68,3.82,8.5,8.5,8.5h22.01c4.68,0,8.5-3.82,8.5-8.5
	V215.61L344.8,215.61z M329.35,168.46c0,13.01,0,26.01,0,39.02h6.94c4.68,0,8.5-3.82,8.5-8.5v-22.01c0-4.68-3.82-8.5-8.5-8.5H329.35
	L329.35,168.46z M305.78,262.76h6.94c4.68,0,8.5,3.82,8.5,8.5v6.94h-6.94c-4.68,0-8.5-3.82-8.5-8.5V262.76L305.78,262.76z
	 M329.35,239.18c0,13.01,0,26.01,0,39.02h6.94c4.68,0,8.5-3.82,8.5-8.5v-22.01c0-4.68-3.82-8.5-8.5-8.5H329.35L329.35,239.18z
	 M321.22,254.63v-6.94c0-4.68-3.82-8.5-8.5-8.5H282.2v6.94c0,4.68,3.82,8.5,8.5,8.5C300.88,254.63,311.05,254.63,321.22,254.63
	L321.22,254.63z M405.51,278.2v-6.94c0-4.68-3.82-8.5-8.5-8.5h-6.94v6.94c0,4.68,3.82,8.5,8.5,8.5H405.51L405.51,278.2z
	 M476.23,278.2v-6.94c0-4.68-3.82-8.5-8.5-8.5h-6.94v6.94c0,4.68,3.82,8.5,8.5,8.5H476.23L476.23,278.2z M405.51,160.33
	c0-13.01,0-26.01,0-39.02h-6.94c-4.68,0-8.5,3.82-8.5,8.5v22.01c0,4.68,3.82,8.5,8.5,8.5H405.51L405.51,160.33z M413.64,192.03h6.94
	c4.68,0,8.5,3.82,8.5,8.5v6.94h-6.94c-4.68,0-8.5-3.82-8.5-8.5V192.03L413.64,192.03z M405.51,231.05c0-13.01,0-26.01,0-39.02h-6.94
	c-4.68,0-8.5,3.82-8.5,8.5v22.01c0,4.68,3.82,8.5,8.5,8.5H405.51L405.51,231.05z M452.66,215.61h-39.02v6.94
	c0,4.68,3.82,8.5,8.5,8.5h22.01c4.68,0,8.5-3.82,8.5-8.5V215.61L452.66,215.61z M413.64,262.76h6.94c4.68,0,8.5,3.82,8.5,8.5v6.94
	h-6.94c-4.68,0-8.5-3.82-8.5-8.5V262.76L413.64,262.76z M437.21,239.18c0,13.01,0,26.01,0,39.02h6.94c4.68,0,8.5-3.82,8.5-8.5
	v-22.01c0-4.68-3.82-8.5-8.5-8.5H437.21L437.21,239.18z M429.08,254.63v-6.94c0-4.68-3.82-8.5-8.5-8.5h-30.52v6.94
	c0,4.68,3.82,8.5,8.5,8.5C408.74,254.63,418.91,254.63,429.08,254.63L429.08,254.63z M507.93,97.73c0,13.01,0,26.01,0,39.02h6.94
	c4.68,0,8.5-3.82,8.5-8.5v-22.01c0-4.68-3.82-8.5-8.5-8.5H507.93L507.93,97.73z M484.36,192.03h6.94c4.68,0,8.5,3.82,8.5,8.5v6.94
	h-6.94c-4.68,0-8.5-3.82-8.5-8.5V192.03L484.36,192.03z M476.23,231.05c0-13.01,0-26.01,0-39.02h-6.94c-4.68,0-8.5,3.82-8.5,8.5
	v22.01c0,4.68,3.82,8.5,8.5,8.5H476.23L476.23,231.05z M523.38,215.61h-39.02v6.94c0,4.68,3.82,8.5,8.5,8.5h22.01
	c4.68,0,8.5-3.82,8.5-8.5V215.61L523.38,215.61z M507.93,168.46c0,13.01,0,26.01,0,39.02h6.94c4.68,0,8.5-3.82,8.5-8.5v-22.01
	c0-4.68-3.82-8.5-8.5-8.5H507.93L507.93,168.46z M484.36,262.76h6.94c4.68,0,8.5,3.82,8.5,8.5v6.94h-6.94c-4.68,0-8.5-3.82-8.5-8.5
	V262.76L484.36,262.76z M507.93,239.18c0,13.01,0,26.01,0,39.02h6.94c4.68,0,8.5-3.82,8.5-8.5v-22.01c0-4.68-3.82-8.5-8.5-8.5
	H507.93L507.93,239.18z M499.8,254.63v-6.94c0-4.68-3.82-8.5-8.5-8.5h-30.52v6.94c0,4.68,3.82,8.5,8.5,8.5
	C479.46,254.63,489.63,254.63,499.8,254.63L499.8,254.63z M627.96,507.94c-2.26-12.81-4.52-25.62-6.77-38.43l6.84-1.2
	c4.61-0.81,9.04,2.29,9.85,6.9l3.82,21.68c0.81,4.61-2.29,9.04-6.9,9.85L627.96,507.94L627.96,507.94z M615.68,438.29
	c-2.26-12.81-4.52-25.62-6.77-38.43l6.84-1.21c4.61-0.81,9.04,2.29,9.85,6.9l3.82,21.68c0.81,4.61-2.29,9.04-6.9,9.85L615.68,438.29
	L615.68,438.29z M624.36,516.83l0.94,5.34c0.81,4.61,5.24,7.71,9.85,6.9l11.84-2.09l-0.94-5.34c-0.81-4.61-5.24-7.71-9.85-6.9
	L624.36,516.83L624.36,516.83z M612.08,447.18l1.21,6.84c0.81,4.61,5.24,7.71,9.85,6.9l11.85-2.09l-1.21-6.84
	c-0.81-4.61-5.24-7.71-9.85-6.9L612.08,447.18L612.08,447.18z M599.8,377.53l1.21,6.84c0.81,4.61,5.24,7.71,9.85,6.9l11.85-2.09
	l-1.21-6.84c-0.81-4.61-5.24-7.71-9.85-6.9L599.8,377.53L599.8,377.53z M612.4,330.77l-6.84,1.21c-4.61,0.81-7.71,5.24-6.9,9.85
	l4.73,26.81l6.84-1.21c4.61-0.81,7.71-5.24,6.9-9.85L612.4,330.77L612.4,330.77z M633.38,339.42l-0.63-3.6
	c-0.81-4.61-5.24-7.71-9.85-6.9l-2.48,0.44l0.63,3.6c0.81,4.61,5.24,7.71,9.85,6.9L633.38,339.42L633.38,339.42z M637.47,362.64
	l-1.21-6.84c-0.81-4.61-5.24-7.71-9.85-6.9l-2.48,0.44l1.21,6.84c0.81,4.61,5.24,7.71,9.85,6.9L637.47,362.64L637.47,362.64z
	 M645.66,409.07l-6.78-38.43l-2.48,0.44c-4.61,0.81-7.71,5.24-6.9,9.85l3.82,21.68c0.81,4.61,5.24,7.71,9.85,6.9L645.66,409.07
	L645.66,409.07z M649.75,432.29l-1.21-6.84c-0.81-4.61-5.24-7.71-9.85-6.9l-2.48,0.44l1.2,6.84c0.81,4.61,5.24,7.71,9.85,6.9
	L649.75,432.29L649.75,432.29z M657.94,478.72l-6.78-38.43l-2.48,0.44c-4.61,0.81-7.71,5.24-6.9,9.85l3.82,21.68
	c0.81,4.61,5.24,7.71,9.85,6.9L657.94,478.72L657.94,478.72z M662.03,501.94l-1.21-6.84c-0.81-4.61-5.24-7.71-9.85-6.9l-2.48,0.44
	l1.21,6.84c0.81,4.61,5.24,7.71,9.85,6.9L662.03,501.94L662.03,501.94z M665.86,523.65l-0.94-5.34c-0.81-4.61-5.24-7.71-9.85-6.9
	l-2.48,0.44l0.94,5.34c0.81,4.61,5.24,7.71,9.85,6.9L665.86,523.65L665.86,523.65z M664.32,465.95l7.38,41.87l8.37-1.48l-7.38-41.87
	L664.32,465.95L664.32,465.95z M656.94,424.07l8.37-1.48l-7.38-41.87l-8.37,1.48L656.94,424.07L656.94,424.07z M576.91,345.67
	l6.33,35.89l8.37-1.48l-6.33-35.89L576.91,345.67L576.91,345.67z M721.11,569.52v-6.19c0-10.92-5.73-20.28-15.46-25.25
	c-7.68-3.92-13.33-11.26-14.93-20.33l-32.8-186.03c-2.41-13.67-14.04-23.42-27.92-23.42h-59.16c-2.6,0-4.84,1.04-6.51,3.04
	c-1.67,1.99-2.31,4.38-1.86,6.94l30.77,174.52c2.61,14.8-6.74,29.02-21.36,32.5c-12.48,2.97-21.8,14.22-21.8,27.58v16.64
	C607.09,569.52,664.1,569.52,721.11,569.52L721.11,569.52z M604.27,451.86l-6.33-35.89l-8.38,1.48l6.33,35.89L604.27,451.86
	L604.27,451.86z M602.22,489.23l6.33,35.89l8.37-1.48l-6.33-35.89L602.22,489.23L602.22,489.23z M641.87,556.26l18.61-3.28
	L659,544.6l-18.61,3.28L641.87,556.26L641.87,556.26z M87.92,156.46l8.38,1.48l-7.38,41.87l-8.37-1.48l-7.38,41.87l8.37,1.48
	l-5.91,33.5l55.83,9.84l9.6-54.44l8.38,1.48l22.15-125.62l-8.37-1.48l3.69-20.94l-55.83-9.84l-7.38,41.87l-8.37-1.48L87.92,156.46z"
	/>
<g>
	<rect x="724.91" y="9.71" class="st1" width="14.17" height="425.2"/>
	<rect x="705.29" y="9.71" class="st1" width="14.17" height="425.2"/>
	<rect x="685.67" y="9.71" class="st1" width="14.17" height="255.12"/>
	<rect x="666.06" y="9.71" class="st1" width="14.17" height="255.12"/>
</g>
</svg>
