<?xml version="1.0" encoding="utf-8"?>
<!-- Generator: Adobe Illustrator 24.3.0, SVG Export Plug-In . SVG Version: 6.00 Build 0)  -->
<svg version="1.1" id="Layer_1" xmlns="http://www.w3.org/2000/svg" xmlns:xlink="http://www.w3.org/1999/xlink" x="0px" y="0px"
	 viewBox="0 0 841.89 595.28" style="enable-background:new 0 0 841.89 595.28;" xml:space="preserve">
<style type="text/css">
	.st0{fill:none;stroke:#E30613;stroke-width:0.25;stroke-miterlimit:10;}
</style>
<g>
	<path class="st0" d="M446.44,232.98l-0.36,0.88l-0.58,0.76l-0.76,0.58l-0.88,0.36l-0.94,0.13H57.33l-0.94-0.13l-0.88-0.36
		l-0.76-0.58l-0.58-0.76l-0.36-0.88l-0.12-0.94V56.49l0.48-3.63l1.4-3.38l2.23-2.91l2.91-2.23l3.38-1.4l3.63-0.48h364.82l3.63,0.48
		l3.38,1.4l2.91,2.23l2.23,2.91l1.4,3.38l0.48,3.63v175.54L446.44,232.98z M407.7,128.69v-55h-82.77v55H407.7z"/>
	<path class="st0" d="M446.56,232.04V56.49 M324.93,73.68v55 M407.7,73.68h-82.77 M324.93,128.69h82.77 M407.7,128.69v-55
		 M57.33,235.68h385.59 M446.44,232.98l0.12-0.94 M446.08,233.86l0.36-0.88 M445.5,234.62l0.58-0.76 M444.74,235.2l0.76-0.58
		 M443.86,235.56l0.88-0.36 M442.92,235.68l0.94-0.13 M56.39,235.56l0.94,0.13 M55.51,235.2l0.88,0.36 M54.75,234.62l0.76,0.58
		 M54.17,233.86l0.58,0.76 M53.81,232.98l0.36,0.88 M53.68,232.04l0.12,0.94 M53.68,232.04V56.49 M53.68,56.49l0.48-3.63
		 M54.16,52.86l1.4-3.38 M55.56,49.48l2.23-2.91 M57.79,46.57l2.91-2.23 M60.7,44.34l3.38-1.4 M64.08,42.94l3.63-0.48 M432.53,42.46
		H67.71 M432.53,42.46l3.63,0.48 M436.16,42.94l3.38,1.4 M439.55,44.34l2.91,2.23 M442.45,46.57l2.23,2.91 M444.68,49.48l1.4,3.38
		 M446.09,52.86l0.48,3.63"/>
</g>
</svg>
