solid Untitled-64172931
facet normal 0.0 0.3826834323650895 -0.923879532511287
  outer loop
    vertex 17.5 2.5499999999999994 0.1674682452694514
    vertex -4.229949723821846e-15 2.2485238063781505 0.04259271713866451
    vertex -4.229949723821846e-15 2.5499999999999994 0.1674682452694514
  endloop
endfacet
facet normal 0.0 0.3826834323650895 -0.923879532511287
  outer loop
    vertex -4.229949723821846e-15 2.2485238063781505 0.04259271713866451
    vertex 17.5 2.5499999999999994 0.1674682452694514
    vertex 17.5 2.2485238063781505 0.04259271713866451
  endloop
endfacet
facet normal 0.0 0.923879532511287 -0.3826834323650893
  outer loop
    vertex -4.229949723821846e-15 3.132407282861335 0.9264761936218485
    vertex 17.5 3.0075317547305485 0.6249999999999993
    vertex -4.229949723821846e-15 3.0075317547305485 0.6249999999999993
  endloop
endfacet
facet normal 0.0 0.923879532511287 -0.3826834323650893
  outer loop
    vertex 17.5 3.0075317547305485 0.6249999999999993
    vertex -4.229949723821846e-15 3.132407282861335 0.9264761936218485
    vertex 17.5 3.132407282861335 0.9264761936218485
  endloop
endfacet
facet normal 0.0 -0.13052619222005107 -0.9914448613738105
  outer loop
    vertex 17.5 1.925 0.0
    vertex -4.229949723821846e-15 1.6014761936218487 0.04259271713866451
    vertex -4.229949723821846e-15 1.925 0.0
  endloop
endfacet
facet normal 0.0 -0.13052619222005107 -0.9914448613738105
  outer loop
    vertex -4.229949723821846e-15 1.6014761936218487 0.04259271713866451
    vertex 17.5 1.925 0.0
    vertex 17.5 1.6014761936218487 0.04259271713866451
  endloop
endfacet
facet normal 0.0 0.9914448613738106 0.13052619222005082
  outer loop
    vertex -4.229949723821846e-15 3.1324072828613354 1.5735238063781503
    vertex 17.5 3.175 1.2499999999999996
    vertex -4.229949723821846e-15 3.175 1.2499999999999996
  endloop
endfacet
facet normal 0.0 0.9914448613738106 0.13052619222005082
  outer loop
    vertex 17.5 3.175 1.2499999999999996
    vertex -4.229949723821846e-15 3.1324072828613354 1.5735238063781503
    vertex 17.5 3.1324072828613354 1.5735238063781503
  endloop
endfacet
facet normal 0.0 0.6087614290087221 0.7933533402912343
  outer loop
    vertex 17.5 2.5500000000000007 2.332531754730548
    vertex -4.229949723821846e-15 2.8088834764831847 2.1338834764831835
    vertex -4.229949723821846e-15 2.5500000000000007 2.332531754730548
  endloop
endfacet
facet normal 0.0 0.6087614290087221 0.7933533402912343
  outer loop
    vertex -4.229949723821846e-15 2.8088834764831847 2.1338834764831835
    vertex 17.5 2.5500000000000007 2.332531754730548
    vertex 17.5 2.8088834764831847 2.1338834764831835
  endloop
endfacet
facet normal 0.0 -0.13052619222005082 0.9914448613738106
  outer loop
    vertex 17.5 1.6014761936218498 2.457407282861335
    vertex -4.229949723821846e-15 1.9250000000000003 2.4999999999999996
    vertex -4.229949723821846e-15 1.6014761936218498 2.457407282861335
  endloop
endfacet
facet normal 0.0 -0.13052619222005082 0.9914448613738106
  outer loop
    vertex -4.229949723821846e-15 1.9250000000000003 2.4999999999999996
    vertex 17.5 1.6014761936218498 2.457407282861335
    vertex 17.5 1.9250000000000003 2.4999999999999996
  endloop
endfacet
facet normal 0.0 0.6087614290087199 -0.7933533402912357
  outer loop
    vertex 17.5 2.8088834764831847 0.36611652351681534
    vertex -4.229949723821846e-15 2.5499999999999994 0.1674682452694514
    vertex -4.229949723821846e-15 2.8088834764831847 0.36611652351681534
  endloop
endfacet
facet normal 0.0 0.6087614290087199 -0.7933533402912357
  outer loop
    vertex -4.229949723821846e-15 2.5499999999999994 0.1674682452694514
    vertex 17.5 2.8088834764831847 0.36611652351681534
    vertex 17.5 2.5499999999999994 0.1674682452694514
  endloop
endfacet
facet normal 0.0 0.7933533402912354 0.6087614290087207
  outer loop
    vertex -4.229949723821846e-15 2.8088834764831847 2.1338834764831835
    vertex 17.5 3.0075317547305485 1.8749999999999993
    vertex -4.229949723821846e-15 3.0075317547305485 1.8749999999999993
  endloop
endfacet
facet normal 0.0 0.7933533402912354 0.6087614290087207
  outer loop
    vertex 17.5 3.0075317547305485 1.8749999999999993
    vertex -4.229949723821846e-15 2.8088834764831847 2.1338834764831835
    vertex 17.5 2.8088834764831847 2.1338834764831835
  endloop
endfacet
facet normal 0.0 -0.38268343236508856 0.9238795325112873
  outer loop
    vertex 17.5 1.3000000000000007 2.3325317547305486
    vertex -4.229949723821846e-15 1.6014761936218498 2.457407282861335
    vertex -4.229949723821846e-15 1.3000000000000007 2.3325317547305486
  endloop
endfacet
facet normal 0.0 -0.38268343236508856 0.9238795325112873
  outer loop
    vertex -4.229949723821846e-15 1.6014761936218498 2.457407282861335
    vertex 17.5 1.3000000000000007 2.3325317547305486
    vertex 17.5 1.6014761936218498 2.457407282861335
  endloop
endfacet
facet normal 0.0 -0.608761429008721 0.7933533402912349
  outer loop
    vertex 17.5 1.0411165235168158 2.1338834764831844
    vertex -4.229949723821846e-15 1.3000000000000007 2.3325317547305486
    vertex -4.229949723821846e-15 1.0411165235168158 2.1338834764831844
  endloop
endfacet
facet normal 0.0 -0.608761429008721 0.7933533402912349
  outer loop
    vertex -4.229949723821846e-15 1.3000000000000007 2.3325317547305486
    vertex 17.5 1.0411165235168158 2.1338834764831844
    vertex 17.5 1.3000000000000007 2.3325317547305486
  endloop
endfacet
facet normal 0.0 0.9914448613738104 -0.13052619222005166
  outer loop
    vertex -4.229949723821846e-15 3.175 1.2499999999999996
    vertex 17.5 3.132407282861335 0.9264761936218485
    vertex -4.229949723821846e-15 3.132407282861335 0.9264761936218485
  endloop
endfacet
facet normal 0.0 0.9914448613738104 -0.13052619222005166
  outer loop
    vertex 17.5 3.132407282861335 0.9264761936218485
    vertex -4.229949723821846e-15 3.175 1.2499999999999996
    vertex 17.5 3.175 1.2499999999999996
  endloop
endfacet
facet normal 0.0 -0.7933533402912349 0.6087614290087212
  outer loop
    vertex 17.5 1.0411165235168158 2.1338834764831844
    vertex -4.229949723821846e-15 0.8424682452694521 1.8750000000000004
    vertex 17.5 0.8424682452694521 1.8750000000000004
  endloop
endfacet
facet normal 0.0 -0.7933533402912349 0.6087614290087212
  outer loop
    vertex -4.229949723821846e-15 0.8424682452694521 1.8750000000000004
    vertex 17.5 1.0411165235168158 2.1338834764831844
    vertex -4.229949723821846e-15 1.0411165235168158 2.1338834764831844
  endloop
endfacet
facet normal 0.0 0.923879532511287 0.3826834323650893
  outer loop
    vertex -4.229949723821846e-15 3.0075317547305485 1.8749999999999993
    vertex 17.5 3.1324072828613354 1.5735238063781503
    vertex -4.229949723821846e-15 3.1324072828613354 1.5735238063781503
  endloop
endfacet
facet normal 0.0 0.923879532511287 0.3826834323650893
  outer loop
    vertex 17.5 3.1324072828613354 1.5735238063781503
    vertex -4.229949723821846e-15 3.0075317547305485 1.8749999999999993
    vertex 17.5 3.0075317547305485 1.8749999999999993
  endloop
endfacet
facet normal 0.0 0.13052619222005146 0.9914448613738106
  outer loop
    vertex 17.5 1.9250000000000003 2.4999999999999996
    vertex -4.229949723821846e-15 2.248523806378152 2.457407282861335
    vertex -4.229949723821846e-15 1.9250000000000003 2.4999999999999996
  endloop
endfacet
facet normal 0.0 0.13052619222005146 0.9914448613738106
  outer loop
    vertex -4.229949723821846e-15 2.248523806378152 2.457407282861335
    vertex 17.5 1.9250000000000003 2.4999999999999996
    vertex 17.5 2.248523806378152 2.457407282861335
  endloop
endfacet
facet normal 0.0 -0.9238795325112864 0.3826834323650908
  outer loop
    vertex 17.5 0.8424682452694521 1.8750000000000004
    vertex -4.229949723821846e-15 0.7175927171386649 1.5735238063781518
    vertex 17.5 0.7175927171386649 1.5735238063781518
  endloop
endfacet
facet normal 0.0 -0.9238795325112864 0.3826834323650908
  outer loop
    vertex -4.229949723821846e-15 0.7175927171386649 1.5735238063781518
    vertex 17.5 0.8424682452694521 1.8750000000000004
    vertex -4.229949723821846e-15 0.8424682452694521 1.8750000000000004
  endloop
endfacet
facet normal 0.0 0.38268343236508984 0.9238795325112867
  outer loop
    vertex 17.5 2.248523806378152 2.457407282861335
    vertex -4.229949723821846e-15 2.5500000000000007 2.332531754730548
    vertex -4.229949723821846e-15 2.248523806378152 2.457407282861335
  endloop
endfacet
facet normal 0.0 0.38268343236508984 0.9238795325112867
  outer loop
    vertex -4.229949723821846e-15 2.5500000000000007 2.332531754730548
    vertex 17.5 2.248523806378152 2.457407282861335
    vertex 17.5 2.5500000000000007 2.332531754730548
  endloop
endfacet
facet normal 0.0 0.793353340291235 -0.6087614290087209
  outer loop
    vertex -4.229949723821846e-15 3.0075317547305485 0.6249999999999993
    vertex 17.5 2.8088834764831847 0.36611652351681534
    vertex -4.229949723821846e-15 2.8088834764831847 0.36611652351681534
  endloop
endfacet
facet normal 0.0 0.793353340291235 -0.6087614290087209
  outer loop
    vertex 17.5 2.8088834764831847 0.36611652351681534
    vertex -4.229949723821846e-15 3.0075317547305485 0.6249999999999993
    vertex 17.5 3.0075317547305485 0.6249999999999993
  endloop
endfacet
facet normal 0.0 0.13052619222005135 -0.9914448613738105
  outer loop
    vertex 17.5 2.2485238063781505 0.04259271713866451
    vertex -4.229949723821846e-15 1.925 0.0
    vertex -4.229949723821846e-15 2.2485238063781505 0.04259271713866451
  endloop
endfacet
facet normal 0.0 0.13052619222005135 -0.9914448613738105
  outer loop
    vertex -4.229949723821846e-15 1.925 0.0
    vertex 17.5 2.2485238063781505 0.04259271713866451
    vertex 17.5 1.925 0.0
  endloop
endfacet
facet normal -0.0 -0.923879532511287 -0.3826834323650895
  outer loop
    vertex 17.5 0.7175927171386647 0.9264761936218489
    vertex -4.229949723821846e-15 0.8424682452694515 0.6249999999999999
    vertex 17.5 0.8424682452694515 0.6249999999999999
  endloop
endfacet
facet normal -0.0 -0.923879532511287 -0.3826834323650895
  outer loop
    vertex -4.229949723821846e-15 0.8424682452694515 0.6249999999999999
    vertex 17.5 0.7175927171386647 0.9264761936218489
    vertex -4.229949723821846e-15 0.7175927171386647 0.9264761936218489
  endloop
endfacet
facet normal -0.0 -0.6087614290087207 -0.7933533402912354
  outer loop
    vertex 17.5 1.2999999999999998 0.16746824526945156
    vertex -4.229949723821846e-15 1.0411165235168156 0.36611652351681534
    vertex -4.229949723821846e-15 1.2999999999999998 0.16746824526945156
  endloop
endfacet
facet normal -0.0 -0.6087614290087207 -0.7933533402912354
  outer loop
    vertex -4.229949723821846e-15 1.0411165235168156 0.36611652351681534
    vertex 17.5 1.2999999999999998 0.16746824526945156
    vertex 17.5 1.0411165235168156 0.36611652351681534
  endloop
endfacet
facet normal -0.0 -0.38268343236508995 -0.9238795325112867
  outer loop
    vertex 17.5 1.6014761936218487 0.04259271713866451
    vertex -4.229949723821846e-15 1.2999999999999998 0.16746824526945156
    vertex -4.229949723821846e-15 1.6014761936218487 0.04259271713866451
  endloop
endfacet
facet normal -0.0 -0.38268343236508995 -0.9238795325112867
  outer loop
    vertex -4.229949723821846e-15 1.2999999999999998 0.16746824526945156
    vertex 17.5 1.6014761936218487 0.04259271713866451
    vertex 17.5 1.2999999999999998 0.16746824526945156
  endloop
endfacet
facet normal 0.0 -0.9914448613738104 0.13052619222005185
  outer loop
    vertex 17.5 0.7175927171386649 1.5735238063781518
    vertex -4.229949723821846e-15 0.675 1.2499999999999998
    vertex 17.5 0.675 1.2499999999999998
  endloop
endfacet
facet normal 0.0 -0.9914448613738104 0.13052619222005185
  outer loop
    vertex -4.229949723821846e-15 0.675 1.2499999999999998
    vertex 17.5 0.7175927171386649 1.5735238063781518
    vertex -4.229949723821846e-15 0.7175927171386649 1.5735238063781518
  endloop
endfacet
facet normal -0.0 -0.9914448613738104 -0.13052619222005174
  outer loop
    vertex 17.5 0.675 1.2499999999999998
    vertex -4.229949723821846e-15 0.7175927171386647 0.9264761936218489
    vertex 17.5 0.7175927171386647 0.9264761936218489
  endloop
endfacet
facet normal -0.0 -0.9914448613738104 -0.13052619222005174
  outer loop
    vertex -4.229949723821846e-15 0.7175927171386647 0.9264761936218489
    vertex 17.5 0.675 1.2499999999999998
    vertex -4.229949723821846e-15 0.675 1.2499999999999998
  endloop
endfacet
facet normal -0.0 -0.7933533402912353 -0.6087614290087204
  outer loop
    vertex 17.5 0.8424682452694515 0.6249999999999999
    vertex -4.229949723821846e-15 1.0411165235168156 0.36611652351681534
    vertex 17.5 1.0411165235168156 0.36611652351681534
  endloop
endfacet
facet normal -0.0 -0.7933533402912353 -0.6087614290087204
  outer loop
    vertex -4.229949723821846e-15 1.0411165235168156 0.36611652351681534
    vertex 17.5 0.8424682452694515 0.6249999999999999
    vertex -4.229949723821846e-15 0.8424682452694515 0.6249999999999999
  endloop
endfacet
facet normal 0.0 0.9238795325112867 -0.3826834323650896
  outer loop
    vertex 17.499999999999996 3.784407215606456 0.7517733381776469
    vertex 19.999999999999996 3.592098902285044 0.28749999999999915
    vertex 17.499999999999996 3.592098902285044 0.28749999999999915
  endloop
endfacet
facet normal 0.0 0.9238795325112867 -0.3826834323650896
  outer loop
    vertex 19.999999999999996 3.592098902285044 0.28749999999999915
    vertex 17.499999999999996 3.784407215606456 0.7517733381776469
    vertex 19.999999999999996 3.784407215606456 0.7517733381776469
  endloop
endfacet
facet normal 1.0 0.0 0.0
  outer loop
    vertex 19.999999999999996 0.06559278439354341 0.7517733381776475
    vertex 19.999999999999996 0.06559278439354377 1.7482266618223539
    vertex 19.999999999999996 0.0 1.2499999999999998
  endloop
endfacet
facet normal 1.0 0.0 0.0
  outer loop
    vertex 19.999999999999996 0.06559278439354377 1.7482266618223539
    vertex 19.999999999999996 0.06559278439354341 0.7517733381776475
    vertex 19.999999999999996 0.2579010977149555 0.2875
  endloop
endfacet
facet normal 1.0 0.0 0.0
  outer loop
    vertex 19.999999999999996 0.06559278439354377 1.7482266618223539
    vertex 19.999999999999996 0.2579010977149555 0.2875
    vertex 19.999999999999996 0.25790109771495623 2.212500000000001
  endloop
endfacet
facet normal 1.0 0.0 0.0
  outer loop
    vertex 19.999999999999996 0.25790109771495623 2.212500000000001
    vertex 19.999999999999996 0.2579010977149555 0.2875
    vertex 19.999999999999996 0.47850760675890636 -2.203098814490545e-17
  endloop
endfacet
facet normal 1.0 0.0 0.0
  outer loop
    vertex 19.999999999999996 0.25790109771495623 2.212500000000001
    vertex 19.999999999999996 0.47850760675890636 -2.203098814490545e-17
    vertex 19.999999999999996 0.5638194462158964 2.611180553784104
  endloop
endfacet
facet normal 1.0 0.0 0.0
  outer loop
    vertex 19.999999999999996 0.5638194462158964 2.611180553784104
    vertex 19.999999999999996 0.47850760675890636 -2.203098814490545e-17
    vertex 19.999999999999996 0.5638194462158959 -0.11118055378410427
  endloop
endfacet
facet normal 1.0 0.0 0.0
  outer loop
    vertex 19.999999999999996 0.5638194462158964 2.611180553784104
    vertex 19.999999999999996 0.5638194462158959 -0.11118055378410427
    vertex 19.999999999999996 0.9624999999999998 -0.4170989022850443
  endloop
endfacet
facet normal 1.0 0.0 0.0
  outer loop
    vertex 19.999999999999996 0.5638194462158964 2.611180553784104
    vertex 19.999999999999996 0.9624999999999998 -0.4170989022850443
    vertex 19.999999999999996 0.9625000000000012 2.917098902285045
  endloop
endfacet
facet normal 1.0 0.0 0.0
  outer loop
    vertex 19.999999999999996 0.9625000000000012 2.917098902285045
    vertex 19.999999999999996 0.9624999999999998 -0.4170989022850443
    vertex 19.999999999999996 1.426773338177647 -0.6094072156064564
  endloop
endfacet
facet normal 1.0 0.0 0.0
  outer loop
    vertex 19.999999999999996 0.9625000000000012 2.917098902285045
    vertex 19.999999999999996 1.426773338177647 -0.6094072156064564
    vertex 19.999999999999996 1.4267733381776484 3.1094072156064563
  endloop
endfacet
facet normal 1.0 0.0 0.0
  outer loop
    vertex 19.999999999999996 1.4267733381776484 3.1094072156064563
    vertex 19.999999999999996 1.426773338177647 -0.6094072156064564
    vertex 19.999999999999996 1.925 -0.6750000000000002
  endloop
endfacet
facet normal 1.0 0.0 0.0
  outer loop
    vertex 19.999999999999996 1.4267733381776484 3.1094072156064563
    vertex 19.999999999999996 1.925 -0.6750000000000002
    vertex 19.999999999999996 1.9250000000000003 3.175
  endloop
endfacet
facet normal 1.0 0.0 0.0
  outer loop
    vertex 19.999999999999996 1.9250000000000003 3.175
    vertex 19.999999999999996 1.925 -0.6750000000000002
    vertex 19.999999999999996 2.423226661822352 -0.6094072156064567
  endloop
endfacet
facet normal 1.0 0.0 0.0
  outer loop
    vertex 19.999999999999996 1.9250000000000003 3.175
    vertex 19.999999999999996 2.423226661822352 -0.6094072156064567
    vertex 19.999999999999996 2.423226661822354 3.1094072156064563
  endloop
endfacet
facet normal 1.0 0.0 0.0
  outer loop
    vertex 19.999999999999996 2.423226661822354 3.1094072156064563
    vertex 19.999999999999996 2.423226661822352 -0.6094072156064567
    vertex 19.999999999999996 2.8874999999999997 -0.41709890228504465
  endloop
endfacet
facet normal 1.0 0.0 0.0
  outer loop
    vertex 19.999999999999996 2.423226661822354 3.1094072156064563
    vertex 19.999999999999996 2.8874999999999997 -0.41709890228504465
    vertex 19.999999999999996 2.887500000000001 2.9170989022850438
  endloop
endfacet
facet normal 1.0 0.0 0.0
  outer loop
    vertex 19.999999999999996 2.887500000000001 2.9170989022850438
    vertex 19.999999999999996 2.8874999999999997 -0.41709890228504465
    vertex 19.999999999999996 3.286180553784104 -0.11118055378410427
  endloop
endfacet
facet normal 1.0 0.0 0.0
  outer loop
    vertex 19.999999999999996 2.887500000000001 2.9170989022850438
    vertex 19.999999999999996 3.286180553784104 -0.11118055378410427
    vertex 19.999999999999996 3.286180553784105 2.611180553784103
  endloop
endfacet
facet normal 1.0 0.0 0.0
  outer loop
    vertex 19.999999999999996 3.286180553784105 2.611180553784103
    vertex 19.999999999999996 3.286180553784104 -0.11118055378410427
    vertex 19.999999999999996 3.3714923932410934 -1.1015494072452724e-17
  endloop
endfacet
facet normal 1.0 0.0 0.0
  outer loop
    vertex 19.999999999999996 3.286180553784105 2.611180553784103
    vertex 19.999999999999996 3.3714923932410934 -1.1015494072452724e-17
    vertex 19.999999999999996 3.592098902285045 2.2124999999999995
  endloop
endfacet
facet normal 1.0 0.0 0.0
  outer loop
    vertex 19.999999999999996 3.592098902285045 2.2124999999999995
    vertex 19.999999999999996 3.3714923932410934 -1.1015494072452724e-17
    vertex 19.999999999999996 3.592098902285044 0.28749999999999915
  endloop
endfacet
facet normal 1.0 0.0 0.0
  outer loop
    vertex 19.999999999999996 3.592098902285045 2.2124999999999995
    vertex 19.999999999999996 3.592098902285044 0.28749999999999915
    vertex 19.999999999999996 3.784407215606456 0.7517733381776469
  endloop
endfacet
facet normal 1.0 0.0 0.0
  outer loop
    vertex 19.999999999999996 3.592098902285045 2.2124999999999995
    vertex 19.999999999999996 3.784407215606456 0.7517733381776469
    vertex 19.999999999999996 3.784407215606456 1.7482266618223514
  endloop
endfacet
facet normal 1.0 0.0 0.0
  outer loop
    vertex 19.999999999999996 3.784407215606456 1.7482266618223514
    vertex 19.999999999999996 3.784407215606456 0.7517733381776469
    vertex 19.999999999999996 3.85 1.2499999999999996
  endloop
endfacet
facet normal 0.0 0.9914448613738104 0.1305261922200522
  outer loop
    vertex 17.499999999999996 3.784407215606456 1.7482266618223514
    vertex 19.999999999999996 3.85 1.2499999999999996
    vertex 17.499999999999996 3.85 1.2499999999999996
  endloop
endfacet
facet normal 0.0 0.9914448613738104 0.1305261922200522
  outer loop
    vertex 19.999999999999996 3.85 1.2499999999999996
    vertex 17.499999999999996 3.784407215606456 1.7482266618223514
    vertex 19.999999999999996 3.784407215606456 1.7482266618223514
  endloop
endfacet
facet normal 0.0 0.9238795325112875 0.3826834323650884
  outer loop
    vertex 17.499999999999996 3.592098902285045 2.2124999999999995
    vertex 19.999999999999996 3.784407215606456 1.7482266618223514
    vertex 17.499999999999996 3.784407215606456 1.7482266618223514
  endloop
endfacet
facet normal 0.0 0.9238795325112875 0.3826834323650884
  outer loop
    vertex 19.999999999999996 3.784407215606456 1.7482266618223514
    vertex 17.499999999999996 3.592098902285045 2.2124999999999995
    vertex 19.999999999999996 3.592098902285045 2.2124999999999995
  endloop
endfacet
facet normal 0.0 0.6087614290087213 0.7933533402912347
  outer loop
    vertex 19.999999999999996 2.887500000000001 2.9170989022850438
    vertex 17.499999999999996 3.286180553784105 2.611180553784103
    vertex 17.499999999999996 2.887500000000001 2.9170989022850438
  endloop
endfacet
facet normal 0.0 0.6087614290087213 0.7933533402912347
  outer loop
    vertex 17.499999999999996 3.286180553784105 2.611180553784103
    vertex 19.999999999999996 2.887500000000001 2.9170989022850438
    vertex 19.999999999999996 3.286180553784105 2.611180553784103
  endloop
endfacet
facet normal 0.0 -0.3826834323650889 0.9238795325112872
  outer loop
    vertex 19.999999999999996 0.9625000000000012 2.917098902285045
    vertex 17.499999999999996 1.4267733381776484 3.1094072156064563
    vertex 17.499999999999996 0.9625000000000012 2.917098902285045
  endloop
endfacet
facet normal 0.0 -0.3826834323650889 0.9238795325112872
  outer loop
    vertex 17.499999999999996 1.4267733381776484 3.1094072156064563
    vertex 19.999999999999996 0.9625000000000012 2.917098902285045
    vertex 19.999999999999996 1.4267733381776484 3.1094072156064563
  endloop
endfacet
facet normal 0.0 -0.6087614290087205 0.7933533402912353
  outer loop
    vertex 19.999999999999996 0.5638194462158964 2.611180553784104
    vertex 17.499999999999996 0.9625000000000012 2.917098902285045
    vertex 17.499999999999996 0.5638194462158964 2.611180553784104
  endloop
endfacet
facet normal 0.0 -0.6087614290087205 0.7933533402912353
  outer loop
    vertex 17.499999999999996 0.9625000000000012 2.917098902285045
    vertex 19.999999999999996 0.5638194462158964 2.611180553784104
    vertex 19.999999999999996 0.9625000000000012 2.917098902285045
  endloop
endfacet
facet normal 0.0 0.9914448613738105 -0.13052619222005196
  outer loop
    vertex 17.499999999999996 3.85 1.2499999999999996
    vertex 19.999999999999996 3.784407215606456 0.7517733381776469
    vertex 17.499999999999996 3.784407215606456 0.7517733381776469
  endloop
endfacet
facet normal 0.0 0.9914448613738105 -0.13052619222005196
  outer loop
    vertex 19.999999999999996 3.784407215606456 0.7517733381776469
    vertex 17.499999999999996 3.85 1.2499999999999996
    vertex 19.999999999999996 3.85 1.2499999999999996
  endloop
endfacet
facet normal 0.0 0.7933533402912339 -0.6087614290087223
  outer loop
    vertex 17.499999999999996 3.3714923932410934 -1.1015494072452724e-17
    vertex 19.999999999999996 3.286180553784104 -0.11118055378410427
    vertex 17.499999999999996 3.286180553784104 -0.11118055378410427
  endloop
endfacet
facet normal 0.0 0.7933533402912339 -0.6087614290087223
  outer loop
    vertex 19.999999999999996 3.286180553784104 -0.11118055378410427
    vertex 17.499999999999996 3.3714923932410934 -1.1015494072452724e-17
    vertex 19.999999999999996 3.3714923932410934 -1.1015494072452724e-17
  endloop
endfacet
facet normal 0.0 0.7933533402912354 0.6087614290087203
  outer loop
    vertex 17.499999999999996 3.286180553784105 2.611180553784103
    vertex 19.999999999999996 3.592098902285045 2.2124999999999995
    vertex 17.499999999999996 3.592098902285045 2.2124999999999995
  endloop
endfacet
facet normal 0.0 0.7933533402912354 0.6087614290087203
  outer loop
    vertex 19.999999999999996 3.592098902285045 2.2124999999999995
    vertex 17.499999999999996 3.286180553784105 2.611180553784103
    vertex 19.999999999999996 3.286180553784105 2.611180553784103
  endloop
endfacet
facet normal 0.0 0.3826834323650903 0.9238795325112866
  outer loop
    vertex 19.999999999999996 2.423226661822354 3.1094072156064563
    vertex 17.499999999999996 2.887500000000001 2.9170989022850438
    vertex 17.499999999999996 2.423226661822354 3.1094072156064563
  endloop
endfacet
facet normal 0.0 0.3826834323650903 0.9238795325112866
  outer loop
    vertex 17.499999999999996 2.887500000000001 2.9170989022850438
    vertex 19.999999999999996 2.423226661822354 3.1094072156064563
    vertex 19.999999999999996 2.887500000000001 2.9170989022850438
  endloop
endfacet
facet normal 0.0 0.13052619222005168 0.9914448613738104
  outer loop
    vertex 19.999999999999996 1.9250000000000003 3.175
    vertex 17.499999999999996 2.423226661822354 3.1094072156064563
    vertex 17.499999999999996 1.9250000000000003 3.175
  endloop
endfacet
facet normal 0.0 0.13052619222005168 0.9914448613738104
  outer loop
    vertex 17.499999999999996 2.423226661822354 3.1094072156064563
    vertex 19.999999999999996 1.9250000000000003 3.175
    vertex 19.999999999999996 2.423226661822354 3.1094072156064563
  endloop
endfacet
facet normal 0.0 -0.13052619222005146 0.9914448613738105
  outer loop
    vertex 19.999999999999996 1.4267733381776484 3.1094072156064563
    vertex 17.499999999999996 1.9250000000000003 3.175
    vertex 17.499999999999996 1.4267733381776484 3.1094072156064563
  endloop
endfacet
facet normal 0.0 -0.13052619222005146 0.9914448613738105
  outer loop
    vertex 17.499999999999996 1.9250000000000003 3.175
    vertex 19.999999999999996 1.4267733381776484 3.1094072156064563
    vertex 19.999999999999996 1.9250000000000003 3.175
  endloop
endfacet
facet normal 0.0 0.7933533402912348 -0.6087614290087211
  outer loop
    vertex 17.499999999999996 3.592098902285044 0.28749999999999915
    vertex 19.999999999999996 3.3714923932410934 -1.1015494072452724e-17
    vertex 17.499999999999996 3.3714923932410934 -1.1015494072452724e-17
  endloop
endfacet
facet normal 0.0 0.7933533402912348 -0.6087614290087211
  outer loop
    vertex 19.999999999999996 3.3714923932410934 -1.1015494072452724e-17
    vertex 17.499999999999996 3.592098902285044 0.28749999999999915
    vertex 19.999999999999996 3.592098902285044 0.28749999999999915
  endloop
endfacet
facet normal -0.0 -0.9914448613738105 -0.13052619222005135
  outer loop
    vertex 19.999999999999996 0.0 1.2499999999999998
    vertex 17.499999999999996 0.06559278439354341 0.7517733381776475
    vertex 19.999999999999996 0.06559278439354341 0.7517733381776475
  endloop
endfacet
facet normal -0.0 -0.9914448613738105 -0.13052619222005135
  outer loop
    vertex 17.499999999999996 0.06559278439354341 0.7517733381776475
    vertex 19.999999999999996 0.0 1.2499999999999998
    vertex 17.499999999999996 0.0 1.2499999999999998
  endloop
endfacet
facet normal 0.0 -0.9238795325112863 0.3826834323650908
  outer loop
    vertex 19.999999999999996 0.25790109771495623 2.212500000000001
    vertex 17.499999999999996 0.06559278439354377 1.7482266618223539
    vertex 19.999999999999996 0.06559278439354377 1.7482266618223539
  endloop
endfacet
facet normal 0.0 -0.9238795325112863 0.3826834323650908
  outer loop
    vertex 17.499999999999996 0.06559278439354377 1.7482266618223539
    vertex 19.999999999999996 0.25790109771495623 2.212500000000001
    vertex 17.499999999999996 0.25790109771495623 2.212500000000001
  endloop
endfacet
facet normal 0.0 -0.7933533402912349 0.6087614290087212
  outer loop
    vertex 19.999999999999996 0.5638194462158964 2.611180553784104
    vertex 17.499999999999996 0.25790109771495623 2.212500000000001
    vertex 19.999999999999996 0.25790109771495623 2.212500000000001
  endloop
endfacet
facet normal 0.0 -0.7933533402912349 0.6087614290087212
  outer loop
    vertex 17.499999999999996 0.25790109771495623 2.212500000000001
    vertex 19.999999999999996 0.5638194462158964 2.611180553784104
    vertex 17.499999999999996 0.5638194462158964 2.611180553784104
  endloop
endfacet
facet normal 0.0 -0.9914448613738104 0.1305261922200516
  outer loop
    vertex 19.999999999999996 0.06559278439354377 1.7482266618223539
    vertex 17.499999999999996 0.0 1.2499999999999998
    vertex 19.999999999999996 0.0 1.2499999999999998
  endloop
endfacet
facet normal 0.0 -0.9914448613738104 0.1305261922200516
  outer loop
    vertex 17.499999999999996 0.0 1.2499999999999998
    vertex 19.999999999999996 0.06559278439354377 1.7482266618223539
    vertex 17.499999999999996 0.06559278439354377 1.7482266618223539
  endloop
endfacet
facet normal 0.0 -0.7933533402912355 -0.6087614290087202
  outer loop
    vertex 19.999999999999996 0.2579010977149555 0.2875
    vertex 17.499999999999996 0.47850760675890636 -2.203098814490545e-17
    vertex 19.999999999999996 0.47850760675890636 -2.203098814490545e-17
  endloop
endfacet
facet normal 0.0 -0.7933533402912355 -0.6087614290087202
  outer loop
    vertex 17.499999999999996 0.47850760675890636 -2.203098814490545e-17
    vertex 19.999999999999996 0.2579010977149555 0.2875
    vertex 17.499999999999996 0.2579010977149555 0.2875
  endloop
endfacet
facet normal -0.0 -0.9238795325112867 -0.38268343236508995
  outer loop
    vertex 19.999999999999996 0.06559278439354341 0.7517733381776475
    vertex 17.499999999999996 0.2579010977149555 0.2875
    vertex 19.999999999999996 0.2579010977149555 0.2875
  endloop
endfacet
facet normal -0.0 -0.9238795325112867 -0.38268343236508995
  outer loop
    vertex 17.499999999999996 0.2579010977149555 0.2875
    vertex 19.999999999999996 0.06559278439354341 0.7517733381776475
    vertex 17.499999999999996 0.06559278439354341 0.7517733381776475
  endloop
endfacet
facet normal -0.0 -0.13052619222005193 -0.9914448613738104
  outer loop
    vertex 19.999999999999996 1.925 -0.6750000000000002
    vertex 17.499999999999996 1.426773338177647 -0.6094072156064564
    vertex 17.499999999999996 1.925 -0.6750000000000002
  endloop
endfacet
facet normal -0.0 -0.13052619222005193 -0.9914448613738104
  outer loop
    vertex 17.499999999999996 1.426773338177647 -0.6094072156064564
    vertex 19.999999999999996 1.925 -0.6750000000000002
    vertex 19.999999999999996 1.426773338177647 -0.6094072156064564
  endloop
endfacet
facet normal 0.0 0.13052619222005138 -0.9914448613738105
  outer loop
    vertex 19.999999999999996 2.423226661822352 -0.6094072156064567
    vertex 17.499999999999996 1.925 -0.6750000000000002
    vertex 17.499999999999996 2.423226661822352 -0.6094072156064567
  endloop
endfacet
facet normal 0.0 0.13052619222005138 -0.9914448613738105
  outer loop
    vertex 17.499999999999996 1.925 -0.6750000000000002
    vertex 19.999999999999996 2.423226661822352 -0.6094072156064567
    vertex 19.999999999999996 1.925 -0.6750000000000002
  endloop
endfacet
facet normal 0.0 0.6087614290087207 -0.793353340291235
  outer loop
    vertex 19.999999999999996 3.286180553784104 -0.11118055378410427
    vertex 17.499999999999996 2.8874999999999997 -0.41709890228504465
    vertex 17.499999999999996 3.286180553784104 -0.11118055378410427
  endloop
endfacet
facet normal 0.0 0.6087614290087207 -0.793353340291235
  outer loop
    vertex 17.499999999999996 2.8874999999999997 -0.41709890228504465
    vertex 19.999999999999996 3.286180553784104 -0.11118055378410427
    vertex 19.999999999999996 2.8874999999999997 -0.41709890228504465
  endloop
endfacet
facet normal 0.0 0.38268343236509 -0.9238795325112867
  outer loop
    vertex 19.999999999999996 2.8874999999999997 -0.41709890228504465
    vertex 17.499999999999996 2.423226661822352 -0.6094072156064567
    vertex 17.499999999999996 2.8874999999999997 -0.41709890228504465
  endloop
endfacet
facet normal 0.0 0.38268343236509 -0.9238795325112867
  outer loop
    vertex 17.499999999999996 2.423226661822352 -0.6094072156064567
    vertex 19.999999999999996 2.8874999999999997 -0.41709890228504465
    vertex 19.999999999999996 2.423226661822352 -0.6094072156064567
  endloop
endfacet
facet normal -0.0 -0.6087614290087202 -0.7933533402912355
  outer loop
    vertex 19.999999999999996 0.9624999999999998 -0.4170989022850443
    vertex 17.499999999999996 0.5638194462158959 -0.11118055378410427
    vertex 17.499999999999996 0.9624999999999998 -0.4170989022850443
  endloop
endfacet
facet normal -0.0 -0.6087614290087202 -0.7933533402912355
  outer loop
    vertex 17.499999999999996 0.5638194462158959 -0.11118055378410427
    vertex 19.999999999999996 0.9624999999999998 -0.4170989022850443
    vertex 19.999999999999996 0.5638194462158959 -0.11118055378410427
  endloop
endfacet
facet normal 0.0 -0.7933533402912352 -0.6087614290087208
  outer loop
    vertex 19.999999999999996 0.47850760675890636 -2.203098814490545e-17
    vertex 17.499999999999996 0.5638194462158959 -0.11118055378410427
    vertex 19.999999999999996 0.5638194462158959 -0.11118055378410427
  endloop
endfacet
facet normal 0.0 -0.7933533402912352 -0.6087614290087208
  outer loop
    vertex 17.499999999999996 0.5638194462158959 -0.11118055378410427
    vertex 19.999999999999996 0.47850760675890636 -2.203098814490545e-17
    vertex 17.499999999999996 0.47850760675890636 -2.203098814490545e-17
  endloop
endfacet
facet normal -0.0 -0.38268343236509 -0.9238795325112867
  outer loop
    vertex 19.999999999999996 1.426773338177647 -0.6094072156064564
    vertex 17.499999999999996 0.9624999999999998 -0.4170989022850443
    vertex 17.499999999999996 1.426773338177647 -0.6094072156064564
  endloop
endfacet
facet normal -0.0 -0.38268343236509 -0.9238795325112867
  outer loop
    vertex 17.499999999999996 0.9624999999999998 -0.4170989022850443
    vertex 19.999999999999996 1.426773338177647 -0.6094072156064564
    vertex 19.999999999999996 0.9624999999999998 -0.4170989022850443
  endloop
endfacet
facet normal -1.0 0.0 0.0
  outer loop
    vertex 17.499999999999996 0.5638194462158964 2.611180553784104
    vertex 17.5 0.7175927171386649 1.5735238063781518
    vertex 17.5 0.675 1.2499999999999998
  endloop
endfacet
facet normal -1.0 0.0 0.0
  outer loop
    vertex 17.5 0.7175927171386649 1.5735238063781518
    vertex 17.499999999999996 0.5638194462158964 2.611180553784104
    vertex 17.499999999999996 0.9625000000000012 2.917098902285045
  endloop
endfacet
facet normal -1.0 0.0 0.0
  outer loop
    vertex 17.5 0.7175927171386649 1.5735238063781518
    vertex 17.499999999999996 0.9625000000000012 2.917098902285045
    vertex 17.5 0.8424682452694521 1.8750000000000004
  endloop
endfacet
facet normal -1.0 0.0 0.0
  outer loop
    vertex 17.5 0.8424682452694521 1.8750000000000004
    vertex 17.499999999999996 0.9625000000000012 2.917098902285045
    vertex 17.5 1.0411165235168158 2.1338834764831844
  endloop
endfacet
facet normal -1.0 0.0 0.0
  outer loop
    vertex 17.5 1.0411165235168158 2.1338834764831844
    vertex 17.499999999999996 0.9625000000000012 2.917098902285045
    vertex 17.499999999999996 1.4267733381776484 3.1094072156064563
  endloop
endfacet
facet normal -1.0 0.0 0.0
  outer loop
    vertex 17.5 1.0411165235168158 2.1338834764831844
    vertex 17.499999999999996 1.4267733381776484 3.1094072156064563
    vertex 17.5 1.3000000000000007 2.3325317547305486
  endloop
endfacet
facet normal -1.0 0.0 0.0
  outer loop
    vertex 17.5 1.3000000000000007 2.3325317547305486
    vertex 17.499999999999996 1.4267733381776484 3.1094072156064563
    vertex 17.5 1.6014761936218498 2.457407282861335
  endloop
endfacet
facet normal -1.0 0.0 0.0
  outer loop
    vertex 17.5 1.6014761936218498 2.457407282861335
    vertex 17.499999999999996 1.4267733381776484 3.1094072156064563
    vertex 17.499999999999996 1.9250000000000003 3.175
  endloop
endfacet
facet normal -1.0 0.0 0.0
  outer loop
    vertex 17.5 1.6014761936218498 2.457407282861335
    vertex 17.499999999999996 1.9250000000000003 3.175
    vertex 17.5 1.9250000000000003 2.4999999999999996
  endloop
endfacet
facet normal -1.0 0.0 0.0
  outer loop
    vertex 17.5 1.9250000000000003 2.4999999999999996
    vertex 17.499999999999996 1.9250000000000003 3.175
    vertex 17.499999999999996 2.423226661822354 3.1094072156064563
  endloop
endfacet
facet normal -1.0 0.0 0.0
  outer loop
    vertex 17.5 1.9250000000000003 2.4999999999999996
    vertex 17.499999999999996 2.423226661822354 3.1094072156064563
    vertex 17.5 2.248523806378152 2.457407282861335
  endloop
endfacet
facet normal -1.0 0.0 0.0
  outer loop
    vertex 17.5 2.248523806378152 2.457407282861335
    vertex 17.499999999999996 2.423226661822354 3.1094072156064563
    vertex 17.5 2.5500000000000007 2.332531754730548
  endloop
endfacet
facet normal -1.0 0.0 0.0
  outer loop
    vertex 17.5 2.5500000000000007 2.332531754730548
    vertex 17.499999999999996 2.423226661822354 3.1094072156064563
    vertex 17.499999999999996 2.887500000000001 2.9170989022850438
  endloop
endfacet
facet normal -1.0 0.0 0.0
  outer loop
    vertex 17.5 2.5500000000000007 2.332531754730548
    vertex 17.499999999999996 2.887500000000001 2.9170989022850438
    vertex 17.5 2.8088834764831847 2.1338834764831835
  endloop
endfacet
facet normal -1.0 0.0 0.0
  outer loop
    vertex 17.5 2.8088834764831847 2.1338834764831835
    vertex 17.499999999999996 2.887500000000001 2.9170989022850438
    vertex 17.5 3.0075317547305485 1.8749999999999993
  endloop
endfacet
facet normal -1.0 0.0 0.0
  outer loop
    vertex 17.5 3.0075317547305485 1.8749999999999993
    vertex 17.499999999999996 2.887500000000001 2.9170989022850438
    vertex 17.499999999999996 3.286180553784105 2.611180553784103
  endloop
endfacet
facet normal -1.0 0.0 0.0
  outer loop
    vertex 17.5 3.0075317547305485 1.8749999999999993
    vertex 17.499999999999996 3.286180553784105 2.611180553784103
    vertex 17.5 3.1324072828613354 1.5735238063781503
  endloop
endfacet
facet normal -1.0 0.0 0.0
  outer loop
    vertex 17.5 3.1324072828613354 1.5735238063781503
    vertex 17.499999999999996 3.286180553784105 2.611180553784103
    vertex 17.5 3.175 1.2499999999999996
  endloop
endfacet
facet normal -1.0 0.0 0.0
  outer loop
    vertex 17.5 3.175 1.2499999999999996
    vertex 17.499999999999996 3.286180553784105 2.611180553784103
    vertex 17.499999999999996 3.286180553784104 -0.11118055378410427
  endloop
endfacet
facet normal -1.0 0.0 0.0
  outer loop
    vertex 17.499999999999996 3.286180553784104 -0.11118055378410427
    vertex 17.499999999999996 3.286180553784105 2.611180553784103
    vertex 17.499999999999996 3.3714923932410934 -1.1015494072452724e-17
  endloop
endfacet
facet normal -1.0 0.0 0.0
  outer loop
    vertex 17.499999999999996 3.3714923932410934 -1.1015494072452724e-17
    vertex 17.499999999999996 3.286180553784105 2.611180553784103
    vertex 17.499999999999996 3.592098902285045 2.2124999999999995
  endloop
endfacet
facet normal -1.0 0.0 0.0
  outer loop
    vertex 17.499999999999996 3.3714923932410934 -1.1015494072452724e-17
    vertex 17.499999999999996 3.592098902285045 2.2124999999999995
    vertex 17.499999999999996 3.592098902285044 0.28749999999999915
  endloop
endfacet
facet normal -1.0 0.0 0.0
  outer loop
    vertex 17.499999999999996 3.592098902285044 0.28749999999999915
    vertex 17.499999999999996 3.592098902285045 2.2124999999999995
    vertex 17.499999999999996 3.784407215606456 0.7517733381776469
  endloop
endfacet
facet normal -1.0 0.0 0.0
  outer loop
    vertex 17.499999999999996 3.784407215606456 0.7517733381776469
    vertex 17.499999999999996 3.592098902285045 2.2124999999999995
    vertex 17.499999999999996 3.784407215606456 1.7482266618223514
  endloop
endfacet
facet normal -1.0 0.0 0.0
  outer loop
    vertex 17.499999999999996 3.784407215606456 0.7517733381776469
    vertex 17.499999999999996 3.784407215606456 1.7482266618223514
    vertex 17.499999999999996 3.85 1.2499999999999996
  endloop
endfacet
facet normal -1.0 0.0 0.0
  outer loop
    vertex 17.499999999999996 0.06559278439354377 1.7482266618223539
    vertex 17.499999999999996 0.06559278439354341 0.7517733381776475
    vertex 17.499999999999996 0.0 1.2499999999999998
  endloop
endfacet
facet normal -1.0 0.0 0.0
  outer loop
    vertex 17.499999999999996 0.06559278439354341 0.7517733381776475
    vertex 17.499999999999996 0.06559278439354377 1.7482266618223539
    vertex 17.499999999999996 0.2579010977149555 0.2875
  endloop
endfacet
facet normal -1.0 0.0 0.0
  outer loop
    vertex 17.499999999999996 0.2579010977149555 0.2875
    vertex 17.499999999999996 0.06559278439354377 1.7482266618223539
    vertex 17.499999999999996 0.25790109771495623 2.212500000000001
  endloop
endfacet
facet normal -1.0 0.0 0.0
  outer loop
    vertex 17.499999999999996 0.2579010977149555 0.2875
    vertex 17.499999999999996 0.25790109771495623 2.212500000000001
    vertex 17.499999999999996 0.47850760675890636 -2.203098814490545e-17
  endloop
endfacet
facet normal -1.0 0.0 0.0
  outer loop
    vertex 17.499999999999996 0.47850760675890636 -2.203098814490545e-17
    vertex 17.499999999999996 0.25790109771495623 2.212500000000001
    vertex 17.499999999999996 0.5638194462158964 2.611180553784104
  endloop
endfacet
facet normal -1.0 0.0 0.0
  outer loop
    vertex 17.499999999999996 0.47850760675890636 -2.203098814490545e-17
    vertex 17.499999999999996 0.5638194462158964 2.611180553784104
    vertex 17.499999999999996 0.5638194462158959 -0.11118055378410427
  endloop
endfacet
facet normal -1.0 0.0 0.0
  outer loop
    vertex 17.499999999999996 0.5638194462158959 -0.11118055378410427
    vertex 17.499999999999996 0.5638194462158964 2.611180553784104
    vertex 17.5 0.675 1.2499999999999998
  endloop
endfacet
facet normal -1.0 0.0 0.0
  outer loop
    vertex 17.499999999999996 0.5638194462158959 -0.11118055378410427
    vertex 17.5 0.675 1.2499999999999998
    vertex 17.5 0.7175927171386647 0.9264761936218489
  endloop
endfacet
facet normal -1.0 0.0 0.0
  outer loop
    vertex 17.499999999999996 0.5638194462158959 -0.11118055378410427
    vertex 17.5 0.7175927171386647 0.9264761936218489
    vertex 17.499999999999996 0.9624999999999998 -0.4170989022850443
  endloop
endfacet
facet normal -1.0 0.0 0.0
  outer loop
    vertex 17.499999999999996 0.9624999999999998 -0.4170989022850443
    vertex 17.5 0.7175927171386647 0.9264761936218489
    vertex 17.5 0.8424682452694515 0.6249999999999999
  endloop
endfacet
facet normal -1.0 0.0 0.0
  outer loop
    vertex 17.499999999999996 0.9624999999999998 -0.4170989022850443
    vertex 17.5 0.8424682452694515 0.6249999999999999
    vertex 17.5 1.0411165235168156 0.36611652351681534
  endloop
endfacet
facet normal -1.0 0.0 0.0
  outer loop
    vertex 17.499999999999996 0.9624999999999998 -0.4170989022850443
    vertex 17.5 1.0411165235168156 0.36611652351681534
    vertex 17.499999999999996 1.426773338177647 -0.6094072156064564
  endloop
endfacet
facet normal -1.0 0.0 0.0
  outer loop
    vertex 17.499999999999996 1.426773338177647 -0.6094072156064564
    vertex 17.5 1.0411165235168156 0.36611652351681534
    vertex 17.5 1.2999999999999998 0.16746824526945156
  endloop
endfacet
facet normal -1.0 0.0 0.0
  outer loop
    vertex 17.499999999999996 1.426773338177647 -0.6094072156064564
    vertex 17.5 1.2999999999999998 0.16746824526945156
    vertex 17.5 1.6014761936218487 0.04259271713866451
  endloop
endfacet
facet normal -1.0 0.0 0.0
  outer loop
    vertex 17.499999999999996 1.426773338177647 -0.6094072156064564
    vertex 17.5 1.6014761936218487 0.04259271713866451
    vertex 17.499999999999996 1.925 -0.6750000000000002
  endloop
endfacet
facet normal -1.0 0.0 0.0
  outer loop
    vertex 17.499999999999996 1.925 -0.6750000000000002
    vertex 17.5 1.6014761936218487 0.04259271713866451
    vertex 17.5 1.925 0.0
  endloop
endfacet
facet normal -1.0 0.0 0.0
  outer loop
    vertex 17.499999999999996 1.925 -0.6750000000000002
    vertex 17.5 1.925 0.0
    vertex 17.5 2.2485238063781505 0.04259271713866451
  endloop
endfacet
facet normal -1.0 0.0 0.0
  outer loop
    vertex 17.499999999999996 1.925 -0.6750000000000002
    vertex 17.5 2.2485238063781505 0.04259271713866451
    vertex 17.499999999999996 2.423226661822352 -0.6094072156064567
  endloop
endfacet
facet normal -1.0 0.0 0.0
  outer loop
    vertex 17.499999999999996 2.423226661822352 -0.6094072156064567
    vertex 17.5 2.2485238063781505 0.04259271713866451
    vertex 17.5 2.5499999999999994 0.1674682452694514
  endloop
endfacet
facet normal -1.0 0.0 0.0
  outer loop
    vertex 17.499999999999996 2.423226661822352 -0.6094072156064567
    vertex 17.5 2.5499999999999994 0.1674682452694514
    vertex 17.499999999999996 2.8874999999999997 -0.41709890228504465
  endloop
endfacet
facet normal -1.0 0.0 0.0
  outer loop
    vertex 17.499999999999996 2.8874999999999997 -0.41709890228504465
    vertex 17.5 2.5499999999999994 0.1674682452694514
    vertex 17.5 2.8088834764831847 0.36611652351681534
  endloop
endfacet
facet normal -1.0 0.0 0.0
  outer loop
    vertex 17.499999999999996 2.8874999999999997 -0.41709890228504465
    vertex 17.5 2.8088834764831847 0.36611652351681534
    vertex 17.5 3.0075317547305485 0.6249999999999993
  endloop
endfacet
facet normal -1.0 0.0 0.0
  outer loop
    vertex 17.499999999999996 2.8874999999999997 -0.41709890228504465
    vertex 17.5 3.0075317547305485 0.6249999999999993
    vertex 17.499999999999996 3.286180553784104 -0.11118055378410427
  endloop
endfacet
facet normal -1.0 0.0 0.0
  outer loop
    vertex 17.499999999999996 3.286180553784104 -0.11118055378410427
    vertex 17.5 3.0075317547305485 0.6249999999999993
    vertex 17.5 3.132407282861335 0.9264761936218485
  endloop
endfacet
facet normal -1.0 0.0 0.0
  outer loop
    vertex 17.499999999999996 3.286180553784104 -0.11118055378410427
    vertex 17.5 3.132407282861335 0.9264761936218485
    vertex 17.5 3.175 1.2499999999999996
  endloop
endfacet
facet normal -1.0 0.0 0.0
  outer loop
    vertex -4.229949723821846e-15 0.7175927171386649 1.5735238063781518
    vertex -4.229949723821846e-15 0.7175927171386647 0.9264761936218489
    vertex -4.229949723821846e-15 0.675 1.2499999999999998
  endloop
endfacet
facet normal -1.0 0.0 0.0
  outer loop
    vertex -4.229949723821846e-15 0.7175927171386647 0.9264761936218489
    vertex -4.229949723821846e-15 0.7175927171386649 1.5735238063781518
    vertex -4.229949723821846e-15 0.8424682452694515 0.6249999999999999
  endloop
endfacet
facet normal -1.0 0.0 0.0
  outer loop
    vertex -4.229949723821846e-15 0.8424682452694515 0.6249999999999999
    vertex -4.229949723821846e-15 0.7175927171386649 1.5735238063781518
    vertex -4.229949723821846e-15 0.8424682452694521 1.8750000000000004
  endloop
endfacet
facet normal -1.0 0.0 0.0
  outer loop
    vertex -4.229949723821846e-15 0.8424682452694515 0.6249999999999999
    vertex -4.229949723821846e-15 0.8424682452694521 1.8750000000000004
    vertex -4.229949723821846e-15 1.0411165235168156 0.36611652351681534
  endloop
endfacet
facet normal -1.0 0.0 0.0
  outer loop
    vertex -4.229949723821846e-15 1.0411165235168156 0.36611652351681534
    vertex -4.229949723821846e-15 0.8424682452694521 1.8750000000000004
    vertex -4.229949723821846e-15 1.0411165235168158 2.1338834764831844
  endloop
endfacet
facet normal -1.0 0.0 0.0
  outer loop
    vertex -4.229949723821846e-15 1.0411165235168156 0.36611652351681534
    vertex -4.229949723821846e-15 1.0411165235168158 2.1338834764831844
    vertex -4.229949723821846e-15 1.2999999999999998 0.16746824526945156
  endloop
endfacet
facet normal -1.0 0.0 0.0
  outer loop
    vertex -4.229949723821846e-15 1.2999999999999998 0.16746824526945156
    vertex -4.229949723821846e-15 1.0411165235168158 2.1338834764831844
    vertex -4.229949723821846e-15 1.3000000000000007 2.3325317547305486
  endloop
endfacet
facet normal -1.0 0.0 0.0
  outer loop
    vertex -4.229949723821846e-15 1.2999999999999998 0.16746824526945156
    vertex -4.229949723821846e-15 1.3000000000000007 2.3325317547305486
    vertex -4.229949723821846e-15 1.6014761936218487 0.04259271713866451
  endloop
endfacet
facet normal -1.0 0.0 0.0
  outer loop
    vertex -4.229949723821846e-15 1.6014761936218487 0.04259271713866451
    vertex -4.229949723821846e-15 1.3000000000000007 2.3325317547305486
    vertex -4.229949723821846e-15 1.6014761936218498 2.457407282861335
  endloop
endfacet
facet normal -1.0 0.0 0.0
  outer loop
    vertex -4.229949723821846e-15 1.6014761936218487 0.04259271713866451
    vertex -4.229949723821846e-15 1.6014761936218498 2.457407282861335
    vertex -4.229949723821846e-15 1.925 0.0
  endloop
endfacet
facet normal -1.0 0.0 0.0
  outer loop
    vertex -4.229949723821846e-15 1.925 0.0
    vertex -4.229949723821846e-15 1.6014761936218498 2.457407282861335
    vertex -4.229949723821846e-15 1.9250000000000003 2.4999999999999996
  endloop
endfacet
facet normal -1.0 0.0 0.0
  outer loop
    vertex -4.229949723821846e-15 1.925 0.0
    vertex -4.229949723821846e-15 1.9250000000000003 2.4999999999999996
    vertex -4.229949723821846e-15 2.2485238063781505 0.04259271713866451
  endloop
endfacet
facet normal -1.0 0.0 0.0
  outer loop
    vertex -4.229949723821846e-15 2.2485238063781505 0.04259271713866451
    vertex -4.229949723821846e-15 1.9250000000000003 2.4999999999999996
    vertex -4.229949723821846e-15 2.248523806378152 2.457407282861335
  endloop
endfacet
facet normal -1.0 0.0 0.0
  outer loop
    vertex -4.229949723821846e-15 2.2485238063781505 0.04259271713866451
    vertex -4.229949723821846e-15 2.248523806378152 2.457407282861335
    vertex -4.229949723821846e-15 2.5499999999999994 0.1674682452694514
  endloop
endfacet
facet normal -1.0 0.0 0.0
  outer loop
    vertex -4.229949723821846e-15 2.5499999999999994 0.1674682452694514
    vertex -4.229949723821846e-15 2.248523806378152 2.457407282861335
    vertex -4.229949723821846e-15 2.5500000000000007 2.332531754730548
  endloop
endfacet
facet normal -1.0 0.0 0.0
  outer loop
    vertex -4.229949723821846e-15 2.5499999999999994 0.1674682452694514
    vertex -4.229949723821846e-15 2.5500000000000007 2.332531754730548
    vertex -4.229949723821846e-15 2.8088834764831847 0.36611652351681534
  endloop
endfacet
facet normal -1.0 0.0 0.0
  outer loop
    vertex -4.229949723821846e-15 2.8088834764831847 0.36611652351681534
    vertex -4.229949723821846e-15 2.5500000000000007 2.332531754730548
    vertex -4.229949723821846e-15 2.8088834764831847 2.1338834764831835
  endloop
endfacet
facet normal -1.0 0.0 0.0
  outer loop
    vertex -4.229949723821846e-15 2.8088834764831847 0.36611652351681534
    vertex -4.229949723821846e-15 2.8088834764831847 2.1338834764831835
    vertex -4.229949723821846e-15 3.0075317547305485 0.6249999999999993
  endloop
endfacet
facet normal -1.0 0.0 0.0
  outer loop
    vertex -4.229949723821846e-15 3.0075317547305485 0.6249999999999993
    vertex -4.229949723821846e-15 2.8088834764831847 2.1338834764831835
    vertex -4.229949723821846e-15 3.0075317547305485 1.8749999999999993
  endloop
endfacet
facet normal -1.0 0.0 0.0
  outer loop
    vertex -4.229949723821846e-15 3.0075317547305485 0.6249999999999993
    vertex -4.229949723821846e-15 3.0075317547305485 1.8749999999999993
    vertex -4.229949723821846e-15 3.132407282861335 0.9264761936218485
  endloop
endfacet
facet normal -1.0 0.0 0.0
  outer loop
    vertex -4.229949723821846e-15 3.132407282861335 0.9264761936218485
    vertex -4.229949723821846e-15 3.0075317547305485 1.8749999999999993
    vertex -4.229949723821846e-15 3.1324072828613354 1.5735238063781503
  endloop
endfacet
facet normal -1.0 0.0 0.0
  outer loop
    vertex -4.229949723821846e-15 3.132407282861335 0.9264761936218485
    vertex -4.229949723821846e-15 3.1324072828613354 1.5735238063781503
    vertex -4.229949723821846e-15 3.175 1.2499999999999996
  endloop
endfacet
endsolid Untitled-64172931
