  0
SECTION
  2
HEADER
  9
$ACADVER
  1
AC1024
  9
$ACADMAINTVER
 70
     6
  9
$DWGCODEPAGE
  3
ANSI_1252
  9
$INSBASE
 10
0.0
 20
0.0
 30
0.0
  9
$EXTMIN
 10
1.000000000000000E+20
 20
1.000000000000000E+20
 30
1.000000000000000E+20
  9
$EXTMAX
 10
-1.000000000000000E+20
 20
-1.000000000000000E+20
 30
-1.000000000000000E+20
  9
$LIMMIN
 10
0.0
 20
0.0
  9
$LIMMAX
 10
12.0
 20
9.0
  9
$ORTHOMODE
 70
     0
  9
$REGENMODE
 70
     1
  9
$FILLMODE
 70
     1
  9
$QTEXTMODE
 70
     0
  9
$MIRRTEXT
 70
     1
  9
$LTSCALE
 40
1.0
  9
$ATTMODE
 70
     1
  9
$TEXTSIZE
 40
0.2
  9
$TRACEWID
 40
0.05
  9
$TEXTSTYLE
  7
Standard
  9
$CLAYER
  8
0
  9
$CELTYPE
  6
ByLayer
  9
$CECOLOR
 62
   256
  9
$CELTSCALE
 40
1.0
  9
$DISPSILH
 70
     0
  9
$DIMSCALE
 40
1.0
  9
$DIMASZ
 40
0.18
  9
$DIMEXO
 40
0.0625
  9
$DIMDLI
 40
0.38
  9
$DIMRND
 40
0.0
  9
$DIMDLE
 40
0.0
  9
$DIMEXE
 40
0.18
  9
$DIMTP
 40
0.0
  9
$DIMTM
 40
0.0
  9
$DIMTXT
 40
0.18
  9
$DIMCEN
 40
0.09
  9
$DIMTSZ
 40
0.0
  9
$DIMTOL
 70
     0
  9
$DIMLIM
 70
     0
  9
$DIMTIH
 70
     1
  9
$DIMTOH
 70
     1
  9
$DIMSE1
 70
     0
  9
$DIMSE2
 70
     0
  9
$DIMTAD
 70
     0
  9
$DIMZIN
 70
     0
  9
$DIMBLK
  1

  9
$DIMASO
 70
     1
  9
$DIMSHO
 70
     1
  9
$DIMPOST
  1

  9
$DIMAPOST
  1

  9
$DIMALT
 70
     0
  9
$DIMALTD
 70
     2
  9
$DIMALTF
 40
25.4
  9
$DIMLFAC
 40
1.0
  9
$DIMTOFL
 70
     0
  9
$DIMTVP
 40
0.0
  9
$DIMTIX
 70
     0
  9
$DIMSOXD
 70
     0
  9
$DIMSAH
 70
     0
  9
$DIMBLK1
  1

  9
$DIMBLK2
  1

  9
$DIMSTYLE
  2
Standard
  9
$DIMCLRD
 70
     0
  9
$DIMCLRE
 70
     0
  9
$DIMCLRT
 70
     0
  9
$DIMTFAC
 40
1.0
  9
$DIMGAP
 40
0.09
  9
$DIMJUST
 70
     0
  9
$DIMSD1
 70
     0
  9
$DIMSD2
 70
     0
  9
$DIMTOLJ
 70
     1
  9
$DIMTZIN
 70
     0
  9
$DIMALTZ
 70
     0
  9
$DIMALTTZ
 70
     0
  9
$DIMUPT
 70
     0
  9
$DIMDEC
 70
     4
  9
$DIMTDEC
 70
     4
  9
$DIMALTU
 70
     2
  9
$DIMALTTD
 70
     2
  9
$DIMTXSTY
  7
Standard
  9
$DIMAUNIT
 70
     0
  9
$DIMADEC
 70
     0
  9
$DIMALTRND
 40
0.0
  9
$DIMAZIN
 70
     0
  9
$DIMDSEP
 70
    46
  9
$DIMATFIT
 70
     3
  9
$DIMFRAC
 70
     0
  9
$DIMLDRBLK
  1

  9
$DIMLUNIT
 70
     2
  9
$DIMLWD
 70
    -2
  9
$DIMLWE
 70
    -2
  9
$DIMTMOVE
 70
     0
  9
$DIMFXL
 40
1.0
  9
$DIMFXLON
 70
     0
  9
$DIMJOGANG
 40
0.7853981633974483
  9
$DIMTFILL
 70
     0
  9
$DIMTFILLCLR
 70
     0
  9
$DIMARCSYM
 70
     0
  9
$DIMLTYPE
  6

  9
$DIMLTEX1
  6

  9
$DIMLTEX2
  6

  9
$DIMTXTDIRECTION
 70
     0
  9
$LUNITS
 70
     2
  9
$LUPREC
 70
     4
  9
$SKETCHINC
 40
0.1
  9
$FILLETRAD
 40
0.5
  9
$AUNITS
 70
     0
  9
$AUPREC
 70
     0
  9
$MENU
  1
.
  9
$ELEVATION
 40
0.0
  9
$PELEVATION
 40
0.0
  9
$THICKNESS
 40
0.0
  9
$LIMCHECK
 70
     0
  9
$CHAMFERA
 40
0.5
  9
$CHAMFERB
 40
0.5
  9
$CHAMFERC
 40
1.0
  9
$CHAMFERD
 40
0.0
  9
$SKPOLY
 70
     0
  9
$TDCREATE
 40
2460408.843849768
  9
$TDUCREATE
 40
2460408.802183102
  9
$TDUPDATE
 40
2460408.843849803
  9
$TDUUPDATE
 40
2460408.802183136
  9
$TDINDWG
 40
0.0000000116
  9
$TDUSRTIMER
 40
0.0000000116
  9
$USRTIMER
 70
     1
  9
$ANGBASE
 50
0.0
  9
$ANGDIR
 70
     0
  9
$PDMODE
 70
     0
  9
$PDSIZE
 40
0.0
  9
$PLINEWID
 40
0.0
  9
$SPLFRAME
 70
     0
  9
$SPLINETYPE
 70
     6
  9
$SPLINESEGS
 70
     8
  9
$HANDSEED
  5
1AD
  9
$SURFTAB1
 70
     6
  9
$SURFTAB2
 70
     6
  9
$SURFTYPE
 70
     6
  9
$SURFU
 70
     6
  9
$SURFV
 70
     6
  9
$UCSBASE
  2

  9
$UCSNAME
  2

  9
$UCSORG
 10
0.0
 20
0.0
 30
0.0
  9
$UCSXDIR
 10
1.0
 20
0.0
 30
0.0
  9
$UCSYDIR
 10
0.0
 20
1.0
 30
0.0
  9
$UCSORTHOREF
  2

  9
$UCSORTHOVIEW
 70
     0
  9
$UCSORGTOP
 10
0.0
 20
0.0
 30
0.0
  9
$UCSORGBOTTOM
 10
0.0
 20
0.0
 30
0.0
  9
$UCSORGLEFT
 10
0.0
 20
0.0
 30
0.0
  9
$UCSORGRIGHT
 10
0.0
 20
0.0
 30
0.0
  9
$UCSORGFRONT
 10
0.0
 20
0.0
 30
0.0
  9
$UCSORGBACK
 10
0.0
 20
0.0
 30
0.0
  9
$PUCSBASE
  2

  9
$PUCSNAME
  2

  9
$PUCSORG
 10
0.0
 20
0.0
 30
0.0
  9
$PUCSXDIR
 10
1.0
 20
0.0
 30
0.0
  9
$PUCSYDIR
 10
0.0
 20
1.0
 30
0.0
  9
$PUCSORTHOREF
  2

  9
$PUCSORTHOVIEW
 70
     0
  9
$PUCSORGTOP
 10
0.0
 20
0.0
 30
0.0
  9
$PUCSORGBOTTOM
 10
0.0
 20
0.0
 30
0.0
  9
$PUCSORGLEFT
 10
0.0
 20
0.0
 30
0.0
  9
$PUCSORGRIGHT
 10
0.0
 20
0.0
 30
0.0
  9
$PUCSORGFRONT
 10
0.0
 20
0.0
 30
0.0
  9
$PUCSORGBACK
 10
0.0
 20
0.0
 30
0.0
  9
$USERI1
 70
     0
  9
$USERI2
 70
     0
  9
$USERI3
 70
     0
  9
$USERI4
 70
     0
  9
$USERI5
 70
     0
  9
$USERR1
 40
0.0
  9
$USERR2
 40
0.0
  9
$USERR3
 40
0.0
  9
$USERR4
 40
0.0
  9
$USERR5
 40
0.0
  9
$WORLDVIEW
 70
     1
  9
$SHADEDGE
 70
     3
  9
$SHADEDIF
 70
    70
  9
$TILEMODE
 70
     1
  9
$MAXACTVP
 70
    64
  9
$PINSBASE
 10
0.0
 20
0.0
 30
0.0
  9
$PLIMCHECK
 70
     0
  9
$PEXTMIN
 10
1.000000000000000E+20
 20
1.000000000000000E+20
 30
1.000000000000000E+20
  9
$PEXTMAX
 10
-1.000000000000000E+20
 20
-1.000000000000000E+20
 30
-1.000000000000000E+20
  9
$PLIMMIN
 10
0.0
 20
0.0
  9
$PLIMMAX
 10
12.0
 20
9.0
  9
$UNITMODE
 70
     0
  9
$VISRETAIN
 70
     1
  9
$PLINEGEN
 70
     0
  9
$PSLTSCALE
 70
     1
  9
$TREEDEPTH
 70
  3020
  9
$CMLSTYLE
  2
Standard
  9
$CMLJUST
 70
     0
  9
$CMLSCALE
 40
1.0
  9
$PROXYGRAPHICS
 70
     1
  9
$MEASUREMENT
 70
     0
  9
$CELWEIGHT
370
    -1
  9
$ENDCAPS
280
     0
  9
$JOINSTYLE
280
     0
  9
$LWDISPLAY
290
     1
  9
$INSUNITS
 70
     4
  9
$HYPERLINKBASE
  1

  9
$STYLESHEET
  1

  9
$XEDIT
290
     1
  9
$CEPSNTYPE
380
     0
  9
$PSTYLEMODE
290
     1
  9
$FINGERPRINTGUID
  2
{ED9A0765-1E7F-439A-A59A-64EE8B19E939}
  9
$VERSIONGUID
  2
{FAEB1C32-E019-11D5-929B-00C0DF256EC4}
  9
$EXTNAMES
290
     1
  9
$PSVPSCALE
 40
0.0
  9
$OLESTARTUP
290
     0
  9
$SORTENTS
280
   127
  9
$INDEXCTL
280
     0
  9
$HIDETEXT
280
     1
  9
$XCLIPFRAME
280
     2
  9
$HALOGAP
280
     0
  9
$OBSCOLOR
 70
   257
  9
$OBSLTYPE
280
     0
  9
$INTERSECTIONDISPLAY
280
     0
  9
$INTERSECTIONCOLOR
 70
   257
  9
$DIMASSOC
280
     2
  9
$PROJECTNAME
  1

  9
$CAMERADISPLAY
290
     0
  9
$LENSLENGTH
 40
50.0
  9
$CAMERAHEIGHT
 40
0.0
  9
$STEPSPERSEC
 40
2.0
  9
$STEPSIZE
 40
6.0
  9
$3DDWFPREC
 40
2.0
  9
$PSOLWIDTH
 40
0.25
  9
$PSOLHEIGHT
 40
4.0
  9
$LOFTANG1
 40
1.570796326794897
  9
$LOFTANG2
 40
1.570796326794897
  9
$LOFTMAG1
 40
0.0
  9
$LOFTMAG2
 40
0.0
  9
$LOFTPARAM
 70
     7
  9
$LOFTNORMALS
280
     1
  9
$LATITUDE
 40
37.795
  9
$LONGITUDE
 40
-122.394
  9
$NORTHDIRECTION
 40
0.0
  9
$TIMEZONE
 70
 -8000
  9
$LIGHTGLYPHDISPLAY
280
     1
  9
$TILEMODELIGHTSYNCH
280
     1
  9
$CMATERIAL
347
3C
  9
$SOLIDHIST
280
     1
  9
$SHOWHIST
280
     1
  9
$DWFFRAME
280
     2
  9
$DGNFRAME
280
     2
  9
$REALWORLDSCALE
290
     1
  9
$INTERFERECOLOR
 62
   256
  9
$CSHADOW
280
     0
  9
$SHADOWPLANELOCATION
 40
0.0
  0
ENDSEC
  0
SECTION
  2
CLASSES
  0
CLASS
  1
ACDBDICTIONARYWDFLT
  2
AcDbDictionaryWithDefault
  3
ObjectDBX Classes
 90
        0
 91
        4
280
     0
281
     0
  0
CLASS
  1
VISUALSTYLE
  2
AcDbVisualStyle
  3
ObjectDBX Classes
 90
     4095
 91
        4
280
     0
281
     0
  0
CLASS
  1
MATERIAL
  2
AcDbMaterial
  3
ObjectDBX Classes
 90
     1153
 91
        4
280
     0
281
     0
  0
CLASS
  1
SUN
  2
AcDbSun
  3
SCENEOE
 90
     1024
 91
        4
280
     0
281
     0
  0
ENDSEC
  0
SECTION
  2
TABLES
  0
TABLE
  2
VPORT
  5
8
330
0
100
AcDbSymbolTable
 70
     1
  0
VPORT
  5
29
330
8
100
AcDbSymbolTableRecord
100
AcDbViewportTableRecord
  2
*Active
 70
     0
 10
0.0
 20
0.0
 11
1.0
 21
1.0
 12
0.0
 22
0.0
 13
0.0
 23
0.0
 14
0.5
 24
0.5
 15
0.5
 25
0.5
 16
0.0
 26
0.0
 36
1.0
 17
349.9999999124936
 27
-449.9999998874991
 37
0.0
 40
899.9999997749982
 41
0.7777777777777651
 42
50.0
 43
0.0
 44
0.0
 50
0.0
 51
0.0
 71
     0
 72
   100
 73
     1
 74
     3
 75
     0
 76
     0
 77
     0
 78
     0
281
     0
 65
     1
110
0.0
120
0.0
130
0.0
111
1.0
121
0.0
131
0.0
112
0.0
122
1.0
132
0.0
 79
     0
146
0.0
 60
     3
 61
     5
292
     1
282
     1
141
0.0
142
0.0
 63
   250
361
3F
  0
ENDTAB
  0
TABLE
  2
LTYPE
  5
5
330
0
100
AcDbSymbolTable
 70
     1
  0
LTYPE
  5
14
330
5
100
AcDbSymbolTableRecord
100
AcDbLinetypeTableRecord
  2
ByBlock
 70
     0
  3

 72
    65
 73
     0
 40
0.0
  0
LTYPE
  5
15
330
5
100
AcDbSymbolTableRecord
100
AcDbLinetypeTableRecord
  2
ByLayer
 70
     0
  3

 72
    65
 73
     0
 40
0.0
  0
LTYPE
  5
16
330
5
100
AcDbSymbolTableRecord
100
AcDbLinetypeTableRecord
  2
Continuous
 70
     0
  3
Solid line
 72
    65
 73
     0
 40
0.0
  0
ENDTAB
  0
TABLE
  2
LAYER
  5
2
330
0
100
AcDbSymbolTable
 70
     2
  0
LAYER
  5
10
330
2
100
AcDbSymbolTableRecord
100
AcDbLayerTableRecord
  2
0
 70
     0
 62
     7
  6
Continuous
370
    -3
390
F
347
3E
  0
LAYER
  5
40
330
2
100
AcDbSymbolTableRecord
100
AcDbLayerTableRecord
  2
Layer 1
 70
     0
 62
     7
  6
Continuous
370
    -3
390
F
347
3E
  0
ENDTAB
  0
TABLE
  2
STYLE
  5
3
330
0
100
AcDbSymbolTable
 70
     1
  0
STYLE
  5
11
330
3
100
AcDbSymbolTableRecord
100
AcDbTextStyleTableRecord
  2
Standard
 70
     0
 40
0.0
 41
1.0
 50
0.0
 71
     0
 42
0.2
  3
txt
  4

  0
ENDTAB
  0
TABLE
  2
VIEW
  5
6
330
0
100
AcDbSymbolTable
 70
     0
  0
ENDTAB
  0
TABLE
  2
UCS
  5
7
330
0
100
AcDbSymbolTable
 70
     0
  0
ENDTAB
  0
TABLE
  2
APPID
  5
9
330
0
100
AcDbSymbolTable
 70
     1
  0
APPID
  5
12
330
9
100
AcDbSymbolTableRecord
100
AcDbRegAppTableRecord
  2
ACAD
 70
     0
  0
ENDTAB
  0
TABLE
  2
DIMSTYLE
  5
A
330
0
100
AcDbSymbolTable
 70
     1
100
AcDbDimStyleTable
  0
DIMSTYLE
105
27
330
A
100
AcDbSymbolTableRecord
100
AcDbDimStyleTableRecord
  2
Standard
 70
     0
178
     0
340
11
  0
ENDTAB
  0
TABLE
  2
BLOCK_RECORD
  5
1
330
0
100
AcDbSymbolTable
 70
    15
  0
BLOCK_RECORD
  5
1F
330
1
100
AcDbSymbolTableRecord
100
AcDbBlockTableRecord
  2
*Model_Space
340
22
 70
     0
280
     1
281
     0
  0
BLOCK_RECORD
  5
1B
330
1
100
AcDbSymbolTableRecord
100
AcDbBlockTableRecord
  2
*Paper_Space
340
1E
 70
     0
280
     1
281
     0
  0
BLOCK_RECORD
  5
23
330
1
100
AcDbSymbolTableRecord
100
AcDbBlockTableRecord
  2
*Paper_Space0
340
26
 70
     0
280
     1
281
     0
  0
BLOCK_RECORD
  5
AC
330
1
100
AcDbSymbolTableRecord
100
AcDbBlockTableRecord
  2
block 2
340
0
102
{BLKREFS
331
AD
102
}
 70
     0
280
     1
281
     0
  0
BLOCK_RECORD
  5
137
330
1
100
AcDbSymbolTableRecord
100
AcDbBlockTableRecord
  2
block 3
340
0
102
{BLKREFS
331
138
102
}
 70
     0
280
     1
281
     0
  0
BLOCK_RECORD
  5
147
330
1
100
AcDbSymbolTableRecord
100
AcDbBlockTableRecord
  2
block 4
340
0
102
{BLKREFS
331
148
102
}
 70
     0
280
     1
281
     0
  0
BLOCK_RECORD
  5
157
330
1
100
AcDbSymbolTableRecord
100
AcDbBlockTableRecord
  2
block 5
340
0
102
{BLKREFS
331
158
102
}
 70
     0
280
     1
281
     0
  0
BLOCK_RECORD
  5
15E
330
1
100
AcDbSymbolTableRecord
100
AcDbBlockTableRecord
  2
block 6
340
0
102
{BLKREFS
331
15F
102
}
 70
     0
280
     1
281
     0
  0
BLOCK_RECORD
  5
165
330
1
100
AcDbSymbolTableRecord
100
AcDbBlockTableRecord
  2
block 7
340
0
102
{BLKREFS
331
166
102
}
 70
     0
280
     1
281
     0
  0
BLOCK_RECORD
  5
16C
330
1
100
AcDbSymbolTableRecord
100
AcDbBlockTableRecord
  2
block 8
340
0
102
{BLKREFS
331
16D
102
}
 70
     0
280
     1
281
     0
  0
BLOCK_RECORD
  5
17A
330
1
100
AcDbSymbolTableRecord
100
AcDbBlockTableRecord
  2
block 9
340
0
102
{BLKREFS
331
17B
102
}
 70
     0
280
     1
281
     0
  0
BLOCK_RECORD
  5
181
330
1
100
AcDbSymbolTableRecord
100
AcDbBlockTableRecord
  2
block 10
340
0
102
{BLKREFS
331
182
102
}
 70
     0
280
     1
281
     0
  0
BLOCK_RECORD
  5
188
330
1
100
AcDbSymbolTableRecord
100
AcDbBlockTableRecord
  2
block 11
340
0
102
{BLKREFS
331
189
102
}
 70
     0
280
     1
281
     0
  0
BLOCK_RECORD
  5
18F
330
1
100
AcDbSymbolTableRecord
100
AcDbBlockTableRecord
  2
block 12
340
0
102
{BLKREFS
331
190
102
}
 70
     0
280
     1
281
     0
  0
BLOCK_RECORD
  5
196
330
1
100
AcDbSymbolTableRecord
100
AcDbBlockTableRecord
  2
block 13
340
0
102
{BLKREFS
331
197
102
}
 70
     0
280
     1
281
     0
  0
BLOCK_RECORD
  5
19D
330
1
100
AcDbSymbolTableRecord
100
AcDbBlockTableRecord
  2
block 14
340
0
102
{BLKREFS
331
19E
102
}
 70
     0
280
     1
281
     0
  0
BLOCK_RECORD
  5
1A4
330
1
100
AcDbSymbolTableRecord
100
AcDbBlockTableRecord
  2
block 15
340
0
102
{BLKREFS
331
1A5
102
}
 70
     0
280
     1
281
     0
  0
ENDTAB
  0
ENDSEC
  0
SECTION
  2
BLOCKS
  0
BLOCK
  5
20
330
1F
100
AcDbEntity
  8
0
100
AcDbBlockBegin
  2
*Model_Space
 70
     0
 10
0.0
 20
0.0
 30
0.0
  3
*Model_Space
  1

  0
ENDBLK
  5
21
330
1F
100
AcDbEntity
  8
0
100
AcDbBlockEnd
  0
BLOCK
  5
1C
330
1B
100
AcDbEntity
 67
     1
  8
0
100
AcDbBlockBegin
  2
*Paper_Space
 70
     0
 10
0.0
 20
0.0
 30
0.0
  3
*Paper_Space
  1

  0
ENDBLK
  5
1D
330
1B
100
AcDbEntity
 67
     1
  8
0
100
AcDbBlockEnd
  0
BLOCK
  5
24
330
23
100
AcDbEntity
  8
0
100
AcDbBlockBegin
  2
*Paper_Space0
 70
     0
 10
0.0
 20
0.0
 30
0.0
  3
*Paper_Space0
  1

  0
ENDBLK
  5
25
330
23
100
AcDbEntity
  8
0
100
AcDbBlockEnd
  0
BLOCK
  5
AE
330
AC
100
AcDbEntity
  8
0
100
AcDbBlockBegin
  2
block 2
 70
     0
 10
0.0
 20
0.0
 30
0.0
  3
block 2
  1

  0
POLYLINE
  5
B0
330
AC
100
AcDbEntity
  8
Layer 1
 62
    22
420
 14951456
370
    35
100
AcDb2dPolyline
 66
     1
 10
0.0
 20
0.0
 30
0.0
  0
VERTEX
  5
B1
330
B0
100
AcDbEntity
  8
Layer 1
 62
    22
420
 14951456
370
    35
100
AcDbVertex
100
AcDb2dVertex
 10
167.8857451612088
 20
-299.1620399080192
 30
0.0
  0
VERTEX
  5
B2
330
B0
100
AcDbEntity
  8
Layer 1
 62
    22
420
 14951456
370
    35
100
AcDbVertex
100
AcDb2dVertex
 10
200.8857432952117
 20
-299.1619739080062
 30
0.0
  0
VERTEX
  5
B3
330
B0
100
AcDbEntity
  8
Layer 1
 62
    22
420
 14951456
370
    35
100
AcDbVertex
100
AcDb2dVertex
 10
200.885732295209
 20
-293.6619742190045
 30
0.0
  0
VERTEX
  5
B4
330
B0
100
AcDbEntity
  8
Layer 1
 62
    22
420
 14951456
370
    35
100
AcDbVertex
100
AcDb2dVertex
 10
167.8857341612051
 20
-293.6620402190175
 30
0.0
  0
VERTEX
  5
B5
330
B0
100
AcDbEntity
  8
Layer 1
 62
    22
420
 14951456
370
    35
100
AcDbVertex
100
AcDb2dVertex
 10
167.8857451612088
 20
-299.1620399080192
 30
0.0
  0
SEQEND
  5
B6
330
B0
100
AcDbEntity
  8
Layer 1
 62
    22
420
 14951456
370
    35
  0
POLYLINE
  5
B7
330
AC
100
AcDbEntity
  8
Layer 1
 62
    22
420
 14951456
370
    35
100
AcDb2dPolyline
 66
     1
 10
0.0
 20
0.0
 30
0.0
  0
VERTEX
  5
B8
330
B7
100
AcDbEntity
  8
Layer 1
 62
    22
420
 14951456
370
    35
100
AcDbVertex
100
AcDb2dVertex
 10
101.9184650142294
 20
-299.1621718426148
 30
0.0
  0
VERTEX
  5
B9
330
B7
100
AcDbEntity
  8
Layer 1
 62
    22
420
 14951456
370
    35
100
AcDbVertex
100
AcDb2dVertex
 10
134.9184631482397
 20
-299.1621058426019
 30
0.0
  0
VERTEX
  5
BA
330
B7
100
AcDbEntity
  8
Layer 1
 62
    22
420
 14951456
370
    35
100
AcDbVertex
100
AcDb2dVertex
 10
134.9184521482373
 20
-293.6621061536002
 30
0.0
  0
VERTEX
  5
BB
330
B7
100
AcDbEntity
  8
Layer 1
 62
    22
420
 14951456
370
    35
100
AcDbVertex
100
AcDb2dVertex
 10
101.9184540142271
 20
-293.6621721536131
 30
0.0
  0
VERTEX
  5
BC
330
B7
100
AcDbEntity
  8
Layer 1
 62
    22
420
 14951456
370
    35
100
AcDbVertex
100
AcDb2dVertex
 10
101.9184650142294
 20
-299.1621718426148
 30
0.0
  0
SEQEND
  5
BD
330
B7
100
AcDbEntity
  8
Layer 1
 62
    22
420
 14951456
370
    35
  0
POLYLINE
  5
BE
330
AC
100
AcDbEntity
  8
Layer 1
 62
    22
420
 14951456
370
    35
100
AcDb2dPolyline
 66
     1
 10
0.0
 20
0.0
 30
0.0
  0
VERTEX
  5
BF
330
BE
100
AcDbEntity
  8
Layer 1
 62
    22
420
 14951456
370
    35
100
AcDbVertex
100
AcDb2dVertex
 10
167.8858433278979
 20
-348.2453704659191
 30
0.0
  0
VERTEX
  5
C0
330
BE
100
AcDbEntity
  8
Layer 1
 62
    22
420
 14951456
370
    35
100
AcDbVertex
100
AcDb2dVertex
 10
200.8858414619005
 20
-348.2453044659104
 30
0.0
  0
VERTEX
  5
C1
330
BE
100
AcDbEntity
  8
Layer 1
 62
    22
420
 14951456
370
    35
100
AcDbVertex
100
AcDb2dVertex
 10
200.8858304618981
 20
-342.7453047769048
 30
0.0
  0
VERTEX
  5
C2
330
BE
100
AcDbEntity
  8
Layer 1
 62
    22
420
 14951456
370
    35
100
AcDbVertex
100
AcDb2dVertex
 10
167.8858323278939
 20
-342.7453707769212
 30
0.0
  0
VERTEX
  5
C3
330
BE
100
AcDbEntity
  8
Layer 1
 62
    22
420
 14951456
370
    35
100
AcDbVertex
100
AcDb2dVertex
 10
167.8858433278979
 20
-348.2453704659191
 30
0.0
  0
SEQEND
  5
C4
330
BE
100
AcDbEntity
  8
Layer 1
 62
    22
420
 14951456
370
    35
  0
POLYLINE
  5
C5
330
AC
100
AcDbEntity
  8
Layer 1
 62
    22
420
 14951456
370
    35
100
AcDb2dPolyline
 66
     1
 10
0.0
 20
0.0
 30
0.0
  0
VERTEX
  5
C6
330
C5
100
AcDbEntity
  8
Layer 1
 62
    22
420
 14951456
370
    35
100
AcDbVertex
100
AcDb2dVertex
 10
101.9185631809185
 20
-348.2455024005147
 30
0.0
  0
VERTEX
  5
C7
330
C5
100
AcDbEntity
  8
Layer 1
 62
    22
420
 14951456
370
    35
100
AcDbVertex
100
AcDb2dVertex
 10
134.918561314925
 20
-348.2454364005056
 30
0.0
  0
VERTEX
  5
C8
330
C5
100
AcDbEntity
  8
Layer 1
 62
    22
420
 14951456
370
    35
100
AcDbVertex
100
AcDb2dVertex
 10
134.918550314923
 20
-342.7454367115039
 30
0.0
  0
VERTEX
  5
C9
330
C5
100
AcDbEntity
  8
Layer 1
 62
    22
420
 14951456
370
    35
100
AcDbVertex
100
AcDb2dVertex
 10
101.9185521809162
 20
-342.7455027115137
 30
0.0
  0
VERTEX
  5
CA
330
C5
100
AcDbEntity
  8
Layer 1
 62
    22
420
 14951456
370
    35
100
AcDbVertex
100
AcDb2dVertex
 10
101.9185631809185
 20
-348.2455024005147
 30
0.0
  0
SEQEND
  5
CB
330
C5
100
AcDbEntity
  8
Layer 1
 62
    22
420
 14951456
370
    35
  0
POLYLINE
  5
CC
330
AC
100
AcDbEntity
  8
Layer 1
 62
    22
420
 14951456
370
    35
100
AcDb2dPolyline
 66
     1
 10
0.0
 20
0.0
 30
0.0
  0
VERTEX
  5
CD
330
CC
100
AcDbEntity
  8
Layer 1
 62
    22
420
 14951456
370
    35
100
AcDbVertex
100
AcDb2dVertex
 10
167.8856469945197
 20
-250.0787093501154
 30
0.0
  0
VERTEX
  5
CE
330
CC
100
AcDbEntity
  8
Layer 1
 62
    22
420
 14951456
370
    35
100
AcDbVertex
100
AcDb2dVertex
 10
200.8856451285261
 20
-250.0786433501031
 30
0.0
  0
VERTEX
  5
CF
330
CC
100
AcDbEntity
  8
Layer 1
 62
    22
420
 14951456
370
    35
100
AcDbVertex
100
AcDb2dVertex
 10
200.8856341285237
 20
-244.5786436611014
 30
0.0
  0
VERTEX
  5
D0
330
CC
100
AcDbEntity
  8
Layer 1
 62
    22
420
 14951456
370
    35
100
AcDbVertex
100
AcDb2dVertex
 10
167.885635994516
 20
-244.5787096611175
 30
0.0
  0
VERTEX
  5
D1
330
CC
100
AcDbEntity
  8
Layer 1
 62
    22
420
 14951456
370
    35
100
AcDbVertex
100
AcDb2dVertex
 10
167.8856469945197
 20
-250.0787093501154
 30
0.0
  0
SEQEND
  5
D2
330
CC
100
AcDbEntity
  8
Layer 1
 62
    22
420
 14951456
370
    35
  0
POLYLINE
  5
D3
330
AC
100
AcDbEntity
  8
Layer 1
 62
    22
420
 14951456
370
    35
100
AcDb2dPolyline
 66
     1
 10
0.0
 20
0.0
 30
0.0
  0
VERTEX
  5
D4
330
D3
100
AcDbEntity
  8
Layer 1
 62
    22
420
 14951456
370
    35
100
AcDbVertex
100
AcDb2dVertex
 10
101.9183668475442
 20
-250.078841284711
 30
0.0
  0
VERTEX
  5
D5
330
D3
100
AcDbEntity
  8
Layer 1
 62
    22
420
 14951456
370
    35
100
AcDbVertex
100
AcDb2dVertex
 10
134.9183649815506
 20
-250.0787752846984
 30
0.0
  0
VERTEX
  5
D6
330
D3
100
AcDbEntity
  8
Layer 1
 62
    22
420
 14951456
370
    35
100
AcDbVertex
100
AcDb2dVertex
 10
134.9183539815483
 20
-244.5787755956964
 30
0.0
  0
VERTEX
  5
D7
330
D3
100
AcDbEntity
  8
Layer 1
 62
    22
420
 14951456
370
    35
100
AcDbVertex
100
AcDb2dVertex
 10
101.9183558475421
 20
-244.5788415957132
 30
0.0
  0
VERTEX
  5
D8
330
D3
100
AcDbEntity
  8
Layer 1
 62
    22
420
 14951456
370
    35
100
AcDbVertex
100
AcDb2dVertex
 10
101.9183668475442
 20
-250.078841284711
 30
0.0
  0
SEQEND
  5
D9
330
D3
100
AcDbEntity
  8
Layer 1
 62
    22
420
 14951456
370
    35
  0
POLYLINE
  5
DA
330
AC
100
AcDbEntity
  8
Layer 1
 62
    22
420
 14951456
370
    35
100
AcDb2dPolyline
 66
     1
 10
0.0
 20
0.0
 30
0.0
  0
VERTEX
  5
DB
330
DA
100
AcDbEntity
  8
Layer 1
 62
    22
420
 14951456
370
    35
100
AcDbVertex
100
AcDb2dVertex
 10
167.8854506611453
 20
-151.9120482343117
 30
0.0
  0
VERTEX
  5
DC
330
DA
100
AcDbEntity
  8
Layer 1
 62
    22
420
 14951456
370
    35
100
AcDbVertex
100
AcDb2dVertex
 10
200.8854487951479
 20
-151.9119822342994
 30
0.0
  0
VERTEX
  5
DD
330
DA
100
AcDbEntity
  8
Layer 1
 62
    22
420
 14951456
370
    35
100
AcDbVertex
100
AcDb2dVertex
 10
200.8854377951455
 20
-146.4119825452938
 30
0.0
  0
VERTEX
  5
DE
330
DA
100
AcDbEntity
  8
Layer 1
 62
    22
420
 14951456
370
    35
100
AcDbVertex
100
AcDb2dVertex
 10
167.8854396611416
 20
-146.4120485453099
 30
0.0
  0
VERTEX
  5
DF
330
DA
100
AcDbEntity
  8
Layer 1
 62
    22
420
 14951456
370
    35
100
AcDbVertex
100
AcDb2dVertex
 10
167.8854506611453
 20
-151.9120482343117
 30
0.0
  0
SEQEND
  5
E0
330
DA
100
AcDbEntity
  8
Layer 1
 62
    22
420
 14951456
370
    35
  0
POLYLINE
  5
E1
330
AC
100
AcDbEntity
  8
Layer 1
 62
    22
420
 14951456
370
    35
100
AcDb2dPolyline
 66
     1
 10
0.0
 20
0.0
 30
0.0
  0
VERTEX
  5
E2
330
E1
100
AcDbEntity
  8
Layer 1
 62
    22
420
 14951456
370
    35
100
AcDbVertex
100
AcDb2dVertex
 10
101.9181705141659
 20
-151.9121801689073
 30
0.0
  0
VERTEX
  5
E3
330
E1
100
AcDbEntity
  8
Layer 1
 62
    22
420
 14951456
370
    35
100
AcDbVertex
100
AcDb2dVertex
 10
134.9181686481766
 20
-151.912114168895
 30
0.0
  0
VERTEX
  5
E4
330
E1
100
AcDbEntity
  8
Layer 1
 62
    22
420
 14951456
370
    35
100
AcDbVertex
100
AcDb2dVertex
 10
134.9181576481735
 20
-146.4121144798933
 30
0.0
  0
VERTEX
  5
E5
330
E1
100
AcDbEntity
  8
Layer 1
 62
    22
420
 14951456
370
    35
100
AcDbVertex
100
AcDb2dVertex
 10
101.9181595141636
 20
-146.4121804799056
 30
0.0
  0
VERTEX
  5
E6
330
E1
100
AcDbEntity
  8
Layer 1
 62
    22
420
 14951456
370
    35
100
AcDbVertex
100
AcDb2dVertex
 10
101.9181705141659
 20
-151.9121801689073
 30
0.0
  0
SEQEND
  5
E7
330
E1
100
AcDbEntity
  8
Layer 1
 62
    22
420
 14951456
370
    35
  0
POLYLINE
  5
E8
330
AC
100
AcDbEntity
  8
Layer 1
 62
    22
420
 14951456
370
    35
100
AcDb2dPolyline
 66
     1
 10
0.0
 20
0.0
 30
0.0
  0
VERTEX
  5
E9
330
E8
100
AcDbEntity
  8
Layer 1
 62
    22
420
 14951456
370
    35
100
AcDbVertex
100
AcDb2dVertex
 10
167.8855488278331
 20
-200.9953787922113
 30
0.0
  0
VERTEX
  5
EA
330
E8
100
AcDbEntity
  8
Layer 1
 62
    22
420
 14951456
370
    35
100
AcDbVertex
100
AcDb2dVertex
 10
200.885546961837
 20
-200.9953127921961
 30
0.0
  0
VERTEX
  5
EB
330
E8
100
AcDbEntity
  8
Layer 1
 62
    22
420
 14951456
370
    35
100
AcDbVertex
100
AcDb2dVertex
 10
200.8855359618346
 20
-195.4953131031944
 30
0.0
  0
VERTEX
  5
EC
330
E8
100
AcDbEntity
  8
Layer 1
 62
    22
420
 14951456
370
    35
100
AcDbVertex
100
AcDb2dVertex
 10
167.8855378278308
 20
-195.4953791032102
 30
0.0
  0
VERTEX
  5
ED
330
E8
100
AcDbEntity
  8
Layer 1
 62
    22
420
 14951456
370
    35
100
AcDbVertex
100
AcDb2dVertex
 10
167.8855488278331
 20
-200.9953787922113
 30
0.0
  0
SEQEND
  5
EE
330
E8
100
AcDbEntity
  8
Layer 1
 62
    22
420
 14951456
370
    35
  0
POLYLINE
  5
EF
330
AC
100
AcDbEntity
  8
Layer 1
 62
    22
420
 14951456
370
    35
100
AcDb2dPolyline
 66
     1
 10
0.0
 20
0.0
 30
0.0
  0
VERTEX
  5
F0
330
EF
100
AcDbEntity
  8
Layer 1
 62
    22
420
 14951456
370
    35
100
AcDbVertex
100
AcDb2dVertex
 10
101.918268680855
 20
-200.9955107268072
 30
0.0
  0
VERTEX
  5
F1
330
EF
100
AcDbEntity
  8
Layer 1
 62
    22
420
 14951456
370
    35
100
AcDbVertex
100
AcDb2dVertex
 10
134.9182668148615
 20
-200.9954447267911
 30
0.0
  0
VERTEX
  5
F2
330
EF
100
AcDbEntity
  8
Layer 1
 62
    22
420
 14951456
370
    35
100
AcDbVertex
100
AcDb2dVertex
 10
134.9182558148591
 20
-195.4954450377903
 30
0.0
  0
VERTEX
  5
F3
330
EF
100
AcDbEntity
  8
Layer 1
 62
    22
420
 14951456
370
    35
100
AcDbVertex
100
AcDb2dVertex
 10
101.9182576808527
 20
-195.4955110378097
 30
0.0
  0
VERTEX
  5
F4
330
EF
100
AcDbEntity
  8
Layer 1
 62
    22
420
 14951456
370
    35
100
AcDbVertex
100
AcDb2dVertex
 10
101.918268680855
 20
-200.9955107268072
 30
0.0
  0
SEQEND
  5
F5
330
EF
100
AcDbEntity
  8
Layer 1
 62
    22
420
 14951456
370
    35
  0
POLYLINE
  5
F6
330
AC
100
AcDbEntity
  8
Layer 1
 62
    22
420
 14951456
370
    35
100
AcDb2dPolyline
 66
     1
 10
0.0
 20
0.0
 30
0.0
  0
VERTEX
  5
F7
330
F6
100
AcDbEntity
  8
Layer 1
 62
    22
420
 14951456
370
    35
100
AcDbVertex
100
AcDb2dVertex
 10
101.9523793578408
 20
-391.828817515672
 30
0.0
  0
VERTEX
  5
F8
330
F6
100
AcDbEntity
  8
Layer 1
 62
    22
420
 14951456
370
    35
100
AcDbVertex
100
AcDb2dVertex
 10
101.9523903578611
 20
-397.3288263304776
 30
0.0
  0
VERTEX
  5
F9
330
F6
100
AcDbEntity
  8
Layer 1
 62
    22
420
 14951456
370
    35
100
AcDbVertex
100
AcDb2dVertex
 10
103.0381122000347
 20
-397.328824159028
 30
0.0
  0
VERTEX
  5
FA
330
F6
100
AcDbEntity
  8
Layer 1
 62
    22
420
 14951456
370
    35
100
AcDbVertex
100
AcDb2dVertex
 10
134.9522709919058
 20
-397.3287603306976
 30
0.0
  0
VERTEX
  5
FB
330
F6
100
AcDbEntity
  8
Layer 1
 62
    22
420
 14951456
370
    35
100
AcDbVertex
100
AcDb2dVertex
 10
134.9522599918855
 20
-391.8287515158959
 30
0.0
  0
VERTEX
  5
FC
330
F6
100
AcDbEntity
  8
Layer 1
 62
    22
420
 14951456
370
    35
100
AcDbVertex
100
AcDb2dVertex
 10
167.9523128807077
 20
-391.8286855157668
 30
0.0
  0
VERTEX
  5
FD
330
F6
100
AcDbEntity
  8
Layer 1
 62
    22
420
 14951456
370
    35
100
AcDbVertex
100
AcDb2dVertex
 10
167.952323880728
 20
-397.3286943305756
 30
0.0
  0
VERTEX
  5
FE
330
F6
100
AcDbEntity
  8
Layer 1
 62
    22
420
 14951456
370
    35
100
AcDbVertex
100
AcDb2dVertex
 10
171.3876008438369
 20
-397.3286874600204
 30
0.0
  0
VERTEX
  5
FF
330
F6
100
AcDbEntity
  8
Layer 1
 62
    22
420
 14951456
370
    35
100
AcDbVertex
100
AcDb2dVertex
 10
200.9523767695467
 20
-397.3286283304504
 30
0.0
  0
VERTEX
  5
100
330
F6
100
AcDbEntity
  8
Layer 1
 62
    22
420
 14951456
370
    35
100
AcDbVertex
100
AcDb2dVertex
 10
200.9523657695264
 20
-391.8286195156448
 30
0.0
  0
VERTEX
  5
101
330
F6
100
AcDbEntity
  8
Layer 1
 62
    22
420
 14951456
370
    35
100
AcDbVertex
100
AcDb2dVertex
 10
225.9523040499007
 20
-391.8285695157554
 30
0.0
  0
VERTEX
  5
102
330
F6
100
AcDbEntity
  8
Layer 1
 62
    22
420
 14951456
370
    35
100
AcDbVertex
100
AcDb2dVertex
 10
225.9522460498936
 20
-362.828573931161
 30
0.0
  0
VERTEX
  5
103
330
F6
100
AcDbEntity
  8
Layer 1
 62
    22
420
 14951456
370
    35
100
AcDbVertex
100
AcDb2dVertex
 10
231.3522609682362
 20
-362.8285631311232
 30
0.0
  0
VERTEX
  5
104
330
F6
100
AcDbEntity
  8
Layer 1
 62
    22
420
 14951456
370
    35
100
AcDbVertex
100
AcDb2dVertex
 10
231.3521949682413
 20
-329.8285748378501
 30
0.0
  0
VERTEX
  5
105
330
F6
100
AcDbEntity
  8
Layer 1
 62
    22
420
 14951456
370
    35
100
AcDbVertex
100
AcDb2dVertex
 10
225.952180049898
 20
-329.8285856378811
 30
0.0
  0
VERTEX
  5
106
330
F6
100
AcDbEntity
  8
Layer 1
 62
    22
420
 14951456
370
    35
100
AcDbVertex
100
AcDb2dVertex
 10
225.9521800498559
 20
-329.828564106033
 30
0.0
  0
VERTEX
  5
107
330
F6
100
AcDbEntity
  8
Layer 1
 62
    22
420
 14951456
370
    35
100
AcDbVertex
100
AcDb2dVertex
 10
225.9521140498607
 20
-296.8285758127524
 30
0.0
  0
VERTEX
  5
108
330
F6
100
AcDbEntity
  8
Layer 1
 62
    22
420
 14951456
370
    35
100
AcDbVertex
100
AcDb2dVertex
 10
231.352128968204
 20
-296.8285650127208
 30
0.0
  0
VERTEX
  5
109
330
F6
100
AcDbEntity
  8
Layer 1
 62
    22
420
 14951456
370
    35
100
AcDbVertex
100
AcDb2dVertex
 10
231.352062968209
 20
-263.8285767194403
 30
0.0
  0
VERTEX
  5
10A
330
F6
100
AcDbEntity
  8
Layer 1
 62
    22
420
 14951456
370
    35
100
AcDbVertex
100
AcDb2dVertex
 10
225.9520480498657
 20
-263.8285875194779
 30
0.0
  0
VERTEX
  5
10B
330
F6
100
AcDbEntity
  8
Layer 1
 62
    22
420
 14951456
370
    35
100
AcDbVertex
100
AcDb2dVertex
 10
225.9520480498234
 20
-263.8285659876292
 30
0.0
  0
VERTEX
  5
10C
330
F6
100
AcDbEntity
  8
Layer 1
 62
    22
420
 14951456
370
    35
100
AcDbVertex
100
AcDb2dVertex
 10
225.9519820498284
 20
-230.8285776943487
 30
0.0
  0
VERTEX
  5
10D
330
F6
100
AcDbEntity
  8
Layer 1
 62
    22
420
 14951456
370
    35
100
AcDbVertex
100
AcDb2dVertex
 10
231.3519969681717
 20
-230.8285668943177
 30
0.0
  0
VERTEX
  5
10E
330
F6
100
AcDbEntity
  8
Layer 1
 62
    22
420
 14951456
370
    35
100
AcDbVertex
100
AcDb2dVertex
 10
231.3519309681768
 20
-197.8285786010368
 30
0.0
  0
VERTEX
  5
10F
330
F6
100
AcDbEntity
  8
Layer 1
 62
    22
420
 14951456
370
    35
100
AcDbVertex
100
AcDb2dVertex
 10
225.9519160498335
 20
-197.828589401071
 30
0.0
  0
VERTEX
  5
110
330
F6
100
AcDbEntity
  8
Layer 1
 62
    22
420
 14951456
370
    35
100
AcDbVertex
100
AcDb2dVertex
 10
225.9518500498809
 20
-164.8286226396411
 30
0.0
  0
VERTEX
  5
111
330
F6
100
AcDbEntity
  8
Layer 1
 62
    22
420
 14951456
370
    35
100
AcDbVertex
100
AcDb2dVertex
 10
225.9518500497962
 20
-164.8285795759453
 30
0.0
  0
VERTEX
  5
112
330
F6
100
AcDbEntity
  8
Layer 1
 62
    22
420
 14951456
370
    35
100
AcDbVertex
100
AcDb2dVertex
 10
231.3518649681395
 20
-164.8285687759079
 30
0.0
  0
VERTEX
  5
113
330
F6
100
AcDbEntity
  8
Layer 1
 62
    22
420
 14951456
370
    35
100
AcDbVertex
100
AcDb2dVertex
 10
231.3517989681022
 20
-131.8285589507857
 30
0.0
  0
VERTEX
  5
114
330
F6
100
AcDbEntity
  8
Layer 1
 62
    22
420
 14951456
370
    35
100
AcDbVertex
100
AcDb2dVertex
 10
225.9517840497589
 20
-131.8285697508227
 30
0.0
  0
VERTEX
  5
115
330
F6
100
AcDbEntity
  8
Layer 1
 62
    22
420
 14951456
370
    35
100
AcDbVertex
100
AcDb2dVertex
 10
225.9517260498361
 20
-102.8286172299174
 30
0.0
  0
VERTEX
  5
116
330
F6
100
AcDbEntity
  8
Layer 1
 62
    22
420
 14951456
370
    35
100
AcDbVertex
100
AcDb2dVertex
 10
200.9517877694646
 20
-102.8286672298032
 30
0.0
  0
VERTEX
  5
117
330
F6
100
AcDbEntity
  8
Layer 1
 62
    22
420
 14951456
370
    35
100
AcDbVertex
100
AcDb2dVertex
 10
200.9517767694443
 20
-97.32865841500184
 30
0.0
  0
VERTEX
  5
118
330
F6
100
AcDbEntity
  8
Layer 1
 62
    22
420
 14951456
370
    35
100
AcDbVertex
100
AcDb2dVertex
 10
171.3870008437322
 20
-97.32871754456838
 30
0.0
  0
VERTEX
  5
119
330
F6
100
AcDbEntity
  8
Layer 1
 62
    22
420
 14951456
370
    35
100
AcDbVertex
100
AcDb2dVertex
 10
167.9517238806231
 20
-97.32872441512706
 30
0.0
  0
VERTEX
  5
11A
330
F6
100
AcDbEntity
  8
Layer 1
 62
    22
420
 14951456
370
    35
100
AcDbVertex
100
AcDb2dVertex
 10
167.9517348806434
 20
-102.8287332299323
 30
0.0
  0
VERTEX
  5
11B
330
F6
100
AcDbEntity
  8
Layer 1
 62
    22
420
 14951456
370
    35
100
AcDbVertex
100
AcDb2dVertex
 10
134.9516819918247
 20
-102.8287992300543
 30
0.0
  0
VERTEX
  5
11C
330
F6
100
AcDbEntity
  8
Layer 1
 62
    22
420
 14951456
370
    35
100
AcDbVertex
100
AcDb2dVertex
 10
134.9516709918044
 20
-97.32879041524906
 30
0.0
  0
VERTEX
  5
11D
330
F6
100
AcDbEntity
  8
Layer 1
 62
    22
420
 14951456
370
    35
100
AcDbVertex
100
AcDb2dVertex
 10
103.0375121999326
 20
-97.32885424358302
 30
0.0
  0
VERTEX
  5
11E
330
F6
100
AcDbEntity
  8
Layer 1
 62
    22
420
 14951456
370
    35
100
AcDbVertex
100
AcDb2dVertex
 10
101.95179035776
 20
-97.32885641502905
 30
0.0
  0
VERTEX
  5
11F
330
F6
100
AcDbEntity
  8
Layer 1
 62
    22
420
 14951456
370
    35
100
AcDbVertex
100
AcDb2dVertex
 10
101.9518013577803
 20
-102.8288652298311
 30
0.0
  0
VERTEX
  5
120
330
F6
100
AcDbEntity
  8
Layer 1
 62
    22
420
 14951456
370
    35
100
AcDbVertex
100
AcDb2dVertex
 10
76.95177695001789
 20
-102.8289152298928
 30
0.0
  0
VERTEX
  5
121
330
F6
100
AcDbEntity
  8
Layer 1
 62
    22
420
 14951456
370
    35
100
AcDbVertex
100
AcDb2dVertex
 10
76.95235495007833
 20
-391.8288675157343
 30
0.0
  0
VERTEX
  5
122
330
F6
100
AcDbEntity
  8
Layer 1
 62
    22
420
 14951456
370
    35
100
AcDbVertex
100
AcDb2dVertex
 10
101.9523793578408
 20
-391.828817515672
 30
0.0
  0
SEQEND
  5
123
330
F6
100
AcDbEntity
  8
Layer 1
 62
    22
420
 14951456
370
    35
  0
ENDBLK
  5
AF
330
AC
100
AcDbEntity
  8
0
100
AcDbBlockEnd
  0
BLOCK
  5
139
330
137
100
AcDbEntity
  8
0
100
AcDbBlockBegin
  2
block 3
 70
     0
 10
0.0
 20
0.0
 30
0.0
  3
block 3
  1

  0
POLYLINE
  5
13B
330
137
100
AcDbEntity
  8
Layer 1
370
     0
100
AcDb2dPolyline
 66
     1
 10
0.0
 20
0.0
 30
0.0
  0
VERTEX
  5
13C
330
13B
100
AcDbEntity
  8
Layer 1
370
     0
100
AcDbVertex
100
AcDb2dVertex
 10
209.6551463002474
 20
-775.7463080506816
 30
0.0
  0
VERTEX
  5
13D
330
13B
100
AcDbEntity
  8
Layer 1
370
     0
100
AcDbVertex
100
AcDb2dVertex
 10
209.6551463002474
 20
-747.8963080576416
 30
0.0
  0
VERTEX
  5
13E
330
13B
100
AcDbEntity
  8
Layer 1
370
     0
100
AcDbVertex
100
AcDb2dVertex
 10
218.0551462981468
 20
-747.8963080576416
 30
0.0
  0
VERTEX
  5
13F
330
13B
100
AcDbEntity
  8
Layer 1
370
     0
100
AcDbVertex
100
AcDb2dVertex
 10
218.0551462981468
 20
-775.7463080506816
 30
0.0
  0
VERTEX
  5
140
330
13B
100
AcDbEntity
  8
Layer 1
370
     0
100
AcDbVertex
100
AcDb2dVertex
 10
209.6551463002474
 20
-775.7463080506816
 30
0.0
  0
SEQEND
  5
142
330
13B
100
AcDbEntity
  8
Layer 1
370
     0
  0
HATCH
  5
141
330
137
100
AcDbEntity
  8
Layer 1
 62
    85
420
  6730542
100
AcDbHatch
 10
0.0
 20
0.0
 30
0.0
210
0.0
220
0.0
230
1.0
  2
SOLID
 70
     1
 71
     0
 91
        1
 92
        1
 93
        4
 72
     1
 10
209.6551463002474
 20
-775.7463080506816
 11
209.6551463002474
 21
-747.8963080576416
 72
     1
 10
209.6551463002474
 20
-747.8963080576416
 11
218.0551462981468
 21
-747.8963080576416
 72
     1
 10
218.0551462981468
 20
-747.8963080576416
 11
218.0551462981468
 21
-775.7463080506816
 72
     1
 10
218.0551462981468
 20
-775.7463080506816
 11
209.6551463002474
 21
-775.7463080506816
 97
        0
 75
     2
 76
     1
 98
        0
  0
SPLINE
  5
143
330
137
100
AcDbEntity
  8
Layer 1
370
     0
100
AcDbSpline
210
0.0
220
0.0
230
1.0
 70
    11
 71
     3
 72
    17
 73
    13
 74
     0
 42
0.0000000001
 43
0.0000000001
 12
1.0
 22
0.0
 32
0.0
 13
1.0
 23
0.0
 33
0.0
 40
0.0
 40
0.0
 40
0.0
 40
0.0
 40
1.0
 40
1.0
 40
1.0
 40
2.0
 40
2.0
 40
2.0
 40
3.0
 40
3.0
 40
3.0
 40
4.0
 40
4.0
 40
4.0
 40
4.0
 10
214.6051462990096
 20
-770.5963080519688
 30
0.0
 10
214.6051462990096
 20
-771.0105216142164
 30
0.0
 10
214.2693598614431
 20
-771.3463080517819
 30
0.0
 10
213.8551462991974
 20
-771.3463080517819
 30
0.0
 10
213.4409327369517
 20
-771.3463080517819
 30
0.0
 10
213.1051462993843
 20
-771.0105216142164
 30
0.0
 10
213.1051462993843
 20
-770.5963080519688
 30
0.0
 10
213.1051462993843
 20
-770.1820944897219
 30
0.0
 10
213.4409327369517
 20
-769.8463080521564
 30
0.0
 10
213.8551462991974
 20
-769.8463080521564
 30
0.0
 10
214.2693598614431
 20
-769.8463080521564
 30
0.0
 10
214.6051462990096
 20
-770.1820944897219
 30
0.0
 10
214.6051462990096
 20
-770.5963080519688
 30
0.0
  0
HATCH
  5
144
330
137
100
AcDbEntity
  8
Layer 1
 62
   250
420
  1842203
100
AcDbHatch
 10
0.0
 20
0.0
 30
0.0
210
0.0
220
0.0
230
1.0
  2
SOLID
 70
     1
 71
     0
 91
        1
 92
        1
 93
        1
 72
     4
 94
        3
 73
     0
 74
     1
 95
       17
 96
       13
 40
0.0
 40
0.0
 40
0.0
 40
0.0
 40
1.0
 40
1.0
 40
1.0
 40
2.0
 40
2.0
 40
2.0
 40
3.0
 40
3.0
 40
3.0
 40
4.0
 40
4.0
 40
4.0
 40
4.0
 10
214.6051462990096
 20
-770.5963080519688
 10
214.6051462990096
 20
-771.0105216142164
 10
214.2693598614431
 20
-771.3463080517819
 10
213.8551462991974
 20
-771.3463080517819
 10
213.4409327369517
 20
-771.3463080517819
 10
213.1051462993843
 20
-771.0105216142164
 10
213.1051462993843
 20
-770.5963080519688
 10
213.1051462993843
 20
-770.1820944897219
 10
213.4409327369517
 20
-769.8463080521564
 10
213.8551462991974
 20
-769.8463080521564
 10
214.2693598614431
 20
-769.8463080521564
 10
214.6051462990096
 20
-770.1820944897219
 10
214.6051462990096
 20
-770.5963080519688
 97
        0
 97
        0
 75
     2
 76
     1
 98
        0
  0
SPLINE
  5
145
330
137
100
AcDbEntity
  8
Layer 1
370
     0
100
AcDbSpline
210
0.0
220
0.0
230
1.0
 70
    11
 71
     3
 72
    17
 73
    13
 74
     0
 42
0.0000000001
 43
0.0000000001
 12
1.0
 22
0.0
 32
0.0
 13
1.0
 23
0.0
 33
0.0
 40
0.0
 40
0.0
 40
0.0
 40
0.0
 40
1.0
 40
1.0
 40
1.0
 40
2.0
 40
2.0
 40
2.0
 40
3.0
 40
3.0
 40
3.0
 40
4.0
 40
4.0
 40
4.0
 40
4.0
 10
214.6051462990096
 20
-753.0463080563576
 30
0.0
 10
214.6051462990096
 20
-753.4605216186013
 30
0.0
 10
214.2693598614431
 20
-753.7963080561668
 30
0.0
 10
213.8551462991974
 20
-753.7963080561668
 30
0.0
 10
213.4409327369517
 20
-753.7963080561668
 30
0.0
 10
213.1051462993843
 20
-753.4605216186013
 30
0.0
 10
213.1051462993843
 20
-753.0463080563576
 30
0.0
 10
213.1051462993843
 20
-752.63209449411
 30
0.0
 10
213.4409327369517
 20
-752.2963080565444
 30
0.0
 10
213.8551462991974
 20
-752.2963080565444
 30
0.0
 10
214.2693598614431
 20
-752.2963080565444
 30
0.0
 10
214.6051462990096
 20
-752.63209449411
 30
0.0
 10
214.6051462990096
 20
-753.0463080563576
 30
0.0
  0
HATCH
  5
146
330
137
100
AcDbEntity
  8
Layer 1
 62
   250
420
  1842203
100
AcDbHatch
 10
0.0
 20
0.0
 30
0.0
210
0.0
220
0.0
230
1.0
  2
SOLID
 70
     1
 71
     0
 91
        1
 92
        1
 93
        1
 72
     4
 94
        3
 73
     0
 74
     1
 95
       17
 96
       13
 40
0.0
 40
0.0
 40
0.0
 40
0.0
 40
1.0
 40
1.0
 40
1.0
 40
2.0
 40
2.0
 40
2.0
 40
3.0
 40
3.0
 40
3.0
 40
4.0
 40
4.0
 40
4.0
 40
4.0
 10
214.6051462990096
 20
-753.0463080563576
 10
214.6051462990096
 20
-753.4605216186013
 10
214.2693598614431
 20
-753.7963080561668
 10
213.8551462991974
 20
-753.7963080561668
 10
213.4409327369517
 20
-753.7963080561668
 10
213.1051462993843
 20
-753.4605216186013
 10
213.1051462993843
 20
-753.0463080563576
 10
213.1051462993843
 20
-752.63209449411
 10
213.4409327369517
 20
-752.2963080565444
 10
213.8551462991974
 20
-752.2963080565444
 10
214.2693598614431
 20
-752.2963080565444
 10
214.6051462990096
 20
-752.63209449411
 10
214.6051462990096
 20
-753.0463080563576
 97
        0
 97
        0
 75
     2
 76
     1
 98
        0
  0
ENDBLK
  5
13A
330
137
100
AcDbEntity
  8
0
100
AcDbBlockEnd
  0
BLOCK
  5
149
330
147
100
AcDbEntity
  8
0
100
AcDbBlockBegin
  2
block 4
 70
     0
 10
0.0
 20
0.0
 30
0.0
  3
block 4
  1

  0
POLYLINE
  5
14B
330
147
100
AcDbEntity
  8
Layer 1
370
     0
100
AcDb2dPolyline
 66
     1
 10
0.0
 20
0.0
 30
0.0
  0
VERTEX
  5
14C
330
14B
100
AcDbEntity
  8
Layer 1
370
     0
100
AcDbVertex
100
AcDb2dVertex
 10
209.6551463002474
 20
-517.6210646528814
 30
0.0
  0
VERTEX
  5
14D
330
14B
100
AcDbEntity
  8
Layer 1
370
     0
100
AcDbVertex
100
AcDb2dVertex
 10
209.6551463002474
 20
-489.7710646598453
 30
0.0
  0
VERTEX
  5
14E
330
14B
100
AcDbEntity
  8
Layer 1
370
     0
100
AcDbVertex
100
AcDb2dVertex
 10
218.0551462981468
 20
-489.7710646598453
 30
0.0
  0
VERTEX
  5
14F
330
14B
100
AcDbEntity
  8
Layer 1
370
     0
100
AcDbVertex
100
AcDb2dVertex
 10
218.0551462981468
 20
-517.6210646528814
 30
0.0
  0
VERTEX
  5
150
330
14B
100
AcDbEntity
  8
Layer 1
370
     0
100
AcDbVertex
100
AcDb2dVertex
 10
209.6551463002474
 20
-517.6210646528814
 30
0.0
  0
SEQEND
  5
152
330
14B
100
AcDbEntity
  8
Layer 1
370
     0
  0
HATCH
  5
151
330
147
100
AcDbEntity
  8
Layer 1
 62
    85
420
  6730542
100
AcDbHatch
 10
0.0
 20
0.0
 30
0.0
210
0.0
220
0.0
230
1.0
  2
SOLID
 70
     1
 71
     0
 91
        1
 92
        1
 93
        4
 72
     1
 10
209.6551463002474
 20
-517.6210646528814
 11
209.6551463002474
 21
-489.7710646598453
 72
     1
 10
209.6551463002474
 20
-489.7710646598453
 11
218.0551462981468
 21
-489.7710646598453
 72
     1
 10
218.0551462981468
 20
-489.7710646598453
 11
218.0551462981468
 21
-517.6210646528814
 72
     1
 10
218.0551462981468
 20
-517.6210646528814
 11
209.6551463002474
 21
-517.6210646528814
 97
        0
 75
     2
 76
     1
 98
        0
  0
SPLINE
  5
153
330
147
100
AcDbEntity
  8
Layer 1
370
     0
100
AcDbSpline
210
0.0
220
0.0
230
1.0
 70
    11
 71
     3
 72
    17
 73
    13
 74
     0
 42
0.0000000001
 43
0.0000000001
 12
1.0
 22
0.0
 32
0.0
 13
1.0
 23
0.0
 33
0.0
 40
0.0
 40
0.0
 40
0.0
 40
0.0
 40
1.0
 40
1.0
 40
1.0
 40
2.0
 40
2.0
 40
2.0
 40
3.0
 40
3.0
 40
3.0
 40
4.0
 40
4.0
 40
4.0
 40
4.0
 10
214.6051462990096
 20
-512.4710646541693
 30
0.0
 10
214.6051462990096
 20
-512.8852782164163
 30
0.0
 10
214.2693598614431
 20
-513.2210646539818
 30
0.0
 10
213.8551462991974
 20
-513.2210646539818
 30
0.0
 10
213.4409327369517
 20
-513.2210646539818
 30
0.0
 10
213.1051462993843
 20
-512.8852782164163
 30
0.0
 10
213.1051462993843
 20
-512.4710646541693
 30
0.0
 10
213.1051462993843
 20
-512.0568510919217
 30
0.0
 10
213.4409327369517
 20
-511.7210646543562
 30
0.0
 10
213.8551462991974
 20
-511.7210646543562
 30
0.0
 10
214.2693598614431
 20
-511.7210646543562
 30
0.0
 10
214.6051462990096
 20
-512.0568510919217
 30
0.0
 10
214.6051462990096
 20
-512.4710646541693
 30
0.0
  0
HATCH
  5
154
330
147
100
AcDbEntity
  8
Layer 1
 62
   250
420
  1842203
100
AcDbHatch
 10
0.0
 20
0.0
 30
0.0
210
0.0
220
0.0
230
1.0
  2
SOLID
 70
     1
 71
     0
 91
        1
 92
        1
 93
        1
 72
     4
 94
        3
 73
     0
 74
     1
 95
       17
 96
       13
 40
0.0
 40
0.0
 40
0.0
 40
0.0
 40
1.0
 40
1.0
 40
1.0
 40
2.0
 40
2.0
 40
2.0
 40
3.0
 40
3.0
 40
3.0
 40
4.0
 40
4.0
 40
4.0
 40
4.0
 10
214.6051462990096
 20
-512.4710646541693
 10
214.6051462990096
 20
-512.8852782164163
 10
214.2693598614431
 20
-513.2210646539818
 10
213.8551462991974
 20
-513.2210646539818
 10
213.4409327369517
 20
-513.2210646539818
 10
213.1051462993843
 20
-512.8852782164163
 10
213.1051462993843
 20
-512.4710646541693
 10
213.1051462993843
 20
-512.0568510919217
 10
213.4409327369517
 20
-511.7210646543562
 10
213.8551462991974
 20
-511.7210646543562
 10
214.2693598614431
 20
-511.7210646543562
 10
214.6051462990096
 20
-512.0568510919217
 10
214.6051462990096
 20
-512.4710646541693
 97
        0
 97
        0
 75
     2
 76
     1
 98
        0
  0
SPLINE
  5
155
330
147
100
AcDbEntity
  8
Layer 1
370
     0
100
AcDbSpline
210
0.0
220
0.0
230
1.0
 70
    11
 71
     3
 72
    17
 73
    13
 74
     0
 42
0.0000000001
 43
0.0000000001
 12
1.0
 22
0.0
 32
0.0
 13
1.0
 23
0.0
 33
0.0
 40
0.0
 40
0.0
 40
0.0
 40
0.0
 40
1.0
 40
1.0
 40
1.0
 40
2.0
 40
2.0
 40
2.0
 40
3.0
 40
3.0
 40
3.0
 40
4.0
 40
4.0
 40
4.0
 40
4.0
 10
214.6051462990096
 20
-494.9210646585574
 30
0.0
 10
214.6051462990096
 20
-495.3352782208012
 30
0.0
 10
214.2693598614431
 20
-495.6710646583705
 30
0.0
 10
213.8551462991974
 20
-495.6710646583705
 30
0.0
 10
213.4409327369517
 20
-495.6710646583705
 30
0.0
 10
213.1051462993843
 20
-495.3352782208012
 30
0.0
 10
213.1051462993843
 20
-494.9210646585574
 30
0.0
 10
213.1051462993843
 20
-494.5068510963098
 30
0.0
 10
213.4409327369517
 20
-494.1710646587443
 30
0.0
 10
213.8551462991974
 20
-494.1710646587443
 30
0.0
 10
214.2693598614431
 20
-494.1710646587443
 30
0.0
 10
214.6051462990096
 20
-494.5068510963098
 30
0.0
 10
214.6051462990096
 20
-494.9210646585574
 30
0.0
  0
HATCH
  5
156
330
147
100
AcDbEntity
  8
Layer 1
 62
   250
420
  1842203
100
AcDbHatch
 10
0.0
 20
0.0
 30
0.0
210
0.0
220
0.0
230
1.0
  2
SOLID
 70
     1
 71
     0
 91
        1
 92
        1
 93
        1
 72
     4
 94
        3
 73
     0
 74
     1
 95
       17
 96
       13
 40
0.0
 40
0.0
 40
0.0
 40
0.0
 40
1.0
 40
1.0
 40
1.0
 40
2.0
 40
2.0
 40
2.0
 40
3.0
 40
3.0
 40
3.0
 40
4.0
 40
4.0
 40
4.0
 40
4.0
 10
214.6051462990096
 20
-494.9210646585574
 10
214.6051462990096
 20
-495.3352782208012
 10
214.2693598614431
 20
-495.6710646583705
 10
213.8551462991974
 20
-495.6710646583705
 10
213.4409327369517
 20
-495.6710646583705
 10
213.1051462993843
 20
-495.3352782208012
 10
213.1051462993843
 20
-494.9210646585574
 10
213.1051462993843
 20
-494.5068510963098
 10
213.4409327369517
 20
-494.1710646587443
 10
213.8551462991974
 20
-494.1710646587443
 10
214.2693598614431
 20
-494.1710646587443
 10
214.6051462990096
 20
-494.5068510963098
 10
214.6051462990096
 20
-494.9210646585574
 97
        0
 97
        0
 75
     2
 76
     1
 98
        0
  0
ENDBLK
  5
14A
330
147
100
AcDbEntity
  8
0
100
AcDbBlockEnd
  0
BLOCK
  5
159
330
157
100
AcDbEntity
  8
0
100
AcDbBlockBegin
  2
block 5
 70
     0
 10
0.0
 20
0.0
 30
0.0
  3
block 5
  1

  0
SPLINE
  5
15B
330
157
100
AcDbEntity
  8
Layer 1
 62
   197
420
  6693762
370
    35
100
AcDbSpline
210
0.0
220
0.0
230
1.0
 70
    11
 71
     3
 72
    17
 73
    13
 74
     0
 42
0.0000000001
 43
0.0000000001
 12
1.0
 22
0.0
 32
0.0
 13
1.0
 23
0.0
 33
0.0
 40
0.0
 40
0.0
 40
0.0
 40
0.0
 40
1.0
 40
1.0
 40
1.0
 40
2.0
 40
2.0
 40
2.0
 40
3.0
 40
3.0
 40
3.0
 40
4.0
 40
4.0
 40
4.0
 40
4.0
 10
623.2940474632234
 20
-89.15476188247364
 30
0.0
 10
616.3904880924498
 20
-89.15476188247364
 30
0.0
 10
610.794047466349
 20
-83.55832125637275
 30
0.0
 10
610.794047466349
 20
-76.65476188559859
 30
0.0
 10
610.794047466349
 20
-69.75120251482444
 30
0.0
 10
616.3904880924498
 20
-64.15476188872356
 30
0.0
 10
623.2940474632234
 20
-64.15476188872356
 30
0.0
 10
630.1976068340001
 20
-64.15476188872356
 30
0.0
 10
635.7940474600978
 20
-69.75120251482444
 30
0.0
 10
635.7940474600978
 20
-76.65476188559859
 30
0.0
 10
635.7940474600978
 20
-83.55832125637275
 30
0.0
 10
630.1976068340001
 20
-89.15476188247364
 30
0.0
 10
623.2940474632234
 20
-89.15476188247364
 30
0.0
  0
SPLINE
  5
15C
330
157
100
AcDbEntity
  8
Layer 1
370
     0
100
AcDbSpline
210
0.0
220
0.0
230
1.0
 70
    11
 71
     3
 72
    17
 73
    13
 74
     0
 42
0.0000000001
 43
0.0000000001
 12
1.0
 22
0.0
 32
0.0
 13
1.0
 23
0.0
 33
0.0
 40
0.0
 40
0.0
 40
0.0
 40
0.0
 40
1.0
 40
1.0
 40
1.0
 40
2.0
 40
2.0
 40
2.0
 40
3.0
 40
3.0
 40
3.0
 40
4.0
 40
4.0
 40
4.0
 40
4.0
 10
623.2940474632234
 20
-78.15476188522358
 30
0.0
 10
622.465620338732
 20
-78.15476188522358
 30
0.0
 10
621.7940474636009
 20
-77.4831890100922
 30
0.0
 10
621.7940474636009
 20
-76.65476188559859
 30
0.0
 10
621.7940474636009
 20
-75.82633476110563
 30
0.0
 10
622.465620338732
 20
-75.15476188597361
 30
0.0
 10
623.2940474632234
 20
-75.15476188597361
 30
0.0
 10
624.1224745877179
 20
-75.15476188597361
 30
0.0
 10
624.794047462849
 20
-75.82633476110563
 30
0.0
 10
624.794047462849
 20
-76.65476188559859
 30
0.0
 10
624.794047462849
 20
-77.4831890100922
 30
0.0
 10
624.1224745877179
 20
-78.15476188522358
 30
0.0
 10
623.2940474632234
 20
-78.15476188522358
 30
0.0
  0
HATCH
  5
15D
330
157
100
AcDbEntity
  8
Layer 1
 62
   250
420
  1842203
100
AcDbHatch
 10
0.0
 20
0.0
 30
0.0
210
0.0
220
0.0
230
1.0
  2
SOLID
 70
     1
 71
     0
 91
        1
 92
        1
 93
        1
 72
     4
 94
        3
 73
     0
 74
     1
 95
       17
 96
       13
 40
0.0
 40
0.0
 40
0.0
 40
0.0
 40
1.0
 40
1.0
 40
1.0
 40
2.0
 40
2.0
 40
2.0
 40
3.0
 40
3.0
 40
3.0
 40
4.0
 40
4.0
 40
4.0
 40
4.0
 10
623.2940474632234
 20
-78.15476188522358
 10
622.465620338732
 20
-78.15476188522358
 10
621.7940474636009
 20
-77.4831890100922
 10
621.7940474636009
 20
-76.65476188559859
 10
621.7940474636009
 20
-75.82633476110563
 10
622.465620338732
 20
-75.15476188597361
 10
623.2940474632234
 20
-75.15476188597361
 10
624.1224745877179
 20
-75.15476188597361
 10
624.794047462849
 20
-75.82633476110563
 10
624.794047462849
 20
-76.65476188559859
 10
624.794047462849
 20
-77.4831890100922
 10
624.1224745877179
 20
-78.15476188522358
 10
623.2940474632234
 20
-78.15476188522358
 97
        0
 97
        0
 75
     2
 76
     1
 98
        0
  0
ENDBLK
  5
15A
330
157
100
AcDbEntity
  8
0
100
AcDbBlockEnd
  0
BLOCK
  5
160
330
15E
100
AcDbEntity
  8
0
100
AcDbBlockBegin
  2
block 6
 70
     0
 10
0.0
 20
0.0
 30
0.0
  3
block 6
  1

  0
SPLINE
  5
162
330
15E
100
AcDbEntity
  8
Layer 1
 62
   197
420
  6693762
370
    35
100
AcDbSpline
210
0.0
220
0.0
230
1.0
 70
    11
 71
     3
 72
    17
 73
    13
 74
     0
 42
0.0000000001
 43
0.0000000001
 12
1.0
 22
0.0
 32
0.0
 13
1.0
 23
0.0
 33
0.0
 40
0.0
 40
0.0
 40
0.0
 40
0.0
 40
1.0
 40
1.0
 40
1.0
 40
2.0
 40
2.0
 40
2.0
 40
3.0
 40
3.0
 40
3.0
 40
4.0
 40
4.0
 40
4.0
 40
4.0
 10
76.51626982214079
 20
-89.15476188247364
 30
0.0
 10
69.61271045136792
 20
-89.15476188247364
 30
0.0
 10
64.01626982526638
 20
-83.55832125637275
 30
0.0
 10
64.01626982526638
 20
-76.65476188559859
 30
0.0
 10
64.01626982526638
 20
-69.75120251482444
 30
0.0
 10
69.61271045136792
 20
-64.15476188872356
 30
0.0
 10
76.51626982214079
 20
-64.15476188872356
 30
0.0
 10
83.41982919291493
 20
-64.15476188872356
 30
0.0
 10
89.01626981901519
 20
-69.75120251482444
 30
0.0
 10
89.01626981901519
 20
-76.65476188559859
 30
0.0
 10
89.01626981901519
 20
-83.55832125637275
 30
0.0
 10
83.41982919291493
 20
-89.15476188247364
 30
0.0
 10
76.51626982214079
 20
-89.15476188247364
 30
0.0
  0
SPLINE
  5
163
330
15E
100
AcDbEntity
  8
Layer 1
370
     0
100
AcDbSpline
210
0.0
220
0.0
230
1.0
 70
    11
 71
     3
 72
    17
 73
    13
 74
     0
 42
0.0000000001
 43
0.0000000001
 12
1.0
 22
0.0
 32
0.0
 13
1.0
 23
0.0
 33
0.0
 40
0.0
 40
0.0
 40
0.0
 40
0.0
 40
1.0
 40
1.0
 40
1.0
 40
2.0
 40
2.0
 40
2.0
 40
3.0
 40
3.0
 40
3.0
 40
4.0
 40
4.0
 40
4.0
 40
4.0
 10
76.51626982214079
 20
-78.15476188522358
 30
0.0
 10
75.68784269764943
 20
-78.15476188522358
 30
0.0
 10
75.0162698225142
 20
-77.4831890100922
 30
0.0
 10
75.0162698225142
 20
-76.65476188559859
 30
0.0
 10
75.0162698225142
 20
-75.82633476110563
 30
0.0
 10
75.68784269764943
 20
-75.15476188597361
 30
0.0
 10
76.51626982214079
 20
-75.15476188597361
 30
0.0
 10
77.34469694663599
 20
-75.15476188597361
 30
0.0
 10
78.01626982176705
 20
-75.82633476110563
 30
0.0
 10
78.01626982176705
 20
-76.65476188559859
 30
0.0
 10
78.01626982176705
 20
-77.4831890100922
 30
0.0
 10
77.34469694663599
 20
-78.15476188522358
 30
0.0
 10
76.51626982214079
 20
-78.15476188522358
 30
0.0
  0
HATCH
  5
164
330
15E
100
AcDbEntity
  8
Layer 1
 62
   250
420
  1842203
100
AcDbHatch
 10
0.0
 20
0.0
 30
0.0
210
0.0
220
0.0
230
1.0
  2
SOLID
 70
     1
 71
     0
 91
        1
 92
        1
 93
        1
 72
     4
 94
        3
 73
     0
 74
     1
 95
       17
 96
       13
 40
0.0
 40
0.0
 40
0.0
 40
0.0
 40
1.0
 40
1.0
 40
1.0
 40
2.0
 40
2.0
 40
2.0
 40
3.0
 40
3.0
 40
3.0
 40
4.0
 40
4.0
 40
4.0
 40
4.0
 10
76.51626982214079
 20
-78.15476188522358
 10
75.68784269764943
 20
-78.15476188522358
 10
75.0162698225142
 20
-77.4831890100922
 10
75.0162698225142
 20
-76.65476188559859
 10
75.0162698225142
 20
-75.82633476110563
 10
75.68784269764943
 20
-75.15476188597361
 10
76.51626982214079
 20
-75.15476188597361
 10
77.34469694663599
 20
-75.15476188597361
 10
78.01626982176705
 20
-75.82633476110563
 10
78.01626982176705
 20
-76.65476188559859
 10
78.01626982176705
 20
-77.4831890100922
 10
77.34469694663599
 20
-78.15476188522358
 10
76.51626982214079
 20
-78.15476188522358
 97
        0
 97
        0
 75
     2
 76
     1
 98
        0
  0
ENDBLK
  5
161
330
15E
100
AcDbEntity
  8
0
100
AcDbBlockEnd
  0
BLOCK
  5
167
330
165
100
AcDbEntity
  8
0
100
AcDbBlockBegin
  2
block 7
 70
     0
 10
0.0
 20
0.0
 30
0.0
  3
block 7
  1

  0
SPLINE
  5
169
330
165
100
AcDbEntity
  8
Layer 1
 62
   197
420
  6693762
370
    35
100
AcDbSpline
210
0.0
220
0.0
230
1.0
 70
    11
 71
     3
 72
    17
 73
    13
 74
     0
 42
0.0000000001
 43
0.0000000001
 12
1.0
 22
0.0
 32
0.0
 13
1.0
 23
0.0
 33
0.0
 40
0.0
 40
0.0
 40
0.0
 40
0.0
 40
1.0
 40
1.0
 40
1.0
 40
2.0
 40
2.0
 40
2.0
 40
3.0
 40
3.0
 40
3.0
 40
4.0
 40
4.0
 40
4.0
 40
4.0
 10
76.51626982214079
 20
-835.9325394735563
 30
0.0
 10
69.61271045136792
 20
-835.9325394735563
 30
0.0
 10
64.01626982526638
 20
-830.3360988474586
 30
0.0
 10
64.01626982526638
 20
-823.4325394766819
 30
0.0
 10
64.01626982526638
 20
-816.5289801059084
 30
0.0
 10
69.61271045136792
 20
-810.9325394798075
 30
0.0
 10
76.51626982214079
 20
-810.9325394798075
 30
0.0
 10
83.41982919291493
 20
-810.9325394798075
 30
0.0
 10
89.01626981901519
 20
-816.5289801059084
 30
0.0
 10
89.01626981901519
 20
-823.4325394766819
 30
0.0
 10
89.01626981901519
 20
-830.3360988474586
 30
0.0
 10
83.41982919291493
 20
-835.9325394735563
 30
0.0
 10
76.51626982214079
 20
-835.9325394735563
 30
0.0
  0
SPLINE
  5
16A
330
165
100
AcDbEntity
  8
Layer 1
370
     0
100
AcDbSpline
210
0.0
220
0.0
230
1.0
 70
    11
 71
     3
 72
    17
 73
    13
 74
     0
 42
0.0000000001
 43
0.0000000001
 12
1.0
 22
0.0
 32
0.0
 13
1.0
 23
0.0
 33
0.0
 40
0.0
 40
0.0
 40
0.0
 40
0.0
 40
1.0
 40
1.0
 40
1.0
 40
2.0
 40
2.0
 40
2.0
 40
3.0
 40
3.0
 40
3.0
 40
4.0
 40
4.0
 40
4.0
 40
4.0
 10
76.51626982214079
 20
-824.9325394763075
 30
0.0
 10
75.68784269764943
 20
-824.9325394763075
 30
0.0
 10
75.0162698225142
 20
-824.2609666011765
 30
0.0
 10
75.0162698225142
 20
-823.4325394766819
 30
0.0
 10
75.0162698225142
 20
-822.6041123521906
 30
0.0
 10
75.68784269764943
 20
-821.9325394770557
 30
0.0
 10
76.51626982214079
 20
-821.9325394770557
 30
0.0
 10
77.34469694663599
 20
-821.9325394770557
 30
0.0
 10
78.01626982176705
 20
-822.6041123521906
 30
0.0
 10
78.01626982176705
 20
-823.4325394766819
 30
0.0
 10
78.01626982176705
 20
-824.2609666011765
 30
0.0
 10
77.34469694663599
 20
-824.9325394763075
 30
0.0
 10
76.51626982214079
 20
-824.9325394763075
 30
0.0
  0
HATCH
  5
16B
330
165
100
AcDbEntity
  8
Layer 1
 62
   250
420
  1842203
100
AcDbHatch
 10
0.0
 20
0.0
 30
0.0
210
0.0
220
0.0
230
1.0
  2
SOLID
 70
     1
 71
     0
 91
        1
 92
        1
 93
        1
 72
     4
 94
        3
 73
     0
 74
     1
 95
       17
 96
       13
 40
0.0
 40
0.0
 40
0.0
 40
0.0
 40
1.0
 40
1.0
 40
1.0
 40
2.0
 40
2.0
 40
2.0
 40
3.0
 40
3.0
 40
3.0
 40
4.0
 40
4.0
 40
4.0
 40
4.0
 10
76.51626982214079
 20
-824.9325394763075
 10
75.68784269764943
 20
-824.9325394763075
 10
75.0162698225142
 20
-824.2609666011765
 10
75.0162698225142
 20
-823.4325394766819
 10
75.0162698225142
 20
-822.6041123521906
 10
75.68784269764943
 20
-821.9325394770557
 10
76.51626982214079
 20
-821.9325394770557
 10
77.34469694663599
 20
-821.9325394770557
 10
78.01626982176705
 20
-822.6041123521906
 10
78.01626982176705
 20
-823.4325394766819
 10
78.01626982176705
 20
-824.2609666011765
 10
77.34469694663599
 20
-824.9325394763075
 10
76.51626982214079
 20
-824.9325394763075
 97
        0
 97
        0
 75
     2
 76
     1
 98
        0
  0
ENDBLK
  5
168
330
165
100
AcDbEntity
  8
0
100
AcDbBlockEnd
  0
BLOCK
  5
16E
330
16C
100
AcDbEntity
  8
0
100
AcDbBlockBegin
  2
block 8
 70
     0
 10
0.0
 20
0.0
 30
0.0
  3
block 8
  1

  0
SPLINE
  5
170
330
16C
100
AcDbEntity
  8
Layer 1
 62
   197
420
  6693762
370
    35
100
AcDbSpline
210
0.0
220
0.0
230
1.0
 70
    11
 71
     3
 72
    17
 73
    13
 74
     0
 42
0.0000000001
 43
0.0000000001
 12
1.0
 22
0.0
 32
0.0
 13
1.0
 23
0.0
 33
0.0
 40
0.0
 40
0.0
 40
0.0
 40
0.0
 40
1.0
 40
1.0
 40
1.0
 40
2.0
 40
2.0
 40
2.0
 40
3.0
 40
3.0
 40
3.0
 40
4.0
 40
4.0
 40
4.0
 40
4.0
 10
623.2940474632234
 20
-835.9325394735563
 30
0.0
 10
616.3904880924498
 20
-835.9325394735563
 30
0.0
 10
610.794047466349
 20
-830.3360988474586
 30
0.0
 10
610.794047466349
 20
-823.4325394766819
 30
0.0
 10
610.794047466349
 20
-816.5289801059084
 30
0.0
 10
616.3904880924498
 20
-810.9325394798075
 30
0.0
 10
623.2940474632234
 20
-810.9325394798075
 30
0.0
 10
630.1976068340001
 20
-810.9325394798075
 30
0.0
 10
635.7940474600978
 20
-816.5289801059084
 30
0.0
 10
635.7940474600978
 20
-823.4325394766819
 30
0.0
 10
635.7940474600978
 20
-830.3360988474586
 30
0.0
 10
630.1976068340001
 20
-835.9325394735563
 30
0.0
 10
623.2940474632234
 20
-835.9325394735563
 30
0.0
  0
SPLINE
  5
171
330
16C
100
AcDbEntity
  8
Layer 1
370
     0
100
AcDbSpline
210
0.0
220
0.0
230
1.0
 70
    11
 71
     3
 72
    17
 73
    13
 74
     0
 42
0.0000000001
 43
0.0000000001
 12
1.0
 22
0.0
 32
0.0
 13
1.0
 23
0.0
 33
0.0
 40
0.0
 40
0.0
 40
0.0
 40
0.0
 40
1.0
 40
1.0
 40
1.0
 40
2.0
 40
2.0
 40
2.0
 40
3.0
 40
3.0
 40
3.0
 40
4.0
 40
4.0
 40
4.0
 40
4.0
 10
623.2940474632234
 20
-824.9325394763075
 30
0.0
 10
622.465620338732
 20
-824.9325394763075
 30
0.0
 10
621.7940474636009
 20
-824.2609666011765
 30
0.0
 10
621.7940474636009
 20
-823.4325394766819
 30
0.0
 10
621.7940474636009
 20
-822.6041123521906
 30
0.0
 10
622.465620338732
 20
-821.9325394770557
 30
0.0
 10
623.2940474632234
 20
-821.9325394770557
 30
0.0
 10
624.1224745877179
 20
-821.9325394770557
 30
0.0
 10
624.794047462849
 20
-822.6041123521906
 30
0.0
 10
624.794047462849
 20
-823.4325394766819
 30
0.0
 10
624.794047462849
 20
-824.2609666011765
 30
0.0
 10
624.1224745877179
 20
-824.9325394763075
 30
0.0
 10
623.2940474632234
 20
-824.9325394763075
 30
0.0
  0
HATCH
  5
172
330
16C
100
AcDbEntity
  8
Layer 1
 62
   250
420
  1842203
100
AcDbHatch
 10
0.0
 20
0.0
 30
0.0
210
0.0
220
0.0
230
1.0
  2
SOLID
 70
     1
 71
     0
 91
        1
 92
        1
 93
        1
 72
     4
 94
        3
 73
     0
 74
     1
 95
       17
 96
       13
 40
0.0
 40
0.0
 40
0.0
 40
0.0
 40
1.0
 40
1.0
 40
1.0
 40
2.0
 40
2.0
 40
2.0
 40
3.0
 40
3.0
 40
3.0
 40
4.0
 40
4.0
 40
4.0
 40
4.0
 10
623.2940474632234
 20
-824.9325394763075
 10
622.465620338732
 20
-824.9325394763075
 10
621.7940474636009
 20
-824.2609666011765
 10
621.7940474636009
 20
-823.4325394766819
 10
621.7940474636009
 20
-822.6041123521906
 10
622.465620338732
 20
-821.9325394770557
 10
623.2940474632234
 20
-821.9325394770557
 10
624.1224745877179
 20
-821.9325394770557
 10
624.794047462849
 20
-822.6041123521906
 10
624.794047462849
 20
-823.4325394766819
 10
624.794047462849
 20
-824.2609666011765
 10
624.1224745877179
 20
-824.9325394763075
 10
623.2940474632234
 20
-824.9325394763075
 97
        0
 97
        0
 75
     2
 76
     1
 98
        0
  0
ENDBLK
  5
16F
330
16C
100
AcDbEntity
  8
0
100
AcDbBlockEnd
  0
BLOCK
  5
17C
330
17A
100
AcDbEntity
  8
0
100
AcDbBlockBegin
  2
block 9
 70
     0
 10
0.0
 20
0.0
 30
0.0
  3
block 9
  1

  0
SPLINE
  5
17E
330
17A
100
AcDbEntity
  8
Layer 1
 62
   197
420
  6693762
370
    35
100
AcDbSpline
210
0.0
220
0.0
230
1.0
 70
    11
 71
     3
 72
    17
 73
    13
 74
     0
 42
0.0000000001
 43
0.0000000001
 12
1.0
 22
0.0
 32
0.0
 13
1.0
 23
0.0
 33
0.0
 40
0.0
 40
0.0
 40
0.0
 40
0.0
 40
1.0
 40
1.0
 40
1.0
 40
2.0
 40
2.0
 40
2.0
 40
3.0
 40
3.0
 40
3.0
 40
4.0
 40
4.0
 40
4.0
 40
4.0
 10
440.6195236863937
 20
-454.928783117351
 30
0.0
 10
433.7159643156208
 20
-454.928783117351
 30
0.0
 10
428.1195236895193
 20
-449.3323424912533
 30
0.0
 10
428.1195236895193
 20
-442.4287831204766
 30
0.0
 10
428.1195236895193
 20
-435.5252237497031
 30
0.0
 10
433.7159643156208
 20
-429.9287831236022
 30
0.0
 10
440.6195236863937
 20
-429.9287831236022
 30
0.0
 10
447.5230830571678
 20
-429.9287831236022
 30
0.0
 10
453.1195236832681
 20
-435.5252237497031
 30
0.0
 10
453.1195236832681
 20
-442.4287831204766
 30
0.0
 10
453.1195236832681
 20
-449.3323424912533
 30
0.0
 10
447.5230830571678
 20
-454.928783117351
 30
0.0
 10
440.6195236863937
 20
-454.928783117351
 30
0.0
  0
SPLINE
  5
17F
330
17A
100
AcDbEntity
  8
Layer 1
370
     0
100
AcDbSpline
210
0.0
220
0.0
230
1.0
 70
    11
 71
     3
 72
    17
 73
    13
 74
     0
 42
0.0000000001
 43
0.0000000001
 12
1.0
 22
0.0
 32
0.0
 13
1.0
 23
0.0
 33
0.0
 40
0.0
 40
0.0
 40
0.0
 40
0.0
 40
1.0
 40
1.0
 40
1.0
 40
2.0
 40
2.0
 40
2.0
 40
3.0
 40
3.0
 40
3.0
 40
4.0
 40
4.0
 40
4.0
 40
4.0
 10
440.6195236863937
 20
-443.9287831201023
 30
0.0
 10
439.7910965619024
 20
-443.9287831201023
 30
0.0
 10
439.1195236867674
 20
-443.2572102449712
 30
0.0
 10
439.1195236867674
 20
-442.4287831204766
 30
0.0
 10
439.1195236867674
 20
-441.6003559959852
 30
0.0
 10
439.7910965619024
 20
-440.9287831208504
 30
0.0
 10
440.6195236863937
 20
-440.9287831208504
 30
0.0
 10
441.4479508108889
 20
-440.9287831208504
 30
0.0
 10
442.1195236860199
 20
-441.6003559959852
 30
0.0
 10
442.1195236860199
 20
-442.4287831204766
 30
0.0
 10
442.1195236860199
 20
-443.2572102449712
 30
0.0
 10
441.4479508108889
 20
-443.9287831201023
 30
0.0
 10
440.6195236863937
 20
-443.9287831201023
 30
0.0
  0
HATCH
  5
180
330
17A
100
AcDbEntity
  8
Layer 1
 62
   250
420
  1842203
100
AcDbHatch
 10
0.0
 20
0.0
 30
0.0
210
0.0
220
0.0
230
1.0
  2
SOLID
 70
     1
 71
     0
 91
        1
 92
        1
 93
        1
 72
     4
 94
        3
 73
     0
 74
     1
 95
       17
 96
       13
 40
0.0
 40
0.0
 40
0.0
 40
0.0
 40
1.0
 40
1.0
 40
1.0
 40
2.0
 40
2.0
 40
2.0
 40
3.0
 40
3.0
 40
3.0
 40
4.0
 40
4.0
 40
4.0
 40
4.0
 10
440.6195236863937
 20
-443.9287831201023
 10
439.7910965619024
 20
-443.9287831201023
 10
439.1195236867674
 20
-443.2572102449712
 10
439.1195236867674
 20
-442.4287831204766
 10
439.1195236867674
 20
-441.6003559959852
 10
439.7910965619024
 20
-440.9287831208504
 10
440.6195236863937
 20
-440.9287831208504
 10
441.4479508108889
 20
-440.9287831208504
 10
442.1195236860199
 20
-441.6003559959852
 10
442.1195236860199
 20
-442.4287831204766
 10
442.1195236860199
 20
-443.2572102449712
 10
441.4479508108889
 20
-443.9287831201023
 10
440.6195236863937
 20
-443.9287831201023
 97
        0
 97
        0
 75
     2
 76
     1
 98
        0
  0
ENDBLK
  5
17D
330
17A
100
AcDbEntity
  8
0
100
AcDbBlockEnd
  0
BLOCK
  5
183
330
181
100
AcDbEntity
  8
0
100
AcDbBlockBegin
  2
block 10
 70
     0
 10
0.0
 20
0.0
 30
0.0
  3
block 10
  1

  0
SPLINE
  5
185
330
181
100
AcDbEntity
  8
Layer 1
 62
   197
420
  6693762
370
    35
100
AcDbSpline
210
0.0
220
0.0
230
1.0
 70
    11
 71
     3
 72
    17
 73
    13
 74
     0
 42
0.0000000001
 43
0.0000000001
 12
1.0
 22
0.0
 32
0.0
 13
1.0
 23
0.0
 33
0.0
 40
0.0
 40
0.0
 40
0.0
 40
0.0
 40
1.0
 40
1.0
 40
1.0
 40
2.0
 40
2.0
 40
2.0
 40
3.0
 40
3.0
 40
3.0
 40
4.0
 40
4.0
 40
4.0
 40
4.0
 10
231.3522609682362
 20
-430.5027228567546
 30
0.0
 10
224.4487015974634
 20
-430.5027228567546
 30
0.0
 10
218.8522609713618
 20
-424.9062822306569
 30
0.0
 10
218.8522609713618
 20
-418.0027228598802
 30
0.0
 10
218.8522609713618
 20
-411.0991634891067
 30
0.0
 10
224.4487015974634
 20
-405.5027228630058
 30
0.0
 10
231.3522609682362
 20
-405.5027228630058
 30
0.0
 10
238.2558203390104
 20
-405.5027228630058
 30
0.0
 10
243.8522609651106
 20
-411.0991634891067
 30
0.0
 10
243.8522609651106
 20
-418.0027228598802
 30
0.0
 10
243.8522609651106
 20
-424.9062822306569
 30
0.0
 10
238.2558203390104
 20
-430.5027228567546
 30
0.0
 10
231.3522609682362
 20
-430.5027228567546
 30
0.0
  0
SPLINE
  5
186
330
181
100
AcDbEntity
  8
Layer 1
370
     0
100
AcDbSpline
210
0.0
220
0.0
230
1.0
 70
    11
 71
     3
 72
    17
 73
    13
 74
     0
 42
0.0000000001
 43
0.0000000001
 12
1.0
 22
0.0
 32
0.0
 13
1.0
 23
0.0
 33
0.0
 40
0.0
 40
0.0
 40
0.0
 40
0.0
 40
1.0
 40
1.0
 40
1.0
 40
2.0
 40
2.0
 40
2.0
 40
3.0
 40
3.0
 40
3.0
 40
4.0
 40
4.0
 40
4.0
 40
4.0
 10
231.3522609682362
 20
-419.5027228595058
 30
0.0
 10
230.5238338437449
 20
-419.5027228595058
 30
0.0
 10
229.85226096861
 20
-418.8311499843747
 30
0.0
 10
229.85226096861
 20
-418.0027228598802
 30
0.0
 10
229.85226096861
 20
-417.1742957353888
 30
0.0
 10
230.5238338437449
 20
-416.5027228602539
 30
0.0
 10
231.3522609682362
 20
-416.5027228602539
 30
0.0
 10
232.1806880927314
 20
-416.5027228602539
 30
0.0
 10
232.8522609678625
 20
-417.1742957353888
 30
0.0
 10
232.8522609678625
 20
-418.0027228598802
 30
0.0
 10
232.8522609678625
 20
-418.8311499843747
 30
0.0
 10
232.1806880927314
 20
-419.5027228595058
 30
0.0
 10
231.3522609682362
 20
-419.5027228595058
 30
0.0
  0
HATCH
  5
187
330
181
100
AcDbEntity
  8
Layer 1
 62
   250
420
  1842203
100
AcDbHatch
 10
0.0
 20
0.0
 30
0.0
210
0.0
220
0.0
230
1.0
  2
SOLID
 70
     1
 71
     0
 91
        1
 92
        1
 93
        1
 72
     4
 94
        3
 73
     0
 74
     1
 95
       17
 96
       13
 40
0.0
 40
0.0
 40
0.0
 40
0.0
 40
1.0
 40
1.0
 40
1.0
 40
2.0
 40
2.0
 40
2.0
 40
3.0
 40
3.0
 40
3.0
 40
4.0
 40
4.0
 40
4.0
 40
4.0
 10
231.3522609682362
 20
-419.5027228595058
 10
230.5238338437449
 20
-419.5027228595058
 10
229.85226096861
 20
-418.8311499843747
 10
229.85226096861
 20
-418.0027228598802
 10
229.85226096861
 20
-417.1742957353888
 10
230.5238338437449
 20
-416.5027228602539
 10
231.3522609682362
 20
-416.5027228602539
 10
232.1806880927314
 20
-416.5027228602539
 10
232.8522609678625
 20
-417.1742957353888
 10
232.8522609678625
 20
-418.0027228598802
 10
232.8522609678625
 20
-418.8311499843747
 10
232.1806880927314
 20
-419.5027228595058
 10
231.3522609682362
 20
-419.5027228595058
 97
        0
 97
        0
 75
     2
 76
     1
 98
        0
  0
ENDBLK
  5
184
330
181
100
AcDbEntity
  8
0
100
AcDbBlockEnd
  0
BLOCK
  5
18A
330
188
100
AcDbEntity
  8
0
100
AcDbBlockBegin
  2
block 11
 70
     0
 10
0.0
 20
0.0
 30
0.0
  3
block 11
  1

  0
SPLINE
  5
18C
330
188
100
AcDbEntity
  8
Layer 1
 62
   197
420
  6693762
370
    35
100
AcDbSpline
210
0.0
220
0.0
230
1.0
 70
    11
 71
     3
 72
    17
 73
    13
 74
     0
 42
0.0000000001
 43
0.0000000001
 12
1.0
 22
0.0
 32
0.0
 13
1.0
 23
0.0
 33
0.0
 40
0.0
 40
0.0
 40
0.0
 40
0.0
 40
1.0
 40
1.0
 40
1.0
 40
2.0
 40
2.0
 40
2.0
 40
3.0
 40
3.0
 40
3.0
 40
4.0
 40
4.0
 40
4.0
 40
4.0
 10
349.905142460773
 20
-842.5711143087849
 30
0.0
 10
343.0015830900002
 20
-842.5711143087849
 30
0.0
 10
337.4051424638986
 20
-836.9746736826872
 30
0.0
 10
337.4051424638986
 20
-830.0711143119105
 30
0.0
 10
337.4051424638986
 20
-823.167554941137
 30
0.0
 10
343.0015830900002
 20
-817.5711143150361
 30
0.0
 10
349.905142460773
 20
-817.5711143150361
 30
0.0
 10
356.8087018315466
 20
-817.5711143150361
 30
0.0
 10
362.4051424576468
 20
-823.167554941137
 30
0.0
 10
362.4051424576468
 20
-830.0711143119105
 30
0.0
 10
362.4051424576468
 20
-836.9746736826872
 30
0.0
 10
356.8087018315466
 20
-842.5711143087849
 30
0.0
 10
349.905142460773
 20
-842.5711143087849
 30
0.0
  0
SPLINE
  5
18D
330
188
100
AcDbEntity
  8
Layer 1
370
     0
100
AcDbSpline
210
0.0
220
0.0
230
1.0
 70
    11
 71
     3
 72
    17
 73
    13
 74
     0
 42
0.0000000001
 43
0.0000000001
 12
1.0
 22
0.0
 32
0.0
 13
1.0
 23
0.0
 33
0.0
 40
0.0
 40
0.0
 40
0.0
 40
0.0
 40
1.0
 40
1.0
 40
1.0
 40
2.0
 40
2.0
 40
2.0
 40
3.0
 40
3.0
 40
3.0
 40
4.0
 40
4.0
 40
4.0
 40
4.0
 10
349.905142460773
 20
-831.5711143115361
 30
0.0
 10
349.0767153362817
 20
-831.5711143115361
 30
0.0
 10
348.4051424611462
 20
-830.899541436405
 30
0.0
 10
348.4051424611462
 20
-830.0711143119105
 30
0.0
 10
348.4051424611462
 20
-829.2426871874192
 30
0.0
 10
349.0767153362817
 20
-828.5711143122842
 30
0.0
 10
349.905142460773
 20
-828.5711143122842
 30
0.0
 10
350.7335695852676
 20
-828.5711143122842
 30
0.0
 10
351.4051424603987
 20
-829.2426871874192
 30
0.0
 10
351.4051424603987
 20
-830.0711143119105
 30
0.0
 10
351.4051424603987
 20
-830.899541436405
 30
0.0
 10
350.7335695852676
 20
-831.5711143115361
 30
0.0
 10
349.905142460773
 20
-831.5711143115361
 30
0.0
  0
HATCH
  5
18E
330
188
100
AcDbEntity
  8
Layer 1
 62
   250
420
  1842203
100
AcDbHatch
 10
0.0
 20
0.0
 30
0.0
210
0.0
220
0.0
230
1.0
  2
SOLID
 70
     1
 71
     0
 91
        1
 92
        1
 93
        1
 72
     4
 94
        3
 73
     0
 74
     1
 95
       17
 96
       13
 40
0.0
 40
0.0
 40
0.0
 40
0.0
 40
1.0
 40
1.0
 40
1.0
 40
2.0
 40
2.0
 40
2.0
 40
3.0
 40
3.0
 40
3.0
 40
4.0
 40
4.0
 40
4.0
 40
4.0
 10
349.905142460773
 20
-831.5711143115361
 10
349.0767153362817
 20
-831.5711143115361
 10
348.4051424611462
 20
-830.899541436405
 10
348.4051424611462
 20
-830.0711143119105
 10
348.4051424611462
 20
-829.2426871874192
 10
349.0767153362817
 20
-828.5711143122842
 10
349.905142460773
 20
-828.5711143122842
 10
350.7335695852676
 20
-828.5711143122842
 10
351.4051424603987
 20
-829.2426871874192
 10
351.4051424603987
 20
-830.0711143119105
 10
351.4051424603987
 20
-830.899541436405
 10
350.7335695852676
 20
-831.5711143115361
 10
349.905142460773
 20
-831.5711143115361
 97
        0
 97
        0
 75
     2
 76
     1
 98
        0
  0
ENDBLK
  5
18B
330
188
100
AcDbEntity
  8
0
100
AcDbBlockEnd
  0
BLOCK
  5
191
330
18F
100
AcDbEntity
  8
0
100
AcDbBlockBegin
  2
block 12
 70
     0
 10
0.0
 20
0.0
 30
0.0
  3
block 12
  1

  0
SPLINE
  5
193
330
18F
100
AcDbEntity
  8
Layer 1
 62
   197
420
  6693762
370
    35
100
AcDbSpline
210
0.0
220
0.0
230
1.0
 70
    11
 71
     3
 72
    17
 73
    13
 74
     0
 42
0.0000000001
 43
0.0000000001
 12
1.0
 22
0.0
 32
0.0
 13
1.0
 23
0.0
 33
0.0
 40
0.0
 40
0.0
 40
0.0
 40
0.0
 40
1.0
 40
1.0
 40
1.0
 40
2.0
 40
2.0
 40
2.0
 40
3.0
 40
3.0
 40
3.0
 40
4.0
 40
4.0
 40
4.0
 40
4.0
 10
571.3073788619448
 20
-645.2586646401398
 30
0.0
 10
564.4038194911719
 20
-645.2586646401398
 30
0.0
 10
558.8073788650704
 20
-639.6622240140421
 30
0.0
 10
558.8073788650704
 20
-632.7586646432654
 30
0.0
 10
558.8073788650704
 20
-625.8551052724926
 30
0.0
 10
564.4038194911719
 20
-620.258664646391
 30
0.0
 10
571.3073788619448
 20
-620.258664646391
 30
0.0
 10
578.2109382327183
 20
-620.258664646391
 30
0.0
 10
583.8073788588185
 20
-625.8551052724926
 30
0.0
 10
583.8073788588185
 20
-632.7586646432654
 30
0.0
 10
583.8073788588185
 20
-639.6622240140421
 30
0.0
 10
578.2109382327183
 20
-645.2586646401398
 30
0.0
 10
571.3073788619448
 20
-645.2586646401398
 30
0.0
  0
SPLINE
  5
194
330
18F
100
AcDbEntity
  8
Layer 1
370
     0
100
AcDbSpline
210
0.0
220
0.0
230
1.0
 70
    11
 71
     3
 72
    17
 73
    13
 74
     0
 42
0.0000000001
 43
0.0000000001
 12
1.0
 22
0.0
 32
0.0
 13
1.0
 23
0.0
 33
0.0
 40
0.0
 40
0.0
 40
0.0
 40
0.0
 40
1.0
 40
1.0
 40
1.0
 40
2.0
 40
2.0
 40
2.0
 40
3.0
 40
3.0
 40
3.0
 40
4.0
 40
4.0
 40
4.0
 40
4.0
 10
571.3073788619448
 20
-634.2586646428916
 30
0.0
 10
570.4789517374535
 20
-634.2586646428916
 30
0.0
 10
569.8073788623179
 20
-633.5870917677606
 30
0.0
 10
569.8073788623179
 20
-632.7586646432654
 30
0.0
 10
569.8073788623179
 20
-631.930237518774
 30
0.0
 10
570.4789517374535
 20
-631.2586646436391
 30
0.0
 10
571.3073788619448
 20
-631.2586646436391
 30
0.0
 10
572.1358059864393
 20
-631.2586646436391
 30
0.0
 10
572.8073788615704
 20
-631.930237518774
 30
0.0
 10
572.8073788615704
 20
-632.7586646432654
 30
0.0
 10
572.8073788615704
 20
-633.5870917677606
 30
0.0
 10
572.1358059864393
 20
-634.2586646428916
 30
0.0
 10
571.3073788619448
 20
-634.2586646428916
 30
0.0
  0
HATCH
  5
195
330
18F
100
AcDbEntity
  8
Layer 1
 62
   250
420
  1842203
100
AcDbHatch
 10
0.0
 20
0.0
 30
0.0
210
0.0
220
0.0
230
1.0
  2
SOLID
 70
     1
 71
     0
 91
        1
 92
        1
 93
        1
 72
     4
 94
        3
 73
     0
 74
     1
 95
       17
 96
       13
 40
0.0
 40
0.0
 40
0.0
 40
0.0
 40
1.0
 40
1.0
 40
1.0
 40
2.0
 40
2.0
 40
2.0
 40
3.0
 40
3.0
 40
3.0
 40
4.0
 40
4.0
 40
4.0
 40
4.0
 10
571.3073788619448
 20
-634.2586646428916
 10
570.4789517374535
 20
-634.2586646428916
 10
569.8073788623179
 20
-633.5870917677606
 10
569.8073788623179
 20
-632.7586646432654
 10
569.8073788623179
 20
-631.930237518774
 10
570.4789517374535
 20
-631.2586646436391
 10
571.3073788619448
 20
-631.2586646436391
 10
572.1358059864393
 20
-631.2586646436391
 10
572.8073788615704
 20
-631.930237518774
 10
572.8073788615704
 20
-632.7586646432654
 10
572.8073788615704
 20
-633.5870917677606
 10
572.1358059864393
 20
-634.2586646428916
 10
571.3073788619448
 20
-634.2586646428916
 97
        0
 97
        0
 75
     2
 76
     1
 98
        0
  0
ENDBLK
  5
192
330
18F
100
AcDbEntity
  8
0
100
AcDbBlockEnd
  0
BLOCK
  5
198
330
196
100
AcDbEntity
  8
0
100
AcDbBlockBegin
  2
block 13
 70
     0
 10
0.0
 20
0.0
 30
0.0
  3
block 13
  1

  0
SPLINE
  5
19A
330
196
100
AcDbEntity
  8
Layer 1
 62
   197
420
  6693762
370
    35
100
AcDbSpline
210
0.0
220
0.0
230
1.0
 70
    11
 71
     3
 72
    17
 73
    13
 74
     0
 42
0.0000000001
 43
0.0000000001
 12
1.0
 22
0.0
 32
0.0
 13
1.0
 23
0.0
 33
0.0
 40
0.0
 40
0.0
 40
0.0
 40
0.0
 40
1.0
 40
1.0
 40
1.0
 40
2.0
 40
2.0
 40
2.0
 40
3.0
 40
3.0
 40
3.0
 40
4.0
 40
4.0
 40
4.0
 40
4.0
 10
623.294047463224
 20
-462.5436506780145
 30
0.0
 10
616.3904880924512
 20
-462.5436506780145
 30
0.0
 10
610.7940474663496
 20
-456.9472100519168
 30
0.0
 10
610.7940474663496
 20
-450.0436506811401
 30
0.0
 10
610.7940474663496
 20
-443.1400913103672
 30
0.0
 10
616.3904880924512
 20
-437.5436506842657
 30
0.0
 10
623.294047463224
 20
-437.5436506842657
 30
0.0
 10
630.1976068339968
 20
-437.5436506842657
 30
0.0
 10
635.7940474600971
 20
-443.1400913103672
 30
0.0
 10
635.7940474600971
 20
-450.0436506811401
 30
0.0
 10
635.7940474600971
 20
-456.9472100519168
 30
0.0
 10
630.1976068339968
 20
-462.5436506780145
 30
0.0
 10
623.294047463224
 20
-462.5436506780145
 30
0.0
  0
SPLINE
  5
19B
330
196
100
AcDbEntity
  8
Layer 1
370
     0
100
AcDbSpline
210
0.0
220
0.0
230
1.0
 70
    11
 71
     3
 72
    17
 73
    13
 74
     0
 42
0.0000000001
 43
0.0000000001
 12
1.0
 22
0.0
 32
0.0
 13
1.0
 23
0.0
 33
0.0
 40
0.0
 40
0.0
 40
0.0
 40
0.0
 40
1.0
 40
1.0
 40
1.0
 40
2.0
 40
2.0
 40
2.0
 40
3.0
 40
3.0
 40
3.0
 40
4.0
 40
4.0
 40
4.0
 40
4.0
 10
623.294047463224
 20
-451.5436506807663
 30
0.0
 10
622.4656203387326
 20
-451.5436506807663
 30
0.0
 10
621.7940474635965
 20
-450.8720778056353
 30
0.0
 10
621.7940474635965
 20
-450.0436506811401
 30
0.0
 10
621.7940474635965
 20
-449.2152235566487
 30
0.0
 10
622.4656203387326
 20
-448.5436506815138
 30
0.0
 10
623.294047463224
 20
-448.5436506815138
 30
0.0
 10
624.1224745877179
 20
-448.5436506815138
 30
0.0
 10
624.794047462849
 20
-449.2152235566487
 30
0.0
 10
624.794047462849
 20
-450.0436506811401
 30
0.0
 10
624.794047462849
 20
-450.8720778056353
 30
0.0
 10
624.1224745877179
 20
-451.5436506807663
 30
0.0
 10
623.294047463224
 20
-451.5436506807663
 30
0.0
  0
HATCH
  5
19C
330
196
100
AcDbEntity
  8
Layer 1
 62
   250
420
  1842203
100
AcDbHatch
 10
0.0
 20
0.0
 30
0.0
210
0.0
220
0.0
230
1.0
  2
SOLID
 70
     1
 71
     0
 91
        1
 92
        1
 93
        1
 72
     4
 94
        3
 73
     0
 74
     1
 95
       17
 96
       13
 40
0.0
 40
0.0
 40
0.0
 40
0.0
 40
1.0
 40
1.0
 40
1.0
 40
2.0
 40
2.0
 40
2.0
 40
3.0
 40
3.0
 40
3.0
 40
4.0
 40
4.0
 40
4.0
 40
4.0
 10
623.294047463224
 20
-451.5436506807663
 10
622.4656203387326
 20
-451.5436506807663
 10
621.7940474635965
 20
-450.8720778056353
 10
621.7940474635965
 20
-450.0436506811401
 10
621.7940474635965
 20
-449.2152235566487
 10
622.4656203387326
 20
-448.5436506815138
 10
623.294047463224
 20
-448.5436506815138
 10
624.1224745877179
 20
-448.5436506815138
 10
624.794047462849
 20
-449.2152235566487
 10
624.794047462849
 20
-450.0436506811401
 10
624.794047462849
 20
-450.8720778056353
 10
624.1224745877179
 20
-451.5436506807663
 10
623.294047463224
 20
-451.5436506807663
 97
        0
 97
        0
 75
     2
 76
     1
 98
        0
  0
ENDBLK
  5
199
330
196
100
AcDbEntity
  8
0
100
AcDbBlockEnd
  0
BLOCK
  5
19F
330
19D
100
AcDbEntity
  8
0
100
AcDbBlockBegin
  2
block 14
 70
     0
 10
0.0
 20
0.0
 30
0.0
  3
block 14
  1

  0
SPLINE
  5
1A1
330
19D
100
AcDbEntity
  8
Layer 1
 62
   197
420
  6693762
370
    35
100
AcDbSpline
210
0.0
220
0.0
230
1.0
 70
    11
 71
     3
 72
    17
 73
    13
 74
     0
 42
0.0000000001
 43
0.0000000001
 12
1.0
 22
0.0
 32
0.0
 13
1.0
 23
0.0
 33
0.0
 40
0.0
 40
0.0
 40
0.0
 40
0.0
 40
1.0
 40
1.0
 40
1.0
 40
2.0
 40
2.0
 40
2.0
 40
3.0
 40
3.0
 40
3.0
 40
4.0
 40
4.0
 40
4.0
 40
4.0
 10
76.51626982214142
 20
-462.5436506780145
 30
0.0
 10
69.61271045136856
 20
-462.5436506780145
 30
0.0
 10
64.01626982526702
 20
-456.9472100519168
 30
0.0
 10
64.01626982526702
 20
-450.0436506811401
 30
0.0
 10
64.01626982526702
 20
-443.1400913103672
 30
0.0
 10
69.61271045136856
 20
-437.5436506842657
 30
0.0
 10
76.51626982214142
 20
-437.5436506842657
 30
0.0
 10
83.41982919291429
 20
-437.5436506842657
 30
0.0
 10
89.01626981901455
 20
-443.1400913103672
 30
0.0
 10
89.01626981901455
 20
-450.0436506811401
 30
0.0
 10
89.01626981901455
 20
-456.9472100519168
 30
0.0
 10
83.41982919291429
 20
-462.5436506780145
 30
0.0
 10
76.51626982214142
 20
-462.5436506780145
 30
0.0
  0
SPLINE
  5
1A2
330
19D
100
AcDbEntity
  8
Layer 1
370
     0
100
AcDbSpline
210
0.0
220
0.0
230
1.0
 70
    11
 71
     3
 72
    17
 73
    13
 74
     0
 42
0.0000000001
 43
0.0000000001
 12
1.0
 22
0.0
 32
0.0
 13
1.0
 23
0.0
 33
0.0
 40
0.0
 40
0.0
 40
0.0
 40
0.0
 40
1.0
 40
1.0
 40
1.0
 40
2.0
 40
2.0
 40
2.0
 40
3.0
 40
3.0
 40
3.0
 40
4.0
 40
4.0
 40
4.0
 40
4.0
 10
76.51626982214142
 20
-451.5436506807663
 30
0.0
 10
75.68784269765007
 20
-451.5436506807663
 30
0.0
 10
75.01626982251388
 20
-450.8720778056353
 30
0.0
 10
75.01626982251388
 20
-450.0436506811401
 30
0.0
 10
75.01626982251388
 20
-449.2152235566487
 30
0.0
 10
75.68784269765007
 20
-448.5436506815138
 30
0.0
 10
76.51626982214142
 20
-448.5436506815138
 30
0.0
 10
77.34469694663535
 20
-448.5436506815138
 30
0.0
 10
78.0162698217664
 20
-449.2152235566487
 30
0.0
 10
78.0162698217664
 20
-450.0436506811401
 30
0.0
 10
78.0162698217664
 20
-450.8720778056353
 30
0.0
 10
77.34469694663535
 20
-451.5436506807663
 30
0.0
 10
76.51626982214142
 20
-451.5436506807663
 30
0.0
  0
HATCH
  5
1A3
330
19D
100
AcDbEntity
  8
Layer 1
 62
   250
420
  1842203
100
AcDbHatch
 10
0.0
 20
0.0
 30
0.0
210
0.0
220
0.0
230
1.0
  2
SOLID
 70
     1
 71
     0
 91
        1
 92
        1
 93
        1
 72
     4
 94
        3
 73
     0
 74
     1
 95
       17
 96
       13
 40
0.0
 40
0.0
 40
0.0
 40
0.0
 40
1.0
 40
1.0
 40
1.0
 40
2.0
 40
2.0
 40
2.0
 40
3.0
 40
3.0
 40
3.0
 40
4.0
 40
4.0
 40
4.0
 40
4.0
 10
76.51626982214142
 20
-451.5436506807663
 10
75.68784269765007
 20
-451.5436506807663
 10
75.01626982251388
 20
-450.8720778056353
 10
75.01626982251388
 20
-450.0436506811401
 10
75.01626982251388
 20
-449.2152235566487
 10
75.68784269765007
 20
-448.5436506815138
 10
76.51626982214142
 20
-448.5436506815138
 10
77.34469694663535
 20
-448.5436506815138
 10
78.0162698217664
 20
-449.2152235566487
 10
78.0162698217664
 20
-450.0436506811401
 10
78.0162698217664
 20
-450.8720778056353
 10
77.34469694663535
 20
-451.5436506807663
 10
76.51626982214142
 20
-451.5436506807663
 97
        0
 97
        0
 75
     2
 76
     1
 98
        0
  0
ENDBLK
  5
1A0
330
19D
100
AcDbEntity
  8
0
100
AcDbBlockEnd
  0
BLOCK
  5
1A6
330
1A4
100
AcDbEntity
  8
0
100
AcDbBlockBegin
  2
block 15
 70
     0
 10
0.0
 20
0.0
 30
0.0
  3
block 15
  1

  0
SPLINE
  5
1A8
330
1A4
100
AcDbEntity
  8
Layer 1
 62
   197
420
  6693762
370
    35
100
AcDbSpline
210
0.0
220
0.0
230
1.0
 70
    11
 71
     3
 72
    17
 73
    13
 74
     0
 42
0.0000000001
 43
0.0000000001
 12
1.0
 22
0.0
 32
0.0
 13
1.0
 23
0.0
 33
0.0
 40
0.0
 40
0.0
 40
0.0
 40
0.0
 40
1.0
 40
1.0
 40
1.0
 40
2.0
 40
2.0
 40
2.0
 40
3.0
 40
3.0
 40
3.0
 40
4.0
 40
4.0
 40
4.0
 40
4.0
 10
133.4181686485506
 20
-645.2586646401398
 30
0.0
 10
126.5146092777778
 20
-645.2586646401398
 30
0.0
 10
120.9181686516762
 20
-639.6622240140421
 30
0.0
 10
120.9181686516762
 20
-632.7586646432654
 30
0.0
 10
120.9181686516762
 20
-625.8551052724926
 30
0.0
 10
126.5146092777778
 20
-620.258664646391
 30
0.0
 10
133.4181686485506
 20
-620.258664646391
 30
0.0
 10
140.3217280193241
 20
-620.258664646391
 30
0.0
 10
145.9181686454244
 20
-625.8551052724926
 30
0.0
 10
145.9181686454244
 20
-632.7586646432654
 30
0.0
 10
145.9181686454244
 20
-639.6622240140421
 30
0.0
 10
140.3217280193241
 20
-645.2586646401398
 30
0.0
 10
133.4181686485506
 20
-645.2586646401398
 30
0.0
  0
SPLINE
  5
1A9
330
1A4
100
AcDbEntity
  8
Layer 1
370
     0
100
AcDbSpline
210
0.0
220
0.0
230
1.0
 70
    11
 71
     3
 72
    17
 73
    13
 74
     0
 42
0.0000000001
 43
0.0000000001
 12
1.0
 22
0.0
 32
0.0
 13
1.0
 23
0.0
 33
0.0
 40
0.0
 40
0.0
 40
0.0
 40
0.0
 40
1.0
 40
1.0
 40
1.0
 40
2.0
 40
2.0
 40
2.0
 40
3.0
 40
3.0
 40
3.0
 40
4.0
 40
4.0
 40
4.0
 40
4.0
 10
133.4181686485506
 20
-634.2586646428916
 30
0.0
 10
132.5897415240593
 20
-634.2586646428916
 30
0.0
 10
131.9181686489237
 20
-633.5870917677606
 30
0.0
 10
131.9181686489237
 20
-632.7586646432654
 30
0.0
 10
131.9181686489237
 20
-631.930237518774
 30
0.0
 10
132.5897415240593
 20
-631.2586646436391
 30
0.0
 10
133.4181686485506
 20
-631.2586646436391
 30
0.0
 10
134.2465957730452
 20
-631.2586646436391
 30
0.0
 10
134.9181686481762
 20
-631.930237518774
 30
0.0
 10
134.9181686481762
 20
-632.7586646432654
 30
0.0
 10
134.9181686481762
 20
-633.5870917677606
 30
0.0
 10
134.2465957730452
 20
-634.2586646428916
 30
0.0
 10
133.4181686485506
 20
-634.2586646428916
 30
0.0
  0
HATCH
  5
1AA
330
1A4
100
AcDbEntity
  8
Layer 1
 62
   250
420
  1842203
100
AcDbHatch
 10
0.0
 20
0.0
 30
0.0
210
0.0
220
0.0
230
1.0
  2
SOLID
 70
     1
 71
     0
 91
        1
 92
        1
 93
        1
 72
     4
 94
        3
 73
     0
 74
     1
 95
       17
 96
       13
 40
0.0
 40
0.0
 40
0.0
 40
0.0
 40
1.0
 40
1.0
 40
1.0
 40
2.0
 40
2.0
 40
2.0
 40
3.0
 40
3.0
 40
3.0
 40
4.0
 40
4.0
 40
4.0
 40
4.0
 10
133.4181686485506
 20
-634.2586646428916
 10
132.5897415240593
 20
-634.2586646428916
 10
131.9181686489237
 20
-633.5870917677606
 10
131.9181686489237
 20
-632.7586646432654
 10
131.9181686489237
 20
-631.930237518774
 10
132.5897415240593
 20
-631.2586646436391
 10
133.4181686485506
 20
-631.2586646436391
 10
134.2465957730452
 20
-631.2586646436391
 10
134.9181686481762
 20
-631.930237518774
 10
134.9181686481762
 20
-632.7586646432654
 10
134.9181686481762
 20
-633.5870917677606
 10
134.2465957730452
 20
-634.2586646428916
 10
133.4181686485506
 20
-634.2586646428916
 97
        0
 97
        0
 75
     2
 76
     1
 98
        0
  0
ENDBLK
  5
1A7
330
1A4
100
AcDbEntity
  8
0
100
AcDbBlockEnd
  0
ENDSEC
  0
SECTION
  2
ENTITIES
  0
POLYLINE
  5
41
330
1F
100
AcDbEntity
  8
Layer 1
 62
   250
420
  1842203
370
   106
100
AcDb2dPolyline
 66
     1
 10
0.0
 20
0.0
 30
0.0
  0
VERTEX
  5
42
330
41
100
AcDbEntity
  8
Layer 1
 62
   250
420
  1842203
370
   106
100
AcDbVertex
100
AcDb2dVertex
 10
649.905158567681
 20
-850.0436505811397
 30
0.0
  0
VERTEX
  5
43
330
41
100
AcDbEntity
  8
Layer 1
 62
   250
420
  1842203
370
   106
100
AcDbVertex
100
AcDb2dVertex
 10
49.9051587176824
 20
-850.0436505811397
 30
0.0
  0
VERTEX
  5
44
330
41
100
AcDbEntity
  8
Layer 1
 62
   250
420
  1842203
370
   106
100
AcDbVertex
100
AcDb2dVertex
 10
49.9051587176824
 20
-50.0436507811399
 30
0.0
  0
VERTEX
  5
45
330
41
100
AcDbEntity
  8
Layer 1
 62
   250
420
  1842203
370
   106
100
AcDbVertex
100
AcDb2dVertex
 10
649.905158567681
 20
-50.0436507811399
 30
0.0
  0
VERTEX
  5
46
330
41
100
AcDbEntity
  8
Layer 1
 62
   250
420
  1842203
370
   106
100
AcDbVertex
100
AcDb2dVertex
 10
649.905158567681
 20
-850.0436505811397
 30
0.0
  0
SEQEND
  5
47
330
41
100
AcDbEntity
  8
Layer 1
 62
   250
420
  1842203
370
   106
  0
POLYLINE
  5
48
330
1F
100
AcDbEntity
  8
Layer 1
 62
    22
420
 14951456
370
    35
100
AcDb2dPolyline
 66
     1
 10
0.0
 20
0.0
 30
0.0
  0
VERTEX
  5
49
330
48
100
AcDbEntity
  8
Layer 1
 62
    22
420
 14951456
370
    35
100
AcDbVertex
100
AcDb2dVertex
 10
617.3585315205307
 20
-204.3267785054186
 30
0.0
  0
VERTEX
  5
4A
330
48
100
AcDbEntity
  8
Layer 1
 62
    22
420
 14951456
370
    35
100
AcDbVertex
100
AcDb2dVertex
 10
622.8585403353462
 20
-204.3267748027793
 30
0.0
  0
VERTEX
  5
4B
330
48
100
AcDbEntity
  8
Layer 1
 62
    22
420
 14951456
370
    35
100
AcDbVertex
100
AcDb2dVertex
 10
622.8585295640775
 20
-188.3268039680257
 30
0.0
  0
VERTEX
  5
4C
330
48
100
AcDbEntity
  8
Layer 1
 62
    22
420
 14951456
370
    35
100
AcDbVertex
100
AcDb2dVertex
 10
617.358520749262
 20
-188.3268076706654
 30
0.0
  0
VERTEX
  5
4D
330
48
100
AcDbEntity
  8
Layer 1
 62
    22
420
 14951456
370
    35
100
AcDbVertex
100
AcDb2dVertex
 10
617.3584871110326
 20
-138.3595733895461
 30
0.0
  0
VERTEX
  5
4E
330
48
100
AcDbEntity
  8
Layer 1
 62
    22
420
 14951456
370
    35
100
AcDbVertex
100
AcDb2dVertex
 10
622.8584959258487
 20
-138.3595696869067
 30
0.0
  0
VERTEX
  5
4F
330
48
100
AcDbEntity
  8
Layer 1
 62
    22
420
 14951456
370
    35
100
AcDbVertex
100
AcDb2dVertex
 10
622.8584851545203
 20
-122.3595127247609
 30
0.0
  0
VERTEX
  5
50
330
48
100
AcDbEntity
  8
Layer 1
 62
    22
420
 14951456
370
    35
100
AcDbVertex
100
AcDb2dVertex
 10
617.3584763397041
 20
-122.3595164274003
 30
0.0
  0
VERTEX
  5
51
330
48
100
AcDbEntity
  8
Layer 1
 62
    22
420
 14951456
370
    35
100
AcDbVertex
100
AcDb2dVertex
 10
617.3584594887907
 20
-97.32865841500184
 30
0.0
  0
VERTEX
  5
52
330
48
100
AcDbEntity
  8
Layer 1
 62
    22
420
 14951456
370
    35
100
AcDbVertex
100
AcDb2dVertex
 10
455.6084703799573
 20
-97.32876730601492
 30
0.0
  0
VERTEX
  5
53
330
48
100
AcDbEntity
  8
Layer 1
 62
    22
420
 14951456
370
    35
100
AcDbVertex
100
AcDb2dVertex
 10
455.6084872308752
 20
-122.3596253184101
 30
0.0
  0
VERTEX
  5
54
330
48
100
AcDbEntity
  8
Layer 1
 62
    22
420
 14951456
370
    35
100
AcDbVertex
100
AcDb2dVertex
 10
450.1084784160623
 20
-122.3596290210499
 30
0.0
  0
VERTEX
  5
55
330
48
100
AcDbEntity
  8
Layer 1
 62
    22
420
 14951456
370
    35
100
AcDbVertex
100
AcDb2dVertex
 10
450.108489860558
 20
-139.3596249477849
 30
0.0
  0
VERTEX
  5
56
330
48
100
AcDbEntity
  8
Layer 1
 62
    22
420
 14951456
370
    35
100
AcDbVertex
100
AcDb2dVertex
 10
450.1085006318871
 20
-155.3596819099308
 30
0.0
  0
VERTEX
  5
57
330
48
100
AcDbEntity
  8
Layer 1
 62
    22
420
 14951456
370
    35
100
AcDbVertex
100
AcDb2dVertex
 10
455.6085094466994
 20
-155.3596782072917
 30
0.0
  0
VERTEX
  5
58
330
48
100
AcDbEntity
  8
Layer 1
 62
    22
420
 14951456
370
    35
100
AcDbVertex
100
AcDb2dVertex
 10
455.6085316404292
 20
-188.3269165616749
 30
0.0
  0
VERTEX
  5
59
330
48
100
AcDbEntity
  8
Layer 1
 62
    22
420
 14951456
370
    35
100
AcDbVertex
100
AcDb2dVertex
 10
450.1085228256163
 20
-188.3269202643143
 30
0.0
  0
VERTEX
  5
5A
330
48
100
AcDbEntity
  8
Layer 1
 62
    22
420
 14951456
370
    35
100
AcDbVertex
100
AcDb2dVertex
 10
450.108534270112
 20
-205.3269161910501
 30
0.0
  0
VERTEX
  5
5B
330
48
100
AcDbEntity
  8
Layer 1
 62
    22
420
 14951456
370
    35
100
AcDbVertex
100
AcDb2dVertex
 10
450.1085450413846
 20
-221.3268870258001
 30
0.0
  0
VERTEX
  5
5C
330
48
100
AcDbEntity
  8
Layer 1
 62
    22
420
 14951456
370
    35
100
AcDbVertex
100
AcDb2dVertex
 10
455.6085538561931
 20
-221.3268833231643
 30
0.0
  0
VERTEX
  5
5D
330
48
100
AcDbEntity
  8
Layer 1
 62
    22
420
 14951456
370
    35
100
AcDbVertex
100
AcDb2dVertex
 10
455.608570707111
 20
-246.3577413355627
 30
0.0
  0
VERTEX
  5
5E
330
48
100
AcDbEntity
  8
Layer 1
 62
    22
420
 14951456
370
    35
100
AcDbVertex
100
AcDb2dVertex
 10
617.3585598159432
 20
-246.3576324445496
 30
0.0
  0
VERTEX
  5
5F
330
48
100
AcDbEntity
  8
Layer 1
 62
    22
420
 14951456
370
    35
100
AcDbVertex
100
AcDb2dVertex
 10
617.3585315205307
 20
-204.3267785054186
 30
0.0
  0
SEQEND
  5
60
330
48
100
AcDbEntity
  8
Layer 1
 62
    22
420
 14951456
370
    35
  0
POLYLINE
  5
61
330
1F
100
AcDbEntity
  8
Layer 1
 62
    22
420
 14951456
370
    35
100
AcDb2dPolyline
 66
     1
 10
0.0
 20
0.0
 30
0.0
  0
VERTEX
  5
62
330
61
100
AcDbEntity
  8
Layer 1
 62
    22
420
 14951456
370
    35
100
AcDbVertex
100
AcDb2dVertex
 10
422.6190551322556
 20
-204.3267785052916
 30
0.0
  0
VERTEX
  5
63
330
61
100
AcDbEntity
  8
Layer 1
 62
    22
420
 14951456
370
    35
100
AcDbVertex
100
AcDb2dVertex
 10
428.1190639470647
 20
-204.326769302642
 30
0.0
  0
VERTEX
  5
64
330
61
100
AcDbEntity
  8
Layer 1
 62
    22
420
 14951456
370
    35
100
AcDbVertex
100
AcDb2dVertex
 10
428.1190371758139
 20
-188.3267984679068
 30
0.0
  0
VERTEX
  5
65
330
61
100
AcDbEntity
  8
Layer 1
 62
    22
420
 14951456
370
    35
100
AcDbVertex
100
AcDb2dVertex
 10
422.6190283610048
 20
-188.3268076705518
 30
0.0
  0
VERTEX
  5
66
330
61
100
AcDbEntity
  8
Layer 1
 62
    22
420
 14951456
370
    35
100
AcDbVertex
100
AcDb2dVertex
 10
422.6189447555186
 20
-138.3595733894967
 30
0.0
  0
VERTEX
  5
67
330
61
100
AcDbEntity
  8
Layer 1
 62
    22
420
 14951456
370
    35
100
AcDbVertex
100
AcDb2dVertex
 10
428.1189535703277
 20
-138.3595641868439
 30
0.0
  0
VERTEX
  5
68
330
61
100
AcDbEntity
  8
Layer 1
 62
    22
420
 14951456
370
    35
100
AcDbVertex
100
AcDb2dVertex
 10
428.1189267989319
 20
-122.3595072247225
 30
0.0
  0
VERTEX
  5
69
330
61
100
AcDbEntity
  8
Layer 1
 62
    22
420
 14951456
370
    35
100
AcDbVertex
100
AcDb2dVertex
 10
422.6189179841235
 20
-122.359516427372
 30
0.0
  0
VERTEX
  5
6A
330
61
100
AcDbEntity
  8
Layer 1
 62
    22
420
 14951456
370
    35
100
AcDbVertex
100
AcDb2dVertex
 10
422.6188761023382
 20
-97.32865841500184
 30
0.0
  0
VERTEX
  5
6B
330
61
100
AcDbEntity
  8
Layer 1
 62
    22
420
 14951456
370
    35
100
AcDbVertex
100
AcDb2dVertex
 10
260.8688869936976
 20
-97.32892905608351
 30
0.0
  0
VERTEX
  5
6C
330
61
100
AcDbEntity
  8
Layer 1
 62
    22
420
 14951456
370
    35
100
AcDbVertex
100
AcDb2dVertex
 10
260.8689288754854
 20
-122.3597870684566
 30
0.0
  0
VERTEX
  5
6D
330
61
100
AcDbEntity
  8
Layer 1
 62
    22
420
 14951456
370
    35
100
AcDbVertex
100
AcDb2dVertex
 10
255.3689200606802
 20
-122.3597962711065
 30
0.0
  0
VERTEX
  5
6E
330
61
100
AcDbEntity
  8
Layer 1
 62
    22
420
 14951456
370
    35
100
AcDbVertex
100
AcDb2dVertex
 10
255.3689485051773
 20
-139.3597921978178
 30
0.0
  0
VERTEX
  5
6F
330
61
100
AcDbEntity
  8
Layer 1
 62
    22
420
 14951456
370
    35
100
AcDbVertex
100
AcDb2dVertex
 10
255.3689752765724
 20
-155.3598491599457
 30
0.0
  0
VERTEX
  5
70
330
61
100
AcDbEntity
  8
Layer 1
 62
    22
420
 14951456
370
    35
100
AcDbVertex
100
AcDb2dVertex
 10
260.868984091378
 20
-155.3598399572964
 30
0.0
  0
VERTEX
  5
71
330
61
100
AcDbEntity
  8
Layer 1
 62
    22
420
 14951456
370
    35
100
AcDbVertex
100
AcDb2dVertex
 10
260.8690392523632
 20
-188.3270783116409
 30
0.0
  0
VERTEX
  5
72
330
61
100
AcDbEntity
  8
Layer 1
 62
    22
420
 14951456
370
    35
100
AcDbVertex
100
AcDb2dVertex
 10
255.3690304375583
 20
-188.3270875142869
 30
0.0
  0
VERTEX
  5
73
330
61
100
AcDbEntity
  8
Layer 1
 62
    22
420
 14951456
370
    35
100
AcDbVertex
100
AcDb2dVertex
 10
255.3690588820583
 20
-205.3270834410021
 30
0.0
  0
VERTEX
  5
74
330
61
100
AcDbEntity
  8
Layer 1
 62
    22
420
 14951456
370
    35
100
AcDbVertex
100
AcDb2dVertex
 10
255.3690856533097
 20
-221.3270542757374
 30
0.0
  0
VERTEX
  5
75
330
61
100
AcDbEntity
  8
Layer 1
 62
    22
420
 14951456
370
    35
100
AcDbVertex
100
AcDb2dVertex
 10
260.8690944681146
 20
-221.3270450730917
 30
0.0
  0
VERTEX
  5
76
330
61
100
AcDbEntity
  8
Layer 1
 62
    22
420
 14951456
370
    35
100
AcDbVertex
100
AcDb2dVertex
 10
260.8691363499003
 20
-246.3579030854619
 30
0.0
  0
VERTEX
  5
77
330
61
100
AcDbEntity
  8
Layer 1
 62
    22
420
 14951456
370
    35
100
AcDbVertex
100
AcDb2dVertex
 10
422.6191254585412
 20
-246.3576324443763
 30
0.0
  0
VERTEX
  5
78
330
61
100
AcDbEntity
  8
Layer 1
 62
    22
420
 14951456
370
    35
100
AcDbVertex
100
AcDb2dVertex
 10
422.6190551322556
 20
-204.3267785052916
 30
0.0
  0
SEQEND
  5
79
330
61
100
AcDbEntity
  8
Layer 1
 62
    22
420
 14951456
370
    35
  0
POLYLINE
  5
7A
330
1F
100
AcDbEntity
  8
Layer 1
 62
    22
420
 14951456
370
    35
100
AcDb2dPolyline
 66
     1
 10
0.0
 20
0.0
 30
0.0
  0
VERTEX
  5
7B
330
7A
100
AcDbEntity
  8
Layer 1
 62
    22
420
 14951456
370
    35
100
AcDbVertex
100
AcDb2dVertex
 10
422.6195148747108
 20
-384.3984089159121
 30
0.0
  0
VERTEX
  5
7C
330
7A
100
AcDbEntity
  8
Layer 1
 62
    22
420
 14951456
370
    35
100
AcDbVertex
100
AcDb2dVertex
 10
428.1195236895199
 20
-384.3983997132628
 30
0.0
  0
VERTEX
  5
7D
330
7A
100
AcDbEntity
  8
Layer 1
 62
    22
420
 14951456
370
    35
100
AcDbVertex
100
AcDb2dVertex
 10
428.1194969182691
 20
-368.3984288785273
 30
0.0
  0
VERTEX
  5
7E
330
7A
100
AcDbEntity
  8
Layer 1
 62
    22
420
 14951456
370
    35
100
AcDbVertex
100
AcDb2dVertex
 10
422.61948810346
 20
-368.398438081173
 30
0.0
  0
VERTEX
  5
7F
330
7A
100
AcDbEntity
  8
Layer 1
 62
    22
420
 14951456
370
    35
100
AcDbVertex
100
AcDb2dVertex
 10
422.6194044979771
 20
-318.4312038001178
 30
0.0
  0
VERTEX
  5
80
330
7A
100
AcDbEntity
  8
Layer 1
 62
    22
420
 14951456
370
    35
100
AcDbVertex
100
AcDb2dVertex
 10
428.119413312783
 20
-318.4311945974657
 30
0.0
  0
VERTEX
  5
81
330
7A
100
AcDbEntity
  8
Layer 1
 62
    22
420
 14951456
370
    35
100
AcDbVertex
100
AcDb2dVertex
 10
428.1193865413872
 20
-302.4311376353452
 30
0.0
  0
VERTEX
  5
82
330
7A
100
AcDbEntity
  8
Layer 1
 62
    22
420
 14951456
370
    35
100
AcDbVertex
100
AcDb2dVertex
 10
422.6193777265819
 20
-302.4311468379903
 30
0.0
  0
VERTEX
  5
83
330
7A
100
AcDbEntity
  8
Layer 1
 62
    22
420
 14951456
370
    35
100
AcDbVertex
100
AcDb2dVertex
 10
422.6193358447934
 20
-277.4002888256236
 30
0.0
  0
VERTEX
  5
84
330
7A
100
AcDbEntity
  8
Layer 1
 62
    22
420
 14951456
370
    35
100
AcDbVertex
100
AcDb2dVertex
 10
260.8693467361522
 20
-277.4005594667088
 30
0.0
  0
VERTEX
  5
85
330
7A
100
AcDbEntity
  8
Layer 1
 62
    22
420
 14951456
370
    35
100
AcDbVertex
100
AcDb2dVertex
 10
260.86938861794
 20
-302.431417479079
 30
0.0
  0
VERTEX
  5
86
330
7A
100
AcDbEntity
  8
Layer 1
 62
    22
420
 14951456
370
    35
100
AcDbVertex
100
AcDb2dVertex
 10
255.3693798031351
 20
-302.431426681725
 30
0.0
  0
VERTEX
  5
87
330
7A
100
AcDbEntity
  8
Layer 1
 62
    22
420
 14951456
370
    35
100
AcDbVertex
100
AcDb2dVertex
 10
255.3694082476319
 20
-319.4314226084402
 30
0.0
  0
VERTEX
  5
88
330
7A
100
AcDbEntity
  8
Layer 1
 62
    22
420
 14951456
370
    35
100
AcDbVertex
100
AcDb2dVertex
 10
255.369435019027
 20
-335.4314795705642
 30
0.0
  0
VERTEX
  5
89
330
7A
100
AcDbEntity
  8
Layer 1
 62
    22
420
 14951456
370
    35
100
AcDbVertex
100
AcDb2dVertex
 10
260.8694438338323
 20
-335.4314703679182
 30
0.0
  0
VERTEX
  5
8A
330
7A
100
AcDbEntity
  8
Layer 1
 62
    22
420
 14951456
370
    35
100
AcDbVertex
100
AcDb2dVertex
 10
260.8694989948182
 20
-368.3987087222582
 30
0.0
  0
VERTEX
  5
8B
330
7A
100
AcDbEntity
  8
Layer 1
 62
    22
420
 14951456
370
    35
100
AcDbVertex
100
AcDb2dVertex
 10
255.3694901800168
 20
-368.3987179249074
 30
0.0
  0
VERTEX
  5
8C
330
7A
100
AcDbEntity
  8
Layer 1
 62
    22
420
 14951456
370
    35
100
AcDbVertex
100
AcDb2dVertex
 10
255.3695186245142
 20
-385.3987138516258
 30
0.0
  0
VERTEX
  5
8D
330
7A
100
AcDbEntity
  8
Layer 1
 62
    22
420
 14951456
370
    35
100
AcDbVertex
100
AcDb2dVertex
 10
255.369545395764
 20
-401.3986846863579
 30
0.0
  0
VERTEX
  5
8E
330
7A
100
AcDbEntity
  8
Layer 1
 62
    22
420
 14951456
370
    35
100
AcDbVertex
100
AcDb2dVertex
 10
260.8695542105705
 20
-401.3986754837086
 30
0.0
  0
VERTEX
  5
8F
330
7A
100
AcDbEntity
  8
Layer 1
 62
    22
420
 14951456
370
    35
100
AcDbVertex
100
AcDb2dVertex
 10
260.8695960923545
 20
-426.4295334960823
 30
0.0
  0
VERTEX
  5
90
330
7A
100
AcDbEntity
  8
Layer 1
 62
    22
420
 14951456
370
    35
100
AcDbVertex
100
AcDb2dVertex
 10
422.6195852009964
 20
-426.4292628549975
 30
0.0
  0
VERTEX
  5
91
330
7A
100
AcDbEntity
  8
Layer 1
 62
    22
420
 14951456
370
    35
100
AcDbVertex
100
AcDb2dVertex
 10
422.6195148747108
 20
-384.3984089159121
 30
0.0
  0
SEQEND
  5
92
330
7A
100
AcDbEntity
  8
Layer 1
 62
    22
420
 14951456
370
    35
  0
POLYLINE
  5
93
330
1F
100
AcDbEntity
  8
Layer 1
 62
    22
420
 14951456
370
    35
100
AcDb2dPolyline
 66
     1
 10
0.0
 20
0.0
 30
0.0
  0
VERTEX
  5
94
330
93
100
AcDbEntity
  8
Layer 1
 62
    22
420
 14951456
370
    35
100
AcDbVertex
100
AcDb2dVertex
 10
617.3585315205307
 20
-384.3984089160356
 30
0.0
  0
VERTEX
  5
95
330
93
100
AcDbEntity
  8
Layer 1
 62
    22
420
 14951456
370
    35
100
AcDbVertex
100
AcDb2dVertex
 10
622.8585403353462
 20
-384.3984052134001
 30
0.0
  0
VERTEX
  5
96
330
93
100
AcDbEntity
  8
Layer 1
 62
    22
420
 14951456
370
    35
100
AcDbVertex
100
AcDb2dVertex
 10
622.8585295640775
 20
-368.3984343786469
 30
0.0
  0
VERTEX
  5
97
330
93
100
AcDbEntity
  8
Layer 1
 62
    22
420
 14951456
370
    35
100
AcDbVertex
100
AcDb2dVertex
 10
617.358520749262
 20
-368.3984380812824
 30
0.0
  0
VERTEX
  5
98
330
93
100
AcDbEntity
  8
Layer 1
 62
    22
420
 14951456
370
    35
100
AcDbVertex
100
AcDb2dVertex
 10
617.3584871110435
 20
-318.431203800164
 30
0.0
  0
VERTEX
  5
99
330
93
100
AcDbEntity
  8
Layer 1
 62
    22
420
 14951456
370
    35
100
AcDbVertex
100
AcDb2dVertex
 10
622.8584959258558
 20
-318.4312000975291
 30
0.0
  0
VERTEX
  5
9A
330
93
100
AcDbEntity
  8
Layer 1
 62
    22
420
 14951456
370
    35
100
AcDbVertex
100
AcDb2dVertex
 10
622.8584851545306
 20
-302.4311431353833
 30
0.0
  0
VERTEX
  5
9B
330
93
100
AcDbEntity
  8
Layer 1
 62
    22
420
 14951456
370
    35
100
AcDbVertex
100
AcDb2dVertex
 10
617.358476339715
 20
-302.4311468380182
 30
0.0
  0
VERTEX
  5
9C
330
93
100
AcDbEntity
  8
Layer 1
 62
    22
420
 14951456
370
    35
100
AcDbVertex
100
AcDb2dVertex
 10
617.3584594888009
 20
-277.4002888256236
 30
0.0
  0
VERTEX
  5
9D
330
93
100
AcDbEntity
  8
Layer 1
 62
    22
420
 14951456
370
    35
100
AcDbVertex
100
AcDb2dVertex
 10
455.6084703799714
 20
-277.4003977166126
 30
0.0
  0
VERTEX
  5
9E
330
93
100
AcDbEntity
  8
Layer 1
 62
    22
420
 14951456
370
    35
100
AcDbVertex
100
AcDb2dVertex
 10
455.6084872308823
 20
-302.4312557290181
 30
0.0
  0
VERTEX
  5
9F
330
93
100
AcDbEntity
  8
Layer 1
 62
    22
420
 14951456
370
    35
100
AcDbVertex
100
AcDb2dVertex
 10
450.1084784160732
 20
-302.4312594316537
 30
0.0
  0
VERTEX
  5
A0
330
93
100
AcDbEntity
  8
Layer 1
 62
    22
420
 14951456
370
    35
100
AcDbVertex
100
AcDb2dVertex
 10
450.108489860565
 20
-319.4312553583894
 30
0.0
  0
VERTEX
  5
A1
330
93
100
AcDbEntity
  8
Layer 1
 62
    22
420
 14951456
370
    35
100
AcDbVertex
100
AcDb2dVertex
 10
450.1085006318935
 20
-335.431312320532
 30
0.0
  0
VERTEX
  5
A2
330
93
100
AcDbEntity
  8
Layer 1
 62
    22
420
 14951456
370
    35
100
AcDbVertex
100
AcDb2dVertex
 10
455.6085094467026
 20
-335.4313086178965
 30
0.0
  0
VERTEX
  5
A3
330
93
100
AcDbEntity
  8
Layer 1
 62
    22
420
 14951456
370
    35
100
AcDbVertex
100
AcDb2dVertex
 10
455.6085316404324
 20
-368.3985469722711
 30
0.0
  0
VERTEX
  5
A4
330
93
100
AcDbEntity
  8
Layer 1
 62
    22
420
 14951456
370
    35
100
AcDbVertex
100
AcDb2dVertex
 10
450.1085228256201
 20
-368.3985506749137
 30
0.0
  0
VERTEX
  5
A5
330
93
100
AcDbEntity
  8
Layer 1
 62
    22
420
 14951456
370
    35
100
AcDbVertex
100
AcDb2dVertex
 10
450.108534270112
 20
-385.3985466016462
 30
0.0
  0
VERTEX
  5
A6
330
93
100
AcDbEntity
  8
Layer 1
 62
    22
420
 14951456
370
    35
100
AcDbVertex
100
AcDb2dVertex
 10
450.1085450413808
 20
-401.3985174364033
 30
0.0
  0
VERTEX
  5
A7
330
93
100
AcDbEntity
  8
Layer 1
 62
    22
420
 14951456
370
    35
100
AcDbVertex
100
AcDb2dVertex
 10
455.6085538561931
 20
-401.3985137337677
 30
0.0
  0
VERTEX
  5
A8
330
93
100
AcDbEntity
  8
Layer 1
 62
    22
420
 14951456
370
    35
100
AcDbVertex
100
AcDb2dVertex
 10
455.6085707071072
 20
-426.4293717461662
 30
0.0
  0
VERTEX
  5
A9
330
93
100
AcDbEntity
  8
Layer 1
 62
    22
420
 14951456
370
    35
100
AcDbVertex
100
AcDb2dVertex
 10
617.3585598159367
 20
-426.4292628551666
 30
0.0
  0
VERTEX
  5
AA
330
93
100
AcDbEntity
  8
Layer 1
 62
    22
420
 14951456
370
    35
100
AcDbVertex
100
AcDb2dVertex
 10
617.3585315205307
 20
-384.3984089160356
 30
0.0
  0
SEQEND
  5
AB
330
93
100
AcDbEntity
  8
Layer 1
 62
    22
420
 14951456
370
    35
  0
INSERT
  5
AD
330
1F
100
AcDbEntity
  8
Layer 1
100
AcDbBlockReference
  2
block 2
 10
0.0
 20
0.0
 30
0.0
  0
SPLINE
  5
124
330
1F
100
AcDbEntity
  8
Layer 1
370
     0
100
AcDbSpline
210
0.0
220
0.0
230
1.0
 70
    11
 71
     3
 72
   221
 73
   217
 74
     0
 42
0.0000000001
 43
0.0000000001
 12
1.0
 22
0.0
 32
0.0
 13
1.0
 23
0.0
 33
0.0
 40
0.0
 40
0.0
 40
0.0
 40
0.0
 40
1.0
 40
1.0
 40
1.0
 40
2.0
 40
2.0
 40
2.0
 40
3.0
 40
3.0
 40
3.0
 40
4.0
 40
4.0
 40
4.0
 40
5.0
 40
5.0
 40
5.0
 40
6.0
 40
6.0
 40
6.0
 40
7.0
 40
7.0
 40
7.0
 40
8.0
 40
8.0
 40
8.0
 40
9.0
 40
9.0
 40
9.0
 40
10.0
 40
10.0
 40
10.0
 40
11.0
 40
11.0
 40
11.0
 40
12.0
 40
12.0
 40
12.0
 40
13.0
 40
13.0
 40
13.0
 40
14.0
 40
14.0
 40
14.0
 40
15.0
 40
15.0
 40
15.0
 40
16.0
 40
16.0
 40
16.0
 40
17.0
 40
17.0
 40
17.0
 40
18.0
 40
18.0
 40
18.0
 40
19.0
 40
19.0
 40
19.0
 40
20.0
 40
20.0
 40
20.0
 40
21.0
 40
21.0
 40
21.0
 40
22.0
 40
22.0
 40
22.0
 40
23.0
 40
23.0
 40
23.0
 40
24.0
 40
24.0
 40
24.0
 40
25.0
 40
25.0
 40
25.0
 40
26.0
 40
26.0
 40
26.0
 40
27.0
 40
27.0
 40
27.0
 40
28.0
 40
28.0
 40
28.0
 40
29.0
 40
29.0
 40
29.0
 40
30.0
 40
30.0
 40
30.0
 40
31.0
 40
31.0
 40
31.0
 40
32.0
 40
32.0
 40
32.0
 40
33.0
 40
33.0
 40
33.0
 40
34.0
 40
34.0
 40
34.0
 40
35.0
 40
35.0
 40
35.0
 40
36.0
 40
36.0
 40
36.0
 40
37.0
 40
37.0
 40
37.0
 40
38.0
 40
38.0
 40
38.0
 40
39.0
 40
39.0
 40
39.0
 40
40.0
 40
40.0
 40
40.0
 40
41.0
 40
41.0
 40
41.0
 40
42.0
 40
42.0
 40
42.0
 40
43.0
 40
43.0
 40
43.0
 40
44.0
 40
44.0
 40
44.0
 40
45.0
 40
45.0
 40
45.0
 40
46.0
 40
46.0
 40
46.0
 40
47.0
 40
47.0
 40
47.0
 40
48.0
 40
48.0
 40
48.0
 40
49.0
 40
49.0
 40
49.0
 40
50.0
 40
50.0
 40
50.0
 40
51.0
 40
51.0
 40
51.0
 40
52.0
 40
52.0
 40
52.0
 40
53.0
 40
53.0
 40
53.0
 40
54.0
 40
54.0
 40
54.0
 40
55.0
 40
55.0
 40
55.0
 40
56.0
 40
56.0
 40
56.0
 40
57.0
 40
57.0
 40
57.0
 40
58.0
 40
58.0
 40
58.0
 40
59.0
 40
59.0
 40
59.0
 40
60.0
 40
60.0
 40
60.0
 40
61.0
 40
61.0
 40
61.0
 40
62.0
 40
62.0
 40
62.0
 40
63.0
 40
63.0
 40
63.0
 40
64.0
 40
64.0
 40
64.0
 40
65.0
 40
65.0
 40
65.0
 40
66.0
 40
66.0
 40
66.0
 40
67.0
 40
67.0
 40
67.0
 40
68.0
 40
68.0
 40
68.0
 40
69.0
 40
69.0
 40
69.0
 40
70.0
 40
70.0
 40
70.0
 40
71.0
 40
71.0
 40
71.0
 40
72.0
 40
72.0
 40
72.0
 40
72.0
 10
482.2197289758616
 20
-528.5742596333496
 30
0.0
 10
481.7918485882257
 20
-529.0458936331607
 30
0.0
 10
481.5527595775349
 20
-529.6618769450154
 30
0.0
 10
481.5462145427543
 20
-530.3085213741408
 30
0.0
 10
481.5462145513691
 20
-530.3171341128539
 30
0.0
 10
481.5462145596348
 20
-530.3254023420185
 30
0.0
 10
481.5462145679038
 20
-530.3336705711831
 30
0.0
 10
481.5462151580481
 20
-530.9238154278064
 30
0.0
 10
481.7446532302253
 20
-531.4960455894686
 30
0.0
 10
482.1060441982827
 20
-531.9476972461961
 30
0.0
 10
482.1504859855057
 20
-532.0031632390652
 30
0.0
 10
482.1973393381965
 20
-532.0572511913313
 30
0.0
 10
482.2441926908803
 20
-532.111339143594
 30
0.0
 10
482.3713168603572
 20
-532.2574110650448
 30
0.0
 10
482.4912063213991
 20
-532.3955592741154
 30
0.0
 10
482.549773104153
 20
-532.5550671365146
 30
0.0
 10
482.6300440456565
 20
-532.7717635622654
 30
0.0
 10
482.5921482712686
 20
-533.0477157485294
 30
0.0
 10
482.4495215614018
 20
-533.290939632416
 30
0.0
 10
482.0991559493187
 20
-533.8896975781174
 30
0.0
 10
481.5803246512287
 20
-533.9716913695
 30
0.0
 10
480.9795000933435
 20
-534.0664320961672
 30
0.0
 10
480.5399059786688
 20
-534.1356789550141
 30
0.0
 10
480.0854979558242
 20
-534.2073373955168
 30
0.0
 10
479.6744983510654
 20
-534.4939697508895
 30
0.0
 10
478.9944369766679
 20
-534.9683600792688
 30
0.0
 10
478.6764554750439
 20
-535.7800248935768
 30
0.0
 10
478.8831619400318
 20
-536.5158970825195
 30
0.0
 10
478.9748018075678
 20
-536.8435255715257
 30
0.0
 10
479.1380996291538
 20
-537.1391146008631
 30
0.0
 10
479.2958852883258
 20
-537.4250573683553
 30
0.0
 10
479.2958852883258
 20
-537.4250573683553
 30
0.0
 10
479.3172449189178
 20
-537.4636424164293
 30
0.0
 10
479.3172449189178
 20
-537.4636424164293
 30
0.0
 10
479.5329082876519
 20
-537.8550050478901
 30
0.0
 10
481.6919539022418
 20
-542.128988347849
 30
0.0
 10
482.1070887608823
 20
-542.9816490653134
 30
0.0
 10
479.9508046190724
 20
-544.1040633306911
 30
0.0
 10
478.5665676233286
 20
-546.4742904087834
 30
0.0
 10
478.5665702202423
 20
-549.0712033855609
 30
0.0
 10
478.5665702202423
 20
-549.0712033855609
 30
0.0
 10
478.7427868543128
 20
-549.0712032093452
 30
0.0
 10
478.7427868543128
 20
-549.0712032093452
 30
0.0
 10
478.7427868543128
 20
-549.0712032093452
 30
0.0
 10
478.7427868543128
 20
-549.0712032093452
 30
0.0
 10
478.7427868543128
 20
-549.0712032093452
 30
0.0
 10
478.7427868543128
 20
-549.0712032093452
 30
0.0
 10
478.5679483025333
 20
-549.1153006063963
 30
0.0
 10
478.5679483025333
 20
-549.1153006063963
 30
0.0
 10
478.5679483025333
 20
-549.1153006063963
 30
0.0
 10
478.5665703449488
 20
-549.195915842127
 30
0.0
 10
478.5665703449488
 20
-549.195915842127
 30
0.0
 10
478.5665729429001
 20
-551.7938623475538
 30
0.0
 10
479.9515036985416
 20
-554.1644311660227
 30
0.0
 10
482.1071010646984
 20
-555.2854630813276
 30
0.0
 10
481.6923124205854
 20
-556.1377801191676
 30
0.0
 10
479.533275353967
 20
-560.4117677372072
 30
0.0
 10
479.3172682587484
 20
-560.8034753098896
 30
0.0
 10
479.3172682587484
 20
-560.8034753098896
 30
0.0
 10
479.2959087053265
 20
-560.8420604006814
 30
0.0
 10
479.2959087053265
 20
-560.8420604006814
 30
0.0
 10
479.1381236180432
 20
-561.1280034837439
 30
0.0
 10
478.9748263876307
 20
-561.423592839676
 30
0.0
 10
478.8831871753515
 20
-561.7512215119604
 30
0.0
 10
478.6764821814182
 20
-562.4864050952193
 30
0.0
 10
478.9948098166111
 20
-563.2987582923162
 30
0.0
 10
479.6745276302416
 20
-563.7731472609166
 30
0.0
 10
480.0855278082603
 20
-564.0597787942896
 30
0.0
 10
480.5399359744245
 20
-564.1314363259733
 30
0.0
 10
480.9795302275856
 20
-564.200682305634
 30
0.0
 10
481.5803549749555
 20
-564.2954218306518
 30
0.0
 10
482.0991864370298
 20
-564.3774145843703
 30
0.0
 10
482.4495532466395
 20
-564.9761718293416
 30
0.0
 10
482.5921804432895
 20
-565.2197399375209
 30
0.0
 10
482.630076768551
 20
-565.4946585193483
 30
0.0
 10
482.5498062614719
 20
-565.7123886342837
 30
0.0
 10
482.4912397977311
 20
-565.8718966138192
 30
0.0
 10
482.3713506126499
 20
-566.0097005531172
 30
0.0
 10
482.2445712448678
 20
-566.1557727284729
 30
0.0
 10
482.1973734908036
 20
-566.2098607747896
 30
0.0
 10
482.1505202462923
 20
-566.2639488207604
 30
0.0
 10
482.1060785699998
 20
-566.3194149025157
 30
0.0
 10
481.7443439960414
 20
-566.7714117919153
 30
0.0
 10
481.5462515778734
 20
-567.3436423501071
 30
0.0
 10
481.5462521680177
 20
-567.9337872067304
 30
0.0
 10
481.5462521766293
 20
-567.9423999454435
 30
0.0
 10
481.5462521848983
 20
-567.9506681746082
 30
0.0
 10
481.5462521931672
 20
-567.9589364037727
 30
0.0
 10
481.5527985208885
 20
-568.6052363102583
 30
0.0
 10
481.7918887635472
 20
-569.2212191439329
 30
0.0
 10
482.2197700947926
 20
-569.6931967975311
 30
0.0
 10
482.7964797156781
 20
-570.3298498664949
 30
0.0
 10
483.684281145717
 20
-570.6533434447597
 30
0.0
 10
484.5362531427779
 20
-570.5368983653852
 30
0.0
 10
485.2814271942676
 20
-570.4349227938495
 30
0.0
 10
485.91911396895
 20
-570.0352910798721
 30
0.0
 10
486.3321802940681
 20
-569.4117283839751
 30
0.0
 10
486.75213680017
 20
-568.7781749042803
 30
0.0
 10
486.8778819954206
 20
-567.9882143837683
 30
0.0
 10
486.6756541456061
 20
-567.2433849420837
 30
0.0
 10
486.5750569870911
 20
-566.8730372780171
 30
0.0
 10
486.3997012830746
 20
-566.5292169239444
 30
0.0
 10
486.1685350962683
 20
-566.2494754017072
 30
0.0
 10
486.1685350962683
 20
-566.2494754017072
 30
0.0
 10
486.0951544749258
 20
-566.1619700497627
 30
0.0
 10
486.0951544749258
 20
-566.1619700497627
 30
0.0
 10
485.8991283096132
 20
-565.929770810085
 30
0.0
 10
485.7437543233999
 20
-565.7499369811288
 30
0.0
 10
485.7730373494268
 20
-565.4643385361177
 30
0.0
 10
485.8405605663687
 20
-564.8097703263949
 30
0.0
 10
486.8982044359215
 20
-564.3653519511557
 30
0.0
 10
488.1305151998589
 20
-564.4742157361773
 30
0.0
 10
488.1305151998589
 20
-564.4742157361773
 30
0.0
 10
488.2335235521131
 20
-564.4714595567816
 30
0.0
 10
488.2335235521131
 20
-564.4714595567816
 30
0.0
 10
488.4378177143884
 20
-564.4714593524877
 30
0.0
 10
488.6496908528076
 20
-564.2375371571643
 30
0.0
 10
488.9501028218669
 20
-563.8802804549325
 30
0.0
 10
489.0255503234198
 20
-563.7907078968708
 30
0.0
 10
489.0896290215875
 20
-563.7128486748221
 30
0.0
 10
489.1306256210008
 20
-563.6759861121337
 30
0.0
 10
489.1306256210008
 20
-563.6759861121337
 30
0.0
 10
489.2188199868735
 20
-563.5974378468756
 30
0.0
 10
489.2188199868735
 20
-563.5974378468756
 30
0.0
 10
489.481680539512
 20
-563.3645491292148
 30
0.0
 10
489.7531538225902
 20
-563.1233921737702
 30
0.0
 10
489.9126613997369
 20
-562.7795714848377
 30
0.0
 10
490.0525319763686
 20
-562.4795035281993
 30
0.0
 10
490.08457102194
 20
-562.1370610049261
 30
0.0
 10
490.0042999750162
 20
-561.8149446573267
 30
0.0
 10
489.9726049697701
 20
-561.6881651751662
 30
0.0
 10
489.86684035544
 20
-561.5052307106623
 30
0.0
 10
489.7335149290003
 20
-561.2740649369272
 30
0.0
 10
489.536799635381
 20
-560.932656171055
 30
0.0
 10
489.2074479357943
 20
-560.3614596689507
 30
0.0
 10
489.2753160763866
 20
-560.1209919362129
 30
0.0
 10
489.2849623086046
 20
-560.085851952618
 30
0.0
 10
489.3025322738771
 20
-560.0641478334892
 30
0.0
 10
489.3214802869878
 20
-560.0520899803435
 30
0.0
 10
489.3538641766184
 20
-560.044166228346
 30
0.0
 10
489.4589395992589
 20
-560.0545014097228
 30
0.0
 10
489.5092379981659
 20
-560.0593244931032
 30
0.0
 10
489.5564358107903
 20
-560.0638030700396
 30
0.0
 10
489.5984659795028
 20
-560.0675926330434
 30
0.0
 10
489.6274047815789
 20
-560.0675926041015
 30
0.0
 10
489.6274047815789
 20
-560.0675926041015
 30
0.0
 10
493.9551337198133
 20
-560.0572529899197
 30
0.0
 10
493.9551337198133
 20
-560.0572529899197
 30
0.0
 10
493.9551337198133
 20
-560.0572529899197
 30
0.0
 10
493.9551118723949
 20
-538.2098354606695
 30
0.0
 10
493.9551118723949
 20
-538.2098354606695
 30
0.0
 10
493.9551118723949
 20
-538.2098354606695
 30
0.0
 10
493.3563542770585
 20
-538.2098360594255
 30
0.0
 10
493.3563542770585
 20
-538.2098360594255
 30
0.0
 10
493.3563542770585
 20
-538.2098360594255
 30
0.0
 10
493.369445629566
 20
-538.1995007598778
 30
0.0
 10
493.369445629566
 20
-538.1995007598778
 30
0.0
 10
493.369445629566
 20
-538.1995007598778
 30
0.0
 10
489.6273829134876
 20
-538.1995045019438
 30
0.0
 10
489.6273829134876
 20
-538.1995045019438
 30
0.0
 10
489.5984441114115
 20
-538.1995045308818
 30
0.0
 10
489.5564139502877
 20
-538.2032941779456
 30
0.0
 10
489.5088716370716
 20
-538.2077728496167
 30
0.0
 10
489.4582287382569
 20
-538.2125960339408
 30
0.0
 10
489.3531533362933
 20
-538.2229314254716
 30
0.0
 10
489.3359278574881
 20
-538.2215534045039
 30
0.0
 10
489.3025104130248
 20
-538.2032944318473
 30
0.0
 10
489.2849404043433
 20
-538.1815903478619
 30
0.0
 10
489.2752941014986
 20
-538.1461058740085
 30
0.0
 10
489.2060474428188
 20
-537.9066718070306
 30
0.0
 10
489.5367760364811
 20
-537.3337520971045
 30
0.0
 10
489.7334906479653
 20
-536.9930319569005
 30
0.0
 10
489.8668156120794
 20
-536.761865916515
 30
0.0
 10
489.9725798605404
 20
-536.5789312404821
 30
0.0
 10
490.0042746122268
 20
-536.4521516949314
 30
0.0
 10
490.0845450159493
 20
-536.1310687154347
 30
0.0
 10
490.0525052848072
 20
-535.7879372371433
 30
0.0
 10
489.9126341080329
 20
-535.4878695602472
 30
0.0
 10
489.7531258429027
 20
-535.1437046807791
 30
0.0
 10
489.48165207751
 20
-534.9025482682889
 30
0.0
 10
489.2187910590956
 20
-534.6696600763439
 30
0.0
 10
489.2187910590956
 20
-534.6696600763439
 30
0.0
 10
489.1305965361273
 20
-534.5911119874746
 30
0.0
 10
489.1305965361273
 20
-534.5911119874746
 30
0.0
 10
489.0892553534425
 20
-534.5542495071246
 30
0.0
 10
489.025176499213
 20
-534.4760459036876
 30
0.0
 10
488.9493843086143
 20
-534.3861289873136
 30
0.0
 10
488.6493161352864
 20
-534.0295619046597
 30
0.0
 10
488.4374425290237
 20
-533.7956401330861
 30
0.0
 10
488.2334928762969
 20
-533.7956403370341
 30
0.0
 10
488.2334928762969
 20
-533.7956403370341
 30
0.0
 10
488.2052430840145
 20
-533.786338607474
 30
0.0
 10
488.2052430840145
 20
-533.786338607474
 30
0.0
 10
488.2052430840145
 20
-533.786338607474
 30
0.0
 10
488.1304845185363
 20
-533.7928843636565
 30
0.0
 10
488.1304845185363
 20
-533.7928843636565
 30
0.0
 10
486.8981739723222
 20
-533.9017506132997
 30
0.0
 10
485.8405292139316
 20
-533.4573343533482
 30
0.0
 10
485.7730046878556
 20
-532.8027662786723
 30
0.0
 10
485.7416540343751
 20
-532.5182014229421
 30
0.0
 10
485.8987502076333
 20
-532.3373337528708
 30
0.0
 10
486.0951204180943
 20
-532.1051341207948
 30
0.0
 10
486.0951204180943
 20
-532.1051341207948
 30
0.0
 10
486.1685008644236
 20
-532.017628622088
 30
0.0
 10
486.1685008644236
 20
-532.017628622088
 30
0.0
 10
486.3996664917416
 20
-531.7378866375213
 30
0.0
 10
486.5750215084662
 20
-531.3944104422861
 30
0.0
 10
486.6756179262931
 20
-531.0240625770239
 30
0.0
 10
486.878533305544
 20
-530.2792327301986
 30
0.0
 10
486.7520975109245
 20
-529.4889279523182
 30
0.0
 10
486.3321397373766
 20
-528.855030802989
 30
0.0
 10
485.9190721654745
 20
-528.2318134427753
 30
0.0
 10
485.2813845915244
 20
-527.8321830041741
 30
0.0
 10
484.5362103364371
 20
-527.7305534325317
 30
0.0
 10
483.6845826156999
 20
-527.6137655472087
 30
0.0
 10
482.7967818326411
 20
-527.937260901074
 30
0.0
 10
482.2197289758616
 20
-528.5742596333496
 30
0.0
  0
HATCH
  5
125
330
1F
100
AcDbEntity
  8
Layer 1
 62
    85
420
  6730542
100
AcDbHatch
 10
0.0
 20
0.0
 30
0.0
210
0.0
220
0.0
230
1.0
  2
SOLID
 70
     1
 71
     0
 91
        1
 92
        1
 93
        1
 72
     4
 94
        3
 73
     0
 74
     1
 95
      221
 96
      217
 40
0.0
 40
0.0
 40
0.0
 40
0.0
 40
1.0
 40
1.0
 40
1.0
 40
2.0
 40
2.0
 40
2.0
 40
3.0
 40
3.0
 40
3.0
 40
4.0
 40
4.0
 40
4.0
 40
5.0
 40
5.0
 40
5.0
 40
6.0
 40
6.0
 40
6.0
 40
7.0
 40
7.0
 40
7.0
 40
8.0
 40
8.0
 40
8.0
 40
9.0
 40
9.0
 40
9.0
 40
10.0
 40
10.0
 40
10.0
 40
11.0
 40
11.0
 40
11.0
 40
12.0
 40
12.0
 40
12.0
 40
13.0
 40
13.0
 40
13.0
 40
14.0
 40
14.0
 40
14.0
 40
15.0
 40
15.0
 40
15.0
 40
16.0
 40
16.0
 40
16.0
 40
17.0
 40
17.0
 40
17.0
 40
18.0
 40
18.0
 40
18.0
 40
19.0
 40
19.0
 40
19.0
 40
20.0
 40
20.0
 40
20.0
 40
21.0
 40
21.0
 40
21.0
 40
22.0
 40
22.0
 40
22.0
 40
23.0
 40
23.0
 40
23.0
 40
24.0
 40
24.0
 40
24.0
 40
25.0
 40
25.0
 40
25.0
 40
26.0
 40
26.0
 40
26.0
 40
27.0
 40
27.0
 40
27.0
 40
28.0
 40
28.0
 40
28.0
 40
29.0
 40
29.0
 40
29.0
 40
30.0
 40
30.0
 40
30.0
 40
31.0
 40
31.0
 40
31.0
 40
32.0
 40
32.0
 40
32.0
 40
33.0
 40
33.0
 40
33.0
 40
34.0
 40
34.0
 40
34.0
 40
35.0
 40
35.0
 40
35.0
 40
36.0
 40
36.0
 40
36.0
 40
37.0
 40
37.0
 40
37.0
 40
38.0
 40
38.0
 40
38.0
 40
39.0
 40
39.0
 40
39.0
 40
40.0
 40
40.0
 40
40.0
 40
41.0
 40
41.0
 40
41.0
 40
42.0
 40
42.0
 40
42.0
 40
43.0
 40
43.0
 40
43.0
 40
44.0
 40
44.0
 40
44.0
 40
45.0
 40
45.0
 40
45.0
 40
46.0
 40
46.0
 40
46.0
 40
47.0
 40
47.0
 40
47.0
 40
48.0
 40
48.0
 40
48.0
 40
49.0
 40
49.0
 40
49.0
 40
50.0
 40
50.0
 40
50.0
 40
51.0
 40
51.0
 40
51.0
 40
52.0
 40
52.0
 40
52.0
 40
53.0
 40
53.0
 40
53.0
 40
54.0
 40
54.0
 40
54.0
 40
55.0
 40
55.0
 40
55.0
 40
56.0
 40
56.0
 40
56.0
 40
57.0
 40
57.0
 40
57.0
 40
58.0
 40
58.0
 40
58.0
 40
59.0
 40
59.0
 40
59.0
 40
60.0
 40
60.0
 40
60.0
 40
61.0
 40
61.0
 40
61.0
 40
62.0
 40
62.0
 40
62.0
 40
63.0
 40
63.0
 40
63.0
 40
64.0
 40
64.0
 40
64.0
 40
65.0
 40
65.0
 40
65.0
 40
66.0
 40
66.0
 40
66.0
 40
67.0
 40
67.0
 40
67.0
 40
68.0
 40
68.0
 40
68.0
 40
69.0
 40
69.0
 40
69.0
 40
70.0
 40
70.0
 40
70.0
 40
71.0
 40
71.0
 40
71.0
 40
72.0
 40
72.0
 40
72.0
 40
72.0
 10
482.2197289758616
 20
-528.5742596333496
 10
481.7918485882257
 20
-529.0458936331607
 10
481.5527595775349
 20
-529.6618769450154
 10
481.5462145427543
 20
-530.3085213741408
 10
481.5462145513691
 20
-530.3171341128539
 10
481.5462145596348
 20
-530.3254023420185
 10
481.5462145679038
 20
-530.3336705711831
 10
481.5462151580481
 20
-530.9238154278064
 10
481.7446532302253
 20
-531.4960455894686
 10
482.1060441982827
 20
-531.9476972461961
 10
482.1504859855057
 20
-532.0031632390652
 10
482.1973393381965
 20
-532.0572511913313
 10
482.2441926908803
 20
-532.111339143594
 10
482.3713168603572
 20
-532.2574110650448
 10
482.4912063213991
 20
-532.3955592741154
 10
482.549773104153
 20
-532.5550671365146
 10
482.6300440456565
 20
-532.7717635622654
 10
482.5921482712686
 20
-533.0477157485294
 10
482.4495215614018
 20
-533.290939632416
 10
482.0991559493187
 20
-533.8896975781174
 10
481.5803246512287
 20
-533.9716913695
 10
480.9795000933435
 20
-534.0664320961672
 10
480.5399059786688
 20
-534.1356789550141
 10
480.0854979558242
 20
-534.2073373955168
 10
479.6744983510654
 20
-534.4939697508895
 10
478.9944369766679
 20
-534.9683600792688
 10
478.6764554750439
 20
-535.7800248935768
 10
478.8831619400318
 20
-536.5158970825195
 10
478.9748018075678
 20
-536.8435255715257
 10
479.1380996291538
 20
-537.1391146008631
 10
479.2958852883258
 20
-537.4250573683553
 10
479.2958852883258
 20
-537.4250573683553
 10
479.3172449189178
 20
-537.4636424164293
 10
479.3172449189178
 20
-537.4636424164293
 10
479.5329082876519
 20
-537.8550050478901
 10
481.6919539022418
 20
-542.128988347849
 10
482.1070887608823
 20
-542.9816490653134
 10
479.9508046190724
 20
-544.1040633306911
 10
478.5665676233286
 20
-546.4742904087834
 10
478.5665702202423
 20
-549.0712033855609
 10
478.5665702202423
 20
-549.0712033855609
 10
478.7427868543128
 20
-549.0712032093452
 10
478.7427868543128
 20
-549.0712032093452
 10
478.7427868543128
 20
-549.0712032093452
 10
478.7427868543128
 20
-549.0712032093452
 10
478.7427868543128
 20
-549.0712032093452
 10
478.7427868543128
 20
-549.0712032093452
 10
478.5679483025333
 20
-549.1153006063963
 10
478.5679483025333
 20
-549.1153006063963
 10
478.5679483025333
 20
-549.1153006063963
 10
478.5665703449488
 20
-549.195915842127
 10
478.5665703449488
 20
-549.195915842127
 10
478.5665729429001
 20
-551.7938623475538
 10
479.9515036985416
 20
-554.1644311660227
 10
482.1071010646984
 20
-555.2854630813276
 10
481.6923124205854
 20
-556.1377801191676
 10
479.533275353967
 20
-560.4117677372072
 10
479.3172682587484
 20
-560.8034753098896
 10
479.3172682587484
 20
-560.8034753098896
 10
479.2959087053265
 20
-560.8420604006814
 10
479.2959087053265
 20
-560.8420604006814
 10
479.1381236180432
 20
-561.1280034837439
 10
478.9748263876307
 20
-561.423592839676
 10
478.8831871753515
 20
-561.7512215119604
 10
478.6764821814182
 20
-562.4864050952193
 10
478.9948098166111
 20
-563.2987582923162
 10
479.6745276302416
 20
-563.7731472609166
 10
480.0855278082603
 20
-564.0597787942896
 10
480.5399359744245
 20
-564.1314363259733
 10
480.9795302275856
 20
-564.200682305634
 10
481.5803549749555
 20
-564.2954218306518
 10
482.0991864370298
 20
-564.3774145843703
 10
482.4495532466395
 20
-564.9761718293416
 10
482.5921804432895
 20
-565.2197399375209
 10
482.630076768551
 20
-565.4946585193483
 10
482.5498062614719
 20
-565.7123886342837
 10
482.4912397977311
 20
-565.8718966138192
 10
482.3713506126499
 20
-566.0097005531172
 10
482.2445712448678
 20
-566.1557727284729
 10
482.1973734908036
 20
-566.2098607747896
 10
482.1505202462923
 20
-566.2639488207604
 10
482.1060785699998
 20
-566.3194149025157
 10
481.7443439960414
 20
-566.7714117919153
 10
481.5462515778734
 20
-567.3436423501071
 10
481.5462521680177
 20
-567.9337872067304
 10
481.5462521766293
 20
-567.9423999454435
 10
481.5462521848983
 20
-567.9506681746082
 10
481.5462521931672
 20
-567.9589364037727
 10
481.5527985208885
 20
-568.6052363102583
 10
481.7918887635472
 20
-569.2212191439329
 10
482.2197700947926
 20
-569.6931967975311
 10
482.7964797156781
 20
-570.3298498664949
 10
483.684281145717
 20
-570.6533434447597
 10
484.5362531427779
 20
-570.5368983653852
 10
485.2814271942676
 20
-570.4349227938495
 10
485.91911396895
 20
-570.0352910798721
 10
486.3321802940681
 20
-569.4117283839751
 10
486.75213680017
 20
-568.7781749042803
 10
486.8778819954206
 20
-567.9882143837683
 10
486.6756541456061
 20
-567.2433849420837
 10
486.5750569870911
 20
-566.8730372780171
 10
486.3997012830746
 20
-566.5292169239444
 10
486.1685350962683
 20
-566.2494754017072
 10
486.1685350962683
 20
-566.2494754017072
 10
486.0951544749258
 20
-566.1619700497627
 10
486.0951544749258
 20
-566.1619700497627
 10
485.8991283096132
 20
-565.929770810085
 10
485.7437543233999
 20
-565.7499369811288
 10
485.7730373494268
 20
-565.4643385361177
 10
485.8405605663687
 20
-564.8097703263949
 10
486.8982044359215
 20
-564.3653519511557
 10
488.1305151998589
 20
-564.4742157361773
 10
488.1305151998589
 20
-564.4742157361773
 10
488.2335235521131
 20
-564.4714595567816
 10
488.2335235521131
 20
-564.4714595567816
 10
488.4378177143884
 20
-564.4714593524877
 10
488.6496908528076
 20
-564.2375371571643
 10
488.9501028218669
 20
-563.8802804549325
 10
489.0255503234198
 20
-563.7907078968708
 10
489.0896290215875
 20
-563.7128486748221
 10
489.1306256210008
 20
-563.6759861121337
 10
489.1306256210008
 20
-563.6759861121337
 10
489.2188199868735
 20
-563.5974378468756
 10
489.2188199868735
 20
-563.5974378468756
 10
489.481680539512
 20
-563.3645491292148
 10
489.7531538225902
 20
-563.1233921737702
 10
489.9126613997369
 20
-562.7795714848377
 10
490.0525319763686
 20
-562.4795035281993
 10
490.08457102194
 20
-562.1370610049261
 10
490.0042999750162
 20
-561.8149446573267
 10
489.9726049697701
 20
-561.6881651751662
 10
489.86684035544
 20
-561.5052307106623
 10
489.7335149290003
 20
-561.2740649369272
 10
489.536799635381
 20
-560.932656171055
 10
489.2074479357943
 20
-560.3614596689507
 10
489.2753160763866
 20
-560.1209919362129
 10
489.2849623086046
 20
-560.085851952618
 10
489.3025322738771
 20
-560.0641478334892
 10
489.3214802869878
 20
-560.0520899803435
 10
489.3538641766184
 20
-560.044166228346
 10
489.4589395992589
 20
-560.0545014097228
 10
489.5092379981659
 20
-560.0593244931032
 10
489.5564358107903
 20
-560.0638030700396
 10
489.5984659795028
 20
-560.0675926330434
 10
489.6274047815789
 20
-560.0675926041015
 10
489.6274047815789
 20
-560.0675926041015
 10
493.9551337198133
 20
-560.0572529899197
 10
493.9551337198133
 20
-560.0572529899197
 10
493.9551337198133
 20
-560.0572529899197
 10
493.9551118723949
 20
-538.2098354606695
 10
493.9551118723949
 20
-538.2098354606695
 10
493.9551118723949
 20
-538.2098354606695
 10
493.3563542770585
 20
-538.2098360594255
 10
493.3563542770585
 20
-538.2098360594255
 10
493.3563542770585
 20
-538.2098360594255
 10
493.369445629566
 20
-538.1995007598778
 10
493.369445629566
 20
-538.1995007598778
 10
493.369445629566
 20
-538.1995007598778
 10
489.6273829134876
 20
-538.1995045019438
 10
489.6273829134876
 20
-538.1995045019438
 10
489.5984441114115
 20
-538.1995045308818
 10
489.5564139502877
 20
-538.2032941779456
 10
489.5088716370716
 20
-538.2077728496167
 10
489.4582287382569
 20
-538.2125960339408
 10
489.3531533362933
 20
-538.2229314254716
 10
489.3359278574881
 20
-538.2215534045039
 10
489.3025104130248
 20
-538.2032944318473
 10
489.2849404043433
 20
-538.1815903478619
 10
489.2752941014986
 20
-538.1461058740085
 10
489.2060474428188
 20
-537.9066718070306
 10
489.5367760364811
 20
-537.3337520971045
 10
489.7334906479653
 20
-536.9930319569005
 10
489.8668156120794
 20
-536.761865916515
 10
489.9725798605404
 20
-536.5789312404821
 10
490.0042746122268
 20
-536.4521516949314
 10
490.0845450159493
 20
-536.1310687154347
 10
490.0525052848072
 20
-535.7879372371433
 10
489.9126341080329
 20
-535.4878695602472
 10
489.7531258429027
 20
-535.1437046807791
 10
489.48165207751
 20
-534.9025482682889
 10
489.2187910590956
 20
-534.6696600763439
 10
489.2187910590956
 20
-534.6696600763439
 10
489.1305965361273
 20
-534.5911119874746
 10
489.1305965361273
 20
-534.5911119874746
 10
489.0892553534425
 20
-534.5542495071246
 10
489.025176499213
 20
-534.4760459036876
 10
488.9493843086143
 20
-534.3861289873136
 10
488.6493161352864
 20
-534.0295619046597
 10
488.4374425290237
 20
-533.7956401330861
 10
488.2334928762969
 20
-533.7956403370341
 10
488.2334928762969
 20
-533.7956403370341
 10
488.2052430840145
 20
-533.786338607474
 10
488.2052430840145
 20
-533.786338607474
 10
488.2052430840145
 20
-533.786338607474
 10
488.1304845185363
 20
-533.7928843636565
 10
488.1304845185363
 20
-533.7928843636565
 10
486.8981739723222
 20
-533.9017506132997
 10
485.8405292139316
 20
-533.4573343533482
 10
485.7730046878556
 20
-532.8027662786723
 10
485.7416540343751
 20
-532.5182014229421
 10
485.8987502076333
 20
-532.3373337528708
 10
486.0951204180943
 20
-532.1051341207948
 10
486.0951204180943
 20
-532.1051341207948
 10
486.1685008644236
 20
-532.017628622088
 10
486.1685008644236
 20
-532.017628622088
 10
486.3996664917416
 20
-531.7378866375213
 10
486.5750215084662
 20
-531.3944104422861
 10
486.6756179262931
 20
-531.0240625770239
 10
486.878533305544
 20
-530.2792327301986
 10
486.7520975109245
 20
-529.4889279523182
 10
486.3321397373766
 20
-528.855030802989
 10
485.9190721654745
 20
-528.2318134427753
 10
485.2813845915244
 20
-527.8321830041741
 10
484.5362103364371
 20
-527.7305534325317
 10
483.6845826156999
 20
-527.6137655472087
 10
482.7967818326411
 20
-527.937260901074
 10
482.2197289758616
 20
-528.5742596333496
 97
        0
 97
        0
 75
     2
 76
     1
 98
        0
  0
SPLINE
  5
126
330
1F
100
AcDbEntity
  8
Layer 1
370
     0
100
AcDbSpline
210
0.0
220
0.0
230
1.0
 70
    11
 71
     3
 72
    17
 73
    13
 74
     0
 42
0.0000000001
 43
0.0000000001
 12
1.0
 22
0.0
 32
0.0
 13
1.0
 23
0.0
 33
0.0
 40
0.0
 40
0.0
 40
0.0
 40
0.0
 40
1.0
 40
1.0
 40
1.0
 40
2.0
 40
2.0
 40
2.0
 40
3.0
 40
3.0
 40
3.0
 40
4.0
 40
4.0
 40
4.0
 40
4.0
 10
485.8796377484068
 20
-537.4453775981394
 30
0.0
 10
485.8796377484068
 20
-537.8595911603833
 30
0.0
 10
485.5438513108413
 20
-538.1953775979488
 30
0.0
 10
485.1296377485937
 20
-538.1953775979488
 30
0.0
 10
484.7154241863499
 20
-538.1953775979488
 30
0.0
 10
484.3796377487844
 20
-537.8595911603833
 30
0.0
 10
484.3796377487844
 20
-537.4453775981394
 30
0.0
 10
484.3796377487844
 20
-537.0311640358918
 30
0.0
 10
484.7154241863499
 20
-536.6953775983263
 30
0.0
 10
485.1296377485937
 20
-536.6953775983263
 30
0.0
 10
485.5438513108413
 20
-536.6953775983263
 30
0.0
 10
485.8796377484068
 20
-537.0311640358918
 30
0.0
 10
485.8796377484068
 20
-537.4453775981394
 30
0.0
  0
HATCH
  5
127
330
1F
100
AcDbEntity
  8
Layer 1
 62
   250
420
  1842203
100
AcDbHatch
 10
0.0
 20
0.0
 30
0.0
210
0.0
220
0.0
230
1.0
  2
SOLID
 70
     1
 71
     0
 91
        1
 92
        1
 93
        1
 72
     4
 94
        3
 73
     0
 74
     1
 95
       17
 96
       13
 40
0.0
 40
0.0
 40
0.0
 40
0.0
 40
1.0
 40
1.0
 40
1.0
 40
2.0
 40
2.0
 40
2.0
 40
3.0
 40
3.0
 40
3.0
 40
4.0
 40
4.0
 40
4.0
 40
4.0
 10
485.8796377484068
 20
-537.4453775981394
 10
485.8796377484068
 20
-537.8595911603833
 10
485.5438513108413
 20
-538.1953775979488
 10
485.1296377485937
 20
-538.1953775979488
 10
484.7154241863499
 20
-538.1953775979488
 10
484.3796377487844
 20
-537.8595911603833
 10
484.3796377487844
 20
-537.4453775981394
 10
484.3796377487844
 20
-537.0311640358918
 10
484.7154241863499
 20
-536.6953775983263
 10
485.1296377485937
 20
-536.6953775983263
 10
485.5438513108413
 20
-536.6953775983263
 10
485.8796377484068
 20
-537.0311640358918
 10
485.8796377484068
 20
-537.4453775981394
 97
        0
 97
        0
 75
     2
 76
     1
 98
        0
  0
SPLINE
  5
128
330
1F
100
AcDbEntity
  8
Layer 1
370
     0
100
AcDbSpline
210
0.0
220
0.0
230
1.0
 70
    11
 71
     3
 72
    17
 73
    13
 74
     0
 42
0.0000000001
 43
0.0000000001
 12
1.0
 22
0.0
 32
0.0
 13
1.0
 23
0.0
 33
0.0
 40
0.0
 40
0.0
 40
0.0
 40
0.0
 40
1.0
 40
1.0
 40
1.0
 40
2.0
 40
2.0
 40
2.0
 40
3.0
 40
3.0
 40
3.0
 40
4.0
 40
4.0
 40
4.0
 40
4.0
 10
483.7138901597777
 20
-549.1337274712998
 30
0.0
 10
483.7138901597777
 20
-549.5479410335474
 30
0.0
 10
483.3781037222122
 20
-549.8837274711129
 30
0.0
 10
482.9638901599723
 20
-549.8837274711129
 30
0.0
 10
482.5496765977209
 20
-549.8837274711129
 30
0.0
 10
482.2138901601553
 20
-549.5479410335474
 30
0.0
 10
482.2138901601553
 20
-549.1337274712998
 30
0.0
 10
482.2138901601553
 20
-548.7195139090522
 30
0.0
 10
482.5496765977209
 20
-548.3837274714867
 30
0.0
 10
482.9638901599723
 20
-548.3837274714867
 30
0.0
 10
483.3781037222122
 20
-548.3837274714867
 30
0.0
 10
483.7138901597777
 20
-548.7195139090522
 30
0.0
 10
483.7138901597777
 20
-549.1337274712998
 30
0.0
  0
HATCH
  5
129
330
1F
100
AcDbEntity
  8
Layer 1
 62
   250
420
  1842203
100
AcDbHatch
 10
0.0
 20
0.0
 30
0.0
210
0.0
220
0.0
230
1.0
  2
SOLID
 70
     1
 71
     0
 91
        1
 92
        1
 93
        1
 72
     4
 94
        3
 73
     0
 74
     1
 95
       17
 96
       13
 40
0.0
 40
0.0
 40
0.0
 40
0.0
 40
1.0
 40
1.0
 40
1.0
 40
2.0
 40
2.0
 40
2.0
 40
3.0
 40
3.0
 40
3.0
 40
4.0
 40
4.0
 40
4.0
 40
4.0
 10
483.7138901597777
 20
-549.1337274712998
 10
483.7138901597777
 20
-549.5479410335474
 10
483.3781037222122
 20
-549.8837274711129
 10
482.9638901599723
 20
-549.8837274711129
 10
482.5496765977209
 20
-549.8837274711129
 10
482.2138901601553
 20
-549.5479410335474
 10
482.2138901601553
 20
-549.1337274712998
 10
482.2138901601553
 20
-548.7195139090522
 10
482.5496765977209
 20
-548.3837274714867
 10
482.9638901599723
 20
-548.3837274714867
 10
483.3781037222122
 20
-548.3837274714867
 10
483.7138901597777
 20
-548.7195139090522
 10
483.7138901597777
 20
-549.1337274712998
 97
        0
 97
        0
 75
     2
 76
     1
 98
        0
  0
SPLINE
  5
12A
330
1F
100
AcDbEntity
  8
Layer 1
370
     0
100
AcDbSpline
210
0.0
220
0.0
230
1.0
 70
    11
 71
     3
 72
    17
 73
    13
 74
     0
 42
0.0000000001
 43
0.0000000001
 12
1.0
 22
0.0
 32
0.0
 13
1.0
 23
0.0
 33
0.0
 40
0.0
 40
0.0
 40
0.0
 40
0.0
 40
1.0
 40
1.0
 40
1.0
 40
2.0
 40
2.0
 40
2.0
 40
3.0
 40
3.0
 40
3.0
 40
4.0
 40
4.0
 40
4.0
 40
4.0
 10
485.8796611247571
 20
-560.8217285037396
 30
0.0
 10
485.8796611247571
 20
-561.2359420659866
 30
0.0
 10
485.5438746871878
 20
-561.5717285035521
 30
0.0
 10
485.129661124944
 20
-561.5717285035521
 30
0.0
 10
484.7154475626964
 20
-561.5717285035521
 30
0.0
 10
484.3796611251309
 20
-561.2359420659866
 30
0.0
 10
484.3796611251309
 20
-560.8217285037396
 30
0.0
 10
484.3796611251309
 20
-560.4075149414953
 30
0.0
 10
484.7154475626964
 20
-560.0717285039265
 30
0.0
 10
485.129661124944
 20
-560.0717285039265
 30
0.0
 10
485.5438746871878
 20
-560.0717285039265
 30
0.0
 10
485.8796611247571
 20
-560.4075149414953
 30
0.0
 10
485.8796611247571
 20
-560.8217285037396
 30
0.0
  0
HATCH
  5
12B
330
1F
100
AcDbEntity
  8
Layer 1
 62
   250
420
  1842203
100
AcDbHatch
 10
0.0
 20
0.0
 30
0.0
210
0.0
220
0.0
230
1.0
  2
SOLID
 70
     1
 71
     0
 91
        1
 92
        1
 93
        1
 72
     4
 94
        3
 73
     0
 74
     1
 95
       17
 96
       13
 40
0.0
 40
0.0
 40
0.0
 40
0.0
 40
1.0
 40
1.0
 40
1.0
 40
2.0
 40
2.0
 40
2.0
 40
3.0
 40
3.0
 40
3.0
 40
4.0
 40
4.0
 40
4.0
 40
4.0
 10
485.8796611247571
 20
-560.8217285037396
 10
485.8796611247571
 20
-561.2359420659866
 10
485.5438746871878
 20
-561.5717285035521
 10
485.129661124944
 20
-561.5717285035521
 10
484.7154475626964
 20
-561.5717285035521
 10
484.3796611251309
 20
-561.2359420659866
 10
484.3796611251309
 20
-560.8217285037396
 10
484.3796611251309
 20
-560.4075149414953
 10
484.7154475626964
 20
-560.0717285039265
 10
485.129661124944
 20
-560.0717285039265
 10
485.5438746871878
 20
-560.0717285039265
 10
485.8796611247571
 20
-560.4075149414953
 10
485.8796611247571
 20
-560.8217285037396
 97
        0
 97
        0
 75
     2
 76
     1
 98
        0
  0
SPLINE
  5
12C
330
1F
100
AcDbEntity
  8
Layer 1
370
     0
100
AcDbSpline
210
0.0
220
0.0
230
1.0
 70
    11
 71
     3
 72
   221
 73
   217
 74
     0
 42
0.0000000001
 43
0.0000000001
 12
1.0
 22
0.0
 32
0.0
 13
1.0
 23
0.0
 33
0.0
 40
0.0
 40
0.0
 40
0.0
 40
0.0
 40
1.0
 40
1.0
 40
1.0
 40
2.0
 40
2.0
 40
2.0
 40
3.0
 40
3.0
 40
3.0
 40
4.0
 40
4.0
 40
4.0
 40
5.0
 40
5.0
 40
5.0
 40
6.0
 40
6.0
 40
6.0
 40
7.0
 40
7.0
 40
7.0
 40
8.0
 40
8.0
 40
8.0
 40
9.0
 40
9.0
 40
9.0
 40
10.0
 40
10.0
 40
10.0
 40
11.0
 40
11.0
 40
11.0
 40
12.0
 40
12.0
 40
12.0
 40
13.0
 40
13.0
 40
13.0
 40
14.0
 40
14.0
 40
14.0
 40
15.0
 40
15.0
 40
15.0
 40
16.0
 40
16.0
 40
16.0
 40
17.0
 40
17.0
 40
17.0
 40
18.0
 40
18.0
 40
18.0
 40
19.0
 40
19.0
 40
19.0
 40
20.0
 40
20.0
 40
20.0
 40
21.0
 40
21.0
 40
21.0
 40
22.0
 40
22.0
 40
22.0
 40
23.0
 40
23.0
 40
23.0
 40
24.0
 40
24.0
 40
24.0
 40
25.0
 40
25.0
 40
25.0
 40
26.0
 40
26.0
 40
26.0
 40
27.0
 40
27.0
 40
27.0
 40
28.0
 40
28.0
 40
28.0
 40
29.0
 40
29.0
 40
29.0
 40
30.0
 40
30.0
 40
30.0
 40
31.0
 40
31.0
 40
31.0
 40
32.0
 40
32.0
 40
32.0
 40
33.0
 40
33.0
 40
33.0
 40
34.0
 40
34.0
 40
34.0
 40
35.0
 40
35.0
 40
35.0
 40
36.0
 40
36.0
 40
36.0
 40
37.0
 40
37.0
 40
37.0
 40
38.0
 40
38.0
 40
38.0
 40
39.0
 40
39.0
 40
39.0
 40
40.0
 40
40.0
 40
40.0
 40
41.0
 40
41.0
 40
41.0
 40
42.0
 40
42.0
 40
42.0
 40
43.0
 40
43.0
 40
43.0
 40
44.0
 40
44.0
 40
44.0
 40
45.0
 40
45.0
 40
45.0
 40
46.0
 40
46.0
 40
46.0
 40
47.0
 40
47.0
 40
47.0
 40
48.0
 40
48.0
 40
48.0
 40
49.0
 40
49.0
 40
49.0
 40
50.0
 40
50.0
 40
50.0
 40
51.0
 40
51.0
 40
51.0
 40
52.0
 40
52.0
 40
52.0
 40
53.0
 40
53.0
 40
53.0
 40
54.0
 40
54.0
 40
54.0
 40
55.0
 40
55.0
 40
55.0
 40
56.0
 40
56.0
 40
56.0
 40
57.0
 40
57.0
 40
57.0
 40
58.0
 40
58.0
 40
58.0
 40
59.0
 40
59.0
 40
59.0
 40
60.0
 40
60.0
 40
60.0
 40
61.0
 40
61.0
 40
61.0
 40
62.0
 40
62.0
 40
62.0
 40
63.0
 40
63.0
 40
63.0
 40
64.0
 40
64.0
 40
64.0
 40
65.0
 40
65.0
 40
65.0
 40
66.0
 40
66.0
 40
66.0
 40
67.0
 40
67.0
 40
67.0
 40
68.0
 40
68.0
 40
68.0
 40
69.0
 40
69.0
 40
69.0
 40
70.0
 40
70.0
 40
70.0
 40
71.0
 40
71.0
 40
71.0
 40
72.0
 40
72.0
 40
72.0
 40
72.0
 10
482.2197289758616
 20
-695.8242743546356
 30
0.0
 10
481.7918485882257
 20
-696.2959083544473
 30
0.0
 10
481.5527595775349
 20
-696.9118916663014
 30
0.0
 10
481.5462145427543
 20
-697.5585360954268
 30
0.0
 10
481.5462145513691
 20
-697.5671488341399
 30
0.0
 10
481.5462145596387
 20
-697.5754170633045
 30
0.0
 10
481.5462145679038
 20
-697.5836852924691
 30
0.0
 10
481.5462151580481
 20
-698.1738301490892
 30
0.0
 10
481.7446532302323
 20
-698.7460603107546
 30
0.0
 10
482.1060441982859
 20
-699.1977119674782
 30
0.0
 10
482.1504859855057
 20
-699.2531779603479
 30
0.0
 10
482.1973393381965
 20
-699.307265912614
 30
0.0
 10
482.2441926908873
 20
-699.36135386488
 30
0.0
 10
482.3713168603642
 20
-699.5074257863276
 30
0.0
 10
482.4912063213991
 20
-699.6455739953982
 30
0.0
 10
482.549773104153
 20
-699.8050818578006
 30
0.0
 10
482.6300440456565
 20
-700.021778283552
 30
0.0
 10
482.5921482712686
 20
-700.2977304698161
 30
0.0
 10
482.4495215614018
 20
-700.5409543536987
 30
0.0
 10
482.0991559493187
 20
-701.1397122994034
 30
0.0
 10
481.5803246512287
 20
-701.2217060907827
 30
0.0
 10
480.9795000933435
 20
-701.3164468174499
 30
0.0
 10
480.539905978672
 20
-701.3856936763
 30
0.0
 10
480.0854979558242
 20
-701.4573521168028
 30
0.0
 10
479.6744983510692
 20
-701.7439844721722
 30
0.0
 10
478.9944369766679
 20
-702.2183748005548
 30
0.0
 10
478.6764554750439
 20
-703.0300396148594
 30
0.0
 10
478.8831619400318
 20
-703.765911803806
 30
0.0
 10
478.9748018075678
 20
-704.0935402928122
 30
0.0
 10
479.1380996291538
 20
-704.3891293221491
 30
0.0
 10
479.2958852883258
 20
-704.6750720896381
 30
0.0
 10
479.2958852883258
 20
-704.6750720896381
 30
0.0
 10
479.3172449189178
 20
-704.7136571377158
 30
0.0
 10
479.3172449189178
 20
-704.7136571377158
 30
0.0
 10
479.532908287659
 20
-705.1050197691761
 30
0.0
 10
481.6919539022489
 20
-709.3790030691312
 30
0.0
 10
482.1070887608823
 20
-710.2316637865962
 30
0.0
 10
479.9508046190724
 20
-711.3540780519777
 30
0.0
 10
478.5665676233286
 20
-713.7243051300662
 30
0.0
 10
478.5665702202423
 20
-716.3212181068476
 30
0.0
 10
478.5665702202423
 20
-716.3212181068476
 30
0.0
 10
478.7427868543128
 20
-716.3212179306312
 30
0.0
 10
478.7427868543128
 20
-716.3212179306312
 30
0.0
 10
478.7427868543128
 20
-716.3212179306312
 30
0.0
 10
478.7427868543128
 20
-716.3212179306312
 30
0.0
 10
478.7427868543128
 20
-716.3212179306312
 30
0.0
 10
478.7427868543128
 20
-716.3212179306312
 30
0.0
 10
478.5679483025333
 20
-716.3653153276791
 30
0.0
 10
478.5679483025333
 20
-716.3653153276791
 30
0.0
 10
478.5679483025333
 20
-716.3653153276791
 30
0.0
 10
478.5665703449559
 20
-716.4459305634136
 30
0.0
 10
478.5665703449559
 20
-716.4459305634136
 30
0.0
 10
478.5665729429001
 20
-719.0438770688367
 30
0.0
 10
479.9515036985416
 20
-721.4144458873094
 30
0.0
 10
482.1071010646984
 20
-722.5354778026136
 30
0.0
 10
481.6923124205854
 20
-723.3877948404536
 30
0.0
 10
479.533275353967
 20
-727.6617824584932
 30
0.0
 10
479.3172682587484
 20
-728.0534900311717
 30
0.0
 10
479.3172682587484
 20
-728.0534900311717
 30
0.0
 10
479.2959087053265
 20
-728.0920751219674
 30
0.0
 10
479.2959087053265
 20
-728.0920751219674
 30
0.0
 10
479.1381236180463
 20
-728.3780182050266
 30
0.0
 10
478.9748263876384
 20
-728.673607560962
 30
0.0
 10
478.8831871753515
 20
-729.001236233247
 30
0.0
 10
478.6764821814182
 20
-729.7364198165021
 30
0.0
 10
478.9948098166142
 20
-730.5487730135983
 30
0.0
 10
479.6745276302416
 20
-731.0231619821994
 30
0.0
 10
480.0855278082603
 20
-731.3097935155723
 30
0.0
 10
480.5399359744284
 20
-731.3814510472591
 30
0.0
 10
480.9795302275856
 20
-731.4506970269161
 30
0.0
 10
481.5803549749587
 20
-731.5454365519377
 30
0.0
 10
482.0991864370298
 20
-731.6274293056531
 30
0.0
 10
482.4495532466395
 20
-732.2261865506244
 30
0.0
 10
482.5921804432895
 20
-732.4697546588037
 30
0.0
 10
482.630076768551
 20
-732.7446732406311
 30
0.0
 10
482.5498062614751
 20
-732.9624033555697
 30
0.0
 10
482.4912397977343
 20
-733.121911335102
 30
0.0
 10
482.3713506126499
 20
-733.2597152744032
 30
0.0
 10
482.2445712448678
 20
-733.4057874497557
 30
0.0
 10
482.1973734908036
 20
-733.4598754960724
 30
0.0
 10
482.1505202462962
 20
-733.5139635420464
 30
0.0
 10
482.1060785699998
 20
-733.5694296237984
 30
0.0
 10
481.7443439960414
 20
-734.021426513198
 30
0.0
 10
481.5462515778734
 20
-734.5936570713899
 30
0.0
 10
481.5462521680177
 20
-735.1838019280132
 30
0.0
 10
481.5462521766325
 20
-735.1924146667262
 30
0.0
 10
481.5462521849021
 20
-735.2006828958908
 30
0.0
 10
481.5462521931672
 20
-735.2089511250555
 30
0.0
 10
481.5527985208885
 20
-735.8552510315443
 30
0.0
 10
481.7918887635504
 20
-736.471233865215
 30
0.0
 10
482.2197700948003
 20
-736.9432115188139
 30
0.0
 10
482.7964797156781
 20
-737.5798645877809
 30
0.0
 10
483.684281145717
 20
-737.9033581660424
 30
0.0
 10
484.5362531427779
 20
-737.786913086668
 30
0.0
 10
485.2814271942676
 20
-737.6849375151323
 30
0.0
 10
485.9191139689532
 20
-737.2853058011549
 30
0.0
 10
486.3321802940681
 20
-736.6617431052572
 30
0.0
 10
486.75213680017
 20
-736.0281896255663
 30
0.0
 10
486.8778819954206
 20
-735.2382291050504
 30
0.0
 10
486.6756541456099
 20
-734.4933996633696
 30
0.0
 10
486.5750569870911
 20
-734.1230519993
 30
0.0
 10
486.3997012830746
 20
-733.7792316452271
 30
0.0
 10
486.1685350962683
 20
-733.4994901229932
 30
0.0
 10
486.1685350962683
 20
-733.4994901229932
 30
0.0
 10
486.0951544749297
 20
-733.4119847710455
 30
0.0
 10
486.0951544749297
 20
-733.4119847710455
 30
0.0
 10
485.8991283096132
 20
-733.1797855313678
 30
0.0
 10
485.7437543233999
 20
-732.9999517024116
 30
0.0
 10
485.7730373494268
 20
-732.7143532574005
 30
0.0
 10
485.8405605663687
 20
-732.0597850476809
 30
0.0
 10
486.8982044359215
 20
-731.6153666724385
 30
0.0
 10
488.1305151998589
 20
-731.7242304574631
 30
0.0
 10
488.1305151998589
 20
-731.7242304574631
 30
0.0
 10
488.2335235521131
 20
-731.7214742780636
 30
0.0
 10
488.2335235521131
 20
-731.7214742780636
 30
0.0
 10
488.4378177143884
 20
-731.7214740737704
 30
0.0
 10
488.6496908528076
 20
-731.4875518784503
 30
0.0
 10
488.9501028218669
 20
-731.1302951762185
 30
0.0
 10
489.0255503234198
 20
-731.0407226181536
 30
0.0
 10
489.0896290215875
 20
-730.9628633961081
 30
0.0
 10
489.1306256210008
 20
-730.9260008334197
 30
0.0
 10
489.1306256210008
 20
-730.9260008334197
 30
0.0
 10
489.2188199868735
 20
-730.8474525681615
 30
0.0
 10
489.2188199868735
 20
-730.8474525681615
 30
0.0
 10
489.481680539512
 20
-730.6145638504969
 30
0.0
 10
489.7531538225902
 20
-730.3734068950567
 30
0.0
 10
489.9126613997369
 20
-730.0295862061204
 30
0.0
 10
490.0525319763724
 20
-729.7295182494853
 30
0.0
 10
490.08457102194
 20
-729.3870757262127
 30
0.0
 10
490.0042999750194
 20
-729.0649593786126
 30
0.0
 10
489.9726049697701
 20
-728.9381798964489
 30
0.0
 10
489.8668403554477
 20
-728.7552454319483
 30
0.0
 10
489.7335149290003
 20
-728.52407965821
 30
0.0
 10
489.536799635381
 20
-728.1826708923378
 30
0.0
 10
489.2074479357943
 20
-727.6114743902367
 30
0.0
 10
489.2753160763866
 20
-727.3710066574988
 30
0.0
 10
489.2849623086046
 20
-727.3358666739007
 30
0.0
 10
489.3025322738771
 20
-727.3141625547752
 30
0.0
 10
489.3214802869878
 20
-727.3021047016293
 30
0.0
 10
489.3538641766254
 20
-727.2941809496281
 30
0.0
 10
489.4589395992589
 20
-727.3045161310088
 30
0.0
 10
489.5092379981691
 20
-727.3093392143892
 30
0.0
 10
489.5564358107903
 20
-727.3138177913218
 30
0.0
 10
489.5984659795028
 20
-727.3176073543256
 30
0.0
 10
489.6274047815789
 20
-727.3176073253875
 30
0.0
 10
489.6274047815789
 20
-727.3176073253875
 30
0.0
 10
493.9551337198133
 20
-727.3072677112024
 30
0.0
 10
493.9551337198133
 20
-727.3072677112024
 30
0.0
 10
493.9551337198133
 20
-727.3072677112024
 30
0.0
 10
493.9551118723988
 20
-705.4598501819523
 30
0.0
 10
493.9551118723988
 20
-705.4598501819523
 30
0.0
 10
493.9551118723988
 20
-705.4598501819523
 30
0.0
 10
493.3563542770623
 20
-705.4598507807113
 30
0.0
 10
493.3563542770623
 20
-705.4598507807113
 30
0.0
 10
493.3563542770623
 20
-705.4598507807113
 30
0.0
 10
493.369445629566
 20
-705.4495154811643
 30
0.0
 10
493.369445629566
 20
-705.4495154811643
 30
0.0
 10
493.369445629566
 20
-705.4495154811643
 30
0.0
 10
489.6273829134946
 20
-705.4495192232265
 30
0.0
 10
489.6273829134946
 20
-705.4495192232265
 30
0.0
 10
489.5984441114185
 20
-705.4495192521646
 30
0.0
 10
489.5564139502877
 20
-705.4533088992283
 30
0.0
 10
489.5088716370716
 20
-705.4577875709033
 30
0.0
 10
489.4582287382569
 20
-705.4626107552236
 30
0.0
 10
489.3531533362933
 20
-705.4729461467576
 30
0.0
 10
489.3359278574913
 20
-705.471568125786
 30
0.0
 10
489.3025104130248
 20
-705.4533091531333
 30
0.0
 10
489.2849404043471
 20
-705.4316050691447
 30
0.0
 10
489.2752941014986
 20
-705.3961205952945
 30
0.0
 10
489.2060474428188
 20
-705.1566865283166
 30
0.0
 10
489.5367760364811
 20
-704.5837668183866
 30
0.0
 10
489.7334906479653
 20
-704.2430466781832
 30
0.0
 10
489.8668156120794
 20
-704.0118806377978
 30
0.0
 10
489.9725798605436
 20
-703.8289459617681
 30
0.0
 10
490.0042746122268
 20
-703.7021664162143
 30
0.0
 10
490.0845450159493
 20
-703.3810834367175
 30
0.0
 10
490.0525052848072
 20
-703.0379519584292
 30
0.0
 10
489.9126341080329
 20
-702.7378842815339
 30
0.0
 10
489.7531258429104
 20
-702.3937194020658
 30
0.0
 10
489.48165207751
 20
-702.152562989571
 30
0.0
 10
489.2187910590994
 20
-701.9196747976299
 30
0.0
 10
489.2187910590994
 20
-701.9196747976299
 30
0.0
 10
489.1305965361273
 20
-701.8411267087606
 30
0.0
 10
489.1305965361273
 20
-701.8411267087606
 30
0.0
 10
489.0892553534425
 20
-701.8042642284106
 30
0.0
 10
489.025176499213
 20
-701.7260606249741
 30
0.0
 10
488.9493843086213
 20
-701.6361437085995
 30
0.0
 10
488.6493161352896
 20
-701.2795766259457
 30
0.0
 10
488.4374425290237
 20
-701.0456548543682
 30
0.0
 10
488.2334928762969
 20
-701.04565505832
 30
0.0
 10
488.2334928762969
 20
-701.04565505832
 30
0.0
 10
488.2052430840145
 20
-701.03635332876
 30
0.0
 10
488.2052430840145
 20
-701.03635332876
 30
0.0
 10
488.2052430840145
 20
-701.03635332876
 30
0.0
 10
488.1304845185363
 20
-701.0428990849393
 30
0.0
 10
488.1304845185363
 20
-701.0428990849393
 30
0.0
 10
486.8981739723222
 20
-701.1517653345824
 30
0.0
 10
485.8405292139316
 20
-700.7073490746303
 30
0.0
 10
485.7730046878556
 20
-700.0527809999581
 30
0.0
 10
485.7416540343751
 20
-699.7682161442281
 30
0.0
 10
485.8987502076333
 20
-699.5873484741536
 30
0.0
 10
486.0951204180943
 20
-699.3551488420776
 30
0.0
 10
486.0951204180943
 20
-699.3551488420776
 30
0.0
 10
486.1685008644236
 20
-699.267643343374
 30
0.0
 10
486.1685008644236
 20
-699.267643343374
 30
0.0
 10
486.3996664917416
 20
-698.9879013588035
 30
0.0
 10
486.5750215084662
 20
-698.6444251635688
 30
0.0
 10
486.6756179262931
 20
-698.2740772983104
 30
0.0
 10
486.878533305544
 20
-697.5292474514814
 30
0.0
 10
486.7520975109284
 20
-696.7389426736004
 30
0.0
 10
486.3321397373766
 20
-696.1050455242718
 30
0.0
 10
485.9190721654745
 20
-695.4818281640574
 30
0.0
 10
485.2813845915244
 20
-695.0821977254569
 30
0.0
 10
484.5362103364371
 20
-694.9805681538144
 30
0.0
 10
483.6845826156999
 20
-694.8637802684947
 30
0.0
 10
482.7967818326411
 20
-695.1872756223605
 30
0.0
 10
482.2197289758616
 20
-695.8242743546356
 30
0.0
  0
HATCH
  5
12D
330
1F
100
AcDbEntity
  8
Layer 1
 62
    85
420
  6730542
100
AcDbHatch
 10
0.0
 20
0.0
 30
0.0
210
0.0
220
0.0
230
1.0
  2
SOLID
 70
     1
 71
     0
 91
        1
 92
        1
 93
        1
 72
     4
 94
        3
 73
     0
 74
     1
 95
      221
 96
      217
 40
0.0
 40
0.0
 40
0.0
 40
0.0
 40
1.0
 40
1.0
 40
1.0
 40
2.0
 40
2.0
 40
2.0
 40
3.0
 40
3.0
 40
3.0
 40
4.0
 40
4.0
 40
4.0
 40
5.0
 40
5.0
 40
5.0
 40
6.0
 40
6.0
 40
6.0
 40
7.0
 40
7.0
 40
7.0
 40
8.0
 40
8.0
 40
8.0
 40
9.0
 40
9.0
 40
9.0
 40
10.0
 40
10.0
 40
10.0
 40
11.0
 40
11.0
 40
11.0
 40
12.0
 40
12.0
 40
12.0
 40
13.0
 40
13.0
 40
13.0
 40
14.0
 40
14.0
 40
14.0
 40
15.0
 40
15.0
 40
15.0
 40
16.0
 40
16.0
 40
16.0
 40
17.0
 40
17.0
 40
17.0
 40
18.0
 40
18.0
 40
18.0
 40
19.0
 40
19.0
 40
19.0
 40
20.0
 40
20.0
 40
20.0
 40
21.0
 40
21.0
 40
21.0
 40
22.0
 40
22.0
 40
22.0
 40
23.0
 40
23.0
 40
23.0
 40
24.0
 40
24.0
 40
24.0
 40
25.0
 40
25.0
 40
25.0
 40
26.0
 40
26.0
 40
26.0
 40
27.0
 40
27.0
 40
27.0
 40
28.0
 40
28.0
 40
28.0
 40
29.0
 40
29.0
 40
29.0
 40
30.0
 40
30.0
 40
30.0
 40
31.0
 40
31.0
 40
31.0
 40
32.0
 40
32.0
 40
32.0
 40
33.0
 40
33.0
 40
33.0
 40
34.0
 40
34.0
 40
34.0
 40
35.0
 40
35.0
 40
35.0
 40
36.0
 40
36.0
 40
36.0
 40
37.0
 40
37.0
 40
37.0
 40
38.0
 40
38.0
 40
38.0
 40
39.0
 40
39.0
 40
39.0
 40
40.0
 40
40.0
 40
40.0
 40
41.0
 40
41.0
 40
41.0
 40
42.0
 40
42.0
 40
42.0
 40
43.0
 40
43.0
 40
43.0
 40
44.0
 40
44.0
 40
44.0
 40
45.0
 40
45.0
 40
45.0
 40
46.0
 40
46.0
 40
46.0
 40
47.0
 40
47.0
 40
47.0
 40
48.0
 40
48.0
 40
48.0
 40
49.0
 40
49.0
 40
49.0
 40
50.0
 40
50.0
 40
50.0
 40
51.0
 40
51.0
 40
51.0
 40
52.0
 40
52.0
 40
52.0
 40
53.0
 40
53.0
 40
53.0
 40
54.0
 40
54.0
 40
54.0
 40
55.0
 40
55.0
 40
55.0
 40
56.0
 40
56.0
 40
56.0
 40
57.0
 40
57.0
 40
57.0
 40
58.0
 40
58.0
 40
58.0
 40
59.0
 40
59.0
 40
59.0
 40
60.0
 40
60.0
 40
60.0
 40
61.0
 40
61.0
 40
61.0
 40
62.0
 40
62.0
 40
62.0
 40
63.0
 40
63.0
 40
63.0
 40
64.0
 40
64.0
 40
64.0
 40
65.0
 40
65.0
 40
65.0
 40
66.0
 40
66.0
 40
66.0
 40
67.0
 40
67.0
 40
67.0
 40
68.0
 40
68.0
 40
68.0
 40
69.0
 40
69.0
 40
69.0
 40
70.0
 40
70.0
 40
70.0
 40
71.0
 40
71.0
 40
71.0
 40
72.0
 40
72.0
 40
72.0
 40
72.0
 10
482.2197289758616
 20
-695.8242743546356
 10
481.7918485882257
 20
-696.2959083544473
 10
481.5527595775349
 20
-696.9118916663014
 10
481.5462145427543
 20
-697.5585360954268
 10
481.5462145513691
 20
-697.5671488341399
 10
481.5462145596387
 20
-697.5754170633045
 10
481.5462145679038
 20
-697.5836852924691
 10
481.5462151580481
 20
-698.1738301490892
 10
481.7446532302323
 20
-698.7460603107546
 10
482.1060441982859
 20
-699.1977119674782
 10
482.1504859855057
 20
-699.2531779603479
 10
482.1973393381965
 20
-699.307265912614
 10
482.2441926908873
 20
-699.36135386488
 10
482.3713168603642
 20
-699.5074257863276
 10
482.4912063213991
 20
-699.6455739953982
 10
482.549773104153
 20
-699.8050818578006
 10
482.6300440456565
 20
-700.021778283552
 10
482.5921482712686
 20
-700.2977304698161
 10
482.4495215614018
 20
-700.5409543536987
 10
482.0991559493187
 20
-701.1397122994034
 10
481.5803246512287
 20
-701.2217060907827
 10
480.9795000933435
 20
-701.3164468174499
 10
480.539905978672
 20
-701.3856936763
 10
480.0854979558242
 20
-701.4573521168028
 10
479.6744983510692
 20
-701.7439844721722
 10
478.9944369766679
 20
-702.2183748005548
 10
478.6764554750439
 20
-703.0300396148594
 10
478.8831619400318
 20
-703.765911803806
 10
478.9748018075678
 20
-704.0935402928122
 10
479.1380996291538
 20
-704.3891293221491
 10
479.2958852883258
 20
-704.6750720896381
 10
479.2958852883258
 20
-704.6750720896381
 10
479.3172449189178
 20
-704.7136571377158
 10
479.3172449189178
 20
-704.7136571377158
 10
479.532908287659
 20
-705.1050197691761
 10
481.6919539022489
 20
-709.3790030691312
 10
482.1070887608823
 20
-710.2316637865962
 10
479.9508046190724
 20
-711.3540780519777
 10
478.5665676233286
 20
-713.7243051300662
 10
478.5665702202423
 20
-716.3212181068476
 10
478.5665702202423
 20
-716.3212181068476
 10
478.7427868543128
 20
-716.3212179306312
 10
478.7427868543128
 20
-716.3212179306312
 10
478.7427868543128
 20
-716.3212179306312
 10
478.7427868543128
 20
-716.3212179306312
 10
478.7427868543128
 20
-716.3212179306312
 10
478.7427868543128
 20
-716.3212179306312
 10
478.5679483025333
 20
-716.3653153276791
 10
478.5679483025333
 20
-716.3653153276791
 10
478.5679483025333
 20
-716.3653153276791
 10
478.5665703449559
 20
-716.4459305634136
 10
478.5665703449559
 20
-716.4459305634136
 10
478.5665729429001
 20
-719.0438770688367
 10
479.9515036985416
 20
-721.4144458873094
 10
482.1071010646984
 20
-722.5354778026136
 10
481.6923124205854
 20
-723.3877948404536
 10
479.533275353967
 20
-727.6617824584932
 10
479.3172682587484
 20
-728.0534900311717
 10
479.3172682587484
 20
-728.0534900311717
 10
479.2959087053265
 20
-728.0920751219674
 10
479.2959087053265
 20
-728.0920751219674
 10
479.1381236180463
 20
-728.3780182050266
 10
478.9748263876384
 20
-728.673607560962
 10
478.8831871753515
 20
-729.001236233247
 10
478.6764821814182
 20
-729.7364198165021
 10
478.9948098166142
 20
-730.5487730135983
 10
479.6745276302416
 20
-731.0231619821994
 10
480.0855278082603
 20
-731.3097935155723
 10
480.5399359744284
 20
-731.3814510472591
 10
480.9795302275856
 20
-731.4506970269161
 10
481.5803549749587
 20
-731.5454365519377
 10
482.0991864370298
 20
-731.6274293056531
 10
482.4495532466395
 20
-732.2261865506244
 10
482.5921804432895
 20
-732.4697546588037
 10
482.630076768551
 20
-732.7446732406311
 10
482.5498062614751
 20
-732.9624033555697
 10
482.4912397977343
 20
-733.121911335102
 10
482.3713506126499
 20
-733.2597152744032
 10
482.2445712448678
 20
-733.4057874497557
 10
482.1973734908036
 20
-733.4598754960724
 10
482.1505202462962
 20
-733.5139635420464
 10
482.1060785699998
 20
-733.5694296237984
 10
481.7443439960414
 20
-734.021426513198
 10
481.5462515778734
 20
-734.5936570713899
 10
481.5462521680177
 20
-735.1838019280132
 10
481.5462521766325
 20
-735.1924146667262
 10
481.5462521849021
 20
-735.2006828958908
 10
481.5462521931672
 20
-735.2089511250555
 10
481.5527985208885
 20
-735.8552510315443
 10
481.7918887635504
 20
-736.471233865215
 10
482.2197700948003
 20
-736.9432115188139
 10
482.7964797156781
 20
-737.5798645877809
 10
483.684281145717
 20
-737.9033581660424
 10
484.5362531427779
 20
-737.786913086668
 10
485.2814271942676
 20
-737.6849375151323
 10
485.9191139689532
 20
-737.2853058011549
 10
486.3321802940681
 20
-736.6617431052572
 10
486.75213680017
 20
-736.0281896255663
 10
486.8778819954206
 20
-735.2382291050504
 10
486.6756541456099
 20
-734.4933996633696
 10
486.5750569870911
 20
-734.1230519993
 10
486.3997012830746
 20
-733.7792316452271
 10
486.1685350962683
 20
-733.4994901229932
 10
486.1685350962683
 20
-733.4994901229932
 10
486.0951544749297
 20
-733.4119847710455
 10
486.0951544749297
 20
-733.4119847710455
 10
485.8991283096132
 20
-733.1797855313678
 10
485.7437543233999
 20
-732.9999517024116
 10
485.7730373494268
 20
-732.7143532574005
 10
485.8405605663687
 20
-732.0597850476809
 10
486.8982044359215
 20
-731.6153666724385
 10
488.1305151998589
 20
-731.7242304574631
 10
488.1305151998589
 20
-731.7242304574631
 10
488.2335235521131
 20
-731.7214742780636
 10
488.2335235521131
 20
-731.7214742780636
 10
488.4378177143884
 20
-731.7214740737704
 10
488.6496908528076
 20
-731.4875518784503
 10
488.9501028218669
 20
-731.1302951762185
 10
489.0255503234198
 20
-731.0407226181536
 10
489.0896290215875
 20
-730.9628633961081
 10
489.1306256210008
 20
-730.9260008334197
 10
489.1306256210008
 20
-730.9260008334197
 10
489.2188199868735
 20
-730.8474525681615
 10
489.2188199868735
 20
-730.8474525681615
 10
489.481680539512
 20
-730.6145638504969
 10
489.7531538225902
 20
-730.3734068950567
 10
489.9126613997369
 20
-730.0295862061204
 10
490.0525319763724
 20
-729.7295182494853
 10
490.08457102194
 20
-729.3870757262127
 10
490.0042999750194
 20
-729.0649593786126
 10
489.9726049697701
 20
-728.9381798964489
 10
489.8668403554477
 20
-728.7552454319483
 10
489.7335149290003
 20
-728.52407965821
 10
489.536799635381
 20
-728.1826708923378
 10
489.2074479357943
 20
-727.6114743902367
 10
489.2753160763866
 20
-727.3710066574988
 10
489.2849623086046
 20
-727.3358666739007
 10
489.3025322738771
 20
-727.3141625547752
 10
489.3214802869878
 20
-727.3021047016293
 10
489.3538641766254
 20
-727.2941809496281
 10
489.4589395992589
 20
-727.3045161310088
 10
489.5092379981691
 20
-727.3093392143892
 10
489.5564358107903
 20
-727.3138177913218
 10
489.5984659795028
 20
-727.3176073543256
 10
489.6274047815789
 20
-727.3176073253875
 10
489.6274047815789
 20
-727.3176073253875
 10
493.9551337198133
 20
-727.3072677112024
 10
493.9551337198133
 20
-727.3072677112024
 10
493.9551337198133
 20
-727.3072677112024
 10
493.9551118723988
 20
-705.4598501819523
 10
493.9551118723988
 20
-705.4598501819523
 10
493.9551118723988
 20
-705.4598501819523
 10
493.3563542770623
 20
-705.4598507807113
 10
493.3563542770623
 20
-705.4598507807113
 10
493.3563542770623
 20
-705.4598507807113
 10
493.369445629566
 20
-705.4495154811643
 10
493.369445629566
 20
-705.4495154811643
 10
493.369445629566
 20
-705.4495154811643
 10
489.6273829134946
 20
-705.4495192232265
 10
489.6273829134946
 20
-705.4495192232265
 10
489.5984441114185
 20
-705.4495192521646
 10
489.5564139502877
 20
-705.4533088992283
 10
489.5088716370716
 20
-705.4577875709033
 10
489.4582287382569
 20
-705.4626107552236
 10
489.3531533362933
 20
-705.4729461467576
 10
489.3359278574913
 20
-705.471568125786
 10
489.3025104130248
 20
-705.4533091531333
 10
489.2849404043471
 20
-705.4316050691447
 10
489.2752941014986
 20
-705.3961205952945
 10
489.2060474428188
 20
-705.1566865283166
 10
489.5367760364811
 20
-704.5837668183866
 10
489.7334906479653
 20
-704.2430466781832
 10
489.8668156120794
 20
-704.0118806377978
 10
489.9725798605436
 20
-703.8289459617681
 10
490.0042746122268
 20
-703.7021664162143
 10
490.0845450159493
 20
-703.3810834367175
 10
490.0525052848072
 20
-703.0379519584292
 10
489.9126341080329
 20
-702.7378842815339
 10
489.7531258429104
 20
-702.3937194020658
 10
489.48165207751
 20
-702.152562989571
 10
489.2187910590994
 20
-701.9196747976299
 10
489.2187910590994
 20
-701.9196747976299
 10
489.1305965361273
 20
-701.8411267087606
 10
489.1305965361273
 20
-701.8411267087606
 10
489.0892553534425
 20
-701.8042642284106
 10
489.025176499213
 20
-701.7260606249741
 10
488.9493843086213
 20
-701.6361437085995
 10
488.6493161352896
 20
-701.2795766259457
 10
488.4374425290237
 20
-701.0456548543682
 10
488.2334928762969
 20
-701.04565505832
 10
488.2334928762969
 20
-701.04565505832
 10
488.2052430840145
 20
-701.03635332876
 10
488.2052430840145
 20
-701.03635332876
 10
488.2052430840145
 20
-701.03635332876
 10
488.1304845185363
 20
-701.0428990849393
 10
488.1304845185363
 20
-701.0428990849393
 10
486.8981739723222
 20
-701.1517653345824
 10
485.8405292139316
 20
-700.7073490746303
 10
485.7730046878556
 20
-700.0527809999581
 10
485.7416540343751
 20
-699.7682161442281
 10
485.8987502076333
 20
-699.5873484741536
 10
486.0951204180943
 20
-699.3551488420776
 10
486.0951204180943
 20
-699.3551488420776
 10
486.1685008644236
 20
-699.267643343374
 10
486.1685008644236
 20
-699.267643343374
 10
486.3996664917416
 20
-698.9879013588035
 10
486.5750215084662
 20
-698.6444251635688
 10
486.6756179262931
 20
-698.2740772983104
 10
486.878533305544
 20
-697.5292474514814
 10
486.7520975109284
 20
-696.7389426736004
 10
486.3321397373766
 20
-696.1050455242718
 10
485.9190721654745
 20
-695.4818281640574
 10
485.2813845915244
 20
-695.0821977254569
 10
484.5362103364371
 20
-694.9805681538144
 10
483.6845826156999
 20
-694.8637802684947
 10
482.7967818326411
 20
-695.1872756223605
 10
482.2197289758616
 20
-695.8242743546356
 97
        0
 97
        0
 75
     2
 76
     1
 98
        0
  0
SPLINE
  5
12E
330
1F
100
AcDbEntity
  8
Layer 1
370
     0
100
AcDbSpline
210
0.0
220
0.0
230
1.0
 70
    11
 71
     3
 72
    17
 73
    13
 74
     0
 42
0.0000000001
 43
0.0000000001
 12
1.0
 22
0.0
 32
0.0
 13
1.0
 23
0.0
 33
0.0
 40
0.0
 40
0.0
 40
0.0
 40
0.0
 40
1.0
 40
1.0
 40
1.0
 40
2.0
 40
2.0
 40
2.0
 40
3.0
 40
3.0
 40
3.0
 40
4.0
 40
4.0
 40
4.0
 40
4.0
 10
485.8796377484106
 20
-704.6953923194216
 30
0.0
 10
485.8796377484106
 20
-705.1096058816692
 30
0.0
 10
485.5438513108413
 20
-705.4453923192348
 30
0.0
 10
485.1296377485937
 20
-705.4453923192348
 30
0.0
 10
484.7154241863499
 20
-705.4453923192348
 30
0.0
 10
484.3796377487844
 20
-705.1096058816692
 30
0.0
 10
484.3796377487844
 20
-704.6953923194216
 30
0.0
 10
484.3796377487844
 20
-704.281178757174
 30
0.0
 10
484.7154241863499
 20
-703.9453923196085
 30
0.0
 10
485.1296377485937
 20
-703.9453923196085
 30
0.0
 10
485.5438513108413
 20
-703.9453923196085
 30
0.0
 10
485.8796377484106
 20
-704.281178757174
 30
0.0
 10
485.8796377484106
 20
-704.6953923194216
 30
0.0
  0
HATCH
  5
12F
330
1F
100
AcDbEntity
  8
Layer 1
 62
   250
420
  1842203
100
AcDbHatch
 10
0.0
 20
0.0
 30
0.0
210
0.0
220
0.0
230
1.0
  2
SOLID
 70
     1
 71
     0
 91
        1
 92
        1
 93
        1
 72
     4
 94
        3
 73
     0
 74
     1
 95
       17
 96
       13
 40
0.0
 40
0.0
 40
0.0
 40
0.0
 40
1.0
 40
1.0
 40
1.0
 40
2.0
 40
2.0
 40
2.0
 40
3.0
 40
3.0
 40
3.0
 40
4.0
 40
4.0
 40
4.0
 40
4.0
 10
485.8796377484106
 20
-704.6953923194216
 10
485.8796377484106
 20
-705.1096058816692
 10
485.5438513108413
 20
-705.4453923192348
 10
485.1296377485937
 20
-705.4453923192348
 10
484.7154241863499
 20
-705.4453923192348
 10
484.3796377487844
 20
-705.1096058816692
 10
484.3796377487844
 20
-704.6953923194216
 10
484.3796377487844
 20
-704.281178757174
 10
484.7154241863499
 20
-703.9453923196085
 10
485.1296377485937
 20
-703.9453923196085
 10
485.5438513108413
 20
-703.9453923196085
 10
485.8796377484106
 20
-704.281178757174
 10
485.8796377484106
 20
-704.6953923194216
 97
        0
 97
        0
 75
     2
 76
     1
 98
        0
  0
SPLINE
  5
130
330
1F
100
AcDbEntity
  8
Layer 1
370
     0
100
AcDbSpline
210
0.0
220
0.0
230
1.0
 70
    11
 71
     3
 72
    17
 73
    13
 74
     0
 42
0.0000000001
 43
0.0000000001
 12
1.0
 22
0.0
 32
0.0
 13
1.0
 23
0.0
 33
0.0
 40
0.0
 40
0.0
 40
0.0
 40
0.0
 40
1.0
 40
1.0
 40
1.0
 40
2.0
 40
2.0
 40
2.0
 40
3.0
 40
3.0
 40
3.0
 40
4.0
 40
4.0
 40
4.0
 40
4.0
 10
483.7138901597777
 20
-716.3837421925858
 30
0.0
 10
483.7138901597777
 20
-716.7979557548296
 30
0.0
 10
483.3781037222161
 20
-717.1337421923989
 30
0.0
 10
482.9638901599723
 20
-717.1337421923989
 30
0.0
 10
482.5496765977247
 20
-717.1337421923989
 30
0.0
 10
482.2138901601553
 20
-716.7979557548296
 30
0.0
 10
482.2138901601553
 20
-716.3837421925858
 30
0.0
 10
482.2138901601553
 20
-715.9695286303382
 30
0.0
 10
482.5496765977247
 20
-715.6337421927726
 30
0.0
 10
482.9638901599723
 20
-715.6337421927726
 30
0.0
 10
483.3781037222161
 20
-715.6337421927726
 30
0.0
 10
483.7138901597777
 20
-715.9695286303382
 30
0.0
 10
483.7138901597777
 20
-716.3837421925858
 30
0.0
  0
HATCH
  5
131
330
1F
100
AcDbEntity
  8
Layer 1
 62
   250
420
  1842203
100
AcDbHatch
 10
0.0
 20
0.0
 30
0.0
210
0.0
220
0.0
230
1.0
  2
SOLID
 70
     1
 71
     0
 91
        1
 92
        1
 93
        1
 72
     4
 94
        3
 73
     0
 74
     1
 95
       17
 96
       13
 40
0.0
 40
0.0
 40
0.0
 40
0.0
 40
1.0
 40
1.0
 40
1.0
 40
2.0
 40
2.0
 40
2.0
 40
3.0
 40
3.0
 40
3.0
 40
4.0
 40
4.0
 40
4.0
 40
4.0
 10
483.7138901597777
 20
-716.3837421925858
 10
483.7138901597777
 20
-716.7979557548296
 10
483.3781037222161
 20
-717.1337421923989
 10
482.9638901599723
 20
-717.1337421923989
 10
482.5496765977247
 20
-717.1337421923989
 10
482.2138901601553
 20
-716.7979557548296
 10
482.2138901601553
 20
-716.3837421925858
 10
482.2138901601553
 20
-715.9695286303382
 10
482.5496765977247
 20
-715.6337421927726
 10
482.9638901599723
 20
-715.6337421927726
 10
483.3781037222161
 20
-715.6337421927726
 10
483.7138901597777
 20
-715.9695286303382
 10
483.7138901597777
 20
-716.3837421925858
 97
        0
 97
        0
 75
     2
 76
     1
 98
        0
  0
SPLINE
  5
132
330
1F
100
AcDbEntity
  8
Layer 1
370
     0
100
AcDbSpline
210
0.0
220
0.0
230
1.0
 70
    11
 71
     3
 72
    17
 73
    13
 74
     0
 42
0.0000000001
 43
0.0000000001
 12
1.0
 22
0.0
 32
0.0
 13
1.0
 23
0.0
 33
0.0
 40
0.0
 40
0.0
 40
0.0
 40
0.0
 40
1.0
 40
1.0
 40
1.0
 40
2.0
 40
2.0
 40
2.0
 40
3.0
 40
3.0
 40
3.0
 40
4.0
 40
4.0
 40
4.0
 40
4.0
 10
485.8796611247571
 20
-728.0717432250256
 30
0.0
 10
485.8796611247571
 20
-728.4859567872693
 30
0.0
 10
485.5438746871916
 20
-728.8217432248387
 30
0.0
 10
485.129661124944
 20
-728.8217432248387
 30
0.0
 10
484.7154475627003
 20
-728.8217432248387
 30
0.0
 10
484.3796611251309
 20
-728.4859567872693
 30
0.0
 10
484.3796611251309
 20
-728.0717432250256
 30
0.0
 10
484.3796611251309
 20
-727.657529662778
 30
0.0
 10
484.7154475627003
 20
-727.3217432252125
 30
0.0
 10
485.129661124944
 20
-727.3217432252125
 30
0.0
 10
485.5438746871916
 20
-727.3217432252125
 30
0.0
 10
485.8796611247571
 20
-727.657529662778
 30
0.0
 10
485.8796611247571
 20
-728.0717432250256
 30
0.0
  0
HATCH
  5
133
330
1F
100
AcDbEntity
  8
Layer 1
 62
   250
420
  1842203
100
AcDbHatch
 10
0.0
 20
0.0
 30
0.0
210
0.0
220
0.0
230
1.0
  2
SOLID
 70
     1
 71
     0
 91
        1
 92
        1
 93
        1
 72
     4
 94
        3
 73
     0
 74
     1
 95
       17
 96
       13
 40
0.0
 40
0.0
 40
0.0
 40
0.0
 40
1.0
 40
1.0
 40
1.0
 40
2.0
 40
2.0
 40
2.0
 40
3.0
 40
3.0
 40
3.0
 40
4.0
 40
4.0
 40
4.0
 40
4.0
 10
485.8796611247571
 20
-728.0717432250256
 10
485.8796611247571
 20
-728.4859567872693
 10
485.5438746871916
 20
-728.8217432248387
 10
485.129661124944
 20
-728.8217432248387
 10
484.7154475627003
 20
-728.8217432248387
 10
484.3796611251309
 20
-728.4859567872693
 10
484.3796611251309
 20
-728.0717432250256
 10
484.3796611251309
 20
-727.657529662778
 10
484.7154475627003
 20
-727.3217432252125
 10
485.129661124944
 20
-727.3217432252125
 10
485.5438746871916
 20
-727.3217432252125
 10
485.8796611247571
 20
-727.657529662778
 10
485.8796611247571
 20
-728.0717432250256
 97
        0
 97
        0
 75
     2
 76
     1
 98
        0
  0
SPLINE
  5
134
330
1F
100
AcDbEntity
  8
Layer 1
 62
    22
420
 14951456
370
    35
100
AcDbSpline
210
0.0
220
0.0
230
1.0
 70
    11
 71
     3
 72
    53
 73
    49
 74
     0
 42
0.0000000001
 43
0.0000000001
 12
1.0
 22
0.0
 32
0.0
 13
1.0
 23
0.0
 33
0.0
 40
0.0
 40
0.0
 40
0.0
 40
0.0
 40
1.0
 40
1.0
 40
1.0
 40
2.0
 40
2.0
 40
2.0
 40
3.0
 40
3.0
 40
3.0
 40
4.0
 40
4.0
 40
4.0
 40
5.0
 40
5.0
 40
5.0
 40
6.0
 40
6.0
 40
6.0
 40
7.0
 40
7.0
 40
7.0
 40
8.0
 40
8.0
 40
8.0
 40
9.0
 40
9.0
 40
9.0
 40
10.0
 40
10.0
 40
10.0
 40
11.0
 40
11.0
 40
11.0
 40
12.0
 40
12.0
 40
12.0
 40
13.0
 40
13.0
 40
13.0
 40
14.0
 40
14.0
 40
14.0
 40
15.0
 40
15.0
 40
15.0
 40
16.0
 40
16.0
 40
16.0
 40
16.0
 10
492.155121392629
 20
-462.7586597584345
 30
0.0
 10
492.155121392629
 20
-462.7586597584345
 30
0.0
 10
207.6551528290422
 20
-462.7586597584345
 30
0.0
 10
207.6551528290422
 20
-462.7586597584345
 30
0.0
 10
204.8937365428402
 20
-462.7586597584345
 30
0.0
 10
202.6551565602185
 20
-464.9972397410576
 30
0.0
 10
202.6551565602185
 20
-467.7586775591077
 30
0.0
 10
202.6551565602185
 20
-467.7586775591077
 30
0.0
 10
202.6551565602185
 20
-797.758689683639
 30
0.0
 10
202.6551565602185
 20
-797.758689683639
 30
0.0
 10
202.6551565602185
 20
-800.5199337150667
 30
0.0
 10
204.8935427562195
 20
-802.7584275703001
 30
0.0
 10
207.6547221921066
 20
-802.7586428887705
 30
0.0
 10
207.6547221921066
 20
-802.7586428887705
 30
0.0
 10
492.1555520295627
 20
-802.7586428887705
 30
0.0
 10
492.1555520295627
 20
-802.7586428887705
 30
0.0
 10
494.9167529972981
 20
-802.7584275703001
 30
0.0
 10
497.1551607251463
 20
-800.5199337150667
 30
0.0
 10
497.1551607251463
 20
-797.758689683639
 30
0.0
 10
497.1551607251463
 20
-797.758689683639
 30
0.0
 10
497.1551607251463
 20
-727.8836696951372
 30
0.0
 10
497.1551607251463
 20
-727.8836696951372
 30
0.0
 10
497.1551607251463
 20
-727.8836696951372
 30
0.0
 10
493.955183783672
 20
-727.8836696951372
 30
0.0
 10
493.955183783672
 20
-727.8836696951372
 30
0.0
 10
493.955183783672
 20
-727.8836696951372
 30
0.0
 10
493.955183783672
 20
-704.8836739394417
 30
0.0
 10
493.955183783672
 20
-704.8836739394417
 30
0.0
 10
493.955183783672
 20
-704.8836739394417
 30
0.0
 10
497.1551607251463
 20
-704.8836739394417
 30
0.0
 10
497.1551607251463
 20
-704.8836739394417
 30
0.0
 10
497.1551607251463
 20
-704.8836739394417
 30
0.0
 10
497.1551607251463
 20
-560.6336502396082
 30
0.0
 10
497.1551607251463
 20
-560.6336502396082
 30
0.0
 10
497.1551607251463
 20
-560.6336502396082
 30
0.0
 10
493.955183783672
 20
-560.6336502396082
 30
0.0
 10
493.955183783672
 20
-560.6336502396082
 30
0.0
 10
493.955183783672
 20
-560.6336502396082
 30
0.0
 10
493.955183783672
 20
-537.6336544839132
 30
0.0
 10
493.955183783672
 20
-537.6336544839132
 30
0.0
 10
493.955183783672
 20
-537.6336544839132
 30
0.0
 10
497.1551607251463
 20
-537.6336544839132
 30
0.0
 10
497.1551607251463
 20
-537.6336544839132
 30
0.0
 10
497.1551607251463
 20
-537.6336544839132
 30
0.0
 10
497.1551607251463
 20
-467.7586775591077
 30
0.0
 10
497.1551607251463
 20
-467.7586775591077
 30
0.0
 10
497.1551607251463
 20
-464.9972397410576
 30
0.0
 10
494.916537678831
 20
-462.7586597584345
 30
0.0
 10
492.155121392629
 20
-462.7586597584345
 30
0.0
  0
SPLINE
  5
135
330
1F
100
AcDbEntity
  8
Layer 1
370
     0
100
AcDbSpline
210
0.0
220
0.0
230
1.0
 70
    11
 71
     3
 72
    29
 73
    25
 74
     0
 42
0.0000000001
 43
0.0000000001
 12
1.0
 22
0.0
 32
0.0
 13
1.0
 23
0.0
 33
0.0
 40
0.0
 40
0.0
 40
0.0
 40
0.0
 40
1.0
 40
1.0
 40
1.0
 40
2.0
 40
2.0
 40
2.0
 40
3.0
 40
3.0
 40
3.0
 40
4.0
 40
4.0
 40
4.0
 40
5.0
 40
5.0
 40
5.0
 40
6.0
 40
6.0
 40
6.0
 40
7.0
 40
7.0
 40
7.0
 40
8.0
 40
8.0
 40
8.0
 40
8.0
 10
238.4051424886464
 20
-773.2586646081415
 30
0.0
 10
238.4051424886464
 20
-773.2586646081415
 30
0.0
 10
238.4051424886464
 20
-492.2586646783899
 30
0.0
 10
238.4051424886464
 20
-492.2586646783899
 30
0.0
 10
238.4051424886464
 20
-486.7358171814607
 30
0.0
 10
242.8822949892191
 20
-482.2586646808909
 30
0.0
 10
248.4051424861464
 20
-482.2586646808909
 30
0.0
 10
248.4051424861464
 20
-482.2586646808909
 30
0.0
 10
451.4051424353965
 20
-482.2586646808909
 30
0.0
 10
451.4051424353965
 20
-482.2586646808909
 30
0.0
 10
456.9279899323219
 20
-482.2586646808909
 30
0.0
 10
461.4051424328987
 20
-486.7358171814607
 30
0.0
 10
461.4051424328987
 20
-492.2586646783899
 30
0.0
 10
461.4051424328987
 20
-492.2586646783899
 30
0.0
 10
461.4051424328987
 20
-773.2586646081415
 30
0.0
 10
461.4051424328987
 20
-773.2586646081415
 30
0.0
 10
461.4051424328987
 20
-778.7815121050669
 30
0.0
 10
456.9279899323219
 20
-783.2586646056405
 30
0.0
 10
451.4051424353965
 20
-783.2586646056405
 30
0.0
 10
451.4051424353965
 20
-783.2586646056405
 30
0.0
 10
248.4051424861464
 20
-783.2586646056405
 30
0.0
 10
248.4051424861464
 20
-783.2586646056405
 30
0.0
 10
242.8822949892191
 20
-783.2586646056405
 30
0.0
 10
238.4051424886464
 20
-778.7815121050669
 30
0.0
 10
238.4051424886464
 20
-773.2586646081415
 30
0.0
  0
HATCH
  5
136
330
1F
100
AcDbEntity
  8
Layer 1
 62
    85
420
  6730542
100
AcDbHatch
 10
0.0
 20
0.0
 30
0.0
210
0.0
220
0.0
230
1.0
  2
SOLID
 70
     1
 71
     0
 91
        1
 92
        1
 93
        1
 72
     4
 94
        3
 73
     0
 74
     1
 95
       29
 96
       25
 40
0.0
 40
0.0
 40
0.0
 40
0.0
 40
1.0
 40
1.0
 40
1.0
 40
2.0
 40
2.0
 40
2.0
 40
3.0
 40
3.0
 40
3.0
 40
4.0
 40
4.0
 40
4.0
 40
5.0
 40
5.0
 40
5.0
 40
6.0
 40
6.0
 40
6.0
 40
7.0
 40
7.0
 40
7.0
 40
8.0
 40
8.0
 40
8.0
 40
8.0
 10
238.4051424886464
 20
-773.2586646081415
 10
238.4051424886464
 20
-773.2586646081415
 10
238.4051424886464
 20
-492.2586646783899
 10
238.4051424886464
 20
-492.2586646783899
 10
238.4051424886464
 20
-486.7358171814607
 10
242.8822949892191
 20
-482.2586646808909
 10
248.4051424861464
 20
-482.2586646808909
 10
248.4051424861464
 20
-482.2586646808909
 10
451.4051424353965
 20
-482.2586646808909
 10
451.4051424353965
 20
-482.2586646808909
 10
456.9279899323219
 20
-482.2586646808909
 10
461.4051424328987
 20
-486.7358171814607
 10
461.4051424328987
 20
-492.2586646783899
 10
461.4051424328987
 20
-492.2586646783899
 10
461.4051424328987
 20
-773.2586646081415
 10
461.4051424328987
 20
-773.2586646081415
 10
461.4051424328987
 20
-778.7815121050669
 10
456.9279899323219
 20
-783.2586646056405
 10
451.4051424353965
 20
-783.2586646056405
 10
451.4051424353965
 20
-783.2586646056405
 10
248.4051424861464
 20
-783.2586646056405
 10
248.4051424861464
 20
-783.2586646056405
 10
242.8822949892191
 20
-783.2586646056405
 10
238.4051424886464
 20
-778.7815121050669
 10
238.4051424886464
 20
-773.2586646081415
 97
        0
 97
        0
 75
     2
 76
     1
 98
        0
  0
INSERT
  5
138
330
1F
100
AcDbEntity
  8
Layer 1
100
AcDbBlockReference
  2
block 3
 10
0.0
 20
0.0
 30
0.0
  0
INSERT
  5
148
330
1F
100
AcDbEntity
  8
Layer 1
100
AcDbBlockReference
  2
block 4
 10
0.0
 20
0.0
 30
0.0
  0
INSERT
  5
158
330
1F
100
AcDbEntity
  8
Layer 1
100
AcDbBlockReference
  2
block 5
 10
0.0
 20
0.0
 30
0.0
  0
INSERT
  5
15F
330
1F
100
AcDbEntity
  8
Layer 1
100
AcDbBlockReference
  2
block 6
 10
0.0
 20
0.0
 30
0.0
  0
INSERT
  5
166
330
1F
100
AcDbEntity
  8
Layer 1
100
AcDbBlockReference
  2
block 7
 10
0.0
 20
0.0
 30
0.0
  0
INSERT
  5
16D
330
1F
100
AcDbEntity
  8
Layer 1
100
AcDbBlockReference
  2
block 8
 10
0.0
 20
0.0
 30
0.0
  0
POLYLINE
  5
173
330
1F
100
AcDbEntity
  8
Layer 1
 62
   250
420
  1842203
370
    35
100
AcDb2dPolyline
 66
     1
 10
0.0
 20
0.0
 30
0.0
  0
VERTEX
  5
174
330
173
100
AcDbEntity
  8
Layer 1
 62
   250
420
  1842203
370
    35
100
AcDbVertex
100
AcDb2dVertex
 10
699.9999998249872
 20
-899.9999997749982
 30
0.0
  0
VERTEX
  5
175
330
173
100
AcDbEntity
  8
Layer 1
 62
   250
420
  1842203
370
    35
100
AcDbVertex
100
AcDb2dVertex
 10
0.0
 20
-899.9999997749982
 30
0.0
  0
VERTEX
  5
176
330
173
100
AcDbEntity
  8
Layer 1
 62
   250
420
  1842203
370
    35
100
AcDbVertex
100
AcDb2dVertex
 10
0.0
 20
0.0
 30
0.0
  0
VERTEX
  5
177
330
173
100
AcDbEntity
  8
Layer 1
 62
   250
420
  1842203
370
    35
100
AcDbVertex
100
AcDb2dVertex
 10
699.9999998249872
 20
0.0
 30
0.0
  0
VERTEX
  5
178
330
173
100
AcDbEntity
  8
Layer 1
 62
   250
420
  1842203
370
    35
100
AcDbVertex
100
AcDb2dVertex
 10
699.9999998249872
 20
-899.9999997749982
 30
0.0
  0
SEQEND
  5
179
330
173
100
AcDbEntity
  8
Layer 1
 62
   250
420
  1842203
370
    35
  0
INSERT
  5
17B
330
1F
100
AcDbEntity
  8
Layer 1
100
AcDbBlockReference
  2
block 9
 10
0.0
 20
0.0
 30
0.0
  0
INSERT
  5
182
330
1F
100
AcDbEntity
  8
Layer 1
100
AcDbBlockReference
  2
block 10
 10
0.0
 20
0.0
 30
0.0
  0
INSERT
  5
189
330
1F
100
AcDbEntity
  8
Layer 1
100
AcDbBlockReference
  2
block 11
 10
0.0
 20
0.0
 30
0.0
  0
INSERT
  5
190
330
1F
100
AcDbEntity
  8
Layer 1
100
AcDbBlockReference
  2
block 12
 10
0.0
 20
0.0
 30
0.0
  0
INSERT
  5
197
330
1F
100
AcDbEntity
  8
Layer 1
100
AcDbBlockReference
  2
block 13
 10
0.0
 20
0.0
 30
0.0
  0
INSERT
  5
19E
330
1F
100
AcDbEntity
  8
Layer 1
100
AcDbBlockReference
  2
block 14
 10
0.0
 20
0.0
 30
0.0
  0
INSERT
  5
1A5
330
1F
100
AcDbEntity
  8
Layer 1
100
AcDbBlockReference
  2
block 15
 10
0.0
 20
0.0
 30
0.0
  0
ENDSEC
  0
SECTION
  2
OBJECTS
  0
DICTIONARY
  5
C
330
0
100
AcDbDictionary
281
     1
  3
ACAD_GROUP
350
D
  3
ACAD_LAYOUT
350
1A
  3
ACAD_MATERIAL
350
3B
  3
ACAD_MLEADERSTYLE
350
1AC
  3
ACAD_MLINESTYLE
350
17
  3
ACAD_PLOTSETTINGS
350
19
  3
ACAD_PLOTSTYLENAME
350
E
  3
ACAD_TABLESTYLE
350
1AB
  3
ACAD_VISUALSTYLE
350
2A
  0
SUN
  5
3F
330
29
100
AcDbSun
 90
        1
290
     0
 63
     7
421
 16777215
 40
1.0
291
     1
 91
  2455826
 92
 54000000
292
     0
 70
     2
 71
   256
280
     1
  0
DICTIONARY
  5
D
102
{ACAD_REACTORS
330
C
102
}
330
C
100
AcDbDictionary
281
     1
  0
DICTIONARY
  5
1A
102
{ACAD_REACTORS
330
C
102
}
330
C
100
AcDbDictionary
281
     1
  3
Layout1
350
1E
  3
Layout2
350
26
  3
Model
350
22
  0
DICTIONARY
  5
3B
102
{ACAD_REACTORS
330
C
102
}
330
C
100
AcDbDictionary
281
     1
  3
ByBlock
350
3D
  3
ByLayer
350
3C
  3
Global
350
3E
  0
DICTIONARY
  5
1AC
102
{ACAD_REACTORS
330
C
102
}
330
C
100
AcDbDictionary
281
     1
  0
DICTIONARY
  5
17
102
{ACAD_REACTORS
330
C
102
}
330
C
100
AcDbDictionary
281
     1
  3
Standard
350
18
  0
DICTIONARY
  5
19
102
{ACAD_REACTORS
330
C
102
}
330
C
100
AcDbDictionary
281
     1
  0
ACDBDICTIONARYWDFLT
  5
E
102
{ACAD_REACTORS
330
C
102
}
330
C
100
AcDbDictionary
281
     1
  3
Normal
350
F
100
AcDbDictionaryWithDefault
340
F
  0
DICTIONARY
  5
1AB
102
{ACAD_REACTORS
330
C
102
}
330
C
100
AcDbDictionary
281
     1
  0
DICTIONARY
  5
2A
102
{ACAD_REACTORS
330
C
102
}
330
C
100
AcDbDictionary
281
     1
  3
2dWireframe
350
2F
  3
3D Hidden
350
31
  3
3dWireframe
350
30
  3
Basic
350
32
  3
Brighten
350
36
  3
ColorChange
350
3A
  3
Conceptual
350
34
  3
Dim
350
35
  3
Facepattern
350
39
  3
Flat
350
2B
  3
FlatWithEdges
350
2C
  3
Gouraud
350
2D
  3
GouraudWithEdges
350
2E
  3
Linepattern
350
38
  3
Realistic
350
33
  3
Thicken
350
37
  0
LAYOUT
  5
1E
102
{ACAD_REACTORS
330
1A
102
}
330
1A
100
AcDbPlotSettings
  1

  2
none_device
  4

  6

 40
0.0
 41
0.0
 42
0.0
 43
0.0
 44
0.0
 45
0.0
 46
0.0
 47
0.0
 48
0.0
 49
0.0
140
0.0
141
0.0
142
1.0
143
1.0
 70
   688
 72
     0
 73
     0
 74
     5
  7

 75
    16
 76
     0
 77
     2
 78
   300
147
1.0
148
0.0
149
0.0
100
AcDbLayout
  1
Layout1
 70
     1
 71
     1
 10
0.0
 20
0.0
 11
12.0
 21
9.0
 12
0.0
 22
0.0
 32
0.0
 14
1.000000000000000E+20
 24
1.000000000000000E+20
 34
1.000000000000000E+20
 15
-1.000000000000000E+20
 25
-1.000000000000000E+20
 35
-1.000000000000000E+20
146
0.0
 13
0.0
 23
0.0
 33
0.0
 16
1.0
 26
0.0
 36
0.0
 17
0.0
 27
1.0
 37
0.0
 76
     0
330
1B
  0
LAYOUT
  5
26
102
{ACAD_REACTORS
330
1A
102
}
330
1A
100
AcDbPlotSettings
  1

  2
none_device
  4

  6

 40
0.0
 41
0.0
 42
0.0
 43
0.0
 44
0.0
 45
0.0
 46
0.0
 47
0.0
 48
0.0
 49
0.0
140
0.0
141
0.0
142
1.0
143
1.0
 70
   688
 72
     0
 73
     0
 74
     5
  7

 75
    16
 76
     0
 77
     2
 78
   300
147
1.0
148
0.0
149
0.0
100
AcDbLayout
  1
Layout2
 70
     1
 71
     2
 10
0.0
 20
0.0
 11
0.0
 21
0.0
 12
0.0
 22
0.0
 32
0.0
 14
0.0
 24
0.0
 34
0.0
 15
0.0
 25
0.0
 35
0.0
146
0.0
 13
0.0
 23
0.0
 33
0.0
 16
1.0
 26
0.0
 36
0.0
 17
0.0
 27
1.0
 37
0.0
 76
     0
330
23
  0
LAYOUT
  5
22
102
{ACAD_REACTORS
330
1A
102
}
330
1A
100
AcDbPlotSettings
  1

  2
none_device
  4

  6

 40
0.0
 41
0.0
 42
0.0
 43
0.0
 44
0.0
 45
0.0
 46
0.0
 47
0.0
 48
0.0
 49
0.0
140
0.0
141
0.0
142
1.0
143
1.0
 70
  1712
 72
     0
 73
     0
 74
     0
  7

 75
     0
 76
     0
 77
     2
 78
   300
147
1.0
148
0.0
149
0.0
100
AcDbLayout
  1
Model
 70
     1
 71
     0
 10
0.0
 20
0.0
 11
12.0
 21
9.0
 12
0.0
 22
0.0
 32
0.0
 14
1.000000000000000E+20
 24
1.000000000000000E+20
 34
1.000000000000000E+20
 15
-1.000000000000000E+20
 25
-1.000000000000000E+20
 35
-1.000000000000000E+20
146
0.0
 13
0.0
 23
0.0
 33
0.0
 16
1.0
 26
0.0
 36
0.0
 17
0.0
 27
1.0
 37
0.0
 76
     0
330
1F
331
29
  0
MATERIAL
  5
3D
102
{ACAD_REACTORS
330
3B
102
}
330
3B
100
AcDbMaterial
  1
ByBlock
 72
     1
 94
      127
  0
MATERIAL
  5
3C
102
{ACAD_REACTORS
330
3B
102
}
330
3B
100
AcDbMaterial
  1
ByLayer
 72
     1
 94
      127
  0
MATERIAL
  5
3E
102
{ACAD_REACTORS
330
3B
102
}
330
3B
100
AcDbMaterial
  1
Global
 72
     1
 94
      127
  0
MLINESTYLE
  5
18
102
{ACAD_REACTORS
330
17
102
}
330
17
100
AcDbMlineStyle
  2
Standard
 70
     0
  3

 62
   256
 51
90.0
 52
90.0
 71
     2
 49
0.5
 62
   256
  6
BYLAYER
 49
-0.5
 62
   256
  6
BYLAYER
  0
ACDBPLACEHOLDER
  5
F
102
{ACAD_REACTORS
330
E
102
}
330
E
  0
VISUALSTYLE
  5
2F
102
{ACAD_REACTORS
330
2A
102
}
330
2A
100
AcDbVisualStyle
  2
2dWireframe
 70
     4
177
     2
291
     0
 71
     0
176
     1
 72
     2
176
     1
 73
     0
176
     1
 90
        0
176
     1
 40
-0.6
176
     1
 41
-30.0
176
     1
 62
     5
 63
     7
421
 16777215
176
     1
 74
     1
176
     1
 91
        4
176
     1
 64
     7
176
     1
 65
   257
176
     1
 75
     1
176
     1
175
     1
176
     1
 42
1.0
176
     1
 92
        0
176
     1
 66
   257
176
     1
 43
1.0
176
     1
 76
     1
176
     1
 77
     6
176
     1
 78
     2
176
     1
 67
     7
176
     1
 79
     5
176
     1
170
     0
176
     1
171
     0
176
     1
290
     0
176
     1
 93
        1
176
     1
 44
0.0
176
     1
173
     0
176
     1
  0
VISUALSTYLE
  5
31
102
{ACAD_REACTORS
330
2A
102
}
330
2A
100
AcDbVisualStyle
  2
3D Hidden
 70
     6
177
     2
291
     0
 71
     1
176
     1
 72
     2
176
     1
 73
     2
176
     1
 90
        0
176
     1
 40
-0.6
176
     1
 41
-30.0
176
     1
 62
     5
 63
     7
421
 16777215
176
     1
 74
     2
176
     1
 91
        2
176
     1
 64
     7
176
     1
 65
   257
176
     1
 75
     2
176
     1
175
     1
176
     1
 42
40.0
176
     1
 92
        0
176
     1
 66
   257
176
     1
 43
1.0
176
     1
 76
     1
176
     1
 77
     6
176
     1
 78
     2
176
     1
 67
     7
176
     1
 79
     3
176
     1
170
     0
176
     1
171
     0
176
     1
290
     0
176
     1
 93
        1
176
     1
 44
0.0
176
     1
173
     0
176
     1
  0
VISUALSTYLE
  5
30
102
{ACAD_REACTORS
330
2A
102
}
330
2A
100
AcDbVisualStyle
  2
3dWireframe
 70
     5
177
     2
291
     0
 71
     0
176
     1
 72
     2
176
     1
 73
     0
176
     1
 90
        0
176
     1
 40
-0.6
176
     1
 41
-30.0
176
     1
 62
     5
 63
     7
421
 16777215
176
     1
 74
     1
176
     1
 91
        4
176
     1
 64
     7
176
     1
 65
   257
176
     1
 75
     1
176
     1
175
     1
176
     1
 42
1.0
176
     1
 92
        0
176
     1
 66
   257
176
     1
 43
1.0
176
     1
 76
     1
176
     1
 77
     6
176
     1
 78
     2
176
     1
 67
     7
176
     1
 79
     5
176
     1
170
     0
176
     1
171
     0
176
     1
290
     0
176
     1
 93
        1
176
     1
 44
0.0
176
     1
173
     0
176
     1
  0
VISUALSTYLE
  5
32
102
{ACAD_REACTORS
330
2A
102
}
330
2A
100
AcDbVisualStyle
  2
Basic
 70
     7
177
     2
291
     1
 71
     1
176
     1
 72
     0
176
     1
 73
     1
176
     1
 90
        0
176
     1
 40
-0.6
176
     1
 41
-30.0
176
     1
 62
     5
 63
     7
421
 16777215
176
     1
 74
     0
176
     1
 91
        4
176
     1
 64
     7
176
     1
 65
   257
176
     1
 75
     1
176
     1
175
     1
176
     1
 42
1.0
176
     1
 92
        8
176
     1
 66
     7
176
     1
 43
1.0
176
     1
 76
     1
176
     1
 77
     6
176
     1
 78
     2
176
     1
 67
     7
176
     1
 79
     5
176
     1
170
     0
176
     1
171
     0
176
     1
290
     0
176
     1
 93
        1
176
     1
 44
0.0
176
     1
173
     0
176
     1
  0
VISUALSTYLE
  5
36
102
{ACAD_REACTORS
330
2A
102
}
330
2A
100
AcDbVisualStyle
  2
Brighten
 70
    12
177
     2
291
     1
 71
     2
176
     1
 72
     2
176
     1
 73
     0
176
     1
 90
        0
176
     1
 40
-0.6
176
     1
 41
-30.0
176
     1
 62
     5
 63
     7
421
 16777215
176
     1
 74
     1
176
     1
 91
        4
176
     1
 64
     7
176
     1
 65
   257
176
     1
 75
     1
176
     1
175
     1
176
     1
 42
1.0
176
     1
 92
        8
176
     1
 66
     7
176
     1
 43
1.0
176
     1
 76
     1
176
     1
 77
     6
176
     1
 78
     2
176
     1
 67
     7
176
     1
 79
     5
176
     1
170
     0
176
     1
171
     0
176
     1
290
     0
176
     1
 93
        1
176
     1
 44
50.0
176
     1
173
     0
176
     1
  0
VISUALSTYLE
  5
3A
102
{ACAD_REACTORS
330
2A
102
}
330
2A
100
AcDbVisualStyle
  2
ColorChange
 70
    16
177
     2
291
     1
 71
     2
176
     1
 72
     2
176
     1
 73
     3
176
     1
 90
        0
176
     1
 40
-0.6
176
     1
 41
-30.0
176
     1
 62
     5
 63
     8
421
  8421504
176
     1
 74
     1
176
     1
 91
        4
176
     1
 64
     7
176
     1
 65
   257
176
     1
 75
     1
176
     1
175
     1
176
     1
 42
1.0
176
     1
 92
        8
176
     1
 66
     8
424
  8421504
176
     1
 43
1.0
176
     1
 76
     1
176
     1
 77
     6
176
     1
 78
     2
176
     1
 67
     7
176
     1
 79
     5
176
     1
170
     0
176
     1
171
     0
176
     1
290
     0
176
     1
 93
        1
176
     1
 44
0.0
176
     1
173
     0
176
     1
  0
VISUALSTYLE
  5
34
102
{ACAD_REACTORS
330
2A
102
}
330
2A
100
AcDbVisualStyle
  2
Conceptual
 70
     9
177
     2
291
     0
 71
     3
176
     1
 72
     2
176
     1
 73
     0
176
     1
 90
        0
176
     1
 40
-0.6
176
     1
 41
-30.0
176
     1
 62
     5
 63
     7
421
 16777215
176
     1
 74
     2
176
     1
 91
        2
176
     1
 64
     7
176
     1
 65
   257
176
     1
 75
     1
176
     1
175
     1
176
     1
 42
40.0
176
     1
 92
        8
176
     1
 66
     7
176
     1
 43
1.0
176
     1
 76
     1
176
     1
 77
     6
176
     1
 78
     2
176
     1
 67
     7
176
     1
 79
     3
176
     1
170
     0
176
     1
171
     0
176
     1
290
     0
176
     1
 93
        1
176
     1
 44
0.0
176
     1
173
     0
176
     1
  0
VISUALSTYLE
  5
35
102
{ACAD_REACTORS
330
2A
102
}
330
2A
100
AcDbVisualStyle
  2
Dim
 70
    11
177
     2
291
     1
 71
     2
176
     1
 72
     2
176
     1
 73
     0
176
     1
 90
        0
176
     1
 40
-0.6
176
     1
 41
-30.0
176
     1
 62
     5
 63
     7
421
 16777215
176
     1
 74
     1
176
     1
 91
        4
176
     1
 64
     7
176
     1
 65
   257
176
     1
 75
     1
176
     1
175
     1
176
     1
 42
1.0
176
     1
 92
        8
176
     1
 66
     7
176
     1
 43
1.0
176
     1
 76
     1
176
     1
 77
     6
176
     1
 78
     2
176
     1
 67
     7
176
     1
 79
     5
176
     1
170
     0
176
     1
171
     0
176
     1
290
     0
176
     1
 93
        1
176
     1
 44
-50.0
176
     1
173
     0
176
     1
  0
VISUALSTYLE
  5
39
102
{ACAD_REACTORS
330
2A
102
}
330
2A
100
AcDbVisualStyle
  2
Facepattern
 70
    15
177
     2
291
     1
 71
     2
176
     1
 72
     2
176
     1
 73
     0
176
     1
 90
        0
176
     1
 40
-0.6
176
     1
 41
-30.0
176
     1
 62
     5
 63
     7
421
 16777215
176
     1
 74
     1
176
     1
 91
        4
176
     1
 64
     7
176
     1
 65
   257
176
     1
 75
     1
176
     1
175
     1
176
     1
 42
1.0
176
     1
 92
        8
176
     1
 66
     7
176
     1
 43
1.0
176
     1
 76
     1
176
     1
 77
     6
176
     1
 78
     2
176
     1
 67
     7
176
     1
 79
     5
176
     1
170
     0
176
     1
171
     0
176
     1
290
     0
176
     1
 93
        1
176
     1
 44
0.0
176
     1
173
     0
176
     1
  0
VISUALSTYLE
  5
2B
102
{ACAD_REACTORS
330
2A
102
}
330
2A
100
AcDbVisualStyle
  2
Flat
 70
     0
177
     2
291
     1
 71
     2
176
     1
 72
     1
176
     1
 73
     1
176
     1
 90
        2
176
     1
 40
-0.6
176
     1
 41
30.0
176
     1
 62
     5
 63
     7
421
 16777215
176
     1
 74
     0
176
     1
 91
        4
176
     1
 64
     7
176
     1
 65
   257
176
     1
 75
     1
176
     1
175
     1
176
     1
 42
1.0
176
     1
 92
        8
176
     1
 66
     7
176
     1
 43
1.0
176
     1
 76
     1
176
     1
 77
     6
176
     1
 78
     2
176
     1
 67
     7
176
     1
 79
     5
176
     1
170
     0
176
     1
171
     0
176
     1
290
     0
176
     1
 93
       13
176
     1
 44
0.0
176
     1
173
     0
176
     1
  0
VISUALSTYLE
  5
2C
102
{ACAD_REACTORS
330
2A
102
}
330
2A
100
AcDbVisualStyle
  2
FlatWithEdges
 70
     1
177
     2
291
     1
 71
     2
176
     1
 72
     1
176
     1
 73
     1
176
     1
 90
        2
176
     1
 40
-0.6
176
     1
 41
30.0
176
     1
 62
     5
 63
     7
421
 16777215
176
     1
 74
     1
176
     1
 91
        4
176
     1
 64
     7
176
     1
 65
   257
176
     1
 75
     1
176
     1
175
     1
176
     1
 42
1.0
176
     1
 92
        0
176
     1
 66
   257
176
     1
 43
1.0
176
     1
 76
     1
176
     1
 77
     6
176
     1
 78
     2
176
     1
 67
     7
176
     1
 79
     5
176
     1
170
     0
176
     1
171
     0
176
     1
290
     0
176
     1
 93
       13
176
     1
 44
0.0
176
     1
173
     0
176
     1
  0
VISUALSTYLE
  5
2D
102
{ACAD_REACTORS
330
2A
102
}
330
2A
100
AcDbVisualStyle
  2
Gouraud
 70
     2
177
     2
291
     1
 71
     2
176
     1
 72
     2
176
     1
 73
     1
176
     1
 90
        2
176
     1
 40
-0.6
176
     1
 41
30.0
176
     1
 62
     5
 63
     7
421
 16777215
176
     1
 74
     0
176
     1
 91
        4
176
     1
 64
     7
176
     1
 65
   257
176
     1
 75
     1
176
     1
175
     1
176
     1
 42
1.0
176
     1
 92
        0
176
     1
 66
     7
176
     1
 43
1.0
176
     1
 76
     1
176
     1
 77
     6
176
     1
 78
     2
176
     1
 67
     7
176
     1
 79
     5
176
     1
170
     0
176
     1
171
     0
176
     1
290
     0
176
     1
 93
       13
176
     1
 44
0.0
176
     1
173
     0
176
     1
  0
VISUALSTYLE
  5
2E
102
{ACAD_REACTORS
330
2A
102
}
330
2A
100
AcDbVisualStyle
  2
GouraudWithEdges
 70
     3
177
     2
291
     1
 71
     2
176
     1
 72
     2
176
     1
 73
     1
176
     1
 90
        2
176
     1
 40
-0.6
176
     1
 41
30.0
176
     1
 62
     5
 63
     7
421
 16777215
176
     1
 74
     1
176
     1
 91
        4
176
     1
 64
     7
176
     1
 65
   257
176
     1
 75
     1
176
     1
175
     1
176
     1
 42
1.0
176
     1
 92
        0
176
     1
 66
   257
176
     1
 43
1.0
176
     1
 76
     1
176
     1
 77
     6
176
     1
 78
     2
176
     1
 67
     7
176
     1
 79
     5
176
     1
170
     0
176
     1
171
     0
176
     1
290
     0
176
     1
 93
       13
176
     1
 44
0.0
176
     1
173
     0
176
     1
  0
VISUALSTYLE
  5
38
102
{ACAD_REACTORS
330
2A
102
}
330
2A
100
AcDbVisualStyle
  2
Linepattern
 70
    14
177
     2
291
     1
 71
     2
176
     1
 72
     2
176
     1
 73
     0
176
     1
 90
        0
176
     1
 40
-0.6
176
     1
 41
-30.0
176
     1
 62
     5
 63
     7
421
 16777215
176
     1
 74
     1
176
     1
 91
        4
176
     1
 64
     7
176
     1
 65
   257
176
     1
 75
     7
176
     1
175
     7
176
     1
 42
1.0
176
     1
 92
        8
176
     1
 66
     7
176
     1
 43
1.0
176
     1
 76
     1
176
     1
 77
     6
176
     1
 78
     2
176
     1
 67
     7
176
     1
 79
     5
176
     1
170
     0
176
     1
171
     0
176
     1
290
     0
176
     1
 93
        1
176
     1
 44
0.0
176
     1
173
     0
176
     1
  0
VISUALSTYLE
  5
33
102
{ACAD_REACTORS
330
2A
102
}
330
2A
100
AcDbVisualStyle
  2
Realistic
 70
     8
177
     2
291
     0
 71
     2
176
     1
 72
     2
176
     1
 73
     0
176
     1
 90
        0
176
     1
 40
-0.6
176
     1
 41
-30.0
176
     1
 62
     5
 63
     7
421
 16777215
176
     1
 74
     1
176
     1
 91
        0
176
     1
 64
     7
176
     1
 65
   257
176
     1
 75
     1
176
     1
175
     1
176
     1
 42
1.0
176
     1
 92
        8
176
     1
 66
     8
424
  7895160
176
     1
 43
1.0
176
     1
 76
     1
176
     1
 77
     6
176
     1
 78
     2
176
     1
 67
     7
176
     1
 79
     5
176
     1
170
     0
176
     1
171
     0
176
     1
290
     0
176
     1
 93
       13
176
     1
 44
0.0
176
     1
173
     0
176
     1
  0
VISUALSTYLE
  5
37
102
{ACAD_REACTORS
330
2A
102
}
330
2A
100
AcDbVisualStyle
  2
Thicken
 70
    13
177
     2
291
     1
 71
     2
176
     1
 72
     2
176
     1
 73
     0
176
     1
 90
        0
176
     1
 40
-0.6
176
     1
 41
-30.0
176
     1
 62
     5
 63
     7
421
 16777215
176
     1
 74
     1
176
     1
 91
        4
176
     1
 64
     7
176
     1
 65
   257
176
     1
 75
     1
176
     1
175
     1
176
     1
 42
1.0
176
     1
 92
       12
176
     1
 66
     7
176
     1
 43
1.0
176
     1
 76
     1
176
     1
 77
     6
176
     1
 78
     2
176
     1
 67
     7
176
     1
 79
     5
176
     1
170
     0
176
     1
171
     0
176
     1
290
     0
176
     1
 93
        1
176
     1
 44
0.0
176
     1
173
     0
176
     1
  0
ENDSEC
  0
EOF
