  0
SECTION
  2
HEADER
  9
$ACADVER
  1
AC1024
  9
$ACADMAINTVER
 70
     6
  9
$DWGCODEPAGE
  3
ANSI_1252
  9
$INSBASE
 10
0.0
 20
0.0
 30
0.0
  9
$EXTMIN
 10
1.000000000000000E+20
 20
1.000000000000000E+20
 30
1.000000000000000E+20
  9
$EXTMAX
 10
-1.000000000000000E+20
 20
-1.000000000000000E+20
 30
-1.000000000000000E+20
  9
$LIMMIN
 10
0.0
 20
0.0
  9
$LIMMAX
 10
12.0
 20
9.0
  9
$ORTHOMODE
 70
     0
  9
$REGENMODE
 70
     1
  9
$FILLMODE
 70
     1
  9
$QTEXTMODE
 70
     0
  9
$MIRRTEXT
 70
     1
  9
$LTSCALE
 40
1.0
  9
$ATTMODE
 70
     1
  9
$TEXTSIZE
 40
0.2
  9
$TRACEWID
 40
0.05
  9
$TEXTSTYLE
  7
Standard
  9
$CLAYER
  8
0
  9
$CELTYPE
  6
ByLayer
  9
$CECOLOR
 62
   256
  9
$CELTSCALE
 40
1.0
  9
$DISPSILH
 70
     0
  9
$DIMSCALE
 40
1.0
  9
$DIMASZ
 40
0.18
  9
$DIMEXO
 40
0.0625
  9
$DIMDLI
 40
0.38
  9
$DIMRND
 40
0.0
  9
$DIMDLE
 40
0.0
  9
$DIMEXE
 40
0.18
  9
$DIMTP
 40
0.0
  9
$DIMTM
 40
0.0
  9
$DIMTXT
 40
0.18
  9
$DIMCEN
 40
0.09
  9
$DIMTSZ
 40
0.0
  9
$DIMTOL
 70
     0
  9
$DIMLIM
 70
     0
  9
$DIMTIH
 70
     1
  9
$DIMTOH
 70
     1
  9
$DIMSE1
 70
     0
  9
$DIMSE2
 70
     0
  9
$DIMTAD
 70
     0
  9
$DIMZIN
 70
     0
  9
$DIMBLK
  1

  9
$DIMASO
 70
     1
  9
$DIMSHO
 70
     1
  9
$DIMPOST
  1

  9
$DIMAPOST
  1

  9
$DIMALT
 70
     0
  9
$DIMALTD
 70
     2
  9
$DIMALTF
 40
25.4
  9
$DIMLFAC
 40
1.0
  9
$DIMTOFL
 70
     0
  9
$DIMTVP
 40
0.0
  9
$DIMTIX
 70
     0
  9
$DIMSOXD
 70
     0
  9
$DIMSAH
 70
     0
  9
$DIMBLK1
  1

  9
$DIMBLK2
  1

  9
$DIMSTYLE
  2
Standard
  9
$DIMCLRD
 70
     0
  9
$DIMCLRE
 70
     0
  9
$DIMCLRT
 70
     0
  9
$DIMTFAC
 40
1.0
  9
$DIMGAP
 40
0.09
  9
$DIMJUST
 70
     0
  9
$DIMSD1
 70
     0
  9
$DIMSD2
 70
     0
  9
$DIMTOLJ
 70
     1
  9
$DIMTZIN
 70
     0
  9
$DIMALTZ
 70
     0
  9
$DIMALTTZ
 70
     0
  9
$DIMUPT
 70
     0
  9
$DIMDEC
 70
     4
  9
$DIMTDEC
 70
     4
  9
$DIMALTU
 70
     2
  9
$DIMALTTD
 70
     2
  9
$DIMTXSTY
  7
Standard
  9
$DIMAUNIT
 70
     0
  9
$DIMADEC
 70
     0
  9
$DIMALTRND
 40
0.0
  9
$DIMAZIN
 70
     0
  9
$DIMDSEP
 70
    46
  9
$DIMATFIT
 70
     3
  9
$DIMFRAC
 70
     0
  9
$DIMLDRBLK
  1

  9
$DIMLUNIT
 70
     2
  9
$DIMLWD
 70
    -2
  9
$DIMLWE
 70
    -2
  9
$DIMTMOVE
 70
     0
  9
$DIMFXL
 40
1.0
  9
$DIMFXLON
 70
     0
  9
$DIMJOGANG
 40
0.7853981633974483
  9
$DIMTFILL
 70
     0
  9
$DIMTFILLCLR
 70
     0
  9
$DIMARCSYM
 70
     0
  9
$DIMLTYPE
  6

  9
$DIMLTEX1
  6

  9
$DIMLTEX2
  6

  9
$DIMTXTDIRECTION
 70
     0
  9
$LUNITS
 70
     2
  9
$LUPREC
 70
     4
  9
$SKETCHINC
 40
0.1
  9
$FILLETRAD
 40
0.5
  9
$AUNITS
 70
     0
  9
$AUPREC
 70
     0
  9
$MENU
  1
.
  9
$ELEVATION
 40
0.0
  9
$PELEVATION
 40
0.0
  9
$THICKNESS
 40
0.0
  9
$LIMCHECK
 70
     0
  9
$CHAMFERA
 40
0.5
  9
$CHAMFERB
 40
0.5
  9
$CHAMFERC
 40
1.0
  9
$CHAMFERD
 40
0.0
  9
$SKPOLY
 70
     0
  9
$TDCREATE
 40
2460410.900855475
  9
$TDUCREATE
 40
2460410.859188808
  9
$TDUPDATE
 40
2460410.900856354
  9
$TDUUPDATE
 40
2460410.859189687
  9
$TDINDWG
 40
0.0000000116
  9
$TDUSRTIMER
 40
0.0000000116
  9
$USRTIMER
 70
     1
  9
$ANGBASE
 50
0.0
  9
$ANGDIR
 70
     0
  9
$PDMODE
 70
     0
  9
$PDSIZE
 40
0.0
  9
$PLINEWID
 40
0.0
  9
$SPLFRAME
 70
     0
  9
$SPLINETYPE
 70
     6
  9
$SPLINESEGS
 70
     8
  9
$HANDSEED
  5
BF
  9
$SURFTAB1
 70
     6
  9
$SURFTAB2
 70
     6
  9
$SURFTYPE
 70
     6
  9
$SURFU
 70
     6
  9
$SURFV
 70
     6
  9
$UCSBASE
  2

  9
$UCSNAME
  2

  9
$UCSORG
 10
0.0
 20
0.0
 30
0.0
  9
$UCSXDIR
 10
1.0
 20
0.0
 30
0.0
  9
$UCSYDIR
 10
0.0
 20
1.0
 30
0.0
  9
$UCSORTHOREF
  2

  9
$UCSORTHOVIEW
 70
     0
  9
$UCSORGTOP
 10
0.0
 20
0.0
 30
0.0
  9
$UCSORGBOTTOM
 10
0.0
 20
0.0
 30
0.0
  9
$UCSORGLEFT
 10
0.0
 20
0.0
 30
0.0
  9
$UCSORGRIGHT
 10
0.0
 20
0.0
 30
0.0
  9
$UCSORGFRONT
 10
0.0
 20
0.0
 30
0.0
  9
$UCSORGBACK
 10
0.0
 20
0.0
 30
0.0
  9
$PUCSBASE
  2

  9
$PUCSNAME
  2

  9
$PUCSORG
 10
0.0
 20
0.0
 30
0.0
  9
$PUCSXDIR
 10
1.0
 20
0.0
 30
0.0
  9
$PUCSYDIR
 10
0.0
 20
1.0
 30
0.0
  9
$PUCSORTHOREF
  2

  9
$PUCSORTHOVIEW
 70
     0
  9
$PUCSORGTOP
 10
0.0
 20
0.0
 30
0.0
  9
$PUCSORGBOTTOM
 10
0.0
 20
0.0
 30
0.0
  9
$PUCSORGLEFT
 10
0.0
 20
0.0
 30
0.0
  9
$PUCSORGRIGHT
 10
0.0
 20
0.0
 30
0.0
  9
$PUCSORGFRONT
 10
0.0
 20
0.0
 30
0.0
  9
$PUCSORGBACK
 10
0.0
 20
0.0
 30
0.0
  9
$USERI1
 70
     0
  9
$USERI2
 70
     0
  9
$USERI3
 70
     0
  9
$USERI4
 70
     0
  9
$USERI5
 70
     0
  9
$USERR1
 40
0.0
  9
$USERR2
 40
0.0
  9
$USERR3
 40
0.0
  9
$USERR4
 40
0.0
  9
$USERR5
 40
0.0
  9
$WORLDVIEW
 70
     1
  9
$SHADEDGE
 70
     3
  9
$SHADEDIF
 70
    70
  9
$TILEMODE
 70
     1
  9
$MAXACTVP
 70
    64
  9
$PINSBASE
 10
0.0
 20
0.0
 30
0.0
  9
$PLIMCHECK
 70
     0
  9
$PEXTMIN
 10
1.000000000000000E+20
 20
1.000000000000000E+20
 30
1.000000000000000E+20
  9
$PEXTMAX
 10
-1.000000000000000E+20
 20
-1.000000000000000E+20
 30
-1.000000000000000E+20
  9
$PLIMMIN
 10
0.0
 20
0.0
  9
$PLIMMAX
 10
12.0
 20
9.0
  9
$UNITMODE
 70
     0
  9
$VISRETAIN
 70
     1
  9
$PLINEGEN
 70
     0
  9
$PSLTSCALE
 70
     1
  9
$TREEDEPTH
 70
  3020
  9
$CMLSTYLE
  2
Standard
  9
$CMLJUST
 70
     0
  9
$CMLSCALE
 40
1.0
  9
$PROXYGRAPHICS
 70
     1
  9
$MEASUREMENT
 70
     0
  9
$CELWEIGHT
370
    -1
  9
$ENDCAPS
280
     0
  9
$JOINSTYLE
280
     0
  9
$LWDISPLAY
290
     1
  9
$INSUNITS
 70
     4
  9
$HYPERLINKBASE
  1

  9
$STYLESHEET
  1

  9
$XEDIT
290
     1
  9
$CEPSNTYPE
380
     0
  9
$PSTYLEMODE
290
     1
  9
$FINGERPRINTGUID
  2
{2EF2E25F-8DF6-4D37-8C9D-B5DC66C08A7D}
  9
$VERSIONGUID
  2
{FAEB1C32-E019-11D5-929B-00C0DF256EC4}
  9
$EXTNAMES
290
     1
  9
$PSVPSCALE
 40
0.0
  9
$OLESTARTUP
290
     0
  9
$SORTENTS
280
   127
  9
$INDEXCTL
280
     0
  9
$HIDETEXT
280
     1
  9
$XCLIPFRAME
280
     2
  9
$HALOGAP
280
     0
  9
$OBSCOLOR
 70
   257
  9
$OBSLTYPE
280
     0
  9
$INTERSECTIONDISPLAY
280
     0
  9
$INTERSECTIONCOLOR
 70
   257
  9
$DIMASSOC
280
     2
  9
$PROJECTNAME
  1

  9
$CAMERADISPLAY
290
     0
  9
$LENSLENGTH
 40
50.0
  9
$CAMERAHEIGHT
 40
0.0
  9
$STEPSPERSEC
 40
2.0
  9
$STEPSIZE
 40
6.0
  9
$3DDWFPREC
 40
2.0
  9
$PSOLWIDTH
 40
0.25
  9
$PSOLHEIGHT
 40
4.0
  9
$LOFTANG1
 40
1.570796326794897
  9
$LOFTANG2
 40
1.570796326794897
  9
$LOFTMAG1
 40
0.0
  9
$LOFTMAG2
 40
0.0
  9
$LOFTPARAM
 70
     7
  9
$LOFTNORMALS
280
     1
  9
$LATITUDE
 40
37.795
  9
$LONGITUDE
 40
-122.394
  9
$NORTHDIRECTION
 40
0.0
  9
$TIMEZONE
 70
 -8000
  9
$LIGHTGLYPHDISPLAY
280
     1
  9
$TILEMODELIGHTSYNCH
280
     1
  9
$CMATERIAL
347
3C
  9
$SOLIDHIST
280
     1
  9
$SHOWHIST
280
     1
  9
$DWFFRAME
280
     2
  9
$DGNFRAME
280
     2
  9
$REALWORLDSCALE
290
     1
  9
$INTERFERECOLOR
 62
   256
  9
$CSHADOW
280
     0
  9
$SHADOWPLANELOCATION
 40
0.0
  0
ENDSEC
  0
SECTION
  2
CLASSES
  0
CLASS
  1
ACDBDICTIONARYWDFLT
  2
AcDbDictionaryWithDefault
  3
ObjectDBX Classes
 90
        0
 91
        4
280
     0
281
     0
  0
CLASS
  1
VISUALSTYLE
  2
AcDbVisualStyle
  3
ObjectDBX Classes
 90
     4095
 91
        4
280
     0
281
     0
  0
CLASS
  1
MATERIAL
  2
AcDbMaterial
  3
ObjectDBX Classes
 90
     1153
 91
        4
280
     0
281
     0
  0
CLASS
  1
SUN
  2
AcDbSun
  3
SCENEOE
 90
     1024
 91
        4
280
     0
281
     0
  0
ENDSEC
  0
SECTION
  2
TABLES
  0
TABLE
  2
VPORT
  5
8
330
0
100
AcDbSymbolTable
 70
     1
  0
VPORT
  5
29
330
8
100
AcDbSymbolTableRecord
100
AcDbViewportTableRecord
  2
*Active
 70
     0
 10
0.0
 20
0.0
 11
1.0
 21
1.0
 12
0.0
 22
0.0
 13
0.0
 23
0.0
 14
0.5
 24
0.5
 15
0.5
 25
0.5
 16
0.0
 26
0.0
 36
1.0
 17
349.9999999124936
 27
199.9999999499937
 37
0.0
 40
399.9999998999874
 41
1.750000000000023
 42
50.0
 43
0.0
 44
0.0
 50
0.0
 51
0.0
 71
     0
 72
   100
 73
     1
 74
     3
 75
     0
 76
     0
 77
     0
 78
     0
281
     0
 65
     1
110
0.0
120
0.0
130
0.0
111
1.0
121
0.0
131
0.0
112
0.0
122
1.0
132
0.0
 79
     0
146
0.0
 60
     3
 61
     5
292
     1
282
     1
141
0.0
142
0.0
 63
   250
361
3F
  0
ENDTAB
  0
TABLE
  2
LTYPE
  5
5
330
0
100
AcDbSymbolTable
 70
     1
  0
LTYPE
  5
14
330
5
100
AcDbSymbolTableRecord
100
AcDbLinetypeTableRecord
  2
ByBlock
 70
     0
  3

 72
    65
 73
     0
 40
0.0
  0
LTYPE
  5
15
330
5
100
AcDbSymbolTableRecord
100
AcDbLinetypeTableRecord
  2
ByLayer
 70
     0
  3

 72
    65
 73
     0
 40
0.0
  0
LTYPE
  5
16
330
5
100
AcDbSymbolTableRecord
100
AcDbLinetypeTableRecord
  2
Continuous
 70
     0
  3
Solid line
 72
    65
 73
     0
 40
0.0
  0
ENDTAB
  0
TABLE
  2
LAYER
  5
2
330
0
100
AcDbSymbolTable
 70
     2
  0
LAYER
  5
10
330
2
100
AcDbSymbolTableRecord
100
AcDbLayerTableRecord
  2
0
 70
     0
 62
     7
  6
Continuous
370
    -3
390
F
347
3E
  0
LAYER
  5
40
330
2
100
AcDbSymbolTableRecord
100
AcDbLayerTableRecord
  2
Layer 1
 70
     0
 62
     7
  6
Continuous
370
    -3
390
F
347
3E
  0
ENDTAB
  0
TABLE
  2
STYLE
  5
3
330
0
100
AcDbSymbolTable
 70
     1
  0
STYLE
  5
11
330
3
100
AcDbSymbolTableRecord
100
AcDbTextStyleTableRecord
  2
Standard
 70
     0
 40
0.0
 41
1.0
 50
0.0
 71
     0
 42
0.2
  3
txt
  4

  0
ENDTAB
  0
TABLE
  2
VIEW
  5
6
330
0
100
AcDbSymbolTable
 70
     0
  0
ENDTAB
  0
TABLE
  2
UCS
  5
7
330
0
100
AcDbSymbolTable
 70
     0
  0
ENDTAB
  0
TABLE
  2
APPID
  5
9
330
0
100
AcDbSymbolTable
 70
     1
  0
APPID
  5
12
330
9
100
AcDbSymbolTableRecord
100
AcDbRegAppTableRecord
  2
ACAD
 70
     0
  0
ENDTAB
  0
TABLE
  2
DIMSTYLE
  5
A
330
0
100
AcDbSymbolTable
 70
     1
100
AcDbDimStyleTable
  0
DIMSTYLE
105
27
330
A
100
AcDbSymbolTableRecord
100
AcDbDimStyleTableRecord
  2
Standard
 70
     0
178
     0
340
11
  0
ENDTAB
  0
TABLE
  2
BLOCK_RECORD
  5
1
330
0
100
AcDbSymbolTable
 70
    23
  0
BLOCK_RECORD
  5
1F
330
1
100
AcDbSymbolTableRecord
100
AcDbBlockTableRecord
  2
*Model_Space
340
22
 70
     0
280
     1
281
     0
  0
BLOCK_RECORD
  5
1B
330
1
100
AcDbSymbolTableRecord
100
AcDbBlockTableRecord
  2
*Paper_Space
340
1E
 70
     0
280
     1
281
     0
  0
BLOCK_RECORD
  5
23
330
1
100
AcDbSymbolTableRecord
100
AcDbBlockTableRecord
  2
*Paper_Space0
340
26
 70
     0
280
     1
281
     0
  0
BLOCK_RECORD
  5
41
330
1
100
AcDbSymbolTableRecord
100
AcDbBlockTableRecord
  2
block 2
340
0
102
{BLKREFS
331
42
102
}
 70
     0
280
     1
281
     0
  0
BLOCK_RECORD
  5
46
330
1
100
AcDbSymbolTableRecord
100
AcDbBlockTableRecord
  2
block 3
340
0
102
{BLKREFS
331
47
102
}
 70
     0
280
     1
281
     0
  0
BLOCK_RECORD
  5
4B
330
1
100
AcDbSymbolTableRecord
100
AcDbBlockTableRecord
  2
block 4
340
0
102
{BLKREFS
331
4C
102
}
 70
     0
280
     1
281
     0
  0
BLOCK_RECORD
  5
50
330
1
100
AcDbSymbolTableRecord
100
AcDbBlockTableRecord
  2
block 5
340
0
102
{BLKREFS
331
51
102
}
 70
     0
280
     1
281
     0
  0
BLOCK_RECORD
  5
55
330
1
100
AcDbSymbolTableRecord
100
AcDbBlockTableRecord
  2
block 6
340
0
102
{BLKREFS
331
56
102
}
 70
     0
280
     1
281
     0
  0
BLOCK_RECORD
  5
5A
330
1
100
AcDbSymbolTableRecord
100
AcDbBlockTableRecord
  2
block 7
340
0
102
{BLKREFS
331
5B
102
}
 70
     0
280
     1
281
     0
  0
BLOCK_RECORD
  5
5F
330
1
100
AcDbSymbolTableRecord
100
AcDbBlockTableRecord
  2
block 8
340
0
102
{BLKREFS
331
60
102
}
 70
     0
280
     1
281
     0
  0
BLOCK_RECORD
  5
64
330
1
100
AcDbSymbolTableRecord
100
AcDbBlockTableRecord
  2
block 9
340
0
102
{BLKREFS
331
65
102
}
 70
     0
280
     1
281
     0
  0
BLOCK_RECORD
  5
69
330
1
100
AcDbSymbolTableRecord
100
AcDbBlockTableRecord
  2
block 10
340
0
102
{BLKREFS
331
6A
102
}
 70
     0
280
     1
281
     0
  0
BLOCK_RECORD
  5
6E
330
1
100
AcDbSymbolTableRecord
100
AcDbBlockTableRecord
  2
block 11
340
0
102
{BLKREFS
331
6F
102
}
 70
     0
280
     1
281
     0
  0
BLOCK_RECORD
  5
73
330
1
100
AcDbSymbolTableRecord
100
AcDbBlockTableRecord
  2
block 12
340
0
102
{BLKREFS
331
74
102
}
 70
     0
280
     1
281
     0
  0
BLOCK_RECORD
  5
78
330
1
100
AcDbSymbolTableRecord
100
AcDbBlockTableRecord
  2
block 13
340
0
102
{BLKREFS
331
79
102
}
 70
     0
280
     1
281
     0
  0
BLOCK_RECORD
  5
7D
330
1
100
AcDbSymbolTableRecord
100
AcDbBlockTableRecord
  2
block 14
340
0
102
{BLKREFS
331
7E
102
}
 70
     0
280
     1
281
     0
  0
BLOCK_RECORD
  5
82
330
1
100
AcDbSymbolTableRecord
100
AcDbBlockTableRecord
  2
block 15
340
0
102
{BLKREFS
331
83
102
}
 70
     0
280
     1
281
     0
  0
BLOCK_RECORD
  5
87
330
1
100
AcDbSymbolTableRecord
100
AcDbBlockTableRecord
  2
block 16
340
0
102
{BLKREFS
331
88
102
}
 70
     0
280
     1
281
     0
  0
BLOCK_RECORD
  5
8C
330
1
100
AcDbSymbolTableRecord
100
AcDbBlockTableRecord
  2
block 17
340
0
102
{BLKREFS
331
8D
102
}
 70
     0
280
     1
281
     0
  0
BLOCK_RECORD
  5
91
330
1
100
AcDbSymbolTableRecord
100
AcDbBlockTableRecord
  2
block 18
340
0
102
{BLKREFS
331
92
102
}
 70
     0
280
     1
281
     0
  0
BLOCK_RECORD
  5
96
330
1
100
AcDbSymbolTableRecord
100
AcDbBlockTableRecord
  2
block 19
340
0
102
{BLKREFS
331
97
102
}
 70
     0
280
     1
281
     0
  0
BLOCK_RECORD
  5
9B
330
1
100
AcDbSymbolTableRecord
100
AcDbBlockTableRecord
  2
block 20
340
0
102
{BLKREFS
331
9C
102
}
 70
     0
280
     1
281
     0
  0
BLOCK_RECORD
  5
A0
330
1
100
AcDbSymbolTableRecord
100
AcDbBlockTableRecord
  2
block 21
340
0
102
{BLKREFS
331
A1
102
}
 70
     0
280
     1
281
     0
  0
BLOCK_RECORD
  5
A5
330
1
100
AcDbSymbolTableRecord
100
AcDbBlockTableRecord
  2
block 22
340
0
102
{BLKREFS
331
A6
102
}
 70
     0
280
     1
281
     0
  0
BLOCK_RECORD
  5
B0
330
1
100
AcDbSymbolTableRecord
100
AcDbBlockTableRecord
  2
block 23
340
0
102
{BLKREFS
331
B1
102
}
 70
     0
280
     1
281
     0
  0
ENDTAB
  0
ENDSEC
  0
SECTION
  2
BLOCKS
  0
BLOCK
  5
20
330
1F
100
AcDbEntity
  8
0
100
AcDbBlockBegin
  2
*Model_Space
 70
     0
 10
0.0
 20
0.0
 30
0.0
  3
*Model_Space
  1

  0
ENDBLK
  5
21
330
1F
100
AcDbEntity
  8
0
100
AcDbBlockEnd
  0
BLOCK
  5
1C
330
1B
100
AcDbEntity
 67
     1
  8
0
100
AcDbBlockBegin
  2
*Paper_Space
 70
     0
 10
0.0
 20
0.0
 30
0.0
  3
*Paper_Space
  1

  0
ENDBLK
  5
1D
330
1B
100
AcDbEntity
 67
     1
  8
0
100
AcDbBlockEnd
  0
BLOCK
  5
24
330
23
100
AcDbEntity
  8
0
100
AcDbBlockBegin
  2
*Paper_Space0
 70
     0
 10
0.0
 20
0.0
 30
0.0
  3
*Paper_Space0
  1

  0
ENDBLK
  5
25
330
23
100
AcDbEntity
  8
0
100
AcDbBlockEnd
  0
BLOCK
  5
43
330
41
100
AcDbEntity
  8
0
100
AcDbBlockBegin
  2
block 2
 70
     0
 10
0.0
 20
0.0
 30
0.0
  3
block 2
  1

  0
SPLINE
  5
45
330
41
100
AcDbEntity
  8
Layer 1
 62
    22
420
 14951456
370
    35
100
AcDbSpline
210
0.0
220
0.0
230
1.0
 70
    11
 71
     3
 72
    56
 73
    52
 74
     0
 42
0.0000000001
 43
0.0000000001
 12
1.0
 22
0.0
 32
0.0
 13
1.0
 23
0.0
 33
0.0
 40
0.0
 40
0.0
 40
0.0
 40
0.0
 40
1.0
 40
1.0
 40
1.0
 40
2.0
 40
2.0
 40
2.0
 40
3.0
 40
3.0
 40
3.0
 40
4.0
 40
4.0
 40
4.0
 40
5.0
 40
5.0
 40
5.0
 40
6.0
 40
6.0
 40
6.0
 40
7.0
 40
7.0
 40
7.0
 40
8.0
 40
8.0
 40
8.0
 40
9.0
 40
9.0
 40
9.0
 40
10.0
 40
10.0
 40
10.0
 40
11.0
 40
11.0
 40
11.0
 40
12.0
 40
12.0
 40
12.0
 40
13.0
 40
13.0
 40
13.0
 40
14.0
 40
14.0
 40
14.0
 40
15.0
 40
15.0
 40
15.0
 40
16.0
 40
16.0
 40
16.0
 40
17.0
 40
17.0
 40
17.0
 40
17.0
 10
337.5064993408602
 20
59.54358382969587
 30
0.0
 10
337.5064993408602
 20
59.54358382969587
 30
0.0
 10
337.5064993408602
 20
70.54394596887286
 30
0.0
 10
337.5064993408602
 20
70.54394596887286
 30
0.0
 10
337.5064993408602
 20
70.54394596887286
 30
0.0
 10
312.4756413284547
 20
70.54394596887286
 30
0.0
 10
312.4756413284547
 20
70.54394596887286
 30
0.0
 10
312.4756413284547
 20
70.54394596887286
 30
0.0
 10
312.4756413284547
 20
76.04395478368902
 30
0.0
 10
312.4756413284547
 20
76.04395478368902
 30
0.0
 10
312.4756413284547
 20
76.04395478368902
 30
0.0
 10
295.4756454017152
 20
76.04395478368902
 30
0.0
 10
295.4756454017152
 20
76.04395478368902
 30
0.0
 10
295.4756454017152
 20
76.04395478368902
 30
0.0
 10
279.4755884395693
 20
76.04395478368902
 30
0.0
 10
279.4755884395693
 20
76.04395478368902
 30
0.0
 10
279.4755884395693
 20
76.04395478368902
 30
0.0
 10
279.4755884395693
 20
70.54394596887286
 30
0.0
 10
279.4755884395693
 20
70.54394596887286
 30
0.0
 10
279.4755884395693
 20
70.54394596887286
 30
0.0
 10
246.5083500851835
 20
70.54394596887286
 30
0.0
 10
246.5083500851835
 20
70.54394596887286
 30
0.0
 10
246.5083500851835
 20
70.54394596887286
 30
0.0
 10
246.5083500851835
 20
76.04395478368902
 30
0.0
 10
246.5083500851835
 20
76.04395478368902
 30
0.0
 10
246.5083500851835
 20
76.04395478368902
 30
0.0
 10
229.5083541584439
 20
76.04395478368902
 30
0.0
 10
229.5083541584439
 20
76.04395478368902
 30
0.0
 10
229.5083541584439
 20
76.04395478368902
 30
0.0
 10
213.5083833236827
 20
76.04395478368902
 30
0.0
 10
213.5083833236827
 20
76.04395478368902
 30
0.0
 10
213.5083833236827
 20
76.04395478368902
 30
0.0
 10
213.5083833236827
 20
70.54394596887286
 30
0.0
 10
213.5083833236827
 20
70.54394596887286
 30
0.0
 10
213.5083833236827
 20
70.54394596887286
 30
0.0
 10
188.4775253112778
 20
70.54394596887286
 30
0.0
 10
188.4775253112778
 20
70.54394596887286
 30
0.0
 10
188.4775253112778
 20
70.54274018545303
 30
0.0
 10
188.4775253112778
 20
70.51862451705628
 30
0.0
 10
188.4775253112778
 20
70.51862451705628
 30
0.0
 10
188.4775253112778
 20
70.50897824969758
 30
0.0
 10
188.4788172220867
 20
70.4996764918874
 30
0.0
 10
188.4789033494719
 20
70.4900302245287
 30
0.0
 10
188.5079282789371
 20
64.44009804288146
 30
0.0
 10
193.4199454218063
 20
59.54410059401865
 30
0.0
 10
199.4766816670343
 20
59.54358382969587
 30
0.0
 10
199.4775429409056
 20
59.54358382969587
 30
0.0
 10
315.5064640816033
 20
59.54358382969587
 30
0.0
 10
315.5064640816033
 20
59.54358382969587
 30
0.0
 10
315.5064640816033
 20
59.54358382969587
 30
0.0
 10
337.5064993408602
 20
59.54358382969587
 30
0.0
 10
337.5064993408602
 20
59.54358382969587
 30
0.0
  0
ENDBLK
  5
44
330
41
100
AcDbEntity
  8
0
100
AcDbBlockEnd
  0
BLOCK
  5
48
330
46
100
AcDbEntity
  8
0
100
AcDbBlockBegin
  2
block 3
 70
     0
 10
0.0
 20
0.0
 30
0.0
  3
block 3
  1

  0
SPLINE
  5
4A
330
46
100
AcDbEntity
  8
Layer 1
 62
    22
420
 14951456
370
    35
100
AcDbSpline
210
0.0
220
0.0
230
1.0
 70
    11
 71
     3
 72
    56
 73
    52
 74
     0
 42
0.0000000001
 43
0.0000000001
 12
1.0
 22
0.0
 32
0.0
 13
1.0
 23
0.0
 33
0.0
 40
0.0
 40
0.0
 40
0.0
 40
0.0
 40
1.0
 40
1.0
 40
1.0
 40
2.0
 40
2.0
 40
2.0
 40
3.0
 40
3.0
 40
3.0
 40
4.0
 40
4.0
 40
4.0
 40
5.0
 40
5.0
 40
5.0
 40
6.0
 40
6.0
 40
6.0
 40
7.0
 40
7.0
 40
7.0
 40
8.0
 40
8.0
 40
8.0
 40
9.0
 40
9.0
 40
9.0
 40
10.0
 40
10.0
 40
10.0
 40
11.0
 40
11.0
 40
11.0
 40
12.0
 40
12.0
 40
12.0
 40
13.0
 40
13.0
 40
13.0
 40
14.0
 40
14.0
 40
14.0
 40
15.0
 40
15.0
 40
15.0
 40
16.0
 40
16.0
 40
16.0
 40
17.0
 40
17.0
 40
17.0
 40
17.0
 10
74.56709586681256
 20
104.0257322895459
 30
0.0
 10
74.56709586681256
 20
104.0257322895459
 30
0.0
 10
74.56709586681256
 20
93.02537015036896
 30
0.0
 10
74.56709586681256
 20
93.02537015036896
 30
0.0
 10
74.56709586681256
 20
93.02537015036896
 30
0.0
 10
99.59795387921709
 20
93.02537015036896
 30
0.0
 10
99.59795387921709
 20
93.02537015036896
 30
0.0
 10
99.59795387921709
 20
93.02537015036896
 30
0.0
 10
99.59795387921709
 20
87.52536133555344
 30
0.0
 10
99.59795387921709
 20
87.52536133555344
 30
0.0
 10
99.59795387921709
 20
87.52536133555344
 30
0.0
 10
116.5979498059567
 20
87.52536133555344
 30
0.0
 10
116.5979498059567
 20
87.52536133555344
 30
0.0
 10
116.5979498059567
 20
87.52536133555344
 30
0.0
 10
132.5980067681025
 20
87.52536133555344
 30
0.0
 10
132.5980067681025
 20
87.52536133555344
 30
0.0
 10
132.5980067681025
 20
87.52536133555344
 30
0.0
 10
132.5980067681025
 20
93.02537015036896
 30
0.0
 10
132.5980067681025
 20
93.02537015036896
 30
0.0
 10
132.5980067681025
 20
93.02537015036896
 30
0.0
 10
165.5652451224896
 20
93.02537015036896
 30
0.0
 10
165.5652451224896
 20
93.02537015036896
 30
0.0
 10
165.5652451224896
 20
93.02537015036896
 30
0.0
 10
165.5652451224896
 20
87.52536133555344
 30
0.0
 10
165.5652451224896
 20
87.52536133555344
 30
0.0
 10
165.5652451224896
 20
87.52536133555344
 30
0.0
 10
182.5652410492292
 20
87.52536133555344
 30
0.0
 10
182.5652410492292
 20
87.52536133555344
 30
0.0
 10
182.5652410492292
 20
87.52536133555344
 30
0.0
 10
198.5652118839892
 20
87.52536133555344
 30
0.0
 10
198.5652118839892
 20
87.52536133555344
 30
0.0
 10
198.5652118839892
 20
87.52536133555344
 30
0.0
 10
198.5652118839892
 20
93.02537015036896
 30
0.0
 10
198.5652118839892
 20
93.02537015036896
 30
0.0
 10
198.5652118839892
 20
93.02537015036896
 30
0.0
 10
223.5960698963947
 20
93.02537015036896
 30
0.0
 10
223.5960698963947
 20
93.02537015036896
 30
0.0
 10
223.5960698963947
 20
93.02657593378879
 30
0.0
 10
223.5960698963947
 20
93.05069160218554
 30
0.0
 10
223.5960698963947
 20
93.05069160218554
 30
0.0
 10
223.5960698963947
 20
93.06033786954424
 30
0.0
 10
223.5947779855864
 20
93.06963962735442
 30
0.0
 10
223.5946918582005
 20
93.07928589471311
 30
0.0
 10
223.5656669287361
 20
99.12921807636036
 30
0.0
 10
218.6536497858668
 20
104.0252155252232
 30
0.0
 10
212.5969135406375
 20
104.0257322895459
 30
0.0
 10
212.5960522667662
 20
104.0257322895459
 30
0.0
 10
96.56713112606855
 20
104.0257322895459
 30
0.0
 10
96.56713112606855
 20
104.0257322895459
 30
0.0
 10
96.56713112606855
 20
104.0257322895459
 30
0.0
 10
74.56709586681256
 20
104.0257322895459
 30
0.0
 10
74.56709586681256
 20
104.0257322895459
 30
0.0
  0
ENDBLK
  5
49
330
46
100
AcDbEntity
  8
0
100
AcDbBlockEnd
  0
BLOCK
  5
4D
330
4B
100
AcDbEntity
  8
0
100
AcDbBlockBegin
  2
block 4
 70
     0
 10
0.0
 20
0.0
 30
0.0
  3
block 4
  1

  0
SPLINE
  5
4F
330
4B
100
AcDbEntity
  8
Layer 1
 62
    22
420
 14951456
370
    35
100
AcDbSpline
210
0.0
220
0.0
230
1.0
 70
    11
 71
     3
 72
    50
 73
    46
 74
     0
 42
0.0000000001
 43
0.0000000001
 12
1.0
 22
0.0
 32
0.0
 13
1.0
 23
0.0
 33
0.0
 40
0.0
 40
0.0
 40
0.0
 40
0.0
 40
1.0
 40
1.0
 40
1.0
 40
2.0
 40
2.0
 40
2.0
 40
3.0
 40
3.0
 40
3.0
 40
4.0
 40
4.0
 40
4.0
 40
5.0
 40
5.0
 40
5.0
 40
6.0
 40
6.0
 40
6.0
 40
7.0
 40
7.0
 40
7.0
 40
8.0
 40
8.0
 40
8.0
 40
9.0
 40
9.0
 40
9.0
 40
10.0
 40
10.0
 40
10.0
 40
11.0
 40
11.0
 40
11.0
 40
12.0
 40
12.0
 40
12.0
 40
13.0
 40
13.0
 40
13.0
 40
14.0
 40
14.0
 40
14.0
 40
15.0
 40
15.0
 40
15.0
 40
15.0
 10
116.5979498059567
 20
148.9890974168596
 30
0.0
 10
116.5979498059567
 20
148.9890974168596
 30
0.0
 10
116.5979498059567
 20
143.4890886020403
 30
0.0
 10
116.5979498059567
 20
143.4890886020403
 30
0.0
 10
116.5979498059567
 20
143.4890886020403
 30
0.0
 10
132.5979206407179
 20
143.4890886020403
 30
0.0
 10
132.5979206407179
 20
143.4890886020403
 30
0.0
 10
132.5979206407179
 20
143.4890886020403
 30
0.0
 10
132.5979206407179
 20
148.9890974168596
 30
0.0
 10
132.5979206407179
 20
148.9890974168596
 30
0.0
 10
132.5979206407179
 20
148.9890974168596
 30
0.0
 10
182.5651549218433
 20
148.9890974168596
 30
0.0
 10
182.5651549218433
 20
148.9890974168596
 30
0.0
 10
182.5651549218433
 20
148.9890974168596
 30
0.0
 10
182.5651549218433
 20
143.4890886020403
 30
0.0
 10
182.5651549218433
 20
143.4890886020403
 30
0.0
 10
182.5651549218433
 20
143.4890886020403
 30
0.0
 10
198.565211883993
 20
143.4890886020403
 30
0.0
 10
198.565211883993
 20
143.4890886020403
 30
0.0
 10
198.565211883993
 20
143.4890886020403
 30
0.0
 10
198.565211883993
 20
148.9890974168596
 30
0.0
 10
198.565211883993
 20
148.9890974168596
 30
0.0
 10
198.565211883993
 20
148.9890974168596
 30
0.0
 10
223.5960698963985
 20
148.9890974168596
 30
0.0
 10
223.5960698963985
 20
148.9890974168596
 30
0.0
 10
223.5960698963985
 20
148.9890974168596
 30
0.0
 10
223.5960698963985
 20
159.9891150464881
 30
0.0
 10
223.5960698963985
 20
159.9891150464881
 30
0.0
 10
223.5960698963985
 20
159.9891150464881
 30
0.0
 10
201.5960346371416
 20
159.9891150464881
 30
0.0
 10
201.5960346371416
 20
159.9891150464881
 30
0.0
 10
201.5960346371416
 20
159.9891150464881
 30
0.0
 10
85.56711349644007
 20
159.9891150464881
 30
0.0
 10
85.56711349644007
 20
159.9891150464881
 30
0.0
 10
79.50968823211498
 20
159.9885982821653
 30
0.0
 10
74.59784334402003
 20
155.092945342851
 30
0.0
 10
74.56847390500667
 20
149.04327154336
 30
0.0
 10
74.56847390500667
 20
149.0335391486194
 30
0.0
 10
74.56709586681256
 20
149.0241512634169
 30
0.0
 10
74.56709586681256
 20
149.014332741284
 30
0.0
 10
74.56709586681256
 20
149.014332741284
 30
0.0
 10
74.56709586681256
 20
148.989958690731
 30
0.0
 10
74.56709586681256
 20
148.989958690731
 30
0.0
 10
74.56709586681256
 20
148.9890974168596
 30
0.0
 10
116.5979498059567
 20
148.9890974168596
 30
0.0
 10
116.5979498059567
 20
148.9890974168596
 30
0.0
  0
ENDBLK
  5
4E
330
4B
100
AcDbEntity
  8
0
100
AcDbBlockEnd
  0
BLOCK
  5
52
330
50
100
AcDbEntity
  8
0
100
AcDbBlockBegin
  2
block 5
 70
     0
 10
0.0
 20
0.0
 30
0.0
  3
block 5
  1

  0
SPLINE
  5
54
330
50
100
AcDbEntity
  8
Layer 1
 62
    22
420
 14951456
370
    35
100
AcDbSpline
210
0.0
220
0.0
230
1.0
 70
    11
 71
     3
 72
    50
 73
    46
 74
     0
 42
0.0000000001
 43
0.0000000001
 12
1.0
 22
0.0
 32
0.0
 13
1.0
 23
0.0
 33
0.0
 40
0.0
 40
0.0
 40
0.0
 40
0.0
 40
1.0
 40
1.0
 40
1.0
 40
2.0
 40
2.0
 40
2.0
 40
3.0
 40
3.0
 40
3.0
 40
4.0
 40
4.0
 40
4.0
 40
5.0
 40
5.0
 40
5.0
 40
6.0
 40
6.0
 40
6.0
 40
7.0
 40
7.0
 40
7.0
 40
8.0
 40
8.0
 40
8.0
 40
9.0
 40
9.0
 40
9.0
 40
10.0
 40
10.0
 40
10.0
 40
11.0
 40
11.0
 40
11.0
 40
12.0
 40
12.0
 40
12.0
 40
13.0
 40
13.0
 40
13.0
 40
14.0
 40
14.0
 40
14.0
 40
15.0
 40
15.0
 40
15.0
 40
15.0
 10
295.4756453513277
 20
126.5074357239289
 30
0.0
 10
295.4756453513277
 20
126.5074357239289
 30
0.0
 10
295.4756343513112
 20
132.0074445387309
 30
0.0
 10
295.4756343513112
 20
132.0074445387309
 30
0.0
 10
295.4756343513112
 20
132.0074445387309
 30
0.0
 10
279.4756635165833
 20
132.0074125387874
 30
0.0
 10
279.4756635165833
 20
132.0074125387874
 30
0.0
 10
279.4756635165833
 20
132.0074125387874
 30
0.0
 10
279.4756745165998
 20
126.507403723986
 30
0.0
 10
279.4756745165998
 20
126.507403723986
 30
0.0
 10
279.4756745165998
 20
126.507403723986
 30
0.0
 10
229.5084402355719
 20
126.50730378952
 30
0.0
 10
229.5084402355719
 20
126.50730378952
 30
0.0
 10
229.5084402355719
 20
126.50730378952
 30
0.0
 10
229.5084292355554
 20
132.007312604322
 30
0.0
 10
229.5084292355554
 20
132.007312604322
 30
0.0
 10
229.5084292355554
 20
132.007312604322
 30
0.0
 10
213.5083722734417
 20
132.0072806042097
 30
0.0
 10
213.5083722734417
 20
132.0072806042097
 30
0.0
 10
213.5083722734417
 20
132.0072806042097
 30
0.0
 10
213.5083832734582
 20
126.5072717894077
 30
0.0
 10
213.5083832734582
 20
126.5072717894077
 30
0.0
 10
213.5083832734582
 20
126.5072717894077
 30
0.0
 10
188.4775252611021
 20
126.5072217276909
 30
0.0
 10
188.4775252611021
 20
126.5072217276909
 30
0.0
 10
188.4775252611021
 20
126.5072217276909
 30
0.0
 10
188.4775472611357
 20
115.507204098083
 30
0.0
 10
188.4775472611357
 20
115.507204098083
 30
0.0
 10
188.4775472611357
 20
115.507204098083
 30
0.0
 10
210.4775825203503
 20
115.507248098154
 30
0.0
 10
210.4775825203503
 20
115.507248098154
 30
0.0
 10
210.4775825203503
 20
115.507248098154
 30
0.0
 10
326.5065036608182
 20
115.5074801559933
 30
0.0
 10
326.5065036608182
 20
115.5074801559933
 30
0.0
 10
332.563928924096
 20
115.508009035164
 30
0.0
 10
337.4757640208762
 20
120.4036717981577
 30
0.0
 10
337.5051213605439
 20
126.4533456563719
 30
0.0
 10
337.5051213410769
 20
126.4630780511158
 30
0.0
 10
337.5064993604962
 20
126.4724659390705
 30
0.0
 10
337.5064993408602
 20
126.4822844612034
 30
0.0
 10
337.5064993408602
 20
126.4822844612034
 30
0.0
 10
337.5064992921103
 20
126.5066585117629
 30
0.0
 10
337.5064992921103
 20
126.5066585117629
 30
0.0
 10
337.506499290388
 20
126.5075197856342
 30
0.0
 10
295.4756453513277
 20
126.5074357239289
 30
0.0
 10
295.4756453513277
 20
126.5074357239289
 30
0.0
  0
ENDBLK
  5
53
330
50
100
AcDbEntity
  8
0
100
AcDbBlockEnd
  0
BLOCK
  5
57
330
55
100
AcDbEntity
  8
0
100
AcDbBlockBegin
  2
block 6
 70
     0
 10
0.0
 20
0.0
 30
0.0
  3
block 6
  1

  0
SPLINE
  5
59
330
55
100
AcDbEntity
  8
Layer 1
 62
    22
420
 14951456
370
    35
100
AcDbSpline
210
0.0
220
0.0
230
1.0
 70
    11
 71
     3
 72
    56
 73
    52
 74
     0
 42
0.0000000001
 43
0.0000000001
 12
1.0
 22
0.0
 32
0.0
 13
1.0
 23
0.0
 33
0.0
 40
0.0
 40
0.0
 40
0.0
 40
0.0
 40
1.0
 40
1.0
 40
1.0
 40
2.0
 40
2.0
 40
2.0
 40
3.0
 40
3.0
 40
3.0
 40
4.0
 40
4.0
 40
4.0
 40
5.0
 40
5.0
 40
5.0
 40
6.0
 40
6.0
 40
6.0
 40
7.0
 40
7.0
 40
7.0
 40
8.0
 40
8.0
 40
8.0
 40
9.0
 40
9.0
 40
9.0
 40
10.0
 40
10.0
 40
10.0
 40
11.0
 40
11.0
 40
11.0
 40
12.0
 40
12.0
 40
12.0
 40
13.0
 40
13.0
 40
13.0
 40
14.0
 40
14.0
 40
14.0
 40
15.0
 40
15.0
 40
15.0
 40
16.0
 40
16.0
 40
16.0
 40
17.0
 40
17.0
 40
17.0
 40
17.0
 10
489.7658656562637
 20
311.3794091276362
 30
0.0
 10
489.7658656562637
 20
311.3794091276362
 30
0.0
 10
489.7658656562637
 20
322.3797712668132
 30
0.0
 10
489.7658656562637
 20
322.3797712668132
 30
0.0
 10
489.7658656562637
 20
322.3797712668132
 30
0.0
 10
464.7350076438581
 20
322.3797712668132
 30
0.0
 10
464.7350076438581
 20
322.3797712668132
 30
0.0
 10
464.7350076438581
 20
322.3797712668132
 30
0.0
 10
464.7350076438581
 20
327.87978008163
 30
0.0
 10
464.7350076438581
 20
327.87978008163
 30
0.0
 10
464.7350076438581
 20
327.87978008163
 30
0.0
 10
447.7350117171185
 20
327.87978008163
 30
0.0
 10
447.7350117171185
 20
327.87978008163
 30
0.0
 10
447.7350117171185
 20
327.87978008163
 30
0.0
 10
431.7349547549728
 20
327.87978008163
 30
0.0
 10
431.7349547549728
 20
327.87978008163
 30
0.0
 10
431.7349547549728
 20
327.87978008163
 30
0.0
 10
431.7349547549728
 20
322.3797712668132
 30
0.0
 10
431.7349547549728
 20
322.3797712668132
 30
0.0
 10
431.7349547549728
 20
322.3797712668132
 30
0.0
 10
398.7677164005901
 20
322.3797712668132
 30
0.0
 10
398.7677164005901
 20
322.3797712668132
 30
0.0
 10
398.7677164005901
 20
322.3797712668132
 30
0.0
 10
398.7677164005901
 20
327.87978008163
 30
0.0
 10
398.7677164005901
 20
327.87978008163
 30
0.0
 10
398.7677164005901
 20
327.87978008163
 30
0.0
 10
381.7677204738505
 20
327.87978008163
 30
0.0
 10
381.7677204738505
 20
327.87978008163
 30
0.0
 10
381.7677204738505
 20
327.87978008163
 30
0.0
 10
365.767749639086
 20
327.87978008163
 30
0.0
 10
365.767749639086
 20
327.87978008163
 30
0.0
 10
365.767749639086
 20
327.87978008163
 30
0.0
 10
365.767749639086
 20
322.3797712668132
 30
0.0
 10
365.767749639086
 20
322.3797712668132
 30
0.0
 10
365.767749639086
 20
322.3797712668132
 30
0.0
 10
340.7368916266803
 20
322.3797712668132
 30
0.0
 10
340.7368916266803
 20
322.3797712668132
 30
0.0
 10
340.7368916266803
 20
322.3785654833933
 30
0.0
 10
340.7368916266803
 20
322.3544498149966
 30
0.0
 10
340.7368916266803
 20
322.3544498149966
 30
0.0
 10
340.7368916266803
 20
322.3448035476379
 30
0.0
 10
340.7381835374924
 20
322.3355017898277
 30
0.0
 10
340.7382696648744
 20
322.3258555224691
 30
0.0
 10
340.7672945943427
 20
316.2759233408218
 30
0.0
 10
345.6793117372119
 20
311.379925891959
 30
0.0
 10
351.7360479824371
 20
311.3794091276362
 30
0.0
 10
351.7369092563084
 20
311.3794091276362
 30
0.0
 10
467.7658303970067
 20
311.3794091276362
 30
0.0
 10
467.7658303970067
 20
311.3794091276362
 30
0.0
 10
467.7658303970067
 20
311.3794091276362
 30
0.0
 10
489.7658656562637
 20
311.3794091276362
 30
0.0
 10
489.7658656562637
 20
311.3794091276362
 30
0.0
  0
ENDBLK
  5
58
330
55
100
AcDbEntity
  8
0
100
AcDbBlockEnd
  0
BLOCK
  5
5C
330
5A
100
AcDbEntity
  8
0
100
AcDbBlockBegin
  2
block 7
 70
     0
 10
0.0
 20
0.0
 30
0.0
  3
block 7
  1

  0
SPLINE
  5
5E
330
5A
100
AcDbEntity
  8
Layer 1
 62
    22
420
 14951456
370
    35
100
AcDbSpline
210
0.0
220
0.0
230
1.0
 70
    11
 71
     3
 72
    56
 73
    52
 74
     0
 42
0.0000000001
 43
0.0000000001
 12
1.0
 22
0.0
 32
0.0
 13
1.0
 23
0.0
 33
0.0
 40
0.0
 40
0.0
 40
0.0
 40
0.0
 40
1.0
 40
1.0
 40
1.0
 40
2.0
 40
2.0
 40
2.0
 40
3.0
 40
3.0
 40
3.0
 40
4.0
 40
4.0
 40
4.0
 40
5.0
 40
5.0
 40
5.0
 40
6.0
 40
6.0
 40
6.0
 40
7.0
 40
7.0
 40
7.0
 40
8.0
 40
8.0
 40
8.0
 40
9.0
 40
9.0
 40
9.0
 40
10.0
 40
10.0
 40
10.0
 40
11.0
 40
11.0
 40
11.0
 40
12.0
 40
12.0
 40
12.0
 40
13.0
 40
13.0
 40
13.0
 40
14.0
 40
14.0
 40
14.0
 40
15.0
 40
15.0
 40
15.0
 40
16.0
 40
16.0
 40
16.0
 40
17.0
 40
17.0
 40
17.0
 40
17.0
 10
473.8217895066157
 20
299.898240087219
 30
0.0
 10
473.8217895066157
 20
299.898240087219
 30
0.0
 10
473.8217895066157
 20
288.897877948042
 30
0.0
 10
473.8217895066157
 20
288.897877948042
 30
0.0
 10
473.8217895066157
 20
288.897877948042
 30
0.0
 10
498.8526475190212
 20
288.897877948042
 30
0.0
 10
498.8526475190212
 20
288.897877948042
 30
0.0
 10
498.8526475190212
 20
288.897877948042
 30
0.0
 10
498.8526475190212
 20
283.3978691332264
 30
0.0
 10
498.8526475190212
 20
283.3978691332264
 30
0.0
 10
498.8526475190212
 20
283.3978691332264
 30
0.0
 10
515.8526434457608
 20
283.3978691332264
 30
0.0
 10
515.8526434457608
 20
283.3978691332264
 30
0.0
 10
515.8526434457608
 20
283.3978691332264
 30
0.0
 10
531.8527004079066
 20
283.3978691332264
 30
0.0
 10
531.8527004079066
 20
283.3978691332264
 30
0.0
 10
531.8527004079066
 20
283.3978691332264
 30
0.0
 10
531.8527004079066
 20
288.897877948042
 30
0.0
 10
531.8527004079066
 20
288.897877948042
 30
0.0
 10
531.8527004079066
 20
288.897877948042
 30
0.0
 10
564.8199387622969
 20
288.897877948042
 30
0.0
 10
564.8199387622969
 20
288.897877948042
 30
0.0
 10
564.8199387622969
 20
288.897877948042
 30
0.0
 10
564.8199387622969
 20
283.3978691332264
 30
0.0
 10
564.8199387622969
 20
283.3978691332264
 30
0.0
 10
564.8199387622969
 20
283.3978691332264
 30
0.0
 10
581.8199346890365
 20
283.3978691332264
 30
0.0
 10
581.8199346890365
 20
283.3978691332264
 30
0.0
 10
581.8199346890365
 20
283.3978691332264
 30
0.0
 10
597.8199055237933
 20
283.3978691332264
 30
0.0
 10
597.8199055237933
 20
283.3978691332264
 30
0.0
 10
597.8199055237933
 20
283.3978691332264
 30
0.0
 10
597.8199055237933
 20
288.897877948042
 30
0.0
 10
597.8199055237933
 20
288.897877948042
 30
0.0
 10
597.8199055237933
 20
288.897877948042
 30
0.0
 10
622.8507635361988
 20
288.897877948042
 30
0.0
 10
622.8507635361988
 20
288.897877948042
 30
0.0
 10
622.8507635361988
 20
288.8990837314618
 30
0.0
 10
622.8507635361988
 20
288.9231993998586
 30
0.0
 10
622.8507635361988
 20
288.9231993998586
 30
0.0
 10
622.8507635361988
 20
288.9328456672172
 30
0.0
 10
622.8494716253937
 20
288.9421474250274
 30
0.0
 10
622.8493854980046
 20
288.9517936923862
 30
0.0
 10
622.8203605685434
 20
295.0017258740334
 30
0.0
 10
617.9083434256742
 20
299.8977233228962
 30
0.0
 10
611.8516071804416
 20
299.898240087219
 30
0.0
 10
611.8507459065703
 20
299.898240087219
 30
0.0
 10
495.8218247658726
 20
299.898240087219
 30
0.0
 10
495.8218247658726
 20
299.898240087219
 30
0.0
 10
495.8218247658726
 20
299.898240087219
 30
0.0
 10
473.8217895066157
 20
299.898240087219
 30
0.0
 10
473.8217895066157
 20
299.898240087219
 30
0.0
  0
ENDBLK
  5
5D
330
5A
100
AcDbEntity
  8
0
100
AcDbBlockEnd
  0
BLOCK
  5
61
330
5F
100
AcDbEntity
  8
0
100
AcDbBlockBegin
  2
block 8
 70
     0
 10
0.0
 20
0.0
 30
0.0
  3
block 8
  1

  0
SPLINE
  5
63
330
5F
100
AcDbEntity
  8
Layer 1
 62
    22
420
 14951456
370
    35
100
AcDbSpline
210
0.0
220
0.0
230
1.0
 70
    11
 71
     3
 72
    56
 73
    52
 74
     0
 42
0.0000000001
 43
0.0000000001
 12
1.0
 22
0.0
 32
0.0
 13
1.0
 23
0.0
 33
0.0
 40
0.0
 40
0.0
 40
0.0
 40
0.0
 40
1.0
 40
1.0
 40
1.0
 40
2.0
 40
2.0
 40
2.0
 40
3.0
 40
3.0
 40
3.0
 40
4.0
 40
4.0
 40
4.0
 40
5.0
 40
5.0
 40
5.0
 40
6.0
 40
6.0
 40
6.0
 40
7.0
 40
7.0
 40
7.0
 40
8.0
 40
8.0
 40
8.0
 40
9.0
 40
9.0
 40
9.0
 40
10.0
 40
10.0
 40
10.0
 40
11.0
 40
11.0
 40
11.0
 40
12.0
 40
12.0
 40
12.0
 40
13.0
 40
13.0
 40
13.0
 40
14.0
 40
14.0
 40
14.0
 40
15.0
 40
15.0
 40
15.0
 40
16.0
 40
16.0
 40
16.0
 40
17.0
 40
17.0
 40
17.0
 40
17.0
 10
622.850763536202
 20
59.54358382969587
 30
0.0
 10
622.850763536202
 20
59.54358382969587
 30
0.0
 10
622.850763536202
 20
70.54394596887286
 30
0.0
 10
622.850763536202
 20
70.54394596887286
 30
0.0
 10
622.850763536202
 20
70.54394596887286
 30
0.0
 10
597.8199055237965
 20
70.54394596887286
 30
0.0
 10
597.8199055237965
 20
70.54394596887286
 30
0.0
 10
597.8199055237965
 20
70.54394596887286
 30
0.0
 10
597.8199055237965
 20
76.04395478368838
 30
0.0
 10
597.8199055237965
 20
76.04395478368838
 30
0.0
 10
597.8199055237965
 20
76.04395478368838
 30
0.0
 10
580.8199095970537
 20
76.04395478368838
 30
0.0
 10
580.8199095970537
 20
76.04395478368838
 30
0.0
 10
580.8199095970537
 20
76.04395478368838
 30
0.0
 10
564.8198526349079
 20
76.04395478368838
 30
0.0
 10
564.8198526349079
 20
76.04395478368838
 30
0.0
 10
564.8198526349079
 20
76.04395478368838
 30
0.0
 10
564.8198526349079
 20
70.54394596887286
 30
0.0
 10
564.8198526349079
 20
70.54394596887286
 30
0.0
 10
564.8198526349079
 20
70.54394596887286
 30
0.0
 10
531.8526142805214
 20
70.54394596887286
 30
0.0
 10
531.8526142805214
 20
70.54394596887286
 30
0.0
 10
531.8526142805214
 20
70.54394596887286
 30
0.0
 10
531.8526142805214
 20
76.04395478368838
 30
0.0
 10
531.8526142805214
 20
76.04395478368838
 30
0.0
 10
531.8526142805214
 20
76.04395478368838
 30
0.0
 10
514.8526183537818
 20
76.04395478368838
 30
0.0
 10
514.8526183537818
 20
76.04395478368838
 30
0.0
 10
514.8526183537818
 20
76.04395478368838
 30
0.0
 10
498.8526475190212
 20
76.04395478368838
 30
0.0
 10
498.8526475190212
 20
76.04395478368838
 30
0.0
 10
498.8526475190212
 20
76.04395478368838
 30
0.0
 10
498.8526475190212
 20
70.54394596887286
 30
0.0
 10
498.8526475190212
 20
70.54394596887286
 30
0.0
 10
498.8526475190212
 20
70.54394596887286
 30
0.0
 10
473.8217895066157
 20
70.54394596887286
 30
0.0
 10
473.8217895066157
 20
70.54394596887286
 30
0.0
 10
473.8217895066157
 20
70.54274018545303
 30
0.0
 10
473.8217895066157
 20
70.51862451705628
 30
0.0
 10
473.8217895066157
 20
70.51862451705628
 30
0.0
 10
473.8217895066157
 20
70.50897824969758
 30
0.0
 10
473.8230814174208
 20
70.4996764918874
 30
0.0
 10
473.8231675448098
 20
70.4900302245287
 30
0.0
 10
473.8521924742711
 20
64.44009804288146
 30
0.0
 10
478.7642096171404
 20
59.54410059401865
 30
0.0
 10
484.8209458623729
 20
59.54358382969587
 30
0.0
 10
484.8218071362442
 20
59.54358382969587
 30
0.0
 10
600.850728276945
 20
59.54358382969587
 30
0.0
 10
600.850728276945
 20
59.54358382969587
 30
0.0
 10
600.850728276945
 20
59.54358382969587
 30
0.0
 10
622.850763536202
 20
59.54358382969587
 30
0.0
 10
622.850763536202
 20
59.54358382969587
 30
0.0
  0
ENDBLK
  5
62
330
5F
100
AcDbEntity
  8
0
100
AcDbBlockEnd
  0
BLOCK
  5
66
330
64
100
AcDbEntity
  8
0
100
AcDbBlockBegin
  2
block 9
 70
     0
 10
0.0
 20
0.0
 30
0.0
  3
block 9
  1

  0
SPLINE
  5
68
330
64
100
AcDbEntity
  8
Layer 1
 62
    22
420
 14951456
370
    35
100
AcDbSpline
210
0.0
220
0.0
230
1.0
 70
    11
 71
     3
 72
    56
 73
    52
 74
     0
 42
0.0000000001
 43
0.0000000001
 12
1.0
 22
0.0
 32
0.0
 13
1.0
 23
0.0
 33
0.0
 40
0.0
 40
0.0
 40
0.0
 40
0.0
 40
1.0
 40
1.0
 40
1.0
 40
2.0
 40
2.0
 40
2.0
 40
3.0
 40
3.0
 40
3.0
 40
4.0
 40
4.0
 40
4.0
 40
5.0
 40
5.0
 40
5.0
 40
6.0
 40
6.0
 40
6.0
 40
7.0
 40
7.0
 40
7.0
 40
8.0
 40
8.0
 40
8.0
 40
9.0
 40
9.0
 40
9.0
 40
10.0
 40
10.0
 40
10.0
 40
11.0
 40
11.0
 40
11.0
 40
12.0
 40
12.0
 40
12.0
 40
13.0
 40
13.0
 40
13.0
 40
14.0
 40
14.0
 40
14.0
 40
15.0
 40
15.0
 40
15.0
 40
16.0
 40
16.0
 40
16.0
 40
17.0
 40
17.0
 40
17.0
 40
17.0
 10
340.7368916266803
 20
104.0257131501264
 30
0.0
 10
340.7368916266803
 20
104.0257131501264
 30
0.0
 10
340.7368916266803
 20
93.02535101094945
 30
0.0
 10
340.7368916266803
 20
93.02535101094945
 30
0.0
 10
340.7368916266803
 20
93.02535101094945
 30
0.0
 10
365.767749639086
 20
93.02535101094945
 30
0.0
 10
365.767749639086
 20
93.02535101094945
 30
0.0
 10
365.767749639086
 20
93.02535101094945
 30
0.0
 10
365.767749639086
 20
87.52534219613393
 30
0.0
 10
365.767749639086
 20
87.52534219613393
 30
0.0
 10
365.767749639086
 20
87.52534219613393
 30
0.0
 10
382.7677455658295
 20
87.52534219613393
 30
0.0
 10
382.7677455658295
 20
87.52534219613393
 30
0.0
 10
382.7677455658295
 20
87.52534219613393
 30
0.0
 10
398.7678025279753
 20
87.52534219613393
 30
0.0
 10
398.7678025279753
 20
87.52534219613393
 30
0.0
 10
398.7678025279753
 20
87.52534219613393
 30
0.0
 10
398.7678025279753
 20
93.02535101094945
 30
0.0
 10
398.7678025279753
 20
93.02535101094945
 30
0.0
 10
398.7678025279753
 20
93.02535101094945
 30
0.0
 10
431.7350408823618
 20
93.02535101094945
 30
0.0
 10
431.7350408823618
 20
93.02535101094945
 30
0.0
 10
431.7350408823618
 20
93.02535101094945
 30
0.0
 10
431.7350408823618
 20
87.52534219613393
 30
0.0
 10
431.7350408823618
 20
87.52534219613393
 30
0.0
 10
431.7350408823618
 20
87.52534219613393
 30
0.0
 10
448.7350368091014
 20
87.52534219613393
 30
0.0
 10
448.7350368091014
 20
87.52534219613393
 30
0.0
 10
448.7350368091014
 20
87.52534219613393
 30
0.0
 10
464.735007643862
 20
87.52534219613393
 30
0.0
 10
464.735007643862
 20
87.52534219613393
 30
0.0
 10
464.735007643862
 20
87.52534219613393
 30
0.0
 10
464.735007643862
 20
93.02535101094945
 30
0.0
 10
464.735007643862
 20
93.02535101094945
 30
0.0
 10
464.735007643862
 20
93.02535101094945
 30
0.0
 10
489.7658656562675
 20
93.02535101094945
 30
0.0
 10
489.7658656562675
 20
93.02535101094945
 30
0.0
 10
489.7658656562675
 20
93.02655679436928
 30
0.0
 10
489.7658656562675
 20
93.05067246276603
 30
0.0
 10
489.7658656562675
 20
93.05067246276603
 30
0.0
 10
489.7658656562675
 20
93.06031873012473
 30
0.0
 10
489.7645737454586
 20
93.06962048793491
 30
0.0
 10
489.7644876180734
 20
93.0792667552936
 30
0.0
 10
489.7354626886082
 20
99.12919893694085
 30
0.0
 10
484.823445545739
 20
104.0251963858037
 30
0.0
 10
478.7667093005103
 20
104.0257131501264
 30
0.0
 10
478.765848026639
 20
104.0257131501264
 30
0.0
 10
362.7369268859375
 20
104.0257131501264
 30
0.0
 10
362.7369268859375
 20
104.0257131501264
 30
0.0
 10
362.7369268859375
 20
104.0257131501264
 30
0.0
 10
340.7368916266803
 20
104.0257131501264
 30
0.0
 10
340.7368916266803
 20
104.0257131501264
 30
0.0
  0
ENDBLK
  5
67
330
64
100
AcDbEntity
  8
0
100
AcDbBlockEnd
  0
BLOCK
  5
6B
330
69
100
AcDbEntity
  8
0
100
AcDbBlockBegin
  2
block 10
 70
     0
 10
0.0
 20
0.0
 30
0.0
  3
block 10
  1

  0
SPLINE
  5
6D
330
69
100
AcDbEntity
  8
Layer 1
 62
    22
420
 14951456
370
    35
100
AcDbSpline
210
0.0
220
0.0
230
1.0
 70
    11
 71
     3
 72
    50
 73
    46
 74
     0
 42
0.0000000001
 43
0.0000000001
 12
1.0
 22
0.0
 32
0.0
 13
1.0
 23
0.0
 33
0.0
 40
0.0
 40
0.0
 40
0.0
 40
0.0
 40
1.0
 40
1.0
 40
1.0
 40
2.0
 40
2.0
 40
2.0
 40
3.0
 40
3.0
 40
3.0
 40
4.0
 40
4.0
 40
4.0
 40
5.0
 40
5.0
 40
5.0
 40
6.0
 40
6.0
 40
6.0
 40
7.0
 40
7.0
 40
7.0
 40
8.0
 40
8.0
 40
8.0
 40
9.0
 40
9.0
 40
9.0
 40
10.0
 40
10.0
 40
10.0
 40
11.0
 40
11.0
 40
11.0
 40
12.0
 40
12.0
 40
12.0
 40
13.0
 40
13.0
 40
13.0
 40
14.0
 40
14.0
 40
14.0
 40
15.0
 40
15.0
 40
15.0
 40
15.0
 10
382.7677455658256
 20
148.9890399985992
 30
0.0
 10
382.7677455658256
 20
148.9890399985992
 30
0.0
 10
382.7677455658256
 20
143.4890311837837
 30
0.0
 10
382.7677455658256
 20
143.4890311837837
 30
0.0
 10
382.7677455658256
 20
143.4890311837837
 30
0.0
 10
398.7677164005863
 20
143.4890311837837
 30
0.0
 10
398.7677164005863
 20
143.4890311837837
 30
0.0
 10
398.7677164005863
 20
143.4890311837837
 30
0.0
 10
398.7677164005863
 20
148.9890399985992
 30
0.0
 10
398.7677164005863
 20
148.9890399985992
 30
0.0
 10
398.7677164005863
 20
148.9890399985992
 30
0.0
 10
448.7349506817123
 20
148.9890399985992
 30
0.0
 10
448.7349506817123
 20
148.9890399985992
 30
0.0
 10
448.7349506817123
 20
148.9890399985992
 30
0.0
 10
448.7349506817123
 20
143.4890311837837
 30
0.0
 10
448.7349506817123
 20
143.4890311837837
 30
0.0
 10
448.7349506817123
 20
143.4890311837837
 30
0.0
 10
464.7350076438581
 20
143.4890311837837
 30
0.0
 10
464.7350076438581
 20
143.4890311837837
 30
0.0
 10
464.7350076438581
 20
143.4890311837837
 30
0.0
 10
464.7350076438581
 20
148.9890399985992
 30
0.0
 10
464.7350076438581
 20
148.9890399985992
 30
0.0
 10
464.7350076438581
 20
148.9890399985992
 30
0.0
 10
489.7658656562637
 20
148.9890399985992
 30
0.0
 10
489.7658656562637
 20
148.9890399985992
 30
0.0
 10
489.7658656562637
 20
148.9890399985992
 30
0.0
 10
489.7658656562637
 20
159.9890576282283
 30
0.0
 10
489.7658656562637
 20
159.9890576282283
 30
0.0
 10
489.7658656562637
 20
159.9890576282283
 30
0.0
 10
467.7658303970067
 20
159.9890576282283
 30
0.0
 10
467.7658303970067
 20
159.9890576282283
 30
0.0
 10
467.7658303970067
 20
159.9890576282283
 30
0.0
 10
351.7369092563084
 20
159.9890576282283
 30
0.0
 10
351.7369092563084
 20
159.9890576282283
 30
0.0
 10
345.6794839919824
 20
159.9885408639055
 30
0.0
 10
340.7676391038874
 20
155.0928879245906
 30
0.0
 10
340.7382696648744
 20
149.0432141251035
 30
0.0
 10
340.7382696648744
 20
149.0334817303589
 30
0.0
 10
340.7368916266803
 20
149.0240938451603
 30
0.0
 10
340.7368916266803
 20
149.0142753230274
 30
0.0
 10
340.7368916266803
 20
149.0142753230274
 30
0.0
 10
340.7368916266803
 20
148.9899012724705
 30
0.0
 10
340.7368916266803
 20
148.9899012724705
 30
0.0
 10
340.7368916266803
 20
148.9890399985992
 30
0.0
 10
382.7677455658256
 20
148.9890399985992
 30
0.0
 10
382.7677455658256
 20
148.9890399985992
 30
0.0
  0
ENDBLK
  5
6C
330
69
100
AcDbEntity
  8
0
100
AcDbBlockEnd
  0
BLOCK
  5
70
330
6E
100
AcDbEntity
  8
0
100
AcDbBlockBegin
  2
block 11
 70
     0
 10
0.0
 20
0.0
 30
0.0
  3
block 11
  1

  0
SPLINE
  5
72
330
6E
100
AcDbEntity
  8
Layer 1
 62
    22
420
 14951456
370
    35
100
AcDbSpline
210
0.0
220
0.0
230
1.0
 70
    11
 71
     3
 72
    50
 73
    46
 74
     0
 42
0.0000000001
 43
0.0000000001
 12
1.0
 22
0.0
 32
0.0
 13
1.0
 23
0.0
 33
0.0
 40
0.0
 40
0.0
 40
0.0
 40
0.0
 40
1.0
 40
1.0
 40
1.0
 40
2.0
 40
2.0
 40
2.0
 40
3.0
 40
3.0
 40
3.0
 40
4.0
 40
4.0
 40
4.0
 40
5.0
 40
5.0
 40
5.0
 40
6.0
 40
6.0
 40
6.0
 40
7.0
 40
7.0
 40
7.0
 40
8.0
 40
8.0
 40
8.0
 40
9.0
 40
9.0
 40
9.0
 40
10.0
 40
10.0
 40
10.0
 40
11.0
 40
11.0
 40
11.0
 40
12.0
 40
12.0
 40
12.0
 40
13.0
 40
13.0
 40
13.0
 40
14.0
 40
14.0
 40
14.0
 40
15.0
 40
15.0
 40
15.0
 40
15.0
 10
580.819909596842
 20
126.5073974450899
 30
0.0
 10
580.819909596842
 20
126.5073974450899
 30
0.0
 10
580.8198985968254
 20
132.0074062598925
 30
0.0
 10
580.8198985968254
 20
132.0074062598925
 30
0.0
 10
580.8198985968254
 20
132.0074062598925
 30
0.0
 10
564.8199277620963
 20
132.007374259949
 30
0.0
 10
564.8199277620963
 20
132.007374259949
 30
0.0
 10
564.8199277620963
 20
132.007374259949
 30
0.0
 10
564.8199387621096
 20
126.5073654451476
 30
0.0
 10
564.8199387621096
 20
126.5073654451476
 30
0.0
 10
564.8199387621096
 20
126.5073654451476
 30
0.0
 10
514.8527044810862
 20
126.5072655106816
 30
0.0
 10
514.8527044810862
 20
126.5072655106816
 30
0.0
 10
514.8527044810862
 20
126.5072655106816
 30
0.0
 10
514.852693481073
 20
132.007274325483
 30
0.0
 10
514.852693481073
 20
132.007274325483
 30
0.0
 10
514.852693481073
 20
132.007274325483
 30
0.0
 10
498.8526365189553
 20
132.0072423253714
 30
0.0
 10
498.8526365189553
 20
132.0072423253714
 30
0.0
 10
498.8526365189553
 20
132.0072423253714
 30
0.0
 10
498.8526475189686
 20
126.5072335105687
 30
0.0
 10
498.8526475189686
 20
126.5072335105687
 30
0.0
 10
498.8526475189686
 20
126.5072335105687
 30
0.0
 10
473.8217895066157
 20
126.5071834488519
 30
0.0
 10
473.8217895066157
 20
126.5071834488519
 30
0.0
 10
473.8217895066157
 20
126.5071834488519
 30
0.0
 10
473.8218115066532
 20
115.507165819244
 30
0.0
 10
473.8218115066532
 20
115.507165819244
 30
0.0
 10
473.8218115066532
 20
115.507165819244
 30
0.0
 10
495.8218467658677
 20
115.507209819315
 30
0.0
 10
495.8218467658677
 20
115.507209819315
 30
0.0
 10
495.8218467658677
 20
115.507209819315
 30
0.0
 10
611.8507679063325
 20
115.5074418771543
 30
0.0
 10
611.8507679063325
 20
115.5074418771543
 30
0.0
 10
617.9081931696142
 20
115.507970756325
 30
0.0
 10
622.8200282663937
 20
120.4036335193187
 30
0.0
 10
622.8493856060571
 20
126.4533073775329
 30
0.0
 10
622.8493855865944
 20
126.4630397722774
 30
0.0
 10
622.8507636060137
 20
126.4724276602315
 30
0.0
 10
622.8507635863745
 20
126.4822461823644
 30
0.0
 10
622.8507635863745
 20
126.4822461823644
 30
0.0
 10
622.8507635376278
 20
126.5066202329239
 30
0.0
 10
622.8507635376278
 20
126.5066202329239
 30
0.0
 10
622.8507635359023
 20
126.5074815067952
 30
0.0
 10
580.819909596842
 20
126.5073974450899
 30
0.0
 10
580.819909596842
 20
126.5073974450899
 30
0.0
  0
ENDBLK
  5
71
330
6E
100
AcDbEntity
  8
0
100
AcDbBlockEnd
  0
BLOCK
  5
75
330
73
100
AcDbEntity
  8
0
100
AcDbBlockBegin
  2
block 12
 70
     0
 10
0.0
 20
0.0
 30
0.0
  3
block 12
  1

  0
SPLINE
  5
77
330
73
100
AcDbEntity
  8
Layer 1
 62
    22
420
 14951456
370
    35
100
AcDbSpline
210
0.0
220
0.0
230
1.0
 70
    11
 71
     3
 72
    56
 73
    52
 74
     0
 42
0.0000000001
 43
0.0000000001
 12
1.0
 22
0.0
 32
0.0
 13
1.0
 23
0.0
 33
0.0
 40
0.0
 40
0.0
 40
0.0
 40
0.0
 40
1.0
 40
1.0
 40
1.0
 40
2.0
 40
2.0
 40
2.0
 40
3.0
 40
3.0
 40
3.0
 40
4.0
 40
4.0
 40
4.0
 40
5.0
 40
5.0
 40
5.0
 40
6.0
 40
6.0
 40
6.0
 40
7.0
 40
7.0
 40
7.0
 40
8.0
 40
8.0
 40
8.0
 40
9.0
 40
9.0
 40
9.0
 40
10.0
 40
10.0
 40
10.0
 40
11.0
 40
11.0
 40
11.0
 40
12.0
 40
12.0
 40
12.0
 40
13.0
 40
13.0
 40
13.0
 40
14.0
 40
14.0
 40
14.0
 40
15.0
 40
15.0
 40
15.0
 40
16.0
 40
16.0
 40
16.0
 40
17.0
 40
17.0
 40
17.0
 40
17.0
 10
337.5064992906883
 20
171.4706938531255
 30
0.0
 10
337.5064992906883
 20
171.4706938531255
 30
0.0
 10
337.5064992906883
 20
182.4710559923025
 30
0.0
 10
337.5064992906883
 20
182.4710559923025
 30
0.0
 10
337.5064992906883
 20
182.4710559923025
 30
0.0
 10
312.4756412782829
 20
182.4710559923025
 30
0.0
 10
312.4756412782829
 20
182.4710559923025
 30
0.0
 10
312.4756412782829
 20
182.4710559923025
 30
0.0
 10
312.4756412782829
 20
187.971064807118
 30
0.0
 10
312.4756412782829
 20
187.971064807118
 30
0.0
 10
312.4756412782829
 20
187.971064807118
 30
0.0
 10
295.4756453515394
 20
187.971064807118
 30
0.0
 10
295.4756453515394
 20
187.971064807118
 30
0.0
 10
295.4756453515394
 20
187.971064807118
 30
0.0
 10
279.4755883893936
 20
187.971064807118
 30
0.0
 10
279.4755883893936
 20
187.971064807118
 30
0.0
 10
279.4755883893936
 20
187.971064807118
 30
0.0
 10
279.4755883893936
 20
182.4710559923025
 30
0.0
 10
279.4755883893936
 20
182.4710559923025
 30
0.0
 10
279.4755883893936
 20
182.4710559923025
 30
0.0
 10
246.5083500350078
 20
182.4710559923025
 30
0.0
 10
246.5083500350078
 20
182.4710559923025
 30
0.0
 10
246.5083500350078
 20
182.4710559923025
 30
0.0
 10
246.5083500350078
 20
187.971064807118
 30
0.0
 10
246.5083500350078
 20
187.971064807118
 30
0.0
 10
246.5083500350078
 20
187.971064807118
 30
0.0
 10
229.5083541082682
 20
187.971064807118
 30
0.0
 10
229.5083541082682
 20
187.971064807118
 30
0.0
 10
229.5083541082682
 20
187.971064807118
 30
0.0
 10
213.5083832735069
 20
187.971064807118
 30
0.0
 10
213.5083832735069
 20
187.971064807118
 30
0.0
 10
213.5083832735069
 20
187.971064807118
 30
0.0
 10
213.5083832735069
 20
182.4710559923025
 30
0.0
 10
213.5083832735069
 20
182.4710559923025
 30
0.0
 10
213.5083832735069
 20
182.4710559923025
 30
0.0
 10
188.4775252611021
 20
182.4710559923025
 30
0.0
 10
188.4775252611021
 20
182.4710559923025
 30
0.0
 10
188.4775252611021
 20
182.4698502088827
 30
0.0
 10
188.4775252611021
 20
182.4457345404859
 30
0.0
 10
188.4775252611021
 20
182.4457345404859
 30
0.0
 10
188.4775252611021
 20
182.4360882731272
 30
0.0
 10
188.478817171911
 20
182.426786515317
 30
0.0
 10
188.4789032992962
 20
182.4171402479583
 30
0.0
 10
188.5079282287614
 20
176.3672080663111
 30
0.0
 10
193.4199453716306
 20
171.4712106174483
 30
0.0
 10
199.4766816168586
 20
171.4706938531255
 30
0.0
 10
199.4775428907299
 20
171.4706938531255
 30
0.0
 10
315.5064640314314
 20
171.4706938531255
 30
0.0
 10
315.5064640314314
 20
171.4706938531255
 30
0.0
 10
315.5064640314314
 20
171.4706938531255
 30
0.0
 10
337.5064992906883
 20
171.4706938531255
 30
0.0
 10
337.5064992906883
 20
171.4706938531255
 30
0.0
  0
ENDBLK
  5
76
330
73
100
AcDbEntity
  8
0
100
AcDbBlockEnd
  0
BLOCK
  5
7A
330
78
100
AcDbEntity
  8
0
100
AcDbBlockBegin
  2
block 13
 70
     0
 10
0.0
 20
0.0
 30
0.0
  3
block 13
  1

  0
SPLINE
  5
7C
330
78
100
AcDbEntity
  8
Layer 1
 62
    22
420
 14951456
370
    35
100
AcDbSpline
210
0.0
220
0.0
230
1.0
 70
    11
 71
     3
 72
    56
 73
    52
 74
     0
 42
0.0000000001
 43
0.0000000001
 12
1.0
 22
0.0
 32
0.0
 13
1.0
 23
0.0
 33
0.0
 40
0.0
 40
0.0
 40
0.0
 40
0.0
 40
1.0
 40
1.0
 40
1.0
 40
2.0
 40
2.0
 40
2.0
 40
3.0
 40
3.0
 40
3.0
 40
4.0
 40
4.0
 40
4.0
 40
5.0
 40
5.0
 40
5.0
 40
6.0
 40
6.0
 40
6.0
 40
7.0
 40
7.0
 40
7.0
 40
8.0
 40
8.0
 40
8.0
 40
9.0
 40
9.0
 40
9.0
 40
10.0
 40
10.0
 40
10.0
 40
11.0
 40
11.0
 40
11.0
 40
12.0
 40
12.0
 40
12.0
 40
13.0
 40
13.0
 40
13.0
 40
14.0
 40
14.0
 40
14.0
 40
15.0
 40
15.0
 40
15.0
 40
16.0
 40
16.0
 40
16.0
 40
17.0
 40
17.0
 40
17.0
 40
17.0
 10
622.850763536202
 20
171.4706172954468
 30
0.0
 10
622.850763536202
 20
171.4706172954468
 30
0.0
 10
622.850763536202
 20
182.4709794346238
 30
0.0
 10
622.850763536202
 20
182.4709794346238
 30
0.0
 10
622.850763536202
 20
182.4709794346238
 30
0.0
 10
597.8199055237965
 20
182.4709794346238
 30
0.0
 10
597.8199055237965
 20
182.4709794346238
 30
0.0
 10
597.8199055237965
 20
182.4709794346238
 30
0.0
 10
597.8199055237965
 20
187.9709882494406
 30
0.0
 10
597.8199055237965
 20
187.9709882494406
 30
0.0
 10
597.8199055237965
 20
187.9709882494406
 30
0.0
 10
580.819909597057
 20
187.9709882494406
 30
0.0
 10
580.819909597057
 20
187.9709882494406
 30
0.0
 10
580.819909597057
 20
187.9709882494406
 30
0.0
 10
564.8198526349111
 20
187.9709882494406
 30
0.0
 10
564.8198526349111
 20
187.9709882494406
 30
0.0
 10
564.8198526349111
 20
187.9709882494406
 30
0.0
 10
564.8198526349111
 20
182.4709794346238
 30
0.0
 10
564.8198526349111
 20
182.4709794346238
 30
0.0
 10
564.8198526349111
 20
182.4709794346238
 30
0.0
 10
531.8526142805246
 20
182.4709794346238
 30
0.0
 10
531.8526142805246
 20
182.4709794346238
 30
0.0
 10
531.8526142805246
 20
182.4709794346238
 30
0.0
 10
531.8526142805246
 20
187.9709882494406
 30
0.0
 10
531.8526142805246
 20
187.9709882494406
 30
0.0
 10
531.8526142805246
 20
187.9709882494406
 30
0.0
 10
514.852618353785
 20
187.9709882494406
 30
0.0
 10
514.852618353785
 20
187.9709882494406
 30
0.0
 10
514.852618353785
 20
187.9709882494406
 30
0.0
 10
498.8526475190244
 20
187.9709882494406
 30
0.0
 10
498.8526475190244
 20
187.9709882494406
 30
0.0
 10
498.8526475190244
 20
187.9709882494406
 30
0.0
 10
498.8526475190244
 20
182.4709794346238
 30
0.0
 10
498.8526475190244
 20
182.4709794346238
 30
0.0
 10
498.8526475190244
 20
182.4709794346238
 30
0.0
 10
473.8217895066157
 20
182.4709794346238
 30
0.0
 10
473.8217895066157
 20
182.4709794346238
 30
0.0
 10
473.8217895066157
 20
182.469773651204
 30
0.0
 10
473.8217895066157
 20
182.4456579828073
 30
0.0
 10
473.8217895066157
 20
182.4456579828073
 30
0.0
 10
473.8217895066157
 20
182.4360117154486
 30
0.0
 10
473.8230814174278
 20
182.4267099576384
 30
0.0
 10
473.8231675448098
 20
182.4170636902797
 30
0.0
 10
473.8521924742782
 20
176.3671315086324
 30
0.0
 10
478.7642096171474
 20
171.4711340597696
 30
0.0
 10
484.8209458623729
 20
171.4706172954468
 30
0.0
 10
484.8218071362442
 20
171.4706172954468
 30
0.0
 10
600.850728276945
 20
171.4706172954468
 30
0.0
 10
600.850728276945
 20
171.4706172954468
 30
0.0
 10
600.850728276945
 20
171.4706172954468
 30
0.0
 10
622.850763536202
 20
171.4706172954468
 30
0.0
 10
622.850763536202
 20
171.4706172954468
 30
0.0
  0
ENDBLK
  5
7B
330
78
100
AcDbEntity
  8
0
100
AcDbBlockEnd
  0
BLOCK
  5
7F
330
7D
100
AcDbEntity
  8
0
100
AcDbBlockBegin
  2
block 14
 70
     0
 10
0.0
 20
0.0
 30
0.0
  3
block 14
  1

  0
SPLINE
  5
81
330
7D
100
AcDbEntity
  8
Layer 1
 62
    22
420
 14951456
370
    35
100
AcDbSpline
210
0.0
220
0.0
230
1.0
 70
    11
 71
     3
 72
    56
 73
    52
 74
     0
 42
0.0000000001
 43
0.0000000001
 12
1.0
 22
0.0
 32
0.0
 13
1.0
 23
0.0
 33
0.0
 40
0.0
 40
0.0
 40
0.0
 40
0.0
 40
1.0
 40
1.0
 40
1.0
 40
2.0
 40
2.0
 40
2.0
 40
3.0
 40
3.0
 40
3.0
 40
4.0
 40
4.0
 40
4.0
 40
5.0
 40
5.0
 40
5.0
 40
6.0
 40
6.0
 40
6.0
 40
7.0
 40
7.0
 40
7.0
 40
8.0
 40
8.0
 40
8.0
 40
9.0
 40
9.0
 40
9.0
 40
10.0
 40
10.0
 40
10.0
 40
11.0
 40
11.0
 40
11.0
 40
12.0
 40
12.0
 40
12.0
 40
13.0
 40
13.0
 40
13.0
 40
14.0
 40
14.0
 40
14.0
 40
15.0
 40
15.0
 40
15.0
 40
16.0
 40
16.0
 40
16.0
 40
17.0
 40
17.0
 40
17.0
 40
17.0
 10
74.56709586681256
 20
215.9528423129756
 30
0.0
 10
74.56709586681256
 20
215.9528423129756
 30
0.0
 10
74.56709586681256
 20
204.9524801737986
 30
0.0
 10
74.56709586681256
 20
204.9524801737986
 30
0.0
 10
74.56709586681256
 20
204.9524801737986
 30
0.0
 10
99.59795387921709
 20
204.9524801737986
 30
0.0
 10
99.59795387921709
 20
204.9524801737986
 30
0.0
 10
99.59795387921709
 20
204.9524801737986
 30
0.0
 10
99.59795387921709
 20
199.4524713589818
 30
0.0
 10
99.59795387921709
 20
199.4524713589818
 30
0.0
 10
99.59795387921709
 20
199.4524713589818
 30
0.0
 10
116.5979498059605
 20
199.4524713589818
 30
0.0
 10
116.5979498059605
 20
199.4524713589818
 30
0.0
 10
116.5979498059605
 20
199.4524713589818
 30
0.0
 10
132.5980067681063
 20
199.4524713589818
 30
0.0
 10
132.5980067681063
 20
199.4524713589818
 30
0.0
 10
132.5980067681063
 20
199.4524713589818
 30
0.0
 10
132.5980067681063
 20
204.9524801737986
 30
0.0
 10
132.5980067681063
 20
204.9524801737986
 30
0.0
 10
132.5980067681063
 20
204.9524801737986
 30
0.0
 10
165.5652451224935
 20
204.9524801737986
 30
0.0
 10
165.5652451224935
 20
204.9524801737986
 30
0.0
 10
165.5652451224935
 20
204.9524801737986
 30
0.0
 10
165.5652451224935
 20
199.4524713589818
 30
0.0
 10
165.5652451224935
 20
199.4524713589818
 30
0.0
 10
165.5652451224935
 20
199.4524713589818
 30
0.0
 10
182.565241049233
 20
199.4524713589818
 30
0.0
 10
182.565241049233
 20
199.4524713589818
 30
0.0
 10
182.565241049233
 20
199.4524713589818
 30
0.0
 10
198.565211883993
 20
199.4524713589818
 30
0.0
 10
198.565211883993
 20
199.4524713589818
 30
0.0
 10
198.565211883993
 20
199.4524713589818
 30
0.0
 10
198.565211883993
 20
204.9524801737986
 30
0.0
 10
198.565211883993
 20
204.9524801737986
 30
0.0
 10
198.565211883993
 20
204.9524801737986
 30
0.0
 10
223.5960698963985
 20
204.9524801737986
 30
0.0
 10
223.5960698963985
 20
204.9524801737986
 30
0.0
 10
223.5960698963985
 20
204.9536859572184
 30
0.0
 10
223.5960698963985
 20
204.9778016256152
 30
0.0
 10
223.5960698963985
 20
204.9778016256152
 30
0.0
 10
223.5960698963985
 20
204.9874478929739
 30
0.0
 10
223.5947779855902
 20
204.996749650784
 30
0.0
 10
223.5946918582044
 20
205.0063959181427
 30
0.0
 10
223.5656669287399
 20
211.05632809979
 30
0.0
 10
218.6536497858707
 20
215.9523255486528
 30
0.0
 10
212.5969135406413
 20
215.9528423129756
 30
0.0
 10
212.59605226677
 20
215.9528423129756
 30
0.0
 10
96.56713112606855
 20
215.9528423129756
 30
0.0
 10
96.56713112606855
 20
215.9528423129756
 30
0.0
 10
96.56713112606855
 20
215.9528423129756
 30
0.0
 10
74.56709586681256
 20
215.9528423129756
 30
0.0
 10
74.56709586681256
 20
215.9528423129756
 30
0.0
  0
ENDBLK
  5
80
330
7D
100
AcDbEntity
  8
0
100
AcDbBlockEnd
  0
BLOCK
  5
84
330
82
100
AcDbEntity
  8
0
100
AcDbBlockBegin
  2
block 15
 70
     0
 10
0.0
 20
0.0
 30
0.0
  3
block 15
  1

  0
SPLINE
  5
86
330
82
100
AcDbEntity
  8
Layer 1
 62
    22
420
 14951456
370
    35
100
AcDbSpline
210
0.0
220
0.0
230
1.0
 70
    11
 71
     3
 72
    56
 73
    52
 74
     0
 42
0.0000000001
 43
0.0000000001
 12
1.0
 22
0.0
 32
0.0
 13
1.0
 23
0.0
 33
0.0
 40
0.0
 40
0.0
 40
0.0
 40
0.0
 40
1.0
 40
1.0
 40
1.0
 40
2.0
 40
2.0
 40
2.0
 40
3.0
 40
3.0
 40
3.0
 40
4.0
 40
4.0
 40
4.0
 40
5.0
 40
5.0
 40
5.0
 40
6.0
 40
6.0
 40
6.0
 40
7.0
 40
7.0
 40
7.0
 40
8.0
 40
8.0
 40
8.0
 40
9.0
 40
9.0
 40
9.0
 40
10.0
 40
10.0
 40
10.0
 40
11.0
 40
11.0
 40
11.0
 40
12.0
 40
12.0
 40
12.0
 40
13.0
 40
13.0
 40
13.0
 40
14.0
 40
14.0
 40
14.0
 40
15.0
 40
15.0
 40
15.0
 40
16.0
 40
16.0
 40
16.0
 40
17.0
 40
17.0
 40
17.0
 40
17.0
 10
340.7368916266803
 20
215.9527466158781
 30
0.0
 10
340.7368916266803
 20
215.9527466158781
 30
0.0
 10
340.7368916266803
 20
204.9523844767011
 30
0.0
 10
340.7368916266803
 20
204.9523844767011
 30
0.0
 10
340.7368916266803
 20
204.9523844767011
 30
0.0
 10
365.7677496390932
 20
204.9523844767011
 30
0.0
 10
365.7677496390932
 20
204.9523844767011
 30
0.0
 10
365.7677496390932
 20
204.9523844767011
 30
0.0
 10
365.7677496390932
 20
199.4523756618856
 30
0.0
 10
365.7677496390932
 20
199.4523756618856
 30
0.0
 10
365.7677496390932
 20
199.4523756618856
 30
0.0
 10
382.7677455658327
 20
199.4523756618856
 30
0.0
 10
382.7677455658327
 20
199.4523756618856
 30
0.0
 10
382.7677455658327
 20
199.4523756618856
 30
0.0
 10
398.7678025279785
 20
199.4523756618856
 30
0.0
 10
398.7678025279785
 20
199.4523756618856
 30
0.0
 10
398.7678025279785
 20
199.4523756618856
 30
0.0
 10
398.7678025279785
 20
204.9523844767011
 30
0.0
 10
398.7678025279785
 20
204.9523844767011
 30
0.0
 10
398.7678025279785
 20
204.9523844767011
 30
0.0
 10
431.7350408823618
 20
204.9523844767011
 30
0.0
 10
431.7350408823618
 20
204.9523844767011
 30
0.0
 10
431.7350408823618
 20
204.9523844767011
 30
0.0
 10
431.7350408823618
 20
199.4523756618856
 30
0.0
 10
431.7350408823618
 20
199.4523756618856
 30
0.0
 10
431.7350408823618
 20
199.4523756618856
 30
0.0
 10
448.7350368091014
 20
199.4523756618856
 30
0.0
 10
448.7350368091014
 20
199.4523756618856
 30
0.0
 10
448.7350368091014
 20
199.4523756618856
 30
0.0
 10
464.735007643862
 20
199.4523756618856
 30
0.0
 10
464.735007643862
 20
199.4523756618856
 30
0.0
 10
464.735007643862
 20
199.4523756618856
 30
0.0
 10
464.735007643862
 20
204.9523844767011
 30
0.0
 10
464.735007643862
 20
204.9523844767011
 30
0.0
 10
464.735007643862
 20
204.9523844767011
 30
0.0
 10
489.7658656562707
 20
204.9523844767011
 30
0.0
 10
489.7658656562707
 20
204.9523844767011
 30
0.0
 10
489.7658656562707
 20
204.9535902601209
 30
0.0
 10
489.7658656562707
 20
204.9777059285177
 30
0.0
 10
489.7658656562707
 20
204.9777059285177
 30
0.0
 10
489.7658656562707
 20
204.9873521958764
 30
0.0
 10
489.7645737454586
 20
204.9966539536865
 30
0.0
 10
489.7644876180766
 20
205.0063002210452
 30
0.0
 10
489.7354626886082
 20
211.0562324026925
 30
0.0
 10
484.823445545739
 20
215.9522298515553
 30
0.0
 10
478.7667093005135
 20
215.9527466158781
 30
0.0
 10
478.7658480266422
 20
215.9527466158781
 30
0.0
 10
362.7369268859375
 20
215.9527466158781
 30
0.0
 10
362.7369268859375
 20
215.9527466158781
 30
0.0
 10
362.7369268859375
 20
215.9527466158781
 30
0.0
 10
340.7368916266803
 20
215.9527466158781
 30
0.0
 10
340.7368916266803
 20
215.9527466158781
 30
0.0
  0
ENDBLK
  5
85
330
82
100
AcDbEntity
  8
0
100
AcDbBlockEnd
  0
BLOCK
  5
89
330
87
100
AcDbEntity
  8
0
100
AcDbBlockBegin
  2
block 16
 70
     0
 10
0.0
 20
0.0
 30
0.0
  3
block 16
  1

  0
SPLINE
  5
8B
330
87
100
AcDbEntity
  8
Layer 1
 62
    22
420
 14951456
370
    35
100
AcDbSpline
210
0.0
220
0.0
230
1.0
 70
    11
 71
     3
 72
    50
 73
    46
 74
     0
 42
0.0000000001
 43
0.0000000001
 12
1.0
 22
0.0
 32
0.0
 13
1.0
 23
0.0
 33
0.0
 40
0.0
 40
0.0
 40
0.0
 40
0.0
 40
1.0
 40
1.0
 40
1.0
 40
2.0
 40
2.0
 40
2.0
 40
3.0
 40
3.0
 40
3.0
 40
4.0
 40
4.0
 40
4.0
 40
5.0
 40
5.0
 40
5.0
 40
6.0
 40
6.0
 40
6.0
 40
7.0
 40
7.0
 40
7.0
 40
8.0
 40
8.0
 40
8.0
 40
9.0
 40
9.0
 40
9.0
 40
10.0
 40
10.0
 40
10.0
 40
11.0
 40
11.0
 40
11.0
 40
12.0
 40
12.0
 40
12.0
 40
13.0
 40
13.0
 40
13.0
 40
14.0
 40
14.0
 40
14.0
 40
15.0
 40
15.0
 40
15.0
 40
15.0
 10
382.7677455658256
 20
260.9160734643515
 30
0.0
 10
382.7677455658256
 20
260.9160734643515
 30
0.0
 10
382.7677455658256
 20
255.4160646495359
 30
0.0
 10
382.7677455658256
 20
255.4160646495359
 30
0.0
 10
382.7677455658256
 20
255.4160646495359
 30
0.0
 10
398.7677164005901
 20
255.4160646495359
 30
0.0
 10
398.7677164005901
 20
255.4160646495359
 30
0.0
 10
398.7677164005901
 20
255.4160646495359
 30
0.0
 10
398.7677164005901
 20
260.9160734643515
 30
0.0
 10
398.7677164005901
 20
260.9160734643515
 30
0.0
 10
398.7677164005901
 20
260.9160734643515
 30
0.0
 10
448.7349506817162
 20
260.9160734643515
 30
0.0
 10
448.7349506817162
 20
260.9160734643515
 30
0.0
 10
448.7349506817162
 20
260.9160734643515
 30
0.0
 10
448.7349506817162
 20
255.4160646495359
 30
0.0
 10
448.7349506817162
 20
255.4160646495359
 30
0.0
 10
448.7349506817162
 20
255.4160646495359
 30
0.0
 10
464.735007643862
 20
255.4160646495359
 30
0.0
 10
464.735007643862
 20
255.4160646495359
 30
0.0
 10
464.735007643862
 20
255.4160646495359
 30
0.0
 10
464.735007643862
 20
260.9160734643515
 30
0.0
 10
464.735007643862
 20
260.9160734643515
 30
0.0
 10
464.735007643862
 20
260.9160734643515
 30
0.0
 10
489.7658656562637
 20
260.9160734643515
 30
0.0
 10
489.7658656562637
 20
260.9160734643515
 30
0.0
 10
489.7658656562637
 20
260.9160734643515
 30
0.0
 10
489.7658656562637
 20
271.9160910939799
 30
0.0
 10
489.7658656562637
 20
271.9160910939799
 30
0.0
 10
489.7658656562637
 20
271.9160910939799
 30
0.0
 10
467.7658303970105
 20
271.9160910939799
 30
0.0
 10
467.7658303970105
 20
271.9160910939799
 30
0.0
 10
467.7658303970105
 20
271.9160910939799
 30
0.0
 10
351.7369092563084
 20
271.9160910939799
 30
0.0
 10
351.7369092563084
 20
271.9160910939799
 30
0.0
 10
345.6794839919824
 20
271.9155743296571
 30
0.0
 10
340.7676391038874
 20
267.0199213903429
 30
0.0
 10
340.7382696648744
 20
260.9702475908557
 30
0.0
 10
340.7382696648744
 20
260.9605151961112
 30
0.0
 10
340.7368916266803
 20
260.9511273109126
 30
0.0
 10
340.7368916266803
 20
260.9413087887796
 30
0.0
 10
340.7368916266803
 20
260.9413087887796
 30
0.0
 10
340.7368916266803
 20
260.9169347382228
 30
0.0
 10
340.7368916266803
 20
260.9169347382228
 30
0.0
 10
340.7368916266803
 20
260.9160734643515
 30
0.0
 10
382.7677455658256
 20
260.9160734643515
 30
0.0
 10
382.7677455658256
 20
260.9160734643515
 30
0.0
  0
ENDBLK
  5
8A
330
87
100
AcDbEntity
  8
0
100
AcDbBlockEnd
  0
BLOCK
  5
8E
330
8C
100
AcDbEntity
  8
0
100
AcDbBlockBegin
  2
block 17
 70
     0
 10
0.0
 20
0.0
 30
0.0
  3
block 17
  1

  0
SPLINE
  5
90
330
8C
100
AcDbEntity
  8
Layer 1
 62
    22
420
 14951456
370
    35
100
AcDbSpline
210
0.0
220
0.0
230
1.0
 70
    11
 71
     3
 72
    50
 73
    46
 74
     0
 42
0.0000000001
 43
0.0000000001
 12
1.0
 22
0.0
 32
0.0
 13
1.0
 23
0.0
 33
0.0
 40
0.0
 40
0.0
 40
0.0
 40
0.0
 40
1.0
 40
1.0
 40
1.0
 40
2.0
 40
2.0
 40
2.0
 40
3.0
 40
3.0
 40
3.0
 40
4.0
 40
4.0
 40
4.0
 40
5.0
 40
5.0
 40
5.0
 40
6.0
 40
6.0
 40
6.0
 40
7.0
 40
7.0
 40
7.0
 40
8.0
 40
8.0
 40
8.0
 40
9.0
 40
9.0
 40
9.0
 40
10.0
 40
10.0
 40
10.0
 40
11.0
 40
11.0
 40
11.0
 40
12.0
 40
12.0
 40
12.0
 40
13.0
 40
13.0
 40
13.0
 40
14.0
 40
14.0
 40
14.0
 40
15.0
 40
15.0
 40
15.0
 40
15.0
 10
580.8199095968458
 20
238.4344309108408
 30
0.0
 10
580.8199095968458
 20
238.4344309108408
 30
0.0
 10
580.8198985968287
 20
243.9344397256435
 30
0.0
 10
580.8198985968287
 20
243.9344397256435
 30
0.0
 10
580.8198985968287
 20
243.9344397256435
 30
0.0
 10
564.8199277620963
 20
243.9344077257
 30
0.0
 10
564.8199277620963
 20
243.9344077257
 30
0.0
 10
564.8199277620963
 20
243.9344077257
 30
0.0
 10
564.8199387621166
 20
238.4343989108986
 30
0.0
 10
564.8199387621166
 20
238.4343989108986
 30
0.0
 10
564.8199387621166
 20
238.4343989108986
 30
0.0
 10
514.8527044810862
 20
238.4342989764326
 30
0.0
 10
514.8527044810862
 20
238.4342989764326
 30
0.0
 10
514.8527044810862
 20
238.4342989764326
 30
0.0
 10
514.852693481073
 20
243.9343077912349
 30
0.0
 10
514.852693481073
 20
243.9343077912349
 30
0.0
 10
514.852693481073
 20
243.9343077912349
 30
0.0
 10
498.8526365189553
 20
243.9342757911223
 30
0.0
 10
498.8526365189553
 20
243.9342757911223
 30
0.0
 10
498.8526365189553
 20
243.9342757911223
 30
0.0
 10
498.8526475189686
 20
238.4342669763209
 30
0.0
 10
498.8526475189686
 20
238.4342669763209
 30
0.0
 10
498.8526475189686
 20
238.4342669763209
 30
0.0
 10
473.8217895066157
 20
238.4342169146029
 30
0.0
 10
473.8217895066157
 20
238.4342169146029
 30
0.0
 10
473.8217895066157
 20
238.4342169146029
 30
0.0
 10
473.8218115066455
 20
227.4341992849962
 30
0.0
 10
473.8218115066455
 20
227.4341992849962
 30
0.0
 10
473.8218115066455
 20
227.4341992849962
 30
0.0
 10
495.8218467658607
 20
227.434243285066
 30
0.0
 10
495.8218467658607
 20
227.434243285066
 30
0.0
 10
495.8218467658607
 20
227.434243285066
 30
0.0
 10
611.8507679063287
 20
227.4344753429065
 30
0.0
 10
611.8507679063287
 20
227.4344753429065
 30
0.0
 10
617.9081931696103
 20
227.4350042220756
 30
0.0
 10
622.8200282663937
 20
232.3306669850697
 30
0.0
 10
622.8493856060603
 20
238.3803408432851
 30
0.0
 10
622.8493855865944
 20
238.3900732380284
 30
0.0
 10
622.8507636060137
 20
238.3994611259824
 30
0.0
 10
622.8507635863706
 20
238.4092796481154
 30
0.0
 10
622.8507635863706
 20
238.4092796481154
 30
0.0
 10
622.8507635376278
 20
238.4336536986761
 30
0.0
 10
622.8507635376278
 20
238.4336536986761
 30
0.0
 10
622.8507635359023
 20
238.4345149725474
 30
0.0
 10
580.8199095968458
 20
238.4344309108408
 30
0.0
 10
580.8199095968458
 20
238.4344309108408
 30
0.0
  0
ENDBLK
  5
8F
330
8C
100
AcDbEntity
  8
0
100
AcDbBlockEnd
  0
BLOCK
  5
93
330
91
100
AcDbEntity
  8
0
100
AcDbBlockBegin
  2
block 18
 70
     0
 10
0.0
 20
0.0
 30
0.0
  3
block 18
  1

  0
SPLINE
  5
95
330
91
100
AcDbEntity
  8
Layer 1
 62
    22
420
 14951456
370
    35
100
AcDbSpline
210
0.0
220
0.0
230
1.0
 70
    11
 71
     3
 72
    50
 73
    46
 74
     0
 42
0.0000000001
 43
0.0000000001
 12
1.0
 22
0.0
 32
0.0
 13
1.0
 23
0.0
 33
0.0
 40
0.0
 40
0.0
 40
0.0
 40
0.0
 40
1.0
 40
1.0
 40
1.0
 40
2.0
 40
2.0
 40
2.0
 40
3.0
 40
3.0
 40
3.0
 40
4.0
 40
4.0
 40
4.0
 40
5.0
 40
5.0
 40
5.0
 40
6.0
 40
6.0
 40
6.0
 40
7.0
 40
7.0
 40
7.0
 40
8.0
 40
8.0
 40
8.0
 40
9.0
 40
9.0
 40
9.0
 40
10.0
 40
10.0
 40
10.0
 40
11.0
 40
11.0
 40
11.0
 40
12.0
 40
12.0
 40
12.0
 40
13.0
 40
13.0
 40
13.0
 40
14.0
 40
14.0
 40
14.0
 40
15.0
 40
15.0
 40
15.0
 40
15.0
 10
116.5979498059567
 20
260.9162074402871
 30
0.0
 10
116.5979498059567
 20
260.9162074402871
 30
0.0
 10
116.5979498059567
 20
255.4161986254715
 30
0.0
 10
116.5979498059567
 20
255.4161986254715
 30
0.0
 10
116.5979498059567
 20
255.4161986254715
 30
0.0
 10
132.5979206407141
 20
255.4161986254715
 30
0.0
 10
132.5979206407141
 20
255.4161986254715
 30
0.0
 10
132.5979206407141
 20
255.4161986254715
 30
0.0
 10
132.5979206407141
 20
260.9162074402871
 30
0.0
 10
132.5979206407141
 20
260.9162074402871
 30
0.0
 10
132.5979206407141
 20
260.9162074402871
 30
0.0
 10
182.5651549218433
 20
260.9162074402871
 30
0.0
 10
182.5651549218433
 20
260.9162074402871
 30
0.0
 10
182.5651549218433
 20
260.9162074402871
 30
0.0
 10
182.5651549218433
 20
255.4161986254715
 30
0.0
 10
182.5651549218433
 20
255.4161986254715
 30
0.0
 10
182.5651549218433
 20
255.4161986254715
 30
0.0
 10
198.565211883993
 20
255.4161986254715
 30
0.0
 10
198.565211883993
 20
255.4161986254715
 30
0.0
 10
198.565211883993
 20
255.4161986254715
 30
0.0
 10
198.565211883993
 20
260.9162074402871
 30
0.0
 10
198.565211883993
 20
260.9162074402871
 30
0.0
 10
198.565211883993
 20
260.9162074402871
 30
0.0
 10
223.5960698963947
 20
260.9162074402871
 30
0.0
 10
223.5960698963947
 20
260.9162074402871
 30
0.0
 10
223.5960698963947
 20
260.9162074402871
 30
0.0
 10
223.5960698963947
 20
271.9162250699155
 30
0.0
 10
223.5960698963947
 20
271.9162250699155
 30
0.0
 10
223.5960698963947
 20
271.9162250699155
 30
0.0
 10
201.5960346371416
 20
271.9162250699155
 30
0.0
 10
201.5960346371416
 20
271.9162250699155
 30
0.0
 10
201.5960346371416
 20
271.9162250699155
 30
0.0
 10
85.56711349644007
 20
271.9162250699152
 30
0.0
 10
85.56711349644007
 20
271.9162250699152
 30
0.0
 10
79.50968823211113
 20
271.9157083055924
 30
0.0
 10
74.59784334401618
 20
267.0200553662781
 30
0.0
 10
74.56847390500667
 20
260.9703815667913
 30
0.0
 10
74.56847390500667
 20
260.9606491720464
 30
0.0
 10
74.56709586681256
 20
260.9512612868481
 30
0.0
 10
74.56709586681256
 20
260.9414427647152
 30
0.0
 10
74.56709586681256
 20
260.9414427647152
 30
0.0
 10
74.56709586681256
 20
260.917068714158
 30
0.0
 10
74.56709586681256
 20
260.917068714158
 30
0.0
 10
74.56709586681256
 20
260.9162074402867
 30
0.0
 10
116.5979498059567
 20
260.9162074402871
 30
0.0
 10
116.5979498059567
 20
260.9162074402871
 30
0.0
  0
ENDBLK
  5
94
330
91
100
AcDbEntity
  8
0
100
AcDbBlockEnd
  0
BLOCK
  5
98
330
96
100
AcDbEntity
  8
0
100
AcDbBlockBegin
  2
block 19
 70
     0
 10
0.0
 20
0.0
 30
0.0
  3
block 19
  1

  0
SPLINE
  5
9A
330
96
100
AcDbEntity
  8
Layer 1
 62
    22
420
 14951456
370
    35
100
AcDbSpline
210
0.0
220
0.0
230
1.0
 70
    11
 71
     3
 72
    50
 73
    46
 74
     0
 42
0.0000000001
 43
0.0000000001
 12
1.0
 22
0.0
 32
0.0
 13
1.0
 23
0.0
 33
0.0
 40
0.0
 40
0.0
 40
0.0
 40
0.0
 40
1.0
 40
1.0
 40
1.0
 40
2.0
 40
2.0
 40
2.0
 40
3.0
 40
3.0
 40
3.0
 40
4.0
 40
4.0
 40
4.0
 40
5.0
 40
5.0
 40
5.0
 40
6.0
 40
6.0
 40
6.0
 40
7.0
 40
7.0
 40
7.0
 40
8.0
 40
8.0
 40
8.0
 40
9.0
 40
9.0
 40
9.0
 40
10.0
 40
10.0
 40
10.0
 40
11.0
 40
11.0
 40
11.0
 40
12.0
 40
12.0
 40
12.0
 40
13.0
 40
13.0
 40
13.0
 40
14.0
 40
14.0
 40
14.0
 40
15.0
 40
15.0
 40
15.0
 40
15.0
 10
295.4756453513277
 20
238.4345457473585
 30
0.0
 10
295.4756453513277
 20
238.4345457473585
 30
0.0
 10
295.4756343513112
 20
243.9345545621596
 30
0.0
 10
295.4756343513112
 20
243.9345545621596
 30
0.0
 10
295.4756343513112
 20
243.9345545621596
 30
0.0
 10
279.4756635165833
 20
243.9345225622177
 30
0.0
 10
279.4756635165833
 20
243.9345225622177
 30
0.0
 10
279.4756635165833
 20
243.9345225622177
 30
0.0
 10
279.4756745165998
 20
238.434513747415
 30
0.0
 10
279.4756745165998
 20
238.434513747415
 30
0.0
 10
279.4756745165998
 20
238.434513747415
 30
0.0
 10
229.5084402355719
 20
238.4344138129503
 30
0.0
 10
229.5084402355719
 20
238.4344138129503
 30
0.0
 10
229.5084402355719
 20
238.4344138129503
 30
0.0
 10
229.5084292355554
 20
243.9344226277516
 30
0.0
 10
229.5084292355554
 20
243.9344226277516
 30
0.0
 10
229.5084292355554
 20
243.9344226277516
 30
0.0
 10
213.5083722734378
 20
243.9343906276387
 30
0.0
 10
213.5083722734378
 20
243.9343906276387
 30
0.0
 10
213.5083722734378
 20
243.9343906276387
 30
0.0
 10
213.5083832734543
 20
238.4343818128373
 30
0.0
 10
213.5083832734543
 20
238.4343818128373
 30
0.0
 10
213.5083832734543
 20
238.4343818128373
 30
0.0
 10
188.4775252611021
 20
238.4343317511205
 30
0.0
 10
188.4775252611021
 20
238.4343317511205
 30
0.0
 10
188.4775252611021
 20
238.4343317511205
 30
0.0
 10
188.4775472611357
 20
227.4343141215123
 30
0.0
 10
188.4775472611357
 20
227.4343141215123
 30
0.0
 10
188.4775472611357
 20
227.4343141215123
 30
0.0
 10
210.4775825203503
 20
227.4343581215837
 30
0.0
 10
210.4775825203503
 20
227.4343581215837
 30
0.0
 10
210.4775825203503
 20
227.4343581215837
 30
0.0
 10
326.5065036608182
 20
227.4345901794229
 30
0.0
 10
326.5065036608182
 20
227.4345901794229
 30
0.0
 10
332.563928924096
 20
227.4351190585936
 30
0.0
 10
337.4757640208762
 20
232.3307818215874
 30
0.0
 10
337.5051213605396
 20
238.3804556798015
 30
0.0
 10
337.5051213410769
 20
238.3901880745461
 30
0.0
 10
337.5064993604962
 20
238.3995759625001
 30
0.0
 10
337.5064993408602
 20
238.4093944846331
 30
0.0
 10
337.5064993408602
 20
238.4093944846331
 30
0.0
 10
337.5064992921103
 20
238.4337685351925
 30
0.0
 10
337.5064992921103
 20
238.4337685351925
 30
0.0
 10
337.506499290388
 20
238.4346298090638
 30
0.0
 10
295.4756453513277
 20
238.4345457473585
 30
0.0
 10
295.4756453513277
 20
238.4345457473585
 30
0.0
  0
ENDBLK
  5
99
330
96
100
AcDbEntity
  8
0
100
AcDbBlockEnd
  0
BLOCK
  5
9D
330
9B
100
AcDbEntity
  8
0
100
AcDbBlockBegin
  2
block 20
 70
     0
 10
0.0
 20
0.0
 30
0.0
  3
block 20
  1

  0
SPLINE
  5
9F
330
9B
100
AcDbEntity
  8
Layer 1
 62
    22
420
 14951456
370
    35
100
AcDbSpline
210
0.0
220
0.0
230
1.0
 70
    11
 71
     3
 72
    50
 73
    46
 74
     0
 42
0.0000000001
 43
0.0000000001
 12
1.0
 22
0.0
 32
0.0
 13
1.0
 23
0.0
 33
0.0
 40
0.0
 40
0.0
 40
0.0
 40
0.0
 40
1.0
 40
1.0
 40
1.0
 40
2.0
 40
2.0
 40
2.0
 40
3.0
 40
3.0
 40
3.0
 40
4.0
 40
4.0
 40
4.0
 40
5.0
 40
5.0
 40
5.0
 40
6.0
 40
6.0
 40
6.0
 40
7.0
 40
7.0
 40
7.0
 40
8.0
 40
8.0
 40
8.0
 40
9.0
 40
9.0
 40
9.0
 40
10.0
 40
10.0
 40
10.0
 40
11.0
 40
11.0
 40
11.0
 40
12.0
 40
12.0
 40
12.0
 40
13.0
 40
13.0
 40
13.0
 40
14.0
 40
14.0
 40
14.0
 40
15.0
 40
15.0
 40
15.0
 40
15.0
 10
249.6828506264343
 20
288.8980326450527
 30
0.0
 10
249.6828506264343
 20
288.8980326450527
 30
0.0
 10
249.6828489369466
 20
283.3980238302391
 30
0.0
 10
249.6828489369466
 20
283.3980238302391
 30
0.0
 10
249.6828489369466
 20
283.3980238302391
 30
0.0
 10
265.6828197717057
 20
283.3980189153766
 30
0.0
 10
265.6828197717057
 20
283.3980189153766
 30
0.0
 10
265.6828197717057
 20
283.3980189153766
 30
0.0
 10
265.6828214611972
 20
288.8980277301889
 30
0.0
 10
265.6828214611972
 20
288.8980277301889
 30
0.0
 10
265.6828214611972
 20
288.8980277301889
 30
0.0
 10
315.6500557423188
 20
288.8980123812719
 30
0.0
 10
315.6500557423188
 20
288.8980123812719
 30
0.0
 10
315.6500557423188
 20
288.8980123812719
 30
0.0
 10
315.6500540528272
 20
283.3980035664599
 30
0.0
 10
315.6500540528272
 20
283.3980035664599
 30
0.0
 10
315.6500540528272
 20
283.3980035664599
 30
0.0
 10
331.6501110149762
 20
283.3979986515666
 30
0.0
 10
331.6501110149762
 20
283.3979986515666
 30
0.0
 10
331.6501110149762
 20
283.3979986515666
 30
0.0
 10
331.6501127044678
 20
288.8980074663799
 30
0.0
 10
331.6501127044678
 20
288.8980074663799
 30
0.0
 10
331.6501127044678
 20
288.8980074663799
 30
0.0
 10
356.6809707168688
 20
288.8979997774121
 30
0.0
 10
356.6809707168688
 20
288.8979997774121
 30
0.0
 10
356.6809707168688
 20
288.8979997774121
 30
0.0
 10
356.6809740958525
 20
299.8980174070415
 30
0.0
 10
356.6809740958525
 20
299.8980174070415
 30
0.0
 10
356.6809740958525
 20
299.8980174070415
 30
0.0
 10
334.6809388365937
 20
299.8980241650028
 30
0.0
 10
334.6809388365937
 20
299.8980241650028
 30
0.0
 10
334.6809388365937
 20
299.8980241650028
 30
0.0
 10
218.6520176959031
 20
299.8980598067219
 30
0.0
 10
218.6520176959031
 20
299.8980598067219
 30
0.0
 10
212.5945924314176
 20
299.897544903119
 30
0.0
 10
207.6827460394772
 20
295.001893472624
 30
0.0
 10
207.6533747421261
 20
288.9522196821585
 30
0.0
 10
207.6533747391384
 20
288.942487287414
 30
0.0
 10
207.6519966980595
 20
288.9330994026392
 30
0.0
 10
207.6519966950487
 20
288.9232808805063
 30
0.0
 10
207.6519966950487
 20
288.9232808805063
 30
0.0
 10
207.6519966875569
 20
288.8989068299465
 30
0.0
 10
207.6519966875569
 20
288.8989068299465
 30
0.0
 10
207.6519966872922
 20
288.8980455560752
 30
0.0
 10
249.6828506264343
 20
288.8980326450527
 30
0.0
 10
249.6828506264343
 20
288.8980326450527
 30
0.0
  0
ENDBLK
  5
9E
330
9B
100
AcDbEntity
  8
0
100
AcDbBlockEnd
  0
BLOCK
  5
A2
330
A0
100
AcDbEntity
  8
0
100
AcDbBlockBegin
  2
block 21
 70
     0
 10
0.0
 20
0.0
 30
0.0
  3
block 21
  1

  0
SPLINE
  5
A4
330
A0
100
AcDbEntity
  8
Layer 1
 62
    22
420
 14951456
370
    35
100
AcDbSpline
210
0.0
220
0.0
230
1.0
 70
    11
 71
     3
 72
    50
 73
    46
 74
     0
 42
0.0000000001
 43
0.0000000001
 12
1.0
 22
0.0
 32
0.0
 13
1.0
 23
0.0
 33
0.0
 40
0.0
 40
0.0
 40
0.0
 40
0.0
 40
1.0
 40
1.0
 40
1.0
 40
2.0
 40
2.0
 40
2.0
 40
3.0
 40
3.0
 40
3.0
 40
4.0
 40
4.0
 40
4.0
 40
5.0
 40
5.0
 40
5.0
 40
6.0
 40
6.0
 40
6.0
 40
7.0
 40
7.0
 40
7.0
 40
8.0
 40
8.0
 40
8.0
 40
9.0
 40
9.0
 40
9.0
 40
10.0
 40
10.0
 40
10.0
 40
11.0
 40
11.0
 40
11.0
 40
12.0
 40
12.0
 40
12.0
 40
13.0
 40
13.0
 40
13.0
 40
14.0
 40
14.0
 40
14.0
 40
15.0
 40
15.0
 40
15.0
 40
15.0
 10
116.5979498059544
 20
316.8797529196961
 30
0.0
 10
116.5979498059544
 20
316.8797529196961
 30
0.0
 10
116.5979481164667
 20
311.3797441048825
 30
0.0
 10
116.5979481164667
 20
311.3797441048825
 30
0.0
 10
116.5979481164667
 20
311.3797441048825
 30
0.0
 10
132.5979189512258
 20
311.37973919002
 30
0.0
 10
132.5979189512258
 20
311.37973919002
 30
0.0
 10
132.5979189512258
 20
311.37973919002
 30
0.0
 10
132.5979206407173
 20
316.8797480048323
 30
0.0
 10
132.5979206407173
 20
316.8797480048323
 30
0.0
 10
132.5979206407173
 20
316.8797480048323
 30
0.0
 10
182.5651549218389
 20
316.8797326559153
 30
0.0
 10
182.5651549218389
 20
316.8797326559153
 30
0.0
 10
182.5651549218389
 20
316.8797326559153
 30
0.0
 10
182.5651532323473
 20
311.3797238411033
 30
0.0
 10
182.5651532323473
 20
311.3797238411033
 30
0.0
 10
182.5651532323473
 20
311.3797238411033
 30
0.0
 10
198.5652101944963
 20
311.3797189262097
 30
0.0
 10
198.5652101944963
 20
311.3797189262097
 30
0.0
 10
198.5652101944963
 20
311.3797189262097
 30
0.0
 10
198.5652118839879
 20
316.8797277410233
 30
0.0
 10
198.5652118839879
 20
316.8797277410233
 30
0.0
 10
198.5652118839879
 20
316.8797277410233
 30
0.0
 10
223.5960698963889
 20
316.8797200520555
 30
0.0
 10
223.5960698963889
 20
316.8797200520555
 30
0.0
 10
223.5960698963889
 20
316.8797200520555
 30
0.0
 10
223.5960732753713
 20
327.8797376816849
 30
0.0
 10
223.5960732753713
 20
327.8797376816849
 30
0.0
 10
223.5960732753713
 20
327.8797376816849
 30
0.0
 10
201.5960380161141
 20
327.8797444396462
 30
0.0
 10
201.5960380161141
 20
327.8797444396462
 30
0.0
 10
201.5960380161141
 20
327.8797444396462
 30
0.0
 10
85.56711687542315
 20
327.8797800813653
 30
0.0
 10
85.56711687542315
 20
327.8797800813653
 30
0.0
 10
79.50969161093764
 20
327.8792651777625
 30
0.0
 10
74.59784521899725
 20
322.9836137472674
 30
0.0
 10
74.56847392164624
 20
316.933939956802
 30
0.0
 10
74.56847391865882
 20
316.9242075620574
 30
0.0
 10
74.56709587757963
 20
316.9148196772827
 30
0.0
 10
74.5670958745691
 20
316.9050011551497
 30
0.0
 10
74.5670958745691
 20
316.9050011551497
 30
0.0
 10
74.56709586707696
 20
316.8806271045902
 30
0.0
 10
74.56709586707696
 20
316.8806271045902
 30
0.0
 10
74.56709586681256
 20
316.879765830719
 30
0.0
 10
116.5979498059544
 20
316.8797529196961
 30
0.0
 10
116.5979498059544
 20
316.8797529196961
 30
0.0
  0
ENDBLK
  5
A3
330
A0
100
AcDbEntity
  8
0
100
AcDbBlockEnd
  0
BLOCK
  5
A7
330
A5
100
AcDbEntity
  8
0
100
AcDbBlockBegin
  2
block 22
 70
     0
 10
0.0
 20
0.0
 30
0.0
  3
block 22
  1

  0
POLYLINE
  5
A9
330
A5
100
AcDbEntity
  8
Layer 1
 62
   250
420
  1842203
370
   106
100
AcDb2dPolyline
 66
     1
 10
0.0
 20
0.0
 30
0.0
  0
VERTEX
  5
AA
330
A9
100
AcDbEntity
  8
Layer 1
 62
   250
420
  1842203
370
   106
100
AcDbVertex
100
AcDb2dVertex
 10
649.980555348962
 20
50.17638892044253
 30
0.0
  0
VERTEX
  5
AB
330
A9
100
AcDbEntity
  8
Layer 1
 62
   250
420
  1842203
370
   106
100
AcDbVertex
100
AcDb2dVertex
 10
49.98055549896296
 20
50.17638892044253
 30
0.0
  0
VERTEX
  5
AC
330
A9
100
AcDbEntity
  8
Layer 1
 62
   250
420
  1842203
370
   106
100
AcDbVertex
100
AcDb2dVertex
 10
49.98055549896296
 20
350.1763888454424
 30
0.0
  0
VERTEX
  5
AD
330
A9
100
AcDbEntity
  8
Layer 1
 62
   250
420
  1842203
370
   106
100
AcDbVertex
100
AcDb2dVertex
 10
649.980555348962
 20
350.1763888454424
 30
0.0
  0
VERTEX
  5
AE
330
A9
100
AcDbEntity
  8
Layer 1
 62
   250
420
  1842203
370
   106
100
AcDbVertex
100
AcDb2dVertex
 10
649.980555348962
 20
50.17638892044253
 30
0.0
  0
SEQEND
  5
AF
330
A9
100
AcDbEntity
  8
Layer 1
 62
   250
420
  1842203
370
   106
  0
ENDBLK
  5
A8
330
A5
100
AcDbEntity
  8
0
100
AcDbBlockEnd
  0
BLOCK
  5
B2
330
B0
100
AcDbEntity
  8
0
100
AcDbBlockBegin
  2
block 23
 70
     0
 10
0.0
 20
0.0
 30
0.0
  3
block 23
  1

  0
POLYLINE
  5
B4
330
B0
100
AcDbEntity
  8
Layer 1
 62
   250
420
  1842203
370
    35
100
AcDb2dPolyline
 66
     1
 10
0.0
 20
0.0
 30
0.0
  0
VERTEX
  5
B5
330
B4
100
AcDbEntity
  8
Layer 1
 62
   250
420
  1842203
370
    35
100
AcDbVertex
100
AcDb2dVertex
 10
699.9555553805603
 20
0.2013888888378141
 30
0.0
  0
VERTEX
  5
B6
330
B4
100
AcDbEntity
  8
Layer 1
 62
   250
420
  1842203
370
    35
100
AcDbVertex
100
AcDb2dVertex
 10
-0.0444444444269062
 20
0.2013888888378141
 30
0.0
  0
VERTEX
  5
B7
330
B4
100
AcDbEntity
  8
Layer 1
 62
   250
420
  1842203
370
    35
100
AcDbVertex
100
AcDb2dVertex
 10
-0.0444444444269062
 20
400.2013887888393
 30
0.0
  0
VERTEX
  5
B8
330
B4
100
AcDbEntity
  8
Layer 1
 62
   250
420
  1842203
370
    35
100
AcDbVertex
100
AcDb2dVertex
 10
699.9555553805603
 20
400.2013887888393
 30
0.0
  0
VERTEX
  5
B9
330
B4
100
AcDbEntity
  8
Layer 1
 62
   250
420
  1842203
370
    35
100
AcDbVertex
100
AcDb2dVertex
 10
699.9555553805603
 20
0.2013888888378141
 30
0.0
  0
SEQEND
  5
BA
330
B4
100
AcDbEntity
  8
Layer 1
 62
   250
420
  1842203
370
    35
  0
ENDBLK
  5
B3
330
B0
100
AcDbEntity
  8
0
100
AcDbBlockEnd
  0
ENDSEC
  0
SECTION
  2
ENTITIES
  0
INSERT
  5
42
330
1F
100
AcDbEntity
  8
Layer 1
100
AcDbBlockReference
  2
block 2
 10
0.0
 20
0.0
 30
0.0
  0
INSERT
  5
47
330
1F
100
AcDbEntity
  8
Layer 1
100
AcDbBlockReference
  2
block 3
 10
0.0
 20
0.0
 30
0.0
  0
INSERT
  5
4C
330
1F
100
AcDbEntity
  8
Layer 1
100
AcDbBlockReference
  2
block 4
 10
0.0
 20
0.0
 30
0.0
  0
INSERT
  5
51
330
1F
100
AcDbEntity
  8
Layer 1
100
AcDbBlockReference
  2
block 5
 10
0.0
 20
0.0
 30
0.0
  0
INSERT
  5
56
330
1F
100
AcDbEntity
  8
Layer 1
100
AcDbBlockReference
  2
block 6
 10
0.0
 20
0.0
 30
0.0
  0
INSERT
  5
5B
330
1F
100
AcDbEntity
  8
Layer 1
100
AcDbBlockReference
  2
block 7
 10
0.0
 20
0.0
 30
0.0
  0
INSERT
  5
60
330
1F
100
AcDbEntity
  8
Layer 1
100
AcDbBlockReference
  2
block 8
 10
0.0
 20
0.0
 30
0.0
  0
INSERT
  5
65
330
1F
100
AcDbEntity
  8
Layer 1
100
AcDbBlockReference
  2
block 9
 10
0.0
 20
0.0
 30
0.0
  0
INSERT
  5
6A
330
1F
100
AcDbEntity
  8
Layer 1
100
AcDbBlockReference
  2
block 10
 10
0.0
 20
0.0
 30
0.0
  0
INSERT
  5
6F
330
1F
100
AcDbEntity
  8
Layer 1
100
AcDbBlockReference
  2
block 11
 10
0.0
 20
0.0
 30
0.0
  0
INSERT
  5
74
330
1F
100
AcDbEntity
  8
Layer 1
100
AcDbBlockReference
  2
block 12
 10
0.0
 20
0.0
 30
0.0
  0
INSERT
  5
79
330
1F
100
AcDbEntity
  8
Layer 1
100
AcDbBlockReference
  2
block 13
 10
0.0
 20
0.0
 30
0.0
  0
INSERT
  5
7E
330
1F
100
AcDbEntity
  8
Layer 1
100
AcDbBlockReference
  2
block 14
 10
0.0
 20
0.0
 30
0.0
  0
INSERT
  5
83
330
1F
100
AcDbEntity
  8
Layer 1
100
AcDbBlockReference
  2
block 15
 10
0.0
 20
0.0
 30
0.0
  0
INSERT
  5
88
330
1F
100
AcDbEntity
  8
Layer 1
100
AcDbBlockReference
  2
block 16
 10
0.0
 20
0.0
 30
0.0
  0
INSERT
  5
8D
330
1F
100
AcDbEntity
  8
Layer 1
100
AcDbBlockReference
  2
block 17
 10
0.0
 20
0.0
 30
0.0
  0
INSERT
  5
92
330
1F
100
AcDbEntity
  8
Layer 1
100
AcDbBlockReference
  2
block 18
 10
0.0
 20
0.0
 30
0.0
  0
INSERT
  5
97
330
1F
100
AcDbEntity
  8
Layer 1
100
AcDbBlockReference
  2
block 19
 10
0.0
 20
0.0
 30
0.0
  0
INSERT
  5
9C
330
1F
100
AcDbEntity
  8
Layer 1
100
AcDbBlockReference
  2
block 20
 10
0.0
 20
0.0
 30
0.0
  0
INSERT
  5
A1
330
1F
100
AcDbEntity
  8
Layer 1
100
AcDbBlockReference
  2
block 21
 10
0.0
 20
0.0
 30
0.0
  0
INSERT
  5
A6
330
1F
100
AcDbEntity
  8
Layer 1
100
AcDbBlockReference
  2
block 22
 10
0.0
 20
0.0
 30
0.0
  0
INSERT
  5
B1
330
1F
100
AcDbEntity
  8
Layer 1
100
AcDbBlockReference
  2
block 23
 10
0.0
 20
0.0
 30
0.0
  0
SPLINE
  5
BB
330
1F
100
AcDbEntity
  8
Layer 1
 62
     7
420
 16777215
370
    35
100
AcDbSpline
210
0.0
220
0.0
230
1.0
 70
    11
 71
     3
 72
    17
 73
    13
 74
     0
 42
0.0000000001
 43
0.0000000001
 12
1.0
 22
0.0
 32
0.0
 13
1.0
 23
0.0
 33
0.0
 40
0.0
 40
0.0
 40
0.0
 40
0.0
 40
1.0
 40
1.0
 40
1.0
 40
2.0
 40
2.0
 40
2.0
 40
3.0
 40
3.0
 40
3.0
 40
4.0
 40
4.0
 40
4.0
 40
4.0
 10
283.6664807611664
 20
207.7025611388818
 30
0.0
 10
283.6664807611664
 20
206.8741340143888
 30
0.0
 10
282.9949078860348
 20
206.2025611392568
 30
0.0
 10
282.1664807615415
 20
206.2025611392568
 30
0.0
 10
281.3380536370488
 20
206.2025611392568
 30
0.0
 10
280.6664807619165
 20
206.8741340143888
 30
0.0
 10
280.6664807619165
 20
207.7025611388818
 30
0.0
 10
280.6664807619165
 20
208.5309882633748
 30
0.0
 10
281.3380536370488
 20
209.2025611385068
 30
0.0
 10
282.1664807615415
 20
209.2025611385068
 30
0.0
 10
282.9949078860348
 20
209.2025611385068
 30
0.0
 10
283.6664807611664
 20
208.5309882633748
 30
0.0
 10
283.6664807611664
 20
207.7025611388818
 30
0.0
  0
SPLINE
  5
BC
330
1F
100
AcDbEntity
  8
Layer 1
 62
     7
420
 16777215
370
    35
100
AcDbSpline
210
0.0
220
0.0
230
1.0
 70
    11
 71
     3
 72
    17
 73
    13
 74
     0
 42
0.0000000001
 43
0.0000000001
 12
1.0
 22
0.0
 32
0.0
 13
1.0
 23
0.0
 33
0.0
 40
0.0
 40
0.0
 40
0.0
 40
0.0
 40
1.0
 40
1.0
 40
1.0
 40
2.0
 40
2.0
 40
2.0
 40
3.0
 40
3.0
 40
3.0
 40
4.0
 40
4.0
 40
4.0
 40
4.0
 10
407.1641443982767
 20
179.7208793301218
 30
0.0
 10
407.1641443982767
 20
178.8924522056291
 30
0.0
 10
406.4925715231456
 20
178.2208793304968
 30
0.0
 10
405.6641443986517
 20
178.2208793304968
 30
0.0
 10
404.8357172741591
 20
178.2208793304968
 30
0.0
 10
404.1641443990267
 20
178.8924522056291
 30
0.0
 10
404.1641443990267
 20
179.7208793301218
 30
0.0
 10
404.1641443990267
 20
180.549306454615
 30
0.0
 10
404.8357172741591
 20
181.2208793297467
 30
0.0
 10
405.6641443986517
 20
181.2208793297467
 30
0.0
 10
406.4925715231456
 20
181.2208793297467
 30
0.0
 10
407.1641443982767
 20
180.549306454615
 30
0.0
 10
407.1641443982767
 20
179.7208793301218
 30
0.0
  0
ENDSEC
  0
SECTION
  2
OBJECTS
  0
DICTIONARY
  5
C
330
0
100
AcDbDictionary
281
     1
  3
ACAD_GROUP
350
D
  3
ACAD_LAYOUT
350
1A
  3
ACAD_MATERIAL
350
3B
  3
ACAD_MLEADERSTYLE
350
BE
  3
ACAD_MLINESTYLE
350
17
  3
ACAD_PLOTSETTINGS
350
19
  3
ACAD_PLOTSTYLENAME
350
E
  3
ACAD_TABLESTYLE
350
BD
  3
ACAD_VISUALSTYLE
350
2A
  0
SUN
  5
3F
330
29
100
AcDbSun
 90
        1
290
     0
 63
     7
421
 16777215
 40
1.0
291
     1
 91
  2455826
 92
 54000000
292
     0
 70
     2
 71
   256
280
     1
  0
DICTIONARY
  5
D
102
{ACAD_REACTORS
330
C
102
}
330
C
100
AcDbDictionary
281
     1
  0
DICTIONARY
  5
1A
102
{ACAD_REACTORS
330
C
102
}
330
C
100
AcDbDictionary
281
     1
  3
Layout1
350
1E
  3
Layout2
350
26
  3
Model
350
22
  0
DICTIONARY
  5
3B
102
{ACAD_REACTORS
330
C
102
}
330
C
100
AcDbDictionary
281
     1
  3
ByBlock
350
3D
  3
ByLayer
350
3C
  3
Global
350
3E
  0
DICTIONARY
  5
BE
102
{ACAD_REACTORS
330
C
102
}
330
C
100
AcDbDictionary
281
     1
  0
DICTIONARY
  5
17
102
{ACAD_REACTORS
330
C
102
}
330
C
100
AcDbDictionary
281
     1
  3
Standard
350
18
  0
DICTIONARY
  5
19
102
{ACAD_REACTORS
330
C
102
}
330
C
100
AcDbDictionary
281
     1
  0
ACDBDICTIONARYWDFLT
  5
E
102
{ACAD_REACTORS
330
C
102
}
330
C
100
AcDbDictionary
281
     1
  3
Normal
350
F
100
AcDbDictionaryWithDefault
340
F
  0
DICTIONARY
  5
BD
102
{ACAD_REACTORS
330
C
102
}
330
C
100
AcDbDictionary
281
     1
  0
DICTIONARY
  5
2A
102
{ACAD_REACTORS
330
C
102
}
330
C
100
AcDbDictionary
281
     1
  3
2dWireframe
350
2F
  3
3D Hidden
350
31
  3
3dWireframe
350
30
  3
Basic
350
32
  3
Brighten
350
36
  3
ColorChange
350
3A
  3
Conceptual
350
34
  3
Dim
350
35
  3
Facepattern
350
39
  3
Flat
350
2B
  3
FlatWithEdges
350
2C
  3
Gouraud
350
2D
  3
GouraudWithEdges
350
2E
  3
Linepattern
350
38
  3
Realistic
350
33
  3
Thicken
350
37
  0
LAYOUT
  5
1E
102
{ACAD_REACTORS
330
1A
102
}
330
1A
100
AcDbPlotSettings
  1

  2
none_device
  4

  6

 40
0.0
 41
0.0
 42
0.0
 43
0.0
 44
0.0
 45
0.0
 46
0.0
 47
0.0
 48
0.0
 49
0.0
140
0.0
141
0.0
142
1.0
143
1.0
 70
   688
 72
     0
 73
     0
 74
     5
  7

 75
    16
 76
     0
 77
     2
 78
   300
147
1.0
148
0.0
149
0.0
100
AcDbLayout
  1
Layout1
 70
     1
 71
     1
 10
0.0
 20
0.0
 11
12.0
 21
9.0
 12
0.0
 22
0.0
 32
0.0
 14
1.000000000000000E+20
 24
1.000000000000000E+20
 34
1.000000000000000E+20
 15
-1.000000000000000E+20
 25
-1.000000000000000E+20
 35
-1.000000000000000E+20
146
0.0
 13
0.0
 23
0.0
 33
0.0
 16
1.0
 26
0.0
 36
0.0
 17
0.0
 27
1.0
 37
0.0
 76
     0
330
1B
  0
LAYOUT
  5
26
102
{ACAD_REACTORS
330
1A
102
}
330
1A
100
AcDbPlotSettings
  1

  2
none_device
  4

  6

 40
0.0
 41
0.0
 42
0.0
 43
0.0
 44
0.0
 45
0.0
 46
0.0
 47
0.0
 48
0.0
 49
0.0
140
0.0
141
0.0
142
1.0
143
1.0
 70
   688
 72
     0
 73
     0
 74
     5
  7

 75
    16
 76
     0
 77
     2
 78
   300
147
1.0
148
0.0
149
0.0
100
AcDbLayout
  1
Layout2
 70
     1
 71
     2
 10
0.0
 20
0.0
 11
0.0
 21
0.0
 12
0.0
 22
0.0
 32
0.0
 14
0.0
 24
0.0
 34
0.0
 15
0.0
 25
0.0
 35
0.0
146
0.0
 13
0.0
 23
0.0
 33
0.0
 16
1.0
 26
0.0
 36
0.0
 17
0.0
 27
1.0
 37
0.0
 76
     0
330
23
  0
LAYOUT
  5
22
102
{ACAD_REACTORS
330
1A
102
}
330
1A
100
AcDbPlotSettings
  1

  2
none_device
  4

  6

 40
0.0
 41
0.0
 42
0.0
 43
0.0
 44
0.0
 45
0.0
 46
0.0
 47
0.0
 48
0.0
 49
0.0
140
0.0
141
0.0
142
1.0
143
1.0
 70
  1712
 72
     0
 73
     0
 74
     0
  7

 75
     0
 76
     0
 77
     2
 78
   300
147
1.0
148
0.0
149
0.0
100
AcDbLayout
  1
Model
 70
     1
 71
     0
 10
0.0
 20
0.0
 11
12.0
 21
9.0
 12
0.0
 22
0.0
 32
0.0
 14
1.000000000000000E+20
 24
1.000000000000000E+20
 34
1.000000000000000E+20
 15
-1.000000000000000E+20
 25
-1.000000000000000E+20
 35
-1.000000000000000E+20
146
0.0
 13
0.0
 23
0.0
 33
0.0
 16
1.0
 26
0.0
 36
0.0
 17
0.0
 27
1.0
 37
0.0
 76
     0
330
1F
331
29
  0
MATERIAL
  5
3D
102
{ACAD_REACTORS
330
3B
102
}
330
3B
100
AcDbMaterial
  1
ByBlock
 72
     1
 94
      127
  0
MATERIAL
  5
3C
102
{ACAD_REACTORS
330
3B
102
}
330
3B
100
AcDbMaterial
  1
ByLayer
 72
     1
 94
      127
  0
MATERIAL
  5
3E
102
{ACAD_REACTORS
330
3B
102
}
330
3B
100
AcDbMaterial
  1
Global
 72
     1
 94
      127
  0
MLINESTYLE
  5
18
102
{ACAD_REACTORS
330
17
102
}
330
17
100
AcDbMlineStyle
  2
Standard
 70
     0
  3

 62
   256
 51
90.0
 52
90.0
 71
     2
 49
0.5
 62
   256
  6
BYLAYER
 49
-0.5
 62
   256
  6
BYLAYER
  0
ACDBPLACEHOLDER
  5
F
102
{ACAD_REACTORS
330
E
102
}
330
E
  0
VISUALSTYLE
  5
2F
102
{ACAD_REACTORS
330
2A
102
}
330
2A
100
AcDbVisualStyle
  2
2dWireframe
 70
     4
177
     2
291
     0
 71
     0
176
     1
 72
     2
176
     1
 73
     0
176
     1
 90
        0
176
     1
 40
-0.6
176
     1
 41
-30.0
176
     1
 62
     5
 63
     7
421
 16777215
176
     1
 74
     1
176
     1
 91
        4
176
     1
 64
     7
176
     1
 65
   257
176
     1
 75
     1
176
     1
175
     1
176
     1
 42
1.0
176
     1
 92
        0
176
     1
 66
   257
176
     1
 43
1.0
176
     1
 76
     1
176
     1
 77
     6
176
     1
 78
     2
176
     1
 67
     7
176
     1
 79
     5
176
     1
170
     0
176
     1
171
     0
176
     1
290
     0
176
     1
 93
        1
176
     1
 44
0.0
176
     1
173
     0
176
     1
  0
VISUALSTYLE
  5
31
102
{ACAD_REACTORS
330
2A
102
}
330
2A
100
AcDbVisualStyle
  2
3D Hidden
 70
     6
177
     2
291
     0
 71
     1
176
     1
 72
     2
176
     1
 73
     2
176
     1
 90
        0
176
     1
 40
-0.6
176
     1
 41
-30.0
176
     1
 62
     5
 63
     7
421
 16777215
176
     1
 74
     2
176
     1
 91
        2
176
     1
 64
     7
176
     1
 65
   257
176
     1
 75
     2
176
     1
175
     1
176
     1
 42
40.0
176
     1
 92
        0
176
     1
 66
   257
176
     1
 43
1.0
176
     1
 76
     1
176
     1
 77
     6
176
     1
 78
     2
176
     1
 67
     7
176
     1
 79
     3
176
     1
170
     0
176
     1
171
     0
176
     1
290
     0
176
     1
 93
        1
176
     1
 44
0.0
176
     1
173
     0
176
     1
  0
VISUALSTYLE
  5
30
102
{ACAD_REACTORS
330
2A
102
}
330
2A
100
AcDbVisualStyle
  2
3dWireframe
 70
     5
177
     2
291
     0
 71
     0
176
     1
 72
     2
176
     1
 73
     0
176
     1
 90
        0
176
     1
 40
-0.6
176
     1
 41
-30.0
176
     1
 62
     5
 63
     7
421
 16777215
176
     1
 74
     1
176
     1
 91
        4
176
     1
 64
     7
176
     1
 65
   257
176
     1
 75
     1
176
     1
175
     1
176
     1
 42
1.0
176
     1
 92
        0
176
     1
 66
   257
176
     1
 43
1.0
176
     1
 76
     1
176
     1
 77
     6
176
     1
 78
     2
176
     1
 67
     7
176
     1
 79
     5
176
     1
170
     0
176
     1
171
     0
176
     1
290
     0
176
     1
 93
        1
176
     1
 44
0.0
176
     1
173
     0
176
     1
  0
VISUALSTYLE
  5
32
102
{ACAD_REACTORS
330
2A
102
}
330
2A
100
AcDbVisualStyle
  2
Basic
 70
     7
177
     2
291
     1
 71
     1
176
     1
 72
     0
176
     1
 73
     1
176
     1
 90
        0
176
     1
 40
-0.6
176
     1
 41
-30.0
176
     1
 62
     5
 63
     7
421
 16777215
176
     1
 74
     0
176
     1
 91
        4
176
     1
 64
     7
176
     1
 65
   257
176
     1
 75
     1
176
     1
175
     1
176
     1
 42
1.0
176
     1
 92
        8
176
     1
 66
     7
176
     1
 43
1.0
176
     1
 76
     1
176
     1
 77
     6
176
     1
 78
     2
176
     1
 67
     7
176
     1
 79
     5
176
     1
170
     0
176
     1
171
     0
176
     1
290
     0
176
     1
 93
        1
176
     1
 44
0.0
176
     1
173
     0
176
     1
  0
VISUALSTYLE
  5
36
102
{ACAD_REACTORS
330
2A
102
}
330
2A
100
AcDbVisualStyle
  2
Brighten
 70
    12
177
     2
291
     1
 71
     2
176
     1
 72
     2
176
     1
 73
     0
176
     1
 90
        0
176
     1
 40
-0.6
176
     1
 41
-30.0
176
     1
 62
     5
 63
     7
421
 16777215
176
     1
 74
     1
176
     1
 91
        4
176
     1
 64
     7
176
     1
 65
   257
176
     1
 75
     1
176
     1
175
     1
176
     1
 42
1.0
176
     1
 92
        8
176
     1
 66
     7
176
     1
 43
1.0
176
     1
 76
     1
176
     1
 77
     6
176
     1
 78
     2
176
     1
 67
     7
176
     1
 79
     5
176
     1
170
     0
176
     1
171
     0
176
     1
290
     0
176
     1
 93
        1
176
     1
 44
50.0
176
     1
173
     0
176
     1
  0
VISUALSTYLE
  5
3A
102
{ACAD_REACTORS
330
2A
102
}
330
2A
100
AcDbVisualStyle
  2
ColorChange
 70
    16
177
     2
291
     1
 71
     2
176
     1
 72
     2
176
     1
 73
     3
176
     1
 90
        0
176
     1
 40
-0.6
176
     1
 41
-30.0
176
     1
 62
     5
 63
     8
421
  8421504
176
     1
 74
     1
176
     1
 91
        4
176
     1
 64
     7
176
     1
 65
   257
176
     1
 75
     1
176
     1
175
     1
176
     1
 42
1.0
176
     1
 92
        8
176
     1
 66
     8
424
  8421504
176
     1
 43
1.0
176
     1
 76
     1
176
     1
 77
     6
176
     1
 78
     2
176
     1
 67
     7
176
     1
 79
     5
176
     1
170
     0
176
     1
171
     0
176
     1
290
     0
176
     1
 93
        1
176
     1
 44
0.0
176
     1
173
     0
176
     1
  0
VISUALSTYLE
  5
34
102
{ACAD_REACTORS
330
2A
102
}
330
2A
100
AcDbVisualStyle
  2
Conceptual
 70
     9
177
     2
291
     0
 71
     3
176
     1
 72
     2
176
     1
 73
     0
176
     1
 90
        0
176
     1
 40
-0.6
176
     1
 41
-30.0
176
     1
 62
     5
 63
     7
421
 16777215
176
     1
 74
     2
176
     1
 91
        2
176
     1
 64
     7
176
     1
 65
   257
176
     1
 75
     1
176
     1
175
     1
176
     1
 42
40.0
176
     1
 92
        8
176
     1
 66
     7
176
     1
 43
1.0
176
     1
 76
     1
176
     1
 77
     6
176
     1
 78
     2
176
     1
 67
     7
176
     1
 79
     3
176
     1
170
     0
176
     1
171
     0
176
     1
290
     0
176
     1
 93
        1
176
     1
 44
0.0
176
     1
173
     0
176
     1
  0
VISUALSTYLE
  5
35
102
{ACAD_REACTORS
330
2A
102
}
330
2A
100
AcDbVisualStyle
  2
Dim
 70
    11
177
     2
291
     1
 71
     2
176
     1
 72
     2
176
     1
 73
     0
176
     1
 90
        0
176
     1
 40
-0.6
176
     1
 41
-30.0
176
     1
 62
     5
 63
     7
421
 16777215
176
     1
 74
     1
176
     1
 91
        4
176
     1
 64
     7
176
     1
 65
   257
176
     1
 75
     1
176
     1
175
     1
176
     1
 42
1.0
176
     1
 92
        8
176
     1
 66
     7
176
     1
 43
1.0
176
     1
 76
     1
176
     1
 77
     6
176
     1
 78
     2
176
     1
 67
     7
176
     1
 79
     5
176
     1
170
     0
176
     1
171
     0
176
     1
290
     0
176
     1
 93
        1
176
     1
 44
-50.0
176
     1
173
     0
176
     1
  0
VISUALSTYLE
  5
39
102
{ACAD_REACTORS
330
2A
102
}
330
2A
100
AcDbVisualStyle
  2
Facepattern
 70
    15
177
     2
291
     1
 71
     2
176
     1
 72
     2
176
     1
 73
     0
176
     1
 90
        0
176
     1
 40
-0.6
176
     1
 41
-30.0
176
     1
 62
     5
 63
     7
421
 16777215
176
     1
 74
     1
176
     1
 91
        4
176
     1
 64
     7
176
     1
 65
   257
176
     1
 75
     1
176
     1
175
     1
176
     1
 42
1.0
176
     1
 92
        8
176
     1
 66
     7
176
     1
 43
1.0
176
     1
 76
     1
176
     1
 77
     6
176
     1
 78
     2
176
     1
 67
     7
176
     1
 79
     5
176
     1
170
     0
176
     1
171
     0
176
     1
290
     0
176
     1
 93
        1
176
     1
 44
0.0
176
     1
173
     0
176
     1
  0
VISUALSTYLE
  5
2B
102
{ACAD_REACTORS
330
2A
102
}
330
2A
100
AcDbVisualStyle
  2
Flat
 70
     0
177
     2
291
     1
 71
     2
176
     1
 72
     1
176
     1
 73
     1
176
     1
 90
        2
176
     1
 40
-0.6
176
     1
 41
30.0
176
     1
 62
     5
 63
     7
421
 16777215
176
     1
 74
     0
176
     1
 91
        4
176
     1
 64
     7
176
     1
 65
   257
176
     1
 75
     1
176
     1
175
     1
176
     1
 42
1.0
176
     1
 92
        8
176
     1
 66
     7
176
     1
 43
1.0
176
     1
 76
     1
176
     1
 77
     6
176
     1
 78
     2
176
     1
 67
     7
176
     1
 79
     5
176
     1
170
     0
176
     1
171
     0
176
     1
290
     0
176
     1
 93
       13
176
     1
 44
0.0
176
     1
173
     0
176
     1
  0
VISUALSTYLE
  5
2C
102
{ACAD_REACTORS
330
2A
102
}
330
2A
100
AcDbVisualStyle
  2
FlatWithEdges
 70
     1
177
     2
291
     1
 71
     2
176
     1
 72
     1
176
     1
 73
     1
176
     1
 90
        2
176
     1
 40
-0.6
176
     1
 41
30.0
176
     1
 62
     5
 63
     7
421
 16777215
176
     1
 74
     1
176
     1
 91
        4
176
     1
 64
     7
176
     1
 65
   257
176
     1
 75
     1
176
     1
175
     1
176
     1
 42
1.0
176
     1
 92
        0
176
     1
 66
   257
176
     1
 43
1.0
176
     1
 76
     1
176
     1
 77
     6
176
     1
 78
     2
176
     1
 67
     7
176
     1
 79
     5
176
     1
170
     0
176
     1
171
     0
176
     1
290
     0
176
     1
 93
       13
176
     1
 44
0.0
176
     1
173
     0
176
     1
  0
VISUALSTYLE
  5
2D
102
{ACAD_REACTORS
330
2A
102
}
330
2A
100
AcDbVisualStyle
  2
Gouraud
 70
     2
177
     2
291
     1
 71
     2
176
     1
 72
     2
176
     1
 73
     1
176
     1
 90
        2
176
     1
 40
-0.6
176
     1
 41
30.0
176
     1
 62
     5
 63
     7
421
 16777215
176
     1
 74
     0
176
     1
 91
        4
176
     1
 64
     7
176
     1
 65
   257
176
     1
 75
     1
176
     1
175
     1
176
     1
 42
1.0
176
     1
 92
        0
176
     1
 66
     7
176
     1
 43
1.0
176
     1
 76
     1
176
     1
 77
     6
176
     1
 78
     2
176
     1
 67
     7
176
     1
 79
     5
176
     1
170
     0
176
     1
171
     0
176
     1
290
     0
176
     1
 93
       13
176
     1
 44
0.0
176
     1
173
     0
176
     1
  0
VISUALSTYLE
  5
2E
102
{ACAD_REACTORS
330
2A
102
}
330
2A
100
AcDbVisualStyle
  2
GouraudWithEdges
 70
     3
177
     2
291
     1
 71
     2
176
     1
 72
     2
176
     1
 73
     1
176
     1
 90
        2
176
     1
 40
-0.6
176
     1
 41
30.0
176
     1
 62
     5
 63
     7
421
 16777215
176
     1
 74
     1
176
     1
 91
        4
176
     1
 64
     7
176
     1
 65
   257
176
     1
 75
     1
176
     1
175
     1
176
     1
 42
1.0
176
     1
 92
        0
176
     1
 66
   257
176
     1
 43
1.0
176
     1
 76
     1
176
     1
 77
     6
176
     1
 78
     2
176
     1
 67
     7
176
     1
 79
     5
176
     1
170
     0
176
     1
171
     0
176
     1
290
     0
176
     1
 93
       13
176
     1
 44
0.0
176
     1
173
     0
176
     1
  0
VISUALSTYLE
  5
38
102
{ACAD_REACTORS
330
2A
102
}
330
2A
100
AcDbVisualStyle
  2
Linepattern
 70
    14
177
     2
291
     1
 71
     2
176
     1
 72
     2
176
     1
 73
     0
176
     1
 90
        0
176
     1
 40
-0.6
176
     1
 41
-30.0
176
     1
 62
     5
 63
     7
421
 16777215
176
     1
 74
     1
176
     1
 91
        4
176
     1
 64
     7
176
     1
 65
   257
176
     1
 75
     7
176
     1
175
     7
176
     1
 42
1.0
176
     1
 92
        8
176
     1
 66
     7
176
     1
 43
1.0
176
     1
 76
     1
176
     1
 77
     6
176
     1
 78
     2
176
     1
 67
     7
176
     1
 79
     5
176
     1
170
     0
176
     1
171
     0
176
     1
290
     0
176
     1
 93
        1
176
     1
 44
0.0
176
     1
173
     0
176
     1
  0
VISUALSTYLE
  5
33
102
{ACAD_REACTORS
330
2A
102
}
330
2A
100
AcDbVisualStyle
  2
Realistic
 70
     8
177
     2
291
     0
 71
     2
176
     1
 72
     2
176
     1
 73
     0
176
     1
 90
        0
176
     1
 40
-0.6
176
     1
 41
-30.0
176
     1
 62
     5
 63
     7
421
 16777215
176
     1
 74
     1
176
     1
 91
        0
176
     1
 64
     7
176
     1
 65
   257
176
     1
 75
     1
176
     1
175
     1
176
     1
 42
1.0
176
     1
 92
        8
176
     1
 66
     8
424
  7895160
176
     1
 43
1.0
176
     1
 76
     1
176
     1
 77
     6
176
     1
 78
     2
176
     1
 67
     7
176
     1
 79
     5
176
     1
170
     0
176
     1
171
     0
176
     1
290
     0
176
     1
 93
       13
176
     1
 44
0.0
176
     1
173
     0
176
     1
  0
VISUALSTYLE
  5
37
102
{ACAD_REACTORS
330
2A
102
}
330
2A
100
AcDbVisualStyle
  2
Thicken
 70
    13
177
     2
291
     1
 71
     2
176
     1
 72
     2
176
     1
 73
     0
176
     1
 90
        0
176
     1
 40
-0.6
176
     1
 41
-30.0
176
     1
 62
     5
 63
     7
421
 16777215
176
     1
 74
     1
176
     1
 91
        4
176
     1
 64
     7
176
     1
 65
   257
176
     1
 75
     1
176
     1
175
     1
176
     1
 42
1.0
176
     1
 92
       12
176
     1
 66
     7
176
     1
 43
1.0
176
     1
 76
     1
176
     1
 77
     6
176
     1
 78
     2
176
     1
 67
     7
176
     1
 79
     5
176
     1
170
     0
176
     1
171
     0
176
     1
290
     0
176
     1
 93
        1
176
     1
 44
0.0
176
     1
173
     0
176
     1
  0
ENDSEC
  0
EOF
