  0
SECTION
  2
HEADER
  9
$ACADVER
  1
AC1024
  9
$ACADMAINTVER
 70
     6
  9
$DWGCODEPAGE
  3
ANSI_1252
  9
$INSBASE
 10
0.0
 20
0.0
 30
0.0
  9
$EXTMIN
 10
1.000000000000000E+20
 20
1.000000000000000E+20
 30
1.000000000000000E+20
  9
$EXTMAX
 10
-1.000000000000000E+20
 20
-1.000000000000000E+20
 30
-1.000000000000000E+20
  9
$LIMMIN
 10
0.0
 20
0.0
  9
$LIMMAX
 10
12.0
 20
9.0
  9
$ORTHOMODE
 70
     0
  9
$REGENMODE
 70
     1
  9
$FILLMODE
 70
     1
  9
$QTEXTMODE
 70
     0
  9
$MIRRTEXT
 70
     1
  9
$LTSCALE
 40
1.0
  9
$ATTMODE
 70
     1
  9
$TEXTSIZE
 40
0.2
  9
$TRACEWID
 40
0.05
  9
$TEXTSTYLE
  7
Standard
  9
$CLAYER
  8
0
  9
$CELTYPE
  6
ByLayer
  9
$CECOLOR
 62
   256
  9
$CELTSCALE
 40
1.0
  9
$DISPSILH
 70
     0
  9
$DIMSCALE
 40
1.0
  9
$DIMASZ
 40
0.18
  9
$DIMEXO
 40
0.0625
  9
$DIMDLI
 40
0.38
  9
$DIMRND
 40
0.0
  9
$DIMDLE
 40
0.0
  9
$DIMEXE
 40
0.18
  9
$DIMTP
 40
0.0
  9
$DIMTM
 40
0.0
  9
$DIMTXT
 40
0.18
  9
$DIMCEN
 40
0.09
  9
$DIMTSZ
 40
0.0
  9
$DIMTOL
 70
     0
  9
$DIMLIM
 70
     0
  9
$DIMTIH
 70
     1
  9
$DIMTOH
 70
     1
  9
$DIMSE1
 70
     0
  9
$DIMSE2
 70
     0
  9
$DIMTAD
 70
     0
  9
$DIMZIN
 70
     0
  9
$DIMBLK
  1

  9
$DIMASO
 70
     1
  9
$DIMSHO
 70
     1
  9
$DIMPOST
  1

  9
$DIMAPOST
  1

  9
$DIMALT
 70
     0
  9
$DIMALTD
 70
     2
  9
$DIMALTF
 40
25.4
  9
$DIMLFAC
 40
1.0
  9
$DIMTOFL
 70
     0
  9
$DIMTVP
 40
0.0
  9
$DIMTIX
 70
     0
  9
$DIMSOXD
 70
     0
  9
$DIMSAH
 70
     0
  9
$DIMBLK1
  1

  9
$DIMBLK2
  1

  9
$DIMSTYLE
  2
Standard
  9
$DIMCLRD
 70
     0
  9
$DIMCLRE
 70
     0
  9
$DIMCLRT
 70
     0
  9
$DIMTFAC
 40
1.0
  9
$DIMGAP
 40
0.09
  9
$DIMJUST
 70
     0
  9
$DIMSD1
 70
     0
  9
$DIMSD2
 70
     0
  9
$DIMTOLJ
 70
     1
  9
$DIMTZIN
 70
     0
  9
$DIMALTZ
 70
     0
  9
$DIMALTTZ
 70
     0
  9
$DIMUPT
 70
     0
  9
$DIMDEC
 70
     4
  9
$DIMTDEC
 70
     4
  9
$DIMALTU
 70
     2
  9
$DIMALTTD
 70
     2
  9
$DIMTXSTY
  7
Standard
  9
$DIMAUNIT
 70
     0
  9
$DIMADEC
 70
     0
  9
$DIMALTRND
 40
0.0
  9
$DIMAZIN
 70
     0
  9
$DIMDSEP
 70
    46
  9
$DIMATFIT
 70
     3
  9
$DIMFRAC
 70
     0
  9
$DIMLDRBLK
  1

  9
$DIMLUNIT
 70
     2
  9
$DIMLWD
 70
    -2
  9
$DIMLWE
 70
    -2
  9
$DIMTMOVE
 70
     0
  9
$DIMFXL
 40
1.0
  9
$DIMFXLON
 70
     0
  9
$DIMJOGANG
 40
0.7853981633974483
  9
$DIMTFILL
 70
     0
  9
$DIMTFILLCLR
 70
     0
  9
$DIMARCSYM
 70
     0
  9
$DIMLTYPE
  6

  9
$DIMLTEX1
  6

  9
$DIMLTEX2
  6

  9
$DIMTXTDIRECTION
 70
     0
  9
$LUNITS
 70
     2
  9
$LUPREC
 70
     4
  9
$SKETCHINC
 40
0.1
  9
$FILLETRAD
 40
0.5
  9
$AUNITS
 70
     0
  9
$AUPREC
 70
     0
  9
$MENU
  1
.
  9
$ELEVATION
 40
0.0
  9
$PELEVATION
 40
0.0
  9
$THICKNESS
 40
0.0
  9
$LIMCHECK
 70
     0
  9
$CHAMFERA
 40
0.5
  9
$CHAMFERB
 40
0.5
  9
$CHAMFERC
 40
1.0
  9
$CHAMFERD
 40
0.0
  9
$SKPOLY
 70
     0
  9
$TDCREATE
 40
2460416.54588544
  9
$TDUCREATE
 40
2460416.504218773
  9
$TDUPDATE
 40
2460416.545885567
  9
$TDUUPDATE
 40
2460416.504218901
  9
$TDINDWG
 40
0.0000000116
  9
$TDUSRTIMER
 40
0.0000000116
  9
$USRTIMER
 70
     1
  9
$ANGBASE
 50
0.0
  9
$ANGDIR
 70
     0
  9
$PDMODE
 70
     0
  9
$PDSIZE
 40
0.0
  9
$PLINEWID
 40
0.0
  9
$SPLFRAME
 70
     0
  9
$SPLINETYPE
 70
     6
  9
$SPLINESEGS
 70
     8
  9
$HANDSEED
  5
BB
  9
$SURFTAB1
 70
     6
  9
$SURFTAB2
 70
     6
  9
$SURFTYPE
 70
     6
  9
$SURFU
 70
     6
  9
$SURFV
 70
     6
  9
$UCSBASE
  2

  9
$UCSNAME
  2

  9
$UCSORG
 10
0.0
 20
0.0
 30
0.0
  9
$UCSXDIR
 10
1.0
 20
0.0
 30
0.0
  9
$UCSYDIR
 10
0.0
 20
1.0
 30
0.0
  9
$UCSORTHOREF
  2

  9
$UCSORTHOVIEW
 70
     0
  9
$UCSORGTOP
 10
0.0
 20
0.0
 30
0.0
  9
$UCSORGBOTTOM
 10
0.0
 20
0.0
 30
0.0
  9
$UCSORGLEFT
 10
0.0
 20
0.0
 30
0.0
  9
$UCSORGRIGHT
 10
0.0
 20
0.0
 30
0.0
  9
$UCSORGFRONT
 10
0.0
 20
0.0
 30
0.0
  9
$UCSORGBACK
 10
0.0
 20
0.0
 30
0.0
  9
$PUCSBASE
  2

  9
$PUCSNAME
  2

  9
$PUCSORG
 10
0.0
 20
0.0
 30
0.0
  9
$PUCSXDIR
 10
1.0
 20
0.0
 30
0.0
  9
$PUCSYDIR
 10
0.0
 20
1.0
 30
0.0
  9
$PUCSORTHOREF
  2

  9
$PUCSORTHOVIEW
 70
     0
  9
$PUCSORGTOP
 10
0.0
 20
0.0
 30
0.0
  9
$PUCSORGBOTTOM
 10
0.0
 20
0.0
 30
0.0
  9
$PUCSORGLEFT
 10
0.0
 20
0.0
 30
0.0
  9
$PUCSORGRIGHT
 10
0.0
 20
0.0
 30
0.0
  9
$PUCSORGFRONT
 10
0.0
 20
0.0
 30
0.0
  9
$PUCSORGBACK
 10
0.0
 20
0.0
 30
0.0
  9
$USERI1
 70
     0
  9
$USERI2
 70
     0
  9
$USERI3
 70
     0
  9
$USERI4
 70
     0
  9
$USERI5
 70
     0
  9
$USERR1
 40
0.0
  9
$USERR2
 40
0.0
  9
$USERR3
 40
0.0
  9
$USERR4
 40
0.0
  9
$USERR5
 40
0.0
  9
$WORLDVIEW
 70
     1
  9
$SHADEDGE
 70
     3
  9
$SHADEDIF
 70
    70
  9
$TILEMODE
 70
     1
  9
$MAXACTVP
 70
    64
  9
$PINSBASE
 10
0.0
 20
0.0
 30
0.0
  9
$PLIMCHECK
 70
     0
  9
$PEXTMIN
 10
1.000000000000000E+20
 20
1.000000000000000E+20
 30
1.000000000000000E+20
  9
$PEXTMAX
 10
-1.000000000000000E+20
 20
-1.000000000000000E+20
 30
-1.000000000000000E+20
  9
$PLIMMIN
 10
0.0
 20
0.0
  9
$PLIMMAX
 10
12.0
 20
9.0
  9
$UNITMODE
 70
     0
  9
$VISRETAIN
 70
     1
  9
$PLINEGEN
 70
     0
  9
$PSLTSCALE
 70
     1
  9
$TREEDEPTH
 70
  3020
  9
$CMLSTYLE
  2
Standard
  9
$CMLJUST
 70
     0
  9
$CMLSCALE
 40
1.0
  9
$PROXYGRAPHICS
 70
     1
  9
$MEASUREMENT
 70
     0
  9
$CELWEIGHT
370
    -1
  9
$ENDCAPS
280
     0
  9
$JOINSTYLE
280
     0
  9
$LWDISPLAY
290
     1
  9
$INSUNITS
 70
     4
  9
$HYPERLINKBASE
  1

  9
$STYLESHEET
  1

  9
$XEDIT
290
     1
  9
$CEPSNTYPE
380
     0
  9
$PSTYLEMODE
290
     1
  9
$FINGERPRINTGUID
  2
{8715EE99-6DF7-4B4F-9A76-2B498B1CA807}
  9
$VERSIONGUID
  2
{FAEB1C32-E019-11D5-929B-00C0DF256EC4}
  9
$EXTNAMES
290
     1
  9
$PSVPSCALE
 40
0.0
  9
$OLESTARTUP
290
     0
  9
$SORTENTS
280
   127
  9
$INDEXCTL
280
     0
  9
$HIDETEXT
280
     1
  9
$XCLIPFRAME
280
     2
  9
$HALOGAP
280
     0
  9
$OBSCOLOR
 70
   257
  9
$OBSLTYPE
280
     0
  9
$INTERSECTIONDISPLAY
280
     0
  9
$INTERSECTIONCOLOR
 70
   257
  9
$DIMASSOC
280
     2
  9
$PROJECTNAME
  1

  9
$CAMERADISPLAY
290
     0
  9
$LENSLENGTH
 40
50.0
  9
$CAMERAHEIGHT
 40
0.0
  9
$STEPSPERSEC
 40
2.0
  9
$STEPSIZE
 40
6.0
  9
$3DDWFPREC
 40
2.0
  9
$PSOLWIDTH
 40
0.25
  9
$PSOLHEIGHT
 40
4.0
  9
$LOFTANG1
 40
1.570796326794897
  9
$LOFTANG2
 40
1.570796326794897
  9
$LOFTMAG1
 40
0.0
  9
$LOFTMAG2
 40
0.0
  9
$LOFTPARAM
 70
     7
  9
$LOFTNORMALS
280
     1
  9
$LATITUDE
 40
37.795
  9
$LONGITUDE
 40
-122.394
  9
$NORTHDIRECTION
 40
0.0
  9
$TIMEZONE
 70
 -8000
  9
$LIGHTGLYPHDISPLAY
280
     1
  9
$TILEMODELIGHTSYNCH
280
     1
  9
$CMATERIAL
347
3C
  9
$SOLIDHIST
280
     1
  9
$SHOWHIST
280
     1
  9
$DWFFRAME
280
     2
  9
$DGNFRAME
280
     2
  9
$REALWORLDSCALE
290
     1
  9
$INTERFERECOLOR
 62
   256
  9
$CSHADOW
280
     0
  9
$SHADOWPLANELOCATION
 40
0.0
  0
ENDSEC
  0
SECTION
  2
CLASSES
  0
CLASS
  1
ACDBDICTIONARYWDFLT
  2
AcDbDictionaryWithDefault
  3
ObjectDBX Classes
 90
        0
 91
        4
280
     0
281
     0
  0
CLASS
  1
VISUALSTYLE
  2
AcDbVisualStyle
  3
ObjectDBX Classes
 90
     4095
 91
        4
280
     0
281
     0
  0
CLASS
  1
MATERIAL
  2
AcDbMaterial
  3
ObjectDBX Classes
 90
     1153
 91
        4
280
     0
281
     0
  0
CLASS
  1
SUN
  2
AcDbSun
  3
SCENEOE
 90
     1024
 91
        4
280
     0
281
     0
  0
ENDSEC
  0
SECTION
  2
TABLES
  0
TABLE
  2
VPORT
  5
8
330
0
100
AcDbSymbolTable
 70
     1
  0
VPORT
  5
29
330
8
100
AcDbSymbolTableRecord
100
AcDbViewportTableRecord
  2
*Active
 70
     0
 10
0.0
 20
0.0
 11
1.0
 21
1.0
 12
0.0
 22
0.0
 13
0.0
 23
0.0
 14
0.5
 24
0.5
 15
0.5
 25
0.5
 16
0.0
 26
0.0
 36
1.0
 17
299.9999999249995
 27
-199.9999999500007
 37
0.0
 40
399.9999999000015
 41
1.499999999999992
 42
50.0
 43
0.0
 44
0.0
 50
0.0
 51
0.0
 71
     0
 72
   100
 73
     1
 74
     3
 75
     0
 76
     0
 77
     0
 78
     0
281
     0
 65
     1
110
0.0
120
0.0
130
0.0
111
1.0
121
0.0
131
0.0
112
0.0
122
1.0
132
0.0
 79
     0
146
0.0
 60
     3
 61
     5
292
     1
282
     1
141
0.0
142
0.0
 63
   250
361
3F
  0
ENDTAB
  0
TABLE
  2
LTYPE
  5
5
330
0
100
AcDbSymbolTable
 70
     1
  0
LTYPE
  5
14
330
5
100
AcDbSymbolTableRecord
100
AcDbLinetypeTableRecord
  2
ByBlock
 70
     0
  3

 72
    65
 73
     0
 40
0.0
  0
LTYPE
  5
15
330
5
100
AcDbSymbolTableRecord
100
AcDbLinetypeTableRecord
  2
ByLayer
 70
     0
  3

 72
    65
 73
     0
 40
0.0
  0
LTYPE
  5
16
330
5
100
AcDbSymbolTableRecord
100
AcDbLinetypeTableRecord
  2
Continuous
 70
     0
  3
Solid line
 72
    65
 73
     0
 40
0.0
  0
ENDTAB
  0
TABLE
  2
LAYER
  5
2
330
0
100
AcDbSymbolTable
 70
     2
  0
LAYER
  5
10
330
2
100
AcDbSymbolTableRecord
100
AcDbLayerTableRecord
  2
0
 70
     0
 62
     7
  6
Continuous
370
    -3
390
F
347
3E
  0
LAYER
  5
40
330
2
100
AcDbSymbolTableRecord
100
AcDbLayerTableRecord
  2
Layer 1
 70
     0
 62
     7
  6
Continuous
370
    -3
390
F
347
3E
  0
ENDTAB
  0
TABLE
  2
STYLE
  5
3
330
0
100
AcDbSymbolTable
 70
     1
  0
STYLE
  5
11
330
3
100
AcDbSymbolTableRecord
100
AcDbTextStyleTableRecord
  2
Standard
 70
     0
 40
0.0
 41
1.0
 50
0.0
 71
     0
 42
0.2
  3
txt
  4

  0
ENDTAB
  0
TABLE
  2
VIEW
  5
6
330
0
100
AcDbSymbolTable
 70
     0
  0
ENDTAB
  0
TABLE
  2
UCS
  5
7
330
0
100
AcDbSymbolTable
 70
     0
  0
ENDTAB
  0
TABLE
  2
APPID
  5
9
330
0
100
AcDbSymbolTable
 70
     1
  0
APPID
  5
12
330
9
100
AcDbSymbolTableRecord
100
AcDbRegAppTableRecord
  2
ACAD
 70
     0
  0
ENDTAB
  0
TABLE
  2
DIMSTYLE
  5
A
330
0
100
AcDbSymbolTable
 70
     1
100
AcDbDimStyleTable
  0
DIMSTYLE
105
27
330
A
100
AcDbSymbolTableRecord
100
AcDbDimStyleTableRecord
  2
Standard
 70
     0
178
     0
340
11
  0
ENDTAB
  0
TABLE
  2
BLOCK_RECORD
  5
1
330
0
100
AcDbSymbolTable
 70
     9
  0
BLOCK_RECORD
  5
1F
330
1
100
AcDbSymbolTableRecord
100
AcDbBlockTableRecord
  2
*Model_Space
340
22
 70
     0
280
     1
281
     0
  0
BLOCK_RECORD
  5
1B
330
1
100
AcDbSymbolTableRecord
100
AcDbBlockTableRecord
  2
*Paper_Space
340
1E
 70
     0
280
     1
281
     0
  0
BLOCK_RECORD
  5
23
330
1
100
AcDbSymbolTableRecord
100
AcDbBlockTableRecord
  2
*Paper_Space0
340
26
 70
     0
280
     1
281
     0
  0
BLOCK_RECORD
  5
81
330
1
100
AcDbSymbolTableRecord
100
AcDbBlockTableRecord
  2
block 2
340
0
102
{BLKREFS
331
82
102
}
 70
     0
280
     1
281
     0
  0
BLOCK_RECORD
  5
88
330
1
100
AcDbSymbolTableRecord
100
AcDbBlockTableRecord
  2
block 3
340
0
102
{BLKREFS
331
89
102
}
 70
     0
280
     1
281
     0
  0
BLOCK_RECORD
  5
8F
330
1
100
AcDbSymbolTableRecord
100
AcDbBlockTableRecord
  2
block 4
340
0
102
{BLKREFS
331
90
102
}
 70
     0
280
     1
281
     0
  0
BLOCK_RECORD
  5
96
330
1
100
AcDbSymbolTableRecord
100
AcDbBlockTableRecord
  2
block 5
340
0
102
{BLKREFS
331
97
102
}
 70
     0
280
     1
281
     0
  0
BLOCK_RECORD
  5
9D
330
1
100
AcDbSymbolTableRecord
100
AcDbBlockTableRecord
  2
block 6
340
0
102
{BLKREFS
331
9E
102
}
 70
     0
280
     1
281
     0
  0
BLOCK_RECORD
  5
A4
330
1
100
AcDbSymbolTableRecord
100
AcDbBlockTableRecord
  2
block 7
340
0
102
{BLKREFS
331
A5
102
}
 70
     0
280
     1
281
     0
  0
BLOCK_RECORD
  5
AB
330
1
100
AcDbSymbolTableRecord
100
AcDbBlockTableRecord
  2
block 8
340
0
102
{BLKREFS
331
AC
102
}
 70
     0
280
     1
281
     0
  0
BLOCK_RECORD
  5
B2
330
1
100
AcDbSymbolTableRecord
100
AcDbBlockTableRecord
  2
block 9
340
0
102
{BLKREFS
331
B3
102
}
 70
     0
280
     1
281
     0
  0
ENDTAB
  0
ENDSEC
  0
SECTION
  2
BLOCKS
  0
BLOCK
  5
20
330
1F
100
AcDbEntity
  8
0
100
AcDbBlockBegin
  2
*Model_Space
 70
     0
 10
0.0
 20
0.0
 30
0.0
  3
*Model_Space
  1

  0
ENDBLK
  5
21
330
1F
100
AcDbEntity
  8
0
100
AcDbBlockEnd
  0
BLOCK
  5
1C
330
1B
100
AcDbEntity
 67
     1
  8
0
100
AcDbBlockBegin
  2
*Paper_Space
 70
     0
 10
0.0
 20
0.0
 30
0.0
  3
*Paper_Space
  1

  0
ENDBLK
  5
1D
330
1B
100
AcDbEntity
 67
     1
  8
0
100
AcDbBlockEnd
  0
BLOCK
  5
24
330
23
100
AcDbEntity
  8
0
100
AcDbBlockBegin
  2
*Paper_Space0
 70
     0
 10
0.0
 20
0.0
 30
0.0
  3
*Paper_Space0
  1

  0
ENDBLK
  5
25
330
23
100
AcDbEntity
  8
0
100
AcDbBlockEnd
  0
BLOCK
  5
83
330
81
100
AcDbEntity
  8
0
100
AcDbBlockBegin
  2
block 2
 70
     0
 10
0.0
 20
0.0
 30
0.0
  3
block 2
  1

  0
SPLINE
  5
85
330
81
100
AcDbEntity
  8
Layer 1
 62
   197
420
  6693762
370
    35
100
AcDbSpline
210
0.0
220
0.0
230
1.0
 70
    11
 71
     3
 72
    17
 73
    13
 74
     0
 42
0.0000000001
 43
0.0000000001
 12
1.0
 22
0.0
 32
0.0
 13
1.0
 23
0.0
 33
0.0
 40
0.0
 40
0.0
 40
0.0
 40
0.0
 40
1.0
 40
1.0
 40
1.0
 40
2.0
 40
2.0
 40
2.0
 40
3.0
 40
3.0
 40
3.0
 40
4.0
 40
4.0
 40
4.0
 40
4.0
 10
111.4727164002171
 20
-50.71424674941763
 30
0.0
 10
104.5691570294446
 20
-50.71424674941763
 30
0.0
 10
98.97271640334272
 20
-45.11780612331962
 30
0.0
 10
98.97271640334272
 20
-38.21424675254323
 30
0.0
 10
98.97271640334272
 20
-31.31068738176972
 30
0.0
 10
104.5691570294446
 20
-25.71424675566882
 30
0.0
 10
111.4727164002171
 20
-25.71424675566882
 30
0.0
 10
118.3762757709913
 20
-25.71424675566882
 30
0.0
 10
123.9727163970915
 20
-31.31068738176972
 30
0.0
 10
123.9727163970915
 20
-38.21424675254323
 30
0.0
 10
123.9727163970915
 20
-45.11780612331962
 30
0.0
 10
118.3762757709913
 20
-50.71424674941763
 30
0.0
 10
111.4727164002171
 20
-50.71424674941763
 30
0.0
  0
SPLINE
  5
86
330
81
100
AcDbEntity
  8
Layer 1
370
     0
100
AcDbSpline
210
0.0
220
0.0
230
1.0
 70
    11
 71
     3
 72
    17
 73
    13
 74
     0
 42
0.0000000001
 43
0.0000000001
 12
1.0
 22
0.0
 32
0.0
 13
1.0
 23
0.0
 33
0.0
 40
0.0
 40
0.0
 40
0.0
 40
0.0
 40
1.0
 40
1.0
 40
1.0
 40
2.0
 40
2.0
 40
2.0
 40
3.0
 40
3.0
 40
3.0
 40
4.0
 40
4.0
 40
4.0
 40
4.0
 10
111.4727164002171
 20
-39.71424675216885
 30
0.0
 10
110.6442892757258
 20
-39.71424675216885
 30
0.0
 10
109.9727164005909
 20
-39.04267387703779
 30
0.0
 10
109.9727164005909
 20
-38.21424675254323
 30
0.0
 10
109.9727164005909
 20
-37.38581962805187
 30
0.0
 10
110.6442892757258
 20
-36.7142467529176
 30
0.0
 10
111.4727164002171
 20
-36.7142467529176
 30
0.0
 10
112.3011435247123
 20
-36.7142467529176
 30
0.0
 10
112.9727163998434
 20
-37.38581962805187
 30
0.0
 10
112.9727163998434
 20
-38.21424675254323
 30
0.0
 10
112.9727163998434
 20
-39.04267387703779
 30
0.0
 10
112.3011435247123
 20
-39.71424675216885
 30
0.0
 10
111.4727164002171
 20
-39.71424675216885
 30
0.0
  0
HATCH
  5
87
330
81
100
AcDbEntity
  8
Layer 1
 62
   250
420
  1842203
100
AcDbHatch
 10
0.0
 20
0.0
 30
0.0
210
0.0
220
0.0
230
1.0
  2
SOLID
 70
     1
 71
     0
 91
        1
 92
        1
 93
        1
 72
     4
 94
        3
 73
     0
 74
     1
 95
       17
 96
       13
 40
0.0
 40
0.0
 40
0.0
 40
0.0
 40
1.0
 40
1.0
 40
1.0
 40
2.0
 40
2.0
 40
2.0
 40
3.0
 40
3.0
 40
3.0
 40
4.0
 40
4.0
 40
4.0
 40
4.0
 10
111.4727164002171
 20
-39.71424675216885
 10
110.6442892757258
 20
-39.71424675216885
 10
109.9727164005909
 20
-39.04267387703779
 10
109.9727164005909
 20
-38.21424675254323
 10
109.9727164005909
 20
-37.38581962805187
 10
110.6442892757258
 20
-36.7142467529176
 10
111.4727164002171
 20
-36.7142467529176
 10
112.3011435247123
 20
-36.7142467529176
 10
112.9727163998434
 20
-37.38581962805187
 10
112.9727163998434
 20
-38.21424675254323
 10
112.9727163998434
 20
-39.04267387703779
 10
112.3011435247123
 20
-39.71424675216885
 10
111.4727164002171
 20
-39.71424675216885
 97
        0
 97
        0
 75
     2
 76
     1
 98
        0
  0
ENDBLK
  5
84
330
81
100
AcDbEntity
  8
0
100
AcDbBlockEnd
  0
BLOCK
  5
8A
330
88
100
AcDbEntity
  8
0
100
AcDbBlockBegin
  2
block 3
 70
     0
 10
0.0
 20
0.0
 30
0.0
  3
block 3
  1

  0
SPLINE
  5
8C
330
88
100
AcDbEntity
  8
Layer 1
 62
   197
420
  6693762
370
    35
100
AcDbSpline
210
0.0
220
0.0
230
1.0
 70
    11
 71
     3
 72
    17
 73
    13
 74
     0
 42
0.0000000001
 43
0.0000000001
 12
1.0
 22
0.0
 32
0.0
 13
1.0
 23
0.0
 33
0.0
 40
0.0
 40
0.0
 40
0.0
 40
0.0
 40
1.0
 40
1.0
 40
1.0
 40
2.0
 40
2.0
 40
2.0
 40
3.0
 40
3.0
 40
3.0
 40
4.0
 40
4.0
 40
4.0
 40
4.0
 10
490.0378196338912
 20
-50.71424674941763
 30
0.0
 10
483.1342602631177
 20
-50.71424674941763
 30
0.0
 10
477.5378196370168
 20
-45.11780612331962
 30
0.0
 10
477.5378196370168
 20
-38.21424675254323
 30
0.0
 10
477.5378196370168
 20
-31.31068738176972
 30
0.0
 10
483.1342602631177
 20
-25.71424675566882
 30
0.0
 10
490.0378196338912
 20
-25.71424675566882
 30
0.0
 10
496.9413790046673
 20
-25.71424675566882
 30
0.0
 10
502.5378196307656
 20
-31.31068738176972
 30
0.0
 10
502.5378196307656
 20
-38.21424675254323
 30
0.0
 10
502.5378196307656
 20
-45.11780612331962
 30
0.0
 10
496.9413790046673
 20
-50.71424674941763
 30
0.0
 10
490.0378196338912
 20
-50.71424674941763
 30
0.0
  0
SPLINE
  5
8D
330
88
100
AcDbEntity
  8
Layer 1
370
     0
100
AcDbSpline
210
0.0
220
0.0
230
1.0
 70
    11
 71
     3
 72
    17
 73
    13
 74
     0
 42
0.0000000001
 43
0.0000000001
 12
1.0
 22
0.0
 32
0.0
 13
1.0
 23
0.0
 33
0.0
 40
0.0
 40
0.0
 40
0.0
 40
0.0
 40
1.0
 40
1.0
 40
1.0
 40
2.0
 40
2.0
 40
2.0
 40
3.0
 40
3.0
 40
3.0
 40
4.0
 40
4.0
 40
4.0
 40
4.0
 10
490.0378196338912
 20
-39.71424675216885
 30
0.0
 10
489.2093925093999
 20
-39.71424675216885
 30
0.0
 10
488.537819634265
 20
-39.04267387703779
 30
0.0
 10
488.537819634265
 20
-38.21424675254323
 30
0.0
 10
488.537819634265
 20
-37.38581962805187
 30
0.0
 10
489.2093925093999
 20
-36.7142467529176
 30
0.0
 10
490.0378196338912
 20
-36.7142467529176
 30
0.0
 10
490.8662467583858
 20
-36.7142467529176
 30
0.0
 10
491.5378196335168
 20
-37.38581962805187
 30
0.0
 10
491.5378196335168
 20
-38.21424675254323
 30
0.0
 10
491.5378196335168
 20
-39.04267387703779
 30
0.0
 10
490.8662467583858
 20
-39.71424675216885
 30
0.0
 10
490.0378196338912
 20
-39.71424675216885
 30
0.0
  0
HATCH
  5
8E
330
88
100
AcDbEntity
  8
Layer 1
 62
   250
420
  1842203
100
AcDbHatch
 10
0.0
 20
0.0
 30
0.0
210
0.0
220
0.0
230
1.0
  2
SOLID
 70
     1
 71
     0
 91
        1
 92
        1
 93
        1
 72
     4
 94
        3
 73
     0
 74
     1
 95
       17
 96
       13
 40
0.0
 40
0.0
 40
0.0
 40
0.0
 40
1.0
 40
1.0
 40
1.0
 40
2.0
 40
2.0
 40
2.0
 40
3.0
 40
3.0
 40
3.0
 40
4.0
 40
4.0
 40
4.0
 40
4.0
 10
490.0378196338912
 20
-39.71424675216885
 10
489.2093925093999
 20
-39.71424675216885
 10
488.537819634265
 20
-39.04267387703779
 10
488.537819634265
 20
-38.21424675254323
 10
488.537819634265
 20
-37.38581962805187
 10
489.2093925093999
 20
-36.7142467529176
 10
490.0378196338912
 20
-36.7142467529176
 10
490.8662467583858
 20
-36.7142467529176
 10
491.5378196335168
 20
-37.38581962805187
 10
491.5378196335168
 20
-38.21424675254323
 10
491.5378196335168
 20
-39.04267387703779
 10
490.8662467583858
 20
-39.71424675216885
 10
490.0378196338912
 20
-39.71424675216885
 97
        0
 97
        0
 75
     2
 76
     1
 98
        0
  0
ENDBLK
  5
8B
330
88
100
AcDbEntity
  8
0
100
AcDbBlockEnd
  0
BLOCK
  5
91
330
8F
100
AcDbEntity
  8
0
100
AcDbBlockBegin
  2
block 4
 70
     0
 10
0.0
 20
0.0
 30
0.0
  3
block 4
  1

  0
SPLINE
  5
93
330
8F
100
AcDbEntity
  8
Layer 1
 62
   197
420
  6693762
370
    35
100
AcDbSpline
210
0.0
220
0.0
230
1.0
 70
    11
 71
     3
 72
    17
 73
    13
 74
     0
 42
0.0000000001
 43
0.0000000001
 12
1.0
 22
0.0
 32
0.0
 13
1.0
 23
0.0
 33
0.0
 40
0.0
 40
0.0
 40
0.0
 40
0.0
 40
1.0
 40
1.0
 40
1.0
 40
2.0
 40
2.0
 40
2.0
 40
3.0
 40
3.0
 40
3.0
 40
4.0
 40
4.0
 40
4.0
 40
4.0
 10
490.0378196338912
 20
-212.8571233278337
 30
0.0
 10
483.1342602631177
 20
-212.8571233278337
 30
0.0
 10
477.5378196370168
 20
-207.2606827017354
 30
0.0
 10
477.5378196370168
 20
-200.3571233309593
 30
0.0
 10
477.5378196370168
 20
-193.4535639601858
 30
0.0
 10
483.1342602631177
 20
-187.8571233340849
 30
0.0
 10
490.0378196338912
 20
-187.8571233340849
 30
0.0
 10
496.9413790046673
 20
-187.8571233340849
 30
0.0
 10
502.5378196307656
 20
-193.4535639601858
 30
0.0
 10
502.5378196307656
 20
-200.3571233309593
 30
0.0
 10
502.5378196307656
 20
-207.2606827017354
 30
0.0
 10
496.9413790046673
 20
-212.8571233278337
 30
0.0
 10
490.0378196338912
 20
-212.8571233278337
 30
0.0
  0
SPLINE
  5
94
330
8F
100
AcDbEntity
  8
Layer 1
370
     0
100
AcDbSpline
210
0.0
220
0.0
230
1.0
 70
    11
 71
     3
 72
    17
 73
    13
 74
     0
 42
0.0000000001
 43
0.0000000001
 12
1.0
 22
0.0
 32
0.0
 13
1.0
 23
0.0
 33
0.0
 40
0.0
 40
0.0
 40
0.0
 40
0.0
 40
1.0
 40
1.0
 40
1.0
 40
2.0
 40
2.0
 40
2.0
 40
3.0
 40
3.0
 40
3.0
 40
4.0
 40
4.0
 40
4.0
 40
4.0
 10
490.0378196338912
 20
-201.8571233305849
 30
0.0
 10
489.2093925093999
 20
-201.8571233305849
 30
0.0
 10
488.537819634265
 20
-201.1855504554539
 30
0.0
 10
488.537819634265
 20
-200.3571233309593
 30
0.0
 10
488.537819634265
 20
-199.5286962064679
 30
0.0
 10
489.2093925093999
 20
-198.8571233313337
 30
0.0
 10
490.0378196338912
 20
-198.8571233313337
 30
0.0
 10
490.8662467583858
 20
-198.8571233313337
 30
0.0
 10
491.5378196335168
 20
-199.5286962064679
 30
0.0
 10
491.5378196335168
 20
-200.3571233309593
 30
0.0
 10
491.5378196335168
 20
-201.1855504554539
 30
0.0
 10
490.8662467583858
 20
-201.8571233305849
 30
0.0
 10
490.0378196338912
 20
-201.8571233305849
 30
0.0
  0
HATCH
  5
95
330
8F
100
AcDbEntity
  8
Layer 1
 62
   250
420
  1842203
100
AcDbHatch
 10
0.0
 20
0.0
 30
0.0
210
0.0
220
0.0
230
1.0
  2
SOLID
 70
     1
 71
     0
 91
        1
 92
        1
 93
        1
 72
     4
 94
        3
 73
     0
 74
     1
 95
       17
 96
       13
 40
0.0
 40
0.0
 40
0.0
 40
0.0
 40
1.0
 40
1.0
 40
1.0
 40
2.0
 40
2.0
 40
2.0
 40
3.0
 40
3.0
 40
3.0
 40
4.0
 40
4.0
 40
4.0
 40
4.0
 10
490.0378196338912
 20
-201.8571233305849
 10
489.2093925093999
 20
-201.8571233305849
 10
488.537819634265
 20
-201.1855504554539
 10
488.537819634265
 20
-200.3571233309593
 10
488.537819634265
 20
-199.5286962064679
 10
489.2093925093999
 20
-198.8571233313337
 10
490.0378196338912
 20
-198.8571233313337
 10
490.8662467583858
 20
-198.8571233313337
 10
491.5378196335168
 20
-199.5286962064679
 10
491.5378196335168
 20
-200.3571233309593
 10
491.5378196335168
 20
-201.1855504554539
 10
490.8662467583858
 20
-201.8571233305849
 10
490.0378196338912
 20
-201.8571233305849
 97
        0
 97
        0
 75
     2
 76
     1
 98
        0
  0
ENDBLK
  5
92
330
8F
100
AcDbEntity
  8
0
100
AcDbBlockEnd
  0
BLOCK
  5
98
330
96
100
AcDbEntity
  8
0
100
AcDbBlockBegin
  2
block 5
 70
     0
 10
0.0
 20
0.0
 30
0.0
  3
block 5
  1

  0
SPLINE
  5
9A
330
96
100
AcDbEntity
  8
Layer 1
 62
   197
420
  6693762
370
    35
100
AcDbSpline
210
0.0
220
0.0
230
1.0
 70
    11
 71
     3
 72
    17
 73
    13
 74
     0
 42
0.0000000001
 43
0.0000000001
 12
1.0
 22
0.0
 32
0.0
 13
1.0
 23
0.0
 33
0.0
 40
0.0
 40
0.0
 40
0.0
 40
0.0
 40
1.0
 40
1.0
 40
1.0
 40
2.0
 40
2.0
 40
2.0
 40
3.0
 40
3.0
 40
3.0
 40
4.0
 40
4.0
 40
4.0
 40
4.0
 10
111.4727164002171
 20
-212.8571233278337
 30
0.0
 10
104.5691570294443
 20
-212.8571233278337
 30
0.0
 10
98.97271640334272
 20
-207.2606827017354
 30
0.0
 10
98.97271640334272
 20
-200.3571233309593
 30
0.0
 10
98.97271640334272
 20
-193.4535639601858
 30
0.0
 10
104.5691570294443
 20
-187.8571233340849
 30
0.0
 10
111.4727164002171
 20
-187.8571233340849
 30
0.0
 10
118.3762757709913
 20
-187.8571233340849
 30
0.0
 10
123.9727163970915
 20
-193.4535639601858
 30
0.0
 10
123.9727163970915
 20
-200.3571233309593
 30
0.0
 10
123.9727163970915
 20
-207.2606827017354
 30
0.0
 10
118.3762757709913
 20
-212.8571233278337
 30
0.0
 10
111.4727164002171
 20
-212.8571233278337
 30
0.0
  0
SPLINE
  5
9B
330
96
100
AcDbEntity
  8
Layer 1
370
     0
100
AcDbSpline
210
0.0
220
0.0
230
1.0
 70
    11
 71
     3
 72
    17
 73
    13
 74
     0
 42
0.0000000001
 43
0.0000000001
 12
1.0
 22
0.0
 32
0.0
 13
1.0
 23
0.0
 33
0.0
 40
0.0
 40
0.0
 40
0.0
 40
0.0
 40
1.0
 40
1.0
 40
1.0
 40
2.0
 40
2.0
 40
2.0
 40
3.0
 40
3.0
 40
3.0
 40
4.0
 40
4.0
 40
4.0
 40
4.0
 10
111.4727164002171
 20
-201.8571233305849
 30
0.0
 10
110.6442892757258
 20
-201.8571233305849
 30
0.0
 10
109.9727164005909
 20
-201.1855504554539
 30
0.0
 10
109.9727164005909
 20
-200.3571233309593
 30
0.0
 10
109.9727164005909
 20
-199.5286962064679
 30
0.0
 10
110.6442892757258
 20
-198.8571233313337
 30
0.0
 10
111.4727164002171
 20
-198.8571233313337
 30
0.0
 10
112.3011435247123
 20
-198.8571233313337
 30
0.0
 10
112.9727163998434
 20
-199.5286962064679
 30
0.0
 10
112.9727163998434
 20
-200.3571233309593
 30
0.0
 10
112.9727163998434
 20
-201.1855504554539
 30
0.0
 10
112.3011435247123
 20
-201.8571233305849
 30
0.0
 10
111.4727164002171
 20
-201.8571233305849
 30
0.0
  0
HATCH
  5
9C
330
96
100
AcDbEntity
  8
Layer 1
 62
   250
420
  1842203
100
AcDbHatch
 10
0.0
 20
0.0
 30
0.0
210
0.0
220
0.0
230
1.0
  2
SOLID
 70
     1
 71
     0
 91
        1
 92
        1
 93
        1
 72
     4
 94
        3
 73
     0
 74
     1
 95
       17
 96
       13
 40
0.0
 40
0.0
 40
0.0
 40
0.0
 40
1.0
 40
1.0
 40
1.0
 40
2.0
 40
2.0
 40
2.0
 40
3.0
 40
3.0
 40
3.0
 40
4.0
 40
4.0
 40
4.0
 40
4.0
 10
111.4727164002171
 20
-201.8571233305849
 10
110.6442892757258
 20
-201.8571233305849
 10
109.9727164005909
 20
-201.1855504554539
 10
109.9727164005909
 20
-200.3571233309593
 10
109.9727164005909
 20
-199.5286962064679
 10
110.6442892757258
 20
-198.8571233313337
 10
111.4727164002171
 20
-198.8571233313337
 10
112.3011435247123
 20
-198.8571233313337
 10
112.9727163998434
 20
-199.5286962064679
 10
112.9727163998434
 20
-200.3571233309593
 10
112.9727163998434
 20
-201.1855504554539
 10
112.3011435247123
 20
-201.8571233305849
 10
111.4727164002171
 20
-201.8571233305849
 97
        0
 97
        0
 75
     2
 76
     1
 98
        0
  0
ENDBLK
  5
99
330
96
100
AcDbEntity
  8
0
100
AcDbBlockEnd
  0
BLOCK
  5
9F
330
9D
100
AcDbEntity
  8
0
100
AcDbBlockBegin
  2
block 6
 70
     0
 10
0.0
 20
0.0
 30
0.0
  3
block 6
  1

  0
SPLINE
  5
A1
330
9D
100
AcDbEntity
  8
Layer 1
 62
   197
420
  6693762
370
    35
100
AcDbSpline
210
0.0
220
0.0
230
1.0
 70
    11
 71
     3
 72
    17
 73
    13
 74
     0
 42
0.0000000001
 43
0.0000000001
 12
1.0
 22
0.0
 32
0.0
 13
1.0
 23
0.0
 33
0.0
 40
0.0
 40
0.0
 40
0.0
 40
0.0
 40
1.0
 40
1.0
 40
1.0
 40
2.0
 40
2.0
 40
2.0
 40
3.0
 40
3.0
 40
3.0
 40
4.0
 40
4.0
 40
4.0
 40
4.0
 10
300.7552680170545
 20
-50.71424674941763
 30
0.0
 10
293.8517086462816
 20
-50.71424674941763
 30
0.0
 10
288.2552680201801
 20
-45.11780612331962
 30
0.0
 10
288.2552680201801
 20
-38.21424675254323
 30
0.0
 10
288.2552680201801
 20
-31.31068738176972
 30
0.0
 10
293.8517086462816
 20
-25.71424675566882
 30
0.0
 10
300.7552680170545
 20
-25.71424675566882
 30
0.0
 10
307.6588273878286
 20
-25.71424675566882
 30
0.0
 10
313.2552680139289
 20
-31.31068738176972
 30
0.0
 10
313.2552680139289
 20
-38.21424675254323
 30
0.0
 10
313.2552680139289
 20
-45.11780612331962
 30
0.0
 10
307.6588273878286
 20
-50.71424674941763
 30
0.0
 10
300.7552680170545
 20
-50.71424674941763
 30
0.0
  0
SPLINE
  5
A2
330
9D
100
AcDbEntity
  8
Layer 1
370
     0
100
AcDbSpline
210
0.0
220
0.0
230
1.0
 70
    11
 71
     3
 72
    17
 73
    13
 74
     0
 42
0.0000000001
 43
0.0000000001
 12
1.0
 22
0.0
 32
0.0
 13
1.0
 23
0.0
 33
0.0
 40
0.0
 40
0.0
 40
0.0
 40
0.0
 40
1.0
 40
1.0
 40
1.0
 40
2.0
 40
2.0
 40
2.0
 40
3.0
 40
3.0
 40
3.0
 40
4.0
 40
4.0
 40
4.0
 40
4.0
 10
300.7552680170545
 20
-39.71424675216885
 30
0.0
 10
299.9268408925631
 20
-39.71424675216885
 30
0.0
 10
299.2552680174283
 20
-39.04267387703779
 30
0.0
 10
299.2552680174283
 20
-38.21424675254323
 30
0.0
 10
299.2552680174283
 20
-37.38581962805187
 30
0.0
 10
299.9268408925631
 20
-36.7142467529176
 30
0.0
 10
300.7552680170545
 20
-36.7142467529176
 30
0.0
 10
301.5836951415497
 20
-36.7142467529176
 30
0.0
 10
302.2552680166808
 20
-37.38581962805187
 30
0.0
 10
302.2552680166808
 20
-38.21424675254323
 30
0.0
 10
302.2552680166808
 20
-39.04267387703779
 30
0.0
 10
301.5836951415497
 20
-39.71424675216885
 30
0.0
 10
300.7552680170545
 20
-39.71424675216885
 30
0.0
  0
HATCH
  5
A3
330
9D
100
AcDbEntity
  8
Layer 1
 62
   250
420
  1842203
100
AcDbHatch
 10
0.0
 20
0.0
 30
0.0
210
0.0
220
0.0
230
1.0
  2
SOLID
 70
     1
 71
     0
 91
        1
 92
        1
 93
        1
 72
     4
 94
        3
 73
     0
 74
     1
 95
       17
 96
       13
 40
0.0
 40
0.0
 40
0.0
 40
0.0
 40
1.0
 40
1.0
 40
1.0
 40
2.0
 40
2.0
 40
2.0
 40
3.0
 40
3.0
 40
3.0
 40
4.0
 40
4.0
 40
4.0
 40
4.0
 10
300.7552680170545
 20
-39.71424675216885
 10
299.9268408925631
 20
-39.71424675216885
 10
299.2552680174283
 20
-39.04267387703779
 10
299.2552680174283
 20
-38.21424675254323
 10
299.2552680174283
 20
-37.38581962805187
 10
299.9268408925631
 20
-36.7142467529176
 10
300.7552680170545
 20
-36.7142467529176
 10
301.5836951415497
 20
-36.7142467529176
 10
302.2552680166808
 20
-37.38581962805187
 10
302.2552680166808
 20
-38.21424675254323
 10
302.2552680166808
 20
-39.04267387703779
 10
301.5836951415497
 20
-39.71424675216885
 10
300.7552680170545
 20
-39.71424675216885
 97
        0
 97
        0
 75
     2
 76
     1
 98
        0
  0
ENDBLK
  5
A0
330
9D
100
AcDbEntity
  8
0
100
AcDbBlockEnd
  0
BLOCK
  5
A6
330
A4
100
AcDbEntity
  8
0
100
AcDbBlockBegin
  2
block 7
 70
     0
 10
0.0
 20
0.0
 30
0.0
  3
block 7
  1

  0
SPLINE
  5
A8
330
A4
100
AcDbEntity
  8
Layer 1
 62
   197
420
  6693762
370
    35
100
AcDbSpline
210
0.0
220
0.0
230
1.0
 70
    11
 71
     3
 72
    17
 73
    13
 74
     0
 42
0.0000000001
 43
0.0000000001
 12
1.0
 22
0.0
 32
0.0
 13
1.0
 23
0.0
 33
0.0
 40
0.0
 40
0.0
 40
0.0
 40
0.0
 40
1.0
 40
1.0
 40
1.0
 40
2.0
 40
2.0
 40
2.0
 40
3.0
 40
3.0
 40
3.0
 40
4.0
 40
4.0
 40
4.0
 40
4.0
 10
300.7552680170545
 20
-374.9999999062495
 30
0.0
 10
293.8517086462816
 20
-374.9999999062495
 30
0.0
 10
288.2552680201801
 20
-369.4035592801517
 30
0.0
 10
288.2552680201801
 20
-362.499999909375
 30
0.0
 10
288.2552680201801
 20
-355.5964405386015
 30
0.0
 10
293.8517086462816
 20
-349.9999999125013
 30
0.0
 10
300.7552680170545
 20
-349.9999999125013
 30
0.0
 10
307.6588273878286
 20
-349.9999999125013
 30
0.0
 10
313.2552680139289
 20
-355.5964405386015
 30
0.0
 10
313.2552680139289
 20
-362.499999909375
 30
0.0
 10
313.2552680139289
 20
-369.4035592801517
 30
0.0
 10
307.6588273878286
 20
-374.9999999062495
 30
0.0
 10
300.7552680170545
 20
-374.9999999062495
 30
0.0
  0
SPLINE
  5
A9
330
A4
100
AcDbEntity
  8
Layer 1
370
     0
100
AcDbSpline
210
0.0
220
0.0
230
1.0
 70
    11
 71
     3
 72
    17
 73
    13
 74
     0
 42
0.0000000001
 43
0.0000000001
 12
1.0
 22
0.0
 32
0.0
 13
1.0
 23
0.0
 33
0.0
 40
0.0
 40
0.0
 40
0.0
 40
0.0
 40
1.0
 40
1.0
 40
1.0
 40
2.0
 40
2.0
 40
2.0
 40
3.0
 40
3.0
 40
3.0
 40
4.0
 40
4.0
 40
4.0
 40
4.0
 10
300.7552680170545
 20
-363.9999999090007
 30
0.0
 10
299.9268408925631
 20
-363.9999999090007
 30
0.0
 10
299.2552680174283
 20
-363.3284270338696
 30
0.0
 10
299.2552680174283
 20
-362.499999909375
 30
0.0
 10
299.2552680174283
 20
-361.6715727848837
 30
0.0
 10
299.9268408925631
 20
-360.9999999097488
 30
0.0
 10
300.7552680170545
 20
-360.9999999097488
 30
0.0
 10
301.5836951415497
 20
-360.9999999097488
 30
0.0
 10
302.2552680166808
 20
-361.6715727848837
 30
0.0
 10
302.2552680166808
 20
-362.499999909375
 30
0.0
 10
302.2552680166808
 20
-363.3284270338696
 30
0.0
 10
301.5836951415497
 20
-363.9999999090007
 30
0.0
 10
300.7552680170545
 20
-363.9999999090007
 30
0.0
  0
HATCH
  5
AA
330
A4
100
AcDbEntity
  8
Layer 1
 62
   250
420
  1842203
100
AcDbHatch
 10
0.0
 20
0.0
 30
0.0
210
0.0
220
0.0
230
1.0
  2
SOLID
 70
     1
 71
     0
 91
        1
 92
        1
 93
        1
 72
     4
 94
        3
 73
     0
 74
     1
 95
       17
 96
       13
 40
0.0
 40
0.0
 40
0.0
 40
0.0
 40
1.0
 40
1.0
 40
1.0
 40
2.0
 40
2.0
 40
2.0
 40
3.0
 40
3.0
 40
3.0
 40
4.0
 40
4.0
 40
4.0
 40
4.0
 10
300.7552680170545
 20
-363.9999999090007
 10
299.9268408925631
 20
-363.9999999090007
 10
299.2552680174283
 20
-363.3284270338696
 10
299.2552680174283
 20
-362.499999909375
 10
299.2552680174283
 20
-361.6715727848837
 10
299.9268408925631
 20
-360.9999999097488
 10
300.7552680170545
 20
-360.9999999097488
 10
301.5836951415497
 20
-360.9999999097488
 10
302.2552680166808
 20
-361.6715727848837
 10
302.2552680166808
 20
-362.499999909375
 10
302.2552680166808
 20
-363.3284270338696
 10
301.5836951415497
 20
-363.9999999090007
 10
300.7552680170545
 20
-363.9999999090007
 97
        0
 97
        0
 75
     2
 76
     1
 98
        0
  0
ENDBLK
  5
A7
330
A4
100
AcDbEntity
  8
0
100
AcDbBlockEnd
  0
BLOCK
  5
AD
330
AB
100
AcDbEntity
  8
0
100
AcDbBlockBegin
  2
block 8
 70
     0
 10
0.0
 20
0.0
 30
0.0
  3
block 8
  1

  0
SPLINE
  5
AF
330
AB
100
AcDbEntity
  8
Layer 1
 62
   197
420
  6693762
370
    35
100
AcDbSpline
210
0.0
220
0.0
230
1.0
 70
    11
 71
     3
 72
    17
 73
    13
 74
     0
 42
0.0000000001
 43
0.0000000001
 12
1.0
 22
0.0
 32
0.0
 13
1.0
 23
0.0
 33
0.0
 40
0.0
 40
0.0
 40
0.0
 40
0.0
 40
1.0
 40
1.0
 40
1.0
 40
2.0
 40
2.0
 40
2.0
 40
3.0
 40
3.0
 40
3.0
 40
4.0
 40
4.0
 40
4.0
 40
4.0
 10
490.0378196338912
 20
-374.9999999062495
 30
0.0
 10
483.1342602631177
 20
-374.9999999062495
 30
0.0
 10
477.5378196370168
 20
-369.4035592801517
 30
0.0
 10
477.5378196370168
 20
-362.499999909375
 30
0.0
 10
477.5378196370168
 20
-355.5964405386015
 30
0.0
 10
483.1342602631177
 20
-349.9999999125013
 30
0.0
 10
490.0378196338912
 20
-349.9999999125013
 30
0.0
 10
496.9413790046673
 20
-349.9999999125013
 30
0.0
 10
502.5378196307656
 20
-355.5964405386015
 30
0.0
 10
502.5378196307656
 20
-362.499999909375
 30
0.0
 10
502.5378196307656
 20
-369.4035592801517
 30
0.0
 10
496.9413790046673
 20
-374.9999999062495
 30
0.0
 10
490.0378196338912
 20
-374.9999999062495
 30
0.0
  0
SPLINE
  5
B0
330
AB
100
AcDbEntity
  8
Layer 1
370
     0
100
AcDbSpline
210
0.0
220
0.0
230
1.0
 70
    11
 71
     3
 72
    17
 73
    13
 74
     0
 42
0.0000000001
 43
0.0000000001
 12
1.0
 22
0.0
 32
0.0
 13
1.0
 23
0.0
 33
0.0
 40
0.0
 40
0.0
 40
0.0
 40
0.0
 40
1.0
 40
1.0
 40
1.0
 40
2.0
 40
2.0
 40
2.0
 40
3.0
 40
3.0
 40
3.0
 40
4.0
 40
4.0
 40
4.0
 40
4.0
 10
490.0378196338912
 20
-363.9999999090007
 30
0.0
 10
489.2093925093999
 20
-363.9999999090007
 30
0.0
 10
488.537819634265
 20
-363.3284270338696
 30
0.0
 10
488.537819634265
 20
-362.499999909375
 30
0.0
 10
488.537819634265
 20
-361.6715727848837
 30
0.0
 10
489.2093925093999
 20
-360.9999999097488
 30
0.0
 10
490.0378196338912
 20
-360.9999999097488
 30
0.0
 10
490.8662467583858
 20
-360.9999999097488
 30
0.0
 10
491.5378196335168
 20
-361.6715727848837
 30
0.0
 10
491.5378196335168
 20
-362.499999909375
 30
0.0
 10
491.5378196335168
 20
-363.3284270338696
 30
0.0
 10
490.8662467583858
 20
-363.9999999090007
 30
0.0
 10
490.0378196338912
 20
-363.9999999090007
 30
0.0
  0
HATCH
  5
B1
330
AB
100
AcDbEntity
  8
Layer 1
 62
   250
420
  1842203
100
AcDbHatch
 10
0.0
 20
0.0
 30
0.0
210
0.0
220
0.0
230
1.0
  2
SOLID
 70
     1
 71
     0
 91
        1
 92
        1
 93
        1
 72
     4
 94
        3
 73
     0
 74
     1
 95
       17
 96
       13
 40
0.0
 40
0.0
 40
0.0
 40
0.0
 40
1.0
 40
1.0
 40
1.0
 40
2.0
 40
2.0
 40
2.0
 40
3.0
 40
3.0
 40
3.0
 40
4.0
 40
4.0
 40
4.0
 40
4.0
 10
490.0378196338912
 20
-363.9999999090007
 10
489.2093925093999
 20
-363.9999999090007
 10
488.537819634265
 20
-363.3284270338696
 10
488.537819634265
 20
-362.499999909375
 10
488.537819634265
 20
-361.6715727848837
 10
489.2093925093999
 20
-360.9999999097488
 10
490.0378196338912
 20
-360.9999999097488
 10
490.8662467583858
 20
-360.9999999097488
 10
491.5378196335168
 20
-361.6715727848837
 10
491.5378196335168
 20
-362.499999909375
 10
491.5378196335168
 20
-363.3284270338696
 10
490.8662467583858
 20
-363.9999999090007
 10
490.0378196338912
 20
-363.9999999090007
 97
        0
 97
        0
 75
     2
 76
     1
 98
        0
  0
ENDBLK
  5
AE
330
AB
100
AcDbEntity
  8
0
100
AcDbBlockEnd
  0
BLOCK
  5
B4
330
B2
100
AcDbEntity
  8
0
100
AcDbBlockBegin
  2
block 9
 70
     0
 10
0.0
 20
0.0
 30
0.0
  3
block 9
  1

  0
SPLINE
  5
B6
330
B2
100
AcDbEntity
  8
Layer 1
 62
   197
420
  6693762
370
    35
100
AcDbSpline
210
0.0
220
0.0
230
1.0
 70
    11
 71
     3
 72
    17
 73
    13
 74
     0
 42
0.0000000001
 43
0.0000000001
 12
1.0
 22
0.0
 32
0.0
 13
1.0
 23
0.0
 33
0.0
 40
0.0
 40
0.0
 40
0.0
 40
0.0
 40
1.0
 40
1.0
 40
1.0
 40
2.0
 40
2.0
 40
2.0
 40
3.0
 40
3.0
 40
3.0
 40
4.0
 40
4.0
 40
4.0
 40
4.0
 10
111.4727164002171
 20
-374.9999999062495
 30
0.0
 10
104.5691570294443
 20
-374.9999999062495
 30
0.0
 10
98.97271640334272
 20
-369.4035592801517
 30
0.0
 10
98.97271640334272
 20
-362.499999909375
 30
0.0
 10
98.97271640334272
 20
-355.5964405386015
 30
0.0
 10
104.5691570294443
 20
-349.9999999125013
 30
0.0
 10
111.4727164002171
 20
-349.9999999125013
 30
0.0
 10
118.3762757709913
 20
-349.9999999125013
 30
0.0
 10
123.9727163970915
 20
-355.5964405386015
 30
0.0
 10
123.9727163970915
 20
-362.499999909375
 30
0.0
 10
123.9727163970915
 20
-369.4035592801517
 30
0.0
 10
118.3762757709913
 20
-374.9999999062495
 30
0.0
 10
111.4727164002171
 20
-374.9999999062495
 30
0.0
  0
SPLINE
  5
B7
330
B2
100
AcDbEntity
  8
Layer 1
370
     0
100
AcDbSpline
210
0.0
220
0.0
230
1.0
 70
    11
 71
     3
 72
    17
 73
    13
 74
     0
 42
0.0000000001
 43
0.0000000001
 12
1.0
 22
0.0
 32
0.0
 13
1.0
 23
0.0
 33
0.0
 40
0.0
 40
0.0
 40
0.0
 40
0.0
 40
1.0
 40
1.0
 40
1.0
 40
2.0
 40
2.0
 40
2.0
 40
3.0
 40
3.0
 40
3.0
 40
4.0
 40
4.0
 40
4.0
 40
4.0
 10
111.4727164002171
 20
-363.9999999090007
 30
0.0
 10
110.6442892757258
 20
-363.9999999090007
 30
0.0
 10
109.9727164005909
 20
-363.3284270338696
 30
0.0
 10
109.9727164005909
 20
-362.499999909375
 30
0.0
 10
109.9727164005909
 20
-361.6715727848837
 30
0.0
 10
110.6442892757258
 20
-360.9999999097488
 30
0.0
 10
111.4727164002171
 20
-360.9999999097488
 30
0.0
 10
112.3011435247123
 20
-360.9999999097488
 30
0.0
 10
112.9727163998434
 20
-361.6715727848837
 30
0.0
 10
112.9727163998434
 20
-362.499999909375
 30
0.0
 10
112.9727163998434
 20
-363.3284270338696
 30
0.0
 10
112.3011435247123
 20
-363.9999999090007
 30
0.0
 10
111.4727164002171
 20
-363.9999999090007
 30
0.0
  0
HATCH
  5
B8
330
B2
100
AcDbEntity
  8
Layer 1
 62
   250
420
  1842203
100
AcDbHatch
 10
0.0
 20
0.0
 30
0.0
210
0.0
220
0.0
230
1.0
  2
SOLID
 70
     1
 71
     0
 91
        1
 92
        1
 93
        1
 72
     4
 94
        3
 73
     0
 74
     1
 95
       17
 96
       13
 40
0.0
 40
0.0
 40
0.0
 40
0.0
 40
1.0
 40
1.0
 40
1.0
 40
2.0
 40
2.0
 40
2.0
 40
3.0
 40
3.0
 40
3.0
 40
4.0
 40
4.0
 40
4.0
 40
4.0
 10
111.4727164002171
 20
-363.9999999090007
 10
110.6442892757258
 20
-363.9999999090007
 10
109.9727164005909
 20
-363.3284270338696
 10
109.9727164005909
 20
-362.499999909375
 10
109.9727164005909
 20
-361.6715727848837
 10
110.6442892757258
 20
-360.9999999097488
 10
111.4727164002171
 20
-360.9999999097488
 10
112.3011435247123
 20
-360.9999999097488
 10
112.9727163998434
 20
-361.6715727848837
 10
112.9727163998434
 20
-362.499999909375
 10
112.9727163998434
 20
-363.3284270338696
 10
112.3011435247123
 20
-363.9999999090007
 10
111.4727164002171
 20
-363.9999999090007
 97
        0
 97
        0
 75
     2
 76
     1
 98
        0
  0
ENDBLK
  5
B5
330
B2
100
AcDbEntity
  8
0
100
AcDbBlockEnd
  0
ENDSEC
  0
SECTION
  2
ENTITIES
  0
SPLINE
  5
41
330
1F
100
AcDbEntity
  8
Layer 1
370
     0
100
AcDbSpline
210
0.0
220
0.0
230
1.0
 70
    11
 71
     3
 72
   221
 73
   217
 74
     0
 42
0.0000000001
 43
0.0000000001
 12
1.0
 22
0.0
 32
0.0
 13
1.0
 23
0.0
 33
0.0
 40
0.0
 40
0.0
 40
0.0
 40
0.0
 40
1.0
 40
1.0
 40
1.0
 40
2.0
 40
2.0
 40
2.0
 40
3.0
 40
3.0
 40
3.0
 40
4.0
 40
4.0
 40
4.0
 40
5.0
 40
5.0
 40
5.0
 40
6.0
 40
6.0
 40
6.0
 40
7.0
 40
7.0
 40
7.0
 40
8.0
 40
8.0
 40
8.0
 40
9.0
 40
9.0
 40
9.0
 40
10.0
 40
10.0
 40
10.0
 40
11.0
 40
11.0
 40
11.0
 40
12.0
 40
12.0
 40
12.0
 40
13.0
 40
13.0
 40
13.0
 40
14.0
 40
14.0
 40
14.0
 40
15.0
 40
15.0
 40
15.0
 40
16.0
 40
16.0
 40
16.0
 40
17.0
 40
17.0
 40
17.0
 40
18.0
 40
18.0
 40
18.0
 40
19.0
 40
19.0
 40
19.0
 40
20.0
 40
20.0
 40
20.0
 40
21.0
 40
21.0
 40
21.0
 40
22.0
 40
22.0
 40
22.0
 40
23.0
 40
23.0
 40
23.0
 40
24.0
 40
24.0
 40
24.0
 40
25.0
 40
25.0
 40
25.0
 40
26.0
 40
26.0
 40
26.0
 40
27.0
 40
27.0
 40
27.0
 40
28.0
 40
28.0
 40
28.0
 40
29.0
 40
29.0
 40
29.0
 40
30.0
 40
30.0
 40
30.0
 40
31.0
 40
31.0
 40
31.0
 40
32.0
 40
32.0
 40
32.0
 40
33.0
 40
33.0
 40
33.0
 40
34.0
 40
34.0
 40
34.0
 40
35.0
 40
35.0
 40
35.0
 40
36.0
 40
36.0
 40
36.0
 40
37.0
 40
37.0
 40
37.0
 40
38.0
 40
38.0
 40
38.0
 40
39.0
 40
39.0
 40
39.0
 40
40.0
 40
40.0
 40
40.0
 40
41.0
 40
41.0
 40
41.0
 40
42.0
 40
42.0
 40
42.0
 40
43.0
 40
43.0
 40
43.0
 40
44.0
 40
44.0
 40
44.0
 40
45.0
 40
45.0
 40
45.0
 40
46.0
 40
46.0
 40
46.0
 40
47.0
 40
47.0
 40
47.0
 40
48.0
 40
48.0
 40
48.0
 40
49.0
 40
49.0
 40
49.0
 40
50.0
 40
50.0
 40
50.0
 40
51.0
 40
51.0
 40
51.0
 40
52.0
 40
52.0
 40
52.0
 40
53.0
 40
53.0
 40
53.0
 40
54.0
 40
54.0
 40
54.0
 40
55.0
 40
55.0
 40
55.0
 40
56.0
 40
56.0
 40
56.0
 40
57.0
 40
57.0
 40
57.0
 40
58.0
 40
58.0
 40
58.0
 40
59.0
 40
59.0
 40
59.0
 40
60.0
 40
60.0
 40
60.0
 40
61.0
 40
61.0
 40
61.0
 40
62.0
 40
62.0
 40
62.0
 40
63.0
 40
63.0
 40
63.0
 40
64.0
 40
64.0
 40
64.0
 40
65.0
 40
65.0
 40
65.0
 40
66.0
 40
66.0
 40
66.0
 40
67.0
 40
67.0
 40
67.0
 40
68.0
 40
68.0
 40
68.0
 40
69.0
 40
69.0
 40
69.0
 40
70.0
 40
70.0
 40
70.0
 40
71.0
 40
71.0
 40
71.0
 40
72.0
 40
72.0
 40
72.0
 40
72.0
 10
404.6666513288341
 20
-332.0257495606886
 30
0.0
 10
404.195017329023
 20
-331.5978691730526
 30
0.0
 10
403.5790340171691
 20
-331.3587801623618
 30
0.0
 10
402.9323895880436
 20
-331.3522351275813
 30
0.0
 10
402.9237768493305
 20
-331.352235136196
 30
0.0
 10
402.9155086201659
 20
-331.3522351444618
 30
0.0
 10
402.9072403910013
 20
-331.3522351527307
 30
0.0
 10
402.317095534378
 20
-331.352235742875
 30
0.0
 10
401.7448653727151
 20
-331.5506738150522
 30
0.0
 10
401.2932137159877
 20
-331.9120647831097
 30
0.0
 10
401.2377477231186
 20
-331.9565065703327
 30
0.0
 10
401.1836597708526
 20
-332.0033599230235
 30
0.0
 10
401.1295718185897
 20
-332.0502132757072
 30
0.0
 10
400.9834998971389
 20
-332.1773374451842
 30
0.0
 10
400.8453516880684
 20
-332.2972269062261
 30
0.0
 10
400.6858438256692
 20
-332.3557936889799
 30
0.0
 10
400.4691473999184
 20
-332.4360646304835
 30
0.0
 10
400.1931952136543
 20
-332.3981688560955
 30
0.0
 10
399.9499713297678
 20
-332.2555421462288
 30
0.0
 10
399.3512133840663
 20
-331.9051765341457
 30
0.0
 10
399.2692195926838
 20
-331.3863452360557
 30
0.0
 10
399.1744788660166
 20
-330.7855206781704
 30
0.0
 10
399.1052320071703
 20
-330.3459265634957
 30
0.0
 10
399.0335735666676
 20
-329.8915185406511
 30
0.0
 10
398.7469412112943
 20
-329.4805189358923
 30
0.0
 10
398.2725508829149
 20
-328.8004575614948
 30
0.0
 10
397.460886068607
 20
-328.4824760598708
 30
0.0
 10
396.7250138796643
 20
-328.6891825248587
 30
0.0
 10
396.3973853906581
 20
-328.7808223923948
 30
0.0
 10
396.1017963613207
 20
-328.9441202139808
 30
0.0
 10
395.8158535938285
 20
-329.1019058731528
 30
0.0
 10
395.8158535938285
 20
-329.1019058731528
 30
0.0
 10
395.7772685457545
 20
-329.1232655037447
 30
0.0
 10
395.7772685457545
 20
-329.1232655037447
 30
0.0
 10
395.3859059142936
 20
-329.3389288724788
 30
0.0
 10
391.1119226143353
 20
-331.4979744870687
 30
0.0
 10
390.2592618968703
 20
-331.9131093457092
 30
0.0
 10
389.1368476314926
 20
-329.7568252038993
 30
0.0
 10
386.766620553401
 20
-328.3725882081555
 30
0.0
 10
384.1697075766228
 20
-328.3725908050693
 30
0.0
 10
384.1697075766228
 20
-328.3725908050693
 30
0.0
 10
384.1697077528391
 20
-328.5488074391398
 30
0.0
 10
384.1697077528391
 20
-328.5488074391398
 30
0.0
 10
384.1697077528391
 20
-328.5488074391398
 30
0.0
 10
384.1697077528391
 20
-328.5488074391398
 30
0.0
 10
384.1697077528391
 20
-328.5488074391398
 30
0.0
 10
384.1697077528391
 20
-328.5488074391398
 30
0.0
 10
384.1256103557874
 20
-328.3739688873603
 30
0.0
 10
384.1256103557874
 20
-328.3739688873603
 30
0.0
 10
384.1256103557874
 20
-328.3739688873603
 30
0.0
 10
384.0449951200568
 20
-328.3725909297758
 30
0.0
 10
384.0449951200568
 20
-328.3725909297758
 30
0.0
 10
381.4470486146299
 20
-328.372593527727
 30
0.0
 10
379.076479796161
 20
-329.7575242833685
 30
0.0
 10
377.9554478808561
 20
-331.9131216495254
 30
0.0
 10
377.1031308430162
 20
-331.4983330054123
 30
0.0
 10
372.8291432249765
 20
-329.339295938794
 30
0.0
 10
372.4374356522942
 20
-329.1232888435753
 30
0.0
 10
372.4374356522942
 20
-329.1232888435753
 30
0.0
 10
372.3988505615024
 20
-329.1019292901535
 30
0.0
 10
372.3988505615024
 20
-329.1019292901535
 30
0.0
 10
372.1129074784399
 20
-328.9441442028701
 30
0.0
 10
371.8173181225078
 20
-328.7808469724577
 30
0.0
 10
371.4896894502234
 20
-328.6892077601784
 30
0.0
 10
370.7545058669644
 20
-328.4825027662452
 30
0.0
 10
369.9421526698682
 20
-328.800830401438
 30
0.0
 10
369.4677637012671
 20
-329.4805482150686
 30
0.0
 10
369.1811321678948
 20
-329.8915483930872
 30
0.0
 10
369.1094746362106
 20
-330.3459565592515
 30
0.0
 10
369.0402286565504
 20
-330.7855508124125
 30
0.0
 10
368.945489131532
 20
-331.3863755597824
 30
0.0
 10
368.8634963778134
 20
-331.9052070218568
 30
0.0
 10
368.2647391328421
 20
-332.2555738314664
 30
0.0
 10
368.0211710246629
 20
-332.3982010281165
 30
0.0
 10
367.7462524428354
 20
-332.436097353378
 30
0.0
 10
367.5285223279001
 20
-332.3558268462988
 30
0.0
 10
367.3690143483645
 20
-332.297260382558
 30
0.0
 10
367.2312104090665
 20
-332.1773711974768
 30
0.0
 10
367.0851382337108
 20
-332.0505918296947
 30
0.0
 10
367.0310501873942
 20
-332.0033940756305
 30
0.0
 10
366.9769621414233
 20
-331.9565408311192
 30
0.0
 10
366.921496059668
 20
-331.9120991548267
 30
0.0
 10
366.4694991702685
 20
-331.5503645808684
 30
0.0
 10
365.8972686120767
 20
-331.3522721627004
 30
0.0
 10
365.3071237554533
 20
-331.3522727528447
 30
0.0
 10
365.2985110167402
 20
-331.3522727614563
 30
0.0
 10
365.2902427875757
 20
-331.3522727697252
 30
0.0
 10
365.281974558411
 20
-331.3522727779941
 30
0.0
 10
364.6356746519255
 20
-331.3588191057155
 30
0.0
 10
364.0196918182509
 20
-331.5979093483741
 30
0.0
 10
363.5477141646527
 20
-332.0257906796195
 30
0.0
 10
362.9110610956888
 20
-332.602500300505
 30
0.0
 10
362.5875675174248
 20
-333.490301730544
 30
0.0
 10
362.7040125967985
 20
-334.3422737276048
 30
0.0
 10
362.8059881683342
 20
-335.0874477790945
 30
0.0
 10
363.2056198823116
 20
-335.725134553777
 30
0.0
 10
363.8291825782093
 20
-336.1382008788951
 30
0.0
 10
364.4627360579041
 20
-336.5581573849969
 30
0.0
 10
365.2526965784154
 20
-336.6839025802475
 30
0.0
 10
365.9975260201001
 20
-336.481674730433
 30
0.0
 10
366.3678736841666
 20
-336.381077571918
 30
0.0
 10
366.7116940382393
 20
-336.2057218679016
 30
0.0
 10
366.9914355604766
 20
-335.9745556810952
 30
0.0
 10
366.9914355604766
 20
-335.9745556810952
 30
0.0
 10
367.0789409124211
 20
-335.9011750597528
 30
0.0
 10
367.0789409124211
 20
-335.9011750597528
 30
0.0
 10
367.3111401520988
 20
-335.7051488944401
 30
0.0
 10
367.4909739810549
 20
-335.5497749082268
 30
0.0
 10
367.776572426066
 20
-335.5790579342537
 30
0.0
 10
368.4311406357888
 20
-335.6465811511956
 30
0.0
 10
368.875559011028
 20
-336.7042250207484
 30
0.0
 10
368.7666952260066
 20
-337.9365357846859
 30
0.0
 10
368.7666952260066
 20
-337.9365357846859
 30
0.0
 10
368.7694514054028
 20
-338.03954413694
 30
0.0
 10
368.7694514054028
 20
-338.03954413694
 30
0.0
 10
368.7694516096961
 20
-338.2438382992153
 30
0.0
 10
369.0033738050195
 20
-338.4557114376345
 30
0.0
 10
369.3606305072512
 20
-338.7561234066939
 30
0.0
 10
369.450203065313
 20
-338.8315709082468
 30
0.0
 10
369.5280622873616
 20
-338.8956496064144
 30
0.0
 10
369.56492485005
 20
-338.9366462058277
 30
0.0
 10
369.56492485005
 20
-338.9366462058277
 30
0.0
 10
369.6434731153082
 20
-339.0248405717005
 30
0.0
 10
369.6434731153082
 20
-339.0248405717005
 30
0.0
 10
369.8763618329696
 20
-339.2877011243389
 30
0.0
 10
370.1175187884136
 20
-339.5591744074171
 30
0.0
 10
370.4613394773468
 20
-339.7186819845638
 30
0.0
 10
370.7614074339845
 20
-339.8585525611956
 30
0.0
 10
371.1038499572577
 20
-339.890591606767
 30
0.0
 10
371.4259663048578
 20
-339.8103205598431
 30
0.0
 10
371.5527457870176
 20
-339.7786255545971
 30
0.0
 10
371.7356802515214
 20
-339.6728609402669
 30
0.0
 10
371.9668460252565
 20
-339.5395355138272
 30
0.0
 10
372.3082547911288
 20
-339.342820220208
 30
0.0
 10
372.8794512932337
 20
-339.0134685206212
 30
0.0
 10
373.1199190259715
 20
-339.0813366612135
 30
0.0
 10
373.1550590095658
 20
-339.0909828934315
 30
0.0
 10
373.1767631286945
 20
-339.1085528587041
 30
0.0
 10
373.188820981841
 20
-339.1275008718147
 30
0.0
 10
373.1967447338385
 20
-339.1598847614453
 30
0.0
 10
373.1864095524609
 20
-339.2649601840858
 30
0.0
 10
373.1815864690805
 20
-339.3152585829928
 30
0.0
 10
373.1771078921441
 20
-339.3624563956172
 30
0.0
 10
373.1733183291403
 20
-339.4044865643297
 30
0.0
 10
373.1733183580823
 20
-339.4334253664058
 30
0.0
 10
373.1733183580823
 20
-339.4334253664058
 30
0.0
 10
373.1836579722641
 20
-343.7611543046402
 30
0.0
 10
373.1836579722641
 20
-343.7611543046402
 30
0.0
 10
373.1836579722641
 20
-343.7611543046402
 30
0.0
 10
395.0310755015142
 20
-343.7611324572218
 30
0.0
 10
395.0310755015142
 20
-343.7611324572218
 30
0.0
 10
395.0310755015142
 20
-343.7611324572218
 30
0.0
 10
395.0310749027583
 20
-343.1623748618854
 30
0.0
 10
395.0310749027583
 20
-343.1623748618854
 30
0.0
 10
395.0310749027583
 20
-343.1623748618854
 30
0.0
 10
395.041410202306
 20
-343.1754662143929
 30
0.0
 10
395.041410202306
 20
-343.1754662143929
 30
0.0
 10
395.041410202306
 20
-343.1754662143929
 30
0.0
 10
395.04140646024
 20
-339.4334034983145
 30
0.0
 10
395.04140646024
 20
-339.4334034983145
 30
0.0
 10
395.0414064313019
 20
-339.4044646962384
 30
0.0
 10
395.0376167842381
 20
-339.3624345351146
 30
0.0
 10
395.0331381125671
 20
-339.3148922218986
 30
0.0
 10
395.0283149282429
 20
-339.2642493230839
 30
0.0
 10
395.0179795367121
 20
-339.1591739211203
 30
0.0
 10
395.0193575576805
 20
-339.141948442315
 30
0.0
 10
395.0376165303371
 20
-339.1085309978517
 30
0.0
 10
395.0593206143219
 20
-339.0909609891702
 30
0.0
 10
395.0948050881752
 20
-339.0813146863256
 30
0.0
 10
395.3342391551531
 20
-339.0120680276458
 30
0.0
 10
395.9071588650799
 20
-339.342796621308
 30
0.0
 10
396.2478790052833
 20
-339.5395112327922
 30
0.0
 10
396.4790450456687
 20
-339.6728361969064
 30
0.0
 10
396.6619797217022
 20
-339.7786004453673
 30
0.0
 10
396.7887592672529
 20
-339.8102951970537
 30
0.0
 10
397.109842246749
 20
-339.8905656007763
 30
0.0
 10
397.4529737250405
 20
-339.8585258696341
 30
0.0
 10
397.7530414019365
 20
-339.7186546928598
 30
0.0
 10
398.0972062814046
 20
-339.5591464277296
 30
0.0
 10
398.3383626938955
 20
-339.2876726623369
 30
0.0
 10
398.5712508858399
 20
-339.0248116439225
 30
0.0
 10
398.5712508858399
 20
-339.0248116439225
 30
0.0
 10
398.6497989747091
 20
-338.9366171209542
 30
0.0
 10
398.6497989747091
 20
-338.9366171209542
 30
0.0
 10
398.6866614550592
 20
-338.8952759382694
 30
0.0
 10
398.7648650584962
 20
-338.83119708404
 30
0.0
 10
398.8547819748701
 20
-338.7554048934412
 30
0.0
 10
399.2113490575241
 20
-338.4553367201133
 30
0.0
 10
399.4452708290977
 20
-338.2434631138506
 30
0.0
 10
399.4452706251503
 20
-338.0395134611238
 30
0.0
 10
399.4452706251503
 20
-338.0395134611238
 30
0.0
 10
399.4545723547097
 20
-338.0112636688414
 30
0.0
 10
399.4545723547097
 20
-338.0112636688414
 30
0.0
 10
399.4545723547097
 20
-338.0112636688414
 30
0.0
 10
399.4480265985272
 20
-337.9365051033633
 30
0.0
 10
399.4480265985272
 20
-337.9365051033633
 30
0.0
 10
399.3391603488841
 20
-336.7041945571492
 30
0.0
 10
399.7835766088362
 20
-335.6465497987585
 30
0.0
 10
400.4381446835116
 20
-335.5790252726825
 30
0.0
 10
400.7227095392417
 20
-335.5476746192021
 30
0.0
 10
400.9035772093129
 20
-335.7047707924602
 30
0.0
 10
401.1357768413889
 20
-335.9011410029213
 30
0.0
 10
401.1357768413889
 20
-335.9011410029213
 30
0.0
 10
401.2232823400957
 20
-335.9745214492505
 30
0.0
 10
401.2232823400957
 20
-335.9745214492505
 30
0.0
 10
401.5030243246631
 20
-336.2056870765685
 30
0.0
 10
401.8465005198976
 20
-336.3810420932932
 30
0.0
 10
402.2168483851599
 20
-336.48163851112
 30
0.0
 10
402.9616782319851
 20
-336.6845538903709
 30
0.0
 10
403.7519830098662
 20
-336.5581180957514
 30
0.0
 10
404.3858801591948
 20
-336.1381603222035
 30
0.0
 10
405.009097519409
 20
-335.7250927503014
 30
0.0
 10
405.4087279580096
 20
-335.0874051763514
 30
0.0
 10
405.5103575296521
 20
-334.342230921264
 30
0.0
 10
405.627145414975
 20
-333.4906032005268
 30
0.0
 10
405.3036500611099
 20
-332.602802417468
 30
0.0
 10
404.6666513288341
 20
-332.0257495606886
 30
0.0
  0
HATCH
  5
42
330
1F
100
AcDbEntity
  8
Layer 1
 62
    85
420
  6730542
100
AcDbHatch
 10
0.0
 20
0.0
 30
0.0
210
0.0
220
0.0
230
1.0
  2
SOLID
 70
     1
 71
     0
 91
        1
 92
        1
 93
        1
 72
     4
 94
        3
 73
     0
 74
     1
 95
      221
 96
      217
 40
0.0
 40
0.0
 40
0.0
 40
0.0
 40
1.0
 40
1.0
 40
1.0
 40
2.0
 40
2.0
 40
2.0
 40
3.0
 40
3.0
 40
3.0
 40
4.0
 40
4.0
 40
4.0
 40
5.0
 40
5.0
 40
5.0
 40
6.0
 40
6.0
 40
6.0
 40
7.0
 40
7.0
 40
7.0
 40
8.0
 40
8.0
 40
8.0
 40
9.0
 40
9.0
 40
9.0
 40
10.0
 40
10.0
 40
10.0
 40
11.0
 40
11.0
 40
11.0
 40
12.0
 40
12.0
 40
12.0
 40
13.0
 40
13.0
 40
13.0
 40
14.0
 40
14.0
 40
14.0
 40
15.0
 40
15.0
 40
15.0
 40
16.0
 40
16.0
 40
16.0
 40
17.0
 40
17.0
 40
17.0
 40
18.0
 40
18.0
 40
18.0
 40
19.0
 40
19.0
 40
19.0
 40
20.0
 40
20.0
 40
20.0
 40
21.0
 40
21.0
 40
21.0
 40
22.0
 40
22.0
 40
22.0
 40
23.0
 40
23.0
 40
23.0
 40
24.0
 40
24.0
 40
24.0
 40
25.0
 40
25.0
 40
25.0
 40
26.0
 40
26.0
 40
26.0
 40
27.0
 40
27.0
 40
27.0
 40
28.0
 40
28.0
 40
28.0
 40
29.0
 40
29.0
 40
29.0
 40
30.0
 40
30.0
 40
30.0
 40
31.0
 40
31.0
 40
31.0
 40
32.0
 40
32.0
 40
32.0
 40
33.0
 40
33.0
 40
33.0
 40
34.0
 40
34.0
 40
34.0
 40
35.0
 40
35.0
 40
35.0
 40
36.0
 40
36.0
 40
36.0
 40
37.0
 40
37.0
 40
37.0
 40
38.0
 40
38.0
 40
38.0
 40
39.0
 40
39.0
 40
39.0
 40
40.0
 40
40.0
 40
40.0
 40
41.0
 40
41.0
 40
41.0
 40
42.0
 40
42.0
 40
42.0
 40
43.0
 40
43.0
 40
43.0
 40
44.0
 40
44.0
 40
44.0
 40
45.0
 40
45.0
 40
45.0
 40
46.0
 40
46.0
 40
46.0
 40
47.0
 40
47.0
 40
47.0
 40
48.0
 40
48.0
 40
48.0
 40
49.0
 40
49.0
 40
49.0
 40
50.0
 40
50.0
 40
50.0
 40
51.0
 40
51.0
 40
51.0
 40
52.0
 40
52.0
 40
52.0
 40
53.0
 40
53.0
 40
53.0
 40
54.0
 40
54.0
 40
54.0
 40
55.0
 40
55.0
 40
55.0
 40
56.0
 40
56.0
 40
56.0
 40
57.0
 40
57.0
 40
57.0
 40
58.0
 40
58.0
 40
58.0
 40
59.0
 40
59.0
 40
59.0
 40
60.0
 40
60.0
 40
60.0
 40
61.0
 40
61.0
 40
61.0
 40
62.0
 40
62.0
 40
62.0
 40
63.0
 40
63.0
 40
63.0
 40
64.0
 40
64.0
 40
64.0
 40
65.0
 40
65.0
 40
65.0
 40
66.0
 40
66.0
 40
66.0
 40
67.0
 40
67.0
 40
67.0
 40
68.0
 40
68.0
 40
68.0
 40
69.0
 40
69.0
 40
69.0
 40
70.0
 40
70.0
 40
70.0
 40
71.0
 40
71.0
 40
71.0
 40
72.0
 40
72.0
 40
72.0
 40
72.0
 10
404.6666513288341
 20
-332.0257495606886
 10
404.195017329023
 20
-331.5978691730526
 10
403.5790340171691
 20
-331.3587801623618
 10
402.9323895880436
 20
-331.3522351275813
 10
402.9237768493305
 20
-331.352235136196
 10
402.9155086201659
 20
-331.3522351444618
 10
402.9072403910013
 20
-331.3522351527307
 10
402.317095534378
 20
-331.352235742875
 10
401.7448653727151
 20
-331.5506738150522
 10
401.2932137159877
 20
-331.9120647831097
 10
401.2377477231186
 20
-331.9565065703327
 10
401.1836597708526
 20
-332.0033599230235
 10
401.1295718185897
 20
-332.0502132757072
 10
400.9834998971389
 20
-332.1773374451842
 10
400.8453516880684
 20
-332.2972269062261
 10
400.6858438256692
 20
-332.3557936889799
 10
400.4691473999184
 20
-332.4360646304835
 10
400.1931952136543
 20
-332.3981688560955
 10
399.9499713297678
 20
-332.2555421462288
 10
399.3512133840663
 20
-331.9051765341457
 10
399.2692195926838
 20
-331.3863452360557
 10
399.1744788660166
 20
-330.7855206781704
 10
399.1052320071703
 20
-330.3459265634957
 10
399.0335735666676
 20
-329.8915185406511
 10
398.7469412112943
 20
-329.4805189358923
 10
398.2725508829149
 20
-328.8004575614948
 10
397.460886068607
 20
-328.4824760598708
 10
396.7250138796643
 20
-328.6891825248587
 10
396.3973853906581
 20
-328.7808223923948
 10
396.1017963613207
 20
-328.9441202139808
 10
395.8158535938285
 20
-329.1019058731528
 10
395.8158535938285
 20
-329.1019058731528
 10
395.7772685457545
 20
-329.1232655037447
 10
395.7772685457545
 20
-329.1232655037447
 10
395.3859059142936
 20
-329.3389288724788
 10
391.1119226143353
 20
-331.4979744870687
 10
390.2592618968703
 20
-331.9131093457092
 10
389.1368476314926
 20
-329.7568252038993
 10
386.766620553401
 20
-328.3725882081555
 10
384.1697075766228
 20
-328.3725908050693
 10
384.1697075766228
 20
-328.3725908050693
 10
384.1697077528391
 20
-328.5488074391398
 10
384.1697077528391
 20
-328.5488074391398
 10
384.1697077528391
 20
-328.5488074391398
 10
384.1697077528391
 20
-328.5488074391398
 10
384.1697077528391
 20
-328.5488074391398
 10
384.1697077528391
 20
-328.5488074391398
 10
384.1256103557874
 20
-328.3739688873603
 10
384.1256103557874
 20
-328.3739688873603
 10
384.1256103557874
 20
-328.3739688873603
 10
384.0449951200568
 20
-328.3725909297758
 10
384.0449951200568
 20
-328.3725909297758
 10
381.4470486146299
 20
-328.372593527727
 10
379.076479796161
 20
-329.7575242833685
 10
377.9554478808561
 20
-331.9131216495254
 10
377.1031308430162
 20
-331.4983330054123
 10
372.8291432249765
 20
-329.339295938794
 10
372.4374356522942
 20
-329.1232888435753
 10
372.4374356522942
 20
-329.1232888435753
 10
372.3988505615024
 20
-329.1019292901535
 10
372.3988505615024
 20
-329.1019292901535
 10
372.1129074784399
 20
-328.9441442028701
 10
371.8173181225078
 20
-328.7808469724577
 10
371.4896894502234
 20
-328.6892077601784
 10
370.7545058669644
 20
-328.4825027662452
 10
369.9421526698682
 20
-328.800830401438
 10
369.4677637012671
 20
-329.4805482150686
 10
369.1811321678948
 20
-329.8915483930872
 10
369.1094746362106
 20
-330.3459565592515
 10
369.0402286565504
 20
-330.7855508124125
 10
368.945489131532
 20
-331.3863755597824
 10
368.8634963778134
 20
-331.9052070218568
 10
368.2647391328421
 20
-332.2555738314664
 10
368.0211710246629
 20
-332.3982010281165
 10
367.7462524428354
 20
-332.436097353378
 10
367.5285223279001
 20
-332.3558268462988
 10
367.3690143483645
 20
-332.297260382558
 10
367.2312104090665
 20
-332.1773711974768
 10
367.0851382337108
 20
-332.0505918296947
 10
367.0310501873942
 20
-332.0033940756305
 10
366.9769621414233
 20
-331.9565408311192
 10
366.921496059668
 20
-331.9120991548267
 10
366.4694991702685
 20
-331.5503645808684
 10
365.8972686120767
 20
-331.3522721627004
 10
365.3071237554533
 20
-331.3522727528447
 10
365.2985110167402
 20
-331.3522727614563
 10
365.2902427875757
 20
-331.3522727697252
 10
365.281974558411
 20
-331.3522727779941
 10
364.6356746519255
 20
-331.3588191057155
 10
364.0196918182509
 20
-331.5979093483741
 10
363.5477141646527
 20
-332.0257906796195
 10
362.9110610956888
 20
-332.602500300505
 10
362.5875675174248
 20
-333.490301730544
 10
362.7040125967985
 20
-334.3422737276048
 10
362.8059881683342
 20
-335.0874477790945
 10
363.2056198823116
 20
-335.725134553777
 10
363.8291825782093
 20
-336.1382008788951
 10
364.4627360579041
 20
-336.5581573849969
 10
365.2526965784154
 20
-336.6839025802475
 10
365.9975260201001
 20
-336.481674730433
 10
366.3678736841666
 20
-336.381077571918
 10
366.7116940382393
 20
-336.2057218679016
 10
366.9914355604766
 20
-335.9745556810952
 10
366.9914355604766
 20
-335.9745556810952
 10
367.0789409124211
 20
-335.9011750597528
 10
367.0789409124211
 20
-335.9011750597528
 10
367.3111401520988
 20
-335.7051488944401
 10
367.4909739810549
 20
-335.5497749082268
 10
367.776572426066
 20
-335.5790579342537
 10
368.4311406357888
 20
-335.6465811511956
 10
368.875559011028
 20
-336.7042250207484
 10
368.7666952260066
 20
-337.9365357846859
 10
368.7666952260066
 20
-337.9365357846859
 10
368.7694514054028
 20
-338.03954413694
 10
368.7694514054028
 20
-338.03954413694
 10
368.7694516096961
 20
-338.2438382992153
 10
369.0033738050195
 20
-338.4557114376345
 10
369.3606305072512
 20
-338.7561234066939
 10
369.450203065313
 20
-338.8315709082468
 10
369.5280622873616
 20
-338.8956496064144
 10
369.56492485005
 20
-338.9366462058277
 10
369.56492485005
 20
-338.9366462058277
 10
369.6434731153082
 20
-339.0248405717005
 10
369.6434731153082
 20
-339.0248405717005
 10
369.8763618329696
 20
-339.2877011243389
 10
370.1175187884136
 20
-339.5591744074171
 10
370.4613394773468
 20
-339.7186819845638
 10
370.7614074339845
 20
-339.8585525611956
 10
371.1038499572577
 20
-339.890591606767
 10
371.4259663048578
 20
-339.8103205598431
 10
371.5527457870176
 20
-339.7786255545971
 10
371.7356802515214
 20
-339.6728609402669
 10
371.9668460252565
 20
-339.5395355138272
 10
372.3082547911288
 20
-339.342820220208
 10
372.8794512932337
 20
-339.0134685206212
 10
373.1199190259715
 20
-339.0813366612135
 10
373.1550590095658
 20
-339.0909828934315
 10
373.1767631286945
 20
-339.1085528587041
 10
373.188820981841
 20
-339.1275008718147
 10
373.1967447338385
 20
-339.1598847614453
 10
373.1864095524609
 20
-339.2649601840858
 10
373.1815864690805
 20
-339.3152585829928
 10
373.1771078921441
 20
-339.3624563956172
 10
373.1733183291403
 20
-339.4044865643297
 10
373.1733183580823
 20
-339.4334253664058
 10
373.1733183580823
 20
-339.4334253664058
 10
373.1836579722641
 20
-343.7611543046402
 10
373.1836579722641
 20
-343.7611543046402
 10
373.1836579722641
 20
-343.7611543046402
 10
395.0310755015142
 20
-343.7611324572218
 10
395.0310755015142
 20
-343.7611324572218
 10
395.0310755015142
 20
-343.7611324572218
 10
395.0310749027583
 20
-343.1623748618854
 10
395.0310749027583
 20
-343.1623748618854
 10
395.0310749027583
 20
-343.1623748618854
 10
395.041410202306
 20
-343.1754662143929
 10
395.041410202306
 20
-343.1754662143929
 10
395.041410202306
 20
-343.1754662143929
 10
395.04140646024
 20
-339.4334034983145
 10
395.04140646024
 20
-339.4334034983145
 10
395.0414064313019
 20
-339.4044646962384
 10
395.0376167842381
 20
-339.3624345351146
 10
395.0331381125671
 20
-339.3148922218986
 10
395.0283149282429
 20
-339.2642493230839
 10
395.0179795367121
 20
-339.1591739211203
 10
395.0193575576805
 20
-339.141948442315
 10
395.0376165303371
 20
-339.1085309978517
 10
395.0593206143219
 20
-339.0909609891702
 10
395.0948050881752
 20
-339.0813146863256
 10
395.3342391551531
 20
-339.0120680276458
 10
395.9071588650799
 20
-339.342796621308
 10
396.2478790052833
 20
-339.5395112327922
 10
396.4790450456687
 20
-339.6728361969064
 10
396.6619797217022
 20
-339.7786004453673
 10
396.7887592672529
 20
-339.8102951970537
 10
397.109842246749
 20
-339.8905656007763
 10
397.4529737250405
 20
-339.8585258696341
 10
397.7530414019365
 20
-339.7186546928598
 10
398.0972062814046
 20
-339.5591464277296
 10
398.3383626938955
 20
-339.2876726623369
 10
398.5712508858399
 20
-339.0248116439225
 10
398.5712508858399
 20
-339.0248116439225
 10
398.6497989747091
 20
-338.9366171209542
 10
398.6497989747091
 20
-338.9366171209542
 10
398.6866614550592
 20
-338.8952759382694
 10
398.7648650584962
 20
-338.83119708404
 10
398.8547819748701
 20
-338.7554048934412
 10
399.2113490575241
 20
-338.4553367201133
 10
399.4452708290977
 20
-338.2434631138506
 10
399.4452706251503
 20
-338.0395134611238
 10
399.4452706251503
 20
-338.0395134611238
 10
399.4545723547097
 20
-338.0112636688414
 10
399.4545723547097
 20
-338.0112636688414
 10
399.4545723547097
 20
-338.0112636688414
 10
399.4480265985272
 20
-337.9365051033633
 10
399.4480265985272
 20
-337.9365051033633
 10
399.3391603488841
 20
-336.7041945571492
 10
399.7835766088362
 20
-335.6465497987585
 10
400.4381446835116
 20
-335.5790252726825
 10
400.7227095392417
 20
-335.5476746192021
 10
400.9035772093129
 20
-335.7047707924602
 10
401.1357768413889
 20
-335.9011410029213
 10
401.1357768413889
 20
-335.9011410029213
 10
401.2232823400957
 20
-335.9745214492505
 10
401.2232823400957
 20
-335.9745214492505
 10
401.5030243246631
 20
-336.2056870765685
 10
401.8465005198976
 20
-336.3810420932932
 10
402.2168483851599
 20
-336.48163851112
 10
402.9616782319851
 20
-336.6845538903709
 10
403.7519830098662
 20
-336.5581180957514
 10
404.3858801591948
 20
-336.1381603222035
 10
405.009097519409
 20
-335.7250927503014
 10
405.4087279580096
 20
-335.0874051763514
 10
405.5103575296521
 20
-334.342230921264
 10
405.627145414975
 20
-333.4906032005268
 10
405.3036500611099
 20
-332.602802417468
 10
404.6666513288341
 20
-332.0257495606886
 97
        0
 97
        0
 75
     2
 76
     1
 98
        0
  0
SPLINE
  5
43
330
1F
100
AcDbEntity
  8
Layer 1
370
     0
100
AcDbSpline
210
0.0
220
0.0
230
1.0
 70
    11
 71
     3
 72
    17
 73
    13
 74
     0
 42
0.0000000001
 43
0.0000000001
 12
1.0
 22
0.0
 32
0.0
 13
1.0
 23
0.0
 33
0.0
 40
0.0
 40
0.0
 40
0.0
 40
0.0
 40
1.0
 40
1.0
 40
1.0
 40
2.0
 40
2.0
 40
2.0
 40
3.0
 40
3.0
 40
3.0
 40
4.0
 40
4.0
 40
4.0
 40
4.0
 10
395.7955333640449
 20
-335.6856583332337
 30
0.0
 10
395.3813198018005
 20
-335.6856583332337
 30
0.0
 10
395.045533364235
 20
-335.3498718956682
 30
0.0
 10
395.045533364235
 20
-334.9356583334206
 30
0.0
 10
395.045533364235
 20
-334.5214447711768
 30
0.0
 10
395.3813198018005
 20
-334.1856583336113
 30
0.0
 10
395.7955333640449
 20
-334.1856583336113
 30
0.0
 10
396.2097469262919
 20
-334.1856583336113
 30
0.0
 10
396.5455333638581
 20
-334.5214447711768
 30
0.0
 10
396.5455333638581
 20
-334.9356583334206
 30
0.0
 10
396.5455333638581
 20
-335.3498718956682
 30
0.0
 10
396.2097469262919
 20
-335.6856583332337
 30
0.0
 10
395.7955333640449
 20
-335.6856583332337
 30
0.0
  0
HATCH
  5
44
330
1F
100
AcDbEntity
  8
Layer 1
 62
   250
420
  1842203
100
AcDbHatch
 10
0.0
 20
0.0
 30
0.0
210
0.0
220
0.0
230
1.0
  2
SOLID
 70
     1
 71
     0
 91
        1
 92
        1
 93
        1
 72
     4
 94
        3
 73
     0
 74
     1
 95
       17
 96
       13
 40
0.0
 40
0.0
 40
0.0
 40
0.0
 40
1.0
 40
1.0
 40
1.0
 40
2.0
 40
2.0
 40
2.0
 40
3.0
 40
3.0
 40
3.0
 40
4.0
 40
4.0
 40
4.0
 40
4.0
 10
395.7955333640449
 20
-335.6856583332337
 10
395.3813198018005
 20
-335.6856583332337
 10
395.045533364235
 20
-335.3498718956682
 10
395.045533364235
 20
-334.9356583334206
 10
395.045533364235
 20
-334.5214447711768
 10
395.3813198018005
 20
-334.1856583336113
 10
395.7955333640449
 20
-334.1856583336113
 10
396.2097469262919
 20
-334.1856583336113
 10
396.5455333638581
 20
-334.5214447711768
 10
396.5455333638581
 20
-334.9356583334206
 10
396.5455333638581
 20
-335.3498718956682
 10
396.2097469262919
 20
-335.6856583332337
 10
395.7955333640449
 20
-335.6856583332337
 97
        0
 97
        0
 75
     2
 76
     1
 98
        0
  0
SPLINE
  5
45
330
1F
100
AcDbEntity
  8
Layer 1
370
     0
100
AcDbSpline
210
0.0
220
0.0
230
1.0
 70
    11
 71
     3
 72
    17
 73
    13
 74
     0
 42
0.0000000001
 43
0.0000000001
 12
1.0
 22
0.0
 32
0.0
 13
1.0
 23
0.0
 33
0.0
 40
0.0
 40
0.0
 40
0.0
 40
0.0
 40
1.0
 40
1.0
 40
1.0
 40
2.0
 40
2.0
 40
2.0
 40
3.0
 40
3.0
 40
3.0
 40
4.0
 40
4.0
 40
4.0
 40
4.0
 10
384.1071834908839
 20
-333.5199107446047
 30
0.0
 10
383.6929699286363
 20
-333.5199107446047
 30
0.0
 10
383.3571834910708
 20
-333.1841243070392
 30
0.0
 10
383.3571834910708
 20
-332.7699107447992
 30
0.0
 10
383.3571834910708
 20
-332.3556971825478
 30
0.0
 10
383.6929699286363
 20
-332.0199107449823
 30
0.0
 10
384.1071834908839
 20
-332.0199107449823
 30
0.0
 10
384.5213970531315
 20
-332.0199107449823
 30
0.0
 10
384.8571834906971
 20
-332.3556971825478
 30
0.0
 10
384.8571834906971
 20
-332.7699107447992
 30
0.0
 10
384.8571834906971
 20
-333.1841243070392
 30
0.0
 10
384.5213970531315
 20
-333.5199107446047
 30
0.0
 10
384.1071834908839
 20
-333.5199107446047
 30
0.0
  0
HATCH
  5
46
330
1F
100
AcDbEntity
  8
Layer 1
 62
   250
420
  1842203
100
AcDbHatch
 10
0.0
 20
0.0
 30
0.0
210
0.0
220
0.0
230
1.0
  2
SOLID
 70
     1
 71
     0
 91
        1
 92
        1
 93
        1
 72
     4
 94
        3
 73
     0
 74
     1
 95
       17
 96
       13
 40
0.0
 40
0.0
 40
0.0
 40
0.0
 40
1.0
 40
1.0
 40
1.0
 40
2.0
 40
2.0
 40
2.0
 40
3.0
 40
3.0
 40
3.0
 40
4.0
 40
4.0
 40
4.0
 40
4.0
 10
384.1071834908839
 20
-333.5199107446047
 10
383.6929699286363
 20
-333.5199107446047
 10
383.3571834910708
 20
-333.1841243070392
 10
383.3571834910708
 20
-332.7699107447992
 10
383.3571834910708
 20
-332.3556971825478
 10
383.6929699286363
 20
-332.0199107449823
 10
384.1071834908839
 20
-332.0199107449823
 10
384.5213970531315
 20
-332.0199107449823
 10
384.8571834906971
 20
-332.3556971825478
 10
384.8571834906971
 20
-332.7699107447992
 10
384.8571834906971
 20
-333.1841243070392
 10
384.5213970531315
 20
-333.5199107446047
 10
384.1071834908839
 20
-333.5199107446047
 97
        0
 97
        0
 75
     2
 76
     1
 98
        0
  0
SPLINE
  5
47
330
1F
100
AcDbEntity
  8
Layer 1
370
     0
100
AcDbSpline
210
0.0
220
0.0
230
1.0
 70
    11
 71
     3
 72
    17
 73
    13
 74
     0
 42
0.0000000001
 43
0.0000000001
 12
1.0
 22
0.0
 32
0.0
 13
1.0
 23
0.0
 33
0.0
 40
0.0
 40
0.0
 40
0.0
 40
0.0
 40
1.0
 40
1.0
 40
1.0
 40
2.0
 40
2.0
 40
2.0
 40
3.0
 40
3.0
 40
3.0
 40
4.0
 40
4.0
 40
4.0
 40
4.0
 10
372.4191824584448
 20
-335.6856817095841
 30
0.0
 10
372.0049688961972
 20
-335.6856817095841
 30
0.0
 10
371.6691824586317
 20
-335.3498952720147
 30
0.0
 10
371.6691824586317
 20
-334.935681709771
 30
0.0
 10
371.6691824586317
 20
-334.5214681475234
 30
0.0
 10
372.0049688961972
 20
-334.1856817099578
 30
0.0
 10
372.4191824584448
 20
-334.1856817099578
 30
0.0
 10
372.8333960206886
 20
-334.1856817099578
 30
0.0
 10
373.1691824582579
 20
-334.5214681475234
 30
0.0
 10
373.1691824582579
 20
-334.935681709771
 30
0.0
 10
373.1691824582579
 20
-335.3498952720147
 30
0.0
 10
372.8333960206886
 20
-335.6856817095841
 30
0.0
 10
372.4191824584448
 20
-335.6856817095841
 30
0.0
  0
HATCH
  5
48
330
1F
100
AcDbEntity
  8
Layer 1
 62
   250
420
  1842203
100
AcDbHatch
 10
0.0
 20
0.0
 30
0.0
210
0.0
220
0.0
230
1.0
  2
SOLID
 70
     1
 71
     0
 91
        1
 92
        1
 93
        1
 72
     4
 94
        3
 73
     0
 74
     1
 95
       17
 96
       13
 40
0.0
 40
0.0
 40
0.0
 40
0.0
 40
1.0
 40
1.0
 40
1.0
 40
2.0
 40
2.0
 40
2.0
 40
3.0
 40
3.0
 40
3.0
 40
4.0
 40
4.0
 40
4.0
 40
4.0
 10
372.4191824584448
 20
-335.6856817095841
 10
372.0049688961972
 20
-335.6856817095841
 10
371.6691824586317
 20
-335.3498952720147
 10
371.6691824586317
 20
-334.935681709771
 10
371.6691824586317
 20
-334.5214681475234
 10
372.0049688961972
 20
-334.1856817099578
 10
372.4191824584448
 20
-334.1856817099578
 10
372.8333960206886
 20
-334.1856817099578
 10
373.1691824582579
 20
-334.5214681475234
 10
373.1691824582579
 20
-334.935681709771
 10
373.1691824582579
 20
-335.3498952720147
 10
372.8333960206886
 20
-335.6856817095841
 10
372.4191824584448
 20
-335.6856817095841
 97
        0
 97
        0
 75
     2
 76
     1
 98
        0
  0
SPLINE
  5
49
330
1F
100
AcDbEntity
  8
Layer 1
370
     0
100
AcDbSpline
210
0.0
220
0.0
230
1.0
 70
    11
 71
     3
 72
   221
 73
   217
 74
     0
 42
0.0000000001
 43
0.0000000001
 12
1.0
 22
0.0
 32
0.0
 13
1.0
 23
0.0
 33
0.0
 40
0.0
 40
0.0
 40
0.0
 40
0.0
 40
1.0
 40
1.0
 40
1.0
 40
2.0
 40
2.0
 40
2.0
 40
3.0
 40
3.0
 40
3.0
 40
4.0
 40
4.0
 40
4.0
 40
5.0
 40
5.0
 40
5.0
 40
6.0
 40
6.0
 40
6.0
 40
7.0
 40
7.0
 40
7.0
 40
8.0
 40
8.0
 40
8.0
 40
9.0
 40
9.0
 40
9.0
 40
10.0
 40
10.0
 40
10.0
 40
11.0
 40
11.0
 40
11.0
 40
12.0
 40
12.0
 40
12.0
 40
13.0
 40
13.0
 40
13.0
 40
14.0
 40
14.0
 40
14.0
 40
15.0
 40
15.0
 40
15.0
 40
16.0
 40
16.0
 40
16.0
 40
17.0
 40
17.0
 40
17.0
 40
18.0
 40
18.0
 40
18.0
 40
19.0
 40
19.0
 40
19.0
 40
20.0
 40
20.0
 40
20.0
 40
21.0
 40
21.0
 40
21.0
 40
22.0
 40
22.0
 40
22.0
 40
23.0
 40
23.0
 40
23.0
 40
24.0
 40
24.0
 40
24.0
 40
25.0
 40
25.0
 40
25.0
 40
26.0
 40
26.0
 40
26.0
 40
27.0
 40
27.0
 40
27.0
 40
28.0
 40
28.0
 40
28.0
 40
29.0
 40
29.0
 40
29.0
 40
30.0
 40
30.0
 40
30.0
 40
31.0
 40
31.0
 40
31.0
 40
32.0
 40
32.0
 40
32.0
 40
33.0
 40
33.0
 40
33.0
 40
34.0
 40
34.0
 40
34.0
 40
35.0
 40
35.0
 40
35.0
 40
36.0
 40
36.0
 40
36.0
 40
37.0
 40
37.0
 40
37.0
 40
38.0
 40
38.0
 40
38.0
 40
39.0
 40
39.0
 40
39.0
 40
40.0
 40
40.0
 40
40.0
 40
41.0
 40
41.0
 40
41.0
 40
42.0
 40
42.0
 40
42.0
 40
43.0
 40
43.0
 40
43.0
 40
44.0
 40
44.0
 40
44.0
 40
45.0
 40
45.0
 40
45.0
 40
46.0
 40
46.0
 40
46.0
 40
47.0
 40
47.0
 40
47.0
 40
48.0
 40
48.0
 40
48.0
 40
49.0
 40
49.0
 40
49.0
 40
50.0
 40
50.0
 40
50.0
 40
51.0
 40
51.0
 40
51.0
 40
52.0
 40
52.0
 40
52.0
 40
53.0
 40
53.0
 40
53.0
 40
54.0
 40
54.0
 40
54.0
 40
55.0
 40
55.0
 40
55.0
 40
56.0
 40
56.0
 40
56.0
 40
57.0
 40
57.0
 40
57.0
 40
58.0
 40
58.0
 40
58.0
 40
59.0
 40
59.0
 40
59.0
 40
60.0
 40
60.0
 40
60.0
 40
61.0
 40
61.0
 40
61.0
 40
62.0
 40
62.0
 40
62.0
 40
63.0
 40
63.0
 40
63.0
 40
64.0
 40
64.0
 40
64.0
 40
65.0
 40
65.0
 40
65.0
 40
66.0
 40
66.0
 40
66.0
 40
67.0
 40
67.0
 40
67.0
 40
68.0
 40
68.0
 40
68.0
 40
69.0
 40
69.0
 40
69.0
 40
70.0
 40
70.0
 40
70.0
 40
71.0
 40
71.0
 40
71.0
 40
72.0
 40
72.0
 40
72.0
 40
72.0
 10
237.4166366075482
 20
-332.0257495606886
 30
0.0
 10
236.9450026077364
 20
-331.5978691730526
 30
0.0
 10
236.3290192958824
 20
-331.3587801623618
 30
0.0
 10
235.682374866757
 20
-331.3522351275813
 30
0.0
 10
235.6737621280439
 20
-331.352235136196
 30
0.0
 10
235.6654938988793
 20
-331.3522351444656
 30
0.0
 10
235.6572256697147
 20
-331.3522351527307
 30
0.0
 10
235.0670808130946
 20
-331.352235742875
 30
0.0
 10
234.4948506514291
 20
-331.5506738150593
 30
0.0
 10
234.0431989947059
 20
-331.9120647831128
 30
0.0
 10
233.9877330018358
 20
-331.9565065703327
 30
0.0
 10
233.9336450495698
 20
-332.0033599230235
 30
0.0
 10
233.8795570973037
 20
-332.0502132757142
 30
0.0
 10
233.7334851758561
 20
-332.1773374451912
 30
0.0
 10
233.5953369667856
 20
-332.2972269062261
 30
0.0
 10
233.4358291043832
 20
-332.3557936889799
 30
0.0
 10
233.2191326786318
 20
-332.4360646304835
 30
0.0
 10
232.9431804923677
 20
-332.3981688560955
 30
0.0
 10
232.6999566084851
 20
-332.2555421462288
 30
0.0
 10
232.1011986627803
 20
-331.9051765341457
 30
0.0
 10
232.019204871401
 20
-331.3863452360557
 30
0.0
 10
231.9244641447338
 20
-330.7855206781704
 30
0.0
 10
231.8552172858841
 20
-330.3459265634989
 30
0.0
 10
231.783558845381
 20
-329.8915185406511
 30
0.0
 10
231.4969264900115
 20
-329.4805189358962
 30
0.0
 10
231.0225361616289
 20
-328.8004575614948
 30
0.0
 10
230.2108713473243
 20
-328.4824760598708
 30
0.0
 10
229.4749991583777
 20
-328.6891825248587
 30
0.0
 10
229.1473706693715
 20
-328.7808223923948
 30
0.0
 10
228.8517816400347
 20
-328.9441202139808
 30
0.0
 10
228.5658388725457
 20
-329.1019058731528
 30
0.0
 10
228.5658388725457
 20
-329.1019058731528
 30
0.0
 10
228.5272538244679
 20
-329.1232655037447
 30
0.0
 10
228.5272538244679
 20
-329.1232655037447
 30
0.0
 10
228.1358911930077
 20
-329.3389288724859
 30
0.0
 10
223.8619078930525
 20
-331.4979744870758
 30
0.0
 10
223.0092471755876
 20
-331.9131093457092
 30
0.0
 10
221.886832910206
 20
-329.7568252038993
 30
0.0
 10
219.5166058321175
 20
-328.3725882081555
 30
0.0
 10
216.9196928553362
 20
-328.3725908050693
 30
0.0
 10
216.9196928553362
 20
-328.3725908050693
 30
0.0
 10
216.9196930315526
 20
-328.5488074391398
 30
0.0
 10
216.9196930315526
 20
-328.5488074391398
 30
0.0
 10
216.9196930315526
 20
-328.5488074391398
 30
0.0
 10
216.9196930315526
 20
-328.5488074391398
 30
0.0
 10
216.9196930315526
 20
-328.5488074391398
 30
0.0
 10
216.9196930315526
 20
-328.5488074391398
 30
0.0
 10
216.8755956345047
 20
-328.3739688873603
 30
0.0
 10
216.8755956345047
 20
-328.3739688873603
 30
0.0
 10
216.8755956345047
 20
-328.3739688873603
 30
0.0
 10
216.7949803987702
 20
-328.3725909297828
 30
0.0
 10
216.7949803987702
 20
-328.3725909297828
 30
0.0
 10
214.1970338933471
 20
-328.372593527727
 30
0.0
 10
211.8264650748744
 20
-329.7575242833685
 30
0.0
 10
210.7054331595702
 20
-331.9131216495254
 30
0.0
 10
209.8531161217302
 20
-331.4983330054123
 30
0.0
 10
205.5791285036905
 20
-329.339295938794
 30
0.0
 10
205.1874209310121
 20
-329.1232888435753
 30
0.0
 10
205.1874209310121
 20
-329.1232888435753
 30
0.0
 10
205.1488358402164
 20
-329.1019292901535
 30
0.0
 10
205.1488358402164
 20
-329.1019292901535
 30
0.0
 10
204.8628927571571
 20
-328.9441442028733
 30
0.0
 10
204.5673034012218
 20
-328.7808469724653
 30
0.0
 10
204.2396747289368
 20
-328.6892077601784
 30
0.0
 10
203.5044911456816
 20
-328.4825027662452
 30
0.0
 10
202.6921379485854
 20
-328.8008304014411
 30
0.0
 10
202.2177489799843
 20
-329.4805482150686
 30
0.0
 10
201.9311174466114
 20
-329.8915483930872
 30
0.0
 10
201.8594599149249
 20
-330.3459565592553
 30
0.0
 10
201.7902139352676
 20
-330.7855508124125
 30
0.0
 10
201.695474410246
 20
-331.3863755597857
 30
0.0
 10
201.6134816565307
 20
-331.9052070218568
 30
0.0
 10
201.0147244115594
 20
-332.2555738314664
 30
0.0
 10
200.7711563033801
 20
-332.3982010281165
 30
0.0
 10
200.4962377215527
 20
-332.436097353378
 30
0.0
 10
200.2785076066141
 20
-332.3558268463021
 30
0.0
 10
200.1189996270817
 20
-332.2972603825612
 30
0.0
 10
199.9811956877805
 20
-332.1773711974768
 30
0.0
 10
199.8351235124281
 20
-332.0505918296947
 30
0.0
 10
199.7810354661114
 20
-332.0033940756305
 30
0.0
 10
199.7269474201374
 20
-331.9565408311231
 30
0.0
 10
199.6714813383853
 20
-331.9120991548267
 30
0.0
 10
199.2194844489858
 20
-331.5503645808684
 30
0.0
 10
198.6472538907939
 20
-331.3522721627004
 30
0.0
 10
198.0571090341706
 20
-331.3522727528447
 30
0.0
 10
198.0484962954575
 20
-331.3522727614595
 30
0.0
 10
198.0402280662929
 20
-331.352272769729
 30
0.0
 10
198.0319598371283
 20
-331.3522727779941
 30
0.0
 10
197.3856599306395
 20
-331.3588191057155
 30
0.0
 10
196.7696770969687
 20
-331.5979093483774
 30
0.0
 10
196.2976994433699
 20
-332.0257906796272
 30
0.0
 10
195.6610463744029
 20
-332.602500300505
 30
0.0
 10
195.3375527961417
 20
-333.490301730544
 30
0.0
 10
195.4539978755157
 20
-334.3422737276048
 30
0.0
 10
195.5559734470515
 20
-335.0874477790945
 30
0.0
 10
195.9556051610289
 20
-335.7251345537802
 30
0.0
 10
196.5791678569265
 20
-336.1382008788951
 30
0.0
 10
197.2127213366175
 20
-336.5581573849969
 30
0.0
 10
198.0026818571333
 20
-336.6839025802475
 30
0.0
 10
198.7475112988141
 20
-336.4816747304369
 30
0.0
 10
199.1178589628838
 20
-336.381077571918
 30
0.0
 10
199.4616793169566
 20
-336.2057218679016
 30
0.0
 10
199.741420839191
 20
-335.9745556810952
 30
0.0
 10
199.741420839191
 20
-335.9745556810952
 30
0.0
 10
199.8289261911384
 20
-335.9011750597567
 30
0.0
 10
199.8289261911384
 20
-335.9011750597567
 30
0.0
 10
200.061125430816
 20
-335.7051488944401
 30
0.0
 10
200.2409592597721
 20
-335.5497749082268
 30
0.0
 10
200.5265577047833
 20
-335.5790579342537
 30
0.0
 10
201.1811259145029
 20
-335.6465811511956
 30
0.0
 10
201.6255442897452
 20
-336.7042250207484
 30
0.0
 10
201.5166805047206
 20
-337.9365357846859
 30
0.0
 10
201.5166805047206
 20
-337.9365357846859
 30
0.0
 10
201.5194366841201
 20
-338.03954413694
 30
0.0
 10
201.5194366841201
 20
-338.03954413694
 30
0.0
 10
201.5194368884133
 20
-338.2438382992153
 30
0.0
 10
201.7533590837335
 20
-338.4557114376345
 30
0.0
 10
202.1106157859653
 20
-338.7561234066939
 30
0.0
 10
202.2001883440302
 20
-338.8315709082468
 30
0.0
 10
202.2780475660756
 20
-338.8956496064144
 30
0.0
 10
202.314910128764
 20
-338.9366462058277
 30
0.0
 10
202.314910128764
 20
-338.9366462058277
 30
0.0
 10
202.3934583940222
 20
-339.0248405717005
 30
0.0
 10
202.3934583940222
 20
-339.0248405717005
 30
0.0
 10
202.6263471116868
 20
-339.2877011243389
 30
0.0
 10
202.867504067127
 20
-339.5591744074171
 30
0.0
 10
203.2113247560634
 20
-339.7186819845638
 30
0.0
 10
203.5113927126985
 20
-339.8585525611994
 30
0.0
 10
203.853835235971
 20
-339.890591606767
 30
0.0
 10
204.1759515835711
 20
-339.8103205598463
 30
0.0
 10
204.3027310657348
 20
-339.7786255545971
 30
0.0
 10
204.4856655302355
 20
-339.6728609402746
 30
0.0
 10
204.7168313039738
 20
-339.5395355138272
 30
0.0
 10
205.058240069846
 20
-339.342820220208
 30
0.0
 10
205.6294365719474
 20
-339.0134685206212
 30
0.0
 10
205.8699043046849
 20
-339.0813366612135
 30
0.0
 10
205.9050442882831
 20
-339.0909828934315
 30
0.0
 10
205.9267484074086
 20
-339.1085528587041
 30
0.0
 10
205.9388062605544
 20
-339.1275008718147
 30
0.0
 10
205.9467300125557
 20
-339.1598847614524
 30
0.0
 10
205.936394831175
 20
-339.2649601840858
 30
0.0
 10
205.9315717477945
 20
-339.315258582996
 30
0.0
 10
205.9270931708623
 20
-339.3624563956172
 30
0.0
 10
205.9233036078582
 20
-339.4044865643297
 30
0.0
 10
205.9233036367963
 20
-339.4334253664058
 30
0.0
 10
205.9233036367963
 20
-339.4334253664058
 30
0.0
 10
205.9336432509814
 20
-343.7611543046402
 30
0.0
 10
205.9336432509814
 20
-343.7611543046402
 30
0.0
 10
205.9336432509814
 20
-343.7611543046402
 30
0.0
 10
227.7810607802315
 20
-343.7611324572257
 30
0.0
 10
227.7810607802315
 20
-343.7611324572257
 30
0.0
 10
227.7810607802315
 20
-343.7611324572257
 30
0.0
 10
227.7810601814724
 20
-343.1623748618892
 30
0.0
 10
227.7810601814724
 20
-343.1623748618892
 30
0.0
 10
227.7810601814724
 20
-343.1623748618892
 30
0.0
 10
227.7913954810194
 20
-343.1754662143929
 30
0.0
 10
227.7913954810194
 20
-343.1754662143929
 30
0.0
 10
227.7913954810194
 20
-343.1754662143929
 30
0.0
 10
227.7913917389572
 20
-339.4334034983216
 30
0.0
 10
227.7913917389572
 20
-339.4334034983216
 30
0.0
 10
227.7913917100192
 20
-339.4044646962455
 30
0.0
 10
227.7876020629554
 20
-339.3624345351146
 30
0.0
 10
227.7831233912804
 20
-339.3148922218986
 30
0.0
 10
227.7783002069601
 20
-339.2642493230839
 30
0.0
 10
227.7679648154262
 20
-339.1591739211203
 30
0.0
 10
227.7693428363977
 20
-339.1419484423182
 30
0.0
 10
227.7876018090505
 20
-339.1085309978517
 30
0.0
 10
227.8093058930391
 20
-339.0909609891741
 30
0.0
 10
227.8447903668892
 20
-339.0813146863256
 30
0.0
 10
228.0842244338671
 20
-339.0120680276458
 30
0.0
 10
228.6571441437971
 20
-339.342796621308
 30
0.0
 10
228.9978642840005
 20
-339.5395112327922
 30
0.0
 10
229.2290303243859
 20
-339.6728361969064
 30
0.0
 10
229.4119650004156
 20
-339.7786004453706
 30
0.0
 10
229.5387445459695
 20
-339.8102951970537
 30
0.0
 10
229.8598275254662
 20
-339.8905656007763
 30
0.0
 10
230.2029590037545
 20
-339.8585258696341
 30
0.0
 10
230.5030266806499
 20
-339.7186546928598
 30
0.0
 10
230.847191560118
 20
-339.5591464277373
 30
0.0
 10
231.0883479726128
 20
-339.2876726623369
 30
0.0
 10
231.3212361645539
 20
-339.0248116439263
 30
0.0
 10
231.3212361645539
 20
-339.0248116439263
 30
0.0
 10
231.3997842534231
 20
-338.9366171209542
 30
0.0
 10
231.3997842534231
 20
-338.9366171209542
 30
0.0
 10
231.4366467337732
 20
-338.8952759382694
 30
0.0
 10
231.5148503372096
 20
-338.83119708404
 30
0.0
 10
231.6047672535842
 20
-338.7554048934483
 30
0.0
 10
231.9613343362381
 20
-338.4553367201165
 30
0.0
 10
232.1952561078156
 20
-338.2434631138506
 30
0.0
 10
232.1952559038637
 20
-338.0395134611238
 30
0.0
 10
232.1952559038637
 20
-338.0395134611238
 30
0.0
 10
232.2045576334237
 20
-338.0112636688414
 30
0.0
 10
232.2045576334237
 20
-338.0112636688414
 30
0.0
 10
232.2045576334237
 20
-338.0112636688414
 30
0.0
 10
232.1980118772445
 20
-337.9365051033633
 30
0.0
 10
232.1980118772445
 20
-337.9365051033633
 30
0.0
 10
232.0891456276013
 20
-336.7041945571492
 30
0.0
 10
232.5335618875534
 20
-335.6465497987585
 30
0.0
 10
233.1881299622256
 20
-335.5790252726825
 30
0.0
 10
233.4726948179557
 20
-335.5476746192021
 30
0.0
 10
233.6535624880302
 20
-335.7047707924602
 30
0.0
 10
233.8857621201062
 20
-335.9011410029213
 30
0.0
 10
233.8857621201062
 20
-335.9011410029213
 30
0.0
 10
233.9732676188098
 20
-335.9745214492505
 30
0.0
 10
233.9732676188098
 20
-335.9745214492505
 30
0.0
 10
234.2530096033803
 20
-336.2056870765685
 30
0.0
 10
234.5964857986149
 20
-336.3810420932932
 30
0.0
 10
234.9668336638733
 20
-336.48163851112
 30
0.0
 10
235.7116635107024
 20
-336.6845538903709
 30
0.0
 10
236.5019682885834
 20
-336.5581180957553
 30
0.0
 10
237.135865437912
 20
-336.1381603222035
 30
0.0
 10
237.7590827981263
 20
-335.7250927503014
 30
0.0
 10
238.1587132367268
 20
-335.0874051763514
 30
0.0
 10
238.2603428083693
 20
-334.342230921264
 30
0.0
 10
238.3771306936891
 20
-333.4906032005268
 30
0.0
 10
238.0536353398232
 20
-332.602802417468
 30
0.0
 10
237.4166366075482
 20
-332.0257495606886
 30
0.0
  0
HATCH
  5
4A
330
1F
100
AcDbEntity
  8
Layer 1
 62
    85
420
  6730542
100
AcDbHatch
 10
0.0
 20
0.0
 30
0.0
210
0.0
220
0.0
230
1.0
  2
SOLID
 70
     1
 71
     0
 91
        1
 92
        1
 93
        1
 72
     4
 94
        3
 73
     0
 74
     1
 95
      221
 96
      217
 40
0.0
 40
0.0
 40
0.0
 40
0.0
 40
1.0
 40
1.0
 40
1.0
 40
2.0
 40
2.0
 40
2.0
 40
3.0
 40
3.0
 40
3.0
 40
4.0
 40
4.0
 40
4.0
 40
5.0
 40
5.0
 40
5.0
 40
6.0
 40
6.0
 40
6.0
 40
7.0
 40
7.0
 40
7.0
 40
8.0
 40
8.0
 40
8.0
 40
9.0
 40
9.0
 40
9.0
 40
10.0
 40
10.0
 40
10.0
 40
11.0
 40
11.0
 40
11.0
 40
12.0
 40
12.0
 40
12.0
 40
13.0
 40
13.0
 40
13.0
 40
14.0
 40
14.0
 40
14.0
 40
15.0
 40
15.0
 40
15.0
 40
16.0
 40
16.0
 40
16.0
 40
17.0
 40
17.0
 40
17.0
 40
18.0
 40
18.0
 40
18.0
 40
19.0
 40
19.0
 40
19.0
 40
20.0
 40
20.0
 40
20.0
 40
21.0
 40
21.0
 40
21.0
 40
22.0
 40
22.0
 40
22.0
 40
23.0
 40
23.0
 40
23.0
 40
24.0
 40
24.0
 40
24.0
 40
25.0
 40
25.0
 40
25.0
 40
26.0
 40
26.0
 40
26.0
 40
27.0
 40
27.0
 40
27.0
 40
28.0
 40
28.0
 40
28.0
 40
29.0
 40
29.0
 40
29.0
 40
30.0
 40
30.0
 40
30.0
 40
31.0
 40
31.0
 40
31.0
 40
32.0
 40
32.0
 40
32.0
 40
33.0
 40
33.0
 40
33.0
 40
34.0
 40
34.0
 40
34.0
 40
35.0
 40
35.0
 40
35.0
 40
36.0
 40
36.0
 40
36.0
 40
37.0
 40
37.0
 40
37.0
 40
38.0
 40
38.0
 40
38.0
 40
39.0
 40
39.0
 40
39.0
 40
40.0
 40
40.0
 40
40.0
 40
41.0
 40
41.0
 40
41.0
 40
42.0
 40
42.0
 40
42.0
 40
43.0
 40
43.0
 40
43.0
 40
44.0
 40
44.0
 40
44.0
 40
45.0
 40
45.0
 40
45.0
 40
46.0
 40
46.0
 40
46.0
 40
47.0
 40
47.0
 40
47.0
 40
48.0
 40
48.0
 40
48.0
 40
49.0
 40
49.0
 40
49.0
 40
50.0
 40
50.0
 40
50.0
 40
51.0
 40
51.0
 40
51.0
 40
52.0
 40
52.0
 40
52.0
 40
53.0
 40
53.0
 40
53.0
 40
54.0
 40
54.0
 40
54.0
 40
55.0
 40
55.0
 40
55.0
 40
56.0
 40
56.0
 40
56.0
 40
57.0
 40
57.0
 40
57.0
 40
58.0
 40
58.0
 40
58.0
 40
59.0
 40
59.0
 40
59.0
 40
60.0
 40
60.0
 40
60.0
 40
61.0
 40
61.0
 40
61.0
 40
62.0
 40
62.0
 40
62.0
 40
63.0
 40
63.0
 40
63.0
 40
64.0
 40
64.0
 40
64.0
 40
65.0
 40
65.0
 40
65.0
 40
66.0
 40
66.0
 40
66.0
 40
67.0
 40
67.0
 40
67.0
 40
68.0
 40
68.0
 40
68.0
 40
69.0
 40
69.0
 40
69.0
 40
70.0
 40
70.0
 40
70.0
 40
71.0
 40
71.0
 40
71.0
 40
72.0
 40
72.0
 40
72.0
 40
72.0
 10
237.4166366075482
 20
-332.0257495606886
 10
236.9450026077364
 20
-331.5978691730526
 10
236.3290192958824
 20
-331.3587801623618
 10
235.682374866757
 20
-331.3522351275813
 10
235.6737621280439
 20
-331.352235136196
 10
235.6654938988793
 20
-331.3522351444656
 10
235.6572256697147
 20
-331.3522351527307
 10
235.0670808130946
 20
-331.352235742875
 10
234.4948506514291
 20
-331.5506738150593
 10
234.0431989947059
 20
-331.9120647831128
 10
233.9877330018358
 20
-331.9565065703327
 10
233.9336450495698
 20
-332.0033599230235
 10
233.8795570973037
 20
-332.0502132757142
 10
233.7334851758561
 20
-332.1773374451912
 10
233.5953369667856
 20
-332.2972269062261
 10
233.4358291043832
 20
-332.3557936889799
 10
233.2191326786318
 20
-332.4360646304835
 10
232.9431804923677
 20
-332.3981688560955
 10
232.6999566084851
 20
-332.2555421462288
 10
232.1011986627803
 20
-331.9051765341457
 10
232.019204871401
 20
-331.3863452360557
 10
231.9244641447338
 20
-330.7855206781704
 10
231.8552172858841
 20
-330.3459265634989
 10
231.783558845381
 20
-329.8915185406511
 10
231.4969264900115
 20
-329.4805189358962
 10
231.0225361616289
 20
-328.8004575614948
 10
230.2108713473243
 20
-328.4824760598708
 10
229.4749991583777
 20
-328.6891825248587
 10
229.1473706693715
 20
-328.7808223923948
 10
228.8517816400347
 20
-328.9441202139808
 10
228.5658388725457
 20
-329.1019058731528
 10
228.5658388725457
 20
-329.1019058731528
 10
228.5272538244679
 20
-329.1232655037447
 10
228.5272538244679
 20
-329.1232655037447
 10
228.1358911930077
 20
-329.3389288724859
 10
223.8619078930525
 20
-331.4979744870758
 10
223.0092471755876
 20
-331.9131093457092
 10
221.886832910206
 20
-329.7568252038993
 10
219.5166058321175
 20
-328.3725882081555
 10
216.9196928553362
 20
-328.3725908050693
 10
216.9196928553362
 20
-328.3725908050693
 10
216.9196930315526
 20
-328.5488074391398
 10
216.9196930315526
 20
-328.5488074391398
 10
216.9196930315526
 20
-328.5488074391398
 10
216.9196930315526
 20
-328.5488074391398
 10
216.9196930315526
 20
-328.5488074391398
 10
216.9196930315526
 20
-328.5488074391398
 10
216.8755956345047
 20
-328.3739688873603
 10
216.8755956345047
 20
-328.3739688873603
 10
216.8755956345047
 20
-328.3739688873603
 10
216.7949803987702
 20
-328.3725909297828
 10
216.7949803987702
 20
-328.3725909297828
 10
214.1970338933471
 20
-328.372593527727
 10
211.8264650748744
 20
-329.7575242833685
 10
210.7054331595702
 20
-331.9131216495254
 10
209.8531161217302
 20
-331.4983330054123
 10
205.5791285036905
 20
-329.339295938794
 10
205.1874209310121
 20
-329.1232888435753
 10
205.1874209310121
 20
-329.1232888435753
 10
205.1488358402164
 20
-329.1019292901535
 10
205.1488358402164
 20
-329.1019292901535
 10
204.8628927571571
 20
-328.9441442028733
 10
204.5673034012218
 20
-328.7808469724653
 10
204.2396747289368
 20
-328.6892077601784
 10
203.5044911456816
 20
-328.4825027662452
 10
202.6921379485854
 20
-328.8008304014411
 10
202.2177489799843
 20
-329.4805482150686
 10
201.9311174466114
 20
-329.8915483930872
 10
201.8594599149249
 20
-330.3459565592553
 10
201.7902139352676
 20
-330.7855508124125
 10
201.695474410246
 20
-331.3863755597857
 10
201.6134816565307
 20
-331.9052070218568
 10
201.0147244115594
 20
-332.2555738314664
 10
200.7711563033801
 20
-332.3982010281165
 10
200.4962377215527
 20
-332.436097353378
 10
200.2785076066141
 20
-332.3558268463021
 10
200.1189996270817
 20
-332.2972603825612
 10
199.9811956877805
 20
-332.1773711974768
 10
199.8351235124281
 20
-332.0505918296947
 10
199.7810354661114
 20
-332.0033940756305
 10
199.7269474201374
 20
-331.9565408311231
 10
199.6714813383853
 20
-331.9120991548267
 10
199.2194844489858
 20
-331.5503645808684
 10
198.6472538907939
 20
-331.3522721627004
 10
198.0571090341706
 20
-331.3522727528447
 10
198.0484962954575
 20
-331.3522727614595
 10
198.0402280662929
 20
-331.352272769729
 10
198.0319598371283
 20
-331.3522727779941
 10
197.3856599306395
 20
-331.3588191057155
 10
196.7696770969687
 20
-331.5979093483774
 10
196.2976994433699
 20
-332.0257906796272
 10
195.6610463744029
 20
-332.602500300505
 10
195.3375527961417
 20
-333.490301730544
 10
195.4539978755157
 20
-334.3422737276048
 10
195.5559734470515
 20
-335.0874477790945
 10
195.9556051610289
 20
-335.7251345537802
 10
196.5791678569265
 20
-336.1382008788951
 10
197.2127213366175
 20
-336.5581573849969
 10
198.0026818571333
 20
-336.6839025802475
 10
198.7475112988141
 20
-336.4816747304369
 10
199.1178589628838
 20
-336.381077571918
 10
199.4616793169566
 20
-336.2057218679016
 10
199.741420839191
 20
-335.9745556810952
 10
199.741420839191
 20
-335.9745556810952
 10
199.8289261911384
 20
-335.9011750597567
 10
199.8289261911384
 20
-335.9011750597567
 10
200.061125430816
 20
-335.7051488944401
 10
200.2409592597721
 20
-335.5497749082268
 10
200.5265577047833
 20
-335.5790579342537
 10
201.1811259145029
 20
-335.6465811511956
 10
201.6255442897452
 20
-336.7042250207484
 10
201.5166805047206
 20
-337.9365357846859
 10
201.5166805047206
 20
-337.9365357846859
 10
201.5194366841201
 20
-338.03954413694
 10
201.5194366841201
 20
-338.03954413694
 10
201.5194368884133
 20
-338.2438382992153
 10
201.7533590837335
 20
-338.4557114376345
 10
202.1106157859653
 20
-338.7561234066939
 10
202.2001883440302
 20
-338.8315709082468
 10
202.2780475660756
 20
-338.8956496064144
 10
202.314910128764
 20
-338.9366462058277
 10
202.314910128764
 20
-338.9366462058277
 10
202.3934583940222
 20
-339.0248405717005
 10
202.3934583940222
 20
-339.0248405717005
 10
202.6263471116868
 20
-339.2877011243389
 10
202.867504067127
 20
-339.5591744074171
 10
203.2113247560634
 20
-339.7186819845638
 10
203.5113927126985
 20
-339.8585525611994
 10
203.853835235971
 20
-339.890591606767
 10
204.1759515835711
 20
-339.8103205598463
 10
204.3027310657348
 20
-339.7786255545971
 10
204.4856655302355
 20
-339.6728609402746
 10
204.7168313039738
 20
-339.5395355138272
 10
205.058240069846
 20
-339.342820220208
 10
205.6294365719474
 20
-339.0134685206212
 10
205.8699043046849
 20
-339.0813366612135
 10
205.9050442882831
 20
-339.0909828934315
 10
205.9267484074086
 20
-339.1085528587041
 10
205.9388062605544
 20
-339.1275008718147
 10
205.9467300125557
 20
-339.1598847614524
 10
205.936394831175
 20
-339.2649601840858
 10
205.9315717477945
 20
-339.315258582996
 10
205.9270931708623
 20
-339.3624563956172
 10
205.9233036078582
 20
-339.4044865643297
 10
205.9233036367963
 20
-339.4334253664058
 10
205.9233036367963
 20
-339.4334253664058
 10
205.9336432509814
 20
-343.7611543046402
 10
205.9336432509814
 20
-343.7611543046402
 10
205.9336432509814
 20
-343.7611543046402
 10
227.7810607802315
 20
-343.7611324572257
 10
227.7810607802315
 20
-343.7611324572257
 10
227.7810607802315
 20
-343.7611324572257
 10
227.7810601814724
 20
-343.1623748618892
 10
227.7810601814724
 20
-343.1623748618892
 10
227.7810601814724
 20
-343.1623748618892
 10
227.7913954810194
 20
-343.1754662143929
 10
227.7913954810194
 20
-343.1754662143929
 10
227.7913954810194
 20
-343.1754662143929
 10
227.7913917389572
 20
-339.4334034983216
 10
227.7913917389572
 20
-339.4334034983216
 10
227.7913917100192
 20
-339.4044646962455
 10
227.7876020629554
 20
-339.3624345351146
 10
227.7831233912804
 20
-339.3148922218986
 10
227.7783002069601
 20
-339.2642493230839
 10
227.7679648154262
 20
-339.1591739211203
 10
227.7693428363977
 20
-339.1419484423182
 10
227.7876018090505
 20
-339.1085309978517
 10
227.8093058930391
 20
-339.0909609891741
 10
227.8447903668892
 20
-339.0813146863256
 10
228.0842244338671
 20
-339.0120680276458
 10
228.6571441437971
 20
-339.342796621308
 10
228.9978642840005
 20
-339.5395112327922
 10
229.2290303243859
 20
-339.6728361969064
 10
229.4119650004156
 20
-339.7786004453706
 10
229.5387445459695
 20
-339.8102951970537
 10
229.8598275254662
 20
-339.8905656007763
 10
230.2029590037545
 20
-339.8585258696341
 10
230.5030266806499
 20
-339.7186546928598
 10
230.847191560118
 20
-339.5591464277373
 10
231.0883479726128
 20
-339.2876726623369
 10
231.3212361645539
 20
-339.0248116439263
 10
231.3212361645539
 20
-339.0248116439263
 10
231.3997842534231
 20
-338.9366171209542
 10
231.3997842534231
 20
-338.9366171209542
 10
231.4366467337732
 20
-338.8952759382694
 10
231.5148503372096
 20
-338.83119708404
 10
231.6047672535842
 20
-338.7554048934483
 10
231.9613343362381
 20
-338.4553367201165
 10
232.1952561078156
 20
-338.2434631138506
 10
232.1952559038637
 20
-338.0395134611238
 10
232.1952559038637
 20
-338.0395134611238
 10
232.2045576334237
 20
-338.0112636688414
 10
232.2045576334237
 20
-338.0112636688414
 10
232.2045576334237
 20
-338.0112636688414
 10
232.1980118772445
 20
-337.9365051033633
 10
232.1980118772445
 20
-337.9365051033633
 10
232.0891456276013
 20
-336.7041945571492
 10
232.5335618875534
 20
-335.6465497987585
 10
233.1881299622256
 20
-335.5790252726825
 10
233.4726948179557
 20
-335.5476746192021
 10
233.6535624880302
 20
-335.7047707924602
 10
233.8857621201062
 20
-335.9011410029213
 10
233.8857621201062
 20
-335.9011410029213
 10
233.9732676188098
 20
-335.9745214492505
 10
233.9732676188098
 20
-335.9745214492505
 10
234.2530096033803
 20
-336.2056870765685
 10
234.5964857986149
 20
-336.3810420932932
 10
234.9668336638733
 20
-336.48163851112
 10
235.7116635107024
 20
-336.6845538903709
 10
236.5019682885834
 20
-336.5581180957553
 10
237.135865437912
 20
-336.1381603222035
 10
237.7590827981263
 20
-335.7250927503014
 10
238.1587132367268
 20
-335.0874051763514
 10
238.2603428083693
 20
-334.342230921264
 10
238.3771306936891
 20
-333.4906032005268
 10
238.0536353398232
 20
-332.602802417468
 10
237.4166366075482
 20
-332.0257495606886
 97
        0
 97
        0
 75
     2
 76
     1
 98
        0
  0
SPLINE
  5
4B
330
1F
100
AcDbEntity
  8
Layer 1
370
     0
100
AcDbSpline
210
0.0
220
0.0
230
1.0
 70
    11
 71
     3
 72
    17
 73
    13
 74
     0
 42
0.0000000001
 43
0.0000000001
 12
1.0
 22
0.0
 32
0.0
 13
1.0
 23
0.0
 33
0.0
 40
0.0
 40
0.0
 40
0.0
 40
0.0
 40
1.0
 40
1.0
 40
1.0
 40
2.0
 40
2.0
 40
2.0
 40
3.0
 40
3.0
 40
3.0
 40
4.0
 40
4.0
 40
4.0
 40
4.0
 10
228.5455186427621
 20
-335.6856583332376
 30
0.0
 10
228.1313050805146
 20
-335.6856583332376
 30
0.0
 10
227.795518642949
 20
-335.3498718956682
 30
0.0
 10
227.795518642949
 20
-334.9356583334206
 30
0.0
 10
227.795518642949
 20
-334.5214447711768
 30
0.0
 10
228.1313050805146
 20
-334.1856583336113
 30
0.0
 10
228.5455186427621
 20
-334.1856583336113
 30
0.0
 10
228.9597322050101
 20
-334.1856583336113
 30
0.0
 10
229.2955186425753
 20
-334.5214447711768
 30
0.0
 10
229.2955186425753
 20
-334.9356583334206
 30
0.0
 10
229.2955186425753
 20
-335.3498718956682
 30
0.0
 10
228.9597322050101
 20
-335.6856583332376
 30
0.0
 10
228.5455186427621
 20
-335.6856583332376
 30
0.0
  0
HATCH
  5
4C
330
1F
100
AcDbEntity
  8
Layer 1
 62
   250
420
  1842203
100
AcDbHatch
 10
0.0
 20
0.0
 30
0.0
210
0.0
220
0.0
230
1.0
  2
SOLID
 70
     1
 71
     0
 91
        1
 92
        1
 93
        1
 72
     4
 94
        3
 73
     0
 74
     1
 95
       17
 96
       13
 40
0.0
 40
0.0
 40
0.0
 40
0.0
 40
1.0
 40
1.0
 40
1.0
 40
2.0
 40
2.0
 40
2.0
 40
3.0
 40
3.0
 40
3.0
 40
4.0
 40
4.0
 40
4.0
 40
4.0
 10
228.5455186427621
 20
-335.6856583332376
 10
228.1313050805146
 20
-335.6856583332376
 10
227.795518642949
 20
-335.3498718956682
 10
227.795518642949
 20
-334.9356583334206
 10
227.795518642949
 20
-334.5214447711768
 10
228.1313050805146
 20
-334.1856583336113
 10
228.5455186427621
 20
-334.1856583336113
 10
228.9597322050101
 20
-334.1856583336113
 10
229.2955186425753
 20
-334.5214447711768
 10
229.2955186425753
 20
-334.9356583334206
 10
229.2955186425753
 20
-335.3498718956682
 10
228.9597322050101
 20
-335.6856583332376
 10
228.5455186427621
 20
-335.6856583332376
 97
        0
 97
        0
 75
     2
 76
     1
 98
        0
  0
SPLINE
  5
4D
330
1F
100
AcDbEntity
  8
Layer 1
370
     0
100
AcDbSpline
210
0.0
220
0.0
230
1.0
 70
    11
 71
     3
 72
    17
 73
    13
 74
     0
 42
0.0000000001
 43
0.0000000001
 12
1.0
 22
0.0
 32
0.0
 13
1.0
 23
0.0
 33
0.0
 40
0.0
 40
0.0
 40
0.0
 40
0.0
 40
1.0
 40
1.0
 40
1.0
 40
2.0
 40
2.0
 40
2.0
 40
3.0
 40
3.0
 40
3.0
 40
4.0
 40
4.0
 40
4.0
 40
4.0
 10
216.857168769598
 20
-333.5199107446047
 30
0.0
 10
216.4429552073542
 20
-333.5199107446047
 30
0.0
 10
216.1071687697848
 20
-333.184124307043
 30
0.0
 10
216.1071687697848
 20
-332.7699107447992
 30
0.0
 10
216.1071687697848
 20
-332.3556971825516
 30
0.0
 10
216.4429552073542
 20
-332.0199107449823
 30
0.0
 10
216.857168769598
 20
-332.0199107449823
 30
0.0
 10
217.2713823318456
 20
-332.0199107449823
 30
0.0
 10
217.6071687694111
 20
-332.3556971825516
 30
0.0
 10
217.6071687694111
 20
-332.7699107447992
 30
0.0
 10
217.6071687694111
 20
-333.184124307043
 30
0.0
 10
217.2713823318456
 20
-333.5199107446047
 30
0.0
 10
216.857168769598
 20
-333.5199107446047
 30
0.0
  0
HATCH
  5
4E
330
1F
100
AcDbEntity
  8
Layer 1
 62
   250
420
  1842203
100
AcDbHatch
 10
0.0
 20
0.0
 30
0.0
210
0.0
220
0.0
230
1.0
  2
SOLID
 70
     1
 71
     0
 91
        1
 92
        1
 93
        1
 72
     4
 94
        3
 73
     0
 74
     1
 95
       17
 96
       13
 40
0.0
 40
0.0
 40
0.0
 40
0.0
 40
1.0
 40
1.0
 40
1.0
 40
2.0
 40
2.0
 40
2.0
 40
3.0
 40
3.0
 40
3.0
 40
4.0
 40
4.0
 40
4.0
 40
4.0
 10
216.857168769598
 20
-333.5199107446047
 10
216.4429552073542
 20
-333.5199107446047
 10
216.1071687697848
 20
-333.184124307043
 10
216.1071687697848
 20
-332.7699107447992
 10
216.1071687697848
 20
-332.3556971825516
 10
216.4429552073542
 20
-332.0199107449823
 10
216.857168769598
 20
-332.0199107449823
 10
217.2713823318456
 20
-332.0199107449823
 10
217.6071687694111
 20
-332.3556971825516
 10
217.6071687694111
 20
-332.7699107447992
 10
217.6071687694111
 20
-333.184124307043
 10
217.2713823318456
 20
-333.5199107446047
 10
216.857168769598
 20
-333.5199107446047
 97
        0
 97
        0
 75
     2
 76
     1
 98
        0
  0
SPLINE
  5
4F
330
1F
100
AcDbEntity
  8
Layer 1
370
     0
100
AcDbSpline
210
0.0
220
0.0
230
1.0
 70
    11
 71
     3
 72
    17
 73
    13
 74
     0
 42
0.0000000001
 43
0.0000000001
 12
1.0
 22
0.0
 32
0.0
 13
1.0
 23
0.0
 33
0.0
 40
0.0
 40
0.0
 40
0.0
 40
0.0
 40
1.0
 40
1.0
 40
1.0
 40
2.0
 40
2.0
 40
2.0
 40
3.0
 40
3.0
 40
3.0
 40
4.0
 40
4.0
 40
4.0
 40
4.0
 10
205.1691677371582
 20
-335.6856817095841
 30
0.0
 10
204.7549541749144
 20
-335.6856817095841
 30
0.0
 10
204.419167737345
 20
-335.3498952720186
 30
0.0
 10
204.419167737345
 20
-334.935681709771
 30
0.0
 10
204.419167737345
 20
-334.5214681475272
 30
0.0
 10
204.7549541749144
 20
-334.1856817099578
 30
0.0
 10
205.1691677371582
 20
-334.1856817099578
 30
0.0
 10
205.5833812994058
 20
-334.1856817099578
 30
0.0
 10
205.9191677369713
 20
-334.5214681475272
 30
0.0
 10
205.9191677369713
 20
-334.935681709771
 30
0.0
 10
205.9191677369713
 20
-335.3498952720186
 30
0.0
 10
205.5833812994058
 20
-335.6856817095841
 30
0.0
 10
205.1691677371582
 20
-335.6856817095841
 30
0.0
  0
HATCH
  5
50
330
1F
100
AcDbEntity
  8
Layer 1
 62
   250
420
  1842203
100
AcDbHatch
 10
0.0
 20
0.0
 30
0.0
210
0.0
220
0.0
230
1.0
  2
SOLID
 70
     1
 71
     0
 91
        1
 92
        1
 93
        1
 72
     4
 94
        3
 73
     0
 74
     1
 95
       17
 96
       13
 40
0.0
 40
0.0
 40
0.0
 40
0.0
 40
1.0
 40
1.0
 40
1.0
 40
2.0
 40
2.0
 40
2.0
 40
3.0
 40
3.0
 40
3.0
 40
4.0
 40
4.0
 40
4.0
 40
4.0
 10
205.1691677371582
 20
-335.6856817095841
 10
204.7549541749144
 20
-335.6856817095841
 10
204.419167737345
 20
-335.3498952720186
 10
204.419167737345
 20
-334.935681709771
 10
204.419167737345
 20
-334.5214681475272
 10
204.7549541749144
 20
-334.1856817099578
 10
205.1691677371582
 20
-334.1856817099578
 10
205.5833812994058
 20
-334.1856817099578
 10
205.9191677369713
 20
-334.5214681475272
 10
205.9191677369713
 20
-334.935681709771
 10
205.9191677369713
 20
-335.3498952720186
 10
205.5833812994058
 20
-335.6856817095841
 10
205.1691677371582
 20
-335.6856817095841
 97
        0
 97
        0
 75
     2
 76
     1
 98
        0
  0
SPLINE
  5
51
330
1F
100
AcDbEntity
  8
Layer 1
370
     0
100
AcDbSpline
210
0.0
220
0.0
230
1.0
 70
    11
 71
     3
 72
    29
 73
    25
 74
     0
 42
0.0000000001
 43
0.0000000001
 12
1.0
 22
0.0
 32
0.0
 13
1.0
 23
0.0
 33
0.0
 40
0.0
 40
0.0
 40
0.0
 40
0.0
 40
1.0
 40
1.0
 40
1.0
 40
2.0
 40
2.0
 40
2.0
 40
3.0
 40
3.0
 40
3.0
 40
4.0
 40
4.0
 40
4.0
 40
5.0
 40
5.0
 40
5.0
 40
6.0
 40
6.0
 40
6.0
 40
7.0
 40
7.0
 40
7.0
 40
8.0
 40
8.0
 40
8.0
 40
8.0
 10
155.9822617882612
 20
-88.71117153069231
 30
0.0
 10
155.9822617882612
 20
-88.71117153069231
 30
0.0
 10
444.9822617160123
 20
-88.71117153069231
 30
0.0
 10
444.9822617160123
 20
-88.71117153069231
 30
0.0
 10
448.2959702141682
 20
-88.71117153069231
 30
0.0
 10
450.9822617145128
 20
-91.3974630310359
 30
0.0
 10
450.9822617145128
 20
-94.71117152919224
 30
0.0
 10
450.9822617145128
 20
-94.71117152919224
 30
0.0
 10
450.9822617145128
 20
-303.7111714769425
 30
0.0
 10
450.9822617145128
 20
-303.7111714769425
 30
0.0
 10
450.9822617145128
 20
-307.0248799750979
 30
0.0
 10
448.2959702141682
 20
-309.7111714754424
 30
0.0
 10
444.9822617160123
 20
-309.7111714754424
 30
0.0
 10
444.9822617160123
 20
-309.7111714754424
 30
0.0
 10
155.9822617882612
 20
-309.7111714754424
 30
0.0
 10
155.9822617882612
 20
-309.7111714754424
 30
0.0
 10
152.6685532901049
 20
-309.7111714754424
 30
0.0
 10
149.9822617897613
 20
-307.0248799750979
 30
0.0
 10
149.9822617897613
 20
-303.7111714769425
 30
0.0
 10
149.9822617897613
 20
-303.7111714769425
 30
0.0
 10
149.9822617897613
 20
-94.71117152919224
 30
0.0
 10
149.9822617897613
 20
-94.71117152919224
 30
0.0
 10
149.9822617897613
 20
-91.3974630310359
 30
0.0
 10
152.6685532901049
 20
-88.71117153069231
 30
0.0
 10
155.9822617882612
 20
-88.71117153069231
 30
0.0
  0
HATCH
  5
52
330
1F
100
AcDbEntity
  8
Layer 1
 62
    85
420
  6730542
100
AcDbHatch
 10
0.0
 20
0.0
 30
0.0
210
0.0
220
0.0
230
1.0
  2
SOLID
 70
     1
 71
     0
 91
        1
 92
        1
 93
        1
 72
     4
 94
        3
 73
     0
 74
     1
 95
       29
 96
       25
 40
0.0
 40
0.0
 40
0.0
 40
0.0
 40
1.0
 40
1.0
 40
1.0
 40
2.0
 40
2.0
 40
2.0
 40
3.0
 40
3.0
 40
3.0
 40
4.0
 40
4.0
 40
4.0
 40
5.0
 40
5.0
 40
5.0
 40
6.0
 40
6.0
 40
6.0
 40
7.0
 40
7.0
 40
7.0
 40
8.0
 40
8.0
 40
8.0
 40
8.0
 10
155.9822617882612
 20
-88.71117153069231
 10
155.9822617882612
 20
-88.71117153069231
 10
444.9822617160123
 20
-88.71117153069231
 10
444.9822617160123
 20
-88.71117153069231
 10
448.2959702141682
 20
-88.71117153069231
 10
450.9822617145128
 20
-91.3974630310359
 10
450.9822617145128
 20
-94.71117152919224
 10
450.9822617145128
 20
-94.71117152919224
 10
450.9822617145128
 20
-303.7111714769425
 10
450.9822617145128
 20
-303.7111714769425
 10
450.9822617145128
 20
-307.0248799750979
 10
448.2959702141682
 20
-309.7111714754424
 10
444.9822617160123
 20
-309.7111714754424
 10
444.9822617160123
 20
-309.7111714754424
 10
155.9822617882612
 20
-309.7111714754424
 10
155.9822617882612
 20
-309.7111714754424
 10
152.6685532901049
 20
-309.7111714754424
 10
149.9822617897613
 20
-307.0248799750979
 10
149.9822617897613
 20
-303.7111714769425
 10
149.9822617897613
 20
-303.7111714769425
 10
149.9822617897613
 20
-94.71117152919224
 10
149.9822617897613
 20
-94.71117152919224
 10
149.9822617897613
 20
-91.3974630310359
 10
152.6685532901049
 20
-88.71117153069231
 10
155.9822617882612
 20
-88.71117153069231
 97
        0
 97
        0
 75
     2
 76
     1
 98
        0
  0
POLYLINE
  5
53
330
1F
100
AcDbEntity
  8
Layer 1
370
     0
100
AcDb2dPolyline
 66
     1
 10
0.0
 20
0.0
 30
0.0
  0
VERTEX
  5
54
330
53
100
AcDbEntity
  8
Layer 1
370
     0
100
AcDbVertex
100
AcDb2dVertex
 10
157.4946029115022
 20
-59.46116688507468
 30
0.0
  0
VERTEX
  5
55
330
53
100
AcDbEntity
  8
Layer 1
370
     0
100
AcDbVertex
100
AcDb2dVertex
 10
185.3446029045422
 20
-59.46116688507468
 30
0.0
  0
VERTEX
  5
56
330
53
100
AcDbEntity
  8
Layer 1
370
     0
100
AcDbVertex
100
AcDb2dVertex
 10
185.3446029045422
 20
-67.96116688294998
 30
0.0
  0
VERTEX
  5
57
330
53
100
AcDbEntity
  8
Layer 1
370
     0
100
AcDbVertex
100
AcDb2dVertex
 10
157.4946029115022
 20
-67.96116688294998
 30
0.0
  0
VERTEX
  5
58
330
53
100
AcDbEntity
  8
Layer 1
370
     0
100
AcDbVertex
100
AcDb2dVertex
 10
157.4946029115022
 20
-59.46116688507468
 30
0.0
  0
SEQEND
  5
5A
330
53
100
AcDbEntity
  8
Layer 1
370
     0
  0
HATCH
  5
59
330
1F
100
AcDbEntity
  8
Layer 1
 62
    85
420
  6730542
100
AcDbHatch
 10
0.0
 20
0.0
 30
0.0
210
0.0
220
0.0
230
1.0
  2
SOLID
 70
     1
 71
     0
 91
        1
 92
        1
 93
        4
 72
     1
 10
157.4946029115022
 20
-59.46116688507468
 11
185.3446029045422
 21
-59.46116688507468
 72
     1
 10
185.3446029045422
 20
-59.46116688507468
 11
185.3446029045422
 21
-67.96116688294998
 72
     1
 10
185.3446029045422
 20
-67.96116688294998
 11
157.4946029115022
 21
-67.96116688294998
 72
     1
 10
157.4946029115022
 20
-67.96116688294998
 11
157.4946029115022
 21
-59.46116688507468
 97
        0
 75
     2
 76
     1
 98
        0
  0
SPLINE
  5
5B
330
1F
100
AcDbEntity
  8
Layer 1
370
     0
100
AcDbSpline
210
0.0
220
0.0
230
1.0
 70
    11
 71
     3
 72
    17
 73
    13
 74
     0
 42
0.0000000001
 43
0.0000000001
 12
1.0
 22
0.0
 32
0.0
 13
1.0
 23
0.0
 33
0.0
 40
0.0
 40
0.0
 40
0.0
 40
0.0
 40
1.0
 40
1.0
 40
1.0
 40
2.0
 40
2.0
 40
2.0
 40
3.0
 40
3.0
 40
3.0
 40
4.0
 40
4.0
 40
4.0
 40
4.0
 10
162.644602910215
 20
-64.46116688382482
 30
0.0
 10
162.2303893479674
 20
-64.46116688382482
 30
0.0
 10
161.8946029104018
 20
-64.12538044625865
 30
0.0
 10
161.8946029104018
 20
-63.71116688401298
 30
0.0
 10
161.8946029104018
 20
-63.29695332176729
 30
0.0
 10
162.2303893479674
 20
-62.96116688419984
 30
0.0
 10
162.644602910215
 20
-62.96116688419984
 30
0.0
 10
163.0588164724619
 20
-62.96116688419984
 30
0.0
 10
163.3946029100275
 20
-63.29695332176729
 30
0.0
 10
163.3946029100275
 20
-63.71116688401298
 30
0.0
 10
163.3946029100275
 20
-64.12538044625865
 30
0.0
 10
163.0588164724619
 20
-64.46116688382482
 30
0.0
 10
162.644602910215
 20
-64.46116688382482
 30
0.0
  0
HATCH
  5
5C
330
1F
100
AcDbEntity
  8
Layer 1
 62
   250
420
  1842203
100
AcDbHatch
 10
0.0
 20
0.0
 30
0.0
210
0.0
220
0.0
230
1.0
  2
SOLID
 70
     1
 71
     0
 91
        1
 92
        1
 93
        1
 72
     4
 94
        3
 73
     0
 74
     1
 95
       17
 96
       13
 40
0.0
 40
0.0
 40
0.0
 40
0.0
 40
1.0
 40
1.0
 40
1.0
 40
2.0
 40
2.0
 40
2.0
 40
3.0
 40
3.0
 40
3.0
 40
4.0
 40
4.0
 40
4.0
 40
4.0
 10
162.644602910215
 20
-64.46116688382482
 10
162.2303893479674
 20
-64.46116688382482
 10
161.8946029104018
 20
-64.12538044625865
 10
161.8946029104018
 20
-63.71116688401298
 10
161.8946029104018
 20
-63.29695332176729
 10
162.2303893479674
 20
-62.96116688419984
 10
162.644602910215
 20
-62.96116688419984
 10
163.0588164724619
 20
-62.96116688419984
 10
163.3946029100275
 20
-63.29695332176729
 10
163.3946029100275
 20
-63.71116688401298
 10
163.3946029100275
 20
-64.12538044625865
 10
163.0588164724619
 20
-64.46116688382482
 10
162.644602910215
 20
-64.46116688382482
 97
        0
 97
        0
 75
     2
 76
     1
 98
        0
  0
SPLINE
  5
5D
330
1F
100
AcDbEntity
  8
Layer 1
370
     0
100
AcDbSpline
210
0.0
220
0.0
230
1.0
 70
    11
 71
     3
 72
    17
 73
    13
 74
     0
 42
0.0000000001
 43
0.0000000001
 12
1.0
 22
0.0
 32
0.0
 13
1.0
 23
0.0
 33
0.0
 40
0.0
 40
0.0
 40
0.0
 40
0.0
 40
1.0
 40
1.0
 40
1.0
 40
2.0
 40
2.0
 40
2.0
 40
3.0
 40
3.0
 40
3.0
 40
4.0
 40
4.0
 40
4.0
 40
4.0
 10
180.1946029058262
 20
-64.46116688382482
 30
0.0
 10
179.7803893435824
 20
-64.46116688382482
 30
0.0
 10
179.4446029060169
 20
-64.12538044625865
 30
0.0
 10
179.4446029060169
 20
-63.71116688401298
 30
0.0
 10
179.4446029060169
 20
-63.29695332176729
 30
0.0
 10
179.7803893435824
 20
-62.96116688419984
 30
0.0
 10
180.1946029058262
 20
-62.96116688419984
 30
0.0
 10
180.6088164680738
 20
-62.96116688419984
 30
0.0
 10
180.9446029056393
 20
-63.29695332176729
 30
0.0
 10
180.9446029056393
 20
-63.71116688401298
 30
0.0
 10
180.9446029056393
 20
-64.12538044625865
 30
0.0
 10
180.6088164680738
 20
-64.46116688382482
 30
0.0
 10
180.1946029058262
 20
-64.46116688382482
 30
0.0
  0
HATCH
  5
5E
330
1F
100
AcDbEntity
  8
Layer 1
 62
   250
420
  1842203
100
AcDbHatch
 10
0.0
 20
0.0
 30
0.0
210
0.0
220
0.0
230
1.0
  2
SOLID
 70
     1
 71
     0
 91
        1
 92
        1
 93
        1
 72
     4
 94
        3
 73
     0
 74
     1
 95
       17
 96
       13
 40
0.0
 40
0.0
 40
0.0
 40
0.0
 40
1.0
 40
1.0
 40
1.0
 40
2.0
 40
2.0
 40
2.0
 40
3.0
 40
3.0
 40
3.0
 40
4.0
 40
4.0
 40
4.0
 40
4.0
 10
180.1946029058262
 20
-64.46116688382482
 10
179.7803893435824
 20
-64.46116688382482
 10
179.4446029060169
 20
-64.12538044625865
 10
179.4446029060169
 20
-63.71116688401298
 10
179.4446029060169
 20
-63.29695332176729
 10
179.7803893435824
 20
-62.96116688419984
 10
180.1946029058262
 20
-62.96116688419984
 10
180.6088164680738
 20
-62.96116688419984
 10
180.9446029056393
 20
-63.29695332176729
 10
180.9446029056393
 20
-63.71116688401298
 10
180.9446029056393
 20
-64.12538044625865
 10
180.6088164680738
 20
-64.46116688382482
 10
180.1946029058262
 20
-64.46116688382482
 97
        0
 97
        0
 75
     2
 76
     1
 98
        0
  0
POLYLINE
  5
5F
330
1F
100
AcDbEntity
  8
Layer 1
370
     0
100
AcDb2dPolyline
 66
     1
 10
0.0
 20
0.0
 30
0.0
  0
VERTEX
  5
60
330
5F
100
AcDbEntity
  8
Layer 1
370
     0
100
AcDbVertex
100
AcDb2dVertex
 10
415.6198463093024
 20
-59.46116688507468
 30
0.0
  0
VERTEX
  5
61
330
5F
100
AcDbEntity
  8
Layer 1
370
     0
100
AcDbVertex
100
AcDb2dVertex
 10
443.4698463023385
 20
-59.46116688507468
 30
0.0
  0
VERTEX
  5
62
330
5F
100
AcDbEntity
  8
Layer 1
370
     0
100
AcDbVertex
100
AcDb2dVertex
 10
443.4698463023385
 20
-67.96116688294998
 30
0.0
  0
VERTEX
  5
63
330
5F
100
AcDbEntity
  8
Layer 1
370
     0
100
AcDbVertex
100
AcDb2dVertex
 10
415.6198463093024
 20
-67.96116688294998
 30
0.0
  0
VERTEX
  5
64
330
5F
100
AcDbEntity
  8
Layer 1
370
     0
100
AcDbVertex
100
AcDb2dVertex
 10
415.6198463093024
 20
-59.46116688507468
 30
0.0
  0
SEQEND
  5
66
330
5F
100
AcDbEntity
  8
Layer 1
370
     0
  0
HATCH
  5
65
330
1F
100
AcDbEntity
  8
Layer 1
 62
    85
420
  6730542
100
AcDbHatch
 10
0.0
 20
0.0
 30
0.0
210
0.0
220
0.0
230
1.0
  2
SOLID
 70
     1
 71
     0
 91
        1
 92
        1
 93
        4
 72
     1
 10
415.6198463093024
 20
-59.46116688507468
 11
443.4698463023385
 21
-59.46116688507468
 72
     1
 10
443.4698463023385
 20
-59.46116688507468
 11
443.4698463023385
 21
-67.96116688294998
 72
     1
 10
443.4698463023385
 20
-67.96116688294998
 11
415.6198463093024
 21
-67.96116688294998
 72
     1
 10
415.6198463093024
 20
-67.96116688294998
 11
415.6198463093024
 21
-59.46116688507468
 97
        0
 75
     2
 76
     1
 98
        0
  0
SPLINE
  5
67
330
1F
100
AcDbEntity
  8
Layer 1
370
     0
100
AcDbSpline
210
0.0
220
0.0
230
1.0
 70
    11
 71
     3
 72
    17
 73
    13
 74
     0
 42
0.0000000001
 43
0.0000000001
 12
1.0
 22
0.0
 32
0.0
 13
1.0
 23
0.0
 33
0.0
 40
0.0
 40
0.0
 40
0.0
 40
0.0
 40
1.0
 40
1.0
 40
1.0
 40
2.0
 40
2.0
 40
2.0
 40
3.0
 40
3.0
 40
3.0
 40
4.0
 40
4.0
 40
4.0
 40
4.0
 10
420.7698463080151
 20
-64.46116688382514
 30
0.0
 10
420.3556327457675
 20
-64.46116688382514
 30
0.0
 10
420.019846308202
 20
-64.12538044625897
 30
0.0
 10
420.019846308202
 20
-63.71116688401329
 30
0.0
 10
420.019846308202
 20
-63.29695332176697
 30
0.0
 10
420.3556327457675
 20
-62.96116688419984
 30
0.0
 10
420.7698463080151
 20
-62.96116688419984
 30
0.0
 10
421.1840598702621
 20
-62.96116688419984
 30
0.0
 10
421.5198463078276
 20
-63.29695332176697
 30
0.0
 10
421.5198463078276
 20
-63.71116688401329
 30
0.0
 10
421.5198463078276
 20
-64.12538044625897
 30
0.0
 10
421.1840598702621
 20
-64.46116688382514
 30
0.0
 10
420.7698463080151
 20
-64.46116688382514
 30
0.0
  0
HATCH
  5
68
330
1F
100
AcDbEntity
  8
Layer 1
 62
   250
420
  1842203
100
AcDbHatch
 10
0.0
 20
0.0
 30
0.0
210
0.0
220
0.0
230
1.0
  2
SOLID
 70
     1
 71
     0
 91
        1
 92
        1
 93
        1
 72
     4
 94
        3
 73
     0
 74
     1
 95
       17
 96
       13
 40
0.0
 40
0.0
 40
0.0
 40
0.0
 40
1.0
 40
1.0
 40
1.0
 40
2.0
 40
2.0
 40
2.0
 40
3.0
 40
3.0
 40
3.0
 40
4.0
 40
4.0
 40
4.0
 40
4.0
 10
420.7698463080151
 20
-64.46116688382514
 10
420.3556327457675
 20
-64.46116688382514
 10
420.019846308202
 20
-64.12538044625897
 10
420.019846308202
 20
-63.71116688401329
 10
420.019846308202
 20
-63.29695332176697
 10
420.3556327457675
 20
-62.96116688419984
 10
420.7698463080151
 20
-62.96116688419984
 10
421.1840598702621
 20
-62.96116688419984
 10
421.5198463078276
 20
-63.29695332176697
 10
421.5198463078276
 20
-63.71116688401329
 10
421.5198463078276
 20
-64.12538044625897
 10
421.1840598702621
 20
-64.46116688382514
 10
420.7698463080151
 20
-64.46116688382514
 97
        0
 97
        0
 75
     2
 76
     1
 98
        0
  0
SPLINE
  5
69
330
1F
100
AcDbEntity
  8
Layer 1
370
     0
100
AcDbSpline
210
0.0
220
0.0
230
1.0
 70
    11
 71
     3
 72
    17
 73
    13
 74
     0
 42
0.0000000001
 43
0.0000000001
 12
1.0
 22
0.0
 32
0.0
 13
1.0
 23
0.0
 33
0.0
 40
0.0
 40
0.0
 40
0.0
 40
0.0
 40
1.0
 40
1.0
 40
1.0
 40
2.0
 40
2.0
 40
2.0
 40
3.0
 40
3.0
 40
3.0
 40
4.0
 40
4.0
 40
4.0
 40
4.0
 10
438.3198463036264
 20
-64.46116688382514
 30
0.0
 10
437.9056327413826
 20
-64.46116688382514
 30
0.0
 10
437.5698463038132
 20
-64.12538044625897
 30
0.0
 10
437.5698463038132
 20
-63.71116688401329
 30
0.0
 10
437.5698463038132
 20
-63.29695332176697
 30
0.0
 10
437.9056327413826
 20
-62.96116688419984
 30
0.0
 10
438.3198463036264
 20
-62.96116688419984
 30
0.0
 10
438.734059865874
 20
-62.96116688419984
 30
0.0
 10
439.0698463034395
 20
-63.29695332176697
 30
0.0
 10
439.0698463034395
 20
-63.71116688401329
 30
0.0
 10
439.0698463034395
 20
-64.12538044625897
 30
0.0
 10
438.734059865874
 20
-64.46116688382514
 30
0.0
 10
438.3198463036264
 20
-64.46116688382514
 30
0.0
  0
HATCH
  5
6A
330
1F
100
AcDbEntity
  8
Layer 1
 62
   250
420
  1842203
100
AcDbHatch
 10
0.0
 20
0.0
 30
0.0
210
0.0
220
0.0
230
1.0
  2
SOLID
 70
     1
 71
     0
 91
        1
 92
        1
 93
        1
 72
     4
 94
        3
 73
     0
 74
     1
 95
       17
 96
       13
 40
0.0
 40
0.0
 40
0.0
 40
0.0
 40
1.0
 40
1.0
 40
1.0
 40
2.0
 40
2.0
 40
2.0
 40
3.0
 40
3.0
 40
3.0
 40
4.0
 40
4.0
 40
4.0
 40
4.0
 10
438.3198463036264
 20
-64.46116688382514
 10
437.9056327413826
 20
-64.46116688382514
 10
437.5698463038132
 20
-64.12538044625897
 10
437.5698463038132
 20
-63.71116688401329
 10
437.5698463038132
 20
-63.29695332176697
 10
437.9056327413826
 20
-62.96116688419984
 10
438.3198463036264
 20
-62.96116688419984
 10
438.734059865874
 20
-62.96116688419984
 10
439.0698463034395
 20
-63.29695332176697
 10
439.0698463034395
 20
-63.71116688401329
 10
439.0698463034395
 20
-64.12538044625897
 10
438.734059865874
 20
-64.46116688382514
 10
438.3198463036264
 20
-64.46116688382514
 97
        0
 97
        0
 75
     2
 76
     1
 98
        0
  0
POLYLINE
  5
6B
330
1F
100
AcDbEntity
  8
Layer 1
 62
    22
420
 14951456
370
    35
100
AcDb2dPolyline
 66
     1
 10
0.0
 20
0.0
 30
0.0
  0
VERTEX
  5
6C
330
6B
100
AcDbEntity
  8
Layer 1
 62
    22
420
 14951456
370
    35
100
AcDbVertex
100
AcDb2dVertex
 10
470.4822640832252
 20
-52.46118196659423
 30
0.0
  0
VERTEX
  5
6D
330
6B
100
AcDbEntity
  8
Layer 1
 62
    22
420
 14951456
370
    35
100
AcDbVertex
100
AcDb2dVertex
 10
130.4822594210473
 20
-52.46118196659423
 30
0.0
  0
VERTEX
  5
6E
330
6B
100
AcDbEntity
  8
Layer 1
 62
    22
420
 14951456
370
    35
100
AcDbVertex
100
AcDb2dVertex
 10
130.4822594210473
 20
-345.9611610395405
 30
0.0
  0
VERTEX
  5
6F
330
6B
100
AcDbEntity
  8
Layer 1
 62
    22
420
 14951456
370
    35
100
AcDbVertex
100
AcDb2dVertex
 10
205.3572326146763
 20
-345.9611610395405
 30
0.0
  0
VERTEX
  5
70
330
6B
100
AcDbEntity
  8
Layer 1
 62
    22
420
 14951456
370
    35
100
AcDbVertex
100
AcDb2dVertex
 10
205.3572326146763
 20
-343.7612091900471
 30
0.0
  0
VERTEX
  5
71
330
6B
100
AcDbEntity
  8
Layer 1
 62
    22
420
 14951456
370
    35
100
AcDbVertex
100
AcDb2dVertex
 10
228.3572283703738
 20
-343.7612091900471
 30
0.0
  0
VERTEX
  5
72
330
6B
100
AcDbEntity
  8
Layer 1
 62
    22
420
 14951456
370
    35
100
AcDbVertex
100
AcDb2dVertex
 10
228.3572283703738
 20
-345.9611610395405
 30
0.0
  0
VERTEX
  5
73
330
6B
100
AcDbEntity
  8
Layer 1
 62
    22
420
 14951456
370
    35
100
AcDbVertex
100
AcDb2dVertex
 10
372.6072305383586
 20
-345.9611610395405
 30
0.0
  0
VERTEX
  5
74
330
6B
100
AcDbEntity
  8
Layer 1
 62
    22
420
 14951456
370
    35
100
AcDbVertex
100
AcDb2dVertex
 10
372.6072305383586
 20
-343.7612091900471
 30
0.0
  0
VERTEX
  5
75
330
6B
100
AcDbEntity
  8
Layer 1
 62
    22
420
 14951456
370
    35
100
AcDbVertex
100
AcDb2dVertex
 10
395.6072478259023
 20
-343.7612091900471
 30
0.0
  0
VERTEX
  5
76
330
6B
100
AcDbEntity
  8
Layer 1
 62
    22
420
 14951456
370
    35
100
AcDbVertex
100
AcDb2dVertex
 10
395.6072478259023
 20
-345.9611610395405
 30
0.0
  0
VERTEX
  5
77
330
6B
100
AcDbEntity
  8
Layer 1
 62
    22
420
 14951456
370
    35
100
AcDbVertex
100
AcDb2dVertex
 10
470.4822640832252
 20
-345.9611610395405
 30
0.0
  0
VERTEX
  5
78
330
6B
100
AcDbEntity
  8
Layer 1
 62
    22
420
 14951456
370
    35
100
AcDbVertex
100
AcDb2dVertex
 10
470.4822640832252
 20
-52.46118196659423
 30
0.0
  0
SEQEND
  5
79
330
6B
100
AcDbEntity
  8
Layer 1
 62
    22
420
 14951456
370
    35
  0
POLYLINE
  5
7A
330
1F
100
AcDbEntity
  8
Layer 1
 62
   250
420
  1842203
370
    35
100
AcDb2dPolyline
 66
     1
 10
0.0
 20
0.0
 30
0.0
  0
VERTEX
  5
7B
330
7A
100
AcDbEntity
  8
Layer 1
 62
   250
420
  1842203
370
    35
100
AcDbVertex
100
AcDb2dVertex
 10
574.9999998562502
 20
-374.9999999062495
 30
0.0
  0
VERTEX
  5
7C
330
7A
100
AcDbEntity
  8
Layer 1
 62
   250
420
  1842203
370
    35
100
AcDbVertex
100
AcDb2dVertex
 10
24.99999999375009
 20
-374.9999999062495
 30
0.0
  0
VERTEX
  5
7D
330
7A
100
AcDbEntity
  8
Layer 1
 62
   250
420
  1842203
370
    35
100
AcDbVertex
100
AcDb2dVertex
 10
24.99999999375009
 20
-24.99999999375009
 30
0.0
  0
VERTEX
  5
7E
330
7A
100
AcDbEntity
  8
Layer 1
 62
   250
420
  1842203
370
    35
100
AcDbVertex
100
AcDb2dVertex
 10
574.9999998562502
 20
-24.99999999375009
 30
0.0
  0
VERTEX
  5
7F
330
7A
100
AcDbEntity
  8
Layer 1
 62
   250
420
  1842203
370
    35
100
AcDbVertex
100
AcDb2dVertex
 10
574.9999998562502
 20
-374.9999999062495
 30
0.0
  0
SEQEND
  5
80
330
7A
100
AcDbEntity
  8
Layer 1
 62
   250
420
  1842203
370
    35
  0
INSERT
  5
82
330
1F
100
AcDbEntity
  8
Layer 1
100
AcDbBlockReference
  2
block 2
 10
0.0
 20
0.0
 30
0.0
  0
INSERT
  5
89
330
1F
100
AcDbEntity
  8
Layer 1
100
AcDbBlockReference
  2
block 3
 10
0.0
 20
0.0
 30
0.0
  0
INSERT
  5
90
330
1F
100
AcDbEntity
  8
Layer 1
100
AcDbBlockReference
  2
block 4
 10
0.0
 20
0.0
 30
0.0
  0
INSERT
  5
97
330
1F
100
AcDbEntity
  8
Layer 1
100
AcDbBlockReference
  2
block 5
 10
0.0
 20
0.0
 30
0.0
  0
INSERT
  5
9E
330
1F
100
AcDbEntity
  8
Layer 1
100
AcDbBlockReference
  2
block 6
 10
0.0
 20
0.0
 30
0.0
  0
INSERT
  5
A5
330
1F
100
AcDbEntity
  8
Layer 1
100
AcDbBlockReference
  2
block 7
 10
0.0
 20
0.0
 30
0.0
  0
INSERT
  5
AC
330
1F
100
AcDbEntity
  8
Layer 1
100
AcDbBlockReference
  2
block 8
 10
0.0
 20
0.0
 30
0.0
  0
INSERT
  5
B3
330
1F
100
AcDbEntity
  8
Layer 1
100
AcDbBlockReference
  2
block 9
 10
0.0
 20
0.0
 30
0.0
  0
ENDSEC
  0
SECTION
  2
OBJECTS
  0
DICTIONARY
  5
C
330
0
100
AcDbDictionary
281
     1
  3
ACAD_GROUP
350
D
  3
ACAD_LAYOUT
350
1A
  3
ACAD_MATERIAL
350
3B
  3
ACAD_MLEADERSTYLE
350
BA
  3
ACAD_MLINESTYLE
350
17
  3
ACAD_PLOTSETTINGS
350
19
  3
ACAD_PLOTSTYLENAME
350
E
  3
ACAD_TABLESTYLE
350
B9
  3
ACAD_VISUALSTYLE
350
2A
  0
SUN
  5
3F
330
29
100
AcDbSun
 90
        1
290
     0
 63
     7
421
 16777215
 40
1.0
291
     1
 91
  2455826
 92
 54000000
292
     0
 70
     2
 71
   256
280
     1
  0
DICTIONARY
  5
D
102
{ACAD_REACTORS
330
C
102
}
330
C
100
AcDbDictionary
281
     1
  0
DICTIONARY
  5
1A
102
{ACAD_REACTORS
330
C
102
}
330
C
100
AcDbDictionary
281
     1
  3
Layout1
350
1E
  3
Layout2
350
26
  3
Model
350
22
  0
DICTIONARY
  5
3B
102
{ACAD_REACTORS
330
C
102
}
330
C
100
AcDbDictionary
281
     1
  3
ByBlock
350
3D
  3
ByLayer
350
3C
  3
Global
350
3E
  0
DICTIONARY
  5
BA
102
{ACAD_REACTORS
330
C
102
}
330
C
100
AcDbDictionary
281
     1
  0
DICTIONARY
  5
17
102
{ACAD_REACTORS
330
C
102
}
330
C
100
AcDbDictionary
281
     1
  3
Standard
350
18
  0
DICTIONARY
  5
19
102
{ACAD_REACTORS
330
C
102
}
330
C
100
AcDbDictionary
281
     1
  0
ACDBDICTIONARYWDFLT
  5
E
102
{ACAD_REACTORS
330
C
102
}
330
C
100
AcDbDictionary
281
     1
  3
Normal
350
F
100
AcDbDictionaryWithDefault
340
F
  0
DICTIONARY
  5
B9
102
{ACAD_REACTORS
330
C
102
}
330
C
100
AcDbDictionary
281
     1
  0
DICTIONARY
  5
2A
102
{ACAD_REACTORS
330
C
102
}
330
C
100
AcDbDictionary
281
     1
  3
2dWireframe
350
2F
  3
3D Hidden
350
31
  3
3dWireframe
350
30
  3
Basic
350
32
  3
Brighten
350
36
  3
ColorChange
350
3A
  3
Conceptual
350
34
  3
Dim
350
35
  3
Facepattern
350
39
  3
Flat
350
2B
  3
FlatWithEdges
350
2C
  3
Gouraud
350
2D
  3
GouraudWithEdges
350
2E
  3
Linepattern
350
38
  3
Realistic
350
33
  3
Thicken
350
37
  0
LAYOUT
  5
1E
102
{ACAD_REACTORS
330
1A
102
}
330
1A
100
AcDbPlotSettings
  1

  2
none_device
  4

  6

 40
0.0
 41
0.0
 42
0.0
 43
0.0
 44
0.0
 45
0.0
 46
0.0
 47
0.0
 48
0.0
 49
0.0
140
0.0
141
0.0
142
1.0
143
1.0
 70
   688
 72
     0
 73
     0
 74
     5
  7

 75
    16
 76
     0
 77
     2
 78
   300
147
1.0
148
0.0
149
0.0
100
AcDbLayout
  1
Layout1
 70
     1
 71
     1
 10
0.0
 20
0.0
 11
12.0
 21
9.0
 12
0.0
 22
0.0
 32
0.0
 14
1.000000000000000E+20
 24
1.000000000000000E+20
 34
1.000000000000000E+20
 15
-1.000000000000000E+20
 25
-1.000000000000000E+20
 35
-1.000000000000000E+20
146
0.0
 13
0.0
 23
0.0
 33
0.0
 16
1.0
 26
0.0
 36
0.0
 17
0.0
 27
1.0
 37
0.0
 76
     0
330
1B
  0
LAYOUT
  5
26
102
{ACAD_REACTORS
330
1A
102
}
330
1A
100
AcDbPlotSettings
  1

  2
none_device
  4

  6

 40
0.0
 41
0.0
 42
0.0
 43
0.0
 44
0.0
 45
0.0
 46
0.0
 47
0.0
 48
0.0
 49
0.0
140
0.0
141
0.0
142
1.0
143
1.0
 70
   688
 72
     0
 73
     0
 74
     5
  7

 75
    16
 76
     0
 77
     2
 78
   300
147
1.0
148
0.0
149
0.0
100
AcDbLayout
  1
Layout2
 70
     1
 71
     2
 10
0.0
 20
0.0
 11
0.0
 21
0.0
 12
0.0
 22
0.0
 32
0.0
 14
0.0
 24
0.0
 34
0.0
 15
0.0
 25
0.0
 35
0.0
146
0.0
 13
0.0
 23
0.0
 33
0.0
 16
1.0
 26
0.0
 36
0.0
 17
0.0
 27
1.0
 37
0.0
 76
     0
330
23
  0
LAYOUT
  5
22
102
{ACAD_REACTORS
330
1A
102
}
330
1A
100
AcDbPlotSettings
  1

  2
none_device
  4

  6

 40
0.0
 41
0.0
 42
0.0
 43
0.0
 44
0.0
 45
0.0
 46
0.0
 47
0.0
 48
0.0
 49
0.0
140
0.0
141
0.0
142
1.0
143
1.0
 70
  1712
 72
     0
 73
     0
 74
     0
  7

 75
     0
 76
     0
 77
     2
 78
   300
147
1.0
148
0.0
149
0.0
100
AcDbLayout
  1
Model
 70
     1
 71
     0
 10
0.0
 20
0.0
 11
12.0
 21
9.0
 12
0.0
 22
0.0
 32
0.0
 14
1.000000000000000E+20
 24
1.000000000000000E+20
 34
1.000000000000000E+20
 15
-1.000000000000000E+20
 25
-1.000000000000000E+20
 35
-1.000000000000000E+20
146
0.0
 13
0.0
 23
0.0
 33
0.0
 16
1.0
 26
0.0
 36
0.0
 17
0.0
 27
1.0
 37
0.0
 76
     0
330
1F
331
29
  0
MATERIAL
  5
3D
102
{ACAD_REACTORS
330
3B
102
}
330
3B
100
AcDbMaterial
  1
ByBlock
 72
     1
 94
      127
  0
MATERIAL
  5
3C
102
{ACAD_REACTORS
330
3B
102
}
330
3B
100
AcDbMaterial
  1
ByLayer
 72
     1
 94
      127
  0
MATERIAL
  5
3E
102
{ACAD_REACTORS
330
3B
102
}
330
3B
100
AcDbMaterial
  1
Global
 72
     1
 94
      127
  0
MLINESTYLE
  5
18
102
{ACAD_REACTORS
330
17
102
}
330
17
100
AcDbMlineStyle
  2
Standard
 70
     0
  3

 62
   256
 51
90.0
 52
90.0
 71
     2
 49
0.5
 62
   256
  6
BYLAYER
 49
-0.5
 62
   256
  6
BYLAYER
  0
ACDBPLACEHOLDER
  5
F
102
{ACAD_REACTORS
330
E
102
}
330
E
  0
VISUALSTYLE
  5
2F
102
{ACAD_REACTORS
330
2A
102
}
330
2A
100
AcDbVisualStyle
  2
2dWireframe
 70
     4
177
     2
291
     0
 71
     0
176
     1
 72
     2
176
     1
 73
     0
176
     1
 90
        0
176
     1
 40
-0.6
176
     1
 41
-30.0
176
     1
 62
     5
 63
     7
421
 16777215
176
     1
 74
     1
176
     1
 91
        4
176
     1
 64
     7
176
     1
 65
   257
176
     1
 75
     1
176
     1
175
     1
176
     1
 42
1.0
176
     1
 92
        0
176
     1
 66
   257
176
     1
 43
1.0
176
     1
 76
     1
176
     1
 77
     6
176
     1
 78
     2
176
     1
 67
     7
176
     1
 79
     5
176
     1
170
     0
176
     1
171
     0
176
     1
290
     0
176
     1
 93
        1
176
     1
 44
0.0
176
     1
173
     0
176
     1
  0
VISUALSTYLE
  5
31
102
{ACAD_REACTORS
330
2A
102
}
330
2A
100
AcDbVisualStyle
  2
3D Hidden
 70
     6
177
     2
291
     0
 71
     1
176
     1
 72
     2
176
     1
 73
     2
176
     1
 90
        0
176
     1
 40
-0.6
176
     1
 41
-30.0
176
     1
 62
     5
 63
     7
421
 16777215
176
     1
 74
     2
176
     1
 91
        2
176
     1
 64
     7
176
     1
 65
   257
176
     1
 75
     2
176
     1
175
     1
176
     1
 42
40.0
176
     1
 92
        0
176
     1
 66
   257
176
     1
 43
1.0
176
     1
 76
     1
176
     1
 77
     6
176
     1
 78
     2
176
     1
 67
     7
176
     1
 79
     3
176
     1
170
     0
176
     1
171
     0
176
     1
290
     0
176
     1
 93
        1
176
     1
 44
0.0
176
     1
173
     0
176
     1
  0
VISUALSTYLE
  5
30
102
{ACAD_REACTORS
330
2A
102
}
330
2A
100
AcDbVisualStyle
  2
3dWireframe
 70
     5
177
     2
291
     0
 71
     0
176
     1
 72
     2
176
     1
 73
     0
176
     1
 90
        0
176
     1
 40
-0.6
176
     1
 41
-30.0
176
     1
 62
     5
 63
     7
421
 16777215
176
     1
 74
     1
176
     1
 91
        4
176
     1
 64
     7
176
     1
 65
   257
176
     1
 75
     1
176
     1
175
     1
176
     1
 42
1.0
176
     1
 92
        0
176
     1
 66
   257
176
     1
 43
1.0
176
     1
 76
     1
176
     1
 77
     6
176
     1
 78
     2
176
     1
 67
     7
176
     1
 79
     5
176
     1
170
     0
176
     1
171
     0
176
     1
290
     0
176
     1
 93
        1
176
     1
 44
0.0
176
     1
173
     0
176
     1
  0
VISUALSTYLE
  5
32
102
{ACAD_REACTORS
330
2A
102
}
330
2A
100
AcDbVisualStyle
  2
Basic
 70
     7
177
     2
291
     1
 71
     1
176
     1
 72
     0
176
     1
 73
     1
176
     1
 90
        0
176
     1
 40
-0.6
176
     1
 41
-30.0
176
     1
 62
     5
 63
     7
421
 16777215
176
     1
 74
     0
176
     1
 91
        4
176
     1
 64
     7
176
     1
 65
   257
176
     1
 75
     1
176
     1
175
     1
176
     1
 42
1.0
176
     1
 92
        8
176
     1
 66
     7
176
     1
 43
1.0
176
     1
 76
     1
176
     1
 77
     6
176
     1
 78
     2
176
     1
 67
     7
176
     1
 79
     5
176
     1
170
     0
176
     1
171
     0
176
     1
290
     0
176
     1
 93
        1
176
     1
 44
0.0
176
     1
173
     0
176
     1
  0
VISUALSTYLE
  5
36
102
{ACAD_REACTORS
330
2A
102
}
330
2A
100
AcDbVisualStyle
  2
Brighten
 70
    12
177
     2
291
     1
 71
     2
176
     1
 72
     2
176
     1
 73
     0
176
     1
 90
        0
176
     1
 40
-0.6
176
     1
 41
-30.0
176
     1
 62
     5
 63
     7
421
 16777215
176
     1
 74
     1
176
     1
 91
        4
176
     1
 64
     7
176
     1
 65
   257
176
     1
 75
     1
176
     1
175
     1
176
     1
 42
1.0
176
     1
 92
        8
176
     1
 66
     7
176
     1
 43
1.0
176
     1
 76
     1
176
     1
 77
     6
176
     1
 78
     2
176
     1
 67
     7
176
     1
 79
     5
176
     1
170
     0
176
     1
171
     0
176
     1
290
     0
176
     1
 93
        1
176
     1
 44
50.0
176
     1
173
     0
176
     1
  0
VISUALSTYLE
  5
3A
102
{ACAD_REACTORS
330
2A
102
}
330
2A
100
AcDbVisualStyle
  2
ColorChange
 70
    16
177
     2
291
     1
 71
     2
176
     1
 72
     2
176
     1
 73
     3
176
     1
 90
        0
176
     1
 40
-0.6
176
     1
 41
-30.0
176
     1
 62
     5
 63
     8
421
  8421504
176
     1
 74
     1
176
     1
 91
        4
176
     1
 64
     7
176
     1
 65
   257
176
     1
 75
     1
176
     1
175
     1
176
     1
 42
1.0
176
     1
 92
        8
176
     1
 66
     8
424
  8421504
176
     1
 43
1.0
176
     1
 76
     1
176
     1
 77
     6
176
     1
 78
     2
176
     1
 67
     7
176
     1
 79
     5
176
     1
170
     0
176
     1
171
     0
176
     1
290
     0
176
     1
 93
        1
176
     1
 44
0.0
176
     1
173
     0
176
     1
  0
VISUALSTYLE
  5
34
102
{ACAD_REACTORS
330
2A
102
}
330
2A
100
AcDbVisualStyle
  2
Conceptual
 70
     9
177
     2
291
     0
 71
     3
176
     1
 72
     2
176
     1
 73
     0
176
     1
 90
        0
176
     1
 40
-0.6
176
     1
 41
-30.0
176
     1
 62
     5
 63
     7
421
 16777215
176
     1
 74
     2
176
     1
 91
        2
176
     1
 64
     7
176
     1
 65
   257
176
     1
 75
     1
176
     1
175
     1
176
     1
 42
40.0
176
     1
 92
        8
176
     1
 66
     7
176
     1
 43
1.0
176
     1
 76
     1
176
     1
 77
     6
176
     1
 78
     2
176
     1
 67
     7
176
     1
 79
     3
176
     1
170
     0
176
     1
171
     0
176
     1
290
     0
176
     1
 93
        1
176
     1
 44
0.0
176
     1
173
     0
176
     1
  0
VISUALSTYLE
  5
35
102
{ACAD_REACTORS
330
2A
102
}
330
2A
100
AcDbVisualStyle
  2
Dim
 70
    11
177
     2
291
     1
 71
     2
176
     1
 72
     2
176
     1
 73
     0
176
     1
 90
        0
176
     1
 40
-0.6
176
     1
 41
-30.0
176
     1
 62
     5
 63
     7
421
 16777215
176
     1
 74
     1
176
     1
 91
        4
176
     1
 64
     7
176
     1
 65
   257
176
     1
 75
     1
176
     1
175
     1
176
     1
 42
1.0
176
     1
 92
        8
176
     1
 66
     7
176
     1
 43
1.0
176
     1
 76
     1
176
     1
 77
     6
176
     1
 78
     2
176
     1
 67
     7
176
     1
 79
     5
176
     1
170
     0
176
     1
171
     0
176
     1
290
     0
176
     1
 93
        1
176
     1
 44
-50.0
176
     1
173
     0
176
     1
  0
VISUALSTYLE
  5
39
102
{ACAD_REACTORS
330
2A
102
}
330
2A
100
AcDbVisualStyle
  2
Facepattern
 70
    15
177
     2
291
     1
 71
     2
176
     1
 72
     2
176
     1
 73
     0
176
     1
 90
        0
176
     1
 40
-0.6
176
     1
 41
-30.0
176
     1
 62
     5
 63
     7
421
 16777215
176
     1
 74
     1
176
     1
 91
        4
176
     1
 64
     7
176
     1
 65
   257
176
     1
 75
     1
176
     1
175
     1
176
     1
 42
1.0
176
     1
 92
        8
176
     1
 66
     7
176
     1
 43
1.0
176
     1
 76
     1
176
     1
 77
     6
176
     1
 78
     2
176
     1
 67
     7
176
     1
 79
     5
176
     1
170
     0
176
     1
171
     0
176
     1
290
     0
176
     1
 93
        1
176
     1
 44
0.0
176
     1
173
     0
176
     1
  0
VISUALSTYLE
  5
2B
102
{ACAD_REACTORS
330
2A
102
}
330
2A
100
AcDbVisualStyle
  2
Flat
 70
     0
177
     2
291
     1
 71
     2
176
     1
 72
     1
176
     1
 73
     1
176
     1
 90
        2
176
     1
 40
-0.6
176
     1
 41
30.0
176
     1
 62
     5
 63
     7
421
 16777215
176
     1
 74
     0
176
     1
 91
        4
176
     1
 64
     7
176
     1
 65
   257
176
     1
 75
     1
176
     1
175
     1
176
     1
 42
1.0
176
     1
 92
        8
176
     1
 66
     7
176
     1
 43
1.0
176
     1
 76
     1
176
     1
 77
     6
176
     1
 78
     2
176
     1
 67
     7
176
     1
 79
     5
176
     1
170
     0
176
     1
171
     0
176
     1
290
     0
176
     1
 93
       13
176
     1
 44
0.0
176
     1
173
     0
176
     1
  0
VISUALSTYLE
  5
2C
102
{ACAD_REACTORS
330
2A
102
}
330
2A
100
AcDbVisualStyle
  2
FlatWithEdges
 70
     1
177
     2
291
     1
 71
     2
176
     1
 72
     1
176
     1
 73
     1
176
     1
 90
        2
176
     1
 40
-0.6
176
     1
 41
30.0
176
     1
 62
     5
 63
     7
421
 16777215
176
     1
 74
     1
176
     1
 91
        4
176
     1
 64
     7
176
     1
 65
   257
176
     1
 75
     1
176
     1
175
     1
176
     1
 42
1.0
176
     1
 92
        0
176
     1
 66
   257
176
     1
 43
1.0
176
     1
 76
     1
176
     1
 77
     6
176
     1
 78
     2
176
     1
 67
     7
176
     1
 79
     5
176
     1
170
     0
176
     1
171
     0
176
     1
290
     0
176
     1
 93
       13
176
     1
 44
0.0
176
     1
173
     0
176
     1
  0
VISUALSTYLE
  5
2D
102
{ACAD_REACTORS
330
2A
102
}
330
2A
100
AcDbVisualStyle
  2
Gouraud
 70
     2
177
     2
291
     1
 71
     2
176
     1
 72
     2
176
     1
 73
     1
176
     1
 90
        2
176
     1
 40
-0.6
176
     1
 41
30.0
176
     1
 62
     5
 63
     7
421
 16777215
176
     1
 74
     0
176
     1
 91
        4
176
     1
 64
     7
176
     1
 65
   257
176
     1
 75
     1
176
     1
175
     1
176
     1
 42
1.0
176
     1
 92
        0
176
     1
 66
     7
176
     1
 43
1.0
176
     1
 76
     1
176
     1
 77
     6
176
     1
 78
     2
176
     1
 67
     7
176
     1
 79
     5
176
     1
170
     0
176
     1
171
     0
176
     1
290
     0
176
     1
 93
       13
176
     1
 44
0.0
176
     1
173
     0
176
     1
  0
VISUALSTYLE
  5
2E
102
{ACAD_REACTORS
330
2A
102
}
330
2A
100
AcDbVisualStyle
  2
GouraudWithEdges
 70
     3
177
     2
291
     1
 71
     2
176
     1
 72
     2
176
     1
 73
     1
176
     1
 90
        2
176
     1
 40
-0.6
176
     1
 41
30.0
176
     1
 62
     5
 63
     7
421
 16777215
176
     1
 74
     1
176
     1
 91
        4
176
     1
 64
     7
176
     1
 65
   257
176
     1
 75
     1
176
     1
175
     1
176
     1
 42
1.0
176
     1
 92
        0
176
     1
 66
   257
176
     1
 43
1.0
176
     1
 76
     1
176
     1
 77
     6
176
     1
 78
     2
176
     1
 67
     7
176
     1
 79
     5
176
     1
170
     0
176
     1
171
     0
176
     1
290
     0
176
     1
 93
       13
176
     1
 44
0.0
176
     1
173
     0
176
     1
  0
VISUALSTYLE
  5
38
102
{ACAD_REACTORS
330
2A
102
}
330
2A
100
AcDbVisualStyle
  2
Linepattern
 70
    14
177
     2
291
     1
 71
     2
176
     1
 72
     2
176
     1
 73
     0
176
     1
 90
        0
176
     1
 40
-0.6
176
     1
 41
-30.0
176
     1
 62
     5
 63
     7
421
 16777215
176
     1
 74
     1
176
     1
 91
        4
176
     1
 64
     7
176
     1
 65
   257
176
     1
 75
     7
176
     1
175
     7
176
     1
 42
1.0
176
     1
 92
        8
176
     1
 66
     7
176
     1
 43
1.0
176
     1
 76
     1
176
     1
 77
     6
176
     1
 78
     2
176
     1
 67
     7
176
     1
 79
     5
176
     1
170
     0
176
     1
171
     0
176
     1
290
     0
176
     1
 93
        1
176
     1
 44
0.0
176
     1
173
     0
176
     1
  0
VISUALSTYLE
  5
33
102
{ACAD_REACTORS
330
2A
102
}
330
2A
100
AcDbVisualStyle
  2
Realistic
 70
     8
177
     2
291
     0
 71
     2
176
     1
 72
     2
176
     1
 73
     0
176
     1
 90
        0
176
     1
 40
-0.6
176
     1
 41
-30.0
176
     1
 62
     5
 63
     7
421
 16777215
176
     1
 74
     1
176
     1
 91
        0
176
     1
 64
     7
176
     1
 65
   257
176
     1
 75
     1
176
     1
175
     1
176
     1
 42
1.0
176
     1
 92
        8
176
     1
 66
     8
424
  7895160
176
     1
 43
1.0
176
     1
 76
     1
176
     1
 77
     6
176
     1
 78
     2
176
     1
 67
     7
176
     1
 79
     5
176
     1
170
     0
176
     1
171
     0
176
     1
290
     0
176
     1
 93
       13
176
     1
 44
0.0
176
     1
173
     0
176
     1
  0
VISUALSTYLE
  5
37
102
{ACAD_REACTORS
330
2A
102
}
330
2A
100
AcDbVisualStyle
  2
Thicken
 70
    13
177
     2
291
     1
 71
     2
176
     1
 72
     2
176
     1
 73
     0
176
     1
 90
        0
176
     1
 40
-0.6
176
     1
 41
-30.0
176
     1
 62
     5
 63
     7
421
 16777215
176
     1
 74
     1
176
     1
 91
        4
176
     1
 64
     7
176
     1
 65
   257
176
     1
 75
     1
176
     1
175
     1
176
     1
 42
1.0
176
     1
 92
       12
176
     1
 66
     7
176
     1
 43
1.0
176
     1
 76
     1
176
     1
 77
     6
176
     1
 78
     2
176
     1
 67
     7
176
     1
 79
     5
176
     1
170
     0
176
     1
171
     0
176
     1
290
     0
176
     1
 93
        1
176
     1
 44
0.0
176
     1
173
     0
176
     1
  0
ENDSEC
  0
EOF
