solid A498
facet normal -0.3801674246788025 0.9178053736686707 0.1144817098975182
  outer loop
    vertex -4.027500152587891 6.975834846496582 7.699999809265137
    vertex -2.316430568695068 8.645035743713379 0
    vertex -4.474999904632568 7.750927448272705 0
  endloop
endfacet
facet normal -0.3801674246788025 0.9178053736686707 0.1144817098975182
  outer loop
    vertex -2.316430568695068 8.645035743713379 0
    vertex -4.027500152587891 6.975834846496582 7.699999809265137
    vertex -2.084787368774414 7.780532360076904 7.699999809265137
  endloop
endfacet
facet normal 0.7933533191680908 -0.6087614297866821 0
  outer loop
    vertex 3.031088829040527 -1.75 3
    vertex 2.474873781204224 -2.474873781204224 6.199999809265137
    vertex 2.474873781204224 -2.474873781204224 3
  endloop
endfacet
facet normal 0.7933533191680908 -0.6087614297866821 0
  outer loop
    vertex 2.474873781204224 -2.474873781204224 6.199999809265137
    vertex 3.031088829040527 -1.75 3
    vertex 3.031088829040527 -1.75 6.199999809265137
  endloop
endfacet
facet normal -0.1296680271625519 0.9849264621734619 0.1144817098975182
  outer loop
    vertex -2.084787368774414 7.780532360076904 7.699999809265137
    vertex 5.480294169010259e-16 8.949999809265137 0
    vertex -2.316430568695068 8.645035743713379 0
  endloop
endfacet
facet normal -0.1296680271625519 0.9849264621734619 0.1144817098975182
  outer loop
    vertex 5.480294169010259e-16 8.949999809265137 0
    vertex -2.084787368774414 7.780532360076904 7.699999809265137
    vertex 4.93226491092791e-16 8.055000305175781 7.699999809265137
  endloop
endfacet
facet normal -0.7881373167037964 -0.6047590374946594 0.1144817098975182
  outer loop
    vertex -5.69574499130249 -5.69574499130249 7.699999809265137
    vertex -7.750927448272705 -4.474999904632568 0
    vertex -6.328605651855469 -6.328605651855469 0
  endloop
endfacet
facet normal -0.7881373167037964 -0.6047590374946594 0.1144817098975182
  outer loop
    vertex -7.750927448272705 -4.474999904632568 0
    vertex -5.69574499130249 -5.69574499130249 7.699999809265137
    vertex -6.975834846496582 -4.027500152587891 7.699999809265137
  endloop
endfacet
facet normal -0.9914448857307434 0.1305261850357056 0
  outer loop
    vertex -3.380740404129028 0.9058666825294495 6.199999809265137
    vertex -3.5 -1.836970134121145e-19 3
    vertex -3.5 -1.836970134121145e-19 6.199999809265137
  endloop
endfacet
facet normal -0.9914448857307434 0.1305261850357056 0
  outer loop
    vertex -3.5 -1.836970134121145e-19 3
    vertex -3.380740404129028 0.9058666825294495 6.199999809265137
    vertex -3.380740404129028 0.9058666825294495 3
  endloop
endfacet
facet normal 0.9914448857307434 0.1305261850357056 0
  outer loop
    vertex 3.380740404129028 0.9058666825294495 3
    vertex 3.5 -4.288100854403547e-16 6.199999809265137
    vertex 3.5 -4.288100854403547e-16 3
  endloop
endfacet
facet normal 0.9914448857307434 0.1305261850357056 0
  outer loop
    vertex 3.5 -4.288100854403547e-16 6.199999809265137
    vertex 3.380740404129028 0.9058666825294495 3
    vertex 3.380740404129028 0.9058666825294495 6.199999809265137
  endloop
endfacet
facet normal 0.7881373167037964 0.6047590374946594 0.1144817098975182
  outer loop
    vertex 7.750927448272705 4.474999904632568 0
    vertex 5.69574499130249 5.69574499130249 7.699999809265137
    vertex 6.975834846496582 4.027500152587891 7.699999809265137
  endloop
endfacet
facet normal 0.7881373167037964 0.6047590374946594 0.1144817098975182
  outer loop
    vertex 5.69574499130249 5.69574499130249 7.699999809265137
    vertex 7.750927448272705 4.474999904632568 0
    vertex 6.328605651855469 6.328605651855469 0
  endloop
endfacet
facet normal 0.1305261850357056 -0.9914448857307434 0
  outer loop
    vertex 0.9058666825294495 -3.380740404129028 6.199999809265137
    vertex -6.429395645199886e-16 -3.5 3
    vertex 0.9058666825294495 -3.380740404129028 3
  endloop
endfacet
facet normal 0.1305261850357056 -0.9914448857307434 0
  outer loop
    vertex -6.429395645199886e-16 -3.5 3
    vertex 0.9058666825294495 -3.380740404129028 6.199999809265137
    vertex -6.429395645199886e-16 -3.5 6.199999809265137
  endloop
endfacet
facet normal 0.7881373167037964 -0.6047590374946594 0.1144817098975182
  outer loop
    vertex 7.750927448272705 -4.474999904632568 0
    vertex 5.69574499130249 -5.69574499130249 7.699999809265137
    vertex 6.328605651855469 -6.328605651855469 0
  endloop
endfacet
facet normal 0.7881373167037964 -0.6047590374946594 0.1144817098975182
  outer loop
    vertex 5.69574499130249 -5.69574499130249 7.699999809265137
    vertex 7.750927448272705 -4.474999904632568 0
    vertex 6.975834846496582 -4.027500152587891 7.699999809265137
  endloop
endfacet
facet normal 0.6087614297866821 -0.7933533191680908 0
  outer loop
    vertex 2.474873781204224 -2.474873781204224 6.199999809265137
    vertex 1.75 -3.031088829040527 3
    vertex 2.474873781204224 -2.474873781204224 3
  endloop
endfacet
facet normal 0.6087614297866821 -0.7933533191680908 0
  outer loop
    vertex 1.75 -3.031088829040527 3
    vertex 2.474873781204224 -2.474873781204224 6.199999809265137
    vertex 1.75 -3.031088829040527 6.199999809265137
  endloop
endfacet
facet normal -0.9178053736686707 -0.3801674246788025 0.1144817098975182
  outer loop
    vertex -6.975834846496582 -4.027500152587891 7.699999809265137
    vertex -8.645035743713379 -2.316430568695068 0
    vertex -7.750927448272705 -4.474999904632568 0
  endloop
endfacet
facet normal -0.9178053736686707 -0.3801674246788025 0.1144817098975182
  outer loop
    vertex -8.645035743713379 -2.316430568695068 0
    vertex -6.975834846496582 -4.027500152587891 7.699999809265137
    vertex -7.780532360076904 -2.084787368774414 7.699999809265137
  endloop
endfacet
facet normal 0.9178053736686707 -0.3801674246788025 0.1144817098975182
  outer loop
    vertex 8.645035743713379 -2.316430568695068 0
    vertex 6.975834846496582 -4.027500152587891 7.699999809265137
    vertex 7.750927448272705 -4.474999904632568 0
  endloop
endfacet
facet normal 0.9178053736686707 -0.3801674246788025 0.1144817098975182
  outer loop
    vertex 6.975834846496582 -4.027500152587891 7.699999809265137
    vertex 8.645035743713379 -2.316430568695068 0
    vertex 7.780532360076904 -2.084787368774414 7.699999809265137
  endloop
endfacet
facet normal 0.9238795042037964 -0.3826834261417389 0
  outer loop
    vertex 3.380740404129028 -0.9058666825294495 3
    vertex 3.031088829040527 -1.75 6.199999809265137
    vertex 3.031088829040527 -1.75 3
  endloop
endfacet
facet normal 0.9238795042037964 -0.3826834261417389 0
  outer loop
    vertex 3.031088829040527 -1.75 6.199999809265137
    vertex 3.380740404129028 -0.9058666825294495 3
    vertex 3.380740404129028 -0.9058666825294495 6.199999809265137
  endloop
endfacet
facet normal 0.9849264621734619 -0.1296680271625519 0.1144817098975182
  outer loop
    vertex 8.949999809265137 0 0
    vertex 7.780532360076904 -2.084787368774414 7.699999809265137
    vertex 8.645035743713379 -2.316430568695068 0
  endloop
endfacet
facet normal 0.9849264621734619 -0.1296680271625519 0.1144817098975182
  outer loop
    vertex 7.780532360076904 -2.084787368774414 7.699999809265137
    vertex 8.949999809265137 0 0
    vertex 8.055000305175781 0 7.699999809265137
  endloop
endfacet
facet normal 0.3826834261417389 -0.9238795042037964 0
  outer loop
    vertex 1.75 -3.031088829040527 6.199999809265137
    vertex 0.9058666825294495 -3.380740404129028 3
    vertex 1.75 -3.031088829040527 3
  endloop
endfacet
facet normal 0.3826834261417389 -0.9238795042037964 0
  outer loop
    vertex 0.9058666825294495 -3.380740404129028 3
    vertex 1.75 -3.031088829040527 6.199999809265137
    vertex 0.9058666825294495 -3.380740404129028 6.199999809265137
  endloop
endfacet
facet normal -0.3826834261417389 -0.9238795042037964 -0
  outer loop
    vertex -0.9058666825294495 -3.380740404129028 6.199999809265137
    vertex -1.75 -3.031088829040527 3
    vertex -0.9058666825294495 -3.380740404129028 3
  endloop
endfacet
facet normal -0.3826834261417389 -0.9238795042037964 -0
  outer loop
    vertex -1.75 -3.031088829040527 3
    vertex -0.9058666825294495 -3.380740404129028 6.199999809265137
    vertex -1.75 -3.031088829040527 6.199999809265137
  endloop
endfacet
facet normal -0.9849264621734619 0.1296680271625519 0.1144817098975182
  outer loop
    vertex -7.780532360076904 2.084787368774414 7.699999809265137
    vertex -8.949999809265137 1.096058833802052e-15 0
    vertex -8.055000305175781 9.864529821855821e-16 7.699999809265137
  endloop
endfacet
facet normal -0.9849264621734619 0.1296680271625519 0.1144817098975182
  outer loop
    vertex -8.949999809265137 1.096058833802052e-15 0
    vertex -7.780532360076904 2.084787368774414 7.699999809265137
    vertex -8.645035743713379 2.316430568695068 0
  endloop
endfacet
facet normal -0.9238795042037964 -0.3826834261417389 -0
  outer loop
    vertex -3.380740404129028 -0.9058666825294495 6.199999809265137
    vertex -3.031088829040527 -1.75 3
    vertex -3.031088829040527 -1.75 6.199999809265137
  endloop
endfacet
facet normal -0.9238795042037964 -0.3826834261417389 -0
  outer loop
    vertex -3.031088829040527 -1.75 3
    vertex -3.380740404129028 -0.9058666825294495 6.199999809265137
    vertex -3.380740404129028 -0.9058666825294495 3
  endloop
endfacet
facet normal -0.6047590374946594 -0.7881373167037964 0.1144817098975182
  outer loop
    vertex -4.027500152587891 -6.975834846496582 7.699999809265137
    vertex -6.328605651855469 -6.328605651855469 0
    vertex -4.474999904632568 -7.750927448272705 0
  endloop
endfacet
facet normal -0.6047590374946594 -0.7881373167037964 0.1144817098975182
  outer loop
    vertex -6.328605651855469 -6.328605651855469 0
    vertex -4.027500152587891 -6.975834846496582 7.699999809265137
    vertex -5.69574499130249 -5.69574499130249 7.699999809265137
  endloop
endfacet
facet normal 0.9178053736686707 0.3801674246788025 0.1144817098975182
  outer loop
    vertex 8.645035743713379 2.316430568695068 0
    vertex 6.975834846496582 4.027500152587891 7.699999809265137
    vertex 7.780532360076904 2.084787368774414 7.699999809265137
  endloop
endfacet
facet normal 0.9178053736686707 0.3801674246788025 0.1144817098975182
  outer loop
    vertex 6.975834846496582 4.027500152587891 7.699999809265137
    vertex 8.645035743713379 2.316430568695068 0
    vertex 7.750927448272705 4.474999904632568 0
  endloop
endfacet
facet normal -0.1305261850357056 -0.9914448857307434 -0
  outer loop
    vertex -6.429395645199886e-16 -3.5 6.199999809265137
    vertex -0.9058666825294495 -3.380740404129028 3
    vertex -6.429395645199886e-16 -3.5 3
  endloop
endfacet
facet normal -0.1305261850357056 -0.9914448857307434 -0
  outer loop
    vertex -0.9058666825294495 -3.380740404129028 3
    vertex -6.429395645199886e-16 -3.5 6.199999809265137
    vertex -0.9058666825294495 -3.380740404129028 6.199999809265137
  endloop
endfacet
facet normal -0.9914448857307434 -0.1305261850357056 -0
  outer loop
    vertex -3.5 -1.836970134121145e-19 6.199999809265137
    vertex -3.380740404129028 -0.9058666825294495 3
    vertex -3.380740404129028 -0.9058666825294495 6.199999809265137
  endloop
endfacet
facet normal -0.9914448857307434 -0.1305261850357056 -0
  outer loop
    vertex -3.380740404129028 -0.9058666825294495 3
    vertex -3.5 -1.836970134121145e-19 6.199999809265137
    vertex -3.5 -1.836970134121145e-19 3
  endloop
endfacet
facet normal 0.1296680271625519 0.9849264621734619 0.1144817098975182
  outer loop
    vertex 4.93226491092791e-16 8.055000305175781 7.699999809265137
    vertex 2.316430568695068 8.645035743713379 0
    vertex 5.480294169010259e-16 8.949999809265137 0
  endloop
endfacet
facet normal 0.1296680271625519 0.9849264621734619 0.1144817098975182
  outer loop
    vertex 2.316430568695068 8.645035743713379 0
    vertex 4.93226491092791e-16 8.055000305175781 7.699999809265137
    vertex 2.084787368774414 7.780532360076904 7.699999809265137
  endloop
endfacet
facet normal 0 0 -1
  outer loop
    vertex -1.75 3.031088829040527 3
    vertex -2 1.528971496852653e-16 3
    vertex -2.474873781204224 2.474873781204224 3
  endloop
endfacet
facet normal 0 0 -1
  outer loop
    vertex -2 1.528971496852653e-16 3
    vertex -1.75 3.031088829040527 3
    vertex -1.931851625442505 0.517638087272644 3
  endloop
endfacet
facet normal 0 0 -1
  outer loop
    vertex -1.931851625442505 0.517638087272644 3
    vertex -1.75 3.031088829040527 3
    vertex -1.732050776481628 1 3
  endloop
endfacet
facet normal 0 0 -1
  outer loop
    vertex -1.732050776481628 1 3
    vertex -1.75 3.031088829040527 3
    vertex -0.9058666825294495 3.380740404129028 3
  endloop
endfacet
facet normal 0 0 -1
  outer loop
    vertex -1.732050776481628 1 3
    vertex -0.9058666825294495 3.380740404129028 3
    vertex -1.414213538169861 1.414213538169861 3
  endloop
endfacet
facet normal 0 0 -1
  outer loop
    vertex -1.414213538169861 1.414213538169861 3
    vertex -0.9058666825294495 3.380740404129028 3
    vertex -1 1.732050776481628 3
  endloop
endfacet
facet normal 0 0 -1
  outer loop
    vertex -1 1.732050776481628 3
    vertex -0.9058666825294495 3.380740404129028 3
    vertex -0.517638087272644 1.931851625442505 3
  endloop
endfacet
facet normal 0 0 -1
  outer loop
    vertex -0.517638087272644 1.931851625442505 3
    vertex -0.9058666825294495 3.380740404129028 3
    vertex 2.143131925849595e-16 3.5 3
  endloop
endfacet
facet normal 0 0 -1
  outer loop
    vertex -0.517638087272644 1.931851625442505 3
    vertex 2.143131925849595e-16 3.5 3
    vertex 2.449293705170336e-16 2 3
  endloop
endfacet
facet normal 0 0 -1
  outer loop
    vertex 2.449293705170336e-16 2 3
    vertex 2.143131925849595e-16 3.5 3
    vertex 0.9058666825294495 3.380740404129028 3
  endloop
endfacet
facet normal 0 0 -1
  outer loop
    vertex 2.449293705170336e-16 2 3
    vertex 0.9058666825294495 3.380740404129028 3
    vertex 0.517638087272644 1.931851625442505 3
  endloop
endfacet
facet normal 0 0 -1
  outer loop
    vertex 0.517638087272644 1.931851625442505 3
    vertex 0.9058666825294495 3.380740404129028 3
    vertex 1 1.732050776481628 3
  endloop
endfacet
facet normal 0 0 -1
  outer loop
    vertex 1 1.732050776481628 3
    vertex 0.9058666825294495 3.380740404129028 3
    vertex 1.75 3.031088829040527 3
  endloop
endfacet
facet normal 0 0 -1
  outer loop
    vertex 1 1.732050776481628 3
    vertex 1.75 3.031088829040527 3
    vertex 1.414213538169861 1.414213538169861 3
  endloop
endfacet
facet normal 0 0 -1
  outer loop
    vertex 1.414213538169861 1.414213538169861 3
    vertex 1.75 3.031088829040527 3
    vertex 1.732050776481628 1 3
  endloop
endfacet
facet normal 0 0 -1
  outer loop
    vertex 1.732050776481628 1 3
    vertex 1.75 3.031088829040527 3
    vertex 1.931851625442505 0.517638087272644 3
  endloop
endfacet
facet normal 0 0 -1
  outer loop
    vertex 1.931851625442505 0.517638087272644 3
    vertex 1.75 3.031088829040527 3
    vertex 2.474873781204224 2.474873781204224 3
  endloop
endfacet
facet normal 0 0 -1
  outer loop
    vertex 1.931851625442505 0.517638087272644 3
    vertex 2.474873781204224 2.474873781204224 3
    vertex 2 -3.369615648790222e-16 3
  endloop
endfacet
facet normal 0 0 -1
  outer loop
    vertex 2 -3.369615648790222e-16 3
    vertex 2.474873781204224 2.474873781204224 3
    vertex 2.474873781204224 -2.474873781204224 3
  endloop
endfacet
facet normal 0 0 -1
  outer loop
    vertex 2.474873781204224 -2.474873781204224 3
    vertex 2.474873781204224 2.474873781204224 3
    vertex 3.031088829040527 -1.75 3
  endloop
endfacet
facet normal 0 0 -1
  outer loop
    vertex 3.031088829040527 -1.75 3
    vertex 2.474873781204224 2.474873781204224 3
    vertex 3.031088829040527 1.75 3
  endloop
endfacet
facet normal 0 0 -1
  outer loop
    vertex 3.031088829040527 -1.75 3
    vertex 3.031088829040527 1.75 3
    vertex 3.380740404129028 -0.9058666825294495 3
  endloop
endfacet
facet normal 0 0 -1
  outer loop
    vertex 3.380740404129028 -0.9058666825294495 3
    vertex 3.031088829040527 1.75 3
    vertex 3.380740404129028 0.9058666825294495 3
  endloop
endfacet
facet normal 0 0 -1
  outer loop
    vertex 3.380740404129028 -0.9058666825294495 3
    vertex 3.380740404129028 0.9058666825294495 3
    vertex 3.5 -4.288100854403547e-16 3
  endloop
endfacet
facet normal 0 0 -1
  outer loop
    vertex -3.380740404129028 0.9058666825294495 3
    vertex -3.380740404129028 -0.9058666825294495 3
    vertex -3.5 -1.836970134121145e-19 3
  endloop
endfacet
facet normal 0 0 -1
  outer loop
    vertex -3.380740404129028 -0.9058666825294495 3
    vertex -3.380740404129028 0.9058666825294495 3
    vertex -3.031088829040527 -1.75 3
  endloop
endfacet
facet normal 0 0 -1
  outer loop
    vertex -3.031088829040527 -1.75 3
    vertex -3.380740404129028 0.9058666825294495 3
    vertex -3.031088829040527 1.75 3
  endloop
endfacet
facet normal 0 0 -1
  outer loop
    vertex -3.031088829040527 -1.75 3
    vertex -3.031088829040527 1.75 3
    vertex -2.474873781204224 -2.474873781204224 3
  endloop
endfacet
facet normal 0 0 -1
  outer loop
    vertex -2.474873781204224 -2.474873781204224 3
    vertex -3.031088829040527 1.75 3
    vertex -2.474873781204224 2.474873781204224 3
  endloop
endfacet
facet normal 0 0 -1
  outer loop
    vertex -2.474873781204224 -2.474873781204224 3
    vertex -2.474873781204224 2.474873781204224 3
    vertex -1.75 -3.031088829040527 3
  endloop
endfacet
facet normal 0 0 -1
  outer loop
    vertex -1.75 -3.031088829040527 3
    vertex -2.474873781204224 2.474873781204224 3
    vertex -2 1.528971496852653e-16 3
  endloop
endfacet
facet normal 0 0 -1
  outer loop
    vertex -1.75 -3.031088829040527 3
    vertex -2 1.528971496852653e-16 3
    vertex -1.931851625442505 -0.517638087272644 3
  endloop
endfacet
facet normal 0 0 -1
  outer loop
    vertex -1.75 -3.031088829040527 3
    vertex -1.931851625442505 -0.517638087272644 3
    vertex -1.732050776481628 -1 3
  endloop
endfacet
facet normal 0 0 -1
  outer loop
    vertex -1.75 -3.031088829040527 3
    vertex -1.732050776481628 -1 3
    vertex -0.9058666825294495 -3.380740404129028 3
  endloop
endfacet
facet normal 0 0 -1
  outer loop
    vertex -0.9058666825294495 -3.380740404129028 3
    vertex -1.732050776481628 -1 3
    vertex -1.414213538169861 -1.414213538169861 3
  endloop
endfacet
facet normal 0 0 -1
  outer loop
    vertex -0.9058666825294495 -3.380740404129028 3
    vertex -1.414213538169861 -1.414213538169861 3
    vertex -1 -1.732050776481628 3
  endloop
endfacet
facet normal 0 0 -1
  outer loop
    vertex -0.9058666825294495 -3.380740404129028 3
    vertex -1 -1.732050776481628 3
    vertex -0.517638087272644 -1.931851625442505 3
  endloop
endfacet
facet normal 0 0 -1
  outer loop
    vertex -0.9058666825294495 -3.380740404129028 3
    vertex -0.517638087272644 -1.931851625442505 3
    vertex -6.429395645199886e-16 -3.5 3
  endloop
endfacet
facet normal 0 0 -1
  outer loop
    vertex -6.429395645199886e-16 -3.5 3
    vertex -0.517638087272644 -1.931851625442505 3
    vertex -4.898587410340671e-16 -2 3
  endloop
endfacet
facet normal 0 0 -1
  outer loop
    vertex -6.429395645199886e-16 -3.5 3
    vertex -4.898587410340671e-16 -2 3
    vertex 0.9058666825294495 -3.380740404129028 3
  endloop
endfacet
facet normal 0 0 -1
  outer loop
    vertex 0.9058666825294495 -3.380740404129028 3
    vertex -4.898587410340671e-16 -2 3
    vertex 0.517638087272644 -1.931851625442505 3
  endloop
endfacet
facet normal 0 0 -1
  outer loop
    vertex 0.9058666825294495 -3.380740404129028 3
    vertex 0.517638087272644 -1.931851625442505 3
    vertex 1 -1.732050776481628 3
  endloop
endfacet
facet normal 0 0 -1
  outer loop
    vertex 0.9058666825294495 -3.380740404129028 3
    vertex 1 -1.732050776481628 3
    vertex 1.75 -3.031088829040527 3
  endloop
endfacet
facet normal 0 0 -1
  outer loop
    vertex 1.75 -3.031088829040527 3
    vertex 1 -1.732050776481628 3
    vertex 1.414213538169861 -1.414213538169861 3
  endloop
endfacet
facet normal 0 0 -1
  outer loop
    vertex 1.75 -3.031088829040527 3
    vertex 1.414213538169861 -1.414213538169861 3
    vertex 1.732050776481628 -1 3
  endloop
endfacet
facet normal 0 0 -1
  outer loop
    vertex 1.75 -3.031088829040527 3
    vertex 1.732050776481628 -1 3
    vertex 1.931851625442505 -0.517638087272644 3
  endloop
endfacet
facet normal 0 0 -1
  outer loop
    vertex 1.75 -3.031088829040527 3
    vertex 1.931851625442505 -0.517638087272644 3
    vertex 2.474873781204224 -2.474873781204224 3
  endloop
endfacet
facet normal 0 0 -1
  outer loop
    vertex 2.474873781204224 -2.474873781204224 3
    vertex 1.931851625442505 -0.517638087272644 3
    vertex 2 -3.369615648790222e-16 3
  endloop
endfacet
facet normal -0.9178053736686707 0.3801674246788025 0.1144817098975182
  outer loop
    vertex -6.975834846496582 4.027500152587891 7.699999809265137
    vertex -8.645035743713379 2.316430568695068 0
    vertex -7.780532360076904 2.084787368774414 7.699999809265137
  endloop
endfacet
facet normal -0.9178053736686707 0.3801674246788025 0.1144817098975182
  outer loop
    vertex -8.645035743713379 2.316430568695068 0
    vertex -6.975834846496582 4.027500152587891 7.699999809265137
    vertex -7.750927448272705 4.474999904632568 0
  endloop
endfacet
facet normal 0.9914448857307434 -0.1305261850357056 0
  outer loop
    vertex 3.5 -4.288100854403547e-16 3
    vertex 3.380740404129028 -0.9058666825294495 6.199999809265137
    vertex 3.380740404129028 -0.9058666825294495 3
  endloop
endfacet
facet normal 0.9914448857307434 -0.1305261850357056 0
  outer loop
    vertex 3.380740404129028 -0.9058666825294495 6.199999809265137
    vertex 3.5 -4.288100854403547e-16 3
    vertex 3.5 -4.288100854403547e-16 6.199999809265137
  endloop
endfacet
facet normal 0.9849264621734619 0.1296680271625519 0.1144817098975182
  outer loop
    vertex 8.645035743713379 2.316430568695068 0
    vertex 8.055000305175781 0 7.699999809265137
    vertex 8.949999809265137 0 0
  endloop
endfacet
facet normal 0.9849264621734619 0.1296680271625519 0.1144817098975182
  outer loop
    vertex 8.055000305175781 0 7.699999809265137
    vertex 8.645035743713379 2.316430568695068 0
    vertex 7.780532360076904 2.084787368774414 7.699999809265137
  endloop
endfacet
facet normal 0.3801674246788025 0.9178053736686707 0.1144817098975182
  outer loop
    vertex 2.084787368774414 7.780532360076904 7.699999809265137
    vertex 4.474999904632568 7.750927448272705 0
    vertex 2.316430568695068 8.645035743713379 0
  endloop
endfacet
facet normal 0.3801674246788025 0.9178053736686707 0.1144817098975182
  outer loop
    vertex 4.474999904632568 7.750927448272705 0
    vertex 2.084787368774414 7.780532360076904 7.699999809265137
    vertex 4.027500152587891 6.975834846496582 7.699999809265137
  endloop
endfacet
facet normal -0.6087614297866821 -0.7933533191680908 -0
  outer loop
    vertex -1.75 -3.031088829040527 6.199999809265137
    vertex -2.474873781204224 -2.474873781204224 3
    vertex -1.75 -3.031088829040527 3
  endloop
endfacet
facet normal -0.6087614297866821 -0.7933533191680908 -0
  outer loop
    vertex -2.474873781204224 -2.474873781204224 3
    vertex -1.75 -3.031088829040527 6.199999809265137
    vertex -2.474873781204224 -2.474873781204224 6.199999809265137
  endloop
endfacet
facet normal -0.7933533191680908 -0.6087614297866821 -0
  outer loop
    vertex -3.031088829040527 -1.75 6.199999809265137
    vertex -2.474873781204224 -2.474873781204224 3
    vertex -2.474873781204224 -2.474873781204224 6.199999809265137
  endloop
endfacet
facet normal -0.7933533191680908 -0.6087614297866821 -0
  outer loop
    vertex -2.474873781204224 -2.474873781204224 3
    vertex -3.031088829040527 -1.75 6.199999809265137
    vertex -3.031088829040527 -1.75 3
  endloop
endfacet
facet normal 0.7913342714309692 -0.6072121858596802 -0.07129806280136108
  outer loop
    vertex -6.451889038085938 3.724999904632568 0
    vertex -4.951869010925293 4.951869010925293 6.199999809265137
    vertex -6.064775943756104 3.501499891281128 6.199999809265137
  endloop
endfacet
facet normal 0.7913342714309692 -0.6072121858596802 -0.07129806280136108
  outer loop
    vertex -4.951869010925293 4.951869010925293 6.199999809265137
    vertex -6.451889038085938 3.724999904632568 0
    vertex -5.267945289611816 5.267945289611816 0
  endloop
endfacet
facet normal -0.9889217019081116 -0.1301940083503723 -0.07129806280136108
  outer loop
    vertex 6.764378547668457 1.812509775161743 6.199999809265137
    vertex 7.449999809265137 0 0
    vertex 7.002999782562256 0 6.199999809265137
  endloop
endfacet
facet normal -0.9889217019081116 -0.1301940083503723 -0.07129806280136108
  outer loop
    vertex 7.449999809265137 0 0
    vertex 6.764378547668457 1.812509775161743 6.199999809265137
    vertex 7.196147441864014 1.928201913833618 0
  endloop
endfacet
facet normal 0.3817095160484314 0.9215283393859863 -0.07129806280136108
  outer loop
    vertex -3.501499891281128 -6.064775943756104 6.199999809265137
    vertex -1.928201913833618 -7.196147441864014 0
    vertex -3.724999904632568 -6.451889038085938 0
  endloop
endfacet
facet normal 0.3817095160484314 0.9215283393859863 -0.07129806280136108
  outer loop
    vertex -1.928201913833618 -7.196147441864014 0
    vertex -3.501499891281128 -6.064775943756104 6.199999809265137
    vertex -1.812509775161743 -6.764378547668457 6.199999809265137
  endloop
endfacet
facet normal -0.1301940083503723 0.9889217019081116 -0.07129806280136108
  outer loop
    vertex 4.288100854403547e-16 -7.002999782562256 6.199999809265137
    vertex 1.928201913833618 -7.196147441864014 0
    vertex 4.56180922809473e-16 -7.449999809265137 0
  endloop
endfacet
facet normal -0.1301940083503723 0.9889217019081116 -0.07129806280136108
  outer loop
    vertex 1.928201913833618 -7.196147441864014 0
    vertex 4.288100854403547e-16 -7.002999782562256 6.199999809265137
    vertex 1.812509775161743 -6.764378547668457 6.199999809265137
  endloop
endfacet
facet normal -0.7913342714309692 -0.6072121858596802 -0.07129806280136108
  outer loop
    vertex 4.951869010925293 4.951869010925293 6.199999809265137
    vertex 6.451889038085938 3.724999904632568 0
    vertex 6.064775943756104 3.501499891281128 6.199999809265137
  endloop
endfacet
facet normal -0.7913342714309692 -0.6072121858596802 -0.07129806280136108
  outer loop
    vertex 6.451889038085938 3.724999904632568 0
    vertex 4.951869010925293 4.951869010925293 6.199999809265137
    vertex 5.267945289611816 5.267945289611816 0
  endloop
endfacet
facet normal 0.6072121858596802 -0.7913342714309692 -0.07129806280136108
  outer loop
    vertex -3.501499891281128 6.064775943756104 6.199999809265137
    vertex -5.267945289611816 5.267945289611816 0
    vertex -3.724999904632568 6.451889038085938 0
  endloop
endfacet
facet normal 0.6072121858596802 -0.7913342714309692 -0.07129806280136108
  outer loop
    vertex -5.267945289611816 5.267945289611816 0
    vertex -3.501499891281128 6.064775943756104 6.199999809265137
    vertex -4.951869010925293 4.951869010925293 6.199999809265137
  endloop
endfacet
facet normal -0.3817095160484314 0.9215283393859863 -0.07129806280136108
  outer loop
    vertex 1.812509775161743 -6.764378547668457 6.199999809265137
    vertex 3.724999904632568 -6.451889038085938 0
    vertex 1.928201913833618 -7.196147441864014 0
  endloop
endfacet
facet normal -0.3817095160484314 0.9215283393859863 -0.07129806280136108
  outer loop
    vertex 3.724999904632568 -6.451889038085938 0
    vertex 1.812509775161743 -6.764378547668457 6.199999809265137
    vertex 3.501499891281128 -6.064775943756104 6.199999809265137
  endloop
endfacet
facet normal -0.1301940083503723 -0.9889217019081116 -0.07129806280136108
  outer loop
    vertex 1.812509775161743 6.764378547668457 6.199999809265137
    vertex -1.368542768428419e-15 7.449999809265137 0
    vertex 1.928201913833618 7.196147441864014 0
  endloop
endfacet
facet normal -0.1301940083503723 -0.9889217019081116 -0.07129806280136108
  outer loop
    vertex -1.368542768428419e-15 7.449999809265137 0
    vertex 1.812509775161743 6.764378547668457 6.199999809265137
    vertex -1.286430229851285e-15 7.002999782562256 6.199999809265137
  endloop
endfacet
facet normal -0.9215283393859863 -0.3817095160484314 -0.07129806280136108
  outer loop
    vertex 6.064775943756104 3.501499891281128 6.199999809265137
    vertex 7.196147441864014 1.928201913833618 0
    vertex 6.764378547668457 1.812509775161743 6.199999809265137
  endloop
endfacet
facet normal -0.9215283393859863 -0.3817095160484314 -0.07129806280136108
  outer loop
    vertex 7.196147441864014 1.928201913833618 0
    vertex 6.064775943756104 3.501499891281128 6.199999809265137
    vertex 6.451889038085938 3.724999904632568 0
  endloop
endfacet
facet normal 0.7913342714309692 0.6072121858596802 -0.07129806280136108
  outer loop
    vertex -6.451889038085938 -3.724999904632568 0
    vertex -4.951869010925293 -4.951869010925293 6.199999809265137
    vertex -5.267945289611816 -5.267945289611816 0
  endloop
endfacet
facet normal 0.7913342714309692 0.6072121858596802 -0.07129806280136108
  outer loop
    vertex -4.951869010925293 -4.951869010925293 6.199999809265137
    vertex -6.451889038085938 -3.724999904632568 0
    vertex -6.064775943756104 -3.501499891281128 6.199999809265137
  endloop
endfacet
facet normal 0.9889217019081116 0.1301940083503723 -0.07129806280136108
  outer loop
    vertex -7.449999809265137 -9.123618456189459e-16 0
    vertex -6.764378547668457 -1.812509775161743 6.199999809265137
    vertex -7.196147441864014 -1.928201913833618 0
  endloop
endfacet
facet normal 0.9889217019081116 0.1301940083503723 -0.07129806280136108
  outer loop
    vertex -6.764378547668457 -1.812509775161743 6.199999809265137
    vertex -7.449999809265137 -9.123618456189459e-16 0
    vertex -7.002999782562256 -8.576201708807094e-16 6.199999809265137
  endloop
endfacet
facet normal 0.1301940083503723 0.9889217019081116 -0.07129806280136108
  outer loop
    vertex -1.812509775161743 -6.764378547668457 6.199999809265137
    vertex 4.56180922809473e-16 -7.449999809265137 0
    vertex -1.928201913833618 -7.196147441864014 0
  endloop
endfacet
facet normal 0.1301940083503723 0.9889217019081116 -0.07129806280136108
  outer loop
    vertex 4.56180922809473e-16 -7.449999809265137 0
    vertex -1.812509775161743 -6.764378547668457 6.199999809265137
    vertex 4.288100854403547e-16 -7.002999782562256 6.199999809265137
  endloop
endfacet
facet normal 0.9889217019081116 -0.1301940083503723 -0.07129806280136108
  outer loop
    vertex -7.196147441864014 1.928201913833618 0
    vertex -7.002999782562256 -8.576201708807094e-16 6.199999809265137
    vertex -7.449999809265137 -9.123618456189459e-16 0
  endloop
endfacet
facet normal 0.9889217019081116 -0.1301940083503723 -0.07129806280136108
  outer loop
    vertex -7.002999782562256 -8.576201708807094e-16 6.199999809265137
    vertex -7.196147441864014 1.928201913833618 0
    vertex -6.764378547668457 1.812509775161743 6.199999809265137
  endloop
endfacet
facet normal 0.3817095160484314 -0.9215283393859863 -0.07129806280136108
  outer loop
    vertex -1.812509775161743 6.764378547668457 6.199999809265137
    vertex -3.724999904632568 6.451889038085938 0
    vertex -1.928201913833618 7.196147441864014 0
  endloop
endfacet
facet normal 0.3817095160484314 -0.9215283393859863 -0.07129806280136108
  outer loop
    vertex -3.724999904632568 6.451889038085938 0
    vertex -1.812509775161743 6.764378547668457 6.199999809265137
    vertex -3.501499891281128 6.064775943756104 6.199999809265137
  endloop
endfacet
facet normal 0.6072121858596802 0.7913342714309692 -0.07129806280136108
  outer loop
    vertex -4.951869010925293 -4.951869010925293 6.199999809265137
    vertex -3.724999904632568 -6.451889038085938 0
    vertex -5.267945289611816 -5.267945289611816 0
  endloop
endfacet
facet normal 0.6072121858596802 0.7913342714309692 -0.07129806280136108
  outer loop
    vertex -3.724999904632568 -6.451889038085938 0
    vertex -4.951869010925293 -4.951869010925293 6.199999809265137
    vertex -3.501499891281128 -6.064775943756104 6.199999809265137
  endloop
endfacet
facet normal -0.6087614297866821 -0.7933533191680908 -0
  outer loop
    vertex 1.414213538169861 1.414213538169861 6.199999809265137
    vertex 1 1.732050776481628 3
    vertex 1.414213538169861 1.414213538169861 3
  endloop
endfacet
facet normal -0.6087614297866821 -0.7933533191680908 -0
  outer loop
    vertex 1 1.732050776481628 3
    vertex 1.414213538169861 1.414213538169861 6.199999809265137
    vertex 1 1.732050776481628 6.199999809265137
  endloop
endfacet
facet normal 0.7933533191680908 0.6087614297866821 0
  outer loop
    vertex 2.474873781204224 2.474873781204224 3
    vertex 3.031088829040527 1.75 6.199999809265137
    vertex 3.031088829040527 1.75 3
  endloop
endfacet
facet normal 0.7933533191680908 0.6087614297866821 0
  outer loop
    vertex 3.031088829040527 1.75 6.199999809265137
    vertex 2.474873781204224 2.474873781204224 3
    vertex 2.474873781204224 2.474873781204224 6.199999809265137
  endloop
endfacet
facet normal -0.6087614297866821 0.7933533191680908 0
  outer loop
    vertex -2.474873781204224 2.474873781204224 6.199999809265137
    vertex -1.75 3.031088829040527 3
    vertex -2.474873781204224 2.474873781204224 3
  endloop
endfacet
facet normal -0.6087614297866821 0.7933533191680908 0
  outer loop
    vertex -1.75 3.031088829040527 3
    vertex -2.474873781204224 2.474873781204224 6.199999809265137
    vertex -1.75 3.031088829040527 6.199999809265137
  endloop
endfacet
facet normal 0.1305261850357056 0.9914448857307434 0
  outer loop
    vertex 2.143131925849595e-16 3.5 6.199999809265137
    vertex 0.9058666825294495 3.380740404129028 3
    vertex 2.143131925849595e-16 3.5 3
  endloop
endfacet
facet normal 0.1305261850357056 0.9914448857307434 0
  outer loop
    vertex 0.9058666825294495 3.380740404129028 3
    vertex 2.143131925849595e-16 3.5 6.199999809265137
    vertex 0.9058666825294495 3.380740404129028 6.199999809265137
  endloop
endfacet
facet normal -0.9914448857307434 0.1305261850357056 0
  outer loop
    vertex 2 -3.369615648790222e-16 6.199999809265137
    vertex 1.931851625442505 -0.517638087272644 3
    vertex 1.931851625442505 -0.517638087272644 6.199999809265137
  endloop
endfacet
facet normal -0.9914448857307434 0.1305261850357056 0
  outer loop
    vertex 1.931851625442505 -0.517638087272644 3
    vertex 2 -3.369615648790222e-16 6.199999809265137
    vertex 2 -3.369615648790222e-16 3
  endloop
endfacet
facet normal -0.9238795042037964 -0.3826834261417389 -0
  outer loop
    vertex 1.732050776481628 1 6.199999809265137
    vertex 1.931851625442505 0.517638087272644 3
    vertex 1.931851625442505 0.517638087272644 6.199999809265137
  endloop
endfacet
facet normal -0.9238795042037964 -0.3826834261417389 -0
  outer loop
    vertex 1.931851625442505 0.517638087272644 3
    vertex 1.732050776481628 1 6.199999809265137
    vertex 1.732050776481628 1 3
  endloop
endfacet
facet normal -0.1305261850357056 -0.9914448857307434 -0
  outer loop
    vertex 0.517638087272644 1.931851625442505 6.199999809265137
    vertex 2.449293705170336e-16 2 3
    vertex 0.517638087272644 1.931851625442505 3
  endloop
endfacet
facet normal -0.1305261850357056 -0.9914448857307434 -0
  outer loop
    vertex 2.449293705170336e-16 2 3
    vertex 0.517638087272644 1.931851625442505 6.199999809265137
    vertex 2.449293705170336e-16 2 6.199999809265137
  endloop
endfacet
facet normal -0.6087614297866821 0.7933533191680908 0
  outer loop
    vertex 1 -1.732050776481628 6.199999809265137
    vertex 1.414213538169861 -1.414213538169861 3
    vertex 1 -1.732050776481628 3
  endloop
endfacet
facet normal -0.6087614297866821 0.7933533191680908 0
  outer loop
    vertex 1.414213538169861 -1.414213538169861 3
    vertex 1 -1.732050776481628 6.199999809265137
    vertex 1.414213538169861 -1.414213538169861 6.199999809265137
  endloop
endfacet
facet normal -0.1305261850357056 0.9914448857307434 0
  outer loop
    vertex -0.9058666825294495 3.380740404129028 6.199999809265137
    vertex 2.143131925849595e-16 3.5 3
    vertex -0.9058666825294495 3.380740404129028 3
  endloop
endfacet
facet normal -0.1305261850357056 0.9914448857307434 0
  outer loop
    vertex 2.143131925849595e-16 3.5 3
    vertex -0.9058666825294495 3.380740404129028 6.199999809265137
    vertex 2.143131925849595e-16 3.5 6.199999809265137
  endloop
endfacet
facet normal 0.7933533191680908 -0.6087614297866821 0
  outer loop
    vertex -1.414213538169861 1.414213538169861 3
    vertex -1.732050776481628 1 6.199999809265137
    vertex -1.732050776481628 1 3
  endloop
endfacet
facet normal 0.7933533191680908 -0.6087614297866821 0
  outer loop
    vertex -1.732050776481628 1 6.199999809265137
    vertex -1.414213538169861 1.414213538169861 3
    vertex -1.414213538169861 1.414213538169861 6.199999809265137
  endloop
endfacet
facet normal 0.3826834261417389 0.9238795042037964 0
  outer loop
    vertex 0.9058666825294495 3.380740404129028 6.199999809265137
    vertex 1.75 3.031088829040527 3
    vertex 0.9058666825294495 3.380740404129028 3
  endloop
endfacet
facet normal 0.3826834261417389 0.9238795042037964 0
  outer loop
    vertex 1.75 3.031088829040527 3
    vertex 0.9058666825294495 3.380740404129028 6.199999809265137
    vertex 1.75 3.031088829040527 6.199999809265137
  endloop
endfacet
facet normal 0.9238795042037964 -0.3826834261417389 0
  outer loop
    vertex -1.732050776481628 1 3
    vertex -1.931851625442505 0.517638087272644 6.199999809265137
    vertex -1.931851625442505 0.517638087272644 3
  endloop
endfacet
facet normal 0.9238795042037964 -0.3826834261417389 0
  outer loop
    vertex -1.931851625442505 0.517638087272644 6.199999809265137
    vertex -1.732050776481628 1 3
    vertex -1.732050776481628 1 6.199999809265137
  endloop
endfacet
facet normal -0.3826834261417389 0.9238795042037964 0
  outer loop
    vertex -1.75 3.031088829040527 6.199999809265137
    vertex -0.9058666825294495 3.380740404129028 3
    vertex -1.75 3.031088829040527 3
  endloop
endfacet
facet normal -0.3826834261417389 0.9238795042037964 0
  outer loop
    vertex -0.9058666825294495 3.380740404129028 3
    vertex -1.75 3.031088829040527 6.199999809265137
    vertex -0.9058666825294495 3.380740404129028 6.199999809265137
  endloop
endfacet
facet normal -0.9238795042037964 0.3826834261417389 0
  outer loop
    vertex -3.031088829040527 1.75 6.199999809265137
    vertex -3.380740404129028 0.9058666825294495 3
    vertex -3.380740404129028 0.9058666825294495 6.199999809265137
  endloop
endfacet
facet normal -0.9238795042037964 0.3826834261417389 0
  outer loop
    vertex -3.380740404129028 0.9058666825294495 3
    vertex -3.031088829040527 1.75 6.199999809265137
    vertex -3.031088829040527 1.75 3
  endloop
endfacet
facet normal -0.9914448857307434 -0.1305261850357056 -0
  outer loop
    vertex 1.931851625442505 0.517638087272644 6.199999809265137
    vertex 2 -3.369615648790222e-16 3
    vertex 2 -3.369615648790222e-16 6.199999809265137
  endloop
endfacet
facet normal -0.9914448857307434 -0.1305261850357056 -0
  outer loop
    vertex 2 -3.369615648790222e-16 3
    vertex 1.931851625442505 0.517638087272644 6.199999809265137
    vertex 1.931851625442505 0.517638087272644 3
  endloop
endfacet
facet normal 0.3826834261417389 0.9238795042037964 0
  outer loop
    vertex -1 -1.732050776481628 6.199999809265137
    vertex -0.517638087272644 -1.931851625442505 3
    vertex -1 -1.732050776481628 3
  endloop
endfacet
facet normal 0.3826834261417389 0.9238795042037964 0
  outer loop
    vertex -0.517638087272644 -1.931851625442505 3
    vertex -1 -1.732050776481628 6.199999809265137
    vertex -0.517638087272644 -1.931851625442505 6.199999809265137
  endloop
endfacet
facet normal 0.1305261850357056 0.9914448857307434 0
  outer loop
    vertex -0.517638087272644 -1.931851625442505 6.199999809265137
    vertex -4.898587410340671e-16 -2 3
    vertex -0.517638087272644 -1.931851625442505 3
  endloop
endfacet
facet normal 0.1305261850357056 0.9914448857307434 0
  outer loop
    vertex -4.898587410340671e-16 -2 3
    vertex -0.517638087272644 -1.931851625442505 6.199999809265137
    vertex -4.898587410340671e-16 -2 6.199999809265137
  endloop
endfacet
facet normal 0.9238795042037964 0.3826834261417389 0
  outer loop
    vertex 3.031088829040527 1.75 3
    vertex 3.380740404129028 0.9058666825294495 6.199999809265137
    vertex 3.380740404129028 0.9058666825294495 3
  endloop
endfacet
facet normal 0.9238795042037964 0.3826834261417389 0
  outer loop
    vertex 3.380740404129028 0.9058666825294495 6.199999809265137
    vertex 3.031088829040527 1.75 3
    vertex 3.031088829040527 1.75 6.199999809265137
  endloop
endfacet
facet normal -0.7933533191680908 0.6087614297866821 0
  outer loop
    vertex -2.474873781204224 2.474873781204224 6.199999809265137
    vertex -3.031088829040527 1.75 3
    vertex -3.031088829040527 1.75 6.199999809265137
  endloop
endfacet
facet normal -0.7933533191680908 0.6087614297866821 0
  outer loop
    vertex -3.031088829040527 1.75 3
    vertex -2.474873781204224 2.474873781204224 6.199999809265137
    vertex -2.474873781204224 2.474873781204224 3
  endloop
endfacet
facet normal 0.6087614297866821 0.7933533191680908 0
  outer loop
    vertex -1.414213538169861 -1.414213538169861 6.199999809265137
    vertex -1 -1.732050776481628 3
    vertex -1.414213538169861 -1.414213538169861 3
  endloop
endfacet
facet normal 0.6087614297866821 0.7933533191680908 0
  outer loop
    vertex -1 -1.732050776481628 3
    vertex -1.414213538169861 -1.414213538169861 6.199999809265137
    vertex -1 -1.732050776481628 6.199999809265137
  endloop
endfacet
facet normal -0.9238795042037964 0.3826834261417389 0
  outer loop
    vertex 1.931851625442505 -0.517638087272644 6.199999809265137
    vertex 1.732050776481628 -1 3
    vertex 1.732050776481628 -1 6.199999809265137
  endloop
endfacet
facet normal -0.9238795042037964 0.3826834261417389 0
  outer loop
    vertex 1.732050776481628 -1 3
    vertex 1.931851625442505 -0.517638087272644 6.199999809265137
    vertex 1.931851625442505 -0.517638087272644 3
  endloop
endfacet
facet normal 0.9914448857307434 0.1305261850357056 0
  outer loop
    vertex -2 1.528971496852653e-16 3
    vertex -1.931851625442505 -0.517638087272644 6.199999809265137
    vertex -1.931851625442505 -0.517638087272644 3
  endloop
endfacet
facet normal 0.9914448857307434 0.1305261850357056 0
  outer loop
    vertex -1.931851625442505 -0.517638087272644 6.199999809265137
    vertex -2 1.528971496852653e-16 3
    vertex -2 1.528971496852653e-16 6.199999809265137
  endloop
endfacet
facet normal 0.9914448857307434 -0.1305261850357056 0
  outer loop
    vertex -1.931851625442505 0.517638087272644 3
    vertex -2 1.528971496852653e-16 6.199999809265137
    vertex -2 1.528971496852653e-16 3
  endloop
endfacet
facet normal 0.9914448857307434 -0.1305261850357056 0
  outer loop
    vertex -2 1.528971496852653e-16 6.199999809265137
    vertex -1.931851625442505 0.517638087272644 3
    vertex -1.931851625442505 0.517638087272644 6.199999809265137
  endloop
endfacet
facet normal 0.3826834261417389 -0.9238795042037964 0
  outer loop
    vertex -0.517638087272644 1.931851625442505 6.199999809265137
    vertex -1 1.732050776481628 3
    vertex -0.517638087272644 1.931851625442505 3
  endloop
endfacet
facet normal 0.3826834261417389 -0.9238795042037964 0
  outer loop
    vertex -1 1.732050776481628 3
    vertex -0.517638087272644 1.931851625442505 6.199999809265137
    vertex -1 1.732050776481628 6.199999809265137
  endloop
endfacet
facet normal -0.3826834261417389 -0.9238795042037964 -0
  outer loop
    vertex 1 1.732050776481628 6.199999809265137
    vertex 0.517638087272644 1.931851625442505 3
    vertex 1 1.732050776481628 3
  endloop
endfacet
facet normal -0.3826834261417389 -0.9238795042037964 -0
  outer loop
    vertex 0.517638087272644 1.931851625442505 3
    vertex 1 1.732050776481628 6.199999809265137
    vertex 0.517638087272644 1.931851625442505 6.199999809265137
  endloop
endfacet
facet normal 0.9238795042037964 0.3826834261417389 0
  outer loop
    vertex -1.931851625442505 -0.517638087272644 3
    vertex -1.732050776481628 -1 6.199999809265137
    vertex -1.732050776481628 -1 3
  endloop
endfacet
facet normal 0.9238795042037964 0.3826834261417389 0
  outer loop
    vertex -1.732050776481628 -1 6.199999809265137
    vertex -1.931851625442505 -0.517638087272644 3
    vertex -1.931851625442505 -0.517638087272644 6.199999809265137
  endloop
endfacet
facet normal 0.6087614297866821 0.7933533191680908 0
  outer loop
    vertex 1.75 3.031088829040527 6.199999809265137
    vertex 2.474873781204224 2.474873781204224 3
    vertex 1.75 3.031088829040527 3
  endloop
endfacet
facet normal 0.6087614297866821 0.7933533191680908 0
  outer loop
    vertex 2.474873781204224 2.474873781204224 3
    vertex 1.75 3.031088829040527 6.199999809265137
    vertex 2.474873781204224 2.474873781204224 6.199999809265137
  endloop
endfacet
facet normal 0.6087614297866821 -0.7933533191680908 0
  outer loop
    vertex -1 1.732050776481628 6.199999809265137
    vertex -1.414213538169861 1.414213538169861 3
    vertex -1 1.732050776481628 3
  endloop
endfacet
facet normal 0.6087614297866821 -0.7933533191680908 0
  outer loop
    vertex -1.414213538169861 1.414213538169861 3
    vertex -1 1.732050776481628 6.199999809265137
    vertex -1.414213538169861 1.414213538169861 6.199999809265137
  endloop
endfacet
facet normal -0.3826834261417389 0.9238795042037964 0
  outer loop
    vertex 0.517638087272644 -1.931851625442505 6.199999809265137
    vertex 1 -1.732050776481628 3
    vertex 0.517638087272644 -1.931851625442505 3
  endloop
endfacet
facet normal -0.3826834261417389 0.9238795042037964 0
  outer loop
    vertex 1 -1.732050776481628 3
    vertex 0.517638087272644 -1.931851625442505 6.199999809265137
    vertex 1 -1.732050776481628 6.199999809265137
  endloop
endfacet
facet normal 0.1305261850357056 -0.9914448857307434 0
  outer loop
    vertex 2.449293705170336e-16 2 6.199999809265137
    vertex -0.517638087272644 1.931851625442505 3
    vertex 2.449293705170336e-16 2 3
  endloop
endfacet
facet normal 0.1305261850357056 -0.9914448857307434 0
  outer loop
    vertex -0.517638087272644 1.931851625442505 3
    vertex 2.449293705170336e-16 2 6.199999809265137
    vertex -0.517638087272644 1.931851625442505 6.199999809265137
  endloop
endfacet
facet normal 0.7933533191680908 0.6087614297866821 0
  outer loop
    vertex -1.732050776481628 -1 3
    vertex -1.414213538169861 -1.414213538169861 6.199999809265137
    vertex -1.414213538169861 -1.414213538169861 3
  endloop
endfacet
facet normal 0.7933533191680908 0.6087614297866821 0
  outer loop
    vertex -1.414213538169861 -1.414213538169861 6.199999809265137
    vertex -1.732050776481628 -1 3
    vertex -1.732050776481628 -1 6.199999809265137
  endloop
endfacet
facet normal -0.1305261850357056 0.9914448857307434 0
  outer loop
    vertex -4.898587410340671e-16 -2 6.199999809265137
    vertex 0.517638087272644 -1.931851625442505 3
    vertex -4.898587410340671e-16 -2 3
  endloop
endfacet
facet normal -0.1305261850357056 0.9914448857307434 0
  outer loop
    vertex 0.517638087272644 -1.931851625442505 3
    vertex -4.898587410340671e-16 -2 6.199999809265137
    vertex 0.517638087272644 -1.931851625442505 6.199999809265137
  endloop
endfacet
facet normal -0.7933533191680908 -0.6087614297866821 -0
  outer loop
    vertex 1.414213538169861 1.414213538169861 6.199999809265137
    vertex 1.732050776481628 1 3
    vertex 1.732050776481628 1 6.199999809265137
  endloop
endfacet
facet normal -0.7933533191680908 -0.6087614297866821 -0
  outer loop
    vertex 1.732050776481628 1 3
    vertex 1.414213538169861 1.414213538169861 6.199999809265137
    vertex 1.414213538169861 1.414213538169861 3
  endloop
endfacet
facet normal -0.7933533191680908 0.6087614297866821 0
  outer loop
    vertex 1.732050776481628 -1 6.199999809265137
    vertex 1.414213538169861 -1.414213538169861 3
    vertex 1.414213538169861 -1.414213538169861 6.199999809265137
  endloop
endfacet
facet normal -0.7933533191680908 0.6087614297866821 0
  outer loop
    vertex 1.414213538169861 -1.414213538169861 3
    vertex 1.732050776481628 -1 6.199999809265137
    vertex 1.732050776481628 -1 3
  endloop
endfacet
facet normal 0.9215283393859863 -0.3817095160484314 -0.07129806280136108
  outer loop
    vertex -7.196147441864014 1.928201913833618 0
    vertex -6.064775943756104 3.501499891281128 6.199999809265137
    vertex -6.764378547668457 1.812509775161743 6.199999809265137
  endloop
endfacet
facet normal 0.9215283393859863 -0.3817095160484314 -0.07129806280136108
  outer loop
    vertex -6.064775943756104 3.501499891281128 6.199999809265137
    vertex -7.196147441864014 1.928201913833618 0
    vertex -6.451889038085938 3.724999904632568 0
  endloop
endfacet
facet normal 0 0 -1
  outer loop
    vertex -1.931851625442505 0.517638087272644 6.199999809265137
    vertex -1.931851625442505 -0.517638087272644 6.199999809265137
    vertex -2 1.528971496852653e-16 6.199999809265137
  endloop
endfacet
facet normal 0 0 -1
  outer loop
    vertex -1.931851625442505 -0.517638087272644 6.199999809265137
    vertex -1.931851625442505 0.517638087272644 6.199999809265137
    vertex -1.732050776481628 -1 6.199999809265137
  endloop
endfacet
facet normal 0 0 -1
  outer loop
    vertex -1.732050776481628 -1 6.199999809265137
    vertex -1.931851625442505 0.517638087272644 6.199999809265137
    vertex -1.732050776481628 1 6.199999809265137
  endloop
endfacet
facet normal 0 0 -1
  outer loop
    vertex -1.732050776481628 -1 6.199999809265137
    vertex -1.732050776481628 1 6.199999809265137
    vertex -1.414213538169861 -1.414213538169861 6.199999809265137
  endloop
endfacet
facet normal 0 0 -1
  outer loop
    vertex -1.414213538169861 -1.414213538169861 6.199999809265137
    vertex -1.732050776481628 1 6.199999809265137
    vertex -1.414213538169861 1.414213538169861 6.199999809265137
  endloop
endfacet
facet normal 0 0 -1
  outer loop
    vertex -1.414213538169861 -1.414213538169861 6.199999809265137
    vertex -1.414213538169861 1.414213538169861 6.199999809265137
    vertex -1 -1.732050776481628 6.199999809265137
  endloop
endfacet
facet normal 0 0 -1
  outer loop
    vertex -1 -1.732050776481628 6.199999809265137
    vertex -1.414213538169861 1.414213538169861 6.199999809265137
    vertex -1 1.732050776481628 6.199999809265137
  endloop
endfacet
facet normal 0 0 -1
  outer loop
    vertex -1 -1.732050776481628 6.199999809265137
    vertex -1 1.732050776481628 6.199999809265137
    vertex -0.517638087272644 -1.931851625442505 6.199999809265137
  endloop
endfacet
facet normal 0 0 -1
  outer loop
    vertex -0.517638087272644 -1.931851625442505 6.199999809265137
    vertex -1 1.732050776481628 6.199999809265137
    vertex -0.517638087272644 1.931851625442505 6.199999809265137
  endloop
endfacet
facet normal 0 0 -1
  outer loop
    vertex -0.517638087272644 -1.931851625442505 6.199999809265137
    vertex -0.517638087272644 1.931851625442505 6.199999809265137
    vertex -4.898587410340671e-16 -2 6.199999809265137
  endloop
endfacet
facet normal 0 0 -1
  outer loop
    vertex -4.898587410340671e-16 -2 6.199999809265137
    vertex -0.517638087272644 1.931851625442505 6.199999809265137
    vertex 2.449293705170336e-16 2 6.199999809265137
  endloop
endfacet
facet normal 0 0 -1
  outer loop
    vertex -4.898587410340671e-16 -2 6.199999809265137
    vertex 2.449293705170336e-16 2 6.199999809265137
    vertex 0.517638087272644 -1.931851625442505 6.199999809265137
  endloop
endfacet
facet normal 0 0 -1
  outer loop
    vertex 0.517638087272644 -1.931851625442505 6.199999809265137
    vertex 2.449293705170336e-16 2 6.199999809265137
    vertex 0.517638087272644 1.931851625442505 6.199999809265137
  endloop
endfacet
facet normal 0 0 -1
  outer loop
    vertex 0.517638087272644 -1.931851625442505 6.199999809265137
    vertex 0.517638087272644 1.931851625442505 6.199999809265137
    vertex 1 -1.732050776481628 6.199999809265137
  endloop
endfacet
facet normal 0 0 -1
  outer loop
    vertex 1 -1.732050776481628 6.199999809265137
    vertex 0.517638087272644 1.931851625442505 6.199999809265137
    vertex 1 1.732050776481628 6.199999809265137
  endloop
endfacet
facet normal 0 0 -1
  outer loop
    vertex 1 -1.732050776481628 6.199999809265137
    vertex 1 1.732050776481628 6.199999809265137
    vertex 1.414213538169861 -1.414213538169861 6.199999809265137
  endloop
endfacet
facet normal 0 0 -1
  outer loop
    vertex 1.414213538169861 -1.414213538169861 6.199999809265137
    vertex 1 1.732050776481628 6.199999809265137
    vertex 1.414213538169861 1.414213538169861 6.199999809265137
  endloop
endfacet
facet normal 0 0 -1
  outer loop
    vertex 1.414213538169861 -1.414213538169861 6.199999809265137
    vertex 1.414213538169861 1.414213538169861 6.199999809265137
    vertex 1.732050776481628 -1 6.199999809265137
  endloop
endfacet
facet normal 0 0 -1
  outer loop
    vertex 1.732050776481628 -1 6.199999809265137
    vertex 1.414213538169861 1.414213538169861 6.199999809265137
    vertex 1.732050776481628 1 6.199999809265137
  endloop
endfacet
facet normal 0 0 -1
  outer loop
    vertex 1.732050776481628 -1 6.199999809265137
    vertex 1.732050776481628 1 6.199999809265137
    vertex 1.931851625442505 -0.517638087272644 6.199999809265137
  endloop
endfacet
facet normal 0 0 -1
  outer loop
    vertex 1.931851625442505 -0.517638087272644 6.199999809265137
    vertex 1.732050776481628 1 6.199999809265137
    vertex 1.931851625442505 0.517638087272644 6.199999809265137
  endloop
endfacet
facet normal 0 0 -1
  outer loop
    vertex 1.931851625442505 -0.517638087272644 6.199999809265137
    vertex 1.931851625442505 0.517638087272644 6.199999809265137
    vertex 2 -3.369615648790222e-16 6.199999809265137
  endloop
endfacet
facet normal -0.6072121858596802 0.7913342714309692 -0.07129806280136108
  outer loop
    vertex 3.501499891281128 -6.064775943756104 6.199999809265137
    vertex 5.267945289611816 -5.267945289611816 0
    vertex 3.724999904632568 -6.451889038085938 0
  endloop
endfacet
facet normal -0.6072121858596802 0.7913342714309692 -0.07129806280136108
  outer loop
    vertex 5.267945289611816 -5.267945289611816 0
    vertex 3.501499891281128 -6.064775943756104 6.199999809265137
    vertex 4.951869010925293 -4.951869010925293 6.199999809265137
  endloop
endfacet
facet normal 0.9215283393859863 0.3817095160484314 -0.07129806280136108
  outer loop
    vertex -7.196147441864014 -1.928201913833618 0
    vertex -6.064775943756104 -3.501499891281128 6.199999809265137
    vertex -6.451889038085938 -3.724999904632568 0
  endloop
endfacet
facet normal 0.9215283393859863 0.3817095160484314 -0.07129806280136108
  outer loop
    vertex -6.064775943756104 -3.501499891281128 6.199999809265137
    vertex -7.196147441864014 -1.928201913833618 0
    vertex -6.764378547668457 -1.812509775161743 6.199999809265137
  endloop
endfacet
facet normal -0.7913342714309692 0.6072121858596802 -0.07129806280136108
  outer loop
    vertex 4.951869010925293 -4.951869010925293 6.199999809265137
    vertex 6.451889038085938 -3.724999904632568 0
    vertex 5.267945289611816 -5.267945289611816 0
  endloop
endfacet
facet normal -0.7913342714309692 0.6072121858596802 -0.07129806280136108
  outer loop
    vertex 6.451889038085938 -3.724999904632568 0
    vertex 4.951869010925293 -4.951869010925293 6.199999809265137
    vertex 6.064775943756104 -3.501499891281128 6.199999809265137
  endloop
endfacet
facet normal -0.3817095160484314 -0.9215283393859863 -0.07129806280136108
  outer loop
    vertex 3.501499891281128 6.064775943756104 6.199999809265137
    vertex 1.928201913833618 7.196147441864014 0
    vertex 3.724999904632568 6.451889038085938 0
  endloop
endfacet
facet normal -0.3817095160484314 -0.9215283393859863 -0.07129806280136108
  outer loop
    vertex 1.928201913833618 7.196147441864014 0
    vertex 3.501499891281128 6.064775943756104 6.199999809265137
    vertex 1.812509775161743 6.764378547668457 6.199999809265137
  endloop
endfacet
facet normal 0.3801674246788025 -0.9178053736686707 0.1144817098975182
  outer loop
    vertex 4.027500152587891 -6.975834846496582 7.699999809265137
    vertex 2.316430568695068 -8.645035743713379 0
    vertex 4.474999904632568 -7.750927448272705 0
  endloop
endfacet
facet normal 0.3801674246788025 -0.9178053736686707 0.1144817098975182
  outer loop
    vertex 2.316430568695068 -8.645035743713379 0
    vertex 4.027500152587891 -6.975834846496582 7.699999809265137
    vertex 2.084787368774414 -7.780532360076904 7.699999809265137
  endloop
endfacet
facet normal -9.575177313719074e-32 -4.596085345684026e-32 1
  outer loop
    vertex -7.780532360076904 -2.084787368774414 7.699999809265137
    vertex -7.780532360076904 2.084787368774414 7.699999809265137
    vertex -8.055000305175781 9.864529821855821e-16 7.699999809265137
  endloop
endfacet
facet normal -9.575177313719074e-32 -4.596085345684026e-32 1
  outer loop
    vertex -7.780532360076904 2.084787368774414 7.699999809265137
    vertex -7.780532360076904 -2.084787368774414 7.699999809265137
    vertex -6.975834846496582 -4.027500152587891 7.699999809265137
  endloop
endfacet
facet normal -9.575177313719074e-32 -4.596085345684026e-32 1
  outer loop
    vertex -7.780532360076904 2.084787368774414 7.699999809265137
    vertex -6.975834846496582 -4.027500152587891 7.699999809265137
    vertex -6.975834846496582 4.027500152587891 7.699999809265137
  endloop
endfacet
facet normal -9.575177313719074e-32 -4.596085345684026e-32 1
  outer loop
    vertex -6.975834846496582 4.027500152587891 7.699999809265137
    vertex -6.975834846496582 -4.027500152587891 7.699999809265137
    vertex -5.69574499130249 -5.69574499130249 7.699999809265137
  endloop
endfacet
facet normal -9.575177313719074e-32 -4.596085345684026e-32 1
  outer loop
    vertex -6.975834846496582 4.027500152587891 7.699999809265137
    vertex -5.69574499130249 -5.69574499130249 7.699999809265137
    vertex -5.69574499130249 5.69574499130249 7.699999809265137
  endloop
endfacet
facet normal -9.575177313719074e-32 -4.596085345684026e-32 1
  outer loop
    vertex -5.69574499130249 5.69574499130249 7.699999809265137
    vertex -5.69574499130249 -5.69574499130249 7.699999809265137
    vertex -4.027500152587891 -6.975834846496582 7.699999809265137
  endloop
endfacet
facet normal -9.575177313719074e-32 -4.596085345684026e-32 1
  outer loop
    vertex -5.69574499130249 5.69574499130249 7.699999809265137
    vertex -4.027500152587891 -6.975834846496582 7.699999809265137
    vertex -4.027500152587891 6.975834846496582 7.699999809265137
  endloop
endfacet
facet normal -9.575177313719074e-32 -4.596085345684026e-32 1
  outer loop
    vertex -4.027500152587891 6.975834846496582 7.699999809265137
    vertex -4.027500152587891 -6.975834846496582 7.699999809265137
    vertex -2.084787368774414 -7.780532360076904 7.699999809265137
  endloop
endfacet
facet normal -9.575177313719074e-32 -4.596085345684026e-32 1
  outer loop
    vertex -4.027500152587891 6.975834846496582 7.699999809265137
    vertex -2.084787368774414 -7.780532360076904 7.699999809265137
    vertex -2.084787368774414 7.780532360076904 7.699999809265137
  endloop
endfacet
facet normal -9.575177313719074e-32 -4.596085345684026e-32 1
  outer loop
    vertex -2.084787368774414 7.780532360076904 7.699999809265137
    vertex -2.084787368774414 -7.780532360076904 7.699999809265137
    vertex -1.479679526217932e-15 -8.055000305175781 7.699999809265137
  endloop
endfacet
facet normal -9.575177313719074e-32 -4.596085345684026e-32 1
  outer loop
    vertex -2.084787368774414 7.780532360076904 7.699999809265137
    vertex -1.479679526217932e-15 -8.055000305175781 7.699999809265137
    vertex 4.93226491092791e-16 8.055000305175781 7.699999809265137
  endloop
endfacet
facet normal -9.575177313719074e-32 -4.596085345684026e-32 1
  outer loop
    vertex 4.93226491092791e-16 8.055000305175781 7.699999809265137
    vertex -1.479679526217932e-15 -8.055000305175781 7.699999809265137
    vertex 2.084787368774414 -7.780532360076904 7.699999809265137
  endloop
endfacet
facet normal -9.575177313719074e-32 -4.596085345684026e-32 1
  outer loop
    vertex 4.93226491092791e-16 8.055000305175781 7.699999809265137
    vertex 2.084787368774414 -7.780532360076904 7.699999809265137
    vertex 2.084787368774414 7.780532360076904 7.699999809265137
  endloop
endfacet
facet normal -9.575177313719074e-32 -4.596085345684026e-32 1
  outer loop
    vertex 2.084787368774414 7.780532360076904 7.699999809265137
    vertex 2.084787368774414 -7.780532360076904 7.699999809265137
    vertex 4.027500152587891 -6.975834846496582 7.699999809265137
  endloop
endfacet
facet normal -9.575177313719074e-32 -4.596085345684026e-32 1
  outer loop
    vertex 2.084787368774414 7.780532360076904 7.699999809265137
    vertex 4.027500152587891 -6.975834846496582 7.699999809265137
    vertex 4.027500152587891 6.975834846496582 7.699999809265137
  endloop
endfacet
facet normal -9.575177313719074e-32 -4.596085345684026e-32 1
  outer loop
    vertex 4.027500152587891 6.975834846496582 7.699999809265137
    vertex 4.027500152587891 -6.975834846496582 7.699999809265137
    vertex 5.69574499130249 -5.69574499130249 7.699999809265137
  endloop
endfacet
facet normal -9.575177313719074e-32 -4.596085345684026e-32 1
  outer loop
    vertex 4.027500152587891 6.975834846496582 7.699999809265137
    vertex 5.69574499130249 -5.69574499130249 7.699999809265137
    vertex 5.69574499130249 5.69574499130249 7.699999809265137
  endloop
endfacet
facet normal -9.575177313719074e-32 -4.596085345684026e-32 1
  outer loop
    vertex 5.69574499130249 5.69574499130249 7.699999809265137
    vertex 5.69574499130249 -5.69574499130249 7.699999809265137
    vertex 6.975834846496582 -4.027500152587891 7.699999809265137
  endloop
endfacet
facet normal -9.575177313719074e-32 -4.596085345684026e-32 1
  outer loop
    vertex 5.69574499130249 5.69574499130249 7.699999809265137
    vertex 6.975834846496582 -4.027500152587891 7.699999809265137
    vertex 6.975834846496582 4.027500152587891 7.699999809265137
  endloop
endfacet
facet normal -9.575177313719074e-32 -4.596085345684026e-32 1
  outer loop
    vertex 6.975834846496582 4.027500152587891 7.699999809265137
    vertex 6.975834846496582 -4.027500152587891 7.699999809265137
    vertex 7.780532360076904 -2.084787368774414 7.699999809265137
  endloop
endfacet
facet normal -9.575177313719074e-32 -4.596085345684026e-32 1
  outer loop
    vertex 6.975834846496582 4.027500152587891 7.699999809265137
    vertex 7.780532360076904 -2.084787368774414 7.699999809265137
    vertex 7.780532360076904 2.084787368774414 7.699999809265137
  endloop
endfacet
facet normal -9.575177313719074e-32 -4.596085345684026e-32 1
  outer loop
    vertex 7.780532360076904 2.084787368774414 7.699999809265137
    vertex 7.780532360076904 -2.084787368774414 7.699999809265137
    vertex 8.055000305175781 0 7.699999809265137
  endloop
endfacet
facet normal 0.1296680271625519 -0.9849264621734619 0.1144817098975182
  outer loop
    vertex 2.084787368774414 -7.780532360076904 7.699999809265137
    vertex -1.644088303642637e-15 -8.949999809265137 0
    vertex 2.316430568695068 -8.645035743713379 0
  endloop
endfacet
facet normal 0.1296680271625519 -0.9849264621734619 0.1144817098975182
  outer loop
    vertex -1.644088303642637e-15 -8.949999809265137 0
    vertex 2.084787368774414 -7.780532360076904 7.699999809265137
    vertex -1.479679526217932e-15 -8.055000305175781 7.699999809265137
  endloop
endfacet
facet normal -0.9849264621734619 -0.1296680271625519 0.1144817098975182
  outer loop
    vertex -7.780532360076904 -2.084787368774414 7.699999809265137
    vertex -8.949999809265137 1.096058833802052e-15 0
    vertex -8.645035743713379 -2.316430568695068 0
  endloop
endfacet
facet normal -0.9849264621734619 -0.1296680271625519 0.1144817098975182
  outer loop
    vertex -8.949999809265137 1.096058833802052e-15 0
    vertex -7.780532360076904 -2.084787368774414 7.699999809265137
    vertex -8.055000305175781 9.864529821855821e-16 7.699999809265137
  endloop
endfacet
facet normal -0.7881373167037964 0.6047590374946594 0.1144817098975182
  outer loop
    vertex -5.69574499130249 5.69574499130249 7.699999809265137
    vertex -7.750927448272705 4.474999904632568 0
    vertex -6.975834846496582 4.027500152587891 7.699999809265137
  endloop
endfacet
facet normal -0.7881373167037964 0.6047590374946594 0.1144817098975182
  outer loop
    vertex -7.750927448272705 4.474999904632568 0
    vertex -5.69574499130249 5.69574499130249 7.699999809265137
    vertex -6.328605651855469 6.328605651855469 0
  endloop
endfacet
facet normal -0.6047590374946594 0.7881373167037964 0.1144817098975182
  outer loop
    vertex -5.69574499130249 5.69574499130249 7.699999809265137
    vertex -4.474999904632568 7.750927448272705 0
    vertex -6.328605651855469 6.328605651855469 0
  endloop
endfacet
facet normal -0.6047590374946594 0.7881373167037964 0.1144817098975182
  outer loop
    vertex -4.474999904632568 7.750927448272705 0
    vertex -5.69574499130249 5.69574499130249 7.699999809265137
    vertex -4.027500152587891 6.975834846496582 7.699999809265137
  endloop
endfacet
facet normal 0.6047590374946594 0.7881373167037964 0.1144817098975182
  outer loop
    vertex 4.027500152587891 6.975834846496582 7.699999809265137
    vertex 6.328605651855469 6.328605651855469 0
    vertex 4.474999904632568 7.750927448272705 0
  endloop
endfacet
facet normal 0.6047590374946594 0.7881373167037964 0.1144817098975182
  outer loop
    vertex 6.328605651855469 6.328605651855469 0
    vertex 4.027500152587891 6.975834846496582 7.699999809265137
    vertex 5.69574499130249 5.69574499130249 7.699999809265137
  endloop
endfacet
facet normal -0.3801674246788025 -0.9178053736686707 0.1144817098975182
  outer loop
    vertex -2.084787368774414 -7.780532360076904 7.699999809265137
    vertex -4.474999904632568 -7.750927448272705 0
    vertex -2.316430568695068 -8.645035743713379 0
  endloop
endfacet
facet normal -0.3801674246788025 -0.9178053736686707 0.1144817098975182
  outer loop
    vertex -4.474999904632568 -7.750927448272705 0
    vertex -2.084787368774414 -7.780532360076904 7.699999809265137
    vertex -4.027500152587891 -6.975834846496582 7.699999809265137
  endloop
endfacet
facet normal 0.6047590374946594 -0.7881373167037964 0.1144817098975182
  outer loop
    vertex 5.69574499130249 -5.69574499130249 7.699999809265137
    vertex 4.474999904632568 -7.750927448272705 0
    vertex 6.328605651855469 -6.328605651855469 0
  endloop
endfacet
facet normal 0.6047590374946594 -0.7881373167037964 0.1144817098975182
  outer loop
    vertex 4.474999904632568 -7.750927448272705 0
    vertex 5.69574499130249 -5.69574499130249 7.699999809265137
    vertex 4.027500152587891 -6.975834846496582 7.699999809265137
  endloop
endfacet
facet normal -0.1296680271625519 -0.9849264621734619 0.1144817098975182
  outer loop
    vertex -1.479679526217932e-15 -8.055000305175781 7.699999809265137
    vertex -2.316430568695068 -8.645035743713379 0
    vertex -1.644088303642637e-15 -8.949999809265137 0
  endloop
endfacet
facet normal -0.1296680271625519 -0.9849264621734619 0.1144817098975182
  outer loop
    vertex -2.316430568695068 -8.645035743713379 0
    vertex -1.479679526217932e-15 -8.055000305175781 7.699999809265137
    vertex -2.084787368774414 -7.780532360076904 7.699999809265137
  endloop
endfacet
facet normal 0 0 -1
  outer loop
    vertex -7.750927448272705 4.474999904632568 0
    vertex -7.196147441864014 1.928201913833618 0
    vertex -7.449999809265137 -9.123618456189459e-16 0
  endloop
endfacet
facet normal 0 0 -1
  outer loop
    vertex -7.196147441864014 1.928201913833618 0
    vertex -7.750927448272705 4.474999904632568 0
    vertex -6.328605651855469 6.328605651855469 0
  endloop
endfacet
facet normal 0 0 -1
  outer loop
    vertex -7.196147441864014 1.928201913833618 0
    vertex -6.328605651855469 6.328605651855469 0
    vertex -6.451889038085938 3.724999904632568 0
  endloop
endfacet
facet normal 0 0 -1
  outer loop
    vertex -6.451889038085938 3.724999904632568 0
    vertex -6.328605651855469 6.328605651855469 0
    vertex -5.267945289611816 5.267945289611816 0
  endloop
endfacet
facet normal 0 0 -1
  outer loop
    vertex -5.267945289611816 5.267945289611816 0
    vertex -6.328605651855469 6.328605651855469 0
    vertex -4.474999904632568 7.750927448272705 0
  endloop
endfacet
facet normal 0 0 -1
  outer loop
    vertex -5.267945289611816 5.267945289611816 0
    vertex -4.474999904632568 7.750927448272705 0
    vertex -3.724999904632568 6.451889038085938 0
  endloop
endfacet
facet normal 0 0 -1
  outer loop
    vertex -3.724999904632568 6.451889038085938 0
    vertex -4.474999904632568 7.750927448272705 0
    vertex -2.316430568695068 8.645035743713379 0
  endloop
endfacet
facet normal 0 0 -1
  outer loop
    vertex -3.724999904632568 6.451889038085938 0
    vertex -2.316430568695068 8.645035743713379 0
    vertex -1.928201913833618 7.196147441864014 0
  endloop
endfacet
facet normal 0 0 -1
  outer loop
    vertex -1.928201913833618 7.196147441864014 0
    vertex -2.316430568695068 8.645035743713379 0
    vertex 5.480294169010259e-16 8.949999809265137 0
  endloop
endfacet
facet normal 0 0 -1
  outer loop
    vertex -1.928201913833618 7.196147441864014 0
    vertex 5.480294169010259e-16 8.949999809265137 0
    vertex -1.368542768428419e-15 7.449999809265137 0
  endloop
endfacet
facet normal 0 0 -1
  outer loop
    vertex -1.368542768428419e-15 7.449999809265137 0
    vertex 5.480294169010259e-16 8.949999809265137 0
    vertex 1.928201913833618 7.196147441864014 0
  endloop
endfacet
facet normal 0 0 -1
  outer loop
    vertex 1.928201913833618 7.196147441864014 0
    vertex 5.480294169010259e-16 8.949999809265137 0
    vertex 2.316430568695068 8.645035743713379 0
  endloop
endfacet
facet normal 0 0 -1
  outer loop
    vertex 1.928201913833618 7.196147441864014 0
    vertex 2.316430568695068 8.645035743713379 0
    vertex 3.724999904632568 6.451889038085938 0
  endloop
endfacet
facet normal 0 0 -1
  outer loop
    vertex 3.724999904632568 6.451889038085938 0
    vertex 2.316430568695068 8.645035743713379 0
    vertex 4.474999904632568 7.750927448272705 0
  endloop
endfacet
facet normal 0 0 -1
  outer loop
    vertex 3.724999904632568 6.451889038085938 0
    vertex 4.474999904632568 7.750927448272705 0
    vertex 5.267945289611816 5.267945289611816 0
  endloop
endfacet
facet normal 0 0 -1
  outer loop
    vertex 5.267945289611816 5.267945289611816 0
    vertex 4.474999904632568 7.750927448272705 0
    vertex 6.328605651855469 6.328605651855469 0
  endloop
endfacet
facet normal 0 0 -1
  outer loop
    vertex 5.267945289611816 5.267945289611816 0
    vertex 6.328605651855469 6.328605651855469 0
    vertex 6.451889038085938 3.724999904632568 0
  endloop
endfacet
facet normal 0 0 -1
  outer loop
    vertex 6.451889038085938 3.724999904632568 0
    vertex 6.328605651855469 6.328605651855469 0
    vertex 7.750927448272705 4.474999904632568 0
  endloop
endfacet
facet normal 0 0 -1
  outer loop
    vertex 6.451889038085938 3.724999904632568 0
    vertex 7.750927448272705 4.474999904632568 0
    vertex 7.196147441864014 1.928201913833618 0
  endloop
endfacet
facet normal 0 0 -1
  outer loop
    vertex 7.196147441864014 1.928201913833618 0
    vertex 7.750927448272705 4.474999904632568 0
    vertex 7.449999809265137 0 0
  endloop
endfacet
facet normal 0 0 -1
  outer loop
    vertex 7.449999809265137 0 0
    vertex 7.750927448272705 4.474999904632568 0
    vertex 7.750927448272705 -4.474999904632568 0
  endloop
endfacet
facet normal 0 0 -1
  outer loop
    vertex 7.750927448272705 -4.474999904632568 0
    vertex 7.750927448272705 4.474999904632568 0
    vertex 8.645035743713379 -2.316430568695068 0
  endloop
endfacet
facet normal 0 0 -1
  outer loop
    vertex 8.645035743713379 -2.316430568695068 0
    vertex 7.750927448272705 4.474999904632568 0
    vertex 8.645035743713379 2.316430568695068 0
  endloop
endfacet
facet normal 0 0 -1
  outer loop
    vertex 8.645035743713379 -2.316430568695068 0
    vertex 8.645035743713379 2.316430568695068 0
    vertex 8.949999809265137 0 0
  endloop
endfacet
facet normal 0 0 -1
  outer loop
    vertex -8.645035743713379 2.316430568695068 0
    vertex -8.645035743713379 -2.316430568695068 0
    vertex -8.949999809265137 1.096058833802052e-15 0
  endloop
endfacet
facet normal 0 0 -1
  outer loop
    vertex -8.645035743713379 -2.316430568695068 0
    vertex -8.645035743713379 2.316430568695068 0
    vertex -7.750927448272705 -4.474999904632568 0
  endloop
endfacet
facet normal 0 0 -1
  outer loop
    vertex -7.750927448272705 -4.474999904632568 0
    vertex -8.645035743713379 2.316430568695068 0
    vertex -7.750927448272705 4.474999904632568 0
  endloop
endfacet
facet normal 0 0 -1
  outer loop
    vertex -7.750927448272705 -4.474999904632568 0
    vertex -7.750927448272705 4.474999904632568 0
    vertex -7.449999809265137 -9.123618456189459e-16 0
  endloop
endfacet
facet normal 0 0 -1
  outer loop
    vertex -7.750927448272705 -4.474999904632568 0
    vertex -7.449999809265137 -9.123618456189459e-16 0
    vertex -7.196147441864014 -1.928201913833618 0
  endloop
endfacet
facet normal 0 0 -1
  outer loop
    vertex -7.750927448272705 -4.474999904632568 0
    vertex -7.196147441864014 -1.928201913833618 0
    vertex -6.328605651855469 -6.328605651855469 0
  endloop
endfacet
facet normal 0 0 -1
  outer loop
    vertex -6.328605651855469 -6.328605651855469 0
    vertex -7.196147441864014 -1.928201913833618 0
    vertex -6.451889038085938 -3.724999904632568 0
  endloop
endfacet
facet normal 0 0 -1
  outer loop
    vertex -6.328605651855469 -6.328605651855469 0
    vertex -6.451889038085938 -3.724999904632568 0
    vertex -5.267945289611816 -5.267945289611816 0
  endloop
endfacet
facet normal 0 0 -1
  outer loop
    vertex -6.328605651855469 -6.328605651855469 0
    vertex -5.267945289611816 -5.267945289611816 0
    vertex -4.474999904632568 -7.750927448272705 0
  endloop
endfacet
facet normal 0 0 -1
  outer loop
    vertex -4.474999904632568 -7.750927448272705 0
    vertex -5.267945289611816 -5.267945289611816 0
    vertex -3.724999904632568 -6.451889038085938 0
  endloop
endfacet
facet normal 0 0 -1
  outer loop
    vertex -4.474999904632568 -7.750927448272705 0
    vertex -3.724999904632568 -6.451889038085938 0
    vertex -2.316430568695068 -8.645035743713379 0
  endloop
endfacet
facet normal 0 0 -1
  outer loop
    vertex -2.316430568695068 -8.645035743713379 0
    vertex -3.724999904632568 -6.451889038085938 0
    vertex -1.928201913833618 -7.196147441864014 0
  endloop
endfacet
facet normal 0 0 -1
  outer loop
    vertex -2.316430568695068 -8.645035743713379 0
    vertex -1.928201913833618 -7.196147441864014 0
    vertex -1.644088303642637e-15 -8.949999809265137 0
  endloop
endfacet
facet normal 0 0 -1
  outer loop
    vertex -1.644088303642637e-15 -8.949999809265137 0
    vertex -1.928201913833618 -7.196147441864014 0
    vertex 4.56180922809473e-16 -7.449999809265137 0
  endloop
endfacet
facet normal 0 0 -1
  outer loop
    vertex -1.644088303642637e-15 -8.949999809265137 0
    vertex 4.56180922809473e-16 -7.449999809265137 0
    vertex 2.316430568695068 -8.645035743713379 0
  endloop
endfacet
facet normal 0 0 -1
  outer loop
    vertex 2.316430568695068 -8.645035743713379 0
    vertex 4.56180922809473e-16 -7.449999809265137 0
    vertex 1.928201913833618 -7.196147441864014 0
  endloop
endfacet
facet normal 0 0 -1
  outer loop
    vertex 2.316430568695068 -8.645035743713379 0
    vertex 1.928201913833618 -7.196147441864014 0
    vertex 3.724999904632568 -6.451889038085938 0
  endloop
endfacet
facet normal 0 0 -1
  outer loop
    vertex 2.316430568695068 -8.645035743713379 0
    vertex 3.724999904632568 -6.451889038085938 0
    vertex 4.474999904632568 -7.750927448272705 0
  endloop
endfacet
facet normal 0 0 -1
  outer loop
    vertex 4.474999904632568 -7.750927448272705 0
    vertex 3.724999904632568 -6.451889038085938 0
    vertex 5.267945289611816 -5.267945289611816 0
  endloop
endfacet
facet normal 0 0 -1
  outer loop
    vertex 4.474999904632568 -7.750927448272705 0
    vertex 5.267945289611816 -5.267945289611816 0
    vertex 6.328605651855469 -6.328605651855469 0
  endloop
endfacet
facet normal 0 0 -1
  outer loop
    vertex 6.328605651855469 -6.328605651855469 0
    vertex 5.267945289611816 -5.267945289611816 0
    vertex 6.451889038085938 -3.724999904632568 0
  endloop
endfacet
facet normal 0 0 -1
  outer loop
    vertex 6.328605651855469 -6.328605651855469 0
    vertex 6.451889038085938 -3.724999904632568 0
    vertex 7.750927448272705 -4.474999904632568 0
  endloop
endfacet
facet normal 0 0 -1
  outer loop
    vertex 7.750927448272705 -4.474999904632568 0
    vertex 6.451889038085938 -3.724999904632568 0
    vertex 7.196147441864014 -1.928201913833618 0
  endloop
endfacet
facet normal 0 0 -1
  outer loop
    vertex 7.750927448272705 -4.474999904632568 0
    vertex 7.196147441864014 -1.928201913833618 0
    vertex 7.449999809265137 0 0
  endloop
endfacet
facet normal -0.9889217019081116 0.1301940083503723 -0.07129806280136108
  outer loop
    vertex 6.764378547668457 -1.812509775161743 6.199999809265137
    vertex 7.449999809265137 0 0
    vertex 7.196147441864014 -1.928201913833618 0
  endloop
endfacet
facet normal -0.9889217019081116 0.1301940083503723 -0.07129806280136108
  outer loop
    vertex 7.449999809265137 0 0
    vertex 6.764378547668457 -1.812509775161743 6.199999809265137
    vertex 7.002999782562256 0 6.199999809265137
  endloop
endfacet
facet normal 0 0 -1
  outer loop
    vertex -6.764378547668457 1.812509775161743 6.199999809265137
    vertex -6.764378547668457 -1.812509775161743 6.199999809265137
    vertex -7.002999782562256 -8.576201708807094e-16 6.199999809265137
  endloop
endfacet
facet normal 0 0 -1
  outer loop
    vertex -6.764378547668457 -1.812509775161743 6.199999809265137
    vertex -6.764378547668457 1.812509775161743 6.199999809265137
    vertex -6.064775943756104 3.501499891281128 6.199999809265137
  endloop
endfacet
facet normal 0 0 -1
  outer loop
    vertex -6.764378547668457 -1.812509775161743 6.199999809265137
    vertex -6.064775943756104 3.501499891281128 6.199999809265137
    vertex -6.064775943756104 -3.501499891281128 6.199999809265137
  endloop
endfacet
facet normal 0 0 -1
  outer loop
    vertex -6.064775943756104 -3.501499891281128 6.199999809265137
    vertex -6.064775943756104 3.501499891281128 6.199999809265137
    vertex -4.951869010925293 4.951869010925293 6.199999809265137
  endloop
endfacet
facet normal 0 0 -1
  outer loop
    vertex -6.064775943756104 -3.501499891281128 6.199999809265137
    vertex -4.951869010925293 4.951869010925293 6.199999809265137
    vertex -4.951869010925293 -4.951869010925293 6.199999809265137
  endloop
endfacet
facet normal 0 0 -1
  outer loop
    vertex -4.951869010925293 -4.951869010925293 6.199999809265137
    vertex -4.951869010925293 4.951869010925293 6.199999809265137
    vertex -3.501499891281128 6.064775943756104 6.199999809265137
  endloop
endfacet
facet normal 0 0 -1
  outer loop
    vertex -4.951869010925293 -4.951869010925293 6.199999809265137
    vertex -3.501499891281128 6.064775943756104 6.199999809265137
    vertex -3.501499891281128 -6.064775943756104 6.199999809265137
  endloop
endfacet
facet normal 0 0 -1
  outer loop
    vertex -3.501499891281128 -6.064775943756104 6.199999809265137
    vertex -3.501499891281128 6.064775943756104 6.199999809265137
    vertex -3.5 -1.836970134121145e-19 6.199999809265137
  endloop
endfacet
facet normal 0 0 -1
  outer loop
    vertex -3.5 -1.836970134121145e-19 6.199999809265137
    vertex -3.501499891281128 6.064775943756104 6.199999809265137
    vertex -3.380740404129028 0.9058666825294495 6.199999809265137
  endloop
endfacet
facet normal 0 0 -1
  outer loop
    vertex -3.380740404129028 0.9058666825294495 6.199999809265137
    vertex -3.501499891281128 6.064775943756104 6.199999809265137
    vertex -1.812509775161743 6.764378547668457 6.199999809265137
  endloop
endfacet
facet normal 0 0 -1
  outer loop
    vertex -3.380740404129028 0.9058666825294495 6.199999809265137
    vertex -1.812509775161743 6.764378547668457 6.199999809265137
    vertex -3.031088829040527 1.75 6.199999809265137
  endloop
endfacet
facet normal 0 0 -1
  outer loop
    vertex -3.031088829040527 1.75 6.199999809265137
    vertex -1.812509775161743 6.764378547668457 6.199999809265137
    vertex -2.474873781204224 2.474873781204224 6.199999809265137
  endloop
endfacet
facet normal 0 0 -1
  outer loop
    vertex -2.474873781204224 2.474873781204224 6.199999809265137
    vertex -1.812509775161743 6.764378547668457 6.199999809265137
    vertex -1.75 3.031088829040527 6.199999809265137
  endloop
endfacet
facet normal 0 0 -1
  outer loop
    vertex -1.75 3.031088829040527 6.199999809265137
    vertex -1.812509775161743 6.764378547668457 6.199999809265137
    vertex -1.286430229851285e-15 7.002999782562256 6.199999809265137
  endloop
endfacet
facet normal 0 0 -1
  outer loop
    vertex -1.75 3.031088829040527 6.199999809265137
    vertex -1.286430229851285e-15 7.002999782562256 6.199999809265137
    vertex -0.9058666825294495 3.380740404129028 6.199999809265137
  endloop
endfacet
facet normal 0 0 -1
  outer loop
    vertex -0.9058666825294495 3.380740404129028 6.199999809265137
    vertex -1.286430229851285e-15 7.002999782562256 6.199999809265137
    vertex 2.143131925849595e-16 3.5 6.199999809265137
  endloop
endfacet
facet normal 0 0 -1
  outer loop
    vertex 2.143131925849595e-16 3.5 6.199999809265137
    vertex -1.286430229851285e-15 7.002999782562256 6.199999809265137
    vertex 1.812509775161743 6.764378547668457 6.199999809265137
  endloop
endfacet
facet normal 0 0 -1
  outer loop
    vertex 2.143131925849595e-16 3.5 6.199999809265137
    vertex 1.812509775161743 6.764378547668457 6.199999809265137
    vertex 0.9058666825294495 3.380740404129028 6.199999809265137
  endloop
endfacet
facet normal 0 0 -1
  outer loop
    vertex 0.9058666825294495 3.380740404129028 6.199999809265137
    vertex 1.812509775161743 6.764378547668457 6.199999809265137
    vertex 1.75 3.031088829040527 6.199999809265137
  endloop
endfacet
facet normal 0 0 -1
  outer loop
    vertex 1.75 3.031088829040527 6.199999809265137
    vertex 1.812509775161743 6.764378547668457 6.199999809265137
    vertex 2.474873781204224 2.474873781204224 6.199999809265137
  endloop
endfacet
facet normal 0 0 -1
  outer loop
    vertex 2.474873781204224 2.474873781204224 6.199999809265137
    vertex 1.812509775161743 6.764378547668457 6.199999809265137
    vertex 3.501499891281128 6.064775943756104 6.199999809265137
  endloop
endfacet
facet normal 0 0 -1
  outer loop
    vertex 2.474873781204224 2.474873781204224 6.199999809265137
    vertex 3.501499891281128 6.064775943756104 6.199999809265137
    vertex 3.031088829040527 1.75 6.199999809265137
  endloop
endfacet
facet normal 0 0 -1
  outer loop
    vertex 3.031088829040527 1.75 6.199999809265137
    vertex 3.501499891281128 6.064775943756104 6.199999809265137
    vertex 3.380740404129028 0.9058666825294495 6.199999809265137
  endloop
endfacet
facet normal 0 0 -1
  outer loop
    vertex 3.380740404129028 0.9058666825294495 6.199999809265137
    vertex 3.501499891281128 6.064775943756104 6.199999809265137
    vertex 3.5 -4.288100854403547e-16 6.199999809265137
  endloop
endfacet
facet normal 0 0 -1
  outer loop
    vertex -3.501499891281128 -6.064775943756104 6.199999809265137
    vertex -3.380740404129028 -0.9058666825294495 6.199999809265137
    vertex -1.812509775161743 -6.764378547668457 6.199999809265137
  endloop
endfacet
facet normal 0 0 -1
  outer loop
    vertex -3.380740404129028 -0.9058666825294495 6.199999809265137
    vertex -3.501499891281128 -6.064775943756104 6.199999809265137
    vertex -3.5 -1.836970134121145e-19 6.199999809265137
  endloop
endfacet
facet normal 0 0 -1
  outer loop
    vertex -1.812509775161743 -6.764378547668457 6.199999809265137
    vertex -3.380740404129028 -0.9058666825294495 6.199999809265137
    vertex -3.031088829040527 -1.75 6.199999809265137
  endloop
endfacet
facet normal 0 0 -1
  outer loop
    vertex -1.812509775161743 -6.764378547668457 6.199999809265137
    vertex -3.031088829040527 -1.75 6.199999809265137
    vertex -2.474873781204224 -2.474873781204224 6.199999809265137
  endloop
endfacet
facet normal 0 0 -1
  outer loop
    vertex -1.812509775161743 -6.764378547668457 6.199999809265137
    vertex -2.474873781204224 -2.474873781204224 6.199999809265137
    vertex -1.75 -3.031088829040527 6.199999809265137
  endloop
endfacet
facet normal 0 0 -1
  outer loop
    vertex -1.812509775161743 -6.764378547668457 6.199999809265137
    vertex -1.75 -3.031088829040527 6.199999809265137
    vertex 4.288100854403547e-16 -7.002999782562256 6.199999809265137
  endloop
endfacet
facet normal 0 0 -1
  outer loop
    vertex 4.288100854403547e-16 -7.002999782562256 6.199999809265137
    vertex -1.75 -3.031088829040527 6.199999809265137
    vertex -0.9058666825294495 -3.380740404129028 6.199999809265137
  endloop
endfacet
facet normal 0 0 -1
  outer loop
    vertex 4.288100854403547e-16 -7.002999782562256 6.199999809265137
    vertex -0.9058666825294495 -3.380740404129028 6.199999809265137
    vertex -6.429395645199886e-16 -3.5 6.199999809265137
  endloop
endfacet
facet normal 0 0 -1
  outer loop
    vertex 4.288100854403547e-16 -7.002999782562256 6.199999809265137
    vertex -6.429395645199886e-16 -3.5 6.199999809265137
    vertex 0.9058666825294495 -3.380740404129028 6.199999809265137
  endloop
endfacet
facet normal 0 0 -1
  outer loop
    vertex 4.288100854403547e-16 -7.002999782562256 6.199999809265137
    vertex 0.9058666825294495 -3.380740404129028 6.199999809265137
    vertex 1.812509775161743 -6.764378547668457 6.199999809265137
  endloop
endfacet
facet normal 0 0 -1
  outer loop
    vertex 1.812509775161743 -6.764378547668457 6.199999809265137
    vertex 0.9058666825294495 -3.380740404129028 6.199999809265137
    vertex 1.75 -3.031088829040527 6.199999809265137
  endloop
endfacet
facet normal 0 0 -1
  outer loop
    vertex 1.812509775161743 -6.764378547668457 6.199999809265137
    vertex 1.75 -3.031088829040527 6.199999809265137
    vertex 2.474873781204224 -2.474873781204224 6.199999809265137
  endloop
endfacet
facet normal 0 0 -1
  outer loop
    vertex 1.812509775161743 -6.764378547668457 6.199999809265137
    vertex 2.474873781204224 -2.474873781204224 6.199999809265137
    vertex 3.501499891281128 -6.064775943756104 6.199999809265137
  endloop
endfacet
facet normal 0 0 -1
  outer loop
    vertex 3.501499891281128 -6.064775943756104 6.199999809265137
    vertex 2.474873781204224 -2.474873781204224 6.199999809265137
    vertex 3.031088829040527 -1.75 6.199999809265137
  endloop
endfacet
facet normal 0 0 -1
  outer loop
    vertex 3.501499891281128 -6.064775943756104 6.199999809265137
    vertex 3.031088829040527 -1.75 6.199999809265137
    vertex 3.380740404129028 -0.9058666825294495 6.199999809265137
  endloop
endfacet
facet normal 0 0 -1
  outer loop
    vertex 3.501499891281128 -6.064775943756104 6.199999809265137
    vertex 3.380740404129028 -0.9058666825294495 6.199999809265137
    vertex 3.5 -4.288100854403547e-16 6.199999809265137
  endloop
endfacet
facet normal 0 0 -1
  outer loop
    vertex 3.501499891281128 -6.064775943756104 6.199999809265137
    vertex 3.5 -4.288100854403547e-16 6.199999809265137
    vertex 3.501499891281128 6.064775943756104 6.199999809265137
  endloop
endfacet
facet normal 0 0 -1
  outer loop
    vertex 3.501499891281128 -6.064775943756104 6.199999809265137
    vertex 3.501499891281128 6.064775943756104 6.199999809265137
    vertex 4.951869010925293 4.951869010925293 6.199999809265137
  endloop
endfacet
facet normal 0 0 -1
  outer loop
    vertex 3.501499891281128 -6.064775943756104 6.199999809265137
    vertex 4.951869010925293 4.951869010925293 6.199999809265137
    vertex 4.951869010925293 -4.951869010925293 6.199999809265137
  endloop
endfacet
facet normal 0 0 -1
  outer loop
    vertex 4.951869010925293 -4.951869010925293 6.199999809265137
    vertex 4.951869010925293 4.951869010925293 6.199999809265137
    vertex 6.064775943756104 3.501499891281128 6.199999809265137
  endloop
endfacet
facet normal 0 0 -1
  outer loop
    vertex 4.951869010925293 -4.951869010925293 6.199999809265137
    vertex 6.064775943756104 3.501499891281128 6.199999809265137
    vertex 6.064775943756104 -3.501499891281128 6.199999809265137
  endloop
endfacet
facet normal 0 0 -1
  outer loop
    vertex 6.064775943756104 -3.501499891281128 6.199999809265137
    vertex 6.064775943756104 3.501499891281128 6.199999809265137
    vertex 6.764378547668457 1.812509775161743 6.199999809265137
  endloop
endfacet
facet normal 0 0 -1
  outer loop
    vertex 6.064775943756104 -3.501499891281128 6.199999809265137
    vertex 6.764378547668457 1.812509775161743 6.199999809265137
    vertex 6.764378547668457 -1.812509775161743 6.199999809265137
  endloop
endfacet
facet normal 0 0 -1
  outer loop
    vertex 6.764378547668457 -1.812509775161743 6.199999809265137
    vertex 6.764378547668457 1.812509775161743 6.199999809265137
    vertex 7.002999782562256 0 6.199999809265137
  endloop
endfacet
facet normal -0.9215283393859863 0.3817095160484314 -0.07129806280136108
  outer loop
    vertex 6.064775943756104 -3.501499891281128 6.199999809265137
    vertex 7.196147441864014 -1.928201913833618 0
    vertex 6.451889038085938 -3.724999904632568 0
  endloop
endfacet
facet normal -0.9215283393859863 0.3817095160484314 -0.07129806280136108
  outer loop
    vertex 7.196147441864014 -1.928201913833618 0
    vertex 6.064775943756104 -3.501499891281128 6.199999809265137
    vertex 6.764378547668457 -1.812509775161743 6.199999809265137
  endloop
endfacet
facet normal -0.6072121858596802 -0.7913342714309692 -0.07129806280136108
  outer loop
    vertex 4.951869010925293 4.951869010925293 6.199999809265137
    vertex 3.724999904632568 6.451889038085938 0
    vertex 5.267945289611816 5.267945289611816 0
  endloop
endfacet
facet normal -0.6072121858596802 -0.7913342714309692 -0.07129806280136108
  outer loop
    vertex 3.724999904632568 6.451889038085938 0
    vertex 4.951869010925293 4.951869010925293 6.199999809265137
    vertex 3.501499891281128 6.064775943756104 6.199999809265137
  endloop
endfacet
facet normal 0.1301940083503723 -0.9889217019081116 -0.07129806280136108
  outer loop
    vertex -1.286430229851285e-15 7.002999782562256 6.199999809265137
    vertex -1.928201913833618 7.196147441864014 0
    vertex -1.368542768428419e-15 7.449999809265137 0
  endloop
endfacet
facet normal 0.1301940083503723 -0.9889217019081116 -0.07129806280136108
  outer loop
    vertex -1.928201913833618 7.196147441864014 0
    vertex -1.286430229851285e-15 7.002999782562256 6.199999809265137
    vertex -1.812509775161743 6.764378547668457 6.199999809265137
  endloop
endfacet
endsolid A498
