  0
SECTION
  2
HEADER
  9
$ACADVER
  1
AC1014
  9
$ACADMAINTVER
 70
     9
  9
$DWGCODEPAGE
  3
ANSI_1252
  9
$INSBASE
 10
0.0
 20
0.0
 30
0.0
  9
$EXTMIN
 10
1.000000000000000E+20
 20
1.000000000000000E+20
 30
1.000000000000000E+20
  9
$EXTMAX
 10
-1.000000000000000E+20
 20
-1.000000000000000E+20
 30
-1.000000000000000E+20
  9
$LIMMIN
 10
0.0
 20
0.0
  9
$LIMMAX
 10
12.0
 20
9.0
  9
$ORTHOMODE
 70
     0
  9
$REGENMODE
 70
     1
  9
$FILLMODE
 70
     1
  9
$QTEXTMODE
 70
     0
  9
$MIRRTEXT
 70
     1
  9
$DRAGMODE
 70
     2
  9
$LTSCALE
 40
25.4
  9
$OSMODE
 70
    37
  9
$ATTMODE
 70
     1
  9
$TEXTSIZE
 40
0.2
  9
$TRACEWID
 40
0.05
  9
$TEXTSTYLE
  7
STANDARD
  9
$CLAYER
  8
0
  9
$CELTYPE
  6
BYLAYER
  9
$CECOLOR
 62
   256
  9
$CELTSCALE
 40
1.0
  9
$DELOBJ
 70
     1
  9
$DISPSILH
 70
     0
  9
$DIMSCALE
 40
1.0
  9
$DIMASZ
 40
0.18
  9
$DIMEXO
 40
0.0625
  9
$DIMDLI
 40
0.38
  9
$DIMRND
 40
0.0
  9
$DIMDLE
 40
0.0
  9
$DIMEXE
 40
0.18
  9
$DIMTP
 40
0.0
  9
$DIMTM
 40
0.0
  9
$DIMTXT
 40
0.18
  9
$DIMCEN
 40
0.09
  9
$DIMTSZ
 40
0.0
  9
$DIMTOL
 70
     0
  9
$DIMLIM
 70
     0
  9
$DIMTIH
 70
     1
  9
$DIMTOH
 70
     1
  9
$DIMSE1
 70
     0
  9
$DIMSE2
 70
     0
  9
$DIMTAD
 70
     0
  9
$DIMZIN
 70
     0
  9
$DIMBLK
  1

  9
$DIMASO
 70
     1
  9
$DIMSHO
 70
     1
  9
$DIMPOST
  1

  9
$DIMAPOST
  1

  9
$DIMALT
 70
     0
  9
$DIMALTD
 70
     2
  9
$DIMALTF
 40
25.4
  9
$DIMLFAC
 40
1.0
  9
$DIMTOFL
 70
     0
  9
$DIMTVP
 40
0.0
  9
$DIMTIX
 70
     0
  9
$DIMSOXD
 70
     0
  9
$DIMSAH
 70
     0
  9
$DIMBLK1
  1

  9
$DIMBLK2
  1

  9
$DIMSTYLE
  2
STANDARD
  9
$DIMCLRD
 70
     0
  9
$DIMCLRE
 70
     0
  9
$DIMCLRT
 70
     0
  9
$DIMTFAC
 40
1.0
  9
$DIMGAP
 40
0.09
  9
$DIMJUST
 70
     0
  9
$DIMSD1
 70
     0
  9
$DIMSD2
 70
     0
  9
$DIMTOLJ
 70
     1
  9
$DIMTZIN
 70
     0
  9
$DIMALTZ
 70
     0
  9
$DIMALTTZ
 70
     0
  9
$DIMFIT
 70
     3
  9
$DIMUPT
 70
     0
  9
$DIMUNIT
 70
     2
  9
$DIMDEC
 70
     4
  9
$DIMTDEC
 70
     4
  9
$DIMALTU
 70
     2
  9
$DIMALTTD
 70
     2
  9
$DIMTXSTY
  7
STANDARD
  9
$DIMAUNIT
 70
     0
  9
$LUNITS
 70
     2
  9
$LUPREC
 70
     4
  9
$SKETCHINC
 40
0.1
  9
$FILLETRAD
 40
0.5
  9
$AUNITS
 70
     0
  9
$AUPREC
 70
     0
  9
$MENU
  1
.
  9
$ELEVATION
 40
0.0
  9
$PELEVATION
 40
0.0
  9
$THICKNESS
 40
0.0
  9
$LIMCHECK
 70
     0
  9
$CHAMFERA
 40
0.0
  9
$CHAMFERB
 40
0.0
  9
$CHAMFERC
 40
0.0
  9
$CHAMFERD
 40
0.0
  9
$SKPOLY
 70
     0
  9
$TDCREATE
 40
2459907.600258553
  9
$TDUPDATE
 40
2459907.600258889
  9
$TDINDWG
 40
0.0000000116
  9
$TDUSRTIMER
 40
0.0000000116
  9
$USRTIMER
 70
     1
  9
$ANGBASE
 50
0.0
  9
$ANGDIR
 70
     0
  9
$PDMODE
 70
     0
  9
$PDSIZE
 40
0.0
  9
$PLINEWID
 40
0.0
  9
$COORDS
 70
     1
  9
$SPLFRAME
 70
     0
  9
$SPLINETYPE
 70
     6
  9
$SPLINESEGS
 70
     8
  9
$ATTDIA
 70
     0
  9
$ATTREQ
 70
     1
  9
$HANDLING
 70
     1
  9
$HANDSEED
  5
43F
  9
$SURFTAB1
 70
     6
  9
$SURFTAB2
 70
     6
  9
$SURFTYPE
 70
     6
  9
$SURFU
 70
     6
  9
$SURFV
 70
     6
  9
$UCSNAME
  2

  9
$UCSORG
 10
0.0
 20
0.0
 30
0.0
  9
$UCSXDIR
 10
1.0
 20
0.0
 30
0.0
  9
$UCSYDIR
 10
0.0
 20
1.0
 30
0.0
  9
$PUCSNAME
  2

  9
$PUCSORG
 10
0.0
 20
0.0
 30
0.0
  9
$PUCSXDIR
 10
1.0
 20
0.0
 30
0.0
  9
$PUCSYDIR
 10
0.0
 20
1.0
 30
0.0
  9
$USERI1
 70
     0
  9
$USERI2
 70
     0
  9
$USERI3
 70
     0
  9
$USERI4
 70
     0
  9
$USERI5
 70
     0
  9
$USERR1
 40
0.0
  9
$USERR2
 40
0.0
  9
$USERR3
 40
0.0
  9
$USERR4
 40
0.0
  9
$USERR5
 40
0.0
  9
$WORLDVIEW
 70
     1
  9
$SHADEDGE
 70
     3
  9
$SHADEDIF
 70
    70
  9
$TILEMODE
 70
     1
  9
$MAXACTVP
 70
    64
  9
$PINSBASE
 10
0.0
 20
0.0
 30
0.0
  9
$PLIMCHECK
 70
     0
  9
$PEXTMIN
 10
1.000000000000000E+20
 20
1.000000000000000E+20
 30
1.000000000000000E+20
  9
$PEXTMAX
 10
-1.000000000000000E+20
 20
-1.000000000000000E+20
 30
-1.000000000000000E+20
  9
$PLIMMIN
 10
0.0
 20
0.0
  9
$PLIMMAX
 10
12.0
 20
9.0
  9
$UNITMODE
 70
     0
  9
$VISRETAIN
 70
     1
  9
$PLINEGEN
 70
     0
  9
$PSLTSCALE
 70
     1
  9
$TREEDEPTH
 70
  3020
  9
$PICKSTYLE
 70
     1
  9
$CMLSTYLE
  2
STANDARD
  9
$CMLJUST
 70
     0
  9
$CMLSCALE
 40
1.0
  9
$PROXYGRAPHICS
 70
     1
  9
$MEASUREMENT
 70
     1
  0
ENDSEC
  0
SECTION
  2
CLASSES
  0
CLASS
  1
ACDBDICTIONARYWDFLT
  2
AcDbDictionaryWithDefault
  3
ObjectDBX Classes
 90
        0
280
     0
281
     0
  0
CLASS
  1
VISUALSTYLE
  2
AcDbVisualStyle
  3
ObjectDBX Classes
 90
     4095
280
     0
281
     0
  0
CLASS
  1
MATERIAL
  2
AcDbMaterial
  3
ObjectDBX Classes
 90
     1153
280
     0
281
     0
  0
CLASS
  1
SCALE
  2
AcDbScale
  3
ObjectDBX Classes
 90
     1153
280
     0
281
     0
  0
CLASS
  1
TABLESTYLE
  2
AcDbTableStyle
  3
ObjectDBX Classes
 90
     4095
280
     0
281
     0
  0
CLASS
  1
MLEADERSTYLE
  2
AcDbMLeaderStyle
  3
ACDB_MLEADERSTYLE_CLASS
 90
     4095
280
     0
281
     0
  0
CLASS
  1
SUN
  2
AcDbSun
  3
SCENEOE
 90
     1153
280
     0
281
     0
  0
CLASS
  1
DICTIONARYVAR
  2
AcDbDictionaryVar
  3
ObjectDBX Classes
 90
        0
280
     0
281
     0
  0
CLASS
  1
XRECORD
  2
AcDbXrecord
  3
ObjectDBX Classes
 90
        0
280
     0
281
     0
  0
CLASS
  1
LWPOLYLINE
  2
AcDbPolyline
  3
ObjectDBX Classes
 90
        0
280
     0
281
     1
  0
CLASS
  1
HATCH
  2
AcDbHatch
  3
ObjectDBX Classes
 90
        0
280
     0
281
     1
  0
CLASS
  1
ACDBPLACEHOLDER
  2
AcDbPlaceHolder
  3
ObjectDBX Classes
 90
        0
280
     0
281
     0
  0
CLASS
  1
LAYOUT
  2
AcDbLayout
  3
ObjectDBX Classes
 90
        0
280
     0
281
     0
  0
ENDSEC
  0
SECTION
  2
TABLES
  0
TABLE
  2
VPORT
  5
8
102
{ACAD_XDICTIONARY
360
434
102
}
330
0
100
AcDbSymbolTable
 70
     1
  0
VPORT
  5
29
330
8
100
AcDbSymbolTableRecord
100
AcDbViewportTableRecord
  2
*ACTIVE
 70
     0
 10
0.0
 20
0.0
 11
1.0
 21
1.0
 12
0.0
 22
0.0
 13
0.0
 23
0.0
 14
0.5
 24
0.5
 15
0.5
 25
0.5
 16
-0.00790985074253657
 26
-0.7014699371293379
 36
0.7126551491184172
 17
193.6752974289042
 27
50.27351928243775
 37
8.039114546698897
 40
320.0701394877328
 41
1.3333
 42
42.81760027191017
 43
-482.1663953954811
 44
24892.43360460452
 50
0.0
 51
0.0
 71
     1
 72
   100
 73
     1
 74
     3
 75
     0
 76
     0
 77
     0
 78
     0
  0
ENDTAB
  0
TABLE
  2
LTYPE
  5
5
330
0
100
AcDbSymbolTable
 70
     1
  0
LTYPE
  5
14
330
5
100
AcDbSymbolTableRecord
100
AcDbLinetypeTableRecord
  2
BYBLOCK
 70
     0
  3

 72
    65
 73
     0
 40
0.0
  0
LTYPE
  5
15
330
5
100
AcDbSymbolTableRecord
100
AcDbLinetypeTableRecord
  2
BYLAYER
 70
     0
  3

 72
    65
 73
     0
 40
0.0
  0
LTYPE
  5
16
330
5
100
AcDbSymbolTableRecord
100
AcDbLinetypeTableRecord
  2
CONTINUOUS
 70
     0
  3
Solid line
 72
    65
 73
     0
 40
0.0
  0
ENDTAB
  0
TABLE
  2
LAYER
  5
2
330
0
100
AcDbSymbolTable
 70
     1
  0
LAYER
  5
10
330
2
100
AcDbSymbolTableRecord
100
AcDbLayerTableRecord
  2
0
 70
     0
 62
    13
  6
CONTINUOUS
  0
ENDTAB
  0
TABLE
  2
STYLE
  5
3
330
0
100
AcDbSymbolTable
 70
     2
  0
STYLE
  5
11
330
3
100
AcDbSymbolTableRecord
100
AcDbTextStyleTableRecord
  2
STANDARD
 70
     0
 40
0.0
 41
1.0
 50
0.0
 71
     0
 42
0.2
  3
txt
  4

  0
STYLE
  5
6E
330
3
100
AcDbSymbolTableRecord
100
AcDbTextStyleTableRecord
  2
TAHOMA
 70
     0
 40
0.0
 41
1.0
 50
0.0
 71
     0
 42
0.2
  3
Tahoma
  4

1001
ACAD
1000
Tahoma
1071
       34
  0
ENDTAB
  0
TABLE
  2
VIEW
  5
6
330
0
100
AcDbSymbolTable
 70
     0
  0
ENDTAB
  0
TABLE
  2
UCS
  5
7
330
0
100
AcDbSymbolTable
 70
     0
  0
ENDTAB
  0
TABLE
  2
APPID
  5
9
330
0
100
AcDbSymbolTable
 70
     2
  0
APPID
  5
12
330
9
100
AcDbSymbolTableRecord
100
AcDbRegAppTableRecord
  2
ACAD
 70
     0
  0
APPID
  5
43E
330
9
100
AcDbSymbolTableRecord
100
AcDbRegAppTableRecord
  2
ACAD_MLEADERVER
 70
     0
  0
ENDTAB
  0
TABLE
  2
DIMSTYLE
  5
A
330
0
100
AcDbSymbolTable
 70
     2
  0
DIMSTYLE
105
27
330
A
100
AcDbSymbolTableRecord
100
AcDbDimStyleTableRecord
  2
STANDARD
 70
     0
  3

  4

  5

  6

  7

 40
1.0
 41
0.18
 42
0.0625
 43
0.38
 44
0.18
 45
0.0
 46
0.0
 47
0.0
 48
0.0
140
0.18
141
0.09
142
0.0
143
25.4
144
1.0
145
0.0
146
1.0
147
0.09
 71
     0
 72
     0
 73
     1
 74
     1
 75
     0
 76
     0
 77
     0
 78
     0
170
     0
171
     2
172
     0
173
     0
174
     0
175
     0
176
     0
177
     0
178
     0
270
     2
271
     4
272
     4
273
     2
274
     2
340
11
275
     0
280
     0
281
     0
282
     0
283
     1
284
     0
285
     0
286
     0
287
     3
288
     0
  0
DIMSTYLE
105
6F
330
A
100
AcDbSymbolTableRecord
100
AcDbDimStyleTableRecord
  2
DIMENSIONS
 70
     0
  3
mm
  4

  5
ARCHTICK
  6

  7

 40
1.0
 41
12.7
 42
12.7
 43
0.38
 44
12.7
 45
0.0
 46
0.0
 47
0.0
 48
0.0
140
25.4
141
0.09
142
0.0
143
25.4
144
1.0
145
0.0
146
1.0
147
2.54
 71
     0
 72
     0
 73
     1
 74
     1
 75
     0
 76
     0
 77
     0
 78
     0
170
     0
171
     2
172
     0
173
     0
174
     0
175
     0
176
     0
177
     0
178
     0
270
     2
271
     0
272
     4
273
     2
274
     2
340
6E
275
     0
280
     0
281
     0
282
     0
283
     1
284
     0
285
     0
286
     0
287
     3
288
     0
  0
ENDTAB
  0
TABLE
  2
BLOCK_RECORD
  5
1
330
0
100
AcDbSymbolTable
 70
     2
  0
BLOCK_RECORD
  5
1F
330
1
100
AcDbSymbolTableRecord
100
AcDbBlockTableRecord
  2
*MODEL_SPACE
  0
BLOCK_RECORD
  5
1B
330
1
100
AcDbSymbolTableRecord
100
AcDbBlockTableRecord
  2
*PAPER_SPACE
  0
BLOCK_RECORD
  5
70
330
1
100
AcDbSymbolTableRecord
100
AcDbBlockTableRecord
  2
_ARCHTICK
  0
BLOCK_RECORD
  5
74
330
1
100
AcDbSymbolTableRecord
100
AcDbBlockTableRecord
  2
LAURA
  0
ENDTAB
  0
ENDSEC
  0
SECTION
  2
BLOCKS
  0
BLOCK
  5
20
330
1F
100
AcDbEntity
  8
0
100
AcDbBlockBegin
  2
*MODEL_SPACE
 70
     0
 10
0.0
 20
0.0
 30
0.0
  3
*MODEL_SPACE
  1

  0
ENDBLK
  5
21
330
1F
100
AcDbEntity
  8
0
100
AcDbBlockEnd
  0
BLOCK
  5
1C
330
1B
100
AcDbEntity
 67
     1
  8
0
100
AcDbBlockBegin
  2
*PAPER_SPACE
 70
     0
 10
0.0
 20
0.0
 30
0.0
  3
*PAPER_SPACE
  1

  0
ENDBLK
  5
1D
330
1B
100
AcDbEntity
 67
     1
  8
0
100
AcDbBlockEnd
  0
BLOCK
  5
71
330
70
100
AcDbEntity
  8
0
100
AcDbBlockBegin
  2
_ARCHTICK
 70
     0
 10
0.0
 20
0.0
 30
0.0
  3
_ARCHTICK
  1

  0
LWPOLYLINE
  5
73
330
70
100
AcDbEntity
  8
0
  6
BYBLOCK
 62
     0
100
AcDbPolyline
 90
        2
 70
     0
 43
0.15
 10
-0.5
 20
-0.5
 10
0.5
 20
0.5
  0
ENDBLK
  5
72
330
70
100
AcDbEntity
  8
0
100
AcDbBlockEnd
  0
BLOCK
  5
75
330
74
100
AcDbEntity
  8
0
100
AcDbBlockBegin
  2
LAURA
 70
     0
 10
0.0
 20
0.0
 30
0.0
  3
LAURA
  1

  0
LINE
  5
77
330
74
100
AcDbEntity
  8
0
 62
     0
 60
     1
100
AcDbLine
 10
-242.6815159412309
 20
-0.0000000000014438
 30
763.9911294048571
 11
-226.6040275010823
 21
-0.0000000000014438
 31
758.0156034223529
  0
LINE
  5
78
330
74
100
AcDbEntity
  8
0
 62
     0
 60
     1
100
AcDbLine
 10
-226.6040275010823
 20
-0.0000000000014438
 30
758.0156034223529
 11
-211.5264863852252
 21
-0.0000000000014438
 31
759.6352046889529
  0
LINE
  5
79
330
74
100
AcDbEntity
  8
0
 62
     0
 60
     1
100
AcDbLine
 10
-211.5264863852252
 20
-0.0000000000014438
 30
759.6352046889529
 11
-184.988467468917
 21
-0.0000000000014438
 31
786.9563189110896
  0
LINE
  5
7A
330
74
100
AcDbEntity
  8
0
 62
     0
 60
     1
100
AcDbLine
 10
193.8309399704168
 20
-0.0000000000021657
 30
835.6426011193781
 11
194.5551631137144
 21
-0.0000000000021657
 31
819.7208542594831
  0
LINE
  5
7B
330
74
100
AcDbEntity
  8
0
 62
     0
100
AcDbLine
 10
190.5063457692233
 20
-0.0000000000014438
 30
790.2090136219348
 11
195.6107884514647
 21
-0.0000000000014438
 31
793.2267105439648
  0
LINE
  5
7C
330
74
100
AcDbEntity
  8
0
 62
     0
100
AcDbLine
 10
195.6107884514647
 20
-0.0000000000014438
 30
793.2267105439648
 11
197.5149653515626
 21
-0.0000000000014438
 31
804.24518170753
  0
LINE
  5
7D
330
74
100
AcDbEntity
  8
0
 62
     0
100
AcDbLine
 10
197.5149653515626
 20
-0.0000000000014438
 30
804.24518170753
 11
194.5551631137144
 21
-0.0000000000021657
 31
819.7208542594831
  0
LINE
  5
7E
330
74
100
AcDbEntity
  8
0
 62
     0
100
AcDbLine
 10
195.6107884514647
 20
-0.0000000000014438
 30
793.2267105439648
 11
197.5149653515626
 21
-0.0000000000014438
 31
804.24518170753
  0
LINE
  5
7F
330
74
100
AcDbEntity
  8
0
 62
     0
100
AcDbLine
 10
195.6107884514647
 20
-0.0000000000014438
 30
793.2267105439648
 11
202.5269965484905
 21
-0.0000000000014438
 31
790.0187948657007
  0
LINE
  5
80
330
74
100
AcDbEntity
  8
0
 62
     0
 60
     1
100
AcDbLine
 10
203.7312951724629
 20
-0.0000000000021657
 30
808.0438760778699
 11
202.5269965484905
 21
-0.0000000000014438
 31
790.0187948657007
  0
LINE
  5
81
330
74
100
AcDbEntity
  8
0
 62
     0
100
AcDbLine
 10
197.5149653515626
 20
-0.0000000000014438
 30
804.24518170753
 11
203.7312951724629
 21
-0.0000000000021657
 31
808.0438760778699
  0
LINE
  5
82
330
74
100
AcDbEntity
  8
0
 62
     0
 60
     1
100
AcDbLine
 10
15.89699363672076
 20
-0.0000000000021657
 30
834.387940911949
 11
43.91782372104306
 21
-0.0000000000021657
 31
941.3807281595507
  0
LINE
  5
83
330
74
100
AcDbEntity
  8
0
 62
     0
100
AcDbLine
 10
96.94048709638692
 20
-0.0000000000021657
 30
933.0416213376409
 11
95.89515738239587
 21
-0.0000000000021657
 31
946.4834969536439
  0
LINE
  5
84
330
74
100
AcDbEntity
  8
0
 62
     0
 60
     1
100
AcDbLine
 10
99.0987554282086
 20
-0.0000000000059257
 30
1333.053521784443
 11
50.13732627439195
 21
0.0000000000060341
 31
1433.695534896363
  0
LINE
  5
85
330
74
100
AcDbEntity
  8
0
 62
     0
100
AcDbLine
 10
139.4239107453633
 20
-0.0000000000021657
 30
948.9771692400608
 11
96.94048709638692
 21
-0.0000000000021657
 31
933.0416213376409
  0
LINE
  5
86
330
74
100
AcDbEntity
  8
0
 62
     0
100
AcDbLine
 10
102.7304650342269
 20
-0.0000000000021657
 30
896.4660147640217
 11
101.3747967298493
 21
-0.0000000000021657
 31
897.3734058654348
  0
LINE
  5
87
330
74
100
AcDbEntity
  8
0
 62
     0
 60
     1
100
AcDbLine
 10
193.8309399704168
 20
-0.0000000000021657
 30
835.6426011193781
 11
194.5551631137144
 21
-0.0000000000021657
 31
819.7208542594831
  0
LINE
  5
88
330
74
100
AcDbEntity
  8
0
 62
     0
100
AcDbLine
 10
197.5149653515626
 20
-0.0000000000014438
 30
804.24518170753
 11
194.5551631137144
 21
-0.0000000000021657
 31
819.7208542594831
  0
LINE
  5
89
330
74
100
AcDbEntity
  8
0
 62
     0
100
AcDbLine
 10
197.5149653515626
 20
-0.0000000000014438
 30
804.24518170753
 11
203.7312951724629
 21
-0.0000000000021657
 31
808.0438760778699
  0
LINE
  5
8A
330
74
100
AcDbEntity
  8
0
 62
     0
 60
     1
100
AcDbLine
 10
203.7312951724629
 20
-0.0000000000021657
 30
808.0438760778699
 11
202.5269965484905
 21
-0.0000000000014438
 31
790.0187948657007
  0
LINE
  5
8B
330
74
100
AcDbEntity
  8
0
 62
     0
100
AcDbLine
 10
195.6107884514647
 20
-0.0000000000014438
 30
793.2267105439648
 11
202.5269965484905
 21
-0.0000000000014438
 31
790.0187948657007
  0
LINE
  5
8C
330
74
100
AcDbEntity
  8
0
 62
     0
100
AcDbLine
 10
190.5063457692233
 20
-0.0000000000014438
 30
790.2090136219348
 11
195.6107884514647
 21
-0.0000000000014438
 31
793.2267105439648
  0
LINE
  5
8D
330
74
100
AcDbEntity
  8
0
 62
     0
100
AcDbLine
 10
170.6586452226293
 20
-0.0000000000021657
 30
805.964168312287
 11
170.6128004616886
 21
-0.0000000000021657
 31
812.9277156333571
  0
LINE
  5
8E
330
74
100
AcDbEntity
  8
0
 62
     0
100
AcDbLine
 10
-310.0462461171682
 20
0.0
 30
499.4649494661471
 11
-301.2463755322571
 21
-0.0000000000007219
 31
537.0671533097532
  0
LINE
  5
8F
330
74
100
AcDbEntity
  8
0
 62
     0
100
AcDbLine
 10
-175.8820627388602
 20
-0.0000000000014438
 30
696.1949436466577
 11
-189.1912579038768
 21
-0.0000000000014438
 31
750.2872065962257
  0
LINE
  5
90
330
74
100
AcDbEntity
  8
0
 62
     0
100
AcDbLine
 10
-137.3701722390038
 20
-0.0000000000007219
 30
534.1370881630255
 11
-125.9685376663201
 21
-0.0000000000014438
 31
533.5585969708039
  0
LINE
  5
91
330
74
100
AcDbEntity
  8
0
 62
     0
100
AcDbLine
 10
-175.8820627388602
 20
-0.0000000000014438
 30
696.1949436466577
 11
-125.9685376663201
 21
-0.0000000000014438
 31
533.5585969708039
  0
LINE
  5
92
330
74
100
AcDbEntity
  8
0
 62
     0
100
AcDbLine
 10
-137.3701722390038
 20
-0.0000000000007219
 30
534.1370881630255
 11
-162.5625000889104
 21
-0.0000000000014438
 31
535.4152855723386
  0
LINE
  5
93
330
74
100
AcDbEntity
  8
0
 62
     0
100
AcDbLine
 10
-173.6202524939324
 20
-0.0000000000014438
 30
535.9763290202142
 11
-255.7981515136106
 21
-0.0000000000007219
 31
536.678705980196
  0
LINE
  5
94
330
74
100
AcDbEntity
  8
0
 62
     0
100
AcDbLine
 10
-255.7981515136106
 20
-0.0000000000007219
 30
536.678705980196
 11
-266.8082278585127
 21
-0.0000000000007219
 31
536.7728094319093
  0
LINE
  5
95
330
74
100
AcDbEntity
  8
0
 62
     0
100
AcDbLine
 10
-266.8082278585127
 20
-0.0000000000007219
 30
536.7728094319093
 11
-301.2463755322571
 21
-0.0000000000007219
 31
537.0671533097532
  0
LINE
  5
96
330
74
100
AcDbEntity
  8
0
 62
     0
100
AcDbLine
 10
-310.0462461171682
 20
0.0
 30
499.4649494661471
 11
-301.2463755322571
 21
-0.0000000000007219
 31
537.0671533097532
  0
LINE
  5
97
330
74
100
AcDbEntity
  8
0
 62
     0
100
AcDbLine
 10
-317.709294327571
 20
-0.0000000000007219
 30
537.2078623689263
 11
-332.7412886884441
 21
-0.0000000000007219
 31
537.3363412741744
  0
LINE
  5
98
330
74
100
AcDbEntity
  8
0
 62
     0
100
AcDbLine
 10
-381.96520065026
 20
-0.0000000000007219
 30
251.6226842577579
 11
-383.7588605646159
 21
-0.0000000000007219
 31
257.7957102777508
  0
LINE
  5
99
330
74
100
AcDbEntity
  8
0
 62
     0
100
AcDbLine
 10
-175.6947921777744
 20
-0.0000000000007219
 30
241.6339697404484
 11
-124.2126925254226
 21
-0.0000000000007219
 31
243.6361280980702
  0
LINE
  5
9A
330
74
100
AcDbEntity
  8
0
 62
     0
100
AcDbLine
 10
-137.3701722390038
 20
-0.0000000000007219
 30
434.1844791990293
 11
-137.3701722390038
 21
-0.0000000000007219
 31
534.1370881630255
  0
LINE
  5
9B
330
74
100
AcDbEntity
  8
0
 62
     0
100
AcDbLine
 10
-137.3701722390038
 20
-0.0000000000007219
 30
534.1370881630255
 11
-162.5625000889104
 21
-0.0000000000014438
 31
535.4152855723386
  0
LINE
  5
9C
330
74
100
AcDbEntity
  8
0
 62
     0
 60
     1
100
AcDbLine
 10
99.0987554282086
 20
-0.0000000000059257
 30
1333.053521784443
 11
50.13732627439195
 21
0.0000000000060341
 31
1433.695534896363
  0
LINE
  5
9D
330
74
100
AcDbEntity
  8
0
 62
     0
100
AcDbLine
 10
3.891329886671248
 20
-0.0000000000036096
 30
1305.715819823731
 11
-15.66052961234242
 21
-0.0000000000028876
 31
1321.115895905451
  0
LINE
  5
9E
330
74
100
AcDbEntity
  8
0
 62
     0
100
AcDbLine
 10
5.627635357764508
 20
-0.0000000000036096
 30
1304.602750264769
 11
3.891329886671248
 21
-0.0000000000036096
 31
1305.715819823731
  0
LINE
  5
9F
330
74
100
AcDbEntity
  8
0
 62
     0
100
AcDbLine
 10
-74.78170147577424
 20
-0.0000000000036096
 30
1414.980766166005
 11
5.627635357764508
 21
-0.0000000000036096
 31
1304.602750264769
  0
LINE
  5
A0
330
74
100
AcDbEntity
  8
0
 62
     0
 60
     1
100
AcDbLine
 10
-121.2265957901346
 20
-0.0000000000064972
 30
1275.621758602173
 11
-59.347181650749
 21
-0.0000000000036096
 31
1324.364675545092
  0
LINE
  5
A1
330
74
100
AcDbEntity
  8
0
 62
     0
100
AcDbLine
 10
51.68184480963591
 20
-0.0000000000101068
 30
1222.127475158892
 11
54.97954094713988
 21
-0.0000000000101068
 31
1221.401015115784
  0
LINE
  5
A2
330
74
100
AcDbEntity
  8
0
 62
     0
100
AcDbLine
 10
54.97954094713988
 20
-0.0000000000101068
 30
1221.401015115784
 11
58.0525045425736
 21
-0.0000000000101068
 31
1219.271142037868
  0
LINE
  5
A3
330
74
100
AcDbEntity
  8
0
 62
     0
100
AcDbLine
 10
58.0525045425736
 20
-0.0000000000101068
 30
1219.271142037868
 11
60.69131820522015
 21
-0.0000000000101068
 31
1215.883003255622
  0
LINE
  5
A4
330
74
100
AcDbEntity
  8
0
 62
     0
100
AcDbLine
 10
60.69131820522015
 20
-0.0000000000101068
 30
1215.883003255622
 11
62.71615114481686
 21
-0.0000000000101068
 31
1211.467494827892
  0
LINE
  5
A5
330
74
100
AcDbEntity
  8
0
 62
     0
100
AcDbLine
 10
62.71615114481686
 20
-0.0000000000101068
 30
1211.467494827892
 11
63.98901434272411
 21
-0.0000000000101068
 31
1206.325526357054
  0
LINE
  5
A6
330
74
100
AcDbEntity
  8
0
 62
     0
100
AcDbLine
 10
63.98901434272411
 20
-0.0000000000101068
 30
1206.325526357054
 11
64.4231642755111
 21
-0.0000000000101068
 31
1200.807514496892
  0
LINE
  5
A7
330
74
100
AcDbEntity
  8
0
 62
     0
100
AcDbLine
 10
64.4231642755111
 20
-0.0000000000101068
 30
1200.807514496892
 11
63.98901434272411
 21
-0.0000000000101068
 31
1195.289502636729
  0
LINE
  5
A8
330
74
100
AcDbEntity
  8
0
 62
     0
100
AcDbLine
 10
63.98901434272411
 20
-0.0000000000101068
 30
1195.289502636729
 11
62.71615114481686
 21
-0.0000000000101068
 31
1190.147534165891
  0
LINE
  5
A9
330
74
100
AcDbEntity
  8
0
 62
     0
100
AcDbLine
 10
62.71615114481686
 20
-0.0000000000101068
 30
1190.147534165891
 11
60.69131820522015
 21
-0.0000000000101068
 31
1185.732025738161
  0
LINE
  5
AA
330
74
100
AcDbEntity
  8
0
 62
     0
100
AcDbLine
 10
60.69131820522015
 20
-0.0000000000101068
 30
1185.732025738161
 11
58.0525045425736
 21
-0.0000000000101068
 31
1182.343886955915
  0
LINE
  5
AB
330
74
100
AcDbEntity
  8
0
 62
     0
100
AcDbLine
 10
58.0525045425736
 20
-0.0000000000101068
 30
1182.343886955915
 11
54.97954094713988
 21
-0.0000000000101068
 31
1180.214013877999
  0
LINE
  5
AC
330
74
100
AcDbEntity
  8
0
 62
     0
100
AcDbLine
 10
54.97954094713988
 20
-0.0000000000101068
 30
1180.214013877999
 11
51.68184480963591
 21
-0.0000000000101068
 31
1179.487553834891
  0
LINE
  5
AD
330
74
100
AcDbEntity
  8
0
 62
     0
100
AcDbLine
 10
51.68184480963591
 20
-0.0000000000101068
 30
1179.487553834891
 11
48.38414867213204
 21
-0.0000000000101068
 31
1180.214013877999
  0
LINE
  5
AE
330
74
100
AcDbEntity
  8
0
 62
     0
100
AcDbLine
 10
48.38414867213204
 20
-0.0000000000101068
 30
1180.214013877999
 11
45.31118507669841
 21
-0.0000000000101068
 31
1182.343886955915
  0
LINE
  5
AF
330
74
100
AcDbEntity
  8
0
 62
     0
100
AcDbLine
 10
45.31118507669841
 20
-0.0000000000101068
 30
1182.343886955915
 11
42.67237141405186
 21
-0.0000000000101068
 31
1185.732025738161
  0
LINE
  5
B0
330
74
100
AcDbEntity
  8
0
 62
     0
100
AcDbLine
 10
42.67237141405186
 20
-0.0000000000101068
 30
1185.732025738161
 11
40.64753847445506
 21
-0.0000000000101068
 31
1190.147534165891
  0
LINE
  5
B1
330
74
100
AcDbEntity
  8
0
 62
     0
100
AcDbLine
 10
40.64753847445506
 20
-0.0000000000101068
 30
1190.147534165891
 11
39.3746752765478
 21
-0.0000000000101068
 31
1195.289502636729
  0
LINE
  5
B2
330
74
100
AcDbEntity
  8
0
 62
     0
100
AcDbLine
 10
39.3746752765478
 20
-0.0000000000101068
 30
1195.289502636729
 11
38.94052534376091
 21
-0.0000000000101068
 31
1200.807514496892
  0
LINE
  5
B3
330
74
100
AcDbEntity
  8
0
 62
     0
100
AcDbLine
 10
38.94052534376091
 20
-0.0000000000101068
 30
1200.807514496892
 11
39.3746752765478
 21
-0.0000000000101068
 31
1206.325526357054
  0
LINE
  5
B4
330
74
100
AcDbEntity
  8
0
 62
     0
100
AcDbLine
 10
39.3746752765478
 20
-0.0000000000101068
 30
1206.325526357054
 11
40.64753847445506
 21
-0.0000000000101068
 31
1211.467494827892
  0
LINE
  5
B5
330
74
100
AcDbEntity
  8
0
 62
     0
100
AcDbLine
 10
40.64753847445506
 20
-0.0000000000101068
 30
1211.467494827892
 11
42.67237141405186
 21
-0.0000000000101068
 31
1215.883003255622
  0
LINE
  5
B6
330
74
100
AcDbEntity
  8
0
 62
     0
100
AcDbLine
 10
42.67237141405186
 20
-0.0000000000101068
 30
1215.883003255622
 11
45.31118507669841
 21
-0.0000000000101068
 31
1219.271142037868
  0
LINE
  5
B7
330
74
100
AcDbEntity
  8
0
 62
     0
100
AcDbLine
 10
45.31118507669841
 20
-0.0000000000101068
 30
1219.271142037868
 11
48.38414867213204
 21
-0.0000000000101068
 31
1221.401015115784
  0
LINE
  5
B8
330
74
100
AcDbEntity
  8
0
 62
     0
100
AcDbLine
 10
48.38414867213204
 20
-0.0000000000101068
 30
1221.401015115784
 11
51.68184480963591
 21
-0.0000000000101068
 31
1222.127475158892
  0
LINE
  5
B9
330
74
100
AcDbEntity
  8
0
 62
     0
100
AcDbLine
 10
5.627635357764508
 20
-0.0000000000036096
 30
1304.602750264769
 11
3.891329886671248
 21
-0.0000000000036096
 31
1305.715819823731
  0
LINE
  5
BA
330
74
100
AcDbEntity
  8
0
 62
     0
100
AcDbLine
 10
3.891329886671248
 20
-0.0000000000036096
 30
1305.715819823731
 11
-15.66052961234242
 21
-0.0000000000028876
 31
1321.115895905451
  0
LINE
  5
BB
330
74
100
AcDbEntity
  8
0
 62
     0
100
AcDbLine
 10
-48.8528865823497
 20
-0.0000000000036096
 30
1592.285095737245
 11
13.96783660213861
 21
-0.0000000000036096
 31
1593.646358510744
  0
LINE
  5
BC
330
74
100
AcDbEntity
  8
0
 62
     0
100
AcDbLine
 10
-137.3701722390038
 20
-0.0000000000007219
 30
434.1844791990293
 11
-42.00914646519284
 21
-0.0000000000007219
 31
432.2407732420378
  0
LINE
  5
BD
330
74
100
AcDbEntity
  8
0
 62
     0
100
AcDbLine
 10
42.07639979878505
 20
-0.0000000000028876
 30
1285.396929836633
 11
44.50580507146871
 21
-0.0000000000028876
 31
1277.793045803537
  0
LINE
  5
BE
330
74
100
AcDbEntity
  8
0
 62
     0
100
AcDbLine
 10
42.07639979878505
 20
-0.0000000000028876
 30
1285.396929836633
 11
44.50580507146871
 21
-0.0000000000028876
 31
1277.793045803537
  0
LINE
  5
BF
330
74
100
AcDbEntity
  8
0
 62
     0
100
AcDbLine
 10
29.56475980614887
 20
-0.0000000000036096
 30
1289.25770586091
 11
42.07639979878505
 21
-0.0000000000028876
 31
1285.396929836633
  0
LINE
  5
C0
330
74
100
AcDbEntity
  8
0
 62
     0
100
AcDbLine
 10
-170.1221683032154
 20
-0.0000000000014438
 30
782.737121355598
 11
-169.1029076767478
 21
-0.0000000000014438
 31
792.5957104457925
  0
LINE
  5
C1
330
74
100
AcDbEntity
  8
0
 62
     0
100
AcDbLine
 10
-186.7952688408273
 20
-0.0000000000014438
 30
757.3461923077889
 11
-180.6717495245908
 21
-0.0000000000014438
 31
741.7779262157093
  0
LINE
  5
C2
330
74
100
AcDbEntity
  8
0
 62
     0
100
AcDbLine
 10
-255.7981515136106
 20
-0.0000000000007219
 30
536.678705980196
 11
-266.8082278585127
 21
-0.0000000000007219
 31
536.7728094319093
  0
LINE
  5
C3
330
74
100
AcDbEntity
  8
0
 62
     0
 60
     1
100
AcDbLine
 10
-226.6040275010823
 20
-0.0000000000014438
 30
758.0156034223529
 11
-211.5264863852252
 21
-0.0000000000014438
 31
759.6352046889529
  0
LINE
  5
C4
330
74
100
AcDbEntity
  8
0
 62
     0
 60
     1
100
AcDbLine
 10
-211.5264863852252
 20
-0.0000000000014438
 30
759.6352046889529
 11
-184.988467468917
 21
-0.0000000000014438
 31
786.9563189110896
  0
LINE
  5
C5
330
74
100
AcDbEntity
  8
0
 62
     0
100
AcDbLine
 10
-170.1221683032154
 20
-0.0000000000014438
 30
782.737121355598
 11
-169.1029076767478
 21
-0.0000000000014438
 31
792.5957104457925
  0
LINE
  5
C6
330
74
100
AcDbEntity
  8
0
 62
     0
 60
     1
100
AcDbLine
 10
-242.6815159412309
 20
-0.0000000000014438
 30
763.9911294048571
 11
-226.6040275010823
 21
-0.0000000000014438
 31
758.0156034223529
  0
LINE
  5
C7
330
74
100
AcDbEntity
  8
0
 62
     0
100
AcDbLine
 10
79.19818689590596
 20
-0.0000000000021657
 30
950.1076992303794
 11
95.52076874742596
 21
-0.0000000000021657
 31
951.2977535426929
  0
LINE
  5
C8
330
74
100
AcDbEntity
  8
0
 62
     0
100
AcDbLine
 10
-48.8528865823497
 20
-0.0000000000036096
 30
1592.285095737245
 11
13.96783660213861
 21
-0.0000000000036096
 31
1593.646358510744
  0
LINE
  5
C9
330
74
100
AcDbEntity
  8
0
 62
     0
100
AcDbLine
 10
63.98901434272411
 20
-0.0000000000101068
 30
1206.325526357054
 11
64.4231642755111
 21
-0.0000000000101068
 31
1200.807514496892
  0
LINE
  5
CA
330
74
100
AcDbEntity
  8
0
 62
     0
100
AcDbLine
 10
62.71615114481686
 20
-0.0000000000101068
 30
1211.467494827892
 11
63.98901434272411
 21
-0.0000000000101068
 31
1206.325526357054
  0
LINE
  5
CB
330
74
100
AcDbEntity
  8
0
 62
     0
100
AcDbLine
 10
60.69131820522015
 20
-0.0000000000101068
 30
1215.883003255622
 11
62.71615114481686
 21
-0.0000000000101068
 31
1211.467494827892
  0
LINE
  5
CC
330
74
100
AcDbEntity
  8
0
 62
     0
100
AcDbLine
 10
58.0525045425736
 20
-0.0000000000101068
 30
1219.271142037868
 11
60.69131820522015
 21
-0.0000000000101068
 31
1215.883003255622
  0
LINE
  5
CD
330
74
100
AcDbEntity
  8
0
 62
     0
100
AcDbLine
 10
54.97954094713988
 20
-0.0000000000101068
 30
1221.401015115784
 11
58.0525045425736
 21
-0.0000000000101068
 31
1219.271142037868
  0
LINE
  5
CE
330
74
100
AcDbEntity
  8
0
 62
     0
100
AcDbLine
 10
51.68184480963591
 20
-0.0000000000101068
 30
1222.127475158892
 11
54.97954094713988
 21
-0.0000000000101068
 31
1221.401015115784
  0
LINE
  5
CF
330
74
100
AcDbEntity
  8
0
 62
     0
100
AcDbLine
 10
48.38414867213204
 20
-0.0000000000101068
 30
1221.401015115784
 11
51.68184480963591
 21
-0.0000000000101068
 31
1222.127475158892
  0
LINE
  5
D0
330
74
100
AcDbEntity
  8
0
 62
     0
100
AcDbLine
 10
45.31118507669841
 20
-0.0000000000101068
 30
1219.271142037868
 11
48.38414867213204
 21
-0.0000000000101068
 31
1221.401015115784
  0
LINE
  5
D1
330
74
100
AcDbEntity
  8
0
 62
     0
100
AcDbLine
 10
42.67237141405186
 20
-0.0000000000101068
 30
1215.883003255622
 11
45.31118507669841
 21
-0.0000000000101068
 31
1219.271142037868
  0
LINE
  5
D2
330
74
100
AcDbEntity
  8
0
 62
     0
100
AcDbLine
 10
40.64753847445506
 20
-0.0000000000101068
 30
1211.467494827892
 11
42.67237141405186
 21
-0.0000000000101068
 31
1215.883003255622
  0
LINE
  5
D3
330
74
100
AcDbEntity
  8
0
 62
     0
100
AcDbLine
 10
39.3746752765478
 20
-0.0000000000101068
 30
1206.325526357054
 11
40.64753847445506
 21
-0.0000000000101068
 31
1211.467494827892
  0
LINE
  5
D4
330
74
100
AcDbEntity
  8
0
 62
     0
100
AcDbLine
 10
38.94052534376091
 20
-0.0000000000101068
 30
1200.807514496892
 11
39.3746752765478
 21
-0.0000000000101068
 31
1206.325526357054
  0
LINE
  5
D5
330
74
100
AcDbEntity
  8
0
 62
     0
100
AcDbLine
 10
39.3746752765478
 20
-0.0000000000101068
 30
1195.289502636729
 11
38.94052534376091
 21
-0.0000000000101068
 31
1200.807514496892
  0
LINE
  5
D6
330
74
100
AcDbEntity
  8
0
 62
     0
100
AcDbLine
 10
40.64753847445506
 20
-0.0000000000101068
 30
1190.147534165891
 11
39.3746752765478
 21
-0.0000000000101068
 31
1195.289502636729
  0
LINE
  5
D7
330
74
100
AcDbEntity
  8
0
 62
     0
100
AcDbLine
 10
42.67237141405186
 20
-0.0000000000101068
 30
1185.732025738161
 11
40.64753847445506
 21
-0.0000000000101068
 31
1190.147534165891
  0
LINE
  5
D8
330
74
100
AcDbEntity
  8
0
 62
     0
100
AcDbLine
 10
45.31118507669841
 20
-0.0000000000101068
 30
1182.343886955915
 11
42.67237141405186
 21
-0.0000000000101068
 31
1185.732025738161
  0
LINE
  5
D9
330
74
100
AcDbEntity
  8
0
 62
     0
100
AcDbLine
 10
48.38414867213204
 20
-0.0000000000101068
 30
1180.214013877999
 11
45.31118507669841
 21
-0.0000000000101068
 31
1182.343886955915
  0
LINE
  5
DA
330
74
100
AcDbEntity
  8
0
 62
     0
100
AcDbLine
 10
51.68184480963591
 20
-0.0000000000101068
 30
1179.487553834891
 11
48.38414867213204
 21
-0.0000000000101068
 31
1180.214013877999
  0
LINE
  5
DB
330
74
100
AcDbEntity
  8
0
 62
     0
100
AcDbLine
 10
54.97954094713988
 20
-0.0000000000101068
 30
1180.214013877999
 11
51.68184480963591
 21
-0.0000000000101068
 31
1179.487553834891
  0
LINE
  5
DC
330
74
100
AcDbEntity
  8
0
 62
     0
100
AcDbLine
 10
58.0525045425736
 20
-0.0000000000101068
 30
1182.343886955915
 11
54.97954094713988
 21
-0.0000000000101068
 31
1180.214013877999
  0
LINE
  5
DD
330
74
100
AcDbEntity
  8
0
 62
     0
100
AcDbLine
 10
60.69131820522015
 20
-0.0000000000101068
 30
1185.732025738161
 11
58.0525045425736
 21
-0.0000000000101068
 31
1182.343886955915
  0
LINE
  5
DE
330
74
100
AcDbEntity
  8
0
 62
     0
100
AcDbLine
 10
62.71615114481686
 20
-0.0000000000101068
 30
1190.147534165891
 11
60.69131820522015
 21
-0.0000000000101068
 31
1185.732025738161
  0
LINE
  5
DF
330
74
100
AcDbEntity
  8
0
 62
     0
100
AcDbLine
 10
63.98901434272411
 20
-0.0000000000101068
 30
1195.289502636729
 11
62.71615114481686
 21
-0.0000000000101068
 31
1190.147534165891
  0
LINE
  5
E0
330
74
100
AcDbEntity
  8
0
 62
     0
100
AcDbLine
 10
64.4231642755111
 20
-0.0000000000101068
 30
1200.807514496892
 11
63.98901434272411
 21
-0.0000000000101068
 31
1195.289502636729
  0
LINE
  5
E1
330
74
100
AcDbEntity
  8
0
 62
     0
100
AcDbLine
 10
-7.204928770825808
 20
-0.0000000000036096
 30
1439.644354773779
 11
42.07639979878505
 21
-0.0000000000028876
 31
1285.396929836633
  0
LINE
  5
E2
330
74
100
AcDbEntity
  8
0
 62
     0
 60
     1
100
AcDbLine
 10
-121.2265957901346
 20
-0.0000000000064972
 30
1275.621758602173
 11
-59.347181650749
 21
-0.0000000000036096
 31
1324.364675545092
  0
LINE
  5
E3
330
74
100
AcDbEntity
  8
0
 62
     0
100
AcDbLine
 10
-74.78170147577424
 20
-0.0000000000036096
 30
1414.980766166005
 11
5.627635357764508
 21
-0.0000000000036096
 31
1304.602750264769
  0
LINE
  5
E4
330
74
100
AcDbEntity
  8
0
 62
     0
100
AcDbLine
 10
29.56475980614887
 20
-0.0000000000036096
 30
1289.25770586091
 11
5.627635357764508
 21
-0.0000000000036096
 31
1304.602750264769
  0
LINE
  5
E5
330
74
100
AcDbEntity
  8
0
 62
     0
100
AcDbLine
 10
29.56475980614887
 20
-0.0000000000036096
 30
1289.25770586091
 11
42.07639979878505
 21
-0.0000000000028876
 31
1285.396929836633
  0
LINE
  5
E6
330
74
100
AcDbEntity
  8
0
 62
     0
100
AcDbLine
 10
-7.204928770825808
 20
-0.0000000000036096
 30
1439.644354773779
 11
42.07639979878505
 21
-0.0000000000028876
 31
1285.396929836633
  0
LINE
  5
E7
330
74
100
AcDbEntity
  8
0
 62
     0
100
AcDbLine
 10
29.56475980614887
 20
-0.0000000000036096
 30
1289.25770586091
 11
5.627635357764508
 21
-0.0000000000036096
 31
1304.602750264769
  0
LINE
  5
E8
330
74
100
AcDbEntity
  8
0
 62
     0
100
AcDbLine
 10
-137.3701722390038
 20
-0.0000000000007219
 30
534.1370881630255
 11
-125.9685376663201
 21
-0.0000000000014438
 31
533.5585969708039
  0
LINE
  5
E9
330
74
100
AcDbEntity
  8
0
 62
     0
100
AcDbLine
 10
-137.3701722390038
 20
-0.0000000000007219
 30
434.1844791990293
 11
-137.3701722390038
 21
-0.0000000000007219
 31
534.1370881630255
  0
LINE
  5
EA
330
74
100
AcDbEntity
  8
0
 62
     0
100
AcDbLine
 10
-137.3701722390038
 20
-0.0000000000007219
 30
434.1844791990293
 11
-42.00914646519284
 21
-0.0000000000007219
 31
432.2407732420378
  0
LINE
  5
EB
330
74
100
AcDbEntity
  8
0
 62
     0
100
AcDbLine
 10
96.94048709638692
 20
-0.0000000000021657
 30
933.0416213376409
 11
95.89515738239587
 21
-0.0000000000021657
 31
946.4834969536439
  0
LINE
  5
EC
330
74
100
AcDbEntity
  8
0
 62
     0
100
AcDbLine
 10
139.4239107453633
 20
-0.0000000000021657
 30
948.9771692400608
 11
96.94048709638692
 21
-0.0000000000021657
 31
933.0416213376409
  0
LINE
  5
ED
330
74
100
AcDbEntity
  8
0
 62
     0
100
AcDbLine
 10
-175.8820627388602
 20
-0.0000000000014438
 30
696.1949436466577
 11
-189.1912579038768
 21
-0.0000000000014438
 31
750.2872065962257
  0
LINE
  5
EE
330
74
100
AcDbEntity
  8
0
 62
     0
100
AcDbLine
 10
-175.8820627388602
 20
-0.0000000000014438
 30
696.1949436466577
 11
-125.9685376663201
 21
-0.0000000000014438
 31
533.5585969708039
  0
LINE
  5
EF
330
74
100
AcDbEntity
  8
0
 62
     0
100
AcDbLine
 10
-186.7952688408273
 20
-0.0000000000014438
 30
757.3461923077889
 11
-180.6717495245908
 21
-0.0000000000014438
 31
741.7779262157093
  0
LINE
  5
F0
330
74
100
AcDbEntity
  8
0
 62
     0
100
AcDbLine
 10
79.19818689590596
 20
-0.0000000000021657
 30
950.1076992303794
 11
95.52076874742596
 21
-0.0000000000021657
 31
951.2977535426929
  0
LINE
  5
F1
330
74
100
AcDbEntity
  8
0
 62
     0
 60
     1
100
AcDbLine
 10
15.89699363672076
 20
-0.0000000000021657
 30
834.387940911949
 11
43.91782372104306
 21
-0.0000000000021657
 31
941.3807281595507
  0
LINE
  5
F2
330
74
100
AcDbEntity
  8
0
 62
     0
100
AcDbLine
 10
-175.6947921777744
 20
-0.0000000000007219
 30
241.6339697404484
 11
-124.2126925254226
 21
-0.0000000000007219
 31
243.6361280980702
  0
LINE
  5
F3
330
74
100
AcDbEntity
  8
0
 62
     0
100
AcDbLine
 10
-175.6947921777744
 20
0.0
 30
204.1219969436717
 11
-175.6947921777744
 21
-0.0000000000007219
 31
241.6339697404484
  0
ENDBLK
  5
76
330
74
100
AcDbEntity
  8
0
100
AcDbBlockEnd
  0
ENDSEC
  0
SECTION
  2
ENTITIES
  0
LINE
  5
F4
330
1F
100
AcDbEntity
  8
0
 62
     0
100
AcDbLine
 10
207.0
 20
105.0
 30
0.0
 11
207.0
 21
105.0
 31
34.99999999999998
  0
LINE
  5
F5
330
1F
100
AcDbEntity
  8
0
 62
     0
100
AcDbLine
 10
202.0
 20
20.00000000000001
 30
0.0
 11
202.0
 21
20.00000000000001
 31
34.99999999999998
  0
LINE
  5
F6
330
1F
100
AcDbEntity
  8
0
 62
     0
100
AcDbLine
 10
207.0000000000001
 20
15.00000000000002
 30
0.0
 11
207.0000000000001
 21
15.00000000000002
 31
34.99999999999998
  0
LINE
  5
F7
330
1F
100
AcDbEntity
  8
0
 62
     0
100
AcDbLine
 10
347.0000000000001
 20
105.0
 30
0.0
 11
347.0000000000001
 21
105.0
 31
34.99999999999998
  0
LINE
  5
F8
330
1F
100
AcDbEntity
  8
0
 62
     0
100
AcDbLine
 10
202.0
 20
100.0
 30
0.0
 11
202.0
 21
100.0
 31
34.99999999999998
  0
LINE
  5
F9
330
1F
100
AcDbEntity
  8
0
 62
     0
100
AcDbLine
 10
352.0
 20
20.00000000000001
 30
0.0
 11
352.0
 21
20.00000000000001
 31
34.99999999999998
  0
LINE
  5
FA
330
1F
100
AcDbEntity
  8
0
 62
     0
100
AcDbLine
 10
347.0000000000001
 20
15.00000000000002
 30
0.0
 11
347.0000000000001
 21
15.00000000000002
 31
34.99999999999998
  0
LINE
  5
FB
330
1F
100
AcDbEntity
  8
0
 62
     0
100
AcDbLine
 10
352.0
 20
100.0
 30
0.0
 11
352.0
 21
100.0
 31
34.99999999999998
  0
ARC
  5
FC
330
1F
100
AcDbEntity
  8
0
 62
     0
100
AcDbCircle
 10
25.0
 20
25.0
 30
0.0
 40
4.999999999999991
100
AcDbArc
 50
180.0
 51
270.0
  0
LINE
  5
FD
330
1F
100
AcDbEntity
  8
0
 62
     0
100
AcDbLine
 10
20.0
 20
25.0
 30
0.0
 11
20.0
 21
25.0
 31
30.00000000000001
  0
ARC
  5
FE
330
1F
100
AcDbEntity
  8
0
 62
     0
100
AcDbCircle
 10
25.0
 20
25.0
 30
30.00000000000001
 40
4.999999999999991
100
AcDbArc
 50
180.0
 51
270.0
  0
LINE
  5
FF
330
1F
100
AcDbEntity
  8
0
 62
     0
100
AcDbLine
 10
20.17037086855467
 20
23.70590477448742
 30
0.0
 11
20.17037086855467
 21
23.70590477448742
 31
30.00000000000001
  0
ARC
  5
100
330
1F
100
AcDbEntity
  8
0
 62
     0
100
AcDbCircle
 10
25.0
 20
95.0
 30
0.0
 40
4.999999999999991
100
AcDbArc
 50
89.99999999999997
 51
180.0
  0
LINE
  5
101
330
1F
100
AcDbEntity
  8
0
 62
     0
100
AcDbLine
 10
23.7059047744874
 20
99.82962913144533
 30
0.0
 11
23.7059047744874
 21
99.82962913144533
 31
30.00000000000001
  0
ARC
  5
102
330
1F
100
AcDbEntity
  8
0
 62
     0
100
AcDbCircle
 10
25.0
 20
95.0
 30
30.00000000000001
 40
4.999999999999991
100
AcDbArc
 50
89.99999999999997
 51
180.0
  0
LINE
  5
103
330
1F
100
AcDbEntity
  8
0
 62
     0
100
AcDbLine
 10
22.50000000000001
 20
99.33012701892217
 30
0.0
 11
22.50000000000001
 21
99.33012701892217
 31
30.00000000000001
  0
ARC
  5
104
330
1F
100
AcDbEntity
  8
0
 62
     0
100
AcDbCircle
 10
347.0000000000001
 20
20.00000000000001
 30
0.0
 40
20.00000000000001
100
AcDbArc
 50
270.0
 51
0.0
  0
LINE
  5
105
330
1F
100
AcDbEntity
  8
0
 62
     0
100
AcDbLine
 10
366.3185165257814
 20
14.8236190979496
 30
0.0
 11
366.3185165257814
 21
14.8236190979496
 31
34.99999999999998
  0
ARC
  5
106
330
1F
100
AcDbEntity
  8
0
 62
     0
100
AcDbCircle
 10
347.0000000000001
 20
20.00000000000001
 30
34.99999999999998
 40
20.00000000000001
100
AcDbArc
 50
270.0
 51
0.0
  0
LINE
  5
107
330
1F
100
AcDbEntity
  8
0
 62
     0
100
AcDbLine
 10
364.3205080756888
 20
9.999999999999982
 30
0.0
 11
364.3205080756888
 21
9.999999999999982
 31
34.99999999999998
  0
ARC
  5
108
330
1F
100
AcDbEntity
  8
0
 62
     0
100
AcDbCircle
 10
347.0000000000001
 20
100.0
 30
0.0
 40
20.00000000000001
100
AcDbArc
 50
0.0
 51
90.0
  0
LINE
  5
109
330
1F
100
AcDbEntity
  8
0
 62
     0
100
AcDbLine
 10
361.142135623731
 20
114.1421356237309
 30
0.0
 11
361.142135623731
 21
114.1421356237309
 31
34.99999999999998
  0
ARC
  5
10A
330
1F
100
AcDbEntity
  8
0
 62
     0
100
AcDbCircle
 10
347.0000000000001
 20
100.0
 30
34.99999999999998
 40
20.00000000000001
100
AcDbArc
 50
0.0
 51
90.0
  0
LINE
  5
10B
330
1F
100
AcDbEntity
  8
0
 62
     0
100
AcDbLine
 10
364.3205080756888
 20
110.0
 30
0.0
 11
364.3205080756888
 21
110.0
 31
34.99999999999998
  0
ARC
  5
10C
330
1F
100
AcDbEntity
  8
0
 62
     0
100
AcDbCircle
 10
207.0
 20
20.00000000000001
 30
0.0
 40
20.00000000000001
100
AcDbArc
 50
180.0
 51
270.0
  0
LINE
  5
10D
330
1F
100
AcDbEntity
  8
0
 62
     0
100
AcDbLine
 10
207.0
 20
0.0
 30
0.0
 11
207.0
 21
0.0
 31
34.99999999999998
  0
ARC
  5
10E
330
1F
100
AcDbEntity
  8
0
 62
     0
100
AcDbCircle
 10
207.0
 20
20.00000000000001
 30
34.99999999999998
 40
20.00000000000001
100
AcDbArc
 50
180.0
 51
270.0
  0
LINE
  5
10F
330
1F
100
AcDbEntity
  8
0
 62
     0
100
AcDbLine
 10
201.8236190979496
 20
0.6814834742186576
 30
0.0
 11
201.8236190979496
 21
0.6814834742186576
 31
34.99999999999998
  0
ARC
  5
110
330
1F
100
AcDbEntity
  8
0
 62
     0
100
AcDbCircle
 10
207.0
 20
100.0
 30
0.0
 40
19.99999999999999
100
AcDbArc
 50
90.0
 51
180.0
  0
LINE
  5
111
330
1F
100
AcDbEntity
  8
0
 62
     0
100
AcDbLine
 10
187.0
 20
100.0
 30
0.0
 11
187.0
 21
100.0
 31
34.99999999999998
  0
ARC
  5
112
330
1F
100
AcDbEntity
  8
0
 62
     0
100
AcDbCircle
 10
207.0
 20
100.0
 30
34.99999999999998
 40
19.99999999999999
100
AcDbArc
 50
90.0
 51
180.0
  0
LINE
  5
113
330
1F
100
AcDbEntity
  8
0
 62
     0
100
AcDbLine
 10
187.6814834742187
 20
105.1763809020504
 30
0.0
 11
187.6814834742187
 21
105.1763809020504
 31
34.99999999999998
  0
ARC
  5
114
330
1F
100
AcDbEntity
  8
0
 62
     0
100
AcDbCircle
 10
347.0000000000001
 20
100.0
 30
0.0
 40
20.00000000000001
100
AcDbArc
 50
0.0
 51
90.0
  0
LINE
  5
115
330
1F
100
AcDbEntity
  8
0
 62
     0
100
AcDbLine
 10
366.3185165257814
 20
105.1763809020504
 30
0.0
 11
366.3185165257814
 21
105.1763809020504
 31
34.99999999999998
  0
ARC
  5
116
330
1F
100
AcDbEntity
  8
0
 62
     0
100
AcDbCircle
 10
347.0000000000001
 20
100.0
 30
34.99999999999998
 40
20.00000000000001
100
AcDbArc
 50
0.0
 51
90.0
  0
LINE
  5
117
330
1F
100
AcDbEntity
  8
0
 62
     0
100
AcDbLine
 10
367.0
 20
100.0
 30
0.0
 11
367.0
 21
100.0
 31
34.99999999999998
  0
ARC
  5
118
330
1F
100
AcDbEntity
  8
0
 62
     0
100
AcDbCircle
 10
347.0000000000001
 20
100.0
 30
0.0
 40
20.00000000000001
100
AcDbArc
 50
0.0
 51
90.0
  0
LINE
  5
119
330
1F
100
AcDbEntity
  8
0
 62
     0
100
AcDbLine
 10
352.1763809020504
 20
119.3185165257813
 30
0.0
 11
352.1763809020504
 21
119.3185165257813
 31
34.99999999999998
  0
ARC
  5
11A
330
1F
100
AcDbEntity
  8
0
 62
     0
100
AcDbCircle
 10
347.0000000000001
 20
100.0
 30
34.99999999999998
 40
20.00000000000001
100
AcDbArc
 50
0.0
 51
90.0
  0
LINE
  5
11B
330
1F
100
AcDbEntity
  8
0
 62
     0
100
AcDbLine
 10
357.0
 20
117.3205080756888
 30
0.0
 11
357.0
 21
117.3205080756888
 31
34.99999999999998
  0
ARC
  5
11C
330
1F
100
AcDbEntity
  8
0
 62
     0
100
AcDbCircle
 10
347.0000000000001
 20
20.00000000000001
 30
0.0
 40
20.00000000000001
100
AcDbArc
 50
270.0
 51
0.0
  0
LINE
  5
11D
330
1F
100
AcDbEntity
  8
0
 62
     0
100
AcDbLine
 10
352.1763809020504
 20
0.6814834742186124
 30
0.0
 11
352.1763809020504
 21
0.6814834742186124
 31
34.99999999999998
  0
ARC
  5
11E
330
1F
100
AcDbEntity
  8
0
 62
     0
100
AcDbCircle
 10
347.0000000000001
 20
20.00000000000001
 30
34.99999999999998
 40
20.00000000000001
100
AcDbArc
 50
270.0
 51
0.0
  0
LINE
  5
11F
330
1F
100
AcDbEntity
  8
0
 62
     0
100
AcDbLine
 10
347.0000000000001
 20
0.0
 30
0.0
 11
347.0000000000001
 21
0.0
 31
34.99999999999998
  0
ARC
  5
120
330
1F
100
AcDbEntity
  8
0
 62
     0
100
AcDbCircle
 10
347.0000000000001
 20
20.00000000000001
 30
0.0
 40
20.00000000000001
100
AcDbArc
 50
270.0
 51
0.0
  0
LINE
  5
121
330
1F
100
AcDbEntity
  8
0
 62
     0
100
AcDbLine
 10
367.0
 20
20.00000000000001
 30
0.0
 11
367.0
 21
20.00000000000001
 31
34.99999999999998
  0
ARC
  5
122
330
1F
100
AcDbEntity
  8
0
 62
     0
100
AcDbCircle
 10
347.0000000000001
 20
20.00000000000001
 30
34.99999999999998
 40
20.00000000000001
100
AcDbArc
 50
270.0
 51
0.0
  0
LINE
  5
123
330
1F
100
AcDbEntity
  8
0
 62
     0
100
AcDbLine
 10
366.3185165257814
 20
14.8236190979496
 30
0.0
 11
366.3185165257814
 21
14.8236190979496
 31
34.99999999999998
  0
LINE
  5
124
330
1F
100
AcDbEntity
  8
0
 62
     0
100
AcDbLine
 10
187.0
 20
100.0
 30
0.0
 11
187.0
 21
20.00000000000001
 31
0.0
  0
LINE
  5
125
330
1F
100
AcDbEntity
  8
0
 62
     0
100
AcDbLine
 10
187.0
 20
20.00000000000001
 30
0.0
 11
187.0
 21
20.00000000000001
 31
34.99999999999998
  0
LINE
  5
126
330
1F
100
AcDbEntity
  8
0
 62
     0
100
AcDbLine
 10
187.0
 20
100.0
 30
34.99999999999998
 11
187.0
 21
20.00000000000001
 31
34.99999999999998
  0
LINE
  5
127
330
1F
100
AcDbEntity
  8
0
 62
     0
100
AcDbLine
 10
187.0
 20
100.0
 30
0.0
 11
187.0
 21
100.0
 31
34.99999999999998
  0
LINE
  5
128
330
1F
100
AcDbEntity
  8
0
 62
     0
100
AcDbLine
 10
207.0
 20
0.0
 30
0.0
 11
347.0000000000001
 21
0.0
 31
0.0
  0
LINE
  5
129
330
1F
100
AcDbEntity
  8
0
 62
     0
100
AcDbLine
 10
347.0000000000001
 20
0.0
 30
0.0
 11
347.0000000000001
 21
0.0
 31
34.99999999999998
  0
LINE
  5
12A
330
1F
100
AcDbEntity
  8
0
 62
     0
100
AcDbLine
 10
207.0
 20
0.0
 30
34.99999999999998
 11
347.0000000000001
 21
0.0
 31
34.99999999999998
  0
LINE
  5
12B
330
1F
100
AcDbEntity
  8
0
 62
     0
100
AcDbLine
 10
207.0
 20
0.0
 30
0.0
 11
207.0
 21
0.0
 31
34.99999999999998
  0
LINE
  5
12C
330
1F
100
AcDbEntity
  8
0
 62
     0
100
AcDbLine
 10
347.0000000000001
 20
120.0
 30
0.0
 11
207.0
 21
120.0
 31
0.0
  0
LINE
  5
12D
330
1F
100
AcDbEntity
  8
0
 62
     0
100
AcDbLine
 10
207.0
 20
120.0
 30
0.0
 11
207.0
 21
120.0
 31
34.99999999999998
  0
LINE
  5
12E
330
1F
100
AcDbEntity
  8
0
 62
     0
100
AcDbLine
 10
347.0000000000001
 20
120.0
 30
34.99999999999998
 11
207.0
 21
120.0
 31
34.99999999999998
  0
LINE
  5
12F
330
1F
100
AcDbEntity
  8
0
 62
     0
100
AcDbLine
 10
347.0000000000001
 20
120.0
 30
0.0
 11
347.0000000000001
 21
120.0
 31
34.99999999999998
  0
ARC
  5
130
330
1F
100
AcDbEntity
  8
0
 62
     0
100
AcDbCircle
 10
207.0
 20
20.00000000000001
 30
0.0
 40
20.00000000000001
100
AcDbArc
 50
180.0
 51
270.0
  0
LINE
  5
131
330
1F
100
AcDbEntity
  8
0
 62
     0
100
AcDbLine
 10
189.6794919243112
 20
10.00000000000003
 30
0.0
 11
189.6794919243112
 21
10.00000000000003
 31
34.99999999999998
  0
ARC
  5
132
330
1F
100
AcDbEntity
  8
0
 62
     0
100
AcDbCircle
 10
207.0
 20
20.00000000000001
 30
34.99999999999998
 40
20.00000000000001
100
AcDbArc
 50
180.0
 51
270.0
  0
LINE
  5
133
330
1F
100
AcDbEntity
  8
0
 62
     0
100
AcDbLine
 10
187.6814834742187
 20
14.8236190979496
 30
0.0
 11
187.6814834742187
 21
14.8236190979496
 31
34.99999999999998
  0
LINE
  5
134
330
1F
100
AcDbEntity
  8
0
 62
     0
100
AcDbLine
 10
367.0
 20
20.00000000000001
 30
0.0
 11
367.0
 21
100.0
 31
0.0
  0
LINE
  5
135
330
1F
100
AcDbEntity
  8
0
 62
     0
100
AcDbLine
 10
367.0
 20
100.0
 30
0.0
 11
367.0
 21
100.0
 31
34.99999999999998
  0
LINE
  5
136
330
1F
100
AcDbEntity
  8
0
 62
     0
100
AcDbLine
 10
367.0
 20
20.00000000000001
 30
34.99999999999998
 11
367.0
 21
100.0
 31
34.99999999999998
  0
LINE
  5
137
330
1F
100
AcDbEntity
  8
0
 62
     0
100
AcDbLine
 10
367.0
 20
20.00000000000001
 30
0.0
 11
367.0
 21
20.00000000000001
 31
34.99999999999998
  0
ARC
  5
138
330
1F
100
AcDbEntity
  8
0
 62
     0
100
AcDbCircle
 10
207.0
 20
20.00000000000001
 30
0.0
 40
20.00000000000001
100
AcDbArc
 50
180.0
 51
270.0
  0
LINE
  5
139
330
1F
100
AcDbEntity
  8
0
 62
     0
100
AcDbLine
 10
201.8236190979496
 20
0.6814834742186576
 30
0.0
 11
201.8236190979496
 21
0.6814834742186576
 31
34.99999999999998
  0
ARC
  5
13A
330
1F
100
AcDbEntity
  8
0
 62
     0
100
AcDbCircle
 10
207.0
 20
20.00000000000001
 30
34.99999999999998
 40
20.00000000000001
100
AcDbArc
 50
180.0
 51
270.0
  0
LINE
  5
13B
330
1F
100
AcDbEntity
  8
0
 62
     0
100
AcDbLine
 10
197.0
 20
2.679491924311248
 30
0.0
 11
197.0
 21
2.679491924311248
 31
34.99999999999998
  0
ARC
  5
13C
330
1F
100
AcDbEntity
  8
0
 62
     0
100
AcDbCircle
 10
207.0
 20
20.00000000000001
 30
0.0
 40
20.00000000000001
100
AcDbArc
 50
180.0
 51
270.0
  0
LINE
  5
13D
330
1F
100
AcDbEntity
  8
0
 62
     0
100
AcDbLine
 10
197.0
 20
2.679491924311248
 30
0.0
 11
197.0
 21
2.679491924311248
 31
34.99999999999998
  0
ARC
  5
13E
330
1F
100
AcDbEntity
  8
0
 62
     0
100
AcDbCircle
 10
207.0
 20
20.00000000000001
 30
34.99999999999998
 40
20.00000000000001
100
AcDbArc
 50
180.0
 51
270.0
  0
LINE
  5
13F
330
1F
100
AcDbEntity
  8
0
 62
     0
100
AcDbLine
 10
192.8578643762691
 20
5.857864376269068
 30
0.0
 11
192.8578643762691
 21
5.857864376269068
 31
34.99999999999998
  0
ARC
  5
140
330
1F
100
AcDbEntity
  8
0
 62
     0
100
AcDbCircle
 10
347.0000000000001
 20
20.00000000000001
 30
0.0
 40
20.00000000000001
100
AcDbArc
 50
270.0
 51
0.0
  0
LINE
  5
141
330
1F
100
AcDbEntity
  8
0
 62
     0
100
AcDbLine
 10
361.142135623731
 20
5.857864376269068
 30
0.0
 11
361.142135623731
 21
5.857864376269068
 31
34.99999999999998
  0
ARC
  5
142
330
1F
100
AcDbEntity
  8
0
 62
     0
100
AcDbCircle
 10
347.0000000000001
 20
20.00000000000001
 30
34.99999999999998
 40
20.00000000000001
100
AcDbArc
 50
270.0
 51
0.0
  0
LINE
  5
143
330
1F
100
AcDbEntity
  8
0
 62
     0
100
AcDbLine
 10
357.0
 20
2.679491924311248
 30
0.0
 11
357.0
 21
2.679491924311248
 31
34.99999999999998
  0
ARC
  5
144
330
1F
100
AcDbEntity
  8
0
 62
     0
100
AcDbCircle
 10
347.0000000000001
 20
100.0
 30
0.0
 40
20.00000000000001
100
AcDbArc
 50
0.0
 51
90.0
  0
LINE
  5
145
330
1F
100
AcDbEntity
  8
0
 62
     0
100
AcDbLine
 10
347.0000000000001
 20
120.0
 30
0.0
 11
347.0000000000001
 21
120.0
 31
34.99999999999998
  0
ARC
  5
146
330
1F
100
AcDbEntity
  8
0
 62
     0
100
AcDbCircle
 10
347.0000000000001
 20
100.0
 30
34.99999999999998
 40
20.00000000000001
100
AcDbArc
 50
0.0
 51
90.0
  0
LINE
  5
147
330
1F
100
AcDbEntity
  8
0
 62
     0
100
AcDbLine
 10
352.1763809020504
 20
119.3185165257813
 30
0.0
 11
352.1763809020504
 21
119.3185165257813
 31
34.99999999999998
  0
ARC
  5
148
330
1F
100
AcDbEntity
  8
0
 62
     0
100
AcDbCircle
 10
347.0000000000001
 20
100.0
 30
0.0
 40
20.00000000000001
100
AcDbArc
 50
0.0
 51
90.0
  0
LINE
  5
149
330
1F
100
AcDbEntity
  8
0
 62
     0
100
AcDbLine
 10
357.0
 20
117.3205080756888
 30
0.0
 11
357.0
 21
117.3205080756888
 31
34.99999999999998
  0
ARC
  5
14A
330
1F
100
AcDbEntity
  8
0
 62
     0
100
AcDbCircle
 10
347.0000000000001
 20
100.0
 30
34.99999999999998
 40
20.00000000000001
100
AcDbArc
 50
0.0
 51
90.0
  0
LINE
  5
14B
330
1F
100
AcDbEntity
  8
0
 62
     0
100
AcDbLine
 10
361.142135623731
 20
114.1421356237309
 30
0.0
 11
361.142135623731
 21
114.1421356237309
 31
34.99999999999998
  0
ARC
  5
14C
330
1F
100
AcDbEntity
  8
0
 62
     0
100
AcDbCircle
 10
347.0000000000001
 20
20.00000000000001
 30
0.0
 40
20.00000000000001
100
AcDbArc
 50
270.0
 51
0.0
  0
LINE
  5
14D
330
1F
100
AcDbEntity
  8
0
 62
     0
100
AcDbLine
 10
357.0
 20
2.679491924311248
 30
0.0
 11
357.0
 21
2.679491924311248
 31
34.99999999999998
  0
ARC
  5
14E
330
1F
100
AcDbEntity
  8
0
 62
     0
100
AcDbCircle
 10
347.0000000000001
 20
20.00000000000001
 30
34.99999999999998
 40
20.00000000000001
100
AcDbArc
 50
270.0
 51
0.0
  0
LINE
  5
14F
330
1F
100
AcDbEntity
  8
0
 62
     0
100
AcDbLine
 10
352.1763809020504
 20
0.6814834742186124
 30
0.0
 11
352.1763809020504
 21
0.6814834742186124
 31
34.99999999999998
  0
ARC
  5
150
330
1F
100
AcDbEntity
  8
0
 62
     0
100
AcDbCircle
 10
347.0000000000001
 20
100.0
 30
0.0
 40
20.00000000000001
100
AcDbArc
 50
0.0
 51
90.0
  0
LINE
  5
151
330
1F
100
AcDbEntity
  8
0
 62
     0
100
AcDbLine
 10
364.3205080756888
 20
110.0
 30
0.0
 11
364.3205080756888
 21
110.0
 31
34.99999999999998
  0
ARC
  5
152
330
1F
100
AcDbEntity
  8
0
 62
     0
100
AcDbCircle
 10
347.0000000000001
 20
100.0
 30
34.99999999999998
 40
20.00000000000001
100
AcDbArc
 50
0.0
 51
90.0
  0
LINE
  5
153
330
1F
100
AcDbEntity
  8
0
 62
     0
100
AcDbLine
 10
366.3185165257814
 20
105.1763809020504
 30
0.0
 11
366.3185165257814
 21
105.1763809020504
 31
34.99999999999998
  0
ARC
  5
154
330
1F
100
AcDbEntity
  8
0
 62
     0
100
AcDbCircle
 10
207.0
 20
20.00000000000001
 30
0.0
 40
20.00000000000001
100
AcDbArc
 50
180.0
 51
270.0
  0
LINE
  5
155
330
1F
100
AcDbEntity
  8
0
 62
     0
100
AcDbLine
 10
187.6814834742187
 20
14.8236190979496
 30
0.0
 11
187.6814834742187
 21
14.8236190979496
 31
34.99999999999998
  0
ARC
  5
156
330
1F
100
AcDbEntity
  8
0
 62
     0
100
AcDbCircle
 10
207.0
 20
20.00000000000001
 30
34.99999999999998
 40
20.00000000000001
100
AcDbArc
 50
180.0
 51
270.0
  0
LINE
  5
157
330
1F
100
AcDbEntity
  8
0
 62
     0
100
AcDbLine
 10
187.0
 20
20.00000000000001
 30
0.0
 11
187.0
 21
20.00000000000001
 31
34.99999999999998
  0
ARC
  5
158
330
1F
100
AcDbEntity
  8
0
 62
     0
100
AcDbCircle
 10
347.0000000000001
 20
20.00000000000001
 30
0.0
 40
20.00000000000001
100
AcDbArc
 50
270.0
 51
0.0
  0
LINE
  5
159
330
1F
100
AcDbEntity
  8
0
 62
     0
100
AcDbLine
 10
364.3205080756888
 20
9.999999999999982
 30
0.0
 11
364.3205080756888
 21
9.999999999999982
 31
34.99999999999998
  0
ARC
  5
15A
330
1F
100
AcDbEntity
  8
0
 62
     0
100
AcDbCircle
 10
347.0000000000001
 20
20.00000000000001
 30
34.99999999999998
 40
20.00000000000001
100
AcDbArc
 50
270.0
 51
0.0
  0
LINE
  5
15B
330
1F
100
AcDbEntity
  8
0
 62
     0
100
AcDbLine
 10
361.142135623731
 20
5.857864376269068
 30
0.0
 11
361.142135623731
 21
5.857864376269068
 31
34.99999999999998
  0
ARC
  5
15C
330
1F
100
AcDbEntity
  8
0
 62
     0
100
AcDbCircle
 10
207.0
 20
100.0
 30
0.0
 40
19.99999999999999
100
AcDbArc
 50
90.0
 51
180.0
  0
LINE
  5
15D
330
1F
100
AcDbEntity
  8
0
 62
     0
100
AcDbLine
 10
192.8578643762691
 20
114.1421356237309
 30
0.0
 11
192.8578643762691
 21
114.1421356237309
 31
34.99999999999998
  0
ARC
  5
15E
330
1F
100
AcDbEntity
  8
0
 62
     0
100
AcDbCircle
 10
207.0
 20
100.0
 30
34.99999999999998
 40
19.99999999999999
100
AcDbArc
 50
90.0
 51
180.0
  0
LINE
  5
15F
330
1F
100
AcDbEntity
  8
0
 62
     0
100
AcDbLine
 10
197.0
 20
117.3205080756888
 30
0.0
 11
197.0
 21
117.3205080756888
 31
34.99999999999998
  0
ARC
  5
160
330
1F
100
AcDbEntity
  8
0
 62
     0
100
AcDbCircle
 10
207.0
 20
100.0
 30
0.0
 40
19.99999999999999
100
AcDbArc
 50
90.0
 51
180.0
  0
LINE
  5
161
330
1F
100
AcDbEntity
  8
0
 62
     0
100
AcDbLine
 10
201.8236190979496
 20
119.3185165257813
 30
0.0
 11
201.8236190979496
 21
119.3185165257813
 31
34.99999999999998
  0
ARC
  5
162
330
1F
100
AcDbEntity
  8
0
 62
     0
100
AcDbCircle
 10
207.0
 20
100.0
 30
34.99999999999998
 40
19.99999999999999
100
AcDbArc
 50
90.0
 51
180.0
  0
LINE
  5
163
330
1F
100
AcDbEntity
  8
0
 62
     0
100
AcDbLine
 10
207.0
 20
120.0
 30
0.0
 11
207.0
 21
120.0
 31
34.99999999999998
  0
ARC
  5
164
330
1F
100
AcDbEntity
  8
0
 62
     0
100
AcDbCircle
 10
207.0
 20
100.0
 30
0.0
 40
19.99999999999999
100
AcDbArc
 50
90.0
 51
180.0
  0
LINE
  5
165
330
1F
100
AcDbEntity
  8
0
 62
     0
100
AcDbLine
 10
189.6794919243112
 20
110.0
 30
0.0
 11
189.6794919243112
 21
110.0
 31
34.99999999999998
  0
ARC
  5
166
330
1F
100
AcDbEntity
  8
0
 62
     0
100
AcDbCircle
 10
207.0
 20
100.0
 30
34.99999999999998
 40
19.99999999999999
100
AcDbArc
 50
90.0
 51
180.0
  0
LINE
  5
167
330
1F
100
AcDbEntity
  8
0
 62
     0
100
AcDbLine
 10
192.8578643762691
 20
114.1421356237309
 30
0.0
 11
192.8578643762691
 21
114.1421356237309
 31
34.99999999999998
  0
ARC
  5
168
330
1F
100
AcDbEntity
  8
0
 62
     0
100
AcDbCircle
 10
207.0
 20
20.00000000000001
 30
0.0
 40
20.00000000000001
100
AcDbArc
 50
180.0
 51
270.0
  0
LINE
  5
169
330
1F
100
AcDbEntity
  8
0
 62
     0
100
AcDbLine
 10
192.8578643762691
 20
5.857864376269068
 30
0.0
 11
192.8578643762691
 21
5.857864376269068
 31
34.99999999999998
  0
ARC
  5
16A
330
1F
100
AcDbEntity
  8
0
 62
     0
100
AcDbCircle
 10
207.0
 20
20.00000000000001
 30
34.99999999999998
 40
20.00000000000001
100
AcDbArc
 50
180.0
 51
270.0
  0
LINE
  5
16B
330
1F
100
AcDbEntity
  8
0
 62
     0
100
AcDbLine
 10
189.6794919243112
 20
10.00000000000003
 30
0.0
 11
189.6794919243112
 21
10.00000000000003
 31
34.99999999999998
  0
ARC
  5
16C
330
1F
100
AcDbEntity
  8
0
 62
     0
100
AcDbCircle
 10
207.0
 20
100.0
 30
0.0
 40
19.99999999999999
100
AcDbArc
 50
90.0
 51
180.0
  0
LINE
  5
16D
330
1F
100
AcDbEntity
  8
0
 62
     0
100
AcDbLine
 10
197.0
 20
117.3205080756888
 30
0.0
 11
197.0
 21
117.3205080756888
 31
34.99999999999998
  0
ARC
  5
16E
330
1F
100
AcDbEntity
  8
0
 62
     0
100
AcDbCircle
 10
207.0
 20
100.0
 30
34.99999999999998
 40
19.99999999999999
100
AcDbArc
 50
90.0
 51
180.0
  0
LINE
  5
16F
330
1F
100
AcDbEntity
  8
0
 62
     0
100
AcDbLine
 10
201.8236190979496
 20
119.3185165257813
 30
0.0
 11
201.8236190979496
 21
119.3185165257813
 31
34.99999999999998
  0
ARC
  5
170
330
1F
100
AcDbEntity
  8
0
 62
     0
100
AcDbCircle
 10
207.0
 20
100.0
 30
0.0
 40
4.999999999999989
100
AcDbArc
 50
90.0
 51
180.0
  0
LINE
  5
171
330
1F
100
AcDbEntity
  8
0
 62
     0
100
AcDbLine
 10
202.0
 20
20.00000000000001
 30
0.0
 11
202.0
 21
100.0
 31
0.0
  0
ARC
  5
172
330
1F
100
AcDbEntity
  8
0
 62
     0
100
AcDbCircle
 10
207.0
 20
20.00000000000001
 30
0.0
 40
4.999999999999991
100
AcDbArc
 50
180.0
 51
270.0000000000005
  0
LINE
  5
173
330
1F
100
AcDbEntity
  8
0
 62
     0
100
AcDbLine
 10
347.0000000000001
 20
15.00000000000002
 30
0.0
 11
207.0000000000001
 21
15.00000000000002
 31
0.0
  0
ARC
  5
174
330
1F
100
AcDbEntity
  8
0
 62
     0
100
AcDbCircle
 10
347.0000000000001
 20
20.00000000000001
 30
0.0
 40
4.999999999999991
100
AcDbArc
 50
270.0
 51
0.0
  0
LINE
  5
175
330
1F
100
AcDbEntity
  8
0
 62
     0
100
AcDbLine
 10
352.0
 20
100.0
 30
0.0
 11
352.0
 21
20.00000000000001
 31
0.0
  0
ARC
  5
176
330
1F
100
AcDbEntity
  8
0
 62
     0
100
AcDbCircle
 10
347.0000000000001
 20
100.0
 30
0.0
 40
4.999999999999991
100
AcDbArc
 50
0.0
 51
90.0
  0
LINE
  5
177
330
1F
100
AcDbEntity
  8
0
 62
     0
100
AcDbLine
 10
207.0
 20
105.0
 30
0.0
 11
347.0000000000001
 21
105.0
 31
0.0
  0
LINE
  5
178
330
1F
100
AcDbEntity
  8
0
 62
     0
100
AcDbLine
 10
207.0
 20
95.0
 30
0.0
 11
207.0
 21
25.0
 31
0.0
  0
ARC
  5
179
330
1F
100
AcDbEntity
  8
0
 62
     0
100
AcDbCircle
 10
212.0
 20
95.0
 30
0.0
 40
4.999999999999991
100
AcDbArc
 50
90.0
 51
180.0
  0
LINE
  5
17A
330
1F
100
AcDbEntity
  8
0
 62
     0
100
AcDbLine
 10
212.0
 20
100.0
 30
0.0
 11
342.0
 21
100.0
 31
0.0
  0
ARC
  5
17B
330
1F
100
AcDbEntity
  8
0
 62
     0
100
AcDbCircle
 10
342.0
 20
95.0
 30
0.0
 40
5.000000000000009
100
AcDbArc
 50
0.0
 51
90.0
  0
LINE
  5
17C
330
1F
100
AcDbEntity
  8
0
 62
     0
100
AcDbLine
 10
347.0000000000001
 20
95.0
 30
0.0
 11
347.0000000000001
 21
25.0
 31
0.0
  0
ARC
  5
17D
330
1F
100
AcDbEntity
  8
0
 62
     0
100
AcDbCircle
 10
342.0
 20
25.0
 30
0.0
 40
4.999999999999991
100
AcDbArc
 50
270.0
 51
0.0
  0
LINE
  5
17E
330
1F
100
AcDbEntity
  8
0
 62
     0
100
AcDbLine
 10
342.0
 20
20.00000000000001
 30
0.0
 11
212.0
 21
20.00000000000001
 31
0.0
  0
ARC
  5
17F
330
1F
100
AcDbEntity
  8
0
 62
     0
100
AcDbCircle
 10
212.0
 20
25.0
 30
0.0
 40
4.999999999999991
100
AcDbArc
 50
180.0
 51
270.0
  0
LINE
  5
180
330
1F
100
AcDbEntity
  8
0
 62
     0
100
AcDbLine
 10
347.0000000000001
 20
120.0
 30
34.99999999999998
 11
207.0
 21
120.0
 31
34.99999999999998
  0
ARC
  5
181
330
1F
100
AcDbEntity
  8
0
 62
     0
100
AcDbCircle
 10
207.0
 20
100.0
 30
34.99999999999998
 40
19.99999999999999
100
AcDbArc
 50
90.0
 51
180.0
  0
LINE
  5
182
330
1F
100
AcDbEntity
  8
0
 62
     0
100
AcDbLine
 10
187.0
 20
100.0
 30
34.99999999999998
 11
187.0
 21
20.00000000000001
 31
34.99999999999998
  0
ARC
  5
183
330
1F
100
AcDbEntity
  8
0
 62
     0
100
AcDbCircle
 10
207.0
 20
20.00000000000001
 30
34.99999999999998
 40
20.00000000000001
100
AcDbArc
 50
180.0
 51
270.0
  0
LINE
  5
184
330
1F
100
AcDbEntity
  8
0
 62
     0
100
AcDbLine
 10
207.0
 20
0.0
 30
34.99999999999998
 11
347.0000000000001
 21
0.0
 31
34.99999999999998
  0
ARC
  5
185
330
1F
100
AcDbEntity
  8
0
 62
     0
100
AcDbCircle
 10
347.0000000000001
 20
20.00000000000001
 30
34.99999999999998
 40
20.00000000000001
100
AcDbArc
 50
270.0
 51
0.0
  0
LINE
  5
186
330
1F
100
AcDbEntity
  8
0
 62
     0
100
AcDbLine
 10
367.0
 20
20.00000000000001
 30
34.99999999999998
 11
367.0
 21
100.0
 31
34.99999999999998
  0
ARC
  5
187
330
1F
100
AcDbEntity
  8
0
 62
     0
100
AcDbCircle
 10
347.0000000000001
 20
100.0
 30
34.99999999999998
 40
20.00000000000001
100
AcDbArc
 50
0.0
 51
90.0
  0
LINE
  5
188
330
1F
100
AcDbEntity
  8
0
 62
     0
100
AcDbLine
 10
207.0
 20
95.0
 30
34.99999999999998
 11
207.0
 21
25.0
 31
34.99999999999998
  0
ARC
  5
189
330
1F
100
AcDbEntity
  8
0
 62
     0
100
AcDbCircle
 10
212.0
 20
95.0
 30
34.99999999999998
 40
4.999999999999991
100
AcDbArc
 50
90.0
 51
180.0
  0
LINE
  5
18A
330
1F
100
AcDbEntity
  8
0
 62
     0
100
AcDbLine
 10
212.0
 20
100.0
 30
34.99999999999998
 11
342.0
 21
100.0
 31
34.99999999999998
  0
ARC
  5
18B
330
1F
100
AcDbEntity
  8
0
 62
     0
100
AcDbCircle
 10
342.0
 20
95.0
 30
34.99999999999998
 40
5.000000000000009
100
AcDbArc
 50
0.0
 51
90.0
  0
LINE
  5
18C
330
1F
100
AcDbEntity
  8
0
 62
     0
100
AcDbLine
 10
347.0000000000001
 20
95.0
 30
34.99999999999998
 11
347.0000000000001
 21
25.0
 31
34.99999999999998
  0
ARC
  5
18D
330
1F
100
AcDbEntity
  8
0
 62
     0
100
AcDbCircle
 10
342.0
 20
25.0
 30
34.99999999999998
 40
4.999999999999991
100
AcDbArc
 50
270.0
 51
0.0
  0
LINE
  5
18E
330
1F
100
AcDbEntity
  8
0
 62
     0
100
AcDbLine
 10
342.0
 20
20.00000000000001
 30
34.99999999999998
 11
212.0
 21
20.00000000000001
 31
34.99999999999998
  0
ARC
  5
18F
330
1F
100
AcDbEntity
  8
0
 62
     0
100
AcDbCircle
 10
212.0
 20
25.0
 30
34.99999999999998
 40
4.999999999999991
100
AcDbArc
 50
180.0
 51
270.0
  0
ARC
  5
190
330
1F
100
AcDbEntity
  8
0
 62
     0
100
AcDbCircle
 10
212.0
 20
25.0
 30
0.0
 40
4.999999999999991
100
AcDbArc
 50
180.0
 51
270.0
  0
LINE
  5
191
330
1F
100
AcDbEntity
  8
0
 62
     0
100
AcDbLine
 10
207.1703708685547
 20
23.70590477448742
 30
0.0
 11
207.1703708685547
 21
23.70590477448742
 31
34.99999999999998
  0
ARC
  5
192
330
1F
100
AcDbEntity
  8
0
 62
     0
100
AcDbCircle
 10
212.0
 20
25.0
 30
34.99999999999998
 40
4.999999999999991
100
AcDbArc
 50
180.0
 51
270.0
  0
LINE
  5
193
330
1F
100
AcDbEntity
  8
0
 62
     0
100
AcDbLine
 10
207.6698729810778
 20
22.50000000000002
 30
0.0
 11
207.6698729810778
 21
22.50000000000002
 31
34.99999999999998
  0
ARC
  5
194
330
1F
100
AcDbEntity
  8
0
 62
     0
100
AcDbCircle
 10
207.0
 20
100.0
 30
0.0
 40
19.99999999999999
100
AcDbArc
 50
90.0
 51
180.0
  0
LINE
  5
195
330
1F
100
AcDbEntity
  8
0
 62
     0
100
AcDbLine
 10
187.6814834742187
 20
105.1763809020504
 30
0.0
 11
187.6814834742187
 21
105.1763809020504
 31
34.99999999999998
  0
ARC
  5
196
330
1F
100
AcDbEntity
  8
0
 62
     0
100
AcDbCircle
 10
207.0
 20
100.0
 30
34.99999999999998
 40
19.99999999999999
100
AcDbArc
 50
90.0
 51
180.0
  0
LINE
  5
197
330
1F
100
AcDbEntity
  8
0
 62
     0
100
AcDbLine
 10
189.6794919243112
 20
110.0
 30
0.0
 11
189.6794919243112
 21
110.0
 31
34.99999999999998
  0
LINE
  5
198
330
1F
100
AcDbEntity
  8
0
 62
     0
100
AcDbLine
 10
212.0
 20
100.0
 30
0.0
 11
342.0
 21
100.0
 31
0.0
  0
LINE
  5
199
330
1F
100
AcDbEntity
  8
0
 62
     0
100
AcDbLine
 10
342.0
 20
100.0
 30
0.0
 11
342.0
 21
100.0
 31
34.99999999999998
  0
LINE
  5
19A
330
1F
100
AcDbEntity
  8
0
 62
     0
100
AcDbLine
 10
212.0
 20
100.0
 30
34.99999999999998
 11
342.0
 21
100.0
 31
34.99999999999998
  0
LINE
  5
19B
330
1F
100
AcDbEntity
  8
0
 62
     0
100
AcDbLine
 10
212.0
 20
100.0
 30
0.0
 11
212.0
 21
100.0
 31
34.99999999999998
  0
ARC
  5
19C
330
1F
100
AcDbEntity
  8
0
 62
     0
100
AcDbCircle
 10
212.0
 20
25.0
 30
0.0
 40
4.999999999999991
100
AcDbArc
 50
180.0
 51
270.0
  0
LINE
  5
19D
330
1F
100
AcDbEntity
  8
0
 62
     0
100
AcDbLine
 10
208.4644660940673
 20
21.46446609406725
 30
0.0
 11
208.4644660940673
 21
21.46446609406725
 31
34.99999999999998
  0
ARC
  5
19E
330
1F
100
AcDbEntity
  8
0
 62
     0
100
AcDbCircle
 10
212.0
 20
25.0
 30
34.99999999999998
 40
4.999999999999991
100
AcDbArc
 50
180.0
 51
270.0
  0
LINE
  5
19F
330
1F
100
AcDbEntity
  8
0
 62
     0
100
AcDbLine
 10
209.5000000000001
 20
20.66987298107783
 30
0.0
 11
209.5000000000001
 21
20.66987298107783
 31
34.99999999999998
  0
ARC
  5
1A0
330
1F
100
AcDbEntity
  8
0
 62
     0
100
AcDbCircle
 10
212.0
 20
95.0
 30
0.0
 40
4.999999999999991
100
AcDbArc
 50
90.0
 51
180.0
  0
LINE
  5
1A1
330
1F
100
AcDbEntity
  8
0
 62
     0
100
AcDbLine
 10
210.7059047744874
 20
99.82962913144533
 30
0.0
 11
210.7059047744874
 21
99.82962913144533
 31
34.99999999999998
  0
ARC
  5
1A2
330
1F
100
AcDbEntity
  8
0
 62
     0
100
AcDbCircle
 10
212.0
 20
95.0
 30
34.99999999999998
 40
4.999999999999991
100
AcDbArc
 50
90.0
 51
180.0
  0
LINE
  5
1A3
330
1F
100
AcDbEntity
  8
0
 62
     0
100
AcDbLine
 10
209.5000000000001
 20
99.33012701892217
 30
0.0
 11
209.5000000000001
 21
99.33012701892217
 31
34.99999999999998
  0
ARC
  5
1A4
330
1F
100
AcDbEntity
  8
0
 62
     0
100
AcDbCircle
 10
342.0
 20
25.0
 30
0.0
 40
4.999999999999991
100
AcDbArc
 50
270.0
 51
0.0
  0
LINE
  5
1A5
330
1F
100
AcDbEntity
  8
0
 62
     0
100
AcDbLine
 10
346.8296291314454
 20
23.70590477448742
 30
0.0
 11
346.8296291314454
 21
23.70590477448742
 31
34.99999999999998
  0
ARC
  5
1A6
330
1F
100
AcDbEntity
  8
0
 62
     0
100
AcDbCircle
 10
342.0
 20
25.0
 30
34.99999999999998
 40
4.999999999999991
100
AcDbArc
 50
270.0
 51
0.0
  0
LINE
  5
1A7
330
1F
100
AcDbEntity
  8
0
 62
     0
100
AcDbLine
 10
347.0000000000001
 20
25.0
 30
0.0
 11
347.0000000000001
 21
25.0
 31
34.99999999999998
  0
LINE
  5
1A8
330
1F
100
AcDbEntity
  8
0
 62
     0
100
AcDbLine
 10
347.0000000000001
 20
120.0
 30
0.0
 11
207.0
 21
120.0
 31
0.0
  0
ARC
  5
1A9
330
1F
100
AcDbEntity
  8
0
 62
     0
100
AcDbCircle
 10
207.0
 20
100.0
 30
0.0
 40
19.99999999999999
100
AcDbArc
 50
90.0
 51
180.0
  0
LINE
  5
1AA
330
1F
100
AcDbEntity
  8
0
 62
     0
100
AcDbLine
 10
187.0
 20
100.0
 30
0.0
 11
187.0
 21
20.00000000000001
 31
0.0
  0
ARC
  5
1AB
330
1F
100
AcDbEntity
  8
0
 62
     0
100
AcDbCircle
 10
207.0
 20
20.00000000000001
 30
0.0
 40
20.00000000000001
100
AcDbArc
 50
180.0
 51
270.0
  0
LINE
  5
1AC
330
1F
100
AcDbEntity
  8
0
 62
     0
100
AcDbLine
 10
207.0
 20
0.0
 30
0.0
 11
347.0000000000001
 21
0.0
 31
0.0
  0
ARC
  5
1AD
330
1F
100
AcDbEntity
  8
0
 62
     0
100
AcDbCircle
 10
347.0000000000001
 20
20.00000000000001
 30
0.0
 40
20.00000000000001
100
AcDbArc
 50
270.0
 51
0.0
  0
LINE
  5
1AE
330
1F
100
AcDbEntity
  8
0
 62
     0
100
AcDbLine
 10
367.0
 20
20.00000000000001
 30
0.0
 11
367.0
 21
100.0
 31
0.0
  0
ARC
  5
1AF
330
1F
100
AcDbEntity
  8
0
 62
     0
100
AcDbCircle
 10
347.0000000000001
 20
100.0
 30
0.0
 40
20.00000000000001
100
AcDbArc
 50
0.0
 51
90.0
  0
LINE
  5
1B0
330
1F
100
AcDbEntity
  8
0
 62
     0
100
AcDbLine
 10
207.0
 20
105.0
 30
0.0
 11
347.0000000000001
 21
105.0
 31
0.0
  0
ARC
  5
1B1
330
1F
100
AcDbEntity
  8
0
 62
     0
100
AcDbCircle
 10
347.0000000000001
 20
100.0
 30
0.0
 40
4.999999999999991
100
AcDbArc
 50
0.0
 51
90.0
  0
LINE
  5
1B2
330
1F
100
AcDbEntity
  8
0
 62
     0
100
AcDbLine
 10
352.0
 20
100.0
 30
0.0
 11
352.0
 21
20.00000000000001
 31
0.0
  0
ARC
  5
1B3
330
1F
100
AcDbEntity
  8
0
 62
     0
100
AcDbCircle
 10
347.0000000000001
 20
20.00000000000001
 30
0.0
 40
4.999999999999991
100
AcDbArc
 50
270.0
 51
0.0
  0
LINE
  5
1B4
330
1F
100
AcDbEntity
  8
0
 62
     0
100
AcDbLine
 10
347.0000000000001
 20
15.00000000000002
 30
0.0
 11
207.0000000000001
 21
15.00000000000002
 31
0.0
  0
ARC
  5
1B5
330
1F
100
AcDbEntity
  8
0
 62
     0
100
AcDbCircle
 10
207.0
 20
20.00000000000001
 30
0.0
 40
4.999999999999991
100
AcDbArc
 50
180.0
 51
270.0000000000005
  0
LINE
  5
1B6
330
1F
100
AcDbEntity
  8
0
 62
     0
100
AcDbLine
 10
202.0
 20
20.00000000000001
 30
0.0
 11
202.0
 21
100.0
 31
0.0
  0
ARC
  5
1B7
330
1F
100
AcDbEntity
  8
0
 62
     0
100
AcDbCircle
 10
207.0
 20
100.0
 30
0.0
 40
4.999999999999989
100
AcDbArc
 50
90.0
 51
180.0
  0
ARC
  5
1B8
330
1F
100
AcDbEntity
  8
0
 62
     0
100
AcDbCircle
 10
342.0
 20
95.0
 30
0.0
 40
5.000000000000009
100
AcDbArc
 50
0.0
 51
90.0
  0
LINE
  5
1B9
330
1F
100
AcDbEntity
  8
0
 62
     0
100
AcDbLine
 10
344.5
 20
99.33012701892221
 30
0.0
 11
344.5
 21
99.33012701892221
 31
34.99999999999998
  0
ARC
  5
1BA
330
1F
100
AcDbEntity
  8
0
 62
     0
100
AcDbCircle
 10
342.0
 20
95.0
 30
34.99999999999998
 40
5.000000000000009
100
AcDbArc
 50
0.0
 51
90.0
  0
LINE
  5
1BB
330
1F
100
AcDbEntity
  8
0
 62
     0
100
AcDbLine
 10
343.2940952255126
 20
99.82962913144537
 30
0.0
 11
343.2940952255126
 21
99.82962913144537
 31
34.99999999999998
  0
ARC
  5
1BC
330
1F
100
AcDbEntity
  8
0
 62
     0
100
AcDbCircle
 10
212.0
 20
95.0
 30
0.0
 40
4.999999999999991
100
AcDbArc
 50
90.0
 51
180.0
  0
LINE
  5
1BD
330
1F
100
AcDbEntity
  8
0
 62
     0
100
AcDbLine
 10
209.5000000000001
 20
99.33012701892217
 30
0.0
 11
209.5000000000001
 21
99.33012701892217
 31
34.99999999999998
  0
ARC
  5
1BE
330
1F
100
AcDbEntity
  8
0
 62
     0
100
AcDbCircle
 10
212.0
 20
95.0
 30
34.99999999999998
 40
4.999999999999991
100
AcDbArc
 50
90.0
 51
180.0
  0
LINE
  5
1BF
330
1F
100
AcDbEntity
  8
0
 62
     0
100
AcDbLine
 10
208.4644660940673
 20
98.53553390593275
 30
0.0
 11
208.4644660940673
 21
98.53553390593275
 31
34.99999999999998
  0
ARC
  5
1C0
330
1F
100
AcDbEntity
  8
0
 62
     0
100
AcDbCircle
 10
342.0
 20
95.0
 30
0.0
 40
5.000000000000009
100
AcDbArc
 50
0.0
 51
90.0
  0
LINE
  5
1C1
330
1F
100
AcDbEntity
  8
0
 62
     0
100
AcDbLine
 10
347.0000000000001
 20
95.0
 30
0.0
 11
347.0000000000001
 21
95.0
 31
34.99999999999998
  0
ARC
  5
1C2
330
1F
100
AcDbEntity
  8
0
 62
     0
100
AcDbCircle
 10
342.0
 20
95.0
 30
34.99999999999998
 40
5.000000000000009
100
AcDbArc
 50
0.0
 51
90.0
  0
LINE
  5
1C3
330
1F
100
AcDbEntity
  8
0
 62
     0
100
AcDbLine
 10
346.8296291314454
 20
96.29409522551263
 30
0.0
 11
346.8296291314454
 21
96.29409522551263
 31
34.99999999999998
  0
ARC
  5
1C4
330
1F
100
AcDbEntity
  8
0
 62
     0
100
AcDbCircle
 10
342.0
 20
25.0
 30
0.0
 40
4.999999999999991
100
AcDbArc
 50
270.0
 51
0.0
  0
LINE
  5
1C5
330
1F
100
AcDbEntity
  8
0
 62
     0
100
AcDbLine
 10
345.5355339059327
 20
21.46446609406725
 30
0.0
 11
345.5355339059327
 21
21.46446609406725
 31
34.99999999999998
  0
ARC
  5
1C6
330
1F
100
AcDbEntity
  8
0
 62
     0
100
AcDbCircle
 10
342.0
 20
25.0
 30
34.99999999999998
 40
4.999999999999991
100
AcDbArc
 50
270.0
 51
0.0
  0
LINE
  5
1C7
330
1F
100
AcDbEntity
  8
0
 62
     0
100
AcDbLine
 10
346.3301270189222
 20
22.49999999999998
 30
0.0
 11
346.3301270189222
 21
22.49999999999998
 31
34.99999999999998
  0
ARC
  5
1C8
330
1F
100
AcDbEntity
  8
0
 62
     0
100
AcDbCircle
 10
212.0
 20
25.0
 30
0.0
 40
4.999999999999991
100
AcDbArc
 50
180.0
 51
270.0
  0
LINE
  5
1C9
330
1F
100
AcDbEntity
  8
0
 62
     0
100
AcDbLine
 10
207.0
 20
25.0
 30
0.0
 11
207.0
 21
25.0
 31
34.99999999999998
  0
ARC
  5
1CA
330
1F
100
AcDbEntity
  8
0
 62
     0
100
AcDbCircle
 10
212.0
 20
25.0
 30
34.99999999999998
 40
4.999999999999991
100
AcDbArc
 50
180.0
 51
270.0
  0
LINE
  5
1CB
330
1F
100
AcDbEntity
  8
0
 62
     0
100
AcDbLine
 10
207.1703708685547
 20
23.70590477448742
 30
0.0
 11
207.1703708685547
 21
23.70590477448742
 31
34.99999999999998
  0
ARC
  5
1CC
330
1F
100
AcDbEntity
  8
0
 62
     0
100
AcDbCircle
 10
212.0
 20
25.0
 30
0.0
 40
4.999999999999991
100
AcDbArc
 50
180.0
 51
270.0
  0
LINE
  5
1CD
330
1F
100
AcDbEntity
  8
0
 62
     0
100
AcDbLine
 10
207.6698729810778
 20
22.50000000000002
 30
0.0
 11
207.6698729810778
 21
22.50000000000002
 31
34.99999999999998
  0
ARC
  5
1CE
330
1F
100
AcDbEntity
  8
0
 62
     0
100
AcDbCircle
 10
212.0
 20
25.0
 30
34.99999999999998
 40
4.999999999999991
100
AcDbArc
 50
180.0
 51
270.0
  0
LINE
  5
1CF
330
1F
100
AcDbEntity
  8
0
 62
     0
100
AcDbLine
 10
208.4644660940673
 20
21.46446609406725
 30
0.0
 11
208.4644660940673
 21
21.46446609406725
 31
34.99999999999998
  0
LINE
  5
1D0
330
1F
100
AcDbEntity
  8
0
 62
     0
100
AcDbLine
 10
207.0
 20
95.0
 30
0.0
 11
207.0
 21
25.0
 31
0.0
  0
LINE
  5
1D1
330
1F
100
AcDbEntity
  8
0
 62
     0
100
AcDbLine
 10
207.0
 20
95.0
 30
0.0
 11
207.0
 21
95.0
 31
34.99999999999998
  0
LINE
  5
1D2
330
1F
100
AcDbEntity
  8
0
 62
     0
100
AcDbLine
 10
207.0
 20
95.0
 30
34.99999999999998
 11
207.0
 21
25.0
 31
34.99999999999998
  0
LINE
  5
1D3
330
1F
100
AcDbEntity
  8
0
 62
     0
100
AcDbLine
 10
207.0
 20
25.0
 30
0.0
 11
207.0
 21
25.0
 31
34.99999999999998
  0
ARC
  5
1D4
330
1F
100
AcDbEntity
  8
0
 62
     0
100
AcDbCircle
 10
342.0
 20
95.0
 30
0.0
 40
5.000000000000009
100
AcDbArc
 50
0.0
 51
90.0
  0
LINE
  5
1D5
330
1F
100
AcDbEntity
  8
0
 62
     0
100
AcDbLine
 10
345.5355339059328
 20
98.53553390593275
 30
0.0
 11
345.5355339059328
 21
98.53553390593275
 31
34.99999999999998
  0
ARC
  5
1D6
330
1F
100
AcDbEntity
  8
0
 62
     0
100
AcDbCircle
 10
342.0
 20
95.0
 30
34.99999999999998
 40
5.000000000000009
100
AcDbArc
 50
0.0
 51
90.0
  0
LINE
  5
1D7
330
1F
100
AcDbEntity
  8
0
 62
     0
100
AcDbLine
 10
344.5
 20
99.33012701892221
 30
0.0
 11
344.5
 21
99.33012701892221
 31
34.99999999999998
  0
ARC
  5
1D8
330
1F
100
AcDbEntity
  8
0
 62
     0
100
AcDbCircle
 10
212.0
 20
95.0
 30
0.0
 40
4.999999999999991
100
AcDbArc
 50
90.0
 51
180.0
  0
LINE
  5
1D9
330
1F
100
AcDbEntity
  8
0
 62
     0
100
AcDbLine
 10
207.6698729810778
 20
97.50000000000003
 30
0.0
 11
207.6698729810778
 21
97.50000000000003
 31
34.99999999999998
  0
ARC
  5
1DA
330
1F
100
AcDbEntity
  8
0
 62
     0
100
AcDbCircle
 10
212.0
 20
95.0
 30
34.99999999999998
 40
4.999999999999991
100
AcDbArc
 50
90.0
 51
180.0
  0
LINE
  5
1DB
330
1F
100
AcDbEntity
  8
0
 62
     0
100
AcDbLine
 10
207.1703708685547
 20
96.29409522551263
 30
0.0
 11
207.1703708685547
 21
96.29409522551263
 31
34.99999999999998
  0
LINE
  5
1DC
330
1F
100
AcDbEntity
  8
0
 62
     0
100
AcDbLine
 10
347.0000000000001
 20
95.0
 30
0.0
 11
347.0000000000001
 21
25.0
 31
0.0
  0
LINE
  5
1DD
330
1F
100
AcDbEntity
  8
0
 62
     0
100
AcDbLine
 10
347.0000000000001
 20
25.0
 30
0.0
 11
347.0000000000001
 21
25.0
 31
34.99999999999998
  0
LINE
  5
1DE
330
1F
100
AcDbEntity
  8
0
 62
     0
100
AcDbLine
 10
347.0000000000001
 20
95.0
 30
34.99999999999998
 11
347.0000000000001
 21
25.0
 31
34.99999999999998
  0
LINE
  5
1DF
330
1F
100
AcDbEntity
  8
0
 62
     0
100
AcDbLine
 10
347.0000000000001
 20
95.0
 30
0.0
 11
347.0000000000001
 21
95.0
 31
34.99999999999998
  0
ARC
  5
1E0
330
1F
100
AcDbEntity
  8
0
 62
     0
100
AcDbCircle
 10
212.0
 20
95.0
 30
0.0
 40
4.999999999999991
100
AcDbArc
 50
90.0
 51
180.0
  0
LINE
  5
1E1
330
1F
100
AcDbEntity
  8
0
 62
     0
100
AcDbLine
 10
212.0
 20
100.0
 30
0.0
 11
212.0
 21
100.0
 31
34.99999999999998
  0
ARC
  5
1E2
330
1F
100
AcDbEntity
  8
0
 62
     0
100
AcDbCircle
 10
212.0
 20
95.0
 30
34.99999999999998
 40
4.999999999999991
100
AcDbArc
 50
90.0
 51
180.0
  0
LINE
  5
1E3
330
1F
100
AcDbEntity
  8
0
 62
     0
100
AcDbLine
 10
210.7059047744874
 20
99.82962913144533
 30
0.0
 11
210.7059047744874
 21
99.82962913144533
 31
34.99999999999998
  0
ARC
  5
1E4
330
1F
100
AcDbEntity
  8
0
 62
     0
100
AcDbCircle
 10
212.0
 20
95.0
 30
0.0
 40
4.999999999999991
100
AcDbArc
 50
90.0
 51
180.0
  0
LINE
  5
1E5
330
1F
100
AcDbEntity
  8
0
 62
     0
100
AcDbLine
 10
207.1703708685547
 20
96.29409522551263
 30
0.0
 11
207.1703708685547
 21
96.29409522551263
 31
34.99999999999998
  0
ARC
  5
1E6
330
1F
100
AcDbEntity
  8
0
 62
     0
100
AcDbCircle
 10
212.0
 20
95.0
 30
34.99999999999998
 40
4.999999999999991
100
AcDbArc
 50
90.0
 51
180.0
  0
LINE
  5
1E7
330
1F
100
AcDbEntity
  8
0
 62
     0
100
AcDbLine
 10
207.0
 20
95.0
 30
0.0
 11
207.0
 21
95.0
 31
34.99999999999998
  0
ARC
  5
1E8
330
1F
100
AcDbEntity
  8
0
 62
     0
100
AcDbCircle
 10
25.0
 20
95.0
 30
0.0
 40
4.999999999999991
100
AcDbArc
 50
89.99999999999997
 51
180.0
  0
LINE
  5
1E9
330
1F
100
AcDbEntity
  8
0
 62
     0
100
AcDbLine
 10
20.66987298107782
 20
97.50000000000003
 30
0.0
 11
20.66987298107782
 21
97.50000000000003
 31
30.00000000000001
  0
ARC
  5
1EA
330
1F
100
AcDbEntity
  8
0
 62
     0
100
AcDbCircle
 10
25.0
 20
95.0
 30
30.00000000000001
 40
4.999999999999991
100
AcDbArc
 50
89.99999999999997
 51
180.0
  0
LINE
  5
1EB
330
1F
100
AcDbEntity
  8
0
 62
     0
100
AcDbLine
 10
20.17037086855467
 20
96.29409522551263
 30
0.0
 11
20.17037086855467
 21
96.29409522551263
 31
30.00000000000001
  0
ARC
  5
1EC
330
1F
100
AcDbEntity
  8
0
 62
     0
100
AcDbCircle
 10
155.0
 20
25.0
 30
0.0
 40
4.999999999999991
100
AcDbArc
 50
270.0000000000002
 51
0.0
  0
LINE
  5
1ED
330
1F
100
AcDbEntity
  8
0
 62
     0
100
AcDbLine
 10
159.8296291314453
 20
23.70590477448742
 30
0.0
 11
159.8296291314453
 21
23.70590477448742
 31
30.00000000000001
  0
ARC
  5
1EE
330
1F
100
AcDbEntity
  8
0
 62
     0
100
AcDbCircle
 10
155.0
 20
25.0
 30
30.00000000000001
 40
4.999999999999991
100
AcDbArc
 50
270.0000000000002
 51
0.0
  0
LINE
  5
1EF
330
1F
100
AcDbEntity
  8
0
 62
     0
100
AcDbLine
 10
160.0
 20
25.0
 30
0.0
 11
160.0
 21
25.0
 31
30.00000000000001
  0
ARC
  5
1F0
330
1F
100
AcDbEntity
  8
0
 62
     0
100
AcDbCircle
 10
155.0
 20
95.0
 30
0.0
 40
5.000000000000012
100
AcDbArc
 50
0.0
 51
90.0
  0
LINE
  5
1F1
330
1F
100
AcDbEntity
  8
0
 62
     0
100
AcDbLine
 10
159.3301270189222
 20
97.50000000000003
 30
0.0
 11
159.3301270189222
 21
97.50000000000003
 31
30.00000000000001
  0
ARC
  5
1F2
330
1F
100
AcDbEntity
  8
0
 62
     0
100
AcDbCircle
 10
155.0
 20
95.0
 30
30.00000000000001
 40
5.000000000000012
100
AcDbArc
 50
0.0
 51
90.0
  0
LINE
  5
1F3
330
1F
100
AcDbEntity
  8
0
 62
     0
100
AcDbLine
 10
158.5355339059327
 20
98.53553390593275
 30
0.0
 11
158.5355339059327
 21
98.53553390593275
 31
30.00000000000001
  0
LINE
  5
1F4
330
1F
100
AcDbEntity
  8
0
 62
     0
100
AcDbLine
 10
342.0
 20
20.00000000000001
 30
0.0
 11
212.0
 21
20.00000000000001
 31
0.0
  0
LINE
  5
1F5
330
1F
100
AcDbEntity
  8
0
 62
     0
100
AcDbLine
 10
212.0
 20
20.00000000000001
 30
0.0
 11
212.0
 21
20.00000000000001
 31
34.99999999999998
  0
LINE
  5
1F6
330
1F
100
AcDbEntity
  8
0
 62
     0
100
AcDbLine
 10
342.0
 20
20.00000000000001
 30
34.99999999999998
 11
212.0
 21
20.00000000000001
 31
34.99999999999998
  0
LINE
  5
1F7
330
1F
100
AcDbEntity
  8
0
 62
     0
100
AcDbLine
 10
342.0
 20
20.00000000000001
 30
0.0
 11
342.0
 21
20.00000000000001
 31
34.99999999999998
  0
ARC
  5
1F8
330
1F
100
AcDbEntity
  8
0
 62
     0
100
AcDbCircle
 10
342.0
 20
95.0
 30
0.0
 40
5.000000000000009
100
AcDbArc
 50
0.0
 51
90.0
  0
LINE
  5
1F9
330
1F
100
AcDbEntity
  8
0
 62
     0
100
AcDbLine
 10
343.2940952255126
 20
99.82962913144537
 30
0.0
 11
343.2940952255126
 21
99.82962913144537
 31
34.99999999999998
  0
ARC
  5
1FA
330
1F
100
AcDbEntity
  8
0
 62
     0
100
AcDbCircle
 10
342.0
 20
95.0
 30
34.99999999999998
 40
5.000000000000009
100
AcDbArc
 50
0.0
 51
90.0
  0
LINE
  5
1FB
330
1F
100
AcDbEntity
  8
0
 62
     0
100
AcDbLine
 10
342.0
 20
100.0
 30
0.0
 11
342.0
 21
100.0
 31
34.99999999999998
  0
ARC
  5
1FC
330
1F
100
AcDbEntity
  8
0
 62
     0
100
AcDbCircle
 10
212.0
 20
25.0
 30
0.0
 40
4.999999999999991
100
AcDbArc
 50
180.0
 51
270.0
  0
LINE
  5
1FD
330
1F
100
AcDbEntity
  8
0
 62
     0
100
AcDbLine
 10
209.5000000000001
 20
20.66987298107783
 30
0.0
 11
209.5000000000001
 21
20.66987298107783
 31
34.99999999999998
  0
ARC
  5
1FE
330
1F
100
AcDbEntity
  8
0
 62
     0
100
AcDbCircle
 10
212.0
 20
25.0
 30
34.99999999999998
 40
4.999999999999991
100
AcDbArc
 50
180.0
 51
270.0
  0
LINE
  5
1FF
330
1F
100
AcDbEntity
  8
0
 62
     0
100
AcDbLine
 10
210.7059047744874
 20
20.17037086855467
 30
0.0
 11
210.7059047744874
 21
20.17037086855467
 31
34.99999999999998
  0
ARC
  5
200
330
1F
100
AcDbEntity
  8
0
 62
     0
100
AcDbCircle
 10
155.0
 20
25.0
 30
0.0
 40
4.999999999999991
100
AcDbArc
 50
270.0000000000002
 51
0.0
  0
LINE
  5
201
330
1F
100
AcDbEntity
  8
0
 62
     0
100
AcDbLine
 10
159.3301270189222
 20
22.49999999999998
 30
0.0
 11
159.3301270189222
 21
22.49999999999998
 31
30.00000000000001
  0
ARC
  5
202
330
1F
100
AcDbEntity
  8
0
 62
     0
100
AcDbCircle
 10
155.0
 20
25.0
 30
30.00000000000001
 40
4.999999999999991
100
AcDbArc
 50
270.0000000000002
 51
0.0
  0
LINE
  5
203
330
1F
100
AcDbEntity
  8
0
 62
     0
100
AcDbLine
 10
159.8296291314453
 20
23.70590477448742
 30
0.0
 11
159.8296291314453
 21
23.70590477448742
 31
30.00000000000001
  0
ARC
  5
204
330
1F
100
AcDbEntity
  8
0
 62
     0
100
AcDbCircle
 10
342.0
 20
25.0
 30
0.0
 40
4.999999999999991
100
AcDbArc
 50
270.0
 51
0.0
  0
LINE
  5
205
330
1F
100
AcDbEntity
  8
0
 62
     0
100
AcDbLine
 10
342.0
 20
20.00000000000001
 30
0.0
 11
342.0
 21
20.00000000000001
 31
34.99999999999998
  0
ARC
  5
206
330
1F
100
AcDbEntity
  8
0
 62
     0
100
AcDbCircle
 10
342.0
 20
25.0
 30
34.99999999999998
 40
4.999999999999991
100
AcDbArc
 50
270.0
 51
0.0
  0
LINE
  5
207
330
1F
100
AcDbEntity
  8
0
 62
     0
100
AcDbLine
 10
343.2940952255126
 20
20.17037086855467
 30
0.0
 11
343.2940952255126
 21
20.17037086855467
 31
34.99999999999998
  0
ARC
  5
208
330
1F
100
AcDbEntity
  8
0
 62
     0
100
AcDbCircle
 10
342.0
 20
95.0
 30
0.0
 40
5.000000000000009
100
AcDbArc
 50
0.0
 51
90.0
  0
LINE
  5
209
330
1F
100
AcDbEntity
  8
0
 62
     0
100
AcDbLine
 10
346.3301270189222
 20
97.50000000000003
 30
0.0
 11
346.3301270189222
 21
97.50000000000003
 31
34.99999999999998
  0
ARC
  5
20A
330
1F
100
AcDbEntity
  8
0
 62
     0
100
AcDbCircle
 10
342.0
 20
95.0
 30
34.99999999999998
 40
5.000000000000009
100
AcDbArc
 50
0.0
 51
90.0
  0
LINE
  5
20B
330
1F
100
AcDbEntity
  8
0
 62
     0
100
AcDbLine
 10
345.5355339059328
 20
98.53553390593275
 30
0.0
 11
345.5355339059328
 21
98.53553390593275
 31
34.99999999999998
  0
ARC
  5
20C
330
1F
100
AcDbEntity
  8
0
 62
     0
100
AcDbCircle
 10
342.0
 20
25.0
 30
0.0
 40
4.999999999999991
100
AcDbArc
 50
270.0
 51
0.0
  0
LINE
  5
20D
330
1F
100
AcDbEntity
  8
0
 62
     0
100
AcDbLine
 10
346.3301270189222
 20
22.49999999999998
 30
0.0
 11
346.3301270189222
 21
22.49999999999998
 31
34.99999999999998
  0
ARC
  5
20E
330
1F
100
AcDbEntity
  8
0
 62
     0
100
AcDbCircle
 10
342.0
 20
25.0
 30
34.99999999999998
 40
4.999999999999991
100
AcDbArc
 50
270.0
 51
0.0
  0
LINE
  5
20F
330
1F
100
AcDbEntity
  8
0
 62
     0
100
AcDbLine
 10
346.8296291314454
 20
23.70590477448742
 30
0.0
 11
346.8296291314454
 21
23.70590477448742
 31
34.99999999999998
  0
ARC
  5
210
330
1F
100
AcDbEntity
  8
0
 62
     0
100
AcDbCircle
 10
342.0
 20
25.0
 30
0.0
 40
4.999999999999991
100
AcDbArc
 50
270.0
 51
0.0
  0
LINE
  5
211
330
1F
100
AcDbEntity
  8
0
 62
     0
100
AcDbLine
 10
343.2940952255126
 20
20.17037086855467
 30
0.0
 11
343.2940952255126
 21
20.17037086855467
 31
34.99999999999998
  0
ARC
  5
212
330
1F
100
AcDbEntity
  8
0
 62
     0
100
AcDbCircle
 10
342.0
 20
25.0
 30
34.99999999999998
 40
4.999999999999991
100
AcDbArc
 50
270.0
 51
0.0
  0
LINE
  5
213
330
1F
100
AcDbEntity
  8
0
 62
     0
100
AcDbLine
 10
344.5
 20
20.66987298107783
 30
0.0
 11
344.5
 21
20.66987298107783
 31
34.99999999999998
  0
ARC
  5
214
330
1F
100
AcDbEntity
  8
0
 62
     0
100
AcDbCircle
 10
212.0
 20
95.0
 30
0.0
 40
4.999999999999991
100
AcDbArc
 50
90.0
 51
180.0
  0
LINE
  5
215
330
1F
100
AcDbEntity
  8
0
 62
     0
100
AcDbLine
 10
208.4644660940673
 20
98.53553390593275
 30
0.0
 11
208.4644660940673
 21
98.53553390593275
 31
34.99999999999998
  0
ARC
  5
216
330
1F
100
AcDbEntity
  8
0
 62
     0
100
AcDbCircle
 10
212.0
 20
95.0
 30
34.99999999999998
 40
4.999999999999991
100
AcDbArc
 50
90.0
 51
180.0
  0
LINE
  5
217
330
1F
100
AcDbEntity
  8
0
 62
     0
100
AcDbLine
 10
207.6698729810778
 20
97.50000000000003
 30
0.0
 11
207.6698729810778
 21
97.50000000000003
 31
34.99999999999998
  0
ARC
  5
218
330
1F
100
AcDbEntity
  8
0
 62
     0
100
AcDbCircle
 10
25.0
 20
95.0
 30
0.0
 40
4.999999999999991
100
AcDbArc
 50
89.99999999999997
 51
180.0
  0
LINE
  5
219
330
1F
100
AcDbEntity
  8
0
 62
     0
100
AcDbLine
 10
22.50000000000001
 20
99.33012701892217
 30
0.0
 11
22.50000000000001
 21
99.33012701892217
 31
30.00000000000001
  0
ARC
  5
21A
330
1F
100
AcDbEntity
  8
0
 62
     0
100
AcDbCircle
 10
25.0
 20
95.0
 30
30.00000000000001
 40
4.999999999999991
100
AcDbArc
 50
89.99999999999997
 51
180.0
  0
LINE
  5
21B
330
1F
100
AcDbEntity
  8
0
 62
     0
100
AcDbLine
 10
21.46446609406728
 20
98.53553390593275
 30
0.0
 11
21.46446609406728
 21
98.53553390593275
 31
30.00000000000001
  0
ARC
  5
21C
330
1F
100
AcDbEntity
  8
0
 62
     0
100
AcDbCircle
 10
212.0
 20
25.0
 30
0.0
 40
4.999999999999991
100
AcDbArc
 50
180.0
 51
270.0
  0
LINE
  5
21D
330
1F
100
AcDbEntity
  8
0
 62
     0
100
AcDbLine
 10
210.7059047744874
 20
20.17037086855467
 30
0.0
 11
210.7059047744874
 21
20.17037086855467
 31
34.99999999999998
  0
ARC
  5
21E
330
1F
100
AcDbEntity
  8
0
 62
     0
100
AcDbCircle
 10
212.0
 20
25.0
 30
34.99999999999998
 40
4.999999999999991
100
AcDbArc
 50
180.0
 51
270.0
  0
LINE
  5
21F
330
1F
100
AcDbEntity
  8
0
 62
     0
100
AcDbLine
 10
212.0
 20
20.00000000000001
 30
0.0
 11
212.0
 21
20.00000000000001
 31
34.99999999999998
  0
ARC
  5
220
330
1F
100
AcDbEntity
  8
0
 62
     0
100
AcDbCircle
 10
342.0
 20
95.0
 30
0.0
 40
5.000000000000009
100
AcDbArc
 50
0.0
 51
90.0
  0
LINE
  5
221
330
1F
100
AcDbEntity
  8
0
 62
     0
100
AcDbLine
 10
346.8296291314454
 20
96.29409522551263
 30
0.0
 11
346.8296291314454
 21
96.29409522551263
 31
34.99999999999998
  0
ARC
  5
222
330
1F
100
AcDbEntity
  8
0
 62
     0
100
AcDbCircle
 10
342.0
 20
95.0
 30
34.99999999999998
 40
5.000000000000009
100
AcDbArc
 50
0.0
 51
90.0
  0
LINE
  5
223
330
1F
100
AcDbEntity
  8
0
 62
     0
100
AcDbLine
 10
346.3301270189222
 20
97.50000000000003
 30
0.0
 11
346.3301270189222
 21
97.50000000000003
 31
34.99999999999998
  0
ARC
  5
224
330
1F
100
AcDbEntity
  8
0
 62
     0
100
AcDbCircle
 10
342.0
 20
25.0
 30
0.0
 40
4.999999999999991
100
AcDbArc
 50
270.0
 51
0.0
  0
LINE
  5
225
330
1F
100
AcDbEntity
  8
0
 62
     0
100
AcDbLine
 10
344.5
 20
20.66987298107783
 30
0.0
 11
344.5
 21
20.66987298107783
 31
34.99999999999998
  0
ARC
  5
226
330
1F
100
AcDbEntity
  8
0
 62
     0
100
AcDbCircle
 10
342.0
 20
25.0
 30
34.99999999999998
 40
4.999999999999991
100
AcDbArc
 50
270.0
 51
0.0
  0
LINE
  5
227
330
1F
100
AcDbEntity
  8
0
 62
     0
100
AcDbLine
 10
345.5355339059327
 20
21.46446609406725
 30
0.0
 11
345.5355339059327
 21
21.46446609406725
 31
34.99999999999998
  0
ARC
  5
228
330
1F
100
AcDbEntity
  8
0
 62
     0
100
AcDbCircle
 10
25.0
 20
25.0
 30
0.0
 40
4.999999999999991
100
AcDbArc
 50
180.0
 51
270.0
  0
LINE
  5
229
330
1F
100
AcDbEntity
  8
0
 62
     0
100
AcDbLine
 10
23.7059047744874
 20
20.17037086855467
 30
0.0
 11
23.7059047744874
 21
20.17037086855467
 31
30.00000000000001
  0
ARC
  5
22A
330
1F
100
AcDbEntity
  8
0
 62
     0
100
AcDbCircle
 10
25.0
 20
25.0
 30
30.00000000000001
 40
4.999999999999991
100
AcDbArc
 50
180.0
 51
270.0
  0
LINE
  5
22B
330
1F
100
AcDbEntity
  8
0
 62
     0
100
AcDbLine
 10
25.0
 20
20.00000000000001
 30
0.0
 11
25.0
 21
20.00000000000001
 31
30.00000000000001
  0
ARC
  5
22C
330
1F
100
AcDbEntity
  8
0
 62
     0
100
AcDbCircle
 10
25.0
 20
95.0
 30
0.0
 40
4.999999999999991
100
AcDbArc
 50
89.99999999999997
 51
180.0
  0
LINE
  5
22D
330
1F
100
AcDbEntity
  8
0
 62
     0
100
AcDbLine
 10
20.17037086855467
 20
96.29409522551263
 30
0.0
 11
20.17037086855467
 21
96.29409522551263
 31
30.00000000000001
  0
ARC
  5
22E
330
1F
100
AcDbEntity
  8
0
 62
     0
100
AcDbCircle
 10
25.0
 20
95.0
 30
30.00000000000001
 40
4.999999999999991
100
AcDbArc
 50
89.99999999999997
 51
180.0
  0
LINE
  5
22F
330
1F
100
AcDbEntity
  8
0
 62
     0
100
AcDbLine
 10
20.0
 20
95.0
 30
0.0
 11
20.0
 21
95.0
 31
30.00000000000001
  0
ARC
  5
230
330
1F
100
AcDbEntity
  8
0
 62
     0
100
AcDbCircle
 10
25.0
 20
95.0
 30
0.0
 40
4.999999999999991
100
AcDbArc
 50
89.99999999999997
 51
180.0
  0
LINE
  5
231
330
1F
100
AcDbEntity
  8
0
 62
     0
100
AcDbLine
 10
21.46446609406728
 20
98.53553390593275
 30
0.0
 11
21.46446609406728
 21
98.53553390593275
 31
30.00000000000001
  0
ARC
  5
232
330
1F
100
AcDbEntity
  8
0
 62
     0
100
AcDbCircle
 10
25.0
 20
95.0
 30
30.00000000000001
 40
4.999999999999991
100
AcDbArc
 50
89.99999999999997
 51
180.0
  0
LINE
  5
233
330
1F
100
AcDbEntity
  8
0
 62
     0
100
AcDbLine
 10
20.66987298107782
 20
97.50000000000003
 30
0.0
 11
20.66987298107782
 21
97.50000000000003
 31
30.00000000000001
  0
ARC
  5
234
330
1F
100
AcDbEntity
  8
0
 62
     0
100
AcDbCircle
 10
20.00000000000001
 20
100.0
 30
30.00000000000001
 40
4.999999999999989
100
AcDbArc
 50
90.0
 51
180.0
  0
LINE
  5
235
330
1F
100
AcDbEntity
  8
0
 62
     0
100
AcDbLine
 10
15.0
 20
20.00000000000001
 30
30.00000000000001
 11
15.00000000000001
 21
100.0
 31
30.00000000000001
  0
ARC
  5
236
330
1F
100
AcDbEntity
  8
0
 62
     0
100
AcDbCircle
 10
20.00000000000001
 20
20.00000000000001
 30
30.00000000000001
 40
4.999999999999991
100
AcDbArc
 50
180.0
 51
270.0000000000003
  0
LINE
  5
237
330
1F
100
AcDbEntity
  8
0
 62
     0
100
AcDbLine
 10
160.0
 20
15.00000000000002
 30
30.00000000000001
 11
20.00000000000004
 21
15.00000000000002
 31
30.00000000000001
  0
ARC
  5
238
330
1F
100
AcDbEntity
  8
0
 62
     0
100
AcDbCircle
 10
160.0
 20
20.00000000000001
 30
30.00000000000001
 40
4.999999999999991
100
AcDbArc
 50
270.0
 51
0.0
  0
LINE
  5
239
330
1F
100
AcDbEntity
  8
0
 62
     0
100
AcDbLine
 10
165.0
 20
100.0
 30
30.00000000000001
 11
165.0
 21
20.00000000000001
 31
30.00000000000001
  0
ARC
  5
23A
330
1F
100
AcDbEntity
  8
0
 62
     0
100
AcDbCircle
 10
160.0
 20
100.0
 30
30.00000000000001
 40
4.999999999999991
100
AcDbArc
 50
0.0
 51
90.0
  0
LINE
  5
23B
330
1F
100
AcDbEntity
  8
0
 62
     0
100
AcDbLine
 10
20.00000000000001
 20
105.0
 30
30.00000000000001
 11
160.0
 21
105.0
 31
30.00000000000001
  0
LINE
  5
23C
330
1F
100
AcDbEntity
  8
0
 62
     0
100
AcDbLine
 10
20.0
 20
95.0
 30
30.00000000000001
 11
20.0
 21
25.0
 31
30.00000000000001
  0
ARC
  5
23D
330
1F
100
AcDbEntity
  8
0
 62
     0
100
AcDbCircle
 10
25.0
 20
95.0
 30
30.00000000000001
 40
4.999999999999991
100
AcDbArc
 50
89.99999999999997
 51
180.0
  0
LINE
  5
23E
330
1F
100
AcDbEntity
  8
0
 62
     0
100
AcDbLine
 10
25.00000000000001
 20
100.0
 30
30.00000000000001
 11
155.0
 21
100.0
 31
30.00000000000001
  0
ARC
  5
23F
330
1F
100
AcDbEntity
  8
0
 62
     0
100
AcDbCircle
 10
155.0
 20
95.0
 30
30.00000000000001
 40
5.000000000000012
100
AcDbArc
 50
0.0
 51
90.0
  0
LINE
  5
240
330
1F
100
AcDbEntity
  8
0
 62
     0
100
AcDbLine
 10
160.0
 20
95.0
 30
30.00000000000001
 11
160.0
 21
25.0
 31
30.00000000000001
  0
ARC
  5
241
330
1F
100
AcDbEntity
  8
0
 62
     0
100
AcDbCircle
 10
155.0
 20
25.0
 30
30.00000000000001
 40
4.999999999999991
100
AcDbArc
 50
270.0000000000002
 51
0.0
  0
LINE
  5
242
330
1F
100
AcDbEntity
  8
0
 62
     0
100
AcDbLine
 10
155.0
 20
20.00000000000001
 30
30.00000000000001
 11
25.0
 21
20.00000000000001
 31
30.00000000000001
  0
ARC
  5
243
330
1F
100
AcDbEntity
  8
0
 62
     0
100
AcDbCircle
 10
25.0
 20
25.0
 30
30.00000000000001
 40
4.999999999999991
100
AcDbArc
 50
180.0
 51
270.0
  0
ARC
  5
244
330
1F
100
AcDbEntity
  8
0
 62
     0
100
AcDbCircle
 10
160.0
 20
100.0
 30
0.0
 40
4.999999999999991
100
AcDbArc
 50
0.0
 51
90.0
  0
LINE
  5
245
330
1F
100
AcDbEntity
  8
0
 62
     0
100
AcDbLine
 10
165.0
 20
100.0
 30
0.0
 11
165.0
 21
100.0
 31
30.00000000000001
  0
ARC
  5
246
330
1F
100
AcDbEntity
  8
0
 62
     0
100
AcDbCircle
 10
160.0
 20
100.0
 30
30.00000000000001
 40
4.999999999999991
100
AcDbArc
 50
0.0
 51
90.0
  0
LINE
  5
247
330
1F
100
AcDbEntity
  8
0
 62
     0
100
AcDbLine
 10
164.8296291314453
 20
101.2940952255126
 30
0.0
 11
164.8296291314453
 21
101.2940952255126
 31
30.00000000000001
  0
LINE
  5
248
330
1F
100
AcDbEntity
  8
0
 62
     0
100
AcDbLine
 10
164.8296291314453
 20
101.2940952255126
 30
30.00000000000001
 11
164.8296291314453
 21
101.2940952255126
 31
34.99999999999998
  0
ARC
  5
249
330
1F
100
AcDbEntity
  8
0
 62
     0
100
AcDbCircle
 10
160.0
 20
100.0
 30
30.00000000000001
 40
4.999999999999991
100
AcDbArc
 50
0.0
 51
90.0
  0
LINE
  5
24A
330
1F
100
AcDbEntity
  8
0
 62
     0
100
AcDbLine
 10
165.0
 20
100.0
 30
30.00000000000001
 11
165.0
 21
100.0
 31
34.99999999999998
  0
ARC
  5
24B
330
1F
100
AcDbEntity
  8
0
 62
     0
100
AcDbCircle
 10
160.0
 20
100.0
 30
34.99999999999998
 40
4.999999999999991
100
AcDbArc
 50
0.0
 51
90.0
  0
ARC
  5
24C
330
1F
100
AcDbEntity
  8
0
 62
     0
100
AcDbCircle
 10
160.0
 20
20.00000000000001
 30
0.0
 40
4.999999999999991
100
AcDbArc
 50
270.0
 51
0.0
  0
LINE
  5
24D
330
1F
100
AcDbEntity
  8
0
 62
     0
100
AcDbLine
 10
163.5355339059327
 20
16.46446609406726
 30
0.0
 11
163.5355339059327
 21
16.46446609406726
 31
30.00000000000001
  0
ARC
  5
24E
330
1F
100
AcDbEntity
  8
0
 62
     0
100
AcDbCircle
 10
160.0
 20
20.00000000000001
 30
30.00000000000001
 40
4.999999999999991
100
AcDbArc
 50
270.0
 51
0.0
  0
LINE
  5
24F
330
1F
100
AcDbEntity
  8
0
 62
     0
100
AcDbLine
 10
164.3301270189222
 20
17.49999999999999
 30
0.0
 11
164.3301270189222
 21
17.49999999999999
 31
30.00000000000001
  0
ARC
  5
250
330
1F
100
AcDbEntity
  8
0
 62
     0
100
AcDbCircle
 10
155.0
 20
95.0
 30
0.0
 40
5.000000000000012
100
AcDbArc
 50
0.0
 51
90.0
  0
LINE
  5
251
330
1F
100
AcDbEntity
  8
0
 62
     0
100
AcDbLine
 10
156.2940952255126
 20
99.82962913144537
 30
0.0
 11
156.2940952255126
 21
99.82962913144537
 31
30.00000000000001
  0
ARC
  5
252
330
1F
100
AcDbEntity
  8
0
 62
     0
100
AcDbCircle
 10
155.0
 20
95.0
 30
30.00000000000001
 40
5.000000000000012
100
AcDbArc
 50
0.0
 51
90.0
  0
LINE
  5
253
330
1F
100
AcDbEntity
  8
0
 62
     0
100
AcDbLine
 10
155.0
 20
100.0
 30
0.0
 11
155.0
 21
100.0
 31
30.00000000000001
  0
LINE
  5
254
330
1F
100
AcDbEntity
  8
0
 62
     0
100
AcDbLine
 10
165.0
 20
20.00000000000001
 30
30.00000000000001
 11
165.0
 21
20.00000000000001
 31
34.99999999999998
  0
ARC
  5
255
330
1F
100
AcDbEntity
  8
0
 62
     0
100
AcDbCircle
 10
160.0
 20
20.00000000000001
 30
30.00000000000001
 40
4.999999999999991
100
AcDbArc
 50
270.0
 51
0.0
  0
LINE
  5
256
330
1F
100
AcDbEntity
  8
0
 62
     0
100
AcDbLine
 10
164.8296291314453
 20
18.70590477448743
 30
30.00000000000001
 11
164.8296291314453
 21
18.70590477448743
 31
34.99999999999998
  0
ARC
  5
257
330
1F
100
AcDbEntity
  8
0
 62
     0
100
AcDbCircle
 10
160.0
 20
20.00000000000001
 30
34.99999999999998
 40
4.999999999999991
100
AcDbArc
 50
270.0
 51
0.0
  0
ARC
  5
258
330
1F
100
AcDbEntity
  8
0
 62
     0
100
AcDbCircle
 10
20.00000000000001
 20
100.0
 30
0.0
 40
4.999999999999989
100
AcDbArc
 50
90.0
 51
180.0
  0
LINE
  5
259
330
1F
100
AcDbEntity
  8
0
 62
     0
100
AcDbLine
 10
18.7059047744874
 20
104.8296291314453
 30
0.0
 11
18.7059047744874
 21
104.8296291314453
 31
30.00000000000001
  0
ARC
  5
25A
330
1F
100
AcDbEntity
  8
0
 62
     0
100
AcDbCircle
 10
20.00000000000001
 20
100.0
 30
30.00000000000001
 40
4.999999999999989
100
AcDbArc
 50
90.0
 51
180.0
  0
LINE
  5
25B
330
1F
100
AcDbEntity
  8
0
 62
     0
100
AcDbLine
 10
17.50000000000001
 20
104.3301270189222
 30
0.0
 11
17.50000000000001
 21
104.3301270189222
 31
30.00000000000001
  0
LINE
  5
25C
330
1F
100
AcDbEntity
  8
0
 62
     0
100
AcDbLine
 10
165.0
 20
100.0
 30
30.00000000000001
 11
165.0
 21
100.0
 31
34.99999999999998
  0
LINE
  5
25D
330
1F
100
AcDbEntity
  8
0
 62
     0
100
AcDbLine
 10
165.0
 20
100.0
 30
30.00000000000001
 11
165.0
 21
20.00000000000001
 31
30.00000000000001
  0
LINE
  5
25E
330
1F
100
AcDbEntity
  8
0
 62
     0
100
AcDbLine
 10
165.0
 20
20.00000000000001
 30
30.00000000000001
 11
165.0
 21
20.00000000000001
 31
34.99999999999998
  0
LINE
  5
25F
330
1F
100
AcDbEntity
  8
0
 62
     0
100
AcDbLine
 10
165.0
 20
100.0
 30
34.99999999999998
 11
165.0
 21
20.00000000000001
 31
34.99999999999998
  0
LINE
  5
260
330
1F
100
AcDbEntity
  8
0
 62
     0
100
AcDbLine
 10
163.5355339059327
 20
103.5355339059327
 30
30.00000000000001
 11
163.5355339059327
 21
103.5355339059327
 31
34.99999999999998
  0
ARC
  5
261
330
1F
100
AcDbEntity
  8
0
 62
     0
100
AcDbCircle
 10
160.0
 20
100.0
 30
30.00000000000001
 40
4.999999999999991
100
AcDbArc
 50
0.0
 51
90.0
  0
LINE
  5
262
330
1F
100
AcDbEntity
  8
0
 62
     0
100
AcDbLine
 10
164.3301270189222
 20
102.5
 30
30.00000000000001
 11
164.3301270189222
 21
102.5
 31
34.99999999999998
  0
ARC
  5
263
330
1F
100
AcDbEntity
  8
0
 62
     0
100
AcDbCircle
 10
160.0
 20
100.0
 30
34.99999999999998
 40
4.999999999999991
100
AcDbArc
 50
0.0
 51
90.0
  0
LINE
  5
264
330
1F
100
AcDbEntity
  8
0
 62
     0
100
AcDbLine
 10
165.0
 20
100.0
 30
0.0
 11
165.0
 21
20.00000000000001
 31
0.0
  0
LINE
  5
265
330
1F
100
AcDbEntity
  8
0
 62
     0
100
AcDbLine
 10
165.0
 20
20.00000000000001
 30
0.0
 11
165.0
 21
20.00000000000001
 31
30.00000000000001
  0
LINE
  5
266
330
1F
100
AcDbEntity
  8
0
 62
     0
100
AcDbLine
 10
165.0
 20
100.0
 30
30.00000000000001
 11
165.0
 21
20.00000000000001
 31
30.00000000000001
  0
LINE
  5
267
330
1F
100
AcDbEntity
  8
0
 62
     0
100
AcDbLine
 10
165.0
 20
100.0
 30
0.0
 11
165.0
 21
100.0
 31
30.00000000000001
  0
LINE
  5
268
330
1F
100
AcDbEntity
  8
0
 62
     0
100
AcDbLine
 10
164.8296291314453
 20
18.70590477448743
 30
30.00000000000001
 11
164.8296291314453
 21
18.70590477448743
 31
34.99999999999998
  0
ARC
  5
269
330
1F
100
AcDbEntity
  8
0
 62
     0
100
AcDbCircle
 10
160.0
 20
20.00000000000001
 30
30.00000000000001
 40
4.999999999999991
100
AcDbArc
 50
270.0
 51
0.0
  0
LINE
  5
26A
330
1F
100
AcDbEntity
  8
0
 62
     0
100
AcDbLine
 10
164.3301270189222
 20
17.49999999999999
 30
30.00000000000001
 11
164.3301270189222
 21
17.49999999999999
 31
34.99999999999998
  0
ARC
  5
26B
330
1F
100
AcDbEntity
  8
0
 62
     0
100
AcDbCircle
 10
160.0
 20
20.00000000000001
 30
34.99999999999998
 40
4.999999999999991
100
AcDbArc
 50
270.0
 51
0.0
  0
ARC
  5
26C
330
1F
100
AcDbEntity
  8
0
 62
     0
100
AcDbCircle
 10
20.00000000000001
 20
20.00000000000001
 30
0.0
 40
4.999999999999991
100
AcDbArc
 50
180.0
 51
270.0000000000003
  0
LINE
  5
26D
330
1F
100
AcDbEntity
  8
0
 62
     0
100
AcDbLine
 10
16.46446609406729
 20
16.46446609406726
 30
0.0
 11
16.46446609406729
 21
16.46446609406726
 31
30.00000000000001
  0
ARC
  5
26E
330
1F
100
AcDbEntity
  8
0
 62
     0
100
AcDbCircle
 10
20.00000000000001
 20
20.00000000000001
 30
30.00000000000001
 40
4.999999999999991
100
AcDbArc
 50
180.0
 51
270.0000000000003
  0
LINE
  5
26F
330
1F
100
AcDbEntity
  8
0
 62
     0
100
AcDbLine
 10
17.50000000000003
 20
15.6698729810778
 30
0.0
 11
17.50000000000003
 21
15.6698729810778
 31
30.00000000000001
  0
ARC
  5
270
330
1F
100
AcDbEntity
  8
0
 62
     0
100
AcDbCircle
 10
20.00000000000001
 20
20.00000000000001
 30
0.0
 40
4.999999999999991
100
AcDbArc
 50
180.0
 51
270.0000000000003
  0
LINE
  5
271
330
1F
100
AcDbEntity
  8
0
 62
     0
100
AcDbLine
 10
18.70590477448743
 20
15.17037086855468
 30
0.0
 11
18.70590477448743
 21
15.17037086855468
 31
30.00000000000001
  0
ARC
  5
272
330
1F
100
AcDbEntity
  8
0
 62
     0
100
AcDbCircle
 10
20.00000000000001
 20
20.00000000000001
 30
30.00000000000001
 40
4.999999999999991
100
AcDbArc
 50
180.0
 51
270.0000000000003
  0
LINE
  5
273
330
1F
100
AcDbEntity
  8
0
 62
     0
100
AcDbLine
 10
20.00000000000004
 20
15.00000000000002
 30
0.0
 11
20.00000000000004
 21
15.00000000000002
 31
30.00000000000001
  0
LINE
  5
274
330
1F
100
AcDbEntity
  8
0
 62
     0
100
AcDbLine
 10
160.0
 20
105.0
 30
30.00000000000001
 11
160.0
 21
105.0
 31
34.99999999999998
  0
ARC
  5
275
330
1F
100
AcDbEntity
  8
0
 62
     0
100
AcDbCircle
 10
160.0
 20
100.0
 30
30.00000000000001
 40
4.999999999999991
100
AcDbArc
 50
0.0
 51
90.0
  0
LINE
  5
276
330
1F
100
AcDbEntity
  8
0
 62
     0
100
AcDbLine
 10
161.2940952255126
 20
104.8296291314453
 30
30.00000000000001
 11
161.2940952255126
 21
104.8296291314453
 31
34.99999999999998
  0
ARC
  5
277
330
1F
100
AcDbEntity
  8
0
 62
     0
100
AcDbCircle
 10
160.0
 20
100.0
 30
34.99999999999998
 40
4.999999999999991
100
AcDbArc
 50
0.0
 51
90.0
  0
ARC
  5
278
330
1F
100
AcDbEntity
  8
0
 62
     0
100
AcDbCircle
 10
160.0
 20
100.0
 30
0.0
 40
4.999999999999991
100
AcDbArc
 50
0.0
 51
90.0
  0
LINE
  5
279
330
1F
100
AcDbEntity
  8
0
 62
     0
100
AcDbLine
 10
163.5355339059327
 20
103.5355339059327
 30
0.0
 11
163.5355339059327
 21
103.5355339059327
 31
30.00000000000001
  0
ARC
  5
27A
330
1F
100
AcDbEntity
  8
0
 62
     0
100
AcDbCircle
 10
160.0
 20
100.0
 30
30.00000000000001
 40
4.999999999999991
100
AcDbArc
 50
0.0
 51
90.0
  0
LINE
  5
27B
330
1F
100
AcDbEntity
  8
0
 62
     0
100
AcDbLine
 10
162.5
 20
104.3301270189222
 30
0.0
 11
162.5
 21
104.3301270189222
 31
30.00000000000001
  0
LINE
  5
27C
330
1F
100
AcDbEntity
  8
0
 62
     0
100
AcDbLine
 10
164.3301270189222
 20
102.5
 30
30.00000000000001
 11
164.3301270189222
 21
102.5
 31
34.99999999999998
  0
ARC
  5
27D
330
1F
100
AcDbEntity
  8
0
 62
     0
100
AcDbCircle
 10
160.0
 20
100.0
 30
30.00000000000001
 40
4.999999999999991
100
AcDbArc
 50
0.0
 51
90.0
  0
LINE
  5
27E
330
1F
100
AcDbEntity
  8
0
 62
     0
100
AcDbLine
 10
164.8296291314453
 20
101.2940952255126
 30
30.00000000000001
 11
164.8296291314453
 21
101.2940952255126
 31
34.99999999999998
  0
ARC
  5
27F
330
1F
100
AcDbEntity
  8
0
 62
     0
100
AcDbCircle
 10
160.0
 20
100.0
 30
34.99999999999998
 40
4.999999999999991
100
AcDbArc
 50
0.0
 51
90.0
  0
LINE
  5
280
330
1F
100
AcDbEntity
  8
0
 62
     0
100
AcDbLine
 10
161.2940952255126
 20
104.8296291314453
 30
30.00000000000001
 11
161.2940952255126
 21
104.8296291314453
 31
34.99999999999998
  0
ARC
  5
281
330
1F
100
AcDbEntity
  8
0
 62
     0
100
AcDbCircle
 10
160.0
 20
100.0
 30
30.00000000000001
 40
4.999999999999991
100
AcDbArc
 50
0.0
 51
90.0
  0
LINE
  5
282
330
1F
100
AcDbEntity
  8
0
 62
     0
100
AcDbLine
 10
162.5
 20
104.3301270189222
 30
30.00000000000001
 11
162.5
 21
104.3301270189222
 31
34.99999999999998
  0
ARC
  5
283
330
1F
100
AcDbEntity
  8
0
 62
     0
100
AcDbCircle
 10
160.0
 20
100.0
 30
34.99999999999998
 40
4.999999999999991
100
AcDbArc
 50
0.0
 51
90.0
  0
ARC
  5
284
330
1F
100
AcDbEntity
  8
0
 62
     0
100
AcDbCircle
 10
20.00000000000001
 20
100.0
 30
0.0
 40
4.999999999999989
100
AcDbArc
 50
90.0
 51
180.0
  0
LINE
  5
285
330
1F
100
AcDbEntity
  8
0
 62
     0
100
AcDbLine
 10
20.00000000000001
 20
105.0
 30
0.0
 11
20.00000000000001
 21
105.0
 31
30.00000000000001
  0
ARC
  5
286
330
1F
100
AcDbEntity
  8
0
 62
     0
100
AcDbCircle
 10
20.00000000000001
 20
100.0
 30
30.00000000000001
 40
4.999999999999989
100
AcDbArc
 50
90.0
 51
180.0
  0
LINE
  5
287
330
1F
100
AcDbEntity
  8
0
 62
     0
100
AcDbLine
 10
18.7059047744874
 20
104.8296291314453
 30
0.0
 11
18.7059047744874
 21
104.8296291314453
 31
30.00000000000001
  0
LINE
  5
288
330
1F
100
AcDbEntity
  8
0
 62
     0
100
AcDbLine
 10
160.0
 20
15.00000000000002
 30
0.0
 11
20.00000000000004
 21
15.00000000000002
 31
0.0
  0
LINE
  5
289
330
1F
100
AcDbEntity
  8
0
 62
     0
100
AcDbLine
 10
20.00000000000004
 20
15.00000000000002
 30
0.0
 11
20.00000000000004
 21
15.00000000000002
 31
30.00000000000001
  0
LINE
  5
28A
330
1F
100
AcDbEntity
  8
0
 62
     0
100
AcDbLine
 10
160.0
 20
15.00000000000002
 30
30.00000000000001
 11
20.00000000000004
 21
15.00000000000002
 31
30.00000000000001
  0
LINE
  5
28B
330
1F
100
AcDbEntity
  8
0
 62
     0
100
AcDbLine
 10
160.0
 20
15.00000000000002
 30
0.0
 11
160.0
 21
15.00000000000002
 31
30.00000000000001
  0
LINE
  5
28C
330
1F
100
AcDbEntity
  8
0
 62
     0
100
AcDbLine
 10
160.0
 20
15.00000000000002
 30
30.00000000000001
 11
160.0
 21
15.00000000000002
 31
34.99999999999998
  0
LINE
  5
28D
330
1F
100
AcDbEntity
  8
0
 62
     0
100
AcDbLine
 10
160.0
 20
15.00000000000002
 30
30.00000000000001
 11
20.00000000000004
 21
15.00000000000002
 31
30.00000000000001
  0
LINE
  5
28E
330
1F
100
AcDbEntity
  8
0
 62
     0
100
AcDbLine
 10
20.00000000000004
 20
15.00000000000002
 30
30.00000000000001
 11
20.00000000000004
 21
15.00000000000002
 31
34.99999999999998
  0
LINE
  5
28F
330
1F
100
AcDbEntity
  8
0
 62
     0
100
AcDbLine
 10
160.0
 20
15.00000000000002
 30
34.99999999999998
 11
20.00000000000004
 21
15.00000000000002
 31
34.99999999999998
  0
LINE
  5
290
330
1F
100
AcDbEntity
  8
0
 62
     0
100
AcDbLine
 10
161.2940952255126
 20
15.17037086855468
 30
30.00000000000001
 11
161.2940952255126
 21
15.17037086855468
 31
34.99999999999998
  0
ARC
  5
291
330
1F
100
AcDbEntity
  8
0
 62
     0
100
AcDbCircle
 10
160.0
 20
20.00000000000001
 30
30.00000000000001
 40
4.999999999999991
100
AcDbArc
 50
270.0
 51
0.0
  0
LINE
  5
292
330
1F
100
AcDbEntity
  8
0
 62
     0
100
AcDbLine
 10
160.0
 20
15.00000000000002
 30
30.00000000000001
 11
160.0
 21
15.00000000000002
 31
34.99999999999998
  0
ARC
  5
293
330
1F
100
AcDbEntity
  8
0
 62
     0
100
AcDbCircle
 10
160.0
 20
20.00000000000001
 30
34.99999999999998
 40
4.999999999999991
100
AcDbArc
 50
270.0
 51
0.0
  0
ARC
  5
294
330
1F
100
AcDbEntity
  8
0
 62
     0
100
AcDbCircle
 10
20.00000000000001
 20
20.00000000000001
 30
0.0
 40
4.999999999999991
100
AcDbArc
 50
180.0
 51
270.0000000000003
  0
LINE
  5
295
330
1F
100
AcDbEntity
  8
0
 62
     0
100
AcDbLine
 10
17.50000000000003
 20
15.6698729810778
 30
0.0
 11
17.50000000000003
 21
15.6698729810778
 31
30.00000000000001
  0
ARC
  5
296
330
1F
100
AcDbEntity
  8
0
 62
     0
100
AcDbCircle
 10
20.00000000000001
 20
20.00000000000001
 30
30.00000000000001
 40
4.999999999999991
100
AcDbArc
 50
180.0
 51
270.0000000000003
  0
LINE
  5
297
330
1F
100
AcDbEntity
  8
0
 62
     0
100
AcDbLine
 10
18.70590477448743
 20
15.17037086855468
 30
0.0
 11
18.70590477448743
 21
15.17037086855468
 31
30.00000000000001
  0
ARC
  5
298
330
1F
100
AcDbEntity
  8
0
 62
     0
100
AcDbCircle
 10
20.00000000000001
 20
20.00000000000001
 30
0.0
 40
20.00000000000001
100
AcDbArc
 50
180.0
 51
270.0
  0
LINE
  5
299
330
1F
100
AcDbEntity
  8
0
 62
     0
100
AcDbLine
 10
5.857864376269045
 20
5.857864376269068
 30
0.0
 11
5.857864376269045
 21
5.857864376269068
 31
34.99999999999998
  0
ARC
  5
29A
330
1F
100
AcDbEntity
  8
0
 62
     0
100
AcDbCircle
 10
20.00000000000001
 20
20.00000000000001
 30
34.99999999999998
 40
20.00000000000001
100
AcDbArc
 50
180.0
 51
270.0
  0
LINE
  5
29B
330
1F
100
AcDbEntity
  8
0
 62
     0
100
AcDbLine
 10
2.67949192431122
 20
10.00000000000003
 30
0.0
 11
2.67949192431122
 21
10.00000000000003
 31
34.99999999999998
  0
LINE
  5
29C
330
1F
100
AcDbEntity
  8
0
 62
     0
100
AcDbLine
 10
20.00000000000001
 20
105.0
 30
30.00000000000001
 11
20.00000000000001
 21
105.0
 31
34.99999999999998
  0
LINE
  5
29D
330
1F
100
AcDbEntity
  8
0
 62
     0
100
AcDbLine
 10
20.00000000000001
 20
105.0
 30
30.00000000000001
 11
160.0
 21
105.0
 31
30.00000000000001
  0
LINE
  5
29E
330
1F
100
AcDbEntity
  8
0
 62
     0
100
AcDbLine
 10
160.0
 20
105.0
 30
30.00000000000001
 11
160.0
 21
105.0
 31
34.99999999999998
  0
LINE
  5
29F
330
1F
100
AcDbEntity
  8
0
 62
     0
100
AcDbLine
 10
20.00000000000001
 20
105.0
 30
34.99999999999998
 11
160.0
 21
105.0
 31
34.99999999999998
  0
LINE
  5
2A0
330
1F
100
AcDbEntity
  8
0
 62
     0
100
AcDbLine
 10
16.46446609406729
 20
16.46446609406726
 30
30.00000000000001
 11
16.46446609406729
 21
16.46446609406726
 31
34.99999999999998
  0
ARC
  5
2A1
330
1F
100
AcDbEntity
  8
0
 62
     0
100
AcDbCircle
 10
20.00000000000001
 20
20.00000000000001
 30
30.00000000000001
 40
4.999999999999991
100
AcDbArc
 50
180.0
 51
270.0000000000003
  0
LINE
  5
2A2
330
1F
100
AcDbEntity
  8
0
 62
     0
100
AcDbLine
 10
15.66987298107784
 20
17.49999999999999
 30
30.00000000000001
 11
15.66987298107784
 21
17.49999999999999
 31
34.99999999999998
  0
ARC
  5
2A3
330
1F
100
AcDbEntity
  8
0
 62
     0
100
AcDbCircle
 10
20.00000000000001
 20
20.00000000000001
 30
34.99999999999998
 40
4.999999999999991
100
AcDbArc
 50
180.0
 51
270.0000000000003
  0
LINE
  5
2A4
330
1F
100
AcDbEntity
  8
0
 62
     0
100
AcDbLine
 10
25.00000000000001
 20
100.0
 30
0.0
 11
155.0
 21
100.0
 31
0.0
  0
LINE
  5
2A5
330
1F
100
AcDbEntity
  8
0
 62
     0
100
AcDbLine
 10
155.0
 20
100.0
 30
0.0
 11
155.0
 21
100.0
 31
30.00000000000001
  0
LINE
  5
2A6
330
1F
100
AcDbEntity
  8
0
 62
     0
100
AcDbLine
 10
25.00000000000001
 20
100.0
 30
30.00000000000001
 11
155.0
 21
100.0
 31
30.00000000000001
  0
LINE
  5
2A7
330
1F
100
AcDbEntity
  8
0
 62
     0
100
AcDbLine
 10
25.00000000000001
 20
100.0
 30
0.0
 11
25.00000000000001
 21
100.0
 31
30.00000000000001
  0
ARC
  5
2A8
330
1F
100
AcDbEntity
  8
0
 62
     0
100
AcDbCircle
 10
160.0
 20
20.00000000000001
 30
0.0
 40
20.00000000000001
100
AcDbArc
 50
270.0
 51
0.0
  0
LINE
  5
2A9
330
1F
100
AcDbEntity
  8
0
 62
     0
100
AcDbLine
 10
165.1763809020504
 20
0.6814834742186124
 30
0.0
 11
165.1763809020504
 21
0.6814834742186124
 31
34.99999999999998
  0
ARC
  5
2AA
330
1F
100
AcDbEntity
  8
0
 62
     0
100
AcDbCircle
 10
160.0
 20
20.00000000000001
 30
34.99999999999998
 40
20.00000000000001
100
AcDbArc
 50
270.0
 51
0.0
  0
LINE
  5
2AB
330
1F
100
AcDbEntity
  8
0
 62
     0
100
AcDbLine
 10
160.0
 20
0.0
 30
0.0
 11
160.0
 21
0.0
 31
34.99999999999998
  0
ARC
  5
2AC
330
1F
100
AcDbEntity
  8
0
 62
     0
100
AcDbCircle
 10
155.0
 20
95.0
 30
0.0
 40
5.000000000000012
100
AcDbArc
 50
0.0
 51
90.0
  0
LINE
  5
2AD
330
1F
100
AcDbEntity
  8
0
 62
     0
100
AcDbLine
 10
160.0
 20
95.0
 30
0.0
 11
160.0
 21
95.0
 31
30.00000000000001
  0
ARC
  5
2AE
330
1F
100
AcDbEntity
  8
0
 62
     0
100
AcDbCircle
 10
155.0
 20
95.0
 30
30.00000000000001
 40
5.000000000000012
100
AcDbArc
 50
0.0
 51
90.0
  0
LINE
  5
2AF
330
1F
100
AcDbEntity
  8
0
 62
     0
100
AcDbLine
 10
159.8296291314453
 20
96.29409522551263
 30
0.0
 11
159.8296291314453
 21
96.29409522551263
 31
30.00000000000001
  0
ARC
  5
2B0
330
1F
100
AcDbEntity
  8
0
 62
     0
100
AcDbCircle
 10
160.0
 20
20.00000000000001
 30
0.0
 40
20.00000000000001
100
AcDbArc
 50
270.0
 51
0.0
  0
LINE
  5
2B1
330
1F
100
AcDbEntity
  8
0
 62
     0
100
AcDbLine
 10
177.3205080756888
 20
9.999999999999982
 30
0.0
 11
177.3205080756888
 21
9.999999999999982
 31
34.99999999999998
  0
ARC
  5
2B2
330
1F
100
AcDbEntity
  8
0
 62
     0
100
AcDbCircle
 10
160.0
 20
20.00000000000001
 30
34.99999999999998
 40
20.00000000000001
100
AcDbArc
 50
270.0
 51
0.0
  0
LINE
  5
2B3
330
1F
100
AcDbEntity
  8
0
 62
     0
100
AcDbLine
 10
174.142135623731
 20
5.857864376269068
 30
0.0
 11
174.142135623731
 21
5.857864376269068
 31
34.99999999999998
  0
ARC
  5
2B4
330
1F
100
AcDbEntity
  8
0
 62
     0
100
AcDbCircle
 10
20.00000000000001
 20
20.00000000000001
 30
0.0
 40
4.999999999999991
100
AcDbArc
 50
180.0
 51
270.0000000000003
  0
LINE
  5
2B5
330
1F
100
AcDbEntity
  8
0
 62
     0
100
AcDbLine
 10
15.0
 20
20.00000000000001
 30
0.0
 11
15.0
 21
20.00000000000001
 31
30.00000000000001
  0
ARC
  5
2B6
330
1F
100
AcDbEntity
  8
0
 62
     0
100
AcDbCircle
 10
20.00000000000001
 20
20.00000000000001
 30
30.00000000000001
 40
4.999999999999991
100
AcDbArc
 50
180.0
 51
270.0000000000003
  0
LINE
  5
2B7
330
1F
100
AcDbEntity
  8
0
 62
     0
100
AcDbLine
 10
15.17037086855468
 20
18.70590477448738
 30
0.0
 11
15.17037086855468
 21
18.70590477448738
 31
30.00000000000001
  0
ARC
  5
2B8
330
1F
100
AcDbEntity
  8
0
 62
     0
100
AcDbCircle
 10
155.0
 20
25.0
 30
0.0
 40
4.999999999999991
100
AcDbArc
 50
270.0000000000002
 51
0.0
  0
LINE
  5
2B9
330
1F
100
AcDbEntity
  8
0
 62
     0
100
AcDbLine
 10
156.2940952255126
 20
20.17037086855467
 30
0.0
 11
156.2940952255126
 21
20.17037086855467
 31
30.00000000000001
  0
ARC
  5
2BA
330
1F
100
AcDbEntity
  8
0
 62
     0
100
AcDbCircle
 10
155.0
 20
25.0
 30
30.00000000000001
 40
4.999999999999991
100
AcDbArc
 50
270.0000000000002
 51
0.0
  0
LINE
  5
2BB
330
1F
100
AcDbEntity
  8
0
 62
     0
100
AcDbLine
 10
157.5
 20
20.66987298107783
 30
0.0
 11
157.5
 21
20.66987298107783
 31
30.00000000000001
  0
ARC
  5
2BC
330
1F
100
AcDbEntity
  8
0
 62
     0
100
AcDbCircle
 10
20.00000000000001
 20
20.00000000000001
 30
0.0
 40
20.00000000000001
100
AcDbArc
 50
180.0
 51
270.0
  0
LINE
  5
2BD
330
1F
100
AcDbEntity
  8
0
 62
     0
100
AcDbLine
 10
20.00000000000001
 20
0.0
 30
0.0
 11
20.00000000000001
 21
0.0
 31
34.99999999999998
  0
ARC
  5
2BE
330
1F
100
AcDbEntity
  8
0
 62
     0
100
AcDbCircle
 10
20.00000000000001
 20
20.00000000000001
 30
34.99999999999998
 40
20.00000000000001
100
AcDbArc
 50
180.0
 51
270.0
  0
LINE
  5
2BF
330
1F
100
AcDbEntity
  8
0
 62
     0
100
AcDbLine
 10
14.82361909794957
 20
0.6814834742186576
 30
0.0
 11
14.82361909794957
 21
0.6814834742186576
 31
34.99999999999998
  0
ARC
  5
2C0
330
1F
100
AcDbEntity
  8
0
 62
     0
100
AcDbCircle
 10
20.00000000000001
 20
100.0
 30
0.0
 40
19.99999999999999
100
AcDbArc
 50
90.0
 51
180.0
  0
LINE
  5
2C1
330
1F
100
AcDbEntity
  8
0
 62
     0
100
AcDbLine
 10
14.82361909794959
 20
119.3185165257813
 30
0.0
 11
14.82361909794959
 21
119.3185165257813
 31
34.99999999999998
  0
ARC
  5
2C2
330
1F
100
AcDbEntity
  8
0
 62
     0
100
AcDbCircle
 10
20.00000000000001
 20
100.0
 30
34.99999999999998
 40
19.99999999999999
100
AcDbArc
 50
90.0
 51
180.0
  0
LINE
  5
2C3
330
1F
100
AcDbEntity
  8
0
 62
     0
100
AcDbLine
 10
20.00000000000001
 20
120.0
 30
0.0
 11
20.00000000000001
 21
120.0
 31
34.99999999999998
  0
ARC
  5
2C4
330
1F
100
AcDbEntity
  8
0
 62
     0
100
AcDbCircle
 10
20.00000000000001
 20
20.00000000000001
 30
0.0
 40
20.00000000000001
100
AcDbArc
 50
180.0
 51
270.0
  0
LINE
  5
2C5
330
1F
100
AcDbEntity
  8
0
 62
     0
100
AcDbLine
 10
9.999999999999993
 20
2.679491924311248
 30
0.0
 11
9.999999999999993
 21
2.679491924311248
 31
34.99999999999998
  0
ARC
  5
2C6
330
1F
100
AcDbEntity
  8
0
 62
     0
100
AcDbCircle
 10
20.00000000000001
 20
20.00000000000001
 30
34.99999999999998
 40
20.00000000000001
100
AcDbArc
 50
180.0
 51
270.0
  0
LINE
  5
2C7
330
1F
100
AcDbEntity
  8
0
 62
     0
100
AcDbLine
 10
5.857864376269045
 20
5.857864376269068
 30
0.0
 11
5.857864376269045
 21
5.857864376269068
 31
34.99999999999998
  0
ARC
  5
2C8
330
1F
100
AcDbEntity
  8
0
 62
     0
100
AcDbCircle
 10
160.0
 20
20.00000000000001
 30
0.0
 40
4.999999999999991
100
AcDbArc
 50
270.0
 51
0.0
  0
LINE
  5
2C9
330
1F
100
AcDbEntity
  8
0
 62
     0
100
AcDbLine
 10
162.5
 20
15.66987298107784
 30
0.0
 11
162.5
 21
15.66987298107784
 31
30.00000000000001
  0
ARC
  5
2CA
330
1F
100
AcDbEntity
  8
0
 62
     0
100
AcDbCircle
 10
160.0
 20
20.00000000000001
 30
30.00000000000001
 40
4.999999999999991
100
AcDbArc
 50
270.0
 51
0.0
  0
LINE
  5
2CB
330
1F
100
AcDbEntity
  8
0
 62
     0
100
AcDbLine
 10
163.5355339059327
 20
16.46446609406726
 30
0.0
 11
163.5355339059327
 21
16.46446609406726
 31
30.00000000000001
  0
ARC
  5
2CC
330
1F
100
AcDbEntity
  8
0
 62
     0
100
AcDbCircle
 10
155.0
 20
25.0
 30
0.0
 40
4.999999999999991
100
AcDbArc
 50
270.0000000000002
 51
0.0
  0
LINE
  5
2CD
330
1F
100
AcDbEntity
  8
0
 62
     0
100
AcDbLine
 10
158.5355339059327
 20
21.46446609406725
 30
0.0
 11
158.5355339059327
 21
21.46446609406725
 31
30.00000000000001
  0
ARC
  5
2CE
330
1F
100
AcDbEntity
  8
0
 62
     0
100
AcDbCircle
 10
155.0
 20
25.0
 30
30.00000000000001
 40
4.999999999999991
100
AcDbArc
 50
270.0000000000002
 51
0.0
  0
LINE
  5
2CF
330
1F
100
AcDbEntity
  8
0
 62
     0
100
AcDbLine
 10
159.3301270189222
 20
22.49999999999998
 30
0.0
 11
159.3301270189222
 21
22.49999999999998
 31
30.00000000000001
  0
ARC
  5
2D0
330
1F
100
AcDbEntity
  8
0
 62
     0
100
AcDbCircle
 10
155.0
 20
95.0
 30
0.0
 40
5.000000000000012
100
AcDbArc
 50
0.0
 51
90.0
  0
LINE
  5
2D1
330
1F
100
AcDbEntity
  8
0
 62
     0
100
AcDbLine
 10
158.5355339059327
 20
98.53553390593275
 30
0.0
 11
158.5355339059327
 21
98.53553390593275
 31
30.00000000000001
  0
ARC
  5
2D2
330
1F
100
AcDbEntity
  8
0
 62
     0
100
AcDbCircle
 10
155.0
 20
95.0
 30
30.00000000000001
 40
5.000000000000012
100
AcDbArc
 50
0.0
 51
90.0
  0
LINE
  5
2D3
330
1F
100
AcDbEntity
  8
0
 62
     0
100
AcDbLine
 10
157.5
 20
99.33012701892221
 30
0.0
 11
157.5
 21
99.33012701892221
 31
30.00000000000001
  0
LINE
  5
2D4
330
1F
100
AcDbEntity
  8
0
 62
     0
100
AcDbLine
 10
155.0
 20
20.00000000000001
 30
0.0
 11
25.0
 21
20.00000000000001
 31
0.0
  0
LINE
  5
2D5
330
1F
100
AcDbEntity
  8
0
 62
     0
100
AcDbLine
 10
25.0
 20
20.00000000000001
 30
0.0
 11
25.0
 21
20.00000000000001
 31
30.00000000000001
  0
LINE
  5
2D6
330
1F
100
AcDbEntity
  8
0
 62
     0
100
AcDbLine
 10
155.0
 20
20.00000000000001
 30
30.00000000000001
 11
25.0
 21
20.00000000000001
 31
30.00000000000001
  0
LINE
  5
2D7
330
1F
100
AcDbEntity
  8
0
 62
     0
100
AcDbLine
 10
155.0
 20
20.00000000000001
 30
0.0
 11
155.0
 21
20.00000000000001
 31
30.00000000000001
  0
LINE
  5
2D8
330
1F
100
AcDbEntity
  8
0
 62
     0
100
AcDbLine
 10
162.5
 20
104.3301270189222
 30
30.00000000000001
 11
162.5
 21
104.3301270189222
 31
34.99999999999998
  0
ARC
  5
2D9
330
1F
100
AcDbEntity
  8
0
 62
     0
100
AcDbCircle
 10
160.0
 20
100.0
 30
30.00000000000001
 40
4.999999999999991
100
AcDbArc
 50
0.0
 51
90.0
  0
LINE
  5
2DA
330
1F
100
AcDbEntity
  8
0
 62
     0
100
AcDbLine
 10
163.5355339059327
 20
103.5355339059327
 30
30.00000000000001
 11
163.5355339059327
 21
103.5355339059327
 31
34.99999999999998
  0
ARC
  5
2DB
330
1F
100
AcDbEntity
  8
0
 62
     0
100
AcDbCircle
 10
160.0
 20
100.0
 30
34.99999999999998
 40
4.999999999999991
100
AcDbArc
 50
0.0
 51
90.0
  0
ARC
  5
2DC
330
1F
100
AcDbEntity
  8
0
 62
     0
100
AcDbCircle
 10
20.00000000000001
 20
20.00000000000001
 30
0.0
 40
4.999999999999991
100
AcDbArc
 50
180.0
 51
270.0000000000003
  0
LINE
  5
2DD
330
1F
100
AcDbEntity
  8
0
 62
     0
100
AcDbLine
 10
15.66987298107784
 20
17.49999999999999
 30
0.0
 11
15.66987298107784
 21
17.49999999999999
 31
30.00000000000001
  0
ARC
  5
2DE
330
1F
100
AcDbEntity
  8
0
 62
     0
100
AcDbCircle
 10
20.00000000000001
 20
20.00000000000001
 30
30.00000000000001
 40
4.999999999999991
100
AcDbArc
 50
180.0
 51
270.0000000000003
  0
LINE
  5
2DF
330
1F
100
AcDbEntity
  8
0
 62
     0
100
AcDbLine
 10
16.46446609406729
 20
16.46446609406726
 30
0.0
 11
16.46446609406729
 21
16.46446609406726
 31
30.00000000000001
  0
ARC
  5
2E0
330
1F
100
AcDbEntity
  8
0
 62
     0
100
AcDbCircle
 10
20.00000000000001
 20
100.0
 30
0.0
 40
4.999999999999989
100
AcDbArc
 50
90.0
 51
180.0
  0
LINE
  5
2E1
330
1F
100
AcDbEntity
  8
0
 62
     0
100
AcDbLine
 10
17.50000000000001
 20
104.3301270189222
 30
0.0
 11
17.50000000000001
 21
104.3301270189222
 31
30.00000000000001
  0
ARC
  5
2E2
330
1F
100
AcDbEntity
  8
0
 62
     0
100
AcDbCircle
 10
20.00000000000001
 20
100.0
 30
30.00000000000001
 40
4.999999999999989
100
AcDbArc
 50
90.0
 51
180.0
  0
LINE
  5
2E3
330
1F
100
AcDbEntity
  8
0
 62
     0
100
AcDbLine
 10
16.46446609406728
 20
103.5355339059327
 30
0.0
 11
16.46446609406728
 21
103.5355339059327
 31
30.00000000000001
  0
ARC
  5
2E4
330
1F
100
AcDbEntity
  8
0
 62
     0
100
AcDbCircle
 10
25.0
 20
25.0
 30
0.0
 40
4.999999999999991
100
AcDbArc
 50
180.0
 51
270.0
  0
LINE
  5
2E5
330
1F
100
AcDbEntity
  8
0
 62
     0
100
AcDbLine
 10
20.66987298107782
 20
22.50000000000002
 30
0.0
 11
20.66987298107782
 21
22.50000000000002
 31
30.00000000000001
  0
ARC
  5
2E6
330
1F
100
AcDbEntity
  8
0
 62
     0
100
AcDbCircle
 10
25.0
 20
25.0
 30
30.00000000000001
 40
4.999999999999991
100
AcDbArc
 50
180.0
 51
270.0
  0
LINE
  5
2E7
330
1F
100
AcDbEntity
  8
0
 62
     0
100
AcDbLine
 10
21.46446609406727
 20
21.46446609406725
 30
0.0
 11
21.46446609406727
 21
21.46446609406725
 31
30.00000000000001
  0
ARC
  5
2E8
330
1F
100
AcDbEntity
  8
0
 62
     0
100
AcDbCircle
 10
20.00000000000001
 20
100.0
 30
0.0
 40
4.999999999999989
100
AcDbArc
 50
90.0
 51
180.0
  0
LINE
  5
2E9
330
1F
100
AcDbEntity
  8
0
 62
     0
100
AcDbLine
 10
16.46446609406728
 20
103.5355339059327
 30
0.0
 11
16.46446609406728
 21
103.5355339059327
 31
30.00000000000001
  0
ARC
  5
2EA
330
1F
100
AcDbEntity
  8
0
 62
     0
100
AcDbCircle
 10
20.00000000000001
 20
100.0
 30
30.00000000000001
 40
4.999999999999989
100
AcDbArc
 50
90.0
 51
180.0
  0
LINE
  5
2EB
330
1F
100
AcDbEntity
  8
0
 62
     0
100
AcDbLine
 10
15.66987298107782
 20
102.5
 30
0.0
 11
15.66987298107782
 21
102.5
 31
30.00000000000001
  0
ARC
  5
2EC
330
1F
100
AcDbEntity
  8
0
 62
     0
100
AcDbCircle
 10
20.00000000000001
 20
100.0
 30
0.0
 40
19.99999999999999
100
AcDbArc
 50
90.0
 51
180.0
  0
LINE
  5
2ED
330
1F
100
AcDbEntity
  8
0
 62
     0
100
AcDbLine
 10
0.6814834742186351
 20
105.1763809020504
 30
0.0
 11
0.6814834742186351
 21
105.1763809020504
 31
34.99999999999998
  0
ARC
  5
2EE
330
1F
100
AcDbEntity
  8
0
 62
     0
100
AcDbCircle
 10
20.00000000000001
 20
100.0
 30
34.99999999999998
 40
19.99999999999999
100
AcDbArc
 50
90.0
 51
180.0
  0
LINE
  5
2EF
330
1F
100
AcDbEntity
  8
0
 62
     0
100
AcDbLine
 10
2.679491924311228
 20
110.0
 30
0.0
 11
2.679491924311228
 21
110.0
 31
34.99999999999998
  0
ARC
  5
2F0
330
1F
100
AcDbEntity
  8
0
 62
     0
100
AcDbCircle
 10
20.00000000000001
 20
100.0
 30
0.0
 40
19.99999999999999
100
AcDbArc
 50
90.0
 51
180.0
  0
LINE
  5
2F1
330
1F
100
AcDbEntity
  8
0
 62
     0
100
AcDbLine
 10
2.679491924311228
 20
110.0
 30
0.0
 11
2.679491924311228
 21
110.0
 31
34.99999999999998
  0
ARC
  5
2F2
330
1F
100
AcDbEntity
  8
0
 62
     0
100
AcDbCircle
 10
20.00000000000001
 20
100.0
 30
34.99999999999998
 40
19.99999999999999
100
AcDbArc
 50
90.0
 51
180.0
  0
LINE
  5
2F3
330
1F
100
AcDbEntity
  8
0
 62
     0
100
AcDbLine
 10
5.857864376269051
 20
114.1421356237309
 30
0.0
 11
5.857864376269051
 21
114.1421356237309
 31
34.99999999999998
  0
ARC
  5
2F4
330
1F
100
AcDbEntity
  8
0
 62
     0
100
AcDbCircle
 10
155.0
 20
25.0
 30
0.0
 40
4.999999999999991
100
AcDbArc
 50
270.0000000000002
 51
0.0
  0
LINE
  5
2F5
330
1F
100
AcDbEntity
  8
0
 62
     0
100
AcDbLine
 10
155.0
 20
20.00000000000001
 30
0.0
 11
155.0
 21
20.00000000000001
 31
30.00000000000001
  0
ARC
  5
2F6
330
1F
100
AcDbEntity
  8
0
 62
     0
100
AcDbCircle
 10
155.0
 20
25.0
 30
30.00000000000001
 40
4.999999999999991
100
AcDbArc
 50
270.0000000000002
 51
0.0
  0
LINE
  5
2F7
330
1F
100
AcDbEntity
  8
0
 62
     0
100
AcDbLine
 10
156.2940952255126
 20
20.17037086855467
 30
0.0
 11
156.2940952255126
 21
20.17037086855467
 31
30.00000000000001
  0
ARC
  5
2F8
330
1F
100
AcDbEntity
  8
0
 62
     0
100
AcDbCircle
 10
20.00000000000001
 20
20.00000000000001
 30
0.0
 40
4.999999999999991
100
AcDbArc
 50
180.0
 51
270.0000000000003
  0
LINE
  5
2F9
330
1F
100
AcDbEntity
  8
0
 62
     0
100
AcDbLine
 10
15.17037086855468
 20
18.70590477448738
 30
0.0
 11
15.17037086855468
 21
18.70590477448738
 31
30.00000000000001
  0
ARC
  5
2FA
330
1F
100
AcDbEntity
  8
0
 62
     0
100
AcDbCircle
 10
20.00000000000001
 20
20.00000000000001
 30
30.00000000000001
 40
4.999999999999991
100
AcDbArc
 50
180.0
 51
270.0000000000003
  0
LINE
  5
2FB
330
1F
100
AcDbEntity
  8
0
 62
     0
100
AcDbLine
 10
15.66987298107784
 20
17.49999999999999
 30
0.0
 11
15.66987298107784
 21
17.49999999999999
 31
30.00000000000001
  0
ARC
  5
2FC
330
1F
100
AcDbEntity
  8
0
 62
     0
100
AcDbCircle
 10
20.00000000000001
 20
20.00000000000001
 30
0.0
 40
20.00000000000001
100
AcDbArc
 50
180.0
 51
270.0
  0
LINE
  5
2FD
330
1F
100
AcDbEntity
  8
0
 62
     0
100
AcDbLine
 10
2.67949192431122
 20
10.00000000000003
 30
0.0
 11
2.67949192431122
 21
10.00000000000003
 31
34.99999999999998
  0
ARC
  5
2FE
330
1F
100
AcDbEntity
  8
0
 62
     0
100
AcDbCircle
 10
20.00000000000001
 20
20.00000000000001
 30
34.99999999999998
 40
20.00000000000001
100
AcDbArc
 50
180.0
 51
270.0
  0
LINE
  5
2FF
330
1F
100
AcDbEntity
  8
0
 62
     0
100
AcDbLine
 10
0.6814834742186322
 20
14.8236190979496
 30
0.0
 11
0.6814834742186322
 21
14.8236190979496
 31
34.99999999999998
  0
LINE
  5
300
330
1F
100
AcDbEntity
  8
0
 62
     0
100
AcDbLine
 10
164.3301270189222
 20
17.49999999999999
 30
30.00000000000001
 11
164.3301270189222
 21
17.49999999999999
 31
34.99999999999998
  0
ARC
  5
301
330
1F
100
AcDbEntity
  8
0
 62
     0
100
AcDbCircle
 10
160.0
 20
20.00000000000001
 30
30.00000000000001
 40
4.999999999999991
100
AcDbArc
 50
270.0
 51
0.0
  0
LINE
  5
302
330
1F
100
AcDbEntity
  8
0
 62
     0
100
AcDbLine
 10
163.5355339059327
 20
16.46446609406726
 30
30.00000000000001
 11
163.5355339059327
 21
16.46446609406726
 31
34.99999999999998
  0
ARC
  5
303
330
1F
100
AcDbEntity
  8
0
 62
     0
100
AcDbCircle
 10
160.0
 20
20.00000000000001
 30
34.99999999999998
 40
4.999999999999991
100
AcDbArc
 50
270.0
 51
0.0
  0
ARC
  5
304
330
1F
100
AcDbEntity
  8
0
 62
     0
100
AcDbCircle
 10
20.00000000000001
 20
100.0
 30
0.0
 40
19.99999999999999
100
AcDbArc
 50
90.0
 51
180.0
  0
LINE
  5
305
330
1F
100
AcDbEntity
  8
0
 62
     0
100
AcDbLine
 10
0.0
 20
100.0
 30
0.0
 11
0.0
 21
100.0
 31
34.99999999999998
  0
ARC
  5
306
330
1F
100
AcDbEntity
  8
0
 62
     0
100
AcDbCircle
 10
20.00000000000001
 20
100.0
 30
34.99999999999998
 40
19.99999999999999
100
AcDbArc
 50
90.0
 51
180.0
  0
LINE
  5
307
330
1F
100
AcDbEntity
  8
0
 62
     0
100
AcDbLine
 10
0.6814834742186351
 20
105.1763809020504
 30
0.0
 11
0.6814834742186351
 21
105.1763809020504
 31
34.99999999999998
  0
ARC
  5
308
330
1F
100
AcDbEntity
  8
0
 62
     0
100
AcDbCircle
 10
20.00000000000001
 20
100.0
 30
0.0
 40
4.999999999999989
100
AcDbArc
 50
90.0
 51
180.0
  0
LINE
  5
309
330
1F
100
AcDbEntity
  8
0
 62
     0
100
AcDbLine
 10
15.17037086855468
 20
101.2940952255126
 30
0.0
 11
15.17037086855468
 21
101.2940952255126
 31
30.00000000000001
  0
ARC
  5
30A
330
1F
100
AcDbEntity
  8
0
 62
     0
100
AcDbCircle
 10
20.00000000000001
 20
100.0
 30
30.00000000000001
 40
4.999999999999989
100
AcDbArc
 50
90.0
 51
180.0
  0
LINE
  5
30B
330
1F
100
AcDbEntity
  8
0
 62
     0
100
AcDbLine
 10
15.00000000000001
 20
100.0
 30
0.0
 11
15.00000000000001
 21
100.0
 31
30.00000000000001
  0
ARC
  5
30C
330
1F
100
AcDbEntity
  8
0
 62
     0
100
AcDbCircle
 10
160.0
 20
20.00000000000001
 30
0.0
 40
4.999999999999991
100
AcDbArc
 50
270.0
 51
0.0
  0
LINE
  5
30D
330
1F
100
AcDbEntity
  8
0
 62
     0
100
AcDbLine
 10
160.0
 20
15.00000000000002
 30
0.0
 11
160.0
 21
15.00000000000002
 31
30.00000000000001
  0
ARC
  5
30E
330
1F
100
AcDbEntity
  8
0
 62
     0
100
AcDbCircle
 10
160.0
 20
20.00000000000001
 30
30.00000000000001
 40
4.999999999999991
100
AcDbArc
 50
270.0
 51
0.0
  0
LINE
  5
30F
330
1F
100
AcDbEntity
  8
0
 62
     0
100
AcDbLine
 10
161.2940952255126
 20
15.17037086855468
 30
0.0
 11
161.2940952255126
 21
15.17037086855468
 31
30.00000000000001
  0
ARC
  5
310
330
1F
100
AcDbEntity
  8
0
 62
     0
100
AcDbCircle
 10
160.0
 20
20.00000000000001
 30
0.0
 40
4.999999999999991
100
AcDbArc
 50
270.0
 51
0.0
  0
LINE
  5
311
330
1F
100
AcDbEntity
  8
0
 62
     0
100
AcDbLine
 10
161.2940952255126
 20
15.17037086855468
 30
0.0
 11
161.2940952255126
 21
15.17037086855468
 31
30.00000000000001
  0
ARC
  5
312
330
1F
100
AcDbEntity
  8
0
 62
     0
100
AcDbCircle
 10
160.0
 20
20.00000000000001
 30
30.00000000000001
 40
4.999999999999991
100
AcDbArc
 50
270.0
 51
0.0
  0
LINE
  5
313
330
1F
100
AcDbEntity
  8
0
 62
     0
100
AcDbLine
 10
162.5
 20
15.66987298107784
 30
0.0
 11
162.5
 21
15.66987298107784
 31
30.00000000000001
  0
LINE
  5
314
330
1F
100
AcDbEntity
  8
0
 62
     0
100
AcDbLine
 10
162.5
 20
15.66987298107784
 30
30.00000000000001
 11
162.5
 21
15.66987298107784
 31
34.99999999999998
  0
ARC
  5
315
330
1F
100
AcDbEntity
  8
0
 62
     0
100
AcDbCircle
 10
160.0
 20
20.00000000000001
 30
30.00000000000001
 40
4.999999999999991
100
AcDbArc
 50
270.0
 51
0.0
  0
LINE
  5
316
330
1F
100
AcDbEntity
  8
0
 62
     0
100
AcDbLine
 10
161.2940952255126
 20
15.17037086855468
 30
30.00000000000001
 11
161.2940952255126
 21
15.17037086855468
 31
34.99999999999998
  0
ARC
  5
317
330
1F
100
AcDbEntity
  8
0
 62
     0
100
AcDbCircle
 10
160.0
 20
20.00000000000001
 30
34.99999999999998
 40
4.999999999999991
100
AcDbArc
 50
270.0
 51
0.0
  0
ARC
  5
318
330
1F
100
AcDbEntity
  8
0
 62
     0
100
AcDbCircle
 10
25.0
 20
25.0
 30
0.0
 40
4.999999999999991
100
AcDbArc
 50
180.0
 51
270.0
  0
LINE
  5
319
330
1F
100
AcDbEntity
  8
0
 62
     0
100
AcDbLine
 10
20.17037086855467
 20
23.70590477448742
 30
0.0
 11
20.17037086855467
 21
23.70590477448742
 31
30.00000000000001
  0
ARC
  5
31A
330
1F
100
AcDbEntity
  8
0
 62
     0
100
AcDbCircle
 10
25.0
 20
25.0
 30
30.00000000000001
 40
4.999999999999991
100
AcDbArc
 50
180.0
 51
270.0
  0
LINE
  5
31B
330
1F
100
AcDbEntity
  8
0
 62
     0
100
AcDbLine
 10
20.66987298107782
 20
22.50000000000002
 30
0.0
 11
20.66987298107782
 21
22.50000000000002
 31
30.00000000000001
  0
LINE
  5
31C
330
1F
100
AcDbEntity
  8
0
 62
     0
100
AcDbLine
 10
20.0
 20
95.0
 30
0.0
 11
20.0
 21
25.0
 31
0.0
  0
LINE
  5
31D
330
1F
100
AcDbEntity
  8
0
 62
     0
100
AcDbLine
 10
20.0
 20
95.0
 30
0.0
 11
20.0
 21
95.0
 31
30.00000000000001
  0
LINE
  5
31E
330
1F
100
AcDbEntity
  8
0
 62
     0
100
AcDbLine
 10
20.0
 20
95.0
 30
30.00000000000001
 11
20.0
 21
25.0
 31
30.00000000000001
  0
LINE
  5
31F
330
1F
100
AcDbEntity
  8
0
 62
     0
100
AcDbLine
 10
20.0
 20
25.0
 30
0.0
 11
20.0
 21
25.0
 31
30.00000000000001
  0
ARC
  5
320
330
1F
100
AcDbEntity
  8
0
 62
     0
100
AcDbCircle
 10
20.00000000000001
 20
100.0
 30
0.0
 40
4.999999999999989
100
AcDbArc
 50
90.0
 51
180.0
  0
LINE
  5
321
330
1F
100
AcDbEntity
  8
0
 62
     0
100
AcDbLine
 10
15.66987298107782
 20
102.5
 30
0.0
 11
15.66987298107782
 21
102.5
 31
30.00000000000001
  0
ARC
  5
322
330
1F
100
AcDbEntity
  8
0
 62
     0
100
AcDbCircle
 10
20.00000000000001
 20
100.0
 30
30.00000000000001
 40
4.999999999999989
100
AcDbArc
 50
90.0
 51
180.0
  0
LINE
  5
323
330
1F
100
AcDbEntity
  8
0
 62
     0
100
AcDbLine
 10
15.17037086855468
 20
101.2940952255126
 30
0.0
 11
15.17037086855468
 21
101.2940952255126
 31
30.00000000000001
  0
LINE
  5
324
330
1F
100
AcDbEntity
  8
0
 62
     0
100
AcDbLine
 10
163.5355339059327
 20
16.46446609406726
 30
30.00000000000001
 11
163.5355339059327
 21
16.46446609406726
 31
34.99999999999998
  0
ARC
  5
325
330
1F
100
AcDbEntity
  8
0
 62
     0
100
AcDbCircle
 10
160.0
 20
20.00000000000001
 30
30.00000000000001
 40
4.999999999999991
100
AcDbArc
 50
270.0
 51
0.0
  0
LINE
  5
326
330
1F
100
AcDbEntity
  8
0
 62
     0
100
AcDbLine
 10
162.5
 20
15.66987298107784
 30
30.00000000000001
 11
162.5
 21
15.66987298107784
 31
34.99999999999998
  0
ARC
  5
327
330
1F
100
AcDbEntity
  8
0
 62
     0
100
AcDbCircle
 10
160.0
 20
20.00000000000001
 30
34.99999999999998
 40
4.999999999999991
100
AcDbArc
 50
270.0
 51
0.0
  0
LINE
  5
328
330
1F
100
AcDbEntity
  8
0
 62
     0
100
AcDbLine
 10
15.0
 20
20.00000000000001
 30
0.0
 11
15.00000000000001
 21
100.0
 31
0.0
  0
LINE
  5
329
330
1F
100
AcDbEntity
  8
0
 62
     0
100
AcDbLine
 10
15.00000000000001
 20
100.0
 30
0.0
 11
15.00000000000001
 21
100.0
 31
30.00000000000001
  0
LINE
  5
32A
330
1F
100
AcDbEntity
  8
0
 62
     0
100
AcDbLine
 10
15.0
 20
20.00000000000001
 30
30.00000000000001
 11
15.00000000000001
 21
100.0
 31
30.00000000000001
  0
LINE
  5
32B
330
1F
100
AcDbEntity
  8
0
 62
     0
100
AcDbLine
 10
15.0
 20
20.00000000000001
 30
0.0
 11
15.0
 21
20.00000000000001
 31
30.00000000000001
  0
LINE
  5
32C
330
1F
100
AcDbEntity
  8
0
 62
     0
100
AcDbLine
 10
18.7059047744874
 20
104.8296291314453
 30
30.00000000000001
 11
18.7059047744874
 21
104.8296291314453
 31
34.99999999999998
  0
ARC
  5
32D
330
1F
100
AcDbEntity
  8
0
 62
     0
100
AcDbCircle
 10
20.00000000000001
 20
100.0
 30
30.00000000000001
 40
4.999999999999989
100
AcDbArc
 50
90.0
 51
180.0
  0
LINE
  5
32E
330
1F
100
AcDbEntity
  8
0
 62
     0
100
AcDbLine
 10
20.00000000000001
 20
105.0
 30
30.00000000000001
 11
20.00000000000001
 21
105.0
 31
34.99999999999998
  0
ARC
  5
32F
330
1F
100
AcDbEntity
  8
0
 62
     0
100
AcDbCircle
 10
20.00000000000001
 20
100.0
 30
34.99999999999998
 40
4.999999999999989
100
AcDbArc
 50
90.0
 51
180.0
  0
LINE
  5
330
330
1F
100
AcDbEntity
  8
0
 62
     0
100
AcDbLine
 10
15.0
 20
20.00000000000001
 30
30.00000000000001
 11
15.0
 21
20.00000000000001
 31
34.99999999999998
  0
LINE
  5
331
330
1F
100
AcDbEntity
  8
0
 62
     0
100
AcDbLine
 10
15.0
 20
20.00000000000001
 30
30.00000000000001
 11
15.00000000000001
 21
100.0
 31
30.00000000000001
  0
LINE
  5
332
330
1F
100
AcDbEntity
  8
0
 62
     0
100
AcDbLine
 10
15.00000000000001
 20
100.0
 30
30.00000000000001
 11
15.00000000000001
 21
100.0
 31
34.99999999999998
  0
LINE
  5
333
330
1F
100
AcDbEntity
  8
0
 62
     0
100
AcDbLine
 10
15.0
 20
20.00000000000001
 30
34.99999999999998
 11
15.00000000000001
 21
100.0
 31
34.99999999999998
  0
LINE
  5
334
330
1F
100
AcDbEntity
  8
0
 62
     0
100
AcDbLine
 10
0.0
 20
100.0
 30
0.0
 11
0.0000000000000056
 21
20.00000000000001
 31
0.0
  0
LINE
  5
335
330
1F
100
AcDbEntity
  8
0
 62
     0
100
AcDbLine
 10
0.0000000000000056
 20
20.00000000000001
 30
0.0
 11
0.0000000000000056
 21
20.00000000000001
 31
34.99999999999998
  0
LINE
  5
336
330
1F
100
AcDbEntity
  8
0
 62
     0
100
AcDbLine
 10
0.0
 20
100.0
 30
34.99999999999998
 11
0.0000000000000056
 21
20.00000000000001
 31
34.99999999999998
  0
LINE
  5
337
330
1F
100
AcDbEntity
  8
0
 62
     0
100
AcDbLine
 10
0.0
 20
100.0
 30
0.0
 11
0.0
 21
100.0
 31
34.99999999999998
  0
LINE
  5
338
330
1F
100
AcDbEntity
  8
0
 62
     0
100
AcDbLine
 10
15.66987298107784
 20
17.49999999999999
 30
30.00000000000001
 11
15.66987298107784
 21
17.49999999999999
 31
34.99999999999998
  0
ARC
  5
339
330
1F
100
AcDbEntity
  8
0
 62
     0
100
AcDbCircle
 10
20.00000000000001
 20
20.00000000000001
 30
30.00000000000001
 40
4.999999999999991
100
AcDbArc
 50
180.0
 51
270.0000000000003
  0
LINE
  5
33A
330
1F
100
AcDbEntity
  8
0
 62
     0
100
AcDbLine
 10
15.17037086855468
 20
18.70590477448738
 30
30.00000000000001
 11
15.17037086855468
 21
18.70590477448738
 31
34.99999999999998
  0
ARC
  5
33B
330
1F
100
AcDbEntity
  8
0
 62
     0
100
AcDbCircle
 10
20.00000000000001
 20
20.00000000000001
 30
34.99999999999998
 40
4.999999999999991
100
AcDbArc
 50
180.0
 51
270.0000000000003
  0
ARC
  5
33C
330
1F
100
AcDbEntity
  8
0
 62
     0
100
AcDbCircle
 10
20.00000000000001
 20
100.0
 30
0.0
 40
19.99999999999999
100
AcDbArc
 50
90.0
 51
180.0
  0
LINE
  5
33D
330
1F
100
AcDbEntity
  8
0
 62
     0
100
AcDbLine
 10
5.857864376269051
 20
114.1421356237309
 30
0.0
 11
5.857864376269051
 21
114.1421356237309
 31
34.99999999999998
  0
ARC
  5
33E
330
1F
100
AcDbEntity
  8
0
 62
     0
100
AcDbCircle
 10
20.00000000000001
 20
100.0
 30
34.99999999999998
 40
19.99999999999999
100
AcDbArc
 50
90.0
 51
180.0
  0
LINE
  5
33F
330
1F
100
AcDbEntity
  8
0
 62
     0
100
AcDbLine
 10
10.00000000000001
 20
117.3205080756888
 30
0.0
 11
10.00000000000001
 21
117.3205080756888
 31
34.99999999999998
  0
LINE
  5
340
330
1F
100
AcDbEntity
  8
0
 62
     0
100
AcDbLine
 10
15.17037086855468
 20
101.2940952255126
 30
30.00000000000001
 11
15.17037086855468
 21
101.2940952255126
 31
34.99999999999998
  0
ARC
  5
341
330
1F
100
AcDbEntity
  8
0
 62
     0
100
AcDbCircle
 10
20.00000000000001
 20
100.0
 30
30.00000000000001
 40
4.999999999999989
100
AcDbArc
 50
90.0
 51
180.0
  0
LINE
  5
342
330
1F
100
AcDbEntity
  8
0
 62
     0
100
AcDbLine
 10
15.66987298107782
 20
102.5
 30
30.00000000000001
 11
15.66987298107782
 21
102.5
 31
34.99999999999998
  0
ARC
  5
343
330
1F
100
AcDbEntity
  8
0
 62
     0
100
AcDbCircle
 10
20.00000000000001
 20
100.0
 30
34.99999999999998
 40
4.999999999999989
100
AcDbArc
 50
90.0
 51
180.0
  0
ARC
  5
344
330
1F
100
AcDbEntity
  8
0
 62
     0
100
AcDbCircle
 10
20.00000000000001
 20
20.00000000000001
 30
0.0
 40
20.00000000000001
100
AcDbArc
 50
180.0
 51
270.0
  0
LINE
  5
345
330
1F
100
AcDbEntity
  8
0
 62
     0
100
AcDbLine
 10
14.82361909794957
 20
0.6814834742186576
 30
0.0
 11
14.82361909794957
 21
0.6814834742186576
 31
34.99999999999998
  0
ARC
  5
346
330
1F
100
AcDbEntity
  8
0
 62
     0
100
AcDbCircle
 10
20.00000000000001
 20
20.00000000000001
 30
34.99999999999998
 40
20.00000000000001
100
AcDbArc
 50
180.0
 51
270.0
  0
LINE
  5
347
330
1F
100
AcDbEntity
  8
0
 62
     0
100
AcDbLine
 10
9.999999999999993
 20
2.679491924311248
 30
0.0
 11
9.999999999999993
 21
2.679491924311248
 31
34.99999999999998
  0
ARC
  5
348
330
1F
100
AcDbEntity
  8
0
 62
     0
100
AcDbCircle
 10
155.0
 20
95.0
 30
0.0
 40
5.000000000000012
100
AcDbArc
 50
0.0
 51
90.0
  0
LINE
  5
349
330
1F
100
AcDbEntity
  8
0
 62
     0
100
AcDbLine
 10
157.5
 20
99.33012701892221
 30
0.0
 11
157.5
 21
99.33012701892221
 31
30.00000000000001
  0
ARC
  5
34A
330
1F
100
AcDbEntity
  8
0
 62
     0
100
AcDbCircle
 10
155.0
 20
95.0
 30
30.00000000000001
 40
5.000000000000012
100
AcDbArc
 50
0.0
 51
90.0
  0
LINE
  5
34B
330
1F
100
AcDbEntity
  8
0
 62
     0
100
AcDbLine
 10
156.2940952255126
 20
99.82962913144537
 30
0.0
 11
156.2940952255126
 21
99.82962913144537
 31
30.00000000000001
  0
ARC
  5
34C
330
1F
100
AcDbEntity
  8
0
 62
     0
100
AcDbCircle
 10
25.0
 20
95.0
 30
0.0
 40
4.999999999999991
100
AcDbArc
 50
89.99999999999997
 51
180.0
  0
LINE
  5
34D
330
1F
100
AcDbEntity
  8
0
 62
     0
100
AcDbLine
 10
25.00000000000001
 20
100.0
 30
0.0
 11
25.00000000000001
 21
100.0
 31
30.00000000000001
  0
ARC
  5
34E
330
1F
100
AcDbEntity
  8
0
 62
     0
100
AcDbCircle
 10
25.0
 20
95.0
 30
30.00000000000001
 40
4.999999999999991
100
AcDbArc
 50
89.99999999999997
 51
180.0
  0
LINE
  5
34F
330
1F
100
AcDbEntity
  8
0
 62
     0
100
AcDbLine
 10
23.7059047744874
 20
99.82962913144533
 30
0.0
 11
23.7059047744874
 21
99.82962913144533
 31
30.00000000000001
  0
ARC
  5
350
330
1F
100
AcDbEntity
  8
0
 62
     0
100
AcDbCircle
 10
20.00000000000001
 20
20.00000000000001
 30
0.0
 40
20.00000000000001
100
AcDbArc
 50
180.0
 51
270.0
  0
LINE
  5
351
330
1F
100
AcDbEntity
  8
0
 62
     0
100
AcDbLine
 10
0.6814834742186322
 20
14.8236190979496
 30
0.0
 11
0.6814834742186322
 21
14.8236190979496
 31
34.99999999999998
  0
ARC
  5
352
330
1F
100
AcDbEntity
  8
0
 62
     0
100
AcDbCircle
 10
20.00000000000001
 20
20.00000000000001
 30
34.99999999999998
 40
20.00000000000001
100
AcDbArc
 50
180.0
 51
270.0
  0
LINE
  5
353
330
1F
100
AcDbEntity
  8
0
 62
     0
100
AcDbLine
 10
0.0000000000000056
 20
20.00000000000001
 30
0.0
 11
0.0000000000000056
 21
20.00000000000001
 31
34.99999999999998
  0
ARC
  5
354
330
1F
100
AcDbEntity
  8
0
 62
     0
100
AcDbCircle
 10
160.0
 20
20.00000000000001
 30
0.0
 40
20.00000000000001
100
AcDbArc
 50
270.0
 51
0.0
  0
LINE
  5
355
330
1F
100
AcDbEntity
  8
0
 62
     0
100
AcDbLine
 10
170.0
 20
2.679491924311248
 30
0.0
 11
170.0
 21
2.679491924311248
 31
34.99999999999998
  0
ARC
  5
356
330
1F
100
AcDbEntity
  8
0
 62
     0
100
AcDbCircle
 10
160.0
 20
20.00000000000001
 30
34.99999999999998
 40
20.00000000000001
100
AcDbArc
 50
270.0
 51
0.0
  0
LINE
  5
357
330
1F
100
AcDbEntity
  8
0
 62
     0
100
AcDbLine
 10
165.1763809020504
 20
0.6814834742186124
 30
0.0
 11
165.1763809020504
 21
0.6814834742186124
 31
34.99999999999998
  0
LINE
  5
358
330
1F
100
AcDbEntity
  8
0
 62
     0
100
AcDbLine
 10
15.00000000000001
 20
100.0
 30
30.00000000000001
 11
15.00000000000001
 21
100.0
 31
34.99999999999998
  0
ARC
  5
359
330
1F
100
AcDbEntity
  8
0
 62
     0
100
AcDbCircle
 10
20.00000000000001
 20
100.0
 30
30.00000000000001
 40
4.999999999999989
100
AcDbArc
 50
90.0
 51
180.0
  0
LINE
  5
35A
330
1F
100
AcDbEntity
  8
0
 62
     0
100
AcDbLine
 10
15.17037086855468
 20
101.2940952255126
 30
30.00000000000001
 11
15.17037086855468
 21
101.2940952255126
 31
34.99999999999998
  0
ARC
  5
35B
330
1F
100
AcDbEntity
  8
0
 62
     0
100
AcDbCircle
 10
20.00000000000001
 20
100.0
 30
34.99999999999998
 40
4.999999999999989
100
AcDbArc
 50
90.0
 51
180.0
  0
LINE
  5
35C
330
1F
100
AcDbEntity
  8
0
 62
     0
100
AcDbLine
 10
17.50000000000001
 20
104.3301270189222
 30
30.00000000000001
 11
17.50000000000001
 21
104.3301270189222
 31
34.99999999999998
  0
ARC
  5
35D
330
1F
100
AcDbEntity
  8
0
 62
     0
100
AcDbCircle
 10
20.00000000000001
 20
100.0
 30
30.00000000000001
 40
4.999999999999989
100
AcDbArc
 50
90.0
 51
180.0
  0
LINE
  5
35E
330
1F
100
AcDbEntity
  8
0
 62
     0
100
AcDbLine
 10
18.7059047744874
 20
104.8296291314453
 30
30.00000000000001
 11
18.7059047744874
 21
104.8296291314453
 31
34.99999999999998
  0
ARC
  5
35F
330
1F
100
AcDbEntity
  8
0
 62
     0
100
AcDbCircle
 10
20.00000000000001
 20
100.0
 30
34.99999999999998
 40
4.999999999999989
100
AcDbArc
 50
90.0
 51
180.0
  0
ARC
  5
360
330
1F
100
AcDbEntity
  8
0
 62
     0
100
AcDbCircle
 10
25.0
 20
25.0
 30
0.0
 40
4.999999999999991
100
AcDbArc
 50
180.0
 51
270.0
  0
LINE
  5
361
330
1F
100
AcDbEntity
  8
0
 62
     0
100
AcDbLine
 10
22.50000000000001
 20
20.66987298107783
 30
0.0
 11
22.50000000000001
 21
20.66987298107783
 31
30.00000000000001
  0
ARC
  5
362
330
1F
100
AcDbEntity
  8
0
 62
     0
100
AcDbCircle
 10
25.0
 20
25.0
 30
30.00000000000001
 40
4.999999999999991
100
AcDbArc
 50
180.0
 51
270.0
  0
LINE
  5
363
330
1F
100
AcDbEntity
  8
0
 62
     0
100
AcDbLine
 10
23.7059047744874
 20
20.17037086855467
 30
0.0
 11
23.7059047744874
 21
20.17037086855467
 31
30.00000000000001
  0
ARC
  5
364
330
1F
100
AcDbEntity
  8
0
 62
     0
100
AcDbCircle
 10
160.0
 20
20.00000000000001
 30
0.0
 40
20.00000000000001
100
AcDbArc
 50
270.0
 51
0.0
  0
LINE
  5
365
330
1F
100
AcDbEntity
  8
0
 62
     0
100
AcDbLine
 10
174.142135623731
 20
5.857864376269068
 30
0.0
 11
174.142135623731
 21
5.857864376269068
 31
34.99999999999998
  0
ARC
  5
366
330
1F
100
AcDbEntity
  8
0
 62
     0
100
AcDbCircle
 10
160.0
 20
20.00000000000001
 30
34.99999999999998
 40
20.00000000000001
100
AcDbArc
 50
270.0
 51
0.0
  0
LINE
  5
367
330
1F
100
AcDbEntity
  8
0
 62
     0
100
AcDbLine
 10
170.0
 20
2.679491924311248
 30
0.0
 11
170.0
 21
2.679491924311248
 31
34.99999999999998
  0
LINE
  5
368
330
1F
100
AcDbEntity
  8
0
 62
     0
100
AcDbLine
 10
20.00000000000001
 20
0.0
 30
0.0
 11
160.0
 21
0.0
 31
0.0
  0
LINE
  5
369
330
1F
100
AcDbEntity
  8
0
 62
     0
100
AcDbLine
 10
160.0
 20
0.0
 30
0.0
 11
160.0
 21
0.0
 31
34.99999999999998
  0
LINE
  5
36A
330
1F
100
AcDbEntity
  8
0
 62
     0
100
AcDbLine
 10
20.00000000000001
 20
0.0
 30
34.99999999999998
 11
160.0
 21
0.0
 31
34.99999999999998
  0
LINE
  5
36B
330
1F
100
AcDbEntity
  8
0
 62
     0
100
AcDbLine
 10
20.00000000000001
 20
0.0
 30
0.0
 11
20.00000000000001
 21
0.0
 31
34.99999999999998
  0
ARC
  5
36C
330
1F
100
AcDbEntity
  8
0
 62
     0
100
AcDbCircle
 10
25.0
 20
25.0
 30
0.0
 40
4.999999999999991
100
AcDbArc
 50
180.0
 51
270.0
  0
LINE
  5
36D
330
1F
100
AcDbEntity
  8
0
 62
     0
100
AcDbLine
 10
21.46446609406727
 20
21.46446609406725
 30
0.0
 11
21.46446609406727
 21
21.46446609406725
 31
30.00000000000001
  0
ARC
  5
36E
330
1F
100
AcDbEntity
  8
0
 62
     0
100
AcDbCircle
 10
25.0
 20
25.0
 30
30.00000000000001
 40
4.999999999999991
100
AcDbArc
 50
180.0
 51
270.0
  0
LINE
  5
36F
330
1F
100
AcDbEntity
  8
0
 62
     0
100
AcDbLine
 10
22.50000000000001
 20
20.66987298107783
 30
0.0
 11
22.50000000000001
 21
20.66987298107783
 31
30.00000000000001
  0
LINE
  5
370
330
1F
100
AcDbEntity
  8
0
 62
     0
100
AcDbLine
 10
17.50000000000003
 20
15.6698729810778
 30
30.00000000000001
 11
17.50000000000003
 21
15.6698729810778
 31
34.99999999999998
  0
ARC
  5
371
330
1F
100
AcDbEntity
  8
0
 62
     0
100
AcDbCircle
 10
20.00000000000001
 20
20.00000000000001
 30
30.00000000000001
 40
4.999999999999991
100
AcDbArc
 50
180.0
 51
270.0000000000003
  0
LINE
  5
372
330
1F
100
AcDbEntity
  8
0
 62
     0
100
AcDbLine
 10
16.46446609406729
 20
16.46446609406726
 30
30.00000000000001
 11
16.46446609406729
 21
16.46446609406726
 31
34.99999999999998
  0
ARC
  5
373
330
1F
100
AcDbEntity
  8
0
 62
     0
100
AcDbCircle
 10
20.00000000000001
 20
20.00000000000001
 30
34.99999999999998
 40
4.999999999999991
100
AcDbArc
 50
180.0
 51
270.0000000000003
  0
ARC
  5
374
330
1F
100
AcDbEntity
  8
0
 62
     0
100
AcDbCircle
 10
155.0
 20
25.0
 30
0.0
 40
4.999999999999991
100
AcDbArc
 50
270.0000000000002
 51
0.0
  0
LINE
  5
375
330
1F
100
AcDbEntity
  8
0
 62
     0
100
AcDbLine
 10
157.5
 20
20.66987298107783
 30
0.0
 11
157.5
 21
20.66987298107783
 31
30.00000000000001
  0
ARC
  5
376
330
1F
100
AcDbEntity
  8
0
 62
     0
100
AcDbCircle
 10
155.0
 20
25.0
 30
30.00000000000001
 40
4.999999999999991
100
AcDbArc
 50
270.0000000000002
 51
0.0
  0
LINE
  5
377
330
1F
100
AcDbEntity
  8
0
 62
     0
100
AcDbLine
 10
158.5355339059327
 20
21.46446609406725
 30
0.0
 11
158.5355339059327
 21
21.46446609406725
 31
30.00000000000001
  0
ARC
  5
378
330
1F
100
AcDbEntity
  8
0
 62
     0
100
AcDbCircle
 10
155.0
 20
95.0
 30
0.0
 40
5.000000000000012
100
AcDbArc
 50
0.0
 51
90.0
  0
LINE
  5
379
330
1F
100
AcDbEntity
  8
0
 62
     0
100
AcDbLine
 10
159.8296291314453
 20
96.29409522551263
 30
0.0
 11
159.8296291314453
 21
96.29409522551263
 31
30.00000000000001
  0
ARC
  5
37A
330
1F
100
AcDbEntity
  8
0
 62
     0
100
AcDbCircle
 10
155.0
 20
95.0
 30
30.00000000000001
 40
5.000000000000012
100
AcDbArc
 50
0.0
 51
90.0
  0
LINE
  5
37B
330
1F
100
AcDbEntity
  8
0
 62
     0
100
AcDbLine
 10
159.3301270189222
 20
97.50000000000003
 30
0.0
 11
159.3301270189222
 21
97.50000000000003
 31
30.00000000000001
  0
LINE
  5
37C
330
1F
100
AcDbEntity
  8
0
 62
     0
100
AcDbLine
 10
160.0
 20
95.0
 30
0.0
 11
160.0
 21
25.0
 31
0.0
  0
LINE
  5
37D
330
1F
100
AcDbEntity
  8
0
 62
     0
100
AcDbLine
 10
160.0
 20
25.0
 30
0.0
 11
160.0
 21
25.0
 31
30.00000000000001
  0
LINE
  5
37E
330
1F
100
AcDbEntity
  8
0
 62
     0
100
AcDbLine
 10
160.0
 20
95.0
 30
30.00000000000001
 11
160.0
 21
25.0
 31
30.00000000000001
  0
LINE
  5
37F
330
1F
100
AcDbEntity
  8
0
 62
     0
100
AcDbLine
 10
160.0
 20
95.0
 30
0.0
 11
160.0
 21
95.0
 31
30.00000000000001
  0
LINE
  5
380
330
1F
100
AcDbEntity
  8
0
 62
     0
100
AcDbLine
 10
20.00000000000004
 20
15.00000000000002
 30
30.00000000000001
 11
20.00000000000004
 21
15.00000000000002
 31
34.99999999999998
  0
ARC
  5
381
330
1F
100
AcDbEntity
  8
0
 62
     0
100
AcDbCircle
 10
20.00000000000001
 20
20.00000000000001
 30
30.00000000000001
 40
4.999999999999991
100
AcDbArc
 50
180.0
 51
270.0000000000003
  0
LINE
  5
382
330
1F
100
AcDbEntity
  8
0
 62
     0
100
AcDbLine
 10
18.70590477448743
 20
15.17037086855468
 30
30.00000000000001
 11
18.70590477448743
 21
15.17037086855468
 31
34.99999999999998
  0
ARC
  5
383
330
1F
100
AcDbEntity
  8
0
 62
     0
100
AcDbCircle
 10
20.00000000000001
 20
20.00000000000001
 30
34.99999999999998
 40
4.999999999999991
100
AcDbArc
 50
180.0
 51
270.0000000000003
  0
ARC
  5
384
330
1F
100
AcDbEntity
  8
0
 62
     0
100
AcDbCircle
 10
20.00000000000001
 20
100.0
 30
0.0
 40
19.99999999999999
100
AcDbArc
 50
90.0
 51
180.0
  0
LINE
  5
385
330
1F
100
AcDbEntity
  8
0
 62
     0
100
AcDbLine
 10
10.00000000000001
 20
117.3205080756888
 30
0.0
 11
10.00000000000001
 21
117.3205080756888
 31
34.99999999999998
  0
ARC
  5
386
330
1F
100
AcDbEntity
  8
0
 62
     0
100
AcDbCircle
 10
20.00000000000001
 20
100.0
 30
34.99999999999998
 40
19.99999999999999
100
AcDbArc
 50
90.0
 51
180.0
  0
LINE
  5
387
330
1F
100
AcDbEntity
  8
0
 62
     0
100
AcDbLine
 10
14.82361909794959
 20
119.3185165257813
 30
0.0
 11
14.82361909794959
 21
119.3185165257813
 31
34.99999999999998
  0
ARC
  5
388
330
1F
100
AcDbEntity
  8
0
 62
     0
100
AcDbCircle
 10
160.0
 20
100.0
 30
0.0
 40
4.999999999999991
100
AcDbArc
 50
0.0
 51
90.0
  0
LINE
  5
389
330
1F
100
AcDbEntity
  8
0
 62
     0
100
AcDbLine
 10
162.5
 20
104.3301270189222
 30
0.0
 11
162.5
 21
104.3301270189222
 31
30.00000000000001
  0
ARC
  5
38A
330
1F
100
AcDbEntity
  8
0
 62
     0
100
AcDbCircle
 10
160.0
 20
100.0
 30
30.00000000000001
 40
4.999999999999991
100
AcDbArc
 50
0.0
 51
90.0
  0
LINE
  5
38B
330
1F
100
AcDbEntity
  8
0
 62
     0
100
AcDbLine
 10
161.2940952255126
 20
104.8296291314453
 30
0.0
 11
161.2940952255126
 21
104.8296291314453
 31
30.00000000000001
  0
LINE
  5
38C
330
1F
100
AcDbEntity
  8
0
 62
     0
100
AcDbLine
 10
15.66987298107782
 20
102.5
 30
30.00000000000001
 11
15.66987298107782
 21
102.5
 31
34.99999999999998
  0
ARC
  5
38D
330
1F
100
AcDbEntity
  8
0
 62
     0
100
AcDbCircle
 10
20.00000000000001
 20
100.0
 30
30.00000000000001
 40
4.999999999999989
100
AcDbArc
 50
90.0
 51
180.0
  0
LINE
  5
38E
330
1F
100
AcDbEntity
  8
0
 62
     0
100
AcDbLine
 10
16.46446609406728
 20
103.5355339059327
 30
30.00000000000001
 11
16.46446609406728
 21
103.5355339059327
 31
34.99999999999998
  0
ARC
  5
38F
330
1F
100
AcDbEntity
  8
0
 62
     0
100
AcDbCircle
 10
20.00000000000001
 20
100.0
 30
34.99999999999998
 40
4.999999999999989
100
AcDbArc
 50
90.0
 51
180.0
  0
ARC
  5
390
330
1F
100
AcDbEntity
  8
0
 62
     0
100
AcDbCircle
 10
160.0
 20
20.00000000000001
 30
0.0
 40
4.999999999999991
100
AcDbArc
 50
270.0
 51
0.0
  0
LINE
  5
391
330
1F
100
AcDbEntity
  8
0
 62
     0
100
AcDbLine
 10
164.8296291314453
 20
18.70590477448743
 30
0.0
 11
164.8296291314453
 21
18.70590477448743
 31
30.00000000000001
  0
ARC
  5
392
330
1F
100
AcDbEntity
  8
0
 62
     0
100
AcDbCircle
 10
160.0
 20
20.00000000000001
 30
30.00000000000001
 40
4.999999999999991
100
AcDbArc
 50
270.0
 51
0.0
  0
LINE
  5
393
330
1F
100
AcDbEntity
  8
0
 62
     0
100
AcDbLine
 10
165.0
 20
20.00000000000001
 30
0.0
 11
165.0
 21
20.00000000000001
 31
30.00000000000001
  0
ARC
  5
394
330
1F
100
AcDbEntity
  8
0
 62
     0
100
AcDbCircle
 10
160.0
 20
100.0
 30
0.0
 40
4.999999999999991
100
AcDbArc
 50
0.0
 51
90.0
  0
LINE
  5
395
330
1F
100
AcDbEntity
  8
0
 62
     0
100
AcDbLine
 10
161.2940952255126
 20
104.8296291314453
 30
0.0
 11
161.2940952255126
 21
104.8296291314453
 31
30.00000000000001
  0
ARC
  5
396
330
1F
100
AcDbEntity
  8
0
 62
     0
100
AcDbCircle
 10
160.0
 20
100.0
 30
30.00000000000001
 40
4.999999999999991
100
AcDbArc
 50
0.0
 51
90.0
  0
LINE
  5
397
330
1F
100
AcDbEntity
  8
0
 62
     0
100
AcDbLine
 10
160.0
 20
105.0
 30
0.0
 11
160.0
 21
105.0
 31
30.00000000000001
  0
ARC
  5
398
330
1F
100
AcDbEntity
  8
0
 62
     0
100
AcDbCircle
 10
160.0
 20
100.0
 30
0.0
 40
4.999999999999991
100
AcDbArc
 50
0.0
 51
90.0
  0
LINE
  5
399
330
1F
100
AcDbEntity
  8
0
 62
     0
100
AcDbLine
 10
164.3301270189222
 20
102.5
 30
0.0
 11
164.3301270189222
 21
102.5
 31
30.00000000000001
  0
ARC
  5
39A
330
1F
100
AcDbEntity
  8
0
 62
     0
100
AcDbCircle
 10
160.0
 20
100.0
 30
30.00000000000001
 40
4.999999999999991
100
AcDbArc
 50
0.0
 51
90.0
  0
LINE
  5
39B
330
1F
100
AcDbEntity
  8
0
 62
     0
100
AcDbLine
 10
163.5355339059327
 20
103.5355339059327
 30
0.0
 11
163.5355339059327
 21
103.5355339059327
 31
30.00000000000001
  0
ARC
  5
39C
330
1F
100
AcDbEntity
  8
0
 62
     0
100
AcDbCircle
 10
160.0
 20
100.0
 30
0.0
 40
20.00000000000001
100
AcDbArc
 50
0.0
 51
90.0
  0
LINE
  5
39D
330
1F
100
AcDbEntity
  8
0
 62
     0
100
AcDbLine
 10
170.0
 20
117.3205080756888
 30
0.0
 11
170.0
 21
117.3205080756888
 31
34.99999999999998
  0
ARC
  5
39E
330
1F
100
AcDbEntity
  8
0
 62
     0
100
AcDbCircle
 10
160.0
 20
100.0
 30
34.99999999999998
 40
20.00000000000001
100
AcDbArc
 50
0.0
 51
90.0
  0
LINE
  5
39F
330
1F
100
AcDbEntity
  8
0
 62
     0
100
AcDbLine
 10
174.142135623731
 20
114.1421356237309
 30
0.0
 11
174.142135623731
 21
114.1421356237309
 31
34.99999999999998
  0
ARC
  5
3A0
330
1F
100
AcDbEntity
  8
0
 62
     0
100
AcDbCircle
 10
160.0
 20
20.00000000000001
 30
0.0
 40
4.999999999999991
100
AcDbArc
 50
270.0
 51
0.0
  0
LINE
  5
3A1
330
1F
100
AcDbEntity
  8
0
 62
     0
100
AcDbLine
 10
164.3301270189222
 20
17.49999999999999
 30
0.0
 11
164.3301270189222
 21
17.49999999999999
 31
30.00000000000001
  0
ARC
  5
3A2
330
1F
100
AcDbEntity
  8
0
 62
     0
100
AcDbCircle
 10
160.0
 20
20.00000000000001
 30
30.00000000000001
 40
4.999999999999991
100
AcDbArc
 50
270.0
 51
0.0
  0
LINE
  5
3A3
330
1F
100
AcDbEntity
  8
0
 62
     0
100
AcDbLine
 10
164.8296291314453
 20
18.70590477448743
 30
0.0
 11
164.8296291314453
 21
18.70590477448743
 31
30.00000000000001
  0
ARC
  5
3A4
330
1F
100
AcDbEntity
  8
0
 62
     0
100
AcDbCircle
 10
160.0
 20
20.00000000000001
 30
0.0
 40
20.00000000000001
100
AcDbArc
 50
270.0
 51
0.0
  0
LINE
  5
3A5
330
1F
100
AcDbEntity
  8
0
 62
     0
100
AcDbLine
 10
180.0
 20
20.00000000000001
 30
0.0
 11
180.0
 21
20.00000000000001
 31
34.99999999999998
  0
ARC
  5
3A6
330
1F
100
AcDbEntity
  8
0
 62
     0
100
AcDbCircle
 10
160.0
 20
20.00000000000001
 30
34.99999999999998
 40
20.00000000000001
100
AcDbArc
 50
270.0
 51
0.0
  0
LINE
  5
3A7
330
1F
100
AcDbEntity
  8
0
 62
     0
100
AcDbLine
 10
179.3185165257814
 20
14.8236190979496
 30
0.0
 11
179.3185165257814
 21
14.8236190979496
 31
34.99999999999998
  0
ARC
  5
3A8
330
1F
100
AcDbEntity
  8
0
 62
     0
100
AcDbCircle
 10
160.0
 20
100.0
 30
0.0
 40
20.00000000000001
100
AcDbArc
 50
0.0
 51
90.0
  0
LINE
  5
3A9
330
1F
100
AcDbEntity
  8
0
 62
     0
100
AcDbLine
 10
160.0
 20
120.0
 30
0.0
 11
160.0
 21
120.0
 31
34.99999999999998
  0
ARC
  5
3AA
330
1F
100
AcDbEntity
  8
0
 62
     0
100
AcDbCircle
 10
160.0
 20
100.0
 30
34.99999999999998
 40
20.00000000000001
100
AcDbArc
 50
0.0
 51
90.0
  0
LINE
  5
3AB
330
1F
100
AcDbEntity
  8
0
 62
     0
100
AcDbLine
 10
165.1763809020504
 20
119.3185165257813
 30
0.0
 11
165.1763809020504
 21
119.3185165257813
 31
34.99999999999998
  0
LINE
  5
3AC
330
1F
100
AcDbEntity
  8
0
 62
     0
100
AcDbLine
 10
160.0
 20
120.0
 30
34.99999999999998
 11
20.00000000000001
 21
120.0
 31
34.99999999999998
  0
ARC
  5
3AD
330
1F
100
AcDbEntity
  8
0
 62
     0
100
AcDbCircle
 10
20.00000000000001
 20
100.0
 30
34.99999999999998
 40
19.99999999999999
100
AcDbArc
 50
90.0
 51
180.0
  0
LINE
  5
3AE
330
1F
100
AcDbEntity
  8
0
 62
     0
100
AcDbLine
 10
0.0
 20
100.0
 30
34.99999999999998
 11
0.0000000000000056
 21
20.00000000000001
 31
34.99999999999998
  0
ARC
  5
3AF
330
1F
100
AcDbEntity
  8
0
 62
     0
100
AcDbCircle
 10
20.00000000000001
 20
20.00000000000001
 30
34.99999999999998
 40
20.00000000000001
100
AcDbArc
 50
180.0
 51
270.0
  0
LINE
  5
3B0
330
1F
100
AcDbEntity
  8
0
 62
     0
100
AcDbLine
 10
20.00000000000001
 20
0.0
 30
34.99999999999998
 11
160.0
 21
0.0
 31
34.99999999999998
  0
ARC
  5
3B1
330
1F
100
AcDbEntity
  8
0
 62
     0
100
AcDbCircle
 10
160.0
 20
20.00000000000001
 30
34.99999999999998
 40
20.00000000000001
100
AcDbArc
 50
270.0
 51
0.0
  0
LINE
  5
3B2
330
1F
100
AcDbEntity
  8
0
 62
     0
100
AcDbLine
 10
180.0
 20
20.00000000000001
 30
34.99999999999998
 11
180.0
 21
100.0
 31
34.99999999999998
  0
ARC
  5
3B3
330
1F
100
AcDbEntity
  8
0
 62
     0
100
AcDbCircle
 10
160.0
 20
100.0
 30
34.99999999999998
 40
20.00000000000001
100
AcDbArc
 50
0.0
 51
90.0
  0
LINE
  5
3B4
330
1F
100
AcDbEntity
  8
0
 62
     0
100
AcDbLine
 10
20.00000000000001
 20
105.0
 30
34.99999999999998
 11
160.0
 21
105.0
 31
34.99999999999998
  0
ARC
  5
3B5
330
1F
100
AcDbEntity
  8
0
 62
     0
100
AcDbCircle
 10
160.0
 20
100.0
 30
34.99999999999998
 40
4.999999999999991
100
AcDbArc
 50
0.0
 51
90.0
  0
LINE
  5
3B6
330
1F
100
AcDbEntity
  8
0
 62
     0
100
AcDbLine
 10
165.0
 20
100.0
 30
34.99999999999998
 11
165.0
 21
20.00000000000001
 31
34.99999999999998
  0
ARC
  5
3B7
330
1F
100
AcDbEntity
  8
0
 62
     0
100
AcDbCircle
 10
160.0
 20
20.00000000000001
 30
34.99999999999998
 40
4.999999999999991
100
AcDbArc
 50
270.0
 51
0.0
  0
LINE
  5
3B8
330
1F
100
AcDbEntity
  8
0
 62
     0
100
AcDbLine
 10
160.0
 20
15.00000000000002
 30
34.99999999999998
 11
20.00000000000004
 21
15.00000000000002
 31
34.99999999999998
  0
ARC
  5
3B9
330
1F
100
AcDbEntity
  8
0
 62
     0
100
AcDbCircle
 10
20.00000000000001
 20
20.00000000000001
 30
34.99999999999998
 40
4.999999999999991
100
AcDbArc
 50
180.0
 51
270.0000000000003
  0
LINE
  5
3BA
330
1F
100
AcDbEntity
  8
0
 62
     0
100
AcDbLine
 10
15.0
 20
20.00000000000001
 30
34.99999999999998
 11
15.00000000000001
 21
100.0
 31
34.99999999999998
  0
ARC
  5
3BB
330
1F
100
AcDbEntity
  8
0
 62
     0
100
AcDbCircle
 10
20.00000000000001
 20
100.0
 30
34.99999999999998
 40
4.999999999999989
100
AcDbArc
 50
90.0
 51
180.0
  0
ARC
  5
3BC
330
1F
100
AcDbEntity
  8
0
 62
     0
100
AcDbCircle
 10
160.0
 20
20.00000000000001
 30
0.0
 40
20.00000000000001
100
AcDbArc
 50
270.0
 51
0.0
  0
LINE
  5
3BD
330
1F
100
AcDbEntity
  8
0
 62
     0
100
AcDbLine
 10
179.3185165257814
 20
14.8236190979496
 30
0.0
 11
179.3185165257814
 21
14.8236190979496
 31
34.99999999999998
  0
ARC
  5
3BE
330
1F
100
AcDbEntity
  8
0
 62
     0
100
AcDbCircle
 10
160.0
 20
20.00000000000001
 30
34.99999999999998
 40
20.00000000000001
100
AcDbArc
 50
270.0
 51
0.0
  0
LINE
  5
3BF
330
1F
100
AcDbEntity
  8
0
 62
     0
100
AcDbLine
 10
177.3205080756888
 20
9.999999999999982
 30
0.0
 11
177.3205080756888
 21
9.999999999999982
 31
34.99999999999998
  0
LINE
  5
3C0
330
1F
100
AcDbEntity
  8
0
 62
     0
100
AcDbLine
 10
160.0
 20
120.0
 30
0.0
 11
20.00000000000001
 21
120.0
 31
0.0
  0
ARC
  5
3C1
330
1F
100
AcDbEntity
  8
0
 62
     0
100
AcDbCircle
 10
20.00000000000001
 20
100.0
 30
0.0
 40
19.99999999999999
100
AcDbArc
 50
90.0
 51
180.0
  0
LINE
  5
3C2
330
1F
100
AcDbEntity
  8
0
 62
     0
100
AcDbLine
 10
0.0
 20
100.0
 30
0.0
 11
0.0000000000000056
 21
20.00000000000001
 31
0.0
  0
ARC
  5
3C3
330
1F
100
AcDbEntity
  8
0
 62
     0
100
AcDbCircle
 10
20.00000000000001
 20
20.00000000000001
 30
0.0
 40
20.00000000000001
100
AcDbArc
 50
180.0
 51
270.0
  0
LINE
  5
3C4
330
1F
100
AcDbEntity
  8
0
 62
     0
100
AcDbLine
 10
20.00000000000001
 20
0.0
 30
0.0
 11
160.0
 21
0.0
 31
0.0
  0
ARC
  5
3C5
330
1F
100
AcDbEntity
  8
0
 62
     0
100
AcDbCircle
 10
160.0
 20
20.00000000000001
 30
0.0
 40
20.00000000000001
100
AcDbArc
 50
270.0
 51
0.0
  0
LINE
  5
3C6
330
1F
100
AcDbEntity
  8
0
 62
     0
100
AcDbLine
 10
180.0
 20
20.00000000000001
 30
0.0
 11
180.0
 21
100.0
 31
0.0
  0
ARC
  5
3C7
330
1F
100
AcDbEntity
  8
0
 62
     0
100
AcDbCircle
 10
160.0
 20
100.0
 30
0.0
 40
20.00000000000001
100
AcDbArc
 50
0.0
 51
90.0
  0
LINE
  5
3C8
330
1F
100
AcDbEntity
  8
0
 62
     0
100
AcDbLine
 10
20.00000000000001
 20
105.0
 30
0.0
 11
160.0
 21
105.0
 31
0.0
  0
ARC
  5
3C9
330
1F
100
AcDbEntity
  8
0
 62
     0
100
AcDbCircle
 10
160.0
 20
100.0
 30
0.0
 40
4.999999999999991
100
AcDbArc
 50
0.0
 51
90.0
  0
LINE
  5
3CA
330
1F
100
AcDbEntity
  8
0
 62
     0
100
AcDbLine
 10
165.0
 20
100.0
 30
0.0
 11
165.0
 21
20.00000000000001
 31
0.0
  0
ARC
  5
3CB
330
1F
100
AcDbEntity
  8
0
 62
     0
100
AcDbCircle
 10
160.0
 20
20.00000000000001
 30
0.0
 40
4.999999999999991
100
AcDbArc
 50
270.0
 51
0.0
  0
LINE
  5
3CC
330
1F
100
AcDbEntity
  8
0
 62
     0
100
AcDbLine
 10
160.0
 20
15.00000000000002
 30
0.0
 11
20.00000000000004
 21
15.00000000000002
 31
0.0
  0
ARC
  5
3CD
330
1F
100
AcDbEntity
  8
0
 62
     0
100
AcDbCircle
 10
20.00000000000001
 20
20.00000000000001
 30
0.0
 40
4.999999999999991
100
AcDbArc
 50
180.0
 51
270.0000000000003
  0
LINE
  5
3CE
330
1F
100
AcDbEntity
  8
0
 62
     0
100
AcDbLine
 10
15.0
 20
20.00000000000001
 30
0.0
 11
15.00000000000001
 21
100.0
 31
0.0
  0
ARC
  5
3CF
330
1F
100
AcDbEntity
  8
0
 62
     0
100
AcDbCircle
 10
20.00000000000001
 20
100.0
 30
0.0
 40
4.999999999999989
100
AcDbArc
 50
90.0
 51
180.0
  0
LINE
  5
3D0
330
1F
100
AcDbEntity
  8
0
 62
     0
100
AcDbLine
 10
160.0
 20
120.0
 30
0.0
 11
20.00000000000001
 21
120.0
 31
0.0
  0
LINE
  5
3D1
330
1F
100
AcDbEntity
  8
0
 62
     0
100
AcDbLine
 10
20.00000000000001
 20
120.0
 30
0.0
 11
20.00000000000001
 21
120.0
 31
34.99999999999998
  0
LINE
  5
3D2
330
1F
100
AcDbEntity
  8
0
 62
     0
100
AcDbLine
 10
160.0
 20
120.0
 30
34.99999999999998
 11
20.00000000000001
 21
120.0
 31
34.99999999999998
  0
LINE
  5
3D3
330
1F
100
AcDbEntity
  8
0
 62
     0
100
AcDbLine
 10
160.0
 20
120.0
 30
0.0
 11
160.0
 21
120.0
 31
34.99999999999998
  0
ARC
  5
3D4
330
1F
100
AcDbEntity
  8
0
 62
     0
100
AcDbCircle
 10
160.0
 20
100.0
 30
0.0
 40
20.00000000000001
100
AcDbArc
 50
0.0
 51
90.0
  0
LINE
  5
3D5
330
1F
100
AcDbEntity
  8
0
 62
     0
100
AcDbLine
 10
165.1763809020504
 20
119.3185165257813
 30
0.0
 11
165.1763809020504
 21
119.3185165257813
 31
34.99999999999998
  0
ARC
  5
3D6
330
1F
100
AcDbEntity
  8
0
 62
     0
100
AcDbCircle
 10
160.0
 20
100.0
 30
34.99999999999998
 40
20.00000000000001
100
AcDbArc
 50
0.0
 51
90.0
  0
LINE
  5
3D7
330
1F
100
AcDbEntity
  8
0
 62
     0
100
AcDbLine
 10
170.0
 20
117.3205080756888
 30
0.0
 11
170.0
 21
117.3205080756888
 31
34.99999999999998
  0
ARC
  5
3D8
330
1F
100
AcDbEntity
  8
0
 62
     0
100
AcDbCircle
 10
160.0
 20
100.0
 30
0.0
 40
20.00000000000001
100
AcDbArc
 50
0.0
 51
90.0
  0
LINE
  5
3D9
330
1F
100
AcDbEntity
  8
0
 62
     0
100
AcDbLine
 10
174.142135623731
 20
114.1421356237309
 30
0.0
 11
174.142135623731
 21
114.1421356237309
 31
34.99999999999998
  0
ARC
  5
3DA
330
1F
100
AcDbEntity
  8
0
 62
     0
100
AcDbCircle
 10
160.0
 20
100.0
 30
34.99999999999998
 40
20.00000000000001
100
AcDbArc
 50
0.0
 51
90.0
  0
LINE
  5
3DB
330
1F
100
AcDbEntity
  8
0
 62
     0
100
AcDbLine
 10
177.3205080756888
 20
110.0
 30
0.0
 11
177.3205080756888
 21
110.0
 31
34.99999999999998
  0
ARC
  5
3DC
330
1F
100
AcDbEntity
  8
0
 62
     0
100
AcDbCircle
 10
160.0
 20
100.0
 30
0.0
 40
4.999999999999991
100
AcDbArc
 50
0.0
 51
90.0
  0
LINE
  5
3DD
330
1F
100
AcDbEntity
  8
0
 62
     0
100
AcDbLine
 10
164.8296291314453
 20
101.2940952255126
 30
0.0
 11
164.8296291314453
 21
101.2940952255126
 31
30.00000000000001
  0
ARC
  5
3DE
330
1F
100
AcDbEntity
  8
0
 62
     0
100
AcDbCircle
 10
160.0
 20
100.0
 30
30.00000000000001
 40
4.999999999999991
100
AcDbArc
 50
0.0
 51
90.0
  0
LINE
  5
3DF
330
1F
100
AcDbEntity
  8
0
 62
     0
100
AcDbLine
 10
164.3301270189222
 20
102.5
 30
0.0
 11
164.3301270189222
 21
102.5
 31
30.00000000000001
  0
LINE
  5
3E0
330
1F
100
AcDbEntity
  8
0
 62
     0
100
AcDbLine
 10
20.00000000000001
 20
105.0
 30
0.0
 11
160.0
 21
105.0
 31
0.0
  0
LINE
  5
3E1
330
1F
100
AcDbEntity
  8
0
 62
     0
100
AcDbLine
 10
160.0
 20
105.0
 30
0.0
 11
160.0
 21
105.0
 31
30.00000000000001
  0
LINE
  5
3E2
330
1F
100
AcDbEntity
  8
0
 62
     0
100
AcDbLine
 10
20.00000000000001
 20
105.0
 30
30.00000000000001
 11
160.0
 21
105.0
 31
30.00000000000001
  0
LINE
  5
3E3
330
1F
100
AcDbEntity
  8
0
 62
     0
100
AcDbLine
 10
20.00000000000001
 20
105.0
 30
0.0
 11
20.00000000000001
 21
105.0
 31
30.00000000000001
  0
LINE
  5
3E4
330
1F
100
AcDbEntity
  8
0
 62
     0
100
AcDbLine
 10
18.70590477448743
 20
15.17037086855468
 30
30.00000000000001
 11
18.70590477448743
 21
15.17037086855468
 31
34.99999999999998
  0
ARC
  5
3E5
330
1F
100
AcDbEntity
  8
0
 62
     0
100
AcDbCircle
 10
20.00000000000001
 20
20.00000000000001
 30
30.00000000000001
 40
4.999999999999991
100
AcDbArc
 50
180.0
 51
270.0000000000003
  0
LINE
  5
3E6
330
1F
100
AcDbEntity
  8
0
 62
     0
100
AcDbLine
 10
17.50000000000003
 20
15.6698729810778
 30
30.00000000000001
 11
17.50000000000003
 21
15.6698729810778
 31
34.99999999999998
  0
ARC
  5
3E7
330
1F
100
AcDbEntity
  8
0
 62
     0
100
AcDbCircle
 10
20.00000000000001
 20
20.00000000000001
 30
34.99999999999998
 40
4.999999999999991
100
AcDbArc
 50
180.0
 51
270.0000000000003
  0
ARC
  5
3E8
330
1F
100
AcDbEntity
  8
0
 62
     0
100
AcDbCircle
 10
160.0
 20
100.0
 30
0.0
 40
20.00000000000001
100
AcDbArc
 50
0.0
 51
90.0
  0
LINE
  5
3E9
330
1F
100
AcDbEntity
  8
0
 62
     0
100
AcDbLine
 10
179.3185165257814
 20
105.1763809020504
 30
0.0
 11
179.3185165257814
 21
105.1763809020504
 31
34.99999999999998
  0
ARC
  5
3EA
330
1F
100
AcDbEntity
  8
0
 62
     0
100
AcDbCircle
 10
160.0
 20
100.0
 30
34.99999999999998
 40
20.00000000000001
100
AcDbArc
 50
0.0
 51
90.0
  0
LINE
  5
3EB
330
1F
100
AcDbEntity
  8
0
 62
     0
100
AcDbLine
 10
180.0
 20
100.0
 30
0.0
 11
180.0
 21
100.0
 31
34.99999999999998
  0
LINE
  5
3EC
330
1F
100
AcDbEntity
  8
0
 62
     0
100
AcDbLine
 10
16.46446609406728
 20
103.5355339059327
 30
30.00000000000001
 11
16.46446609406728
 21
103.5355339059327
 31
34.99999999999998
  0
ARC
  5
3ED
330
1F
100
AcDbEntity
  8
0
 62
     0
100
AcDbCircle
 10
20.00000000000001
 20
100.0
 30
30.00000000000001
 40
4.999999999999989
100
AcDbArc
 50
90.0
 51
180.0
  0
LINE
  5
3EE
330
1F
100
AcDbEntity
  8
0
 62
     0
100
AcDbLine
 10
17.50000000000001
 20
104.3301270189222
 30
30.00000000000001
 11
17.50000000000001
 21
104.3301270189222
 31
34.99999999999998
  0
ARC
  5
3EF
330
1F
100
AcDbEntity
  8
0
 62
     0
100
AcDbCircle
 10
20.00000000000001
 20
100.0
 30
34.99999999999998
 40
4.999999999999989
100
AcDbArc
 50
90.0
 51
180.0
  0
LINE
  5
3F0
330
1F
100
AcDbEntity
  8
0
 62
     0
100
AcDbLine
 10
15.17037086855468
 20
18.70590477448738
 30
30.00000000000001
 11
15.17037086855468
 21
18.70590477448738
 31
34.99999999999998
  0
ARC
  5
3F1
330
1F
100
AcDbEntity
  8
0
 62
     0
100
AcDbCircle
 10
20.00000000000001
 20
20.00000000000001
 30
30.00000000000001
 40
4.999999999999991
100
AcDbArc
 50
180.0
 51
270.0000000000003
  0
LINE
  5
3F2
330
1F
100
AcDbEntity
  8
0
 62
     0
100
AcDbLine
 10
15.0
 20
20.00000000000001
 30
30.00000000000001
 11
15.0
 21
20.00000000000001
 31
34.99999999999998
  0
ARC
  5
3F3
330
1F
100
AcDbEntity
  8
0
 62
     0
100
AcDbCircle
 10
20.00000000000001
 20
20.00000000000001
 30
34.99999999999998
 40
4.999999999999991
100
AcDbArc
 50
180.0
 51
270.0000000000003
  0
LINE
  5
3F4
330
1F
100
AcDbEntity
  8
0
 62
     0
100
AcDbLine
 10
180.0
 20
20.00000000000001
 30
0.0
 11
180.0
 21
100.0
 31
0.0
  0
LINE
  5
3F5
330
1F
100
AcDbEntity
  8
0
 62
     0
100
AcDbLine
 10
180.0
 20
100.0
 30
0.0
 11
180.0
 21
100.0
 31
34.99999999999998
  0
LINE
  5
3F6
330
1F
100
AcDbEntity
  8
0
 62
     0
100
AcDbLine
 10
180.0
 20
20.00000000000001
 30
34.99999999999998
 11
180.0
 21
100.0
 31
34.99999999999998
  0
LINE
  5
3F7
330
1F
100
AcDbEntity
  8
0
 62
     0
100
AcDbLine
 10
180.0
 20
20.00000000000001
 30
0.0
 11
180.0
 21
20.00000000000001
 31
34.99999999999998
  0
ARC
  5
3F8
330
1F
100
AcDbEntity
  8
0
 62
     0
100
AcDbCircle
 10
20.00000000000001
 20
100.0
 30
0.0
 40
4.999999999999989
100
AcDbArc
 50
90.0
 51
180.0
  0
LINE
  5
3F9
330
1F
100
AcDbEntity
  8
0
 62
     0
100
AcDbLine
 10
15.0
 20
20.00000000000001
 30
0.0
 11
15.00000000000001
 21
100.0
 31
0.0
  0
ARC
  5
3FA
330
1F
100
AcDbEntity
  8
0
 62
     0
100
AcDbCircle
 10
20.00000000000001
 20
20.00000000000001
 30
0.0
 40
4.999999999999991
100
AcDbArc
 50
180.0
 51
270.0000000000003
  0
LINE
  5
3FB
330
1F
100
AcDbEntity
  8
0
 62
     0
100
AcDbLine
 10
160.0
 20
15.00000000000002
 30
0.0
 11
20.00000000000004
 21
15.00000000000002
 31
0.0
  0
ARC
  5
3FC
330
1F
100
AcDbEntity
  8
0
 62
     0
100
AcDbCircle
 10
160.0
 20
20.00000000000001
 30
0.0
 40
4.999999999999991
100
AcDbArc
 50
270.0
 51
0.0
  0
LINE
  5
3FD
330
1F
100
AcDbEntity
  8
0
 62
     0
100
AcDbLine
 10
165.0
 20
100.0
 30
0.0
 11
165.0
 21
20.00000000000001
 31
0.0
  0
ARC
  5
3FE
330
1F
100
AcDbEntity
  8
0
 62
     0
100
AcDbCircle
 10
160.0
 20
100.0
 30
0.0
 40
4.999999999999991
100
AcDbArc
 50
0.0
 51
90.0
  0
LINE
  5
3FF
330
1F
100
AcDbEntity
  8
0
 62
     0
100
AcDbLine
 10
20.00000000000001
 20
105.0
 30
0.0
 11
160.0
 21
105.0
 31
0.0
  0
LINE
  5
400
330
1F
100
AcDbEntity
  8
0
 62
     0
100
AcDbLine
 10
20.0
 20
95.0
 30
0.0
 11
20.0
 21
25.0
 31
0.0
  0
ARC
  5
401
330
1F
100
AcDbEntity
  8
0
 62
     0
100
AcDbCircle
 10
25.0
 20
95.0
 30
0.0
 40
4.999999999999991
100
AcDbArc
 50
89.99999999999997
 51
180.0
  0
LINE
  5
402
330
1F
100
AcDbEntity
  8
0
 62
     0
100
AcDbLine
 10
25.00000000000001
 20
100.0
 30
0.0
 11
155.0
 21
100.0
 31
0.0
  0
ARC
  5
403
330
1F
100
AcDbEntity
  8
0
 62
     0
100
AcDbCircle
 10
155.0
 20
95.0
 30
0.0
 40
5.000000000000012
100
AcDbArc
 50
0.0
 51
90.0
  0
LINE
  5
404
330
1F
100
AcDbEntity
  8
0
 62
     0
100
AcDbLine
 10
160.0
 20
95.0
 30
0.0
 11
160.0
 21
25.0
 31
0.0
  0
ARC
  5
405
330
1F
100
AcDbEntity
  8
0
 62
     0
100
AcDbCircle
 10
155.0
 20
25.0
 30
0.0
 40
4.999999999999991
100
AcDbArc
 50
270.0000000000002
 51
0.0
  0
LINE
  5
406
330
1F
100
AcDbEntity
  8
0
 62
     0
100
AcDbLine
 10
155.0
 20
20.00000000000001
 30
0.0
 11
25.0
 21
20.00000000000001
 31
0.0
  0
ARC
  5
407
330
1F
100
AcDbEntity
  8
0
 62
     0
100
AcDbCircle
 10
25.0
 20
25.0
 30
0.0
 40
4.999999999999991
100
AcDbArc
 50
180.0
 51
270.0
  0
ARC
  5
408
330
1F
100
AcDbEntity
  8
0
 62
     0
100
AcDbCircle
 10
160.0
 20
100.0
 30
0.0
 40
20.00000000000001
100
AcDbArc
 50
0.0
 51
90.0
  0
LINE
  5
409
330
1F
100
AcDbEntity
  8
0
 62
     0
100
AcDbLine
 10
177.3205080756888
 20
110.0
 30
0.0
 11
177.3205080756888
 21
110.0
 31
34.99999999999998
  0
ARC
  5
40A
330
1F
100
AcDbEntity
  8
0
 62
     0
100
AcDbCircle
 10
160.0
 20
100.0
 30
34.99999999999998
 40
20.00000000000001
100
AcDbArc
 50
0.0
 51
90.0
  0
LINE
  5
40B
330
1F
100
AcDbEntity
  8
0
 62
     0
100
AcDbLine
 10
179.3185165257814
 20
105.1763809020504
 30
0.0
 11
179.3185165257814
 21
105.1763809020504
 31
34.99999999999998
  0
ENDSEC
  0
SECTION
  2
OBJECTS
  0
DICTIONARY
  5
C
330
0
100
AcDbDictionary
  3
ACAD_GROUP
350
D
  3
ACAD_LAYOUT
350
1A
  3
ACAD_MATERIAL
350
43
  3
ACAD_MLEADERSTYLE
350
6B
  3
ACAD_MLINESTYLE
350
17
  3
ACAD_PLOTSETTINGS
350
19
  3
ACAD_SCALELIST
350
47
  3
ACAD_VISUALSTYLE
350
2A
  3
ACDBHEADERROUNDTRIPXREC
350
40C
  3
ACDBVARIABLEDICTIONARY
350
42D
  0
DICTIONARY
  5
434
330
8
100
AcDbDictionary
280
     1
  3
ACAD_XREC_ROUNDTRIP
360
435
  0
DICTIONARY
  5
D
102
{ACAD_REACTORS
330
C
102
}
330
C
100
AcDbDictionary
  0
DICTIONARY
  5
1A
102
{ACAD_REACTORS
330
C
102
}
330
C
100
AcDbDictionary
  0
DICTIONARY
  5
43
102
{ACAD_REACTORS
330
C
102
}
330
C
100
AcDbDictionary
  3
BYBLOCK
350
45
  3
BYLAYER
350
44
  3
GLOBAL
350
46
  0
DICTIONARY
  5
6B
102
{ACAD_REACTORS
330
C
102
}
330
C
100
AcDbDictionary
  3
STANDARD
350
6C
  0
DICTIONARY
  5
17
102
{ACAD_REACTORS
330
C
102
}
330
C
100
AcDbDictionary
  3
STANDARD
350
18
  0
DICTIONARY
  5
19
102
{ACAD_REACTORS
330
C
102
}
330
C
100
AcDbDictionary
  0
DICTIONARY
  5
47
102
{ACAD_REACTORS
330
C
102
}
330
C
100
AcDbDictionary
  3
A0
350
48
  3
A1
350
49
  3
A2
350
4A
  3
A3
350
4B
  3
A4
350
4C
  3
A5
350
4D
  3
A6
350
4E
  3
A7
350
4F
  3
A8
350
50
  3
A9
350
51
  3
B0
350
52
  3
B1
350
53
  3
B2
350
54
  3
B3
350
55
  3
B4
350
56
  3
B5
350
57
  3
B6
350
58
  3
B7
350
59
  3
B8
350
5A
  3
B9
350
5B
  3
C0
350
5C
  3
C1
350
5D
  3
C2
350
5E
  3
C3
350
5F
  3
C4
350
60
  3
C5
350
61
  3
C6
350
62
  3
C7
350
63
  3
C8
350
64
  3
C9
350
65
  3
D0
350
66
  3
D1
350
67
  3
D2
350
68
  0
DICTIONARY
  5
2A
102
{ACAD_REACTORS
330
C
102
}
330
C
100
AcDbDictionary
  3
2DWIREFRAME
350
2F
  3
BASIC
350
32
  3
BRIGHTEN
350
36
  3
COLORCHANGE
350
3A
  3
CONCEPTUAL
350
34
  3
DIM
350
35
  3
EDGECOLOROFF
350
3D
  3
FACEPATTERN
350
39
  3
FLAT
350
2B
  3
FLATWITHEDGES
350
2C
  3
GOURAUD
350
2D
  3
GOURAUDWITHEDGES
350
2E
  3
HIDDEN
350
31
  3
JITTEROFF
350
3B
  3
LINEPATTERN
350
38
  3
OVERHANGOFF
350
3C
  3
REALISTIC
350
33
  3
SHADED
350
42
  3
SHADED_WITH_EDGES
350
41
  3
SHADES_OF_GRAY
350
3E
  3
SKETCHY
350
3F
  3
THICKEN
350
37
  3
WIREFRAME
350
30
  3
X-RAY
350
40
  0
DICTIONARY
  5
40C
102
{ACAD_REACTORS
330
C
102
}
330
C
100
AcDbDictionary
  3
CEPSNID
350
416
  3
CEPSNTYPE
350
415
  3
DIMSTYLEDATA
350
42C
  3
FINGERPRINTGUID
350
417
  3
HYPERLINKBASE
350
40F
  3
INSUNITS
350
414
  3
LAYOUTDICT
350
411
  3
LWETCUNION
350
413
  3
PLOTSETDICT
350
412
  3
PSVPSCALE
350
419
  3
PUCSBASE
350
41C
  3
PUCSORGBACK
350
422
  3
PUCSORGBOTTOM
350
41E
  3
PUCSORGFRONT
350
421
  3
PUCSORGLEFT
350
41F
  3
PUCSORGRIGHT
350
420
  3
PUCSORGTOP
350
41D
  3
PUCSORTHOREF
350
41A
  3
PUCSORTHOVIEW
350
41B
  3
STYLESHEET
350
410
  3
TSTACKALIGN
350
40D
  3
TSTACKSIZE
350
40E
  3
UCSBASE
350
425
  3
UCSORGBACK
350
42B
  3
UCSORGBOTTOM
350
427
  3
UCSORGFRONT
350
42A
  3
UCSORGLEFT
350
428
  3
UCSORGRIGHT
350
429
  3
UCSORGTOP
350
426
  3
UCSORTHOREF
350
423
  3
UCSORTHOVIEW
350
424
  3
VERSIONGUID
350
418
  0
DICTIONARY
  5
42D
102
{ACAD_REACTORS
330
C
102
}
330
C
100
AcDbDictionary
  3
CANNOSCALE
350
436
  3
CMLEADERSTYLE
350
42F
  3
CTABLESTYLE
350
42E
  3
DIMASSOC
350
432
  3
HIDETEXT
350
433
  3
MSLTSCALE
350
437
  0
XRECORD
  5
435
102
{ACAD_REACTORS
330
434
102
}
330
434
100
AcDbXrecord
102
VTR_0.000_0.000_1.000_1.000_VISUALSTYLE
340
2F
102
VTR_0.000_0.000_1.000_1.000_GRIDDISPLAY
 70
     3
102
VTR_0.000_0.000_1.000_1.000_GRIDMAJOR
 70
     5
102
VTR_0.000_0.000_1.000_1.000_DEFAULTLIGHTING
280
     1
102
VTR_0.000_0.000_1.000_1.000_DEFAULTLIGHTINGTYPE
 70
     1
102
VTR_0.000_0.000_1.000_1.000_BRIGHTNESS
141
0.0
102
VTR_0.000_0.000_1.000_1.000_CONTRAST
142
0.0
  0
MATERIAL
  5
45
102
{ACAD_REACTORS
330
43
102
}
102
{ACAD_XDICTIONARY
360
43A
102
}
330
43
100
AcDbMaterial
  1
BYBLOCK
  0
MATERIAL
  5
44
102
{ACAD_REACTORS
330
43
102
}
102
{ACAD_XDICTIONARY
360
438
102
}
330
43
100
AcDbMaterial
  1
BYLAYER
  0
MATERIAL
  5
46
102
{ACAD_REACTORS
330
43
102
}
102
{ACAD_XDICTIONARY
360
43C
102
}
330
43
100
AcDbMaterial
  1
GLOBAL
  0
ACAD_PROXY_OBJECT
  5
6C
102
{ACAD_REACTORS
330
6B
102
}
330
6B
100
AcDbProxyObject
 90
      499
 91
      505
 93
      610
310
40901902A4063FBFFFFFE056BD1B81E855B9FC0AD7A3703D0AD73F4214DD185B99185C9900AD7A3703D0AC73F90141901A02B5E8DC0F42B1CFC02B5E8DC0F42B1CFE5764000000000000300FC0
340
14
340
0
340
11
340
0
 94
        0
1001
ACAD_MLEADERVER
1070
     2
  0
MLINESTYLE
  5
18
102
{ACAD_REACTORS
330
17
102
}
330
17
100
AcDbMlineStyle
  2
Standard
 70
     0
  3

 62
   256
 51
90.0
 52
90.0
 71
     2
 49
0.5
 62
   256
  6
BYLAYER
 49
-0.5
 62
   256
  6
BYLAYER
  0
ACAD_PROXY_OBJECT
  5
48
102
{ACAD_REACTORS
330
47
102
}
330
47
100
AcDbProxyObject
 90
      499
 91
      503
 93
       41
310
903313A31580
  0
ACAD_PROXY_OBJECT
  5
49
102
{ACAD_REACTORS
330
47
102
}
330
47
100
AcDbProxyObject
 90
      499
 91
      503
 93
      105
310
903313A324000000000000004000
  0
ACAD_PROXY_OBJECT
  5
4A
102
{ACAD_REACTORS
330
47
102
}
330
47
100
AcDbProxyObject
 90
      499
 91
      503
 93
      105
310
903313A344000000000000104000
  0
ACAD_PROXY_OBJECT
  5
4B
102
{ACAD_REACTORS
330
47
102
}
330
47
100
AcDbProxyObject
 90
      499
 91
      503
 93
      105
310
903313A354000000000000144000
  0
ACAD_PROXY_OBJECT
  5
4C
102
{ACAD_REACTORS
330
47
102
}
330
47
100
AcDbProxyObject
 90
      499
 91
      503
 93
      105
310
903313A384000000000000204000
  0
ACAD_PROXY_OBJECT
  5
4D
102
{ACAD_REACTORS
330
47
102
}
330
47
100
AcDbProxyObject
 90
      499
 91
      503
 93
      113
310
904313A31304000000000000244000
  0
ACAD_PROXY_OBJECT
  5
4E
102
{ACAD_REACTORS
330
47
102
}
330
47
100
AcDbProxyObject
 90
      499
 91
      503
 93
      113
310
904313A31364000000000000304000
  0
ACAD_PROXY_OBJECT
  5
4F
102
{ACAD_REACTORS
330
47
102
}
330
47
100
AcDbProxyObject
 90
      499
 91
      503
 93
      113
310
904313A32304000000000000344000
  0
ACAD_PROXY_OBJECT
  5
50
102
{ACAD_REACTORS
330
47
102
}
330
47
100
AcDbProxyObject
 90
      499
 91
      503
 93
      113
310
904313A333040000000000003E4000
  0
ACAD_PROXY_OBJECT
  5
51
102
{ACAD_REACTORS
330
47
102
}
330
47
100
AcDbProxyObject
 90
      499
 91
      503
 93
      113
310
904313A34304000000000000444000
  0
ACAD_PROXY_OBJECT
  5
52
102
{ACAD_REACTORS
330
47
102
}
330
47
100
AcDbProxyObject
 90
      499
 91
      503
 93
      113
310
904313A35304000000000000494000
  0
ACAD_PROXY_OBJECT
  5
53
102
{ACAD_REACTORS
330
47
102
}
330
47
100
AcDbProxyObject
 90
      499
 91
      503
 93
      121
310
905313A3130304000000000000594000
  0
ACAD_PROXY_OBJECT
  5
54
102
{ACAD_REACTORS
330
47
102
}
330
47
100
AcDbProxyObject
 90
      499
 91
      503
 93
      105
310
903323A310000000000000010100
  0
ACAD_PROXY_OBJECT
  5
55
102
{ACAD_REACTORS
330
47
102
}
330
47
100
AcDbProxyObject
 90
      499
 91
      503
 93
      105
310
903343A310000000000000410100
  0
ACAD_PROXY_OBJECT
  5
56
102
{ACAD_REACTORS
330
47
102
}
330
47
100
AcDbProxyObject
 90
      499
 91
      503
 93
      105
310
903383A310000000000000810100
  0
ACAD_PROXY_OBJECT
  5
57
102
{ACAD_REACTORS
330
47
102
}
330
47
100
AcDbProxyObject
 90
      499
 91
      503
 93
      113
310
90431303A310000000000000910100
  0
ACAD_PROXY_OBJECT
  5
58
102
{ACAD_REACTORS
330
47
102
}
330
47
100
AcDbProxyObject
 90
      499
 91
      503
 93
      121
310
9053130303A310000000000001650100
  0
ACAD_PROXY_OBJECT
  5
59
102
{ACAD_REACTORS
330
47
102
}
330
47
100
AcDbProxyObject
 90
      499
 91
      503
 93
      257
310
90E312F31323822203D2031272D3022000000000000200FC000000000000284000
  0
ACAD_PROXY_OBJECT
  5
5A
102
{ACAD_REACTORS
330
47
102
}
330
47
100
AcDbProxyObject
 90
      499
 91
      503
 93
      249
310
90D312F363422203D2031272D3022000000000000240FC000000000000284000
  0
ACAD_PROXY_OBJECT
  5
5B
102
{ACAD_REACTORS
330
47
102
}
330
47
100
AcDbProxyObject
 90
      499
 91
      503
 93
      249
310
90D312F333222203D2031272D3022000000000000280FC000000000000284000
  0
ACAD_PROXY_OBJECT
  5
5C
102
{ACAD_REACTORS
330
47
102
}
330
47
100
AcDbProxyObject
 90
      499
 91
      503
 93
      249
310
90D312F313622203D2031272D30220000000000002C0FC000000000000284000
  0
ACAD_PROXY_OBJECT
  5
5D
102
{ACAD_REACTORS
330
47
102
}
330
47
100
AcDbProxyObject
 90
      499
 91
      503
 93
      249
310
90D332F333222203D2031272D30220000000000002E0FC000000000000284000
  0
ACAD_PROXY_OBJECT
  5
5E
102
{ACAD_REACTORS
330
47
102
}
330
47
100
AcDbProxyObject
 90
      499
 91
      503
 93
      241
310
90C312F3822203D2031272D3022000000000000300FC000000000000284000
  0
ACAD_PROXY_OBJECT
  5
5F
102
{ACAD_REACTORS
330
47
102
}
330
47
100
AcDbProxyObject
 90
      499
 91
      503
 93
      249
310
90D332F313622203D2031272D3022000000000000320FC000000000000284000
  0
ACAD_PROXY_OBJECT
  5
60
102
{ACAD_REACTORS
330
47
102
}
330
47
100
AcDbProxyObject
 90
      499
 91
      503
 93
      241
310
90C312F3422203D2031272D3022000000000000340FC000000000000284000
  0
ACAD_PROXY_OBJECT
  5
61
102
{ACAD_REACTORS
330
47
102
}
330
47
100
AcDbProxyObject
 90
      499
 91
      503
 93
      241
310
90C332F3822203D2031272D3022000000000000360FC000000000000284000
  0
ACAD_PROXY_OBJECT
  5
62
102
{ACAD_REACTORS
330
47
102
}
330
47
100
AcDbProxyObject
 90
      499
 91
      503
 93
      241
310
90C312F3222203D2031272D3022000000000000380FC000000000000284000
  0
ACAD_PROXY_OBJECT
  5
63
102
{ACAD_REACTORS
330
47
102
}
330
47
100
AcDbProxyObject
 90
      499
 91
      503
 93
      241
310
90C332F3422203D2031272D30220000000000003A0FC000000000000284000
  0
ACAD_PROXY_OBJECT
  5
64
102
{ACAD_REACTORS
330
47
102
}
330
47
100
AcDbProxyObject
 90
      499
 91
      503
 93
      161
310
90A3122203D2031272D30224000000000000284000
  0
ACAD_PROXY_OBJECT
  5
65
102
{ACAD_REACTORS
330
47
102
}
330
47
100
AcDbProxyObject
 90
      499
 91
      503
 93
      257
310
90E312D312F3222203D2031272D30220000000000003E0FC000000000000284000
  0
ACAD_PROXY_OBJECT
  5
66
102
{ACAD_REACTORS
330
47
102
}
330
47
100
AcDbProxyObject
 90
      499
 91
      503
 93
      225
310
90A3322203D2031272D302200000000000002100000000000000284000
  0
ACAD_PROXY_OBJECT
  5
67
102
{ACAD_REACTORS
330
47
102
}
330
47
100
AcDbProxyObject
 90
      499
 91
      503
 93
      225
310
90A3622203D2031272D302200000000000006100000000000000284000
  0
ACAD_PROXY_OBJECT
  5
68
102
{ACAD_REACTORS
330
47
102
}
330
47
100
AcDbProxyObject
 90
      499
 91
      503
 93
      249
310
90D31272D3022203D2031272D30220000000000000A100000000000000284000
  0
ACAD_PROXY_OBJECT
  5
2F
102
{ACAD_REACTORS
330
2A
102
}
330
2A
100
AcDbProxyObject
 90
      499
 91
      501
 93
      436
310
42CC9915DA5C99599C985B595049028333333333333E33F0000000000000F90107901411070040501600405405064090741402480A0340
1001
ACAD
1000
AcDbSavedByObjectVersion
1070
     0
  0
ACAD_PROXY_OBJECT
  5
32
102
{ACAD_REACTORS
330
2A
102
}
330
2A
100
AcDbProxyObject
 90
      499
 91
      501
 93
      388
310
4150985CDA58D07406404333333333333E33F0000000000000F90107A41107004050150841D405064090741402480A0350
1001
ACAD
1000
AcDbSavedByObjectVersion
1070
     0
  0
ACAD_PROXY_OBJECT
  5
36
102
{ACAD_REACTORS
330
2A
102
}
330
2A
100
AcDbProxyObject
 90
      499
 91
      501
 93
      428
310
42109C9A59DA1D195B90C409028333333333333E33F0000000000000F9010790141107004050150841D405064090741402480A029950
1001
ACAD
1000
AcDbSavedByObjectVersion
1070
     0
  0
ACAD_PROXY_OBJECT
  5
3A
102
{ACAD_REACTORS
330
2A
102
}
330
2A
100
AcDbProxyObject
 90
      499
 91
      501
 93
      452
310
42D0DBDB1BDC90DA185B99D95104090240C333333333333E33F0000000000000F90108901411070040501508421405064090741402480A0350
1001
ACAD
1000
AcDbSavedByObjectVersion
1070
     0
  0
ACAD_PROXY_OBJECT
  5
34
102
{ACAD_REACTORS
330
2A
102
}
330
2A
100
AcDbProxyObject
 90
      499
 91
      501
 93
      500
310
4290DBDB98D95C1D1D585B10940D028333333333333E33F0000000000000F90107902409070040501000000000018199010841D405064090740C02480A0340
1001
ACAD
1000
AcDbSavedByObjectVersion
1070
     0
  0
ACAD_PROXY_OBJECT
  5
35
102
{ACAD_REACTORS
330
2A
102
}
330
2A
100
AcDbProxyObject
 90
      499
 91
      501
 93
      412
310
40D11A5B50B409028333333333333E33F0000000000000F9010790141107004050150841D405064090741402480A02677FFFFFD0
1001
ACAD
1000
AcDbSavedByObjectVersion
1070
     0
  0
ACAD_PROXY_OBJECT
  5
3D
102
{ACAD_REACTORS
330
2A
102
}
330
2A
100
AcDbProxyObject
 90
      499
 91
      501
 93
      452
310
43115919D950DBDB1BDC93D999916409028333333333333E33F0000000000000F9010790141107004050150841D405064090741402480A0350
1001
ACAD
1000
AcDbSavedByObjectVersion
1070
     0
  0
ACAD_PROXY_OBJECT
  5
39
102
{ACAD_REACTORS
330
2A
102
}
330
2A
100
AcDbProxyObject
 90
      499
 91
      501
 93
      444
310
42D19858D95C185D1D195C9B90F409028333333333333E33F0000000000000F9010790141107004050150841D405064090741402480A0350
1001
ACAD
1000
AcDbSavedByObjectVersion
1070
     0
  0
ACAD_PROXY_OBJECT
  5
2B
102
{ACAD_REACTORS
330
2A
102
}
330
2A
100
AcDbProxyObject
 90
      499
 91
      501
 93
      380
310
41119B185D240901404333333333333E33F0000000000000F9010740A907004050150841D405064090741402480A1B50
1001
ACAD
1000
AcDbSavedByObjectVersion
1070
     0
  0
ACAD_PROXY_OBJECT
  5
2C
102
{ACAD_REACTORS
330
2A
102
}
330
2A
100
AcDbProxyObject
 90
      499
 91
      501
 93
      468
310
43519B185D15DA5D1A115919D95CD0140901404333333333333E33F0000000000000F90107409019070040501600405405064090741402480A1B50
1001
ACAD
1000
AcDbSavedByObjectVersion
1070
     0
  0
ACAD_PROXY_OBJECT
  5
2D
102
{ACAD_REACTORS
330
2A
102
}
330
2A
100
AcDbProxyObject
 90
      499
 91
      501
 93
      404
310
41D1DBDD5C985D5910240902404333333333333E33F0000000000000F9010740A9070040501641D405064090741402480A1B50
1001
ACAD
1000
AcDbSavedByObjectVersion
1070
     0
  0
ACAD_PROXY_OBJECT
  5
2E
102
{ACAD_REACTORS
330
2A
102
}
330
2A
100
AcDbProxyObject
 90
      499
 91
      501
 93
      492
310
4411DBDD5C985D5915DA5D1A115919D95CD0340902404333333333333E33F0000000000000F90107409019070040501600405405064090741402480A1B50
1001
ACAD
1000
AcDbSavedByObjectVersion
1070
     0
  0
ACAD_PROXY_OBJECT
  5
31
102
{ACAD_REACTORS
330
2A
102
}
330
2A
100
AcDbProxyObject
 90
      499
 91
      501
 93
      476
310
41921A5919195B90640502408333333333333E33F0000000000000F901079024090700405020000000000001110200405405064090740C02480A0340
1001
ACAD
1000
AcDbSavedByObjectVersion
1070
     0
  0
ACAD_PROXY_OBJECT
  5
3B
102
{ACAD_REACTORS
330
2A
102
}
330
2A
100
AcDbProxyObject
 90
      499
 91
      501
 93
      428
310
42529A5D1D195C93D999914409028333333333333E33F0000000000000F9010790141107004050150A41D405064090741402480A0350
1001
ACAD
1000
AcDbSavedByObjectVersion
1070
     0
  0
ACAD_PROXY_OBJECT
  5
38
102
{ACAD_REACTORS
330
2A
102
}
330
2A
100
AcDbProxyObject
 90
      499
 91
      501
 93
      444
310
42D31A5B995C185D1D195C9B90E409028333333333333E33F0000000000000F9010790141107004050750841D405064090741402483A0350
1001
ACAD
1000
AcDbSavedByObjectVersion
1070
     0
  0
ACAD_PROXY_OBJECT
  5
3C
102
{ACAD_REACTORS
330
2A
102
}
330
2A
100
AcDbProxyObject
 90
      499
 91
      501
 93
      444
310
42D3DD995C9A185B99D3D999915409028333333333333E33F0000000000000F9010790141107004050150941D405064090741402480A0350
1001
ACAD
1000
AcDbSavedByObjectVersion
1070
     0
  0
ACAD_PROXY_OBJECT
  5
33
102
{ACAD_REACTORS
330
2A
102
}
330
2A
100
AcDbProxyObject
 90
      499
 91
      501
 93
      428
310
425499585B1A5CDD1A58D08409038333333333333E33F0000000000000F9010740A907004050150800405405064090740C02480A1B40
1001
ACAD
1000
AcDbSavedByObjectVersion
1070
     0
  0
ACAD_PROXY_OBJECT
  5
42
102
{ACAD_REACTORS
330
2A
102
}
330
2A
100
AcDbProxyObject
 90
      499
 91
      501
 93
      420
310
4194DA1859195911B40902404333333333333E33F0000000000000F9010740A41107004050150800405405064090840C02480A0B40
1001
ACAD
1000
AcDbSavedByObjectVersion
1070
     0
  0
ACAD_PROXY_OBJECT
  5
41
102
{ACAD_REACTORS
330
2A
102
}
330
2A
100
AcDbProxyObject
 90
      499
 91
      501
 93
      516
310
4454DA18591959081DDA5D1A08195919D95CD1A40902404333333333333E33F0000000000000F901074090142907004050250800405405064090740C02480A0B40
1001
ACAD
1000
AcDbSavedByObjectVersion
1070
     0
  0
ACAD_PROXY_OBJECT
  5
3E
102
{ACAD_REACTORS
330
2A
102
}
330
2A
100
AcDbProxyObject
 90
      499
 91
      501
 93
      532
310
4394DA1859195CC81BD98811DC985E5174090240C333333333333E33F0000000000000F901079024090741D01000000000000111010841D405064090740C02480A0340
1001
ACAD
1000
AcDbSavedByObjectVersion
1070
     0
  0
ACAD_PROXY_OBJECT
  5
3F
102
{ACAD_REACTORS
330
2A
102
}
330
2A
100
AcDbProxyObject
 90
      499
 91
      501
 93
      476
310
41D4DAD95D18DA1E51840502408333333333333E33F0000000000000F901079024090741D01000000000000111010B41D405064090741802480A0340
1001
ACAD
1000
AcDbSavedByObjectVersion
1070
     0
  0
ACAD_PROXY_OBJECT
  5
37
102
{ACAD_REACTORS
330
2A
102
}
330
2A
100
AcDbProxyObject
 90
      499
 91
      501
 93
      412
310
41D51A1A58DAD95B90D409028333333333333E33F0000000000000F9010790141107004050150C41D405064090741402480A0350
1001
ACAD
1000
AcDbSavedByObjectVersion
1070
     0
  0
ACAD_PROXY_OBJECT
  5
30
102
{ACAD_REACTORS
330
2A
102
}
330
2A
100
AcDbProxyObject
 90
      499
 91
      501
 93
      420
310
4255DA5C99599C985B595059028333333333333E33F0000000000000F90107901411070040501600405405064090740C02480A0340
1001
ACAD
1000
AcDbSavedByObjectVersion
1070
     0
  0
ACAD_PROXY_OBJECT
  5
40
102
{ACAD_REACTORS
330
2A
102
}
330
2A
100
AcDbProxyObject
 90
      499
 91
      501
 93
      404
310
41560B54985E51940902404000000000000E03F0000000000000F9010740501907004050150841D405064090740C02480A1B40
1001
ACAD
1000
AcDbSavedByObjectVersion
1070
     0
  0
XRECORD
  5
416
102
{ACAD_REACTORS
330
40C
102
}
330
40C
100
AcDbXrecord
340
0
  0
XRECORD
  5
415
102
{ACAD_REACTORS
330
40C
102
}
330
40C
100
AcDbXrecord
 90
        0
  0
XRECORD
  5
42C
102
{ACAD_REACTORS
330
40C
102
}
330
40C
100
AcDbXrecord
1000
DSTYLE
1002
{
1070
   171
 70
     2
1070
   143
 40
25.4
1070
   274
 70
     2
1070
    41
 40
0.18
1070
   141
 40
0.09
1070
   271
 70
     4
1070
    43
 40
0.38
1070
   278
 70
    46
1070
    44
 40
0.18
1070
    42
 40
0.0625
1070
   147
 40
0.09
1070
    77
 70
     0
1070
   272
 70
     4
1070
    73
 70
     1
1070
   172
 70
     0
1070
    74
 70
     1
1070
   283
 70
     1
1070
   340
340
11
1070
   140
 40
0.18
1070
   284
 70
     0
1070
    78
 70
     0
1002
}
  0
XRECORD
  5
417
102
{ACAD_REACTORS
330
40C
102
}
330
40C
100
AcDbXrecord
  1
{5c674b27-20b1-4763-bd02-d0639e5a7a1b}
  0
XRECORD
  5
40F
102
{ACAD_REACTORS
330
40C
102
}
330
40C
100
AcDbXrecord
  1

  0
XRECORD
  5
414
102
{ACAD_REACTORS
330
40C
102
}
330
40C
100
AcDbXrecord
 90
        4
  0
XRECORD
  5
411
102
{ACAD_REACTORS
330
40C
102
}
330
40C
100
AcDbXrecord
340
1A
  0
XRECORD
  5
413
102
{ACAD_REACTORS
330
40C
102
}
330
40C
100
AcDbXrecord
 90
    10781
  0
XRECORD
  5
412
102
{ACAD_REACTORS
330
40C
102
}
330
40C
100
AcDbXrecord
340
19
  0
XRECORD
  5
419
102
{ACAD_REACTORS
330
40C
102
}
330
40C
100
AcDbXrecord
 40
0.0
  0
XRECORD
  5
41C
102
{ACAD_REACTORS
330
40C
102
}
330
40C
100
AcDbXrecord
340
0
  0
XRECORD
  5
422
102
{ACAD_REACTORS
330
40C
102
}
330
40C
100
AcDbXrecord
 10
0.0
 20
0.0
 30
0.0
  0
XRECORD
  5
41E
102
{ACAD_REACTORS
330
40C
102
}
330
40C
100
AcDbXrecord
 10
0.0
 20
0.0
 30
0.0
  0
XRECORD
  5
421
102
{ACAD_REACTORS
330
40C
102
}
330
40C
100
AcDbXrecord
 10
0.0
 20
0.0
 30
0.0
  0
XRECORD
  5
41F
102
{ACAD_REACTORS
330
40C
102
}
330
40C
100
AcDbXrecord
 10
0.0
 20
0.0
 30
0.0
  0
XRECORD
  5
420
102
{ACAD_REACTORS
330
40C
102
}
330
40C
100
AcDbXrecord
 10
0.0
 20
0.0
 30
0.0
  0
XRECORD
  5
41D
102
{ACAD_REACTORS
330
40C
102
}
330
40C
100
AcDbXrecord
 10
0.0
 20
0.0
 30
0.0
  0
XRECORD
  5
41A
102
{ACAD_REACTORS
330
40C
102
}
330
40C
100
AcDbXrecord
340
0
  0
XRECORD
  5
41B
102
{ACAD_REACTORS
330
40C
102
}
330
40C
100
AcDbXrecord
 70
     0
  0
XRECORD
  5
410
102
{ACAD_REACTORS
330
40C
102
}
330
40C
100
AcDbXrecord
  1

  0
XRECORD
  5
40D
102
{ACAD_REACTORS
330
40C
102
}
330
40C
100
AcDbXrecord
 90
        1
  0
XRECORD
  5
40E
102
{ACAD_REACTORS
330
40C
102
}
330
40C
100
AcDbXrecord
 90
       70
  0
XRECORD
  5
425
102
{ACAD_REACTORS
330
40C
102
}
330
40C
100
AcDbXrecord
340
0
  0
XRECORD
  5
42B
102
{ACAD_REACTORS
330
40C
102
}
330
40C
100
AcDbXrecord
 10
0.0
 20
0.0
 30
0.0
  0
XRECORD
  5
427
102
{ACAD_REACTORS
330
40C
102
}
330
40C
100
AcDbXrecord
 10
0.0
 20
0.0
 30
0.0
  0
XRECORD
  5
42A
102
{ACAD_REACTORS
330
40C
102
}
330
40C
100
AcDbXrecord
 10
0.0
 20
0.0
 30
0.0
  0
XRECORD
  5
428
102
{ACAD_REACTORS
330
40C
102
}
330
40C
100
AcDbXrecord
 10
0.0
 20
0.0
 30
0.0
  0
XRECORD
  5
429
102
{ACAD_REACTORS
330
40C
102
}
330
40C
100
AcDbXrecord
 10
0.0
 20
0.0
 30
0.0
  0
XRECORD
  5
426
102
{ACAD_REACTORS
330
40C
102
}
330
40C
100
AcDbXrecord
 10
0.0
 20
0.0
 30
0.0
  0
XRECORD
  5
423
102
{ACAD_REACTORS
330
40C
102
}
330
40C
100
AcDbXrecord
340
0
  0
XRECORD
  5
424
102
{ACAD_REACTORS
330
40C
102
}
330
40C
100
AcDbXrecord
 70
     0
  0
XRECORD
  5
418
102
{ACAD_REACTORS
330
40C
102
}
330
40C
100
AcDbXrecord
  1
{FAEB1C32-E019-11D5-929B-00C0DF256EC4}
  0
DICTIONARYVAR
  5
436
102
{ACAD_REACTORS
330
42D
102
}
330
42D
100
DictionaryVariables
280
     0
  1
1:1
  0
DICTIONARYVAR
  5
42F
102
{ACAD_REACTORS
330
42D
102
}
330
42D
100
DictionaryVariables
280
     0
  1
Standard
  0
DICTIONARYVAR
  5
42E
102
{ACAD_REACTORS
330
42D
102
}
330
42D
100
DictionaryVariables
280
     0
  1
Standard
  0
DICTIONARYVAR
  5
432
102
{ACAD_REACTORS
330
42D
102
}
330
42D
100
DictionaryVariables
280
     0
  1
2
  0
DICTIONARYVAR
  5
433
102
{ACAD_REACTORS
330
42D
102
}
330
42D
100
DictionaryVariables
280
     0
  1
1
  0
DICTIONARYVAR
  5
437
102
{ACAD_REACTORS
330
42D
102
}
330
42D
100
DictionaryVariables
280
     0
  1
1
  0
DICTIONARY
  5
43A
330
45
100
AcDbDictionary
280
     1
  3
ACAD_XREC_ROUNDTRIP
360
43B
  0
DICTIONARY
  5
438
330
44
100
AcDbDictionary
280
     1
  3
ACAD_XREC_ROUNDTRIP
360
439
  0
DICTIONARY
  5
43C
330
46
100
AcDbDictionary
280
     1
  3
ACAD_XREC_ROUNDTRIP
360
43D
  0
XRECORD
  5
43B
102
{ACAD_REACTORS
330
43A
102
}
330
43A
100
AcDbXrecord
102
MATERIAL
148
0.0
149
0.0
149
0.0
 93
        0
 94
      127
282
     0
 72
     1
 77
     1
171
     1
175
     1
179
     1
273
     0
  0
XRECORD
  5
439
102
{ACAD_REACTORS
330
438
102
}
330
438
100
AcDbXrecord
102
MATERIAL
148
0.0
149
0.0
149
0.0
 93
        0
 94
      127
282
     0
 72
     1
 77
     1
171
     1
175
     1
179
     1
273
     0
  0
XRECORD
  5
43D
102
{ACAD_REACTORS
330
43C
102
}
330
43C
100
AcDbXrecord
102
MATERIAL
148
0.0
149
0.0
149
0.0
 93
        0
 94
      127
282
     0
 72
     1
 77
     1
171
     1
175
     1
179
     1
273
     0
  0
ENDSEC
  0
EOF
