solid Front Inlay
facet normal -0.3826834323650975 -0.9238795325112835 -3.232382393725797e-16
  outer loop
    vertex 183.62547978677134 10.967656861154417 0.23999999999999894
    vertex 182.43163406002884 11.462163952552343 2.114974861910923e-15
    vertex 183.62547978677134 10.967656861154417 0.0
  endloop
endfacet
facet normal -0.3826834323650975 -0.9238795325112835 -3.232382393725797e-16
  outer loop
    vertex 182.43163406002884 11.462163952552343 2.114974861910923e-15
    vertex 183.62547978677134 10.967656861154417 0.23999999999999894
    vertex 182.43163406002884 11.462163952552343 0.24000000000000174
  endloop
endfacet
facet normal 5.0342556285945934e-20 -3.5182993607690223e-16 1.0
  outer loop
    vertex 313.60663406002885 10.798989701285258 0.23999999999999894
    vertex 275.64726975124455 21.81393431240767 0.2400000000000666
    vertex 184.90663406002884 10.798989701285302 0.23999999999999894
  endloop
endfacet
facet normal 5.0342556285945934e-20 -3.5182993607690223e-16 1.0
  outer loop
    vertex 275.64726975124455 21.81393431240767 0.2400000000000666
    vertex 313.60663406002885 10.798989701285258 0.23999999999999894
    vertex 304.84632923763365 21.81393431240767 0.24000000000005392
  endloop
endfacet
facet normal 5.0342556285945934e-20 -3.5182993607690223e-16 1.0
  outer loop
    vertex 304.84632923763365 21.81393431240767 0.24000000000005392
    vertex 313.60663406002885 10.798989701285258 0.23999999999999894
    vertex 304.84632923763365 41.2179346900627 0.24000000000006097
  endloop
endfacet
facet normal 5.0342556285945934e-20 -3.5182993607690223e-16 1.0
  outer loop
    vertex 180.12530121989792 14.467835428027806 0.24000000000000174
    vertex 179.95663406002882 77.67684512245785 0.2400000000000243
    vertex 179.95663406002882 15.748989701285305 0.24000000000000174
  endloop
endfacet
facet normal 5.0342556285945934e-20 -3.5182993607690223e-16 1.0
  outer loop
    vertex 179.95663406002882 77.67684512245785 0.2400000000000243
    vertex 180.12530121989792 14.467835428027806 0.24000000000000174
    vertex 180.00048752159478 78.0099452335048 0.2400000000000243
  endloop
endfacet
facet normal 5.0342556285945934e-20 -3.5182993607690223e-16 1.0
  outer loop
    vertex 180.00048752159478 78.0099452335048 0.2400000000000243
    vertex 180.12530121989792 14.467835428027806 0.24000000000000174
    vertex 180.12905936535827 78.32034512245785 0.2400000000000243
  endloop
endfacet
facet normal 5.0342556285945934e-20 -3.5182993607690223e-16 1.0
  outer loop
    vertex 180.12905936535827 78.32034512245785 0.2400000000000243
    vertex 180.12530121989792 14.467835428027806 0.24000000000000174
    vertex 180.61980831129586 13.27398970128527 0.24000000000000174
  endloop
endfacet
facet normal 5.0342556285945934e-20 -3.5182993607690223e-16 1.0
  outer loop
    vertex 180.12905936535827 78.32034512245785 0.2400000000000243
    vertex 180.61980831129586 13.27398970128527 0.24000000000000174
    vertex 180.33358763264172 78.58689154984496 0.2400000000000243
  endloop
endfacet
facet normal 5.0342556285945934e-20 -3.5182993607690223e-16 1.0
  outer loop
    vertex 180.33358763264172 78.58689154984496 0.2400000000000243
    vertex 180.61980831129586 13.27398970128527 0.24000000000000174
    vertex 180.6001340600288 78.79141981712844 0.2400000000000243
  endloop
endfacet
facet normal 5.0342556285945934e-20 -3.5182993607690223e-16 1.0
  outer loop
    vertex 180.6001340600288 78.79141981712844 0.2400000000000243
    vertex 180.61980831129586 13.27398970128527 0.24000000000000174
    vertex 180.91053394898188 78.91999166089188 0.2400000000000243
  endloop
endfacet
facet normal 5.0342556285945934e-20 -3.5182993607690223e-16 1.0
  outer loop
    vertex 180.91053394898188 78.91999166089188 0.2400000000000243
    vertex 180.61980831129586 13.27398970128527 0.24000000000000174
    vertex 181.4064554931554 12.24881113441187 0.24000000000000174
  endloop
endfacet
facet normal 5.0342556285945934e-20 -3.5182993607690223e-16 1.0
  outer loop
    vertex 180.91053394898188 78.91999166089188 0.2400000000000243
    vertex 181.4064554931554 12.24881113441187 0.24000000000000174
    vertex 181.24363406002882 78.96384512245788 0.2400000000000243
  endloop
endfacet
facet normal 5.0342556285945934e-20 -3.5182993607690223e-16 1.0
  outer loop
    vertex 181.24363406002882 78.96384512245788 0.2400000000000243
    vertex 181.4064554931554 12.24881113441187 0.24000000000000174
    vertex 317.26963406002886 78.96384512245788 0.2400000000000243
  endloop
endfacet
facet normal 5.0342556285945934e-20 -3.5182993607690223e-16 1.0
  outer loop
    vertex 317.26963406002886 78.96384512245788 0.2400000000000243
    vertex 181.4064554931554 12.24881113441187 0.24000000000000174
    vertex 182.43163406002884 11.462163952552343 0.24000000000000174
  endloop
endfacet
facet normal 5.0342556285945934e-20 -3.5182993607690223e-16 1.0
  outer loop
    vertex 317.26963406002886 78.96384512245788 0.2400000000000243
    vertex 182.43163406002884 11.462163952552343 0.24000000000000174
    vertex 183.62547978677134 10.967656861154417 0.23999999999999894
  endloop
endfacet
facet normal 5.0342556285945934e-20 -3.5182993607690223e-16 1.0
  outer loop
    vertex 317.26963406002886 78.96384512245788 0.2400000000000243
    vertex 183.62547978677134 10.967656861154417 0.23999999999999894
    vertex 184.90663406002884 10.798989701285302 0.23999999999999894
  endloop
endfacet
facet normal 5.0342556285945934e-20 -3.5182993607690223e-16 1.0
  outer loop
    vertex 317.26963406002886 78.96384512245788 0.2400000000000243
    vertex 184.90663406002884 10.798989701285302 0.23999999999999894
    vertex 275.64726975124455 41.21793469006267 0.24000000000007082
  endloop
endfacet
facet normal 5.0342556285945934e-20 -3.5182993607690223e-16 1.0
  outer loop
    vertex 275.64726975124455 41.21793469006267 0.24000000000007082
    vertex 184.90663406002884 10.798989701285302 0.23999999999999894
    vertex 275.64726975124455 21.81393431240767 0.2400000000000666
  endloop
endfacet
facet normal 5.0342556285945934e-20 -3.5182993607690223e-16 1.0
  outer loop
    vertex 317.26963406002886 78.96384512245788 0.2400000000000243
    vertex 275.64726975124455 41.21793469006267 0.24000000000007082
    vertex 304.84632923763365 41.2179346900627 0.24000000000006097
  endloop
endfacet
facet normal 5.0342556285945934e-20 -3.5182993607690223e-16 1.0
  outer loop
    vertex 317.26963406002886 78.96384512245788 0.2400000000000243
    vertex 304.84632923763365 41.2179346900627 0.24000000000006097
    vertex 313.60663406002885 10.798989701285258 0.23999999999999894
  endloop
endfacet
facet normal 5.0342556285945934e-20 -3.5182993607690223e-16 1.0
  outer loop
    vertex 317.26963406002886 78.96384512245788 0.2400000000000243
    vertex 313.60663406002885 10.798989701285258 0.23999999999999894
    vertex 314.8877883332863 10.96765686115437 0.23999999999999894
  endloop
endfacet
facet normal 5.0342556285945934e-20 -3.5182993607690223e-16 1.0
  outer loop
    vertex 317.26963406002886 78.96384512245788 0.2400000000000243
    vertex 314.8877883332863 10.96765686115437 0.23999999999999894
    vertex 316.0816340600288 11.462163952552299 0.24000000000000174
  endloop
endfacet
facet normal 5.0342556285945934e-20 -3.5182993607690223e-16 1.0
  outer loop
    vertex 317.26963406002886 78.96384512245788 0.2400000000000243
    vertex 316.0816340600288 11.462163952552299 0.24000000000000174
    vertex 317.1068126269022 12.24881113441187 0.24000000000000174
  endloop
endfacet
facet normal 5.0342556285945934e-20 -3.5182993607690223e-16 1.0
  outer loop
    vertex 317.26963406002886 78.96384512245788 0.2400000000000243
    vertex 317.1068126269022 12.24881113441187 0.24000000000000174
    vertex 317.89345980876186 13.27398970128527 0.24000000000000174
  endloop
endfacet
facet normal 5.0342556285945934e-20 -3.5182993607690223e-16 1.0
  outer loop
    vertex 317.26963406002886 78.96384512245788 0.2400000000000243
    vertex 317.89345980876186 13.27398970128527 0.24000000000000174
    vertex 317.6027341710759 78.91999166089188 0.2400000000000243
  endloop
endfacet
facet normal 5.0342556285945934e-20 -3.5182993607690223e-16 1.0
  outer loop
    vertex 317.6027341710759 78.91999166089188 0.2400000000000243
    vertex 317.89345980876186 13.27398970128527 0.24000000000000174
    vertex 317.9131340600288 78.79141981712844 0.2400000000000243
  endloop
endfacet
facet normal 5.0342556285945934e-20 -3.5182993607690223e-16 1.0
  outer loop
    vertex 317.9131340600288 78.79141981712844 0.2400000000000243
    vertex 317.89345980876186 13.27398970128527 0.24000000000000174
    vertex 318.38796690015977 14.467835428027806 0.24000000000000174
  endloop
endfacet
facet normal 5.0342556285945934e-20 -3.5182993607690223e-16 1.0
  outer loop
    vertex 317.9131340600288 78.79141981712844 0.2400000000000243
    vertex 318.38796690015977 14.467835428027806 0.24000000000000174
    vertex 318.17968048741596 78.58689154984496 0.2400000000000243
  endloop
endfacet
facet normal 5.0342556285945934e-20 -3.5182993607690223e-16 1.0
  outer loop
    vertex 318.17968048741596 78.58689154984496 0.2400000000000243
    vertex 318.38796690015977 14.467835428027806 0.24000000000000174
    vertex 318.3842087546994 78.32034512245784 0.2400000000000243
  endloop
endfacet
facet normal 5.0342556285945934e-20 -3.5182993607690223e-16 1.0
  outer loop
    vertex 318.3842087546994 78.32034512245784 0.2400000000000243
    vertex 318.38796690015977 14.467835428027806 0.24000000000000174
    vertex 318.5127805984629 78.0099452335048 0.2400000000000243
  endloop
endfacet
facet normal 5.0342556285945934e-20 -3.5182993607690223e-16 1.0
  outer loop
    vertex 318.5127805984629 78.0099452335048 0.2400000000000243
    vertex 318.38796690015977 14.467835428027806 0.24000000000000174
    vertex 318.5566340600289 15.748989701285305 0.24000000000000174
  endloop
endfacet
facet normal 5.0342556285945934e-20 -3.5182993607690223e-16 1.0
  outer loop
    vertex 318.5127805984629 78.0099452335048 0.2400000000000243
    vertex 318.5566340600289 15.748989701285305 0.24000000000000174
    vertex 318.5566340600289 77.67684512245785 0.2400000000000243
  endloop
endfacet
facet normal -0.9238795325112835 -0.3826834323650975 -1.3388966262572678e-16
  outer loop
    vertex 180.12530121989792 14.467835428027806 0.24000000000000174
    vertex 180.61980831129586 13.27398970128527 2.114974861910923e-15
    vertex 180.61980831129586 13.27398970128527 0.24000000000000174
  endloop
endfacet
facet normal -0.9238795325112835 -0.3826834323650975 -1.3388966262572678e-16
  outer loop
    vertex 180.61980831129586 13.27398970128527 2.114974861910923e-15
    vertex 180.12530121989792 14.467835428027806 0.24000000000000174
    vertex 180.12530121989792 14.467835428027806 2.114974861910923e-15
  endloop
endfacet
facet normal -3.4707279785204907e-16 -1.0 -3.4987054913312746e-16
  outer loop
    vertex 313.60663406002885 10.798989701285258 0.23999999999999894
    vertex 184.90663406002884 10.798989701285302 0.0
    vertex 313.60663406002885 10.798989701285258 0.0
  endloop
endfacet
facet normal -3.4707279785204907e-16 -1.0 -3.4987054913312746e-16
  outer loop
    vertex 184.90663406002884 10.798989701285302 0.0
    vertex 313.60663406002885 10.798989701285258 0.23999999999999894
    vertex 184.90663406002884 10.798989701285302 0.23999999999999894
  endloop
endfacet
facet normal -0.793353340291237 -0.6087614290087184 -2.1298769545834764e-16
  outer loop
    vertex 180.61980831129586 13.27398970128527 0.24000000000000174
    vertex 181.4064554931554 12.24881113441187 2.114974861910923e-15
    vertex 181.4064554931554 12.24881113441187 0.24000000000000174
  endloop
endfacet
facet normal -0.793353340291237 -0.6087614290087184 -2.1298769545834764e-16
  outer loop
    vertex 181.4064554931554 12.24881113441187 2.114974861910923e-15
    vertex 180.61980831129586 13.27398970128527 0.24000000000000174
    vertex 180.61980831129586 13.27398970128527 2.114974861910923e-15
  endloop
endfacet
facet normal -1.0 0.0 0.0
  outer loop
    vertex 179.95663406002882 77.67684512245785 0.2400000000000243
    vertex 179.95663406002882 15.748989701285305 2.114974861910923e-15
    vertex 179.95663406002882 15.748989701285305 0.24000000000000174
  endloop
endfacet
facet normal -1.0 0.0 0.0
  outer loop
    vertex 179.95663406002882 15.748989701285305 2.114974861910923e-15
    vertex 179.95663406002882 77.67684512245785 0.2400000000000243
    vertex 179.95663406002882 77.67684512245785 2.5379698342931078e-14
  endloop
endfacet
facet normal -1.0 1.7855260236783744e-47 -4.512795190594592e-32
  outer loop
    vertex 304.84632923763365 41.2179346900627 0.24000000000006097
    vertex 304.84632923763365 21.81393431240767 5.357936316841005e-14
    vertex 304.84632923763365 21.81393431240767 0.24000000000005392
  endloop
endfacet
facet normal -1.0 1.7855260236783744e-47 -4.512795190594592e-32
  outer loop
    vertex 304.84632923763365 21.81393431240767 5.357936316841005e-14
    vertex 304.84632923763365 41.2179346900627 0.24000000000006097
    vertex 304.84632923763365 41.2179346900627 6.133427099541677e-14
  endloop
endfacet
facet normal 0.7933533402912121 -0.608761429008751 -2.1298769545835898e-16
  outer loop
    vertex 317.89345980876186 13.27398970128527 2.114974861910923e-15
    vertex 317.1068126269022 12.24881113441187 0.24000000000000174
    vertex 317.1068126269022 12.24881113441187 2.114974861910923e-15
  endloop
endfacet
facet normal 0.7933533402912121 -0.608761429008751 -2.1298769545835898e-16
  outer loop
    vertex 317.1068126269022 12.24881113441187 0.24000000000000174
    vertex 317.89345980876186 13.27398970128527 2.114974861910923e-15
    vertex 317.89345980876186 13.27398970128527 0.24000000000000174
  endloop
endfacet
facet normal 0.13052619222005837 -0.9914448613738095 -3.468773580840721e-16
  outer loop
    vertex 314.8877883332863 10.96765686115437 0.23999999999999894
    vertex 313.60663406002885 10.798989701285258 0.0
    vertex 314.8877883332863 10.96765686115437 0.0
  endloop
endfacet
facet normal 0.13052619222005837 -0.9914448613738095 -3.468773580840721e-16
  outer loop
    vertex 313.60663406002885 10.798989701285258 0.0
    vertex 314.8877883332863 10.96765686115437 0.23999999999999894
    vertex 313.60663406002885 10.798989701285258 0.23999999999999894
  endloop
endfacet
facet normal -0.7933533402912345 0.6087614290087217 0.0
  outer loop
    vertex 180.33358763264172 78.58689154984496 0.2400000000000243
    vertex 180.12905936535827 78.32034512245785 2.5379698342931078e-14
    vertex 180.12905936535827 78.32034512245785 0.2400000000000243
  endloop
endfacet
facet normal -0.7933533402912345 0.6087614290087217 0.0
  outer loop
    vertex 180.12905936535827 78.32034512245785 2.5379698342931078e-14
    vertex 180.33358763264172 78.58689154984496 0.2400000000000243
    vertex 180.33358763264172 78.58689154984496 2.5379698342931078e-14
  endloop
endfacet
facet normal -0.9914448613738102 -0.13052619222005388 -4.566727054828644e-17
  outer loop
    vertex 179.95663406002882 15.748989701285305 0.24000000000000174
    vertex 180.12530121989792 14.467835428027806 2.114974861910923e-15
    vertex 180.12530121989792 14.467835428027806 0.24000000000000174
  endloop
endfacet
facet normal -0.9914448613738102 -0.13052619222005388 -4.566727054828644e-17
  outer loop
    vertex 180.12530121989792 14.467835428027806 2.114974861910923e-15
    vertex 179.95663406002882 15.748989701285305 0.24000000000000174
    vertex 179.95663406002882 15.748989701285305 2.114974861910923e-15
  endloop
endfacet
facet normal -0.13052619222005613 -0.9914448613738098 -3.4687735808407223e-16
  outer loop
    vertex 184.90663406002884 10.798989701285302 0.23999999999999894
    vertex 183.62547978677134 10.967656861154417 0.0
    vertex 184.90663406002884 10.798989701285302 0.0
  endloop
endfacet
facet normal -0.13052619222005613 -0.9914448613738098 -3.4687735808407223e-16
  outer loop
    vertex 183.62547978677134 10.967656861154417 0.0
    vertex 184.90663406002884 10.798989701285302 0.23999999999999894
    vertex 183.62547978677134 10.967656861154417 0.23999999999999894
  endloop
endfacet
facet normal 0.0 1.0 0.0
  outer loop
    vertex 181.24363406002882 78.96384512245788 0.2400000000000243
    vertex 317.26963406002886 78.96384512245788 2.5379698342931078e-14
    vertex 181.24363406002882 78.96384512245788 2.5379698342931078e-14
  endloop
endfacet
facet normal 0.0 1.0 0.0
  outer loop
    vertex 317.26963406002886 78.96384512245788 2.5379698342931078e-14
    vertex 181.24363406002882 78.96384512245788 0.2400000000000243
    vertex 317.26963406002886 78.96384512245788 0.2400000000000243
  endloop
endfacet
facet normal 0.6087614290086896 0.7933533402912591 0.0
  outer loop
    vertex 317.9131340600288 78.79141981712844 0.2400000000000243
    vertex 318.17968048741596 78.58689154984496 2.5379698342931078e-14
    vertex 317.9131340600288 78.79141981712844 2.5379698342931078e-14
  endloop
endfacet
facet normal 0.6087614290086896 0.7933533402912591 0.0
  outer loop
    vertex 318.17968048741596 78.58689154984496 2.5379698342931078e-14
    vertex 317.9131340600288 78.79141981712844 0.2400000000000243
    vertex 318.17968048741596 78.58689154984496 0.2400000000000243
  endloop
endfacet
facet normal 0.6087614290087292 -0.7933533402912286 -2.7757096882429296e-16
  outer loop
    vertex 317.1068126269022 12.24881113441187 0.24000000000000174
    vertex 316.0816340600288 11.462163952552299 2.114974861910923e-15
    vertex 317.1068126269022 12.24881113441187 2.114974861910923e-15
  endloop
endfacet
facet normal 0.6087614290087292 -0.7933533402912286 -2.7757096882429296e-16
  outer loop
    vertex 316.0816340600288 11.462163952552299 2.114974861910923e-15
    vertex 317.1068126269022 12.24881113441187 0.24000000000000174
    vertex 316.0816340600288 11.462163952552299 0.24000000000000174
  endloop
endfacet
facet normal -0.13052619222006845 0.9914448613738082 -4.151887266764307e-30
  outer loop
    vertex 180.91053394898188 78.91999166089188 0.2400000000000243
    vertex 181.24363406002882 78.96384512245788 2.5379698342931078e-14
    vertex 180.91053394898188 78.91999166089188 2.5379698342931078e-14
  endloop
endfacet
facet normal -0.13052619222006845 0.9914448613738082 -4.151887266764307e-30
  outer loop
    vertex 181.24363406002882 78.96384512245788 2.5379698342931078e-14
    vertex 180.91053394898188 78.91999166089188 0.2400000000000243
    vertex 181.24363406002882 78.96384512245788 0.2400000000000243
  endloop
endfacet
facet normal -0.6087614290086991 -0.7933533402912517 -2.77570968824301e-16
  outer loop
    vertex 182.43163406002884 11.462163952552343 0.24000000000000174
    vertex 181.4064554931554 12.24881113441187 2.114974861910923e-15
    vertex 182.43163406002884 11.462163952552343 2.114974861910923e-15
  endloop
endfacet
facet normal -0.6087614290086991 -0.7933533402912517 -2.77570968824301e-16
  outer loop
    vertex 181.4064554931554 12.24881113441187 2.114974861910923e-15
    vertex 182.43163406002884 11.462163952552343 0.24000000000000174
    vertex 181.4064554931554 12.24881113441187 0.24000000000000174
  endloop
endfacet
facet normal 0.7933533402912591 0.6087614290086896 0.0
  outer loop
    vertex 318.17968048741596 78.58689154984496 2.5379698342931078e-14
    vertex 318.3842087546994 78.32034512245784 0.2400000000000243
    vertex 318.3842087546994 78.32034512245784 2.5379698342931078e-14
  endloop
endfacet
facet normal 0.7933533402912591 0.6087614290086896 0.0
  outer loop
    vertex 318.3842087546994 78.32034512245784 0.2400000000000243
    vertex 318.17968048741596 78.58689154984496 2.5379698342931078e-14
    vertex 318.17968048741596 78.58689154984496 0.2400000000000243
  endloop
endfacet
facet normal 2.852776853870839e-32 3.5192531274401986e-16 -1.0
  outer loop
    vertex 180.00048752159478 78.0099452335048 2.5379698342931078e-14
    vertex 179.95663406002882 15.748989701285305 2.114974861910923e-15
    vertex 179.95663406002882 77.67684512245785 2.5379698342931078e-14
  endloop
endfacet
facet normal 2.852776853870839e-32 3.5192531274401986e-16 -1.0
  outer loop
    vertex 179.95663406002882 15.748989701285305 2.114974861910923e-15
    vertex 180.00048752159478 78.0099452335048 2.5379698342931078e-14
    vertex 180.12530121989792 14.467835428027806 2.114974861910923e-15
  endloop
endfacet
facet normal 2.852776853870839e-32 3.5192531274401986e-16 -1.0
  outer loop
    vertex 180.12530121989792 14.467835428027806 2.114974861910923e-15
    vertex 180.00048752159478 78.0099452335048 2.5379698342931078e-14
    vertex 180.12905936535827 78.32034512245785 2.5379698342931078e-14
  endloop
endfacet
facet normal 2.852776853870839e-32 3.5192531274401986e-16 -1.0
  outer loop
    vertex 180.12530121989792 14.467835428027806 2.114974861910923e-15
    vertex 180.12905936535827 78.32034512245785 2.5379698342931078e-14
    vertex 180.61980831129586 13.27398970128527 2.114974861910923e-15
  endloop
endfacet
facet normal 2.852776853870839e-32 3.5192531274401986e-16 -1.0
  outer loop
    vertex 180.61980831129586 13.27398970128527 2.114974861910923e-15
    vertex 180.12905936535827 78.32034512245785 2.5379698342931078e-14
    vertex 180.33358763264172 78.58689154984496 2.5379698342931078e-14
  endloop
endfacet
facet normal 2.852776853870839e-32 3.5192531274401986e-16 -1.0
  outer loop
    vertex 180.61980831129586 13.27398970128527 2.114974861910923e-15
    vertex 180.33358763264172 78.58689154984496 2.5379698342931078e-14
    vertex 180.6001340600288 78.79141981712844 2.5379698342931078e-14
  endloop
endfacet
facet normal 2.852776853870839e-32 3.5192531274401986e-16 -1.0
  outer loop
    vertex 180.61980831129586 13.27398970128527 2.114974861910923e-15
    vertex 180.6001340600288 78.79141981712844 2.5379698342931078e-14
    vertex 180.91053394898188 78.91999166089188 2.5379698342931078e-14
  endloop
endfacet
facet normal 2.852776853870839e-32 3.5192531274401986e-16 -1.0
  outer loop
    vertex 180.61980831129586 13.27398970128527 2.114974861910923e-15
    vertex 180.91053394898188 78.91999166089188 2.5379698342931078e-14
    vertex 181.4064554931554 12.24881113441187 2.114974861910923e-15
  endloop
endfacet
facet normal 2.852776853870839e-32 3.5192531274401986e-16 -1.0
  outer loop
    vertex 181.4064554931554 12.24881113441187 2.114974861910923e-15
    vertex 180.91053394898188 78.91999166089188 2.5379698342931078e-14
    vertex 181.24363406002882 78.96384512245788 2.5379698342931078e-14
  endloop
endfacet
facet normal 2.852776853870839e-32 3.5192531274401986e-16 -1.0
  outer loop
    vertex 181.4064554931554 12.24881113441187 2.114974861910923e-15
    vertex 181.24363406002882 78.96384512245788 2.5379698342931078e-14
    vertex 317.26963406002886 78.96384512245788 2.5379698342931078e-14
  endloop
endfacet
facet normal 2.852776853870839e-32 3.5192531274401986e-16 -1.0
  outer loop
    vertex 181.4064554931554 12.24881113441187 2.114974861910923e-15
    vertex 317.26963406002886 78.96384512245788 2.5379698342931078e-14
    vertex 182.43163406002884 11.462163952552343 2.114974861910923e-15
  endloop
endfacet
facet normal 2.852776853870839e-32 3.5192531274401986e-16 -1.0
  outer loop
    vertex 182.43163406002884 11.462163952552343 2.114974861910923e-15
    vertex 317.26963406002886 78.96384512245788 2.5379698342931078e-14
    vertex 183.62547978677134 10.967656861154417 0.0
  endloop
endfacet
facet normal 2.852776853870839e-32 3.5192531274401986e-16 -1.0
  outer loop
    vertex 183.62547978677134 10.967656861154417 0.0
    vertex 317.26963406002886 78.96384512245788 2.5379698342931078e-14
    vertex 184.90663406002884 10.798989701285302 0.0
  endloop
endfacet
facet normal 2.852776853870839e-32 3.5192531274401986e-16 -1.0
  outer loop
    vertex 184.90663406002884 10.798989701285302 0.0
    vertex 317.26963406002886 78.96384512245788 2.5379698342931078e-14
    vertex 275.64726975124455 41.21793469006267 7.049916206369744e-14
  endloop
endfacet
facet normal 2.852776853870839e-32 3.5192531274401986e-16 -1.0
  outer loop
    vertex 275.64726975124455 41.21793469006267 7.049916206369744e-14
    vertex 317.26963406002886 78.96384512245788 2.5379698342931078e-14
    vertex 304.84632923763365 41.2179346900627 6.133427099541677e-14
  endloop
endfacet
facet normal 2.852776853870839e-32 3.5192531274401986e-16 -1.0
  outer loop
    vertex 304.84632923763365 41.2179346900627 6.133427099541677e-14
    vertex 317.26963406002886 78.96384512245788 2.5379698342931078e-14
    vertex 304.84632923763365 21.81393431240767 5.357936316841005e-14
  endloop
endfacet
facet normal 2.852776853870839e-32 3.5192531274401986e-16 -1.0
  outer loop
    vertex 304.84632923763365 21.81393431240767 5.357936316841005e-14
    vertex 317.26963406002886 78.96384512245788 2.5379698342931078e-14
    vertex 313.60663406002885 10.798989701285258 0.0
  endloop
endfacet
facet normal 2.852776853870839e-32 3.5192531274401986e-16 -1.0
  outer loop
    vertex 313.60663406002885 10.798989701285258 0.0
    vertex 317.26963406002886 78.96384512245788 2.5379698342931078e-14
    vertex 314.8877883332863 10.96765686115437 0.0
  endloop
endfacet
facet normal 2.852776853870839e-32 3.5192531274401986e-16 -1.0
  outer loop
    vertex 314.8877883332863 10.96765686115437 0.0
    vertex 317.26963406002886 78.96384512245788 2.5379698342931078e-14
    vertex 316.0816340600288 11.462163952552299 2.114974861910923e-15
  endloop
endfacet
facet normal 2.852776853870839e-32 3.5192531274401986e-16 -1.0
  outer loop
    vertex 316.0816340600288 11.462163952552299 2.114974861910923e-15
    vertex 317.26963406002886 78.96384512245788 2.5379698342931078e-14
    vertex 317.1068126269022 12.24881113441187 2.114974861910923e-15
  endloop
endfacet
facet normal 2.852776853870839e-32 3.5192531274401986e-16 -1.0
  outer loop
    vertex 317.1068126269022 12.24881113441187 2.114974861910923e-15
    vertex 317.26963406002886 78.96384512245788 2.5379698342931078e-14
    vertex 317.89345980876186 13.27398970128527 2.114974861910923e-15
  endloop
endfacet
facet normal 2.852776853870839e-32 3.5192531274401986e-16 -1.0
  outer loop
    vertex 317.89345980876186 13.27398970128527 2.114974861910923e-15
    vertex 317.26963406002886 78.96384512245788 2.5379698342931078e-14
    vertex 317.6027341710759 78.91999166089188 2.5379698342931078e-14
  endloop
endfacet
facet normal 2.852776853870839e-32 3.5192531274401986e-16 -1.0
  outer loop
    vertex 317.89345980876186 13.27398970128527 2.114974861910923e-15
    vertex 317.6027341710759 78.91999166089188 2.5379698342931078e-14
    vertex 317.9131340600288 78.79141981712844 2.5379698342931078e-14
  endloop
endfacet
facet normal 2.852776853870839e-32 3.5192531274401986e-16 -1.0
  outer loop
    vertex 317.89345980876186 13.27398970128527 2.114974861910923e-15
    vertex 317.9131340600288 78.79141981712844 2.5379698342931078e-14
    vertex 318.38796690015977 14.467835428027806 2.114974861910923e-15
  endloop
endfacet
facet normal 2.852776853870839e-32 3.5192531274401986e-16 -1.0
  outer loop
    vertex 318.38796690015977 14.467835428027806 2.114974861910923e-15
    vertex 317.9131340600288 78.79141981712844 2.5379698342931078e-14
    vertex 318.17968048741596 78.58689154984496 2.5379698342931078e-14
  endloop
endfacet
facet normal 2.852776853870839e-32 3.5192531274401986e-16 -1.0
  outer loop
    vertex 318.38796690015977 14.467835428027806 2.114974861910923e-15
    vertex 318.17968048741596 78.58689154984496 2.5379698342931078e-14
    vertex 318.3842087546994 78.32034512245784 2.5379698342931078e-14
  endloop
endfacet
facet normal 2.852776853870839e-32 3.5192531274401986e-16 -1.0
  outer loop
    vertex 318.38796690015977 14.467835428027806 2.114974861910923e-15
    vertex 318.3842087546994 78.32034512245784 2.5379698342931078e-14
    vertex 318.5127805984629 78.0099452335048 2.5379698342931078e-14
  endloop
endfacet
facet normal 2.852776853870839e-32 3.5192531274401986e-16 -1.0
  outer loop
    vertex 318.38796690015977 14.467835428027806 2.114974861910923e-15
    vertex 318.5127805984629 78.0099452335048 2.5379698342931078e-14
    vertex 318.5566340600289 15.748989701285305 2.114974861910923e-15
  endloop
endfacet
facet normal 2.852776853870839e-32 3.5192531274401986e-16 -1.0
  outer loop
    vertex 318.5566340600289 15.748989701285305 2.114974861910923e-15
    vertex 318.5127805984629 78.0099452335048 2.5379698342931078e-14
    vertex 318.5566340600289 77.67684512245785 2.5379698342931078e-14
  endloop
endfacet
facet normal 2.852776853870839e-32 3.5192531274401986e-16 -1.0
  outer loop
    vertex 184.90663406002884 10.798989701285302 0.0
    vertex 275.64726975124455 21.81393431240767 6.626921233987559e-14
    vertex 313.60663406002885 10.798989701285258 0.0
  endloop
endfacet
facet normal 2.852776853870839e-32 3.5192531274401986e-16 -1.0
  outer loop
    vertex 275.64726975124455 21.81393431240767 6.626921233987559e-14
    vertex 184.90663406002884 10.798989701285302 0.0
    vertex 275.64726975124455 41.21793469006267 7.049916206369744e-14
  endloop
endfacet
facet normal 2.852776853870839e-32 3.5192531274401986e-16 -1.0
  outer loop
    vertex 313.60663406002885 10.798989701285258 0.0
    vertex 275.64726975124455 21.81393431240767 6.626921233987559e-14
    vertex 304.84632923763365 21.81393431240767 5.357936316841005e-14
  endloop
endfacet
facet normal 0.9238795325112563 0.3826834323651632 0.0
  outer loop
    vertex 318.3842087546994 78.32034512245784 2.5379698342931078e-14
    vertex 318.5127805984629 78.0099452335048 0.2400000000000243
    vertex 318.5127805984629 78.0099452335048 2.5379698342931078e-14
  endloop
endfacet
facet normal 0.9238795325112563 0.3826834323651632 0.0
  outer loop
    vertex 318.5127805984629 78.0099452335048 0.2400000000000243
    vertex 318.3842087546994 78.32034512245784 2.5379698342931078e-14
    vertex 318.3842087546994 78.32034512245784 0.2400000000000243
  endloop
endfacet
facet normal 0.9914448613738082 0.13052619222006845 -1.3029874639513237e-28
  outer loop
    vertex 318.5127805984629 78.0099452335048 2.5379698342931078e-14
    vertex 318.5566340600289 77.67684512245785 0.2400000000000243
    vertex 318.5566340600289 77.67684512245785 2.5379698342931078e-14
  endloop
endfacet
facet normal 0.9914448613738082 0.13052619222006845 -1.3029874639513237e-28
  outer loop
    vertex 318.5566340600289 77.67684512245785 0.2400000000000243
    vertex 318.5127805984629 78.0099452335048 2.5379698342931078e-14
    vertex 318.5127805984629 78.0099452335048 0.2400000000000243
  endloop
endfacet
facet normal 0.3826834323651299 0.9238795325112701 0.0
  outer loop
    vertex 317.6027341710759 78.91999166089188 0.2400000000000243
    vertex 317.9131340600288 78.79141981712844 2.5379698342931078e-14
    vertex 317.6027341710759 78.91999166089188 2.5379698342931078e-14
  endloop
endfacet
facet normal 0.3826834323651299 0.9238795325112701 0.0
  outer loop
    vertex 317.9131340600288 78.79141981712844 2.5379698342931078e-14
    vertex 317.6027341710759 78.91999166089188 0.2400000000000243
    vertex 317.9131340600288 78.79141981712844 0.2400000000000243
  endloop
endfacet
facet normal 1.0 0.0 0.0
  outer loop
    vertex 318.5566340600289 77.67684512245785 2.5379698342931078e-14
    vertex 318.5566340600289 15.748989701285305 0.24000000000000174
    vertex 318.5566340600289 15.748989701285305 2.114974861910923e-15
  endloop
endfacet
facet normal 1.0 0.0 0.0
  outer loop
    vertex 318.5566340600289 15.748989701285305 0.24000000000000174
    vertex 318.5566340600289 77.67684512245785 2.5379698342931078e-14
    vertex 318.5566340600289 77.67684512245785 0.2400000000000243
  endloop
endfacet
facet normal 0.9238795325112835 -0.3826834323650975 -1.3388966262572666e-16
  outer loop
    vertex 318.38796690015977 14.467835428027806 2.114974861910923e-15
    vertex 317.89345980876186 13.27398970128527 0.24000000000000174
    vertex 317.89345980876186 13.27398970128527 2.114974861910923e-15
  endloop
endfacet
facet normal 0.9238795325112835 -0.3826834323650975 -1.3388966262572666e-16
  outer loop
    vertex 317.89345980876186 13.27398970128527 0.24000000000000174
    vertex 318.38796690015977 14.467835428027806 2.114974861910923e-15
    vertex 318.38796690015977 14.467835428027806 0.24000000000000174
  endloop
endfacet
facet normal 0.9914448613738102 -0.13052619222005388 -4.566727054828635e-17
  outer loop
    vertex 318.5566340600289 15.748989701285305 2.114974861910923e-15
    vertex 318.38796690015977 14.467835428027806 0.24000000000000174
    vertex 318.38796690015977 14.467835428027806 2.114974861910923e-15
  endloop
endfacet
facet normal 0.9914448613738102 -0.13052619222005388 -4.566727054828635e-17
  outer loop
    vertex 318.38796690015977 14.467835428027806 0.24000000000000174
    vertex 318.5566340600289 15.748989701285305 2.114974861910923e-15
    vertex 318.5566340600289 15.748989701285305 0.24000000000000174
  endloop
endfacet
facet normal 7.648922579917417e-16 -1.0 -3.498705491331274e-16
  outer loop
    vertex 304.84632923763365 41.2179346900627 0.24000000000006097
    vertex 275.64726975124455 41.21793469006267 7.049916206369744e-14
    vertex 304.84632923763365 41.2179346900627 6.133427099541677e-14
  endloop
endfacet
facet normal 7.648922579917417e-16 -1.0 -3.498705491331274e-16
  outer loop
    vertex 275.64726975124455 41.21793469006267 7.049916206369744e-14
    vertex 304.84632923763365 41.2179346900627 0.24000000000006097
    vertex 275.64726975124455 41.21793469006267 0.24000000000007082
  endloop
endfacet
facet normal -0.9914448613738082 0.13052619222006845 4.151887266764307e-30
  outer loop
    vertex 180.00048752159478 78.0099452335048 0.2400000000000243
    vertex 179.95663406002882 77.67684512245785 2.5379698342931078e-14
    vertex 179.95663406002882 77.67684512245785 0.2400000000000243
  endloop
endfacet
facet normal -0.9914448613738082 0.13052619222006845 4.151887266764307e-30
  outer loop
    vertex 179.95663406002882 77.67684512245785 2.5379698342931078e-14
    vertex 180.00048752159478 78.0099452335048 0.2400000000000243
    vertex 180.00048752159478 78.0099452335048 2.5379698342931078e-14
  endloop
endfacet
facet normal -0.3826834323651065 0.9238795325112799 0.0
  outer loop
    vertex 180.6001340600288 78.79141981712844 0.2400000000000243
    vertex 180.91053394898188 78.91999166089188 2.5379698342931078e-14
    vertex 180.6001340600288 78.79141981712844 2.5379698342931078e-14
  endloop
endfacet
facet normal -0.3826834323651065 0.9238795325112799 0.0
  outer loop
    vertex 180.91053394898188 78.91999166089188 2.5379698342931078e-14
    vertex 180.6001340600288 78.79141981712844 0.2400000000000243
    vertex 180.91053394898188 78.91999166089188 0.2400000000000243
  endloop
endfacet
facet normal -0.6087614290086896 0.7933533402912591 0.0
  outer loop
    vertex 180.33358763264172 78.58689154984496 0.2400000000000243
    vertex 180.6001340600288 78.79141981712844 2.5379698342931078e-14
    vertex 180.33358763264172 78.58689154984496 2.5379698342931078e-14
  endloop
endfacet
facet normal -0.6087614290086896 0.7933533402912591 0.0
  outer loop
    vertex 180.6001340600288 78.79141981712844 2.5379698342931078e-14
    vertex 180.33358763264172 78.58689154984496 0.2400000000000243
    vertex 180.6001340600288 78.79141981712844 0.2400000000000243
  endloop
endfacet
facet normal -0.9238795325112896 0.38268343236508295 0.0
  outer loop
    vertex 180.12905936535827 78.32034512245785 0.2400000000000243
    vertex 180.00048752159478 78.0099452335048 2.5379698342931078e-14
    vertex 180.00048752159478 78.0099452335048 0.2400000000000243
  endloop
endfacet
facet normal -0.9238795325112896 0.38268343236508295 0.0
  outer loop
    vertex 180.00048752159478 78.0099452335048 2.5379698342931078e-14
    vertex 180.12905936535827 78.32034512245785 0.2400000000000243
    vertex 180.12905936535827 78.32034512245785 2.5379698342931078e-14
  endloop
endfacet
facet normal 0.3826834323650975 -0.9238795325112835 -3.232382393725797e-16
  outer loop
    vertex 316.0816340600288 11.462163952552299 2.114974861910923e-15
    vertex 314.8877883332863 10.96765686115437 0.23999999999999894
    vertex 314.8877883332863 10.96765686115437 0.0
  endloop
endfacet
facet normal 0.3826834323650975 -0.9238795325112835 -3.232382393725797e-16
  outer loop
    vertex 314.8877883332863 10.96765686115437 0.23999999999999894
    vertex 316.0816340600288 11.462163952552299 2.114974861910923e-15
    vertex 316.0816340600288 11.462163952552299 0.24000000000000174
  endloop
endfacet
facet normal 1.5053246681132724e-31 1.0 3.498705491331274e-16
  outer loop
    vertex 275.64726975124455 21.81393431240767 6.626921233987559e-14
    vertex 304.84632923763365 21.81393431240767 0.24000000000005392
    vertex 304.84632923763365 21.81393431240767 5.357936316841005e-14
  endloop
endfacet
facet normal 1.5053246681132724e-31 1.0 3.498705491331274e-16
  outer loop
    vertex 304.84632923763365 21.81393431240767 0.24000000000005392
    vertex 275.64726975124455 21.81393431240767 6.626921233987559e-14
    vertex 275.64726975124455 21.81393431240767 0.2400000000000666
  endloop
endfacet
facet normal 1.0 -9.739232856427506e-48 4.512795190594592e-32
  outer loop
    vertex 275.64726975124455 41.21793469006267 7.049916206369744e-14
    vertex 275.64726975124455 21.81393431240767 0.2400000000000666
    vertex 275.64726975124455 21.81393431240767 6.626921233987559e-14
  endloop
endfacet
facet normal 1.0 -9.739232856427506e-48 4.512795190594592e-32
  outer loop
    vertex 275.64726975124455 21.81393431240767 0.2400000000000666
    vertex 275.64726975124455 41.21793469006267 7.049916206369744e-14
    vertex 275.64726975124455 41.21793469006267 0.24000000000007082
  endloop
endfacet
facet normal 0.13052619222005984 0.9914448613738093 0.0
  outer loop
    vertex 317.26963406002886 78.96384512245788 0.2400000000000243
    vertex 317.6027341710759 78.91999166089188 2.5379698342931078e-14
    vertex 317.26963406002886 78.96384512245788 2.5379698342931078e-14
  endloop
endfacet
facet normal 0.13052619222005984 0.9914448613738093 0.0
  outer loop
    vertex 317.6027341710759 78.91999166089188 2.5379698342931078e-14
    vertex 317.26963406002886 78.96384512245788 0.2400000000000243
    vertex 317.6027341710759 78.91999166089188 0.2400000000000243
  endloop
endfacet
endsolid Front Inlay
